<?xml version="1.0" encoding="UTF-8"?>
<svg id="Vrstva_1" data-name="Vrstva 1" xmlns="http://www.w3.org/2000/svg" viewBox="0 0 79.37 79.37">
  <defs>
    <style>
      .cls-1 {
        fill: #abc7e9;
      }

      .cls-2 {
        fill: #eccfbc;
      }

      .cls-3 {
        fill: #241e3f;
      }

      .cls-4 {
        fill: #9d4f3e;
      }

      .cls-5 {
        fill: #b37e7f;
      }

      .cls-6 {
        fill: #b37059;
      }

      .cls-7 {
        fill: #7a7db3;
      }

      .cls-8 {
        fill: #64140e;
      }

      .cls-9 {
        fill: #fffbfc;
      }

      .cls-10 {
        fill: #c99c8c;
      }

      .cls-11 {
        fill: #edc28e;
      }

      .cls-12 {
        fill: #977761;
      }
    </style>
  </defs>
  <g>
    <path class="cls-6" d="M70.75,53.99h-.14c.05-.13.09-.25.13-.38,0,.12,0,.25,0,.38"/>
    <path class="cls-11" d="M71.69,47.27c.34,13.68-13.03,20.49-29.73,20.91-16.7.42-30.41-5.71-30.75-19.39-.33-13.11,7.8-28.29,26.95-30,2.29-1.24,5.38-3.37,7.07-6.45.53-.96,1.94-.86,2.31.18.5,1.38.97,3.19.1,5.57,2.54-1.31,5.05-2.79,5.87-3.57.88-.83,2.32-.21,2.31,1-.01,1.17-.37,3.65-.81,5.74,11.13,4.92,16.42,15.95,16.68,26.01"/>
    <path class="cls-4" d="M27.59,66.65h0c-9.05-2.44-15.44-7.81-16.29-16.38h0c.86,8.57,7.25,13.94,16.29,16.38"/>
    <path class="cls-7" d="M11.21,49.15h0c0-.12,0-.24-.01-.35-.02-.84,0-1.68.04-2.54,0,0,0,0,0,0-.05.85-.06,1.69-.04,2.53,0,.12,0,.24.01.35"/>
    <path class="cls-8" d="M37.26,68.12c-3.44-.18-6.7-.67-9.67-1.47h0c2.97.8,6.23,1.29,9.67,1.47M11.29,50.26h0c-.04-.37-.06-.74-.08-1.12h0c.02.38.04.75.08,1.12"/>
    <path class="cls-6" d="M70.74,53.61s0,0,0,0c.44-1.25.73-2.57.87-3.98h0s0-.02,0-.03h0s0-.02,0-.02c0,0,0,0,0,0,0,0,0-.01,0-.02,0,0,0,0,0,0,0,0,0,0,0-.02,0,0,0,0,0-.01,0,0,0-.01,0-.02,0,0,0,0,0-.01,0,0,0,0,0,0,0,0,0,0,0-.01,0,0,0,0,0,0,0-.01,0-.02,0-.03,0,0,0,0,0,0,0,0,0-.01,0-.02h0c.03-.34.05-.69.06-1.04h0s0-.05,0-.08t0,0s0-.04,0-.06h0s0-.01,0-.02c0,0,0,0,0,0,0-.02,0-.03,0-.05h0s0-.02,0-.02h0s0-.04,0-.06h0s0-.02,0-.02h0s0-.02,0-.03v-.02s0,0,0-.01c0,0,0,0,0-.01h0s0-.02,0-.02,0,0,0-.01v-.02s0,0,0-.01h0s0-.02,0-.02v-.02s0,0,0,0v-.02s0,0,0,0v-.02s0,0,0,0c0,0,0-.02,0-.02h0s0-.02,0-.02h0s0-.02,0-.03h0s0-.02,0-.03h0s0-.02,0-.02h0s0-.02,0-.03h0s0-.02,0-.03h0s0-.02,0-.02h0s0-.02,0-.03h0s0-.02,0-.03h0s0-.02,0-.02h0s0-.02,0-.03h0s0-.02,0-.03h0s0-.02,0-.03h0s0-.04,0-.06h0s0-.02,0-.02h0s0-.04,0-.06c0,0,0,0,0,0v-.02s0,0,0,0c0,0,0-.02,0-.02-.01-.45-.03-.89-.06-1.34h0c.03.45.05.9.06,1.34.06,2.31-.27,4.42-.95,6.34"/>
    <path class="cls-4" d="M70.61,53.98h0c.05-.12.09-.24.13-.37,0,0,0,0,0,0-.04.12-.09.24-.13.37"/>
    <path class="cls-4" d="M53.73,66.65c8.19-2.08,14.46-6.28,16.88-12.67h0c-2.42,6.39-8.69,10.59-16.88,12.67h0"/>
    <path class="cls-8" d="M44.82,68.04c3.14-.22,6.13-.69,8.91-1.39h0c-2.77.7-5.77,1.17-8.91,1.39"/>
    <path class="cls-6" d="M40.42,68.2c-1.07,0-2.13-.03-3.17-.08-3.44-.18-6.7-.67-9.67-1.47-9.05-2.44-15.44-7.81-16.29-16.38-.04-.37-.06-.74-.08-1.12,0-.12,0-.24-.01-.35-.02-.84,0-1.68.04-2.53.91,12.61,13.56,18.48,29.18,18.47.51,0,1.01,0,1.53-.02,14.39-.36,26.32-5.47,29.12-15.63,0,.13.01.27.01.4.04,1.45-.08,2.83-.34,4.12.44-1.24.73-2.57.87-3.98-.14,1.41-.43,2.73-.87,3.98-.04.12-.09.25-.13.37-2.42,6.39-8.69,10.59-16.88,12.67-2.77.7-5.77,1.17-8.91,1.39-.94.07-1.9.11-2.86.14-.51.01-1.03.02-1.53.02M71.61,49.63s0-.02,0-.02c0,0,0,.02,0,.02M71.61,49.6s0-.02,0-.02c0,0,0,.02,0,.02M71.61,49.57s0-.01,0-.02c0,0,0,.01,0,.02M71.62,49.55s0,0,0-.02c0,0,0,0,0,.02M71.62,49.52s0-.01,0-.02c0,0,0,.01,0,.02M71.62,49.49s0,0,0,0c0,0,0,0,0,0M71.62,49.47s0,0,0,0c0,0,0,0,0,0M71.63,49.43s0,0,0,0c0,0,0,0,0,0M71.63,49.41h0s0,0,0,0M71.69,48.37h0s0,0,0,0M71.69,48.3s0,0,0,0t0,0M71.69,48.24h0s0,0,0,0M71.69,48.22s0,0,0,0c0,0,0,0,0,0M71.69,48.16h0s0,0,0,0M71.69,48.14h0s0,0,0,0M71.69,48.09h0s0,0,0,0M71.69,48.06h0s0,0,0,0M71.69,48.04v-.02s0,.01,0,.02M71.69,48.01s0,0,0-.01c0,0,0,0,0,.01M71.69,47.99h0s0,0,0,0M71.69,47.96v-.02s0,.01,0,.02M71.69,47.93h0s0,0,0,0M71.7,47.91v-.02s0,.01,0,.02M71.7,47.88v-.02s0,.01,0,.02M71.7,47.85v-.02s0,.01,0,.02M71.7,47.83s0-.02,0-.02c0,0,0,.02,0,.02M71.7,47.8v-.02s0,.02,0,.02M71.7,47.77v-.02s0,.01,0,.02M71.7,47.75v-.02s0,.02,0,.02M71.7,47.72s0-.01,0-.02c0,0,0,.02,0,.02M71.69,47.69v-.02s0,.01,0,.02M71.69,47.67v-.02s0,.02,0,.02M71.69,47.64v-.02s0,.02,0,.02M71.69,47.61s0-.01,0-.02c0,0,0,.01,0,.02M71.69,47.59v-.03s0,.02,0,.03M71.69,47.56s0-.01,0-.02c0,0,0,.01,0,.02M71.69,47.53s0-.02,0-.02c0,0,0,.02,0,.02M71.69,47.51v-.03s0,.02,0,.03M71.69,47.48s0-.01,0-.02c0,0,0,.02,0,.02M71.69,47.45s0-.03,0-.05c0,.02,0,.03,0,.05M71.69,47.4s0-.01,0-.02c0,0,0,.01,0,.02M71.69,47.37s0-.03,0-.05c0,.02,0,.03,0,.05M71.69,47.32v-.02s0,.01,0,.02M71.69,47.29s0-.02,0-.02c-.01-.45-.03-.89-.06-1.34h0c.03.45.05.9.06,1.34,0,0,0,.02,0,.02"/>
    <path class="cls-1" d="M12.61,38.73s0,0,0,0c0,0,0,0,0,0M12.61,38.71c3.01-9.64,10.9-18.29,24.68-19.83-13.78,1.54-21.67,10.19-24.68,19.83M37.3,18.88s.02,0,.03,0c0,0-.02,0-.03,0M37.32,18.88s.05,0,.08,0c-.03,0-.05,0-.08,0M37.41,18.87s.01,0,.02,0c0,0-.01,0-.02,0M37.44,18.87s.02,0,.02,0c0,0-.02,0-.02,0M37.46,18.86s.04,0,.05,0c-.02,0-.04,0-.05,0M37.52,18.86s.01,0,.02,0c0,0-.01,0-.02,0M37.55,18.85s.01,0,.02,0c0,0-.02,0-.02,0M37.57,18.85s.03,0,.05,0c-.02,0-.04,0-.05,0M37.63,18.85s.01,0,.02,0c0,0-.01,0-.02,0M37.66,18.84s.02,0,.02,0c0,0-.02,0-.02,0M37.68,18.84s.04,0,.05,0c-.02,0-.04,0-.05,0M37.74,18.83s.01,0,.02,0c0,0-.01,0-.02,0M37.77,18.83s.01,0,.02,0c0,0-.01,0-.02,0M37.8,18.83s.02,0,.03,0c0,0-.02,0-.03,0M37.82,18.83s.02,0,.03,0c0,0-.02,0-.03,0M37.85,18.82s.01,0,.02,0c0,0-.01,0-.02,0M37.88,18.82s.01,0,.02,0c0,0-.01,0-.02,0M37.91,18.82s.04,0,.05,0c-.02,0-.03,0-.05,0M37.97,18.81s.01,0,.02,0c0,0-.01,0-.02,0M37.99,18.81s.01,0,.02,0c0,0-.01,0-.02,0M38.02,18.81s.03,0,.05,0c-.02,0-.04,0-.05,0M38.08,18.8s.01,0,.02,0c0,0-.01,0-.02,0M38.1,18.8s.01,0,.02,0c0,0-.01,0-.02,0M38.13,18.8s.02,0,.03,0c0,0-.02,0-.03,0"/>
    <path class="cls-2" d="M71.07,49.08c-.38-9.36-5.8-19.99-15.56-25.26-1.13-.61-1.73-1.87-1.49-3.13.28-1.42.5-2.75.51-3.52,0-.68-.23-.99-.6-.99-.29,0-.65.19-1.03.56-.64.61-2.32,1.64-4.23,2.69-.13.07-.26.1-.4.1-.47,0-.89-.4-.82-.92.21-1.57-.15-2.85-.52-3.88-.19-.53-.44-.85-.74-.85s-.64.31-1.03,1.03c-1.12,2.06-3.11,3.53-4.99,4.65-1.5.9-3.18,1.46-4.91,1.72-12.88,1.96-20.32,10.32-23.24,19.6.17-.72.37-1.44.59-2.16,0,0,0,0,0,0,0,0,0,0,0,0,3.01-9.64,10.9-18.29,24.68-19.83h0s.02,0,.03,0c0,0,0,0,0,0,.03,0,.05,0,.08,0,0,0,0,0,0,0,0,0,.01,0,.02,0,0,0,0,0,0,0,0,0,.02,0,.02,0,0,0,0,0,0,0,.02,0,.04,0,.05,0,0,0,0,0,0,0,0,0,.01,0,.02,0,0,0,0,0,0,0,0,0,.02,0,.02,0,0,0,0,0,0,0,.02,0,.04,0,.05,0,0,0,0,0,0,0,0,0,.01,0,.02,0,0,0,0,0,0,0,0,0,.02,0,.02,0t0,0s.04,0,.05,0c0,0,0,0,0,0,0,0,.01,0,.02,0,0,0,0,0,0,0,0,0,.01,0,.02,0,0,0,0,0,0,0,0,0,.02,0,.03,0h0s.02,0,.03,0c0,0,0,0,0,0,0,0,.01,0,.02,0,0,0,0,0,0,0,0,0,.01,0,.02,0,0,0,0,0,0,0,.02,0,.03,0,.05,0,0,0,0,0,0,0,0,0,.01,0,.02,0,0,0,0,0,0,0,0,0,.01,0,.02,0,0,0,0,0,0,0,.02,0,.04,0,.05,0,0,0,0,0,0,0,0,0,.01,0,.02,0,0,0,0,0,0,0,0,0,.01,0,.02,0,0,0,0,0,0,0,0,0,.02,0,.03,0h0c2.29-1.24,5.38-3.37,7.07-6.45.25-.45.68-.66,1.12-.67.5,0,.99.29,1.2.84.3.82.58,1.79.58,2.94,0,.79-.13,1.66-.49,2.63h0c2.54-1.31,5.05-2.79,5.87-3.57.28-.26.61-.38.93-.38.7,0,1.38.55,1.38,1.37h0c-.01,1.18-.37,3.67-.81,5.75h0c10.64,4.7,15.94,14.98,16.61,24.67-.09,1.1-.28,2.15-.56,3.15"/>
    <path class="cls-10" d="M71.61,49.63h0s0,0,0,0M71.61,49.6h0s0,0,0,0M71.61,49.58s0,0,0,0c0,0,0,0,0,0M71.61,49.56s0,0,0,0c0,0,0,0,0,0M71.62,49.53s0,0,0-.01c0,0,0,0,0,.01M71.62,49.51s0,0,0-.01c0,0,0,0,0,.01M71.62,49.48s0,0,0-.01c0,0,0,0,0,.01M71.62,49.46s0-.02,0-.03c0,.01,0,.02,0,.03M71.63,49.43s0-.01,0-.02c0,0,0,.01,0,.02M71.63,49.41c.03-.34.05-.69.06-1.04-.01.35-.03.7-.06,1.04M71.69,48.37s0-.05,0-.08c0,.03,0,.05,0,.08M71.69,48.29s0-.04,0-.06c0,.02,0,.04,0,.06M71.69,48.24v-.02s0,.01,0,.02M71.69,48.21s0-.03,0-.05c0,.02,0,.03,0,.05M71.69,48.16s0-.01,0-.02c0,0,0,.01,0,.02M71.69,48.14s0-.03,0-.05c0,.02,0,.03,0,.05M71.69,48.08s0,0,0-.01c0,0,0,0,0,.01M71.69,48.05s0-.01,0-.02c0,0,0,.01,0,.02M71.69,48.02h0s0,0,0,0M71.69,48h0s0,0,0,0M71.69,47.97s0,0,0-.01c0,0,0,0,0,.01M71.69,47.94h0s0,0,0,0M71.69,47.92s0,0,0,0c0,0,0,0,0,0M71.7,47.89h0s0,0,0,0M71.7,47.86h0s0,0,0,0M71.7,47.84h0s0,0,0,0M71.7,47.8h0s0,0,0,0M71.7,47.78h0s0,0,0,0M71.7,47.76h0s0,0,0,0M71.7,47.72h0s0,0,0,0M71.69,47.7h0s0,0,0,0M71.69,47.67h0s0,0,0,0M71.69,47.64h0s0,0,0,0M71.69,47.62h0s0,0,0,0M71.69,47.59h0s0,0,0,0M71.69,47.56h0s0,0,0,0M71.69,47.54h0s0,0,0,0M71.69,47.51h0s0,0,0,0M71.69,47.48h0s0,0,0,0M71.69,47.46h0s0,0,0,0M71.69,47.4h0s0,0,0,0M71.69,47.38h0s0,0,0,0M71.69,47.32s0,0,0,0c0,0,0,0,0,0M71.69,47.3s0,0,0,0c0,0,0,0,0,0"/>
    <path class="cls-10" d="M70.74,53.61c.26-1.3.38-2.67.34-4.12,0-.13,0-.27-.01-.4.28-1,.46-2.05.56-3.15.03.45.05.9.06,1.34,0,0,0,.02,0,.02,0,0,0,0,0,0v.02s0,0,0,0c0,.02,0,.03,0,.05h0s0,.02,0,.03h0s0,.04,0,.05h0s0,.02,0,.03h0s0,.02,0,.03h0s0,.02,0,.02h0s0,.02,0,.03h0s0,.02,0,.03h0s0,.02,0,.02h0s0,.02,0,.03h0s0,.02,0,.03h0s0,.02,0,.02h0s0,.02,0,.03h0s0,.02,0,.03h0s0,.02,0,.03h0s0,.02,0,.03h0s0,.02,0,.02h0s0,.02,0,.02h0s0,.02,0,.03h0s0,.02,0,.02c0,0,0,0,0,0h0s0,.02,0,.02v.02s0,0,0,.01h0s0,.02,0,.02c0,0,0,0,0,.01h0s0,.02,0,.03c0,0,0,.01,0,.02h0s0,.02,0,.02h0s0,.04,0,.06h0s0,.02,0,.02h0s0,.04,0,.06c0,0,0,0,0,0v.02s0,0,0,0c0,.02,0,.04,0,.06,0,0,0,0,0,0,0,.03,0,.05,0,.08h0c-.01.35-.03.7-.06,1.04h0s0,.02,0,.02c0,0,0,0,0,0,0,0,0,.02,0,.03,0,0,0,0,0,0,0,0,0,0,0,.01,0,0,0,0,0,0,0,0,0,0,0,.01,0,0,0,.01,0,.02,0,0,0,0,0,.01,0,0,0,.01,0,.02,0,0,0,0,0,0,0,0,0,.01,0,.02,0,0,0,0,0,0,0,0,0,.02,0,.02h0s0,.02,0,.02h0c-.14,1.41-.43,2.73-.87,3.98"/>
    <path class="cls-9" d="M65.67,45.57c.1,3.99-1,8.31-4.54,11.71-3.61,3.48-9.77,6.01-19.79,6.27h0c-9.92.25-16.17-1.92-19.96-5.16-3.8-3.24-5.14-7.54-5.24-11.57-.02-.82.03-1.62.14-2.41.97-6.94,6.85-12.36,14.08-12.55,3.96-.1,7.59,1.39,10.28,3.88,2.56-2.63,6.12-4.29,10.07-4.39,7.15-.18,13.22,4.81,14.64,11.56h0c.18.86.29,1.75.31,2.66"/>
    <path class="cls-8" d="M44.62,47c.03,1.24-1.59,2.78-3.63,2.83-2.04.05-3.73-1.4-3.76-2.64-.03-1.24,1.61-1.8,3.65-1.86,2.04-.05,3.71.43,3.74,1.67"/>
    <path class="cls-5" d="M40.96,47.04c-.8,0-1.44-.32-1.45-.6,0-.29.66-.43,1.49-.45.06,0,.13,0,.19,0,.74,0,1.32.11,1.32.38,0,.29-.66.66-1.49.68-.02,0-.05,0-.07,0"/>
    <path class="cls-12" d="M35.82,46.53c-.51,4.33-3.96,5.44-8.46,7.38-2.82,1.22-4.74,2.96-5.98,4.49-3.8-3.24-5.14-7.54-5.24-11.57-.02-.82.03-1.62.14-2.41,2.61-2.85,6.76-5.62,12.87-5.05,4.47.43,7.04,4.05,6.68,7.16h0Z"/>
    <path class="cls-12" d="M65.67,45.57c.1,3.99-1,8.31-4.54,11.71-1.32-1.43-3.3-3.03-6.11-4.07-4.59-1.71-8.09-2.64-8.82-6.94-.52-3.09,1.87-6.84,6.31-7.49,5.88-.86,10.09,1.52,12.85,4.14h0c.18.86.29,1.75.31,2.66h0Z"/>
    <path class="cls-8" d="M58.44,45.34c-.14.2-.26.34-.4.49-.13.15-.28.28-.43.42-.15.14-.31.25-.47.37-.16.12-.33.22-.5.33-.69.4-1.47.68-2.28.82-.4.08-.82.08-1.24.09-.41-.04-.83-.06-1.23-.18-.8-.18-1.54-.58-2.14-1.08-.35-.29-.4-.81-.11-1.16.17-.2.41-.3.65-.3h.15c.17,0,.33.02.48.04.16.02.3.05.46.05.15,0,.3.02.44.03.14.02.29,0,.43.01.28.02.57-.01.85,0,.28-.03.56-.04.83-.09.56-.08,1.12-.21,1.69-.39l.43-.14c.14-.06.29-.1.43-.15.15-.05.29-.11.44-.16.14-.05.3-.12.42-.15l.25-.06c.43-.1.86.16.97.59.06.24,0,.48-.13.66h0Z"/>
    <path class="cls-8" d="M24.23,44.99c.12.02.28.09.43.13.15.05.29.1.44.14.15.05.3.08.44.13l.44.12c.58.15,1.14.25,1.7.31.28.04.56.03.84.05.28-.02.56,0,.84-.03.14-.02.29,0,.43-.03.14-.02.29-.04.44-.06.16,0,.3-.05.46-.07.16-.02.31-.05.48-.06h.15c.45-.04.85.3.88.75.02.26-.09.5-.26.66-.58.53-1.29.97-2.09,1.19-.39.14-.8.18-1.22.24-.41.01-.83.03-1.24-.03-.82-.09-1.61-.33-2.32-.7-.17-.1-.35-.19-.52-.3-.16-.11-.33-.22-.48-.35-.15-.13-.31-.25-.45-.39-.15-.14-.27-.28-.42-.47-.28-.34-.22-.85.12-1.13.19-.15.43-.2.65-.16l.25.05h0Z"/>
    <path class="cls-8" d="M45.28,52.81c-.3.29-.59.49-.91.7-.32.19-.66.37-1.01.51-.7.29-1.48.46-2.28.46-.81,0-1.59-.17-2.3-.46-.35-.14-.69-.32-1.01-.52-.32-.21-.61-.41-.9-.7-.23-.23-.24-.6-.01-.83.16-.16.39-.22.6-.15l.07.02c.28.09.6.2.89.29.3.1.6.17.9.24.6.14,1.18.22,1.74.21.57,0,1.16-.09,1.76-.23.3-.07.6-.14.9-.24.3-.08.62-.2.9-.28l.08-.02c.31-.09.64.09.73.4.06.22,0,.44-.15.59h0Z"/>
    <path class="cls-8" d="M46.35,12.44c-.12,0-.33.04-.46.27-1.78,3.24-4.99,5.46-7.37,6.75-.09.05-.19.08-.29.09-18.51,1.65-26.59,16.3-26.27,29.22.36,14.3,15.72,19.01,29.98,18.65,14.26-.36,29.36-5.84,29-20.14-.22-8.88-4.6-20.2-16.23-25.34-.33-.14-.51-.5-.43-.84.44-2.11.78-4.51.79-5.59,0-.36-.25-.51-.37-.56-.09-.04-.4-.14-.67.12-.98.92-3.76,2.51-6.04,3.69-.28.14-.61.1-.85-.1-.23-.21-.32-.53-.21-.83.77-2.09.41-3.66-.1-5.05-.1-.28-.34-.33-.44-.34-.01,0-.03,0-.04,0h0ZM40.36,68.95c-18.19.02-29.6-7.61-29.92-20.14-.34-13.57,8.11-28.95,27.48-30.75,2.19-1.21,5.07-3.22,6.64-6.08.39-.71,1.13-1.11,1.94-1.05.8.06,1.47.57,1.74,1.33.43,1.2.8,2.62.54,4.35,2.02-1.11,3.63-2.11,4.19-2.65.63-.6,1.52-.75,2.32-.4.79.35,1.28,1.1,1.27,1.96-.01,1.08-.3,3.24-.7,5.29,5.08,2.38,9.29,6.22,12.21,11.13,2.72,4.58,4.23,9.87,4.37,15.3.32,12.89-11.35,21.2-30.47,21.68-.54.01-1.08.02-1.61.02h0Z"/>
  </g>
  <g>
    <path class="cls-3" d="M55.04,70.87c-1.41,1.42-4.02-.09-5.5-.64-1.85-.69-3.27-1.34-4.86-2.5-3.52-2.56-7.71.29-10.75,2.25-1.6,1.04-3.71,2.26-5.71,1.79-1.71-.41-2.07-2.16-2.23-3.66-.24-2.18-.44-4.53-.14-6.71.3-2.16,2.48-2.43,4.28-2.09,1.77.33,3.57,1,5.26,1.62.87.32,2,.63,2.71,1.26.5.45.82.75,1.51.75,1,0,2.78.19,3.58-.31,1.01-.64,1.88-1.51,3.01-1.93,1.96-.72,8.68-4.25,9.44-.81.37,1.66.3,3.34.39,5.02.1,1.71.34,4.64-.99,5.98-.31.32.79-.79,0,0Z"/>
    <g>
      <path class="cls-9" d="M55.63,67.77c-.2-.34-.57-.58-1-.58-.64,0-1.17.52-1.17,1.17s.52,1.17,1.17,1.17c.3,0,.57-.12.78-.3.12-.46.19-.95.22-1.45Z"/>
      <path class="cls-9" d="M52.88,62.53c0-.64-.52-1.17-1.17-1.17s-1.17.52-1.17,1.17.52,1.17,1.17,1.17,1.17-.52,1.17-1.17Z"/>
      <path class="cls-9" d="M47.63,68.36c0,.64.52,1.17,1.17,1.17s1.17-.52,1.17-1.17-.52-1.17-1.17-1.17-1.17.52-1.17,1.17Z"/>
      <path class="cls-9" d="M47.05,62.53c0-.64-.52-1.17-1.17-1.17s-1.17.52-1.17,1.17.52,1.17,1.17,1.17,1.17-.52,1.17-1.17Z"/>
      <path class="cls-9" d="M37.97,67.55c-.21-.22-.51-.35-.83-.35-.64,0-1.17.52-1.17,1.17,0,.08,0,.16.03.24.64-.38,1.3-.74,1.98-1.05Z"/>
      <path class="cls-9" d="M30.13,68.36c0,.64.52,1.17,1.17,1.17s1.17-.52,1.17-1.17-.52-1.17-1.17-1.17-1.17.52-1.17,1.17Z"/>
      <path class="cls-9" d="M40.05,63.7c.47,0,.88-.28,1.06-.69-.58,0-1.15-.03-1.58-.03-.24,0-.43-.04-.6-.11.15.48.59.83,1.11.83Z"/>
      <path class="cls-9" d="M35.38,62.53c0-.64-.52-1.17-1.17-1.17s-1.17.52-1.17,1.17.52,1.17,1.17,1.17,1.17-.52,1.17-1.17Z"/>
      <path class="cls-9" d="M29.55,62.53c0-.64-.52-1.17-1.17-1.17s-1.17.52-1.17,1.17.52,1.17,1.17,1.17,1.17-.52,1.17-1.17Z"/>
      <path class="cls-9" d="M26.17,67.44c.02.2.04.4.06.59.04.34.08.69.16,1.04.15-.2.24-.44.24-.71,0-.38-.18-.71-.46-.92Z"/>
    </g>
    <g>
      <path class="cls-9" d="M43.23,62.88s0,.03.02.08c.01.04.05.1.06.2.02.04.04.08.05.13.01.05.03.11.05.19,0,.11,0,.25.05.39.01.1.02.31.04.5,0,.07,0,.16-.01.25,0,.09,0,.17-.01.24-.02.21-.03.37-.04.55-.06.18-.09.33-.14.48-.02.08-.04.15-.06.21-.02.06-.03.12-.06.17-.03.05-.05.1-.07.15-.03.04-.06.08-.08.12-.04.08-.09.12-.12.16-.03.04-.05.07-.04.08,0,0,.03-.01.07-.04.04-.03.1-.07.15-.14.03-.03.06-.07.1-.12.03-.05.06-.1.1-.16.03-.05.05-.12.09-.18.03-.07.06-.14.08-.21.04-.15.08-.3.12-.48.02-.18.06-.37.07-.56.01-.09.02-.2.02-.29,0-.1,0-.18,0-.25,0-.17-.03-.37-.04-.5-.06-.14-.06-.28-.11-.4-.01-.07-.03-.12-.05-.18-.02-.05-.04-.11-.06-.16-.09-.15-.13-.22-.16-.22Z"/>
      <path class="cls-9" d="M39.4,63.08s-.05.08-.14.25c-.02.09-.07.17-.1.34-.05.1-.1.24-.1.39-.02.1-.06.31-.06.51-.02.15-.02.37-.02.5.01.22.05.38.1.56,0,.1.04.19.05.27.02.08.06.16.08.24.08.16.16.26.24.36.07.1.16.18.22.24.14.11.24.16.26.15,0-.01-.07-.08-.19-.21-.05-.07-.13-.15-.2-.27-.07-.09-.14-.23-.19-.36-.07-.13-.11-.28-.14-.45-.05-.17-.06-.36-.07-.54.01-.18,0-.4,0-.52.02-.16.03-.36.06-.48-.01-.14.04-.27.05-.4.04-.12.06-.23.09-.33.03-.17.07-.24.04-.27Z"/>
      <path class="cls-9" d="M47.71,66.61s-.1-.02-.3-.05c-.1.01-.19,0-.36,0-.11-.02-.26-.06-.41-.03-.1,0-.32-.04-.52-.04-.15-.03-.37-.06-.51-.08-.22-.04-.38-.06-.57-.08-.19-.07-.35-.1-.51-.15-.17-.04-.29-.07-.41-.11-.12-.03-.22-.08-.31-.11-.17-.06-.28-.09-.29-.08,0,0,.08.07.26.15.08.05.18.1.32.15.11.04.27.1.42.14.15.03.31.08.49.13.19.02.38.07.58.1.19.04.42.05.55.07.17.02.38.02.52.04.15-.03.29,0,.42-.02.14.02.25,0,.36,0,.18-.03.26-.02.28-.05Z"/>
      <path class="cls-9" d="M47.23,62.68s-.09-.02-.27-.04c-.09.01-.18,0-.33.01-.11-.01-.25-.03-.38.02-.1,0-.3.03-.48.07-.14.01-.34.07-.47.1-.2.06-.34.12-.5.21-.18.06-.31.13-.45.2-.14.1-.23.17-.32.24-.09.07-.17.14-.24.2-.12.12-.19.2-.18.21.01,0,.09-.04.23-.14.07-.04.15-.11.26-.18.09-.06.22-.13.34-.21.12-.08.26-.13.41-.2.15-.08.33-.12.49-.17.17-.02.37-.1.48-.11.16-.01.34-.06.46-.06.13-.05.26-.03.38-.07.12,0,.23-.01.33-.02.16-.03.24-.03.25-.06Z"/>
      <path class="cls-9" d="M35.02,66.72s.1-.02.29-.02c.09-.03.18-.02.35-.05.11,0,.26.02.41-.02.1,0,.32-.01.52-.04.16,0,.37-.02.51-.03.22-.02.39-.05.57-.09.2,0,.36-.05.53-.09.17-.06.29-.12.4-.18.11-.06.2-.14.28-.2.13-.15.14-.27.13-.28-.01,0-.06.09-.19.22-.07.05-.16.12-.28.17-.1.05-.25.1-.4.14-.14.05-.3.07-.48.09-.18.04-.38.05-.56.07-.19,0-.42.04-.54.04-.17,0-.37.03-.51.03-.14.05-.28.04-.41.08-.13,0-.24.03-.36.05-.17.06-.25.08-.25.12Z"/>
      <path class="cls-9" d="M34.09,63.66s.11.02.34.05c.11,0,.22.01.42,0,.13.02.3.05.47.02.12,0,.37.03.6.03.18.02.43.03.59.04.26.01.45.01.67,0,.23.03.42.04.61.05.2,0,.35-.02.5-.02.14,0,.27,0,.38,0,.21-.01.34-.03.35-.05-.01,0-.12-.03-.34-.04-.11-.01-.24-.01-.4-.02-.14,0-.32,0-.5-.01-.18,0-.37-.02-.58-.04-.21,0-.44-.02-.66-.04-.22-.03-.49-.02-.63-.03-.2-.02-.44-.02-.59-.03-.17.04-.33,0-.48.03-.16-.01-.28,0-.41,0-.21.03-.3.02-.32.05Z"/>
      <path class="cls-9" d="M45.61,64.54s-.05-.02-.14-.04c-.04.01-.09,0-.17.01-.06-.02-.13-.04-.2,0-.05,0-.15,0-.25.04-.08,0-.18.01-.24.02-.11.01-.18.04-.27.07-.1,0-.17.01-.25.02-.08.02-.14.04-.19.05-.06.01-.11.02-.15.03-.08.03-.13.05-.13.07,0,0,.05.02.14.01.04,0,.1,0,.17,0,.06,0,.13-.01.21-.02.07-.02.15-.02.24-.03.08-.03.18-.03.27-.04.09,0,.2-.03.25-.03.08,0,.18-.03.24-.03.06-.04.13-.02.19-.05.06,0,.11-.01.17-.01.08-.03.12-.03.13-.06Z"/>
    </g>
  </g>
</svg>