<?xml version="1.0" encoding="UTF-8"?>
<svg id="Vrstva_1" data-name="Vrstva 1" xmlns="http://www.w3.org/2000/svg" viewBox="0 0 79.37 79.37">
  <defs>
    <style>
      .cls-1 {
        fill: #abc7e9;
      }

      .cls-2 {
        fill: #eccfbc;
      }

      .cls-3 {
        fill: #241e3f;
      }

      .cls-4 {
        fill: #9d4f3e;
      }

      .cls-5 {
        fill: #b37e7f;
      }

      .cls-6 {
        fill: #b37059;
      }

      .cls-7 {
        fill: #7a7db3;
      }

      .cls-8 {
        fill: #64140e;
      }

      .cls-9 {
        fill: #fffbfc;
      }

      .cls-10 {
        fill: #c99c8c;
      }

      .cls-11 {
        fill: #edc28e;
      }

      .cls-12 {
        fill: #977761;
      }
    </style>
  </defs>
  <g>
    <path class="cls-6" d="M68.8,53.99h-.14c.05-.13.09-.25.13-.38,0,.12,0,.25,0,.38"/>
    <path class="cls-11" d="M69.74,47.27c.34,13.68-13.03,20.49-29.73,20.91-16.7.42-30.41-5.71-30.75-19.39-.33-13.11,7.8-28.29,26.95-30,2.29-1.24,5.38-3.37,7.07-6.45.53-.96,1.94-.86,2.31.18.5,1.38.97,3.19.1,5.57,2.54-1.31,5.05-2.79,5.87-3.57.88-.83,2.32-.21,2.31,1-.01,1.17-.37,3.65-.81,5.74,11.13,4.92,16.42,15.95,16.68,26.01"/>
    <path class="cls-4" d="M25.64,66.65h0c-9.05-2.44-15.44-7.81-16.29-16.38h0c.86,8.57,7.25,13.94,16.29,16.38"/>
    <path class="cls-7" d="M9.26,49.15h0c0-.12,0-.24-.01-.35-.02-.84,0-1.68.04-2.54,0,0,0,0,0,0-.05.85-.06,1.69-.04,2.53,0,.12,0,.24.01.35"/>
    <path class="cls-8" d="M35.3,68.12c-3.44-.18-6.7-.67-9.67-1.47h0c2.97.8,6.23,1.29,9.67,1.47M9.34,50.26h0c-.04-.37-.06-.74-.08-1.12h0c.02.38.04.75.08,1.12"/>
    <path class="cls-6" d="M68.79,53.61s0,0,0,0c.44-1.25.73-2.57.87-3.98h0s0-.02,0-.03h0s0-.02,0-.02c0,0,0,0,0,0,0,0,0-.01,0-.02,0,0,0,0,0,0,0,0,0,0,0-.02,0,0,0,0,0-.01,0,0,0-.01,0-.02,0,0,0,0,0-.01,0,0,0,0,0,0,0,0,0,0,0-.01,0,0,0,0,0,0,0-.01,0-.02,0-.03,0,0,0,0,0,0,0,0,0-.01,0-.02h0c.03-.34.05-.69.06-1.04h0s0-.05,0-.08t0,0s0-.04,0-.06h0s0-.01,0-.02c0,0,0,0,0,0,0-.02,0-.03,0-.05h0s0-.02,0-.02h0s0-.04,0-.06h0s0-.02,0-.02h0s0-.02,0-.03v-.02s0,0,0-.01c0,0,0,0,0-.01h0s0-.02,0-.02,0,0,0-.01v-.02s0,0,0-.01h0s0-.02,0-.02v-.02s0,0,0,0v-.02s0,0,0,0v-.02s0,0,0,0c0,0,0-.02,0-.02h0s0-.02,0-.02h0s0-.02,0-.03h0s0-.02,0-.03h0s0-.02,0-.02h0s0-.02,0-.03h0s0-.02,0-.03h0s0-.02,0-.02h0s0-.02,0-.03h0s0-.02,0-.03h0s0-.02,0-.02h0s0-.02,0-.03h0s0-.02,0-.03h0s0-.02,0-.03h0s0-.04,0-.06h0s0-.02,0-.02h0s0-.04,0-.06c0,0,0,0,0,0v-.02s0,0,0,0c0,0,0-.02,0-.02-.01-.45-.03-.89-.06-1.34h0c.03.45.05.9.06,1.34.06,2.31-.27,4.42-.95,6.34"/>
    <path class="cls-4" d="M68.66,53.98h0c.05-.12.09-.24.13-.37,0,0,0,0,0,0-.04.12-.09.24-.13.37"/>
    <path class="cls-4" d="M51.78,66.65c8.19-2.08,14.46-6.28,16.88-12.67h0c-2.42,6.39-8.69,10.59-16.88,12.67h0"/>
    <path class="cls-8" d="M42.87,68.04c3.14-.22,6.13-.69,8.91-1.39h0c-2.77.7-5.77,1.17-8.91,1.39"/>
    <path class="cls-6" d="M38.47,68.2c-1.07,0-2.13-.03-3.17-.08-3.44-.18-6.7-.67-9.67-1.47-9.05-2.44-15.44-7.81-16.29-16.38-.04-.37-.06-.74-.08-1.12,0-.12,0-.24-.01-.35-.02-.84,0-1.68.04-2.53.91,12.61,13.56,18.48,29.18,18.47.51,0,1.01,0,1.53-.02,14.39-.36,26.32-5.47,29.12-15.63,0,.13.01.27.01.4.04,1.45-.08,2.83-.34,4.12.44-1.24.73-2.57.87-3.98-.14,1.41-.43,2.73-.87,3.98-.04.12-.09.25-.13.37-2.42,6.39-8.69,10.59-16.88,12.67-2.77.7-5.77,1.17-8.91,1.39-.94.07-1.9.11-2.86.14-.51.01-1.03.02-1.53.02M69.66,49.63s0-.02,0-.02c0,0,0,.02,0,.02M69.66,49.6s0-.02,0-.02c0,0,0,.02,0,.02M69.66,49.57s0-.01,0-.02c0,0,0,.01,0,.02M69.66,49.55s0,0,0-.02c0,0,0,0,0,.02M69.67,49.52s0-.01,0-.02c0,0,0,.01,0,.02M69.67,49.49s0,0,0,0c0,0,0,0,0,0M69.67,49.47s0,0,0,0c0,0,0,0,0,0M69.67,49.43s0,0,0,0c0,0,0,0,0,0M69.68,49.41h0s0,0,0,0M69.74,48.37h0s0,0,0,0M69.74,48.3s0,0,0,0t0,0M69.74,48.24h0s0,0,0,0M69.74,48.22s0,0,0,0c0,0,0,0,0,0M69.74,48.16h0s0,0,0,0M69.74,48.14h0s0,0,0,0M69.74,48.09h0s0,0,0,0M69.74,48.06h0s0,0,0,0M69.74,48.04v-.02s0,.01,0,.02M69.74,48.01s0,0,0-.01c0,0,0,0,0,.01M69.74,47.99h0s0,0,0,0M69.74,47.96v-.02s0,.01,0,.02M69.74,47.93h0s0,0,0,0M69.74,47.91v-.02s0,.01,0,.02M69.74,47.88v-.02s0,.01,0,.02M69.74,47.85v-.02s0,.01,0,.02M69.74,47.83s0-.02,0-.02c0,0,0,.02,0,.02M69.74,47.8v-.02s0,.02,0,.02M69.74,47.77v-.02s0,.01,0,.02M69.74,47.75v-.02s0,.02,0,.02M69.74,47.72s0-.01,0-.02c0,0,0,.02,0,.02M69.74,47.69v-.02s0,.01,0,.02M69.74,47.67v-.02s0,.02,0,.02M69.74,47.64v-.02s0,.02,0,.02M69.74,47.61s0-.01,0-.02c0,0,0,.01,0,.02M69.74,47.59v-.03s0,.02,0,.03M69.74,47.56s0-.01,0-.02c0,0,0,.01,0,.02M69.74,47.53s0-.02,0-.02c0,0,0,.02,0,.02M69.74,47.51v-.03s0,.02,0,.03M69.74,47.48s0-.01,0-.02c0,0,0,.02,0,.02M69.74,47.45s0-.03,0-.05c0,.02,0,.03,0,.05M69.74,47.4s0-.01,0-.02c0,0,0,.01,0,.02M69.74,47.37s0-.03,0-.05c0,.02,0,.03,0,.05M69.74,47.32v-.02s0,.01,0,.02M69.74,47.29s0-.02,0-.02c-.01-.45-.03-.89-.06-1.34h0c.03.45.05.9.06,1.34,0,0,0,.02,0,.02"/>
    <path class="cls-1" d="M10.66,38.73s0,0,0,0c0,0,0,0,0,0M10.66,38.71c3.01-9.64,10.9-18.29,24.68-19.83-13.78,1.54-21.67,10.19-24.68,19.83M35.34,18.88s.02,0,.03,0c0,0-.02,0-.03,0M35.37,18.88s.05,0,.08,0c-.03,0-.05,0-.08,0M35.46,18.87s.01,0,.02,0c0,0-.01,0-.02,0M35.48,18.87s.02,0,.02,0c0,0-.02,0-.02,0M35.51,18.86s.04,0,.05,0c-.02,0-.04,0-.05,0M35.57,18.86s.01,0,.02,0c0,0-.01,0-.02,0M35.59,18.85s.01,0,.02,0c0,0-.02,0-.02,0M35.62,18.85s.03,0,.05,0c-.02,0-.04,0-.05,0M35.68,18.85s.01,0,.02,0c0,0-.01,0-.02,0M35.71,18.84s.02,0,.02,0c0,0-.02,0-.02,0M35.73,18.84s.04,0,.05,0c-.02,0-.04,0-.05,0M35.79,18.83s.01,0,.02,0c0,0-.01,0-.02,0M35.82,18.83s.01,0,.02,0c0,0-.01,0-.02,0M35.84,18.83s.02,0,.03,0c0,0-.02,0-.03,0M35.87,18.83s.02,0,.03,0c0,0-.02,0-.03,0M35.9,18.82s.01,0,.02,0c0,0-.01,0-.02,0M35.93,18.82s.01,0,.02,0c0,0-.01,0-.02,0M35.95,18.82s.04,0,.05,0c-.02,0-.03,0-.05,0M36.01,18.81s.01,0,.02,0c0,0-.01,0-.02,0M36.04,18.81s.01,0,.02,0c0,0-.01,0-.02,0M36.07,18.81s.03,0,.05,0c-.02,0-.04,0-.05,0M36.13,18.8s.01,0,.02,0c0,0-.01,0-.02,0M36.15,18.8s.01,0,.02,0c0,0-.01,0-.02,0M36.18,18.8s.02,0,.03,0c0,0-.02,0-.03,0"/>
    <path class="cls-2" d="M69.12,49.08c-.38-9.36-5.8-19.99-15.56-25.26-1.13-.61-1.73-1.87-1.49-3.13.28-1.42.5-2.75.51-3.52,0-.68-.23-.99-.6-.99-.29,0-.65.19-1.03.56-.64.61-2.32,1.64-4.23,2.69-.13.07-.26.1-.4.1-.47,0-.89-.4-.82-.92.21-1.57-.15-2.85-.52-3.88-.19-.53-.44-.85-.74-.85s-.64.31-1.03,1.03c-1.12,2.06-3.11,3.53-4.99,4.65-1.5.9-3.18,1.46-4.91,1.72-12.88,1.96-20.32,10.32-23.24,19.6.17-.72.37-1.44.59-2.16,0,0,0,0,0,0,0,0,0,0,0,0,3.01-9.64,10.9-18.29,24.68-19.83h0s.02,0,.03,0c0,0,0,0,0,0,.03,0,.05,0,.08,0,0,0,0,0,0,0,0,0,.01,0,.02,0,0,0,0,0,0,0,0,0,.02,0,.02,0,0,0,0,0,0,0,.02,0,.04,0,.05,0,0,0,0,0,0,0,0,0,.01,0,.02,0,0,0,0,0,0,0,0,0,.02,0,.02,0,0,0,0,0,0,0,.02,0,.04,0,.05,0,0,0,0,0,0,0,0,0,.01,0,.02,0,0,0,0,0,0,0,0,0,.02,0,.02,0t0,0s.04,0,.05,0c0,0,0,0,0,0,0,0,.01,0,.02,0,0,0,0,0,0,0,0,0,.01,0,.02,0,0,0,0,0,0,0,0,0,.02,0,.03,0h0s.02,0,.03,0c0,0,0,0,0,0,0,0,.01,0,.02,0,0,0,0,0,0,0,0,0,.01,0,.02,0,0,0,0,0,0,0,.02,0,.03,0,.05,0,0,0,0,0,0,0,0,0,.01,0,.02,0,0,0,0,0,0,0,0,0,.01,0,.02,0,0,0,0,0,0,0,.02,0,.04,0,.05,0,0,0,0,0,0,0,0,0,.01,0,.02,0,0,0,0,0,0,0,0,0,.01,0,.02,0,0,0,0,0,0,0,0,0,.02,0,.03,0h0c2.29-1.24,5.38-3.37,7.07-6.45.25-.45.68-.66,1.12-.67.5,0,.99.29,1.2.84.3.82.58,1.79.58,2.94,0,.79-.13,1.66-.49,2.63h0c2.54-1.31,5.05-2.79,5.87-3.57.28-.26.61-.38.93-.38.7,0,1.38.55,1.38,1.37h0c-.01,1.18-.37,3.67-.81,5.75h0c10.64,4.7,15.94,14.98,16.61,24.67-.09,1.1-.28,2.15-.56,3.15"/>
    <path class="cls-10" d="M69.66,49.63h0s0,0,0,0M69.66,49.6h0s0,0,0,0M69.66,49.58s0,0,0,0c0,0,0,0,0,0M69.66,49.56s0,0,0,0c0,0,0,0,0,0M69.66,49.53s0,0,0-.01c0,0,0,0,0,.01M69.67,49.51s0,0,0-.01c0,0,0,0,0,.01M69.67,49.48s0,0,0-.01c0,0,0,0,0,.01M69.67,49.46s0-.02,0-.03c0,.01,0,.02,0,.03M69.67,49.43s0-.01,0-.02c0,0,0,.01,0,.02M69.68,49.41c.03-.34.05-.69.06-1.04-.01.35-.03.7-.06,1.04M69.74,48.37s0-.05,0-.08c0,.03,0,.05,0,.08M69.74,48.29s0-.04,0-.06c0,.02,0,.04,0,.06M69.74,48.24v-.02s0,.01,0,.02M69.74,48.21s0-.03,0-.05c0,.02,0,.03,0,.05M69.74,48.16s0-.01,0-.02c0,0,0,.01,0,.02M69.74,48.14s0-.03,0-.05c0,.02,0,.03,0,.05M69.74,48.08s0,0,0-.01c0,0,0,0,0,.01M69.74,48.05s0-.01,0-.02c0,0,0,.01,0,.02M69.74,48.02h0s0,0,0,0M69.74,48h0s0,0,0,0M69.74,47.97s0,0,0-.01c0,0,0,0,0,.01M69.74,47.94h0s0,0,0,0M69.74,47.92s0,0,0,0c0,0,0,0,0,0M69.74,47.89h0s0,0,0,0M69.74,47.86h0s0,0,0,0M69.74,47.84h0s0,0,0,0M69.74,47.8h0s0,0,0,0M69.74,47.78h0s0,0,0,0M69.74,47.76h0s0,0,0,0M69.74,47.72h0s0,0,0,0M69.74,47.7h0s0,0,0,0M69.74,47.67h0s0,0,0,0M69.74,47.64h0s0,0,0,0M69.74,47.62h0s0,0,0,0M69.74,47.59h0s0,0,0,0M69.74,47.56h0s0,0,0,0M69.74,47.54h0s0,0,0,0M69.74,47.51h0s0,0,0,0M69.74,47.48h0s0,0,0,0M69.74,47.46h0s0,0,0,0M69.74,47.4h0s0,0,0,0M69.74,47.38h0s0,0,0,0M69.74,47.32s0,0,0,0c0,0,0,0,0,0M69.74,47.3s0,0,0,0c0,0,0,0,0,0"/>
    <path class="cls-10" d="M68.79,53.61c.26-1.3.38-2.67.34-4.12,0-.13,0-.27-.01-.4.28-1,.46-2.05.56-3.15.03.45.05.9.06,1.34,0,0,0,.02,0,.02,0,0,0,0,0,0v.02s0,0,0,0c0,.02,0,.03,0,.05h0s0,.02,0,.03h0s0,.04,0,.05h0s0,.02,0,.03h0s0,.02,0,.03h0s0,.02,0,.02h0s0,.02,0,.03h0s0,.02,0,.03h0s0,.02,0,.02h0s0,.02,0,.03h0s0,.02,0,.03h0s0,.02,0,.02h0s0,.02,0,.03h0s0,.02,0,.03h0s0,.02,0,.03h0s0,.02,0,.03h0s0,.02,0,.02h0s0,.02,0,.02h0s0,.02,0,.03h0s0,.02,0,.02c0,0,0,0,0,0h0s0,.02,0,.02v.02s0,0,0,.01h0s0,.02,0,.02c0,0,0,0,0,.01h0s0,.02,0,.03c0,0,0,.01,0,.02h0s0,.02,0,.02h0s0,.04,0,.06h0s0,.02,0,.02h0s0,.04,0,.06c0,0,0,0,0,0v.02s0,0,0,0c0,.02,0,.04,0,.06,0,0,0,0,0,0,0,.03,0,.05,0,.08h0c-.01.35-.03.7-.06,1.04h0s0,.02,0,.02c0,0,0,0,0,0,0,0,0,.02,0,.03,0,0,0,0,0,0,0,0,0,0,0,.01,0,0,0,0,0,0,0,0,0,0,0,.01,0,0,0,.01,0,.02,0,0,0,0,0,.01,0,0,0,.01,0,.02,0,0,0,0,0,0,0,0,0,.01,0,.02,0,0,0,0,0,0,0,0,0,.02,0,.02h0s0,.02,0,.02h0c-.14,1.41-.43,2.73-.87,3.98"/>
    <path class="cls-9" d="M63.72,45.57c.1,3.99-1,8.31-4.54,11.71-3.61,3.48-9.77,6.01-19.79,6.27h0c-9.92.25-16.17-1.92-19.96-5.16-3.8-3.24-5.14-7.54-5.24-11.57-.02-.82.03-1.62.14-2.41.97-6.94,6.85-12.36,14.08-12.55,3.96-.1,7.59,1.39,10.28,3.88,2.56-2.63,6.12-4.29,10.07-4.39,7.15-.18,13.22,4.81,14.64,11.56h0c.18.86.29,1.75.31,2.66"/>
    <path class="cls-8" d="M42.67,47c.03,1.24-1.59,2.78-3.63,2.83-2.04.05-3.73-1.4-3.76-2.64-.03-1.24,1.61-1.8,3.65-1.86,2.04-.05,3.71.43,3.74,1.67"/>
    <path class="cls-5" d="M39.01,47.04c-.8,0-1.44-.32-1.45-.6,0-.29.66-.43,1.49-.45.06,0,.13,0,.19,0,.74,0,1.32.11,1.32.38,0,.29-.66.66-1.49.68-.02,0-.05,0-.07,0"/>
    <path class="cls-12" d="M33.87,46.53c-.51,4.33-3.96,5.44-8.46,7.38-2.82,1.22-4.74,2.96-5.98,4.49-3.8-3.24-5.14-7.54-5.24-11.57-.02-.82.03-1.62.14-2.41,2.61-2.85,6.76-5.62,12.87-5.05,4.47.43,7.04,4.05,6.68,7.16h0Z"/>
    <path class="cls-12" d="M63.72,45.57c.1,3.99-1,8.31-4.54,11.71-1.32-1.43-3.3-3.03-6.11-4.07-4.59-1.71-8.09-2.64-8.82-6.94-.52-3.09,1.87-6.84,6.31-7.49,5.88-.86,10.09,1.52,12.85,4.14h0c.18.86.29,1.75.31,2.66h0Z"/>
    <path class="cls-8" d="M56.49,45.34c-.14.2-.26.34-.4.49-.13.15-.28.28-.43.42-.15.14-.31.25-.47.37-.16.12-.33.22-.5.33-.69.4-1.47.68-2.28.82-.4.08-.82.08-1.24.09-.41-.04-.83-.06-1.23-.18-.8-.18-1.54-.58-2.14-1.08-.35-.29-.4-.81-.11-1.16.17-.2.41-.3.65-.3h.15c.17,0,.33.02.48.04.16.02.3.05.46.05.15,0,.3.02.44.03.14.02.29,0,.43.01.28.02.57-.01.85,0,.28-.03.56-.04.83-.09.56-.08,1.12-.21,1.69-.39l.43-.14c.14-.06.29-.1.43-.15.15-.05.29-.11.44-.16.14-.05.3-.12.42-.15l.25-.06c.43-.1.86.16.97.59.06.24,0,.48-.13.66h0Z"/>
    <path class="cls-8" d="M22.28,44.99c.12.02.28.09.43.13.15.05.29.1.44.14.15.05.3.08.44.13l.44.12c.58.15,1.14.25,1.7.31.28.04.56.03.84.05.28-.02.56,0,.84-.03.14-.02.29,0,.43-.03.14-.02.29-.04.44-.06.16,0,.3-.05.46-.07.16-.02.31-.05.48-.06h.15c.45-.04.85.3.88.75.02.26-.09.5-.26.66-.58.53-1.29.97-2.09,1.19-.39.14-.8.18-1.22.24-.41.01-.83.03-1.24-.03-.82-.09-1.61-.33-2.32-.7-.17-.1-.35-.19-.52-.3-.16-.11-.33-.22-.48-.35-.15-.13-.31-.25-.45-.39-.15-.14-.27-.28-.42-.47-.28-.34-.22-.85.12-1.13.19-.15.43-.2.65-.16l.25.05h0Z"/>
    <path class="cls-8" d="M43.33,52.81c-.3.29-.59.49-.91.7-.32.19-.66.37-1.01.51-.7.29-1.48.46-2.28.46-.81,0-1.59-.17-2.3-.46-.35-.14-.69-.32-1.01-.52-.32-.21-.61-.41-.9-.7-.23-.23-.24-.6-.01-.83.16-.16.39-.22.6-.15l.07.02c.28.09.6.2.89.29.3.1.6.17.9.24.6.14,1.18.22,1.74.21.57,0,1.16-.09,1.76-.23.3-.07.6-.14.9-.24.3-.08.62-.2.9-.28l.08-.02c.31-.09.64.09.73.4.06.22,0,.44-.15.59h0Z"/>
    <path class="cls-8" d="M44.4,12.44c-.12,0-.33.04-.46.27-1.78,3.24-4.99,5.46-7.37,6.75-.09.05-.19.08-.29.09-18.51,1.65-26.59,16.3-26.27,29.22.36,14.3,15.72,19.01,29.98,18.65,14.26-.36,29.36-5.84,29-20.14-.22-8.88-4.6-20.2-16.23-25.34-.33-.14-.51-.5-.43-.84.44-2.11.78-4.51.79-5.59,0-.36-.25-.51-.37-.56-.09-.04-.4-.14-.67.12-.98.92-3.76,2.51-6.04,3.69-.28.14-.61.1-.85-.1-.23-.21-.32-.53-.21-.83.77-2.09.41-3.66-.1-5.05-.1-.28-.34-.33-.44-.34-.01,0-.03,0-.04,0h0ZM38.41,68.95c-18.19.02-29.6-7.61-29.92-20.14-.34-13.57,8.11-28.95,27.48-30.75,2.19-1.21,5.07-3.22,6.64-6.08.39-.71,1.13-1.11,1.94-1.05.8.06,1.47.57,1.74,1.33.43,1.2.8,2.62.54,4.35,2.02-1.11,3.63-2.11,4.19-2.65.63-.6,1.52-.75,2.32-.4.79.35,1.28,1.1,1.27,1.96-.01,1.08-.3,3.24-.7,5.29,5.08,2.38,9.29,6.22,12.21,11.13,2.72,4.58,4.23,9.87,4.37,15.3.32,12.89-11.35,21.2-30.47,21.68-.54.01-1.08.02-1.61.02h0Z"/>
  </g>
  <g>
    <path class="cls-3" d="M32.43,15.4c-13.52,0-24.48,11.53-24.48,25.75h-2.65c0-15.76,12.15-28.54,27.14-28.54"/>
    <path class="cls-3" d="M48.51,12.61c14.99,0,27.14,12.78,27.14,28.54h-2.65c0-14.22-10.96-25.75-24.48-25.75"/>
    <path class="cls-8" d="M48.51,12.22c15.18,0,27.53,12.98,27.53,28.94v.4h-3.45v-.4c0-13.98-10.81-25.35-24.09-25.35"/>
    <path class="cls-8" d="M48.51,15c13.59,0,24.68,11.52,24.88,25.75h1.86c-.2-15.34-12.12-27.74-26.74-27.74"/>
    <path class="cls-8" d="M32.43,15.8c-13.28,0-24.09,11.37-24.09,25.35v.4h-3.45v-.4c0-15.96,12.35-28.94,27.53-28.94"/>
    <path class="cls-8" d="M32.43,13.01c-14.62,0-26.53,12.41-26.74,27.74h1.86c.2-14.24,11.28-25.75,24.88-25.75"/>
    <path class="cls-8" d="M3.07,44.41c-.88,5.2.77,9.83,3.7,10.32,2.93.5,6.02-3.32,6.9-8.53.88-5.2-.77-9.83-3.7-10.32-2.93-.49-6.02,3.32-6.9,8.53Z"/>
    <path class="cls-3" d="M7.56,53.66c-.29,1.74.87,3.38,2.61,3.67h0c1.74.29,3.38-.87,3.67-2.61l2.87-16.88c.29-1.74-.87-3.38-2.61-3.67h0c-1.73-.3-3.38.87-3.67,2.61l-2.87,16.88Z"/>
    <path class="cls-8" d="M78.06,44.41c.88,5.2-.77,9.83-3.7,10.32-2.93.5-6.02-3.32-6.9-8.53-.89-5.2.77-9.83,3.7-10.32,2.93-.49,6.02,3.32,6.9,8.53Z"/>
    <path class="cls-3" d="M73.57,53.66c.29,1.74-.87,3.38-2.61,3.67h0c-1.74.29-3.38-.87-3.68-2.61l-2.87-16.88c-.29-1.74.87-3.38,2.61-3.67h0c1.74-.3,3.38.87,3.68,2.61l2.87,16.88Z"/>
    <rect class="cls-8" x="32.43" y="12.22" width="16.08" height="3.58"/>
  </g>
</svg>