<?xml version="1.0" encoding="UTF-8"?>
<svg id="Vrstva_1" data-name="Vrstva 1" xmlns="http://www.w3.org/2000/svg" viewBox="0 0 147.88 55.09">
  <defs>
    <style>
      .cls-1 {
        fill: #abc7e9;
      }

      .cls-2 {
        fill: #cca7a7;
      }

      .cls-3 {
        fill: #fff;
      }

      .cls-4 {
        fill: #9d4f3e;
      }

      .cls-5 {
        fill: #b37e7f;
      }

      .cls-6 {
        fill: #d1b3b3;
      }

      .cls-7 {
        fill: #e1bea7;
      }

      .cls-8 {
        fill: #b37059;
      }

      .cls-9 {
        fill: #7a7db3;
      }

      .cls-10 {
        fill: #64140e;
      }

      .cls-11 {
        fill: #fffbfc;
      }

      .cls-12 {
        fill: #c99c8c;
      }

      .cls-13 {
        fill: #edc28e;
      }

      .cls-14 {
        fill: #977761;
      }
    </style>
  </defs>
  <path class="cls-3" d="M116.52,51.11s8.35.33,9.56-6.33c.15-.8-1.14-.77-2.9-.75-1.87.03-4.27.06-6.02-.92-3.31-1.85-.64,8-.64,8"/>
  <path class="cls-6" d="M121.45,49.69c-.12-.11.12-.38.2-1.12.06-.54,0-.99-.06-1.29.36-.05.77-.11,1.19-.21.4-.09.85-.22,1.33-.41.24-.1.47-.21.67-.31.14-.07.27-.15.4-.23-.13.3-.33.71-.63,1.16-1.11,1.64-2.83,2.67-3.11,2.41Z"/>
  <path class="cls-10" d="M120.27,47.38c-.21,0-.38-.17-.38-.38,0-.21.17-.38.38-.38.04,0,4.05-.03,5.5-2.06.12-.17.36-.21.54-.09.17.12.21.36.09.54-1.68,2.35-5.94,2.38-6.12,2.38h0"/>
  <path class="cls-10" d="M116.44,43.37s-.09.01-.13.04c-.11.08-.61.67-.09,3.99.21,1.34.52,2.62.67,3.22.68-.01,2.22-.11,3.82-.65,2.77-.94,4.42-2.71,4.88-5.28,0,0,0,0,0-.01-.25-.19-1.47-.17-2.36-.16-1.98.03-4.44.07-6.31-.98-.1-.06-.32-.17-.48-.17M116.72,51.6c-.13,0-.21,0-.22,0-.21,0-.4-.15-.45-.36-.02-.07-.48-1.8-.79-3.69-.58-3.64-.02-4.55.45-4.92.3-.24.85-.42,1.69.05,1.65.92,3.96.88,5.82.85,1.61-.03,2.67-.04,3.14.52.13.15.27.42.2.81-.53,2.91-2.45,5-5.56,6.04-1.9.64-3.67.7-4.28.7"/>
  <path class="cls-8" d="M110.06,50.92c-.49,0-.97,0-1.45,0,0-.03,0-.05,0-.08-.05-.56-.44-1.43-1.02-2.29.78.01,1.6.02,2.42.02,4.65,0,9.57-.24,10.6-1.19.16,1.03.01,2.01-.3,2.45-.13.18-1.2,1.07-9.96,1.1-.1,0-.2,0-.29,0"/>
  <path class="cls-13" d="M79.24,30.92s11.73-9.71,21.85-6c11.02,4.05,8.48,15.79,8.48,15.79,0,0,6.76.4,10.23,3.87,1.67,1.67,1.61,4.56.93,5.53-1.45,2.05-19.64,1.07-19.64,1.07,0,0-19.43.88-25.49-5.49-6.07-6.37,3.65-14.77,3.65-14.77"/>
  <path class="cls-7" d="M109.25,36.32c-.86-3.61-3.16-7.65-8.89-9.76-1.74-.64-3.52-.91-5.29-.91-4.59,0-9.08,1.81-12.45,3.63-.02-.03-.04-.07-.06-.1,3.14-1.97,8.32-4.61,13.59-4.61,1.59,0,3.19.24,4.75.81,4.39,1.61,7.1,4.65,8.05,9.02.14.66.24,1.31.29,1.92"/>
  <path class="cls-10" d="M110.01,51.9c-4.57,0-8.92-.23-8.96-.23-.27-.01-.48-.24-.46-.52.01-.27.25-.48.52-.46.05,0,4.59.24,9.25.23,8.76-.02,9.83-.92,9.96-1.1.57-.81.6-3.44-.87-4.9-3.29-3.29-9.84-3.72-9.91-3.72-.14,0-.27-.08-.36-.19-.09-.11-.12-.26-.09-.4,0-.03.61-2.9-.11-6.2-.95-4.37-3.66-7.41-8.05-9.02-9.74-3.58-21.25,5.82-21.37,5.91-.21.17-.52.14-.69-.06-.17-.21-.14-.52.06-.69.12-.1,3.03-2.49,7.24-4.46,5.61-2.63,10.83-3.19,15.09-1.62,5.9,2.17,7.98,6.51,8.68,9.77.57,2.66.35,5.01.2,6.04,1.71.18,6.99.95,10,3.96,1.81,1.81,1.84,4.94.98,6.16-.29.41-1.05,1.49-10.76,1.51-.12,0-.23,0-.35,0"/>
  <path class="cls-8" d="M84.65,43.12h-.09c.03-.09.06-.16.09-.24,0,.08,0,.16,0,.24"/>
  <path class="cls-4" d="M56.66,51.3h0c-5.86-1.59-10.01-5.07-10.55-10.63h0c.55,5.56,4.69,9.05,10.55,10.63"/>
  <path class="cls-9" d="M46.05,39.94h0c0-.08,0-.15,0-.23-.01-.54,0-1.09.03-1.64,0,0,0,0,0,0-.03.55-.04,1.1-.03,1.64,0,.08,0,.15,0,.23"/>
  <path class="cls-10" d="M62.93,52.26c-2.23-.12-4.34-.44-6.27-.96h0c1.93.52,4.04.84,6.27.96M46.1,40.67h0c-.02-.24-.04-.48-.05-.73h0c.01.25.03.49.05.73"/>
  <path class="cls-8" d="M84.65,42.88s0,0,0,0c.28-.81.48-1.67.57-2.58h0s0-.01,0-.02h0s0-.01,0-.02c0,0,0,0,0,0,0,0,0,0,0-.01,0,0,0,0,0,0,0,0,0,0,0,0,0,0,0,0,0,0,0,0,0,0,0-.01,0,0,0,0,0,0,0,0,0,0,0,0,0,0,0,0,0,0,0,0,0,0,0,0,0,0,0-.01,0-.02,0,0,0,0,0,0,0,0,0,0,0-.01h0c.02-.22.03-.45.04-.67h0s0-.03,0-.05t0,0s0-.02,0-.04h0s0-.01,0-.02c0-.01,0-.02,0-.03h0s0-.01,0-.01h0s0-.03,0-.04h0s0-.01,0-.01h0s0-.01,0-.02h0v-.02s0,0,0,0h0v-.02s0,0,0,0h0v-.02h0s0-.01,0-.02h0v-.02h0v-.02h0v-.02s0-.01,0-.02h0v-.02h0v-.02h0v-.02h0s0-.01,0-.02h0v-.02h0v-.02h0v-.02h0s0-.01,0-.02h0v-.02h0s0-.01,0-.02h0s0-.01,0-.02h0v-.02h0s0-.01,0-.02h0s0-.02,0-.04h0s0-.01,0-.02h0s0-.03,0-.04c0,0,0,0,0,0h0s0-.02,0-.02c0,0,0-.01,0-.02,0-.29-.02-.58-.04-.87h0c.02.29.03.58.04.87.04,1.5-.18,2.87-.62,4.11"/>
  <path class="cls-4" d="M84.56,43.11h0c.03-.08.06-.16.09-.24,0,0,0,0,0,0-.03.08-.06.16-.09.24"/>
  <path class="cls-4" d="M73.61,51.32c5.31-1.34,9.38-4.06,10.95-8.2h0c-1.57,4.14-5.64,6.86-10.95,8.2h0"/>
  <path class="cls-10" d="M67.83,52.21c2.04-.14,3.98-.44,5.78-.9h0c-1.8.45-3.74.75-5.78.9"/>
  <path class="cls-1" d="M46.96,33.19s0,0,0,0c0,0,0,0,0,0M46.97,33.18c1.96-6.25,7.08-11.85,16.02-12.84-8.94.99-14.06,6.59-16.02,12.84M62.99,20.34s.01,0,.02,0c0,0-.01,0-.02,0M63,20.33s.03,0,.05,0c-.02,0-.03,0-.05,0M63.06,20.33s0,0,.01,0c0,0,0,0-.01,0M63.08,20.33s0,0,.01,0c0,0,0,0-.01,0M63.09,20.32s.02,0,.03,0c-.01,0-.02,0-.03,0M63.13,20.32s0,0,.01,0c0,0,0,0-.01,0M63.15,20.32s0,0,.01,0c0,0-.01,0-.01,0M63.16,20.32s.02,0,.03,0c-.01,0-.02,0-.03,0M63.2,20.31s0,0,.01,0c0,0,0,0-.01,0M63.22,20.31s0,0,.02,0c0,0-.01,0-.02,0M63.24,20.31s.02,0,.03,0c-.01,0-.02,0-.03,0M63.27,20.3s0,0,.01,0c0,0,0,0-.01,0M63.29,20.3s0,0,.01,0c0,0,0,0-.01,0M63.31,20.3s.01,0,.02,0c0,0-.01,0-.02,0M63.33,20.3s.01,0,.02,0c0,0-.01,0-.02,0M63.35,20.3s0,0,.01,0c0,0,0,0-.01,0M63.36,20.3s0,0,.01,0c0,0,0,0-.01,0M63.38,20.29s.02,0,.03,0c-.01,0-.02,0-.03,0M63.42,20.29s0,0,.01,0c0,0,0,0-.01,0M63.44,20.29s0,0,.01,0c0,0,0,0-.01,0M63.45,20.29s.02,0,.03,0c-.01,0-.02,0-.03,0M63.49,20.28s0,0,.01,0c0,0,0,0-.01,0M63.51,20.28s0,0,.01,0c0,0,0,0-.01,0M63.53,20.28s.01,0,.02,0c0,0-.01,0-.02,0"/>
  <path class="cls-12" d="M85.21,40.3h0s0,0,0,0M85.21,40.28h0s0,0,0,0M85.22,40.26s0,0,0,0c0,0,0,0,0,0M85.22,40.25s0,0,0,0c0,0,0,0,0,0M85.22,40.23s0,0,0,0c0,0,0,0,0,0M85.22,40.22s0,0,0,0c0,0,0,0,0,0M85.22,40.2s0,0,0,0c0,0,0,0,0,0M85.22,40.19s0-.01,0-.02c0,0,0,.01,0,.02M85.22,40.17s0,0,0-.01c0,0,0,0,0,.01M85.23,40.15c.02-.22.03-.44.04-.67,0,.23-.02.45-.04.67M85.27,39.48s0-.03,0-.05c0,.02,0,.03,0,.05M85.27,39.43s0-.02,0-.04c0,.01,0,.02,0,.04M85.27,39.39h0s0,0,0,0M85.27,39.38s0-.02,0-.03c0,.01,0,.02,0,.03M85.27,39.34s0,0,0-.01c0,0,0,0,0,.01M85.27,39.33s0-.02,0-.03c0,.01,0,.02,0,.03M85.27,39.29s0,0,0,0c0,0,0,0,0,0M85.27,39.27s0,0,0-.01c0,0,0,0,0,.01M85.27,39.25h0s0,0,0,0M85.27,39.24h0s0,0,0,0M85.27,39.22s0,0,0,0c0,0,0,0,0,0M85.27,39.2h0s0,0,0,0M85.27,39.19s0,0,0,0c0,0,0,0,0,0M85.27,39.17h0s0,0,0,0M85.27,39.15h0s0,0,0,0M85.27,39.13h0s0,0,0,0M85.27,39.11h0s0,0,0,0M85.27,39.1h0s0,0,0,0M85.27,39.08h0s0,0,0,0M85.27,39.06h0s0,0,0,0M85.27,39.05h0s0,0,0,0M85.27,39.03h0s0,0,0,0M85.27,39.01h0s0,0,0,0M85.27,38.99h0s0,0,0,0M85.27,38.98h0s0,0,0,0M85.27,38.96h0s0,0,0,0M85.27,38.94h0s0,0,0,0M85.27,38.92h0s0,0,0,0M85.27,38.9h0s0,0,0,0M85.27,38.89h0s0,0,0,0M85.27,38.85h0s0,0,0,0M85.27,38.84h0s0,0,0,0M85.27,38.8s0,0,0,0c0,0,0,0,0,0M85.27,38.78s0,0,0,0c0,0,0,0,0,0"/>
  <path class="cls-12" d="M84.65,42.87c.17-.84.25-1.73.22-2.67,0-.09,0-.17,0-.26.18-.65.3-1.33.36-2.04.02.29.03.58.04.87,0,0,0,.01,0,.02,0,0,0,0,0,0h0s0,.02,0,.02c0,.01,0,.02,0,.03h0s0,.01,0,.02h0s0,.02,0,.03h0s0,.01,0,.02h0v.02h0s0,.01,0,.02h0s0,.01,0,.02h0v.02h0s0,.01,0,.02h0v.02h0v.02h0v.02h0s0,.01,0,.02h0v.02h0v.02h0v.02h0s0,.01,0,.02h0v.02h0v.02h0v.02s0,0,0,0h0v.02h0s0,.02,0,.02h0v.02s0,0,0,0h0v.02s0,0,0,.01h0s0,.01,0,.02h0s0,.03,0,.04h0s0,.01,0,.01h0s0,.03,0,.04c0,0,0,0,0,0h0s0,.04,0,.05c0,0,0,0,0,0,0,.02,0,.03,0,.05h0c0,.23-.02.45-.04.67h0s0,0,0,.01c0,0,0,0,0,0,0,0,0,.01,0,.02,0,0,0,0,0,0,0,0,0,0,0,0,0,0,0,0,0,0,0,0,0,0,0,0,0,0,0,0,0,.01,0,0,0,0,0,0,0,0,0,0,0,0,0,0,0,0,0,0,0,0,0,0,0,.01,0,0,0,0,0,0,0,0,0,.01,0,.02h0s0,.01,0,.02h0c-.09.91-.28,1.77-.57,2.58"/>
  <path class="cls-4" d="M108.61,50.91s0,0,0,0c0-.03,0-.05,0-.08,0,.03,0,.05,0,.08"/>
  <path class="cls-10" d="M108.21,51.44h-.01c-.48,0-1.58-.01-2.83-.01-.62,0-1.27,0-1.91,0,0,0,0,0,0,0,.64,0,1.29,0,1.91,0,1.26,0,2.36,0,2.83,0h0c.29,0,.41-.2.4-.53,0,0,0,0,0,0,.01.33-.11.53-.4.53"/>
  <path class="cls-8" d="M100.41,48.82c.06-.17.13-.34.21-.51-.07.17-.14.34-.21.51h0"/>
  <path class="cls-4" d="M99.81,50.94c.1-.49.28-1.29.6-2.12h0c-.31.83-.5,1.63-.6,2.12h0"/>
  <path class="cls-10" d="M99.72,51.44s.03-.19.09-.5h0c-.06.31-.09.5-.09.5,0,0,1.78,0,3.73,0,0,0,0,0,0,0-1.95,0-3.73,0-3.73,0"/>
  <path class="cls-10" d="M85.04,17.47c-.12,0-.23-.06-.29-.17-.07-.12-.06-.27.02-.38l1.12-1.52-1.07.16c-.19.03-.36-.1-.39-.29-.03-.19.1-.36.29-.39l1.88-.28c.14-.02.27.04.34.16.07.12.06.27-.02.38l-1.12,1.52,1.07-.16c.19-.03.36.1.39.29.03.19-.1.36-.29.39l-1.88.28s-.03,0-.05,0h0Z"/>
  <path class="cls-10" d="M79.35,14.74c-.12,0-.23-.06-.29-.17-.07-.12-.06-.27.02-.38l2.19-2.98-2.33.34c-.19.03-.36-.1-.39-.29-.03-.19.1-.36.29-.39l3.15-.46c.14-.02.27.04.34.16.07.12.06.27-.02.38l-2.19,2.98,2.33-.34c.19-.03.36.1.39.29.03.19-.1.36-.29.39l-3.15.46s-.03,0-.05,0h0Z"/>
  <path class="cls-10" d="M84.14,9.82c-.13,0-.25-.07-.31-.18-.08-.13-.07-.29.02-.41l3.24-4.4-3.55.52c-.2.03-.39-.11-.42-.31-.03-.2.11-.39.31-.42l4.42-.65c.15-.02.29.05.37.17.08.13.07.29-.02.41l-3.24,4.4,3.55-.52c.2-.03.39.11.42.31.03.2-.11.39-.31.42l-4.42.65s-.04,0-.05,0h0Z"/>
  <g>
    <path class="cls-13" d="M103.59,45.07c-7.02-3.87-17.49-1.84-17.49-1.84l-.53-.04-.92-.07-35.76-2.7c-1.12-.03-2.18-.08-3.19-.14-3.53-.22-6.45-.6-9-.68-.05.2-.11.39-.16.58l-2.31-.13c-1.35-.08-2.61-.29-3.86-.72-.99-.33-1.79-.94-2.31-1.76-.18.2-.39.38-.63.53-.49.31-1.04.38-1.6.43-.57.05-1.16-.07-1.66-.34-.09-.05-.17-.1-.25-.16,0,.38.03.77.13,1.16,1.65.85,3.31,2.67,2.06,4.06.55.33.9.78.99,1.26.11.6-.14,1.14-.6,1.55-.43.38-.92.75-1.44.9,2.08,1.33,4.96,1.77,7.51,1.91.18.01.35.02.53.02-.23.47-.47.95-.71,1.42-.16.32-.34.6-.53.86.12.03.24.05.36.07,1.35.25,9.03.42,18.84.5,8.81.08,19.34.09,28.57.03,11.53-.07,21.02-.25,22.54-.53,4-.74,6.19-3.57,1.45-6.18Z"/>
    <path class="cls-10" d="M21.41,46.42c-.72-.1-1.17-.59-1.42-1.16-.29-.66-.27-1.42.33-1.9-.05-.42-.62-.68-.63-1.36,0-.23.01-.46-.01-.69,0-.05,0-.11.02-.18.03-.09.06-.13.12-.26.05-.1.05-.14.08-.2.07-.14.16-.28.27-.4.2-.23.47-.4.76-.51.23-.08.48-.12.73-.11,1.81.04,3.8,1.62,3.73,2.5-.04.55-1.32.86-2.24.98l-1.95.3.34.13,2.49.21c.94.08,2.02.43,1.97,1.1-.07.91-2.72,1.81-4.59,1.54Z"/>
    <path class="cls-10" d="M48.53,39.82c-1.26-.06-3.07-.16-5.25-.29-2.05-.13-1.8-.1-2.56-.16-3-.23-7.9-.32-9.89-1-.98-.33-1.47-.88-1.59-1.02-.24-.29-.44-.62-.57-.99-.06.3-.17.61-.3.81-.09.15-.2.28-.31.4.52.82,1.33,1.43,2.31,1.76,1.26.42,2.51.64,3.86.72,2.09.15,4.23.27,6.41.38,2.71.12,5.36.2,7.94.24-.01-.28-.03-.56-.04-.84Z"/>
    <g>
      <path class="cls-8" d="M47.22,44.58c-.77-1.43-1.04-2.84-1.12-3.91-.14,0-.28,0-.43,0-.03.54-.04,1.08-.03,1.61.07,2.74.94,5.02,2.44,6.87-1.93-.01-4.48-.02-6.47-.05-2.96-.04-5.25-.05-7.93-.16-.38-.02-.76-.04-1.13-.06-2.54-.15-5.43-.58-7.51-1.91l-1.93.54c1.33,2.12,5.27,3.19,7.59,3.33l5.17.33c.9.01,2.23.03,3.85.04,5,.04,5.67-.02,7.73.03,6.01.14,9.06.64,9.19.07.19-.83-6.67-1.62-9.43-6.72Z"/>
      <path class="cls-8" d="M82.57,49.18c1.37-1.76,2.12-3.9,2.09-6.06h-.09c-1.57,4.14-5.64,6.85-10.95,8.2,2.27,0,4.55-.02,6.82-.03,2.75-.02,5.49-.04,8.24-.08,2.75-.04,5.49-.08,8.23-.16.97-.03,1.95-.06,2.92-.11.1-.49.28-1.29.6-2.12-3.16.17-9.84.29-17.84.36Z"/>
    </g>
  </g>
  <path class="cls-10" d="M106.67,47.5c-.12-.41-.33-.76-.57-1.07-.48-.61-1.08-1.05-1.68-1.44-.3-.19-.62-.37-.93-.53-.31-.17-.64-.31-.96-.46-.65-.28-1.31-.53-1.99-.72-.34-.11-.68-.19-1.02-.28-.34-.08-.68-.16-1.03-.23-1.37-.28-2.76-.45-4.16-.54-.7-.03-1.39-.06-2.09-.05-.35,0-.7.02-1.04.04-.35.02-.69.04-1.04.07-.35.03-.69.07-1.04.12-.34.05-.69.1-1.03.16-.68.13-1.36.28-2.03.5-.07.02-.12.09-.11.16,0,.09.08.16.17.16h0c2.74-.11,5.45-.25,8.15-.12.67.04,1.35.08,2.02.15.67.08,1.34.17,2,.31.17.03.33.07.49.1l.49.11c.32.09.65.17.97.27.64.19,1.27.43,1.88.69.3.14.61.27.9.43.3.15.58.31.86.49.55.35,1.07.75,1.44,1.22.18.23.33.48.4.74.07.25.08.5.02.75-.14.49-.57.94-1.08,1.28-.26.17-.54.32-.83.44-.29.13-.6.23-.91.32-.31.09-.63.17-.95.21-.16.02-.31.04-.47.06l-.5.04c-1.35.09-2.73.13-4.1.17-2.74.08-5.49.12-8.23.16-4.35.06-6.53.07-8.24.08-7.27.03-11.01-.13-14.8-.17-7.13-.07-30.47.15-36.13-.5-.96-.11-2.49-.37-4.1-1.3-1.05-.61-1.8-1.31-2.26-1.81l1.93-.54c.52-.15,1.01-.51,1.44-.9.45-.41.71-.95.6-1.55-.09-.48-.44-.92-.99-1.25,1.25-1.4-.42-3.22-2.06-4.06-.1-.39-.12-.78-.13-1.16-.26-.19-.46-.42-.66-.68l-.02-.02c-.2-.19-.34-.41-.45-.66l.04,2c-1.11-.28-2.29-.15-3.19.62-1.14.98-1.41,2.66-.65,3.97-.43,1.04-.35,2.08.3,3,.53.76,1.47,1.29,2.57,1.27.28.46.73,1.12,1.45,1.75.29.26.89.76,1.94,1.27,1.9.92,3.64,1.07,5.58,1.21,0,0,0,0,0,0,0,0,0,0,0,0,0,0,.54.03,1.09.06,3.65.18,7.35.27,7.35.27,1.57.04,3.8.06,8.2.1,3.39.03,5.9.06,9.39.08,2.11.01,4.44.02,7.1.02,5.5,0,10.99,0,16.49-.04,2.75-.02,5.5-.04,8.24-.08,2.75-.04,5.5-.08,8.25-.16,1.38-.04,2.75-.08,4.14-.18l.52-.04c.18-.02.37-.04.55-.07.36-.06.71-.14,1.06-.24.35-.1.69-.22,1.03-.36.34-.15.67-.31.98-.52.31-.21.62-.45.88-.75.26-.3.49-.66.61-1.08.12-.42.1-.88-.02-1.28Z"/>
  <path class="cls-13" d="M85.27,38.76c.21,8.87-8.46,13.28-19.29,13.54-10.83.26-19.71-3.72-19.93-12.59-.21-8.5,5.08-18.34,17.5-19.43,1.49-.8,3.49-2.18,4.59-4.18.34-.62,1.26-.56,1.5.12.32.89.62,2.07.06,3.61,1.64-.85,3.28-1.81,3.81-2.31.57-.54,1.51-.13,1.5.65,0,.76-.24,2.37-.53,3.72,7.21,3.2,10.64,10.35,10.79,16.88"/>
  <path class="cls-8" d="M64.98,52.31c-.69,0-1.38-.02-2.05-.05-2.23-.12-4.34-.44-6.27-.96-5.86-1.59-10.01-5.07-10.55-10.63-.02-.24-.04-.48-.05-.73,0-.08,0-.15,0-.23-.01-.54,0-1.09.03-1.64.58,8.18,8.78,11.99,18.91,11.99.33,0,.66,0,.99-.01,9.33-.23,17.07-3.53,18.89-10.12,0,.09,0,.17,0,.26.02.94-.05,1.83-.22,2.67.28-.81.48-1.67.57-2.58-.09.91-.28,1.77-.57,2.58-.03.08-.06.16-.09.24-1.57,4.14-5.64,6.86-10.95,8.2-1.8.45-3.74.75-5.78.9-.61.04-1.23.07-1.86.09-.33,0-.67.01-1,.01M85.21,40.29s0-.01,0-.02c0,0,0,.01,0,.02M85.21,40.28s0-.01,0-.02c0,0,0,.01,0,.02M85.22,40.26s0,0,0-.01c0,0,0,0,0,.01M85.22,40.24s0,0,0,0c0,0,0,0,0,0M85.22,40.23s0,0,0-.01c0,0,0,0,0,.01M85.22,40.21s0,0,0,0c0,0,0,0,0,0M85.22,40.19s0,0,0,0c0,0,0,0,0,0M85.22,40.17s0,0,0,0c0,0,0,0,0,0M85.23,40.16h0s0,0,0,0M85.27,39.48h0s0,0,0,0M85.27,39.43s0,0,0,0t0,0M85.27,39.39h0s0,0,0,0M85.27,39.38s0,0,0,0c0,0,0,0,0,0M85.27,39.34h0s0,0,0,0M85.27,39.33h0s0,0,0,0M85.27,39.3h0s0,0,0,0M85.27,39.28h0s0,0,0,0M85.27,39.26h0s0,0,0,0M85.27,39.25s0,0,0,0c0,0,0,0,0,0M85.27,39.23h0s0,0,0,0M85.27,39.21h0s0,0,0,0M85.27,39.19h0s0,0,0,0M85.27,39.18h0s0,0,0,0M85.27,39.16h0s0,0,0,0M85.27,39.14h0s0,0,0,0M85.27,39.13s0-.01,0-.02c0,0,0,.01,0,.02M85.27,39.11v-.02.02M85.27,39.09h0s0,0,0,0M85.27,39.08v-.02.02M85.27,39.06s0,0,0-.01c0,0,0,0,0,.01M85.27,39.04h0s0,0,0,0M85.27,39.03v-.02.02M85.27,39.01h0s0,0,0,0M85.27,38.99s0,0,0-.01c0,0,0,0,0,.01M85.27,38.97v-.02.02M85.27,38.96s0,0,0-.01c0,0,0,0,0,.01M85.27,38.94s0-.01,0-.02c0,0,0,0,0,.02M85.27,38.92v-.02.02M85.27,38.9s0,0,0-.01c0,0,0,0,0,.01M85.27,38.89s0-.02,0-.03c0,.01,0,.02,0,.03M85.27,38.85s0,0,0-.01c0,0,0,0,0,.01M85.27,38.83s0-.02,0-.03c0,.01,0,.02,0,.03M85.27,38.8h0s0,0,0,0M85.27,38.78s0-.01,0-.02c0-.29-.02-.58-.04-.87h0c.02.29.03.58.04.87,0,0,0,.01,0,.02"/>
  <path class="cls-7" d="M84.86,39.94c-.24-6.07-3.75-12.96-10.07-16.39-.73-.4-1.12-1.21-.96-2.03.18-.92.33-1.78.33-2.28,0-.44-.15-.64-.39-.64-.19,0-.42.12-.67.36-.42.39-1.5,1.06-2.75,1.74-.08.05-.17.07-.26.07-.3,0-.58-.26-.53-.6.14-1.02-.09-1.85-.33-2.51-.12-.34-.28-.55-.48-.55s-.42.2-.67.66c-.73,1.33-2.02,2.29-3.24,3.01-.98.58-2.06.94-3.18,1.11-8.35,1.26-13.19,6.68-15.08,12.69.11-.47.24-.94.38-1.4,0,0,0,0,0,0,0,0,0,0,0,0,1.96-6.25,7.08-11.85,16.02-12.84h0s.01,0,.02,0c0,0,0,0,0,0,.02,0,.03,0,.05,0,0,0,0,0,0,0,0,0,0,0,.01,0,0,0,0,0,0,0,0,0,.01,0,.01,0,0,0,0,0,0,0,.01,0,.02,0,.03,0,0,0,0,0,0,0,0,0,0,0,.01,0,0,0,0,0,0,0,0,0,.01,0,.01,0,0,0,0,0,0,0,.01,0,.02,0,.03,0,0,0,0,0,0,0,0,0,0,0,.01,0,0,0,0,0,0,0,0,0,.01,0,.02,0t0,0s.02,0,.03,0c0,0,0,0,0,0,0,0,0,0,.01,0,0,0,0,0,0,0,0,0,0,0,.01,0,0,0,0,0,0,0,0,0,.01,0,.02,0h0s.01,0,.02,0c0,0,0,0,0,0,0,0,0,0,.01,0,0,0,0,0,0,0,0,0,0,0,.01,0,0,0,0,0,0,0,.01,0,.02,0,.03,0,0,0,0,0,0,0,0,0,0,0,.01,0,0,0,0,0,0,0,0,0,0,0,.01,0,0,0,0,0,0,0,.01,0,.02,0,.03,0,0,0,0,0,0,0,0,0,0,0,.01,0,0,0,0,0,0,0,0,0,0,0,.01,0,0,0,0,0,0,0,0,0,.01,0,.02,0h0c1.49-.8,3.49-2.18,4.59-4.18.16-.29.44-.43.72-.43.32,0,.64.19.77.55.19.53.38,1.16.38,1.91,0,.51-.09,1.08-.32,1.7h0c1.64-.85,3.28-1.81,3.81-2.31.18-.17.4-.24.61-.24.46,0,.89.36.89.89h0c0,.77-.24,2.38-.53,3.73h0c6.89,3.06,10.33,9.73,10.75,16-.06.71-.18,1.39-.36,2.04"/>
  <path class="cls-11" d="M81.37,37.66c.06,2.58-.65,5.38-2.95,7.59-2.34,2.26-6.34,3.89-12.84,4.05h0c-6.43.16-10.48-1.26-12.94-3.36-2.46-2.1-3.33-4.9-3.39-7.51-.01-.53.02-1.05.09-1.56.64-4.5,4.45-8.01,9.14-8.13,2.57-.06,4.92.9,6.66,2.52,1.66-1.7,3.97-2.78,6.53-2.84,4.63-.11,8.57,3.13,9.49,7.51h0c.12.56.19,1.13.2,1.72"/>
  <path class="cls-10" d="M67.72,38.57c.02.81-1.03,1.8-2.35,1.83-1.32.03-2.42-.91-2.44-1.72-.02-.81,1.04-1.17,2.37-1.2,1.32-.03,2.4.28,2.42,1.08"/>
  <path class="cls-5" d="M65.34,38.6c-.52,0-.93-.21-.94-.39,0-.19.43-.28.97-.29.04,0,.08,0,.12,0,.48,0,.85.07.86.25,0,.19-.43.43-.97.44-.02,0-.03,0-.05,0"/>
  <path class="cls-14" d="M62.01,38.26c-.33,2.81-2.57,3.52-5.49,4.78-1.83.79-3.08,1.92-3.88,2.9-2.46-2.1-3.33-4.9-3.39-7.51-.01-.53.02-1.05.09-1.56,1.69-1.84,4.39-3.64,8.35-3.26,2.9.28,4.56,2.63,4.32,4.65h0Z"/>
  <path class="cls-14" d="M81.37,37.66c.06,2.58-.65,5.38-2.95,7.59-.86-.93-2.14-1.96-3.96-2.65-2.97-1.11-5.24-1.72-5.71-4.51-.34-2,1.22-4.43,4.09-4.85,3.81-.55,6.54.99,8.33,2.69h0c.12.56.19,1.13.2,1.72h0Z"/>
  <path class="cls-10" d="M76.68,37.51c-.09.13-.17.22-.26.32-.09.1-.18.18-.28.27-.1.09-.2.16-.3.24-.1.08-.22.14-.32.21-.45.26-.95.44-1.48.53-.26.05-.53.05-.8.06-.27-.03-.54-.04-.79-.12-.52-.12-1-.38-1.39-.7-.23-.19-.26-.53-.07-.75.11-.13.26-.19.42-.19h.1c.11,0,.21.01.31.03.1.01.2.03.3.03.1,0,.19.01.29.02.09.01.19,0,.28,0,.18.01.37,0,.55,0,.18-.02.36-.03.54-.06.36-.05.72-.14,1.09-.25l.28-.09c.09-.04.19-.06.28-.1.1-.03.19-.07.28-.11.09-.03.2-.08.27-.1l.16-.04c.28-.07.56.1.63.38.04.15,0,.31-.08.43h0Z"/>
  <path class="cls-10" d="M54.5,37.25c.08.01.18.06.28.08.1.03.19.06.29.09.09.03.19.05.29.09l.28.08c.37.1.74.16,1.1.2.18.03.36.02.54.03.18-.01.36,0,.55-.02.09-.01.19,0,.28-.02.09-.01.19-.03.29-.04.1,0,.19-.03.3-.04.1-.02.2-.03.31-.04h.1c.29-.03.55.19.57.49.01.17-.06.32-.17.43-.38.35-.84.63-1.35.77-.25.09-.52.12-.79.16-.27,0-.54.02-.8-.02-.53-.06-1.04-.22-1.5-.46-.11-.06-.23-.13-.33-.2-.11-.07-.21-.14-.31-.22-.1-.08-.2-.16-.29-.26-.1-.09-.17-.18-.27-.31-.18-.22-.14-.55.08-.73.12-.1.28-.13.42-.11l.16.03h0Z"/>
  <path class="cls-10" d="M68.14,42.34c-.19.19-.38.32-.59.45-.21.13-.43.24-.65.33-.46.18-.96.29-1.48.3-.53,0-1.03-.11-1.49-.3-.23-.09-.45-.21-.65-.34-.21-.13-.39-.27-.59-.45-.15-.15-.15-.39,0-.54.1-.11.25-.14.39-.1h.05c.18.07.39.15.58.2.19.06.39.11.58.16.39.09.77.14,1.13.14.37,0,.75-.06,1.14-.15.19-.04.39-.09.59-.15.19-.05.4-.13.58-.18h.05c.2-.07.41.04.47.24.04.14,0,.29-.1.38h0Z"/>
  <path class="cls-10" d="M68.86,16.16c-.08,0-.21.02-.3.18-1.16,2.1-3.24,3.53-4.79,4.37-.06.03-.12.05-.19.06-12,1.05-17.25,10.55-17.05,18.93.22,9.27,10.18,12.34,19.42,12.11,9.24-.22,19.04-3.76,18.82-13.04-.14-5.76-2.97-13.1-10.5-16.44-.21-.09-.33-.32-.28-.55.29-1.37.51-2.92.52-3.63,0-.24-.16-.33-.24-.37-.06-.02-.26-.09-.44.08-.63.6-2.44,1.63-3.92,2.39-.18.09-.4.07-.55-.07-.15-.13-.21-.35-.14-.54.5-1.35.27-2.37-.06-3.27-.07-.18-.22-.22-.29-.22,0,0-.02,0-.03,0h0ZM64.94,52.8c-11.79,0-19.19-4.96-19.38-13.08-.21-8.8,5.28-18.77,17.84-19.92,1.42-.78,3.29-2.08,4.31-3.93.25-.46.74-.72,1.26-.68.52.04.95.37,1.13.87.28.78.52,1.7.35,2.82,1.31-.72,2.35-1.37,2.72-1.71.41-.39.99-.49,1.5-.26.51.22.83.71.82,1.27,0,.7-.2,2.1-.46,3.43,3.29,1.55,6.02,4.04,7.91,7.23,1.76,2.97,2.74,6.41,2.82,9.92.2,8.36-7.37,13.74-19.77,14.04-.35,0-.7.01-1.04.01h0Z"/>
  <path class="cls-3" d="M99.73,51.44s7.05-.02,8.47,0c1.43.02-1.12-4.75-3.7-5.6-3.83-1.25-4.78,5.6-4.78,5.6"/>
  <g>
    <path class="cls-3" d="M25.39,42.15c-1.86.45-3.85.39-5.7-.14,0-.09-.01-.22,0-.37,0-.2.01-.41.08-.64.02-.08.12-.38.38-.69.08-.1.34-.38.78-.54.23-.08.48-.12.73-.12,1.81.04,3.8,1.62,3.73,2.5Z"/>
    <path class="cls-3" d="M21.2,43.44c.18.04.46.1.82.16,1.58.26,2.2.05,3.07.48.31.15.93.46.91.81-.04.64-2.27,1.25-4.25.93-.75-.12-1.35-.36-1.75-.55-.29-.66-.27-1.42.33-1.9l.88.06Z"/>
    <path class="cls-2" d="M26,44.88c-.07.91-2.72,1.81-4.59,1.54-.72-.1-1.17-.59-1.42-1.16,2.03.6,4.16.5,6.01-.38Z"/>
    <path class="cls-2" d="M25.39,42.15c-.04.55-1.32.86-2.24.98l-1.95.3-.88-.06c-.05-.42-.62-.68-.63-1.36,1.85.53,3.84.59,5.7.14Z"/>
  </g>
  <path class="cls-3" d="M27.56,36.53c0,.06-.01.12-.03.19-.02.06-.04.12-.07.18-.06.11-.15.21-.27.32-.18.15-.41.3-.68.4-.26.1-.56.15-.85.15-.26,0-.51-.04-.75-.13-.24-.09-.46-.23-.67-.43-.06-.06-.12-.13-.17-.2-.07-.11-.13-.22-.17-.39-.04-.17-.07-.38-.07-.66,0-.34.05-.78.14-1.34.14-.78.37-1.52.65-2.18.21-.5.45-.96.7-1.36.19-.3.38-.58.58-.81.14-.18.29-.34.43-.47.21-.2.41-.35.57-.44.08-.04.15-.07.21-.09.06-.02.1-.02.13-.02.02,0,.03,0,.04,0,0,0,0,0,.02.01.02.02.04.04.05.06.02.04.04.09.06.16.02.07.03.17.03.28,0,.13-.02.29-.04.47-.03.27-.08.58-.13.92-.05.35-.09.73-.11,1.13-.01.28-.02.54-.02.79,0,.57.03,1.04.07,1.44.03.3.07.56.11.79.06.34.13.6.18.81.02.1.04.18.05.25.01.07.02.12.02.17Z"/>
  <path class="cls-2" d="M27.18,34.08c.01.17.08,1.57-1.03,2.54-.84.73-1.82.74-2.07.73.21.18.59.46,1.13.56,1.04.2,2.28-.32,2.53-1.11.08-.24-.04-.73-.29-1.71-.1-.42-.2-.76-.27-1.01Z"/>
  <path class="cls-6" d="M108.21,51.44h0c-.48,0-1.58,0-2.83,0-.62,0-1.27,0-1.91,0-1.95,0-3.73,0-3.73,0,0,0,.03-.19.09-.5.1-.49.28-1.29.6-2.12.06-.17.13-.34.21-.51,0,0,0,0,0,0h0c.47-1.07,1.16-2.09,2.15-2.46-.16.26-.3.53-.43.81-.7,1.55.35,3.32,2.03,3.47,1.32.12,2.87.27,4.18.43.02.1.04.19.05.28,0,.03,0,.05,0,.08.01.33-.11.53-.4.53"/>
  <path class="cls-10" d="M106.51,51.81c-.13,0-.27-.07-.34-.2-2.01-3.61-5-3.99-5.04-3.99-.21-.02-.36-.21-.34-.42.02-.21.21-.36.42-.34.14.02,3.42.42,5.62,4.38.1.19.04.42-.15.52-.06.03-.12.05-.19.05h0Z"/>
  <path class="cls-10" d="M105.37,50.94c1.19,0,2.24,0,2.75,0,0-.16-.07-.53-.37-1.14-.67-1.38-2.1-3.07-3.4-3.5-.66-.22-1.23-.16-1.76.17-1.4.87-2.05,3.35-2.28,4.47,1.03,0,3.21,0,5.06,0h0ZM108.21,51.93s-.01,0-.02,0c-1.41-.02-8.39,0-8.47,0-.14,0-.28-.06-.37-.17-.09-.11-.14-.25-.12-.39.02-.18.63-4.35,2.83-5.73.78-.48,1.64-.57,2.58-.27,2.35.77,4.66,4.4,4.43,5.8-.08.46-.41.75-.87.75h0Z"/>
  <path class="cls-10" d="M28.68,36.22c-.03-.17-.07-.34-.11-.51-.06-.27-.14-.57-.2-.99-.05-.42-.1-.95-.1-1.64,0-.23,0-.48.02-.75.02-.46.09-.91.14-1.34.03-.21.06-.42.09-.62.03-.2.04-.4.04-.6,0-.11,0-.23-.02-.35-.02-.18-.06-.35-.14-.52-.08-.17-.19-.34-.34-.47-.11-.11-.25-.2-.39-.25-.14-.05-.3-.08-.44-.08-.13,0-.25.02-.37.05-.22.05-.43.15-.63.27-.18.11-.35.24-.52.4-.3.26-.6.59-.89.97-.43.57-.84,1.26-1.19,2.04-.34.78-.62,1.66-.8,2.58-.11.6-.16,1.11-.16,1.54,0,.24.02.46.05.66.03.15.06.3.1.43.06.2.15.39.26.55.1.17.22.3.35.43.32.32.68.54,1.06.68.38.15.77.21,1.16.21.38,0,.75-.06,1.09-.17.26-.09.51-.19.73-.33.17-.1.33-.22.48-.35.21-.19.4-.42.53-.67.06-.13.12-.27.15-.41.04-.14.06-.29.06-.44,0-.11-.01-.21-.02-.32ZM23.82,35.95c0-.34.05-.78.14-1.34.14-.78.37-1.52.65-2.18.21-.5.45-.96.7-1.36.27-.44.51-.73.58-.81.3-.36,1.03-1.25,1.35-1.09.19.09.17.55.14,1.07-.02.31-.05.33-.13.92-.05.35-.09.73-.11,1.13-.01.28-.02.54-.02.79,0,.57.03,1.04.07,1.44.03.3.07.56.11.79.09.48.36,1.04.17,1.51-.62,1.17-2.59,1.26-3.36.25-.25-.32-.3-.73-.3-1.12Z"/>
</svg>