<?xml version="1.0" encoding="UTF-8"?>
<svg id="Vrstva_1" data-name="Vrstva 1" xmlns="http://www.w3.org/2000/svg" viewBox="0 0 89.27 79.37">
  <defs>
    <style>
      .cls-1 {
        fill: #a97a99;
      }

      .cls-2 {
        fill: #fefbfc;
      }

      .cls-3 {
        fill: #68aa31;
      }

      .cls-4 {
        fill: #f4dabb;
      }

      .cls-5 {
        fill: #ecc18e;
      }

      .cls-6 {
        fill: #f2d5b0;
      }

      .cls-7 {
        fill: #fff;
      }

      .cls-8 {
        fill: #a36069;
      }

      .cls-9 {
        fill: #b589a6;
      }

      .cls-10 {
        fill: #c7c7c7;
      }

      .cls-11 {
        fill: #81b6d4;
      }

      .cls-12 {
        fill: #bf8678;
      }

      .cls-13 {
        fill: #cbaec2;
      }

      .cls-14 {
        fill: #64140e;
      }

      .cls-15 {
        fill: #4997c1;
      }

      .cls-16 {
        fill: #88d0eb;
      }

      .cls-17 {
        fill: #967660;
      }

      .cls-18 {
        fill: #93603e;
      }

      .cls-19 {
        fill: #d2aca1;
      }
    </style>
  </defs>
  <g>
    <path class="cls-5" d="M57.54,58.49c-.01.3-.03.61-.07.9-.1.84-.3,1.66-.58,2.44-.99,2.72-3.05,5.02-5.85,6.27l-.16.07c-3.17,1.42-6.56,2.16-9.95,2.24-.45.01-.9,0-1.35,0-3.4-.1-6.78-.86-9.95-2.29-2.8-1.27-4.86-3.6-5.83-6.34-.09-.27-.18-.54-.25-.81-.14-.52-.24-1.05-.3-1.59-.04-.32-.06-.64-.07-.97,0-.09,0-.18,0-.27,0-.81.09-1.64.28-2.46.67-2.9,1.55-5.52,2.34-7.57.45-1.18.88-2.18,1.22-2.94.03-.06.05-.12.08-.18.28-.61.49-1.05.61-1.29.07-.14.1-.21.1-.21h25.11s.04.08.12.23c.13.26.36.75.66,1.41.03.06.05.12.08.18.39.88.88,2.04,1.39,3.41.72,1.94,1.49,4.31,2.09,6.91.22.95.31,1.91.28,2.85"/>
    <path class="cls-12" d="M53.76,59.48c-2.13-3.56-2.26-8.08-2.26-9.05l.17.55c-.06.02-.1.08-.1.14.01.32.06.62.13.92.07.3.16.59.27.88.21.57.47,1.13.78,1.66.61,1.06,1.26,2.1,2.05,3.05.39.48.81.93,1.26,1.36.05.05.1.1.15.14-.12,0-.23.01-.35.02-.92.09-1.56.2-2.09.33M26.68,59.41c-.47-.1-1.03-.18-1.77-.26-.18-.02-.36-.03-.54-.03-.06,0-.12,0-.17,0,.05-.05.1-.09.15-.14.45-.43.87-.88,1.26-1.36.78-.95,1.44-1.99,2.05-3.05.3-.53.56-1.09.78-1.66.11-.29.2-.58.27-.88.07-.3.12-.6.13-.92,0-.05-.02-.1-.06-.12-.01,0-.03-.02-.04-.02l.17-.55c0,.97-.13,5.43-2.22,8.97"/>
    <path class="cls-14" d="M51.04,68.1h0,0M28.07,43.92c-.28.56-1.03,2.14-1.88,4.34-.97,2.52-1.75,5.05-2.32,7.52-1.13,4.86,1.37,9.89,5.94,11.95,6.63,3,14.25,3.02,20.9.05l.16-.07c4.6-2.05,7.12-7.09,5.98-11.98-.52-2.25-1.22-4.55-2.08-6.86-.94-2.53-1.81-4.34-2.11-4.96h-24.59M40.32,70.84c-3.71,0-7.41-.78-10.86-2.34-4.93-2.23-7.63-7.66-6.41-12.91.58-2.5,1.37-5.07,2.35-7.63,1.09-2.83,2-4.59,2.03-4.66.07-.14.22-.23.38-.23h25.11c.16,0,.3.09.38.23.01.02,1.09,2.09,2.27,5.28.87,2.34,1.58,4.68,2.11,6.96,1.23,5.28-1.49,10.73-6.46,12.95h0l-.16.07c-3.41,1.52-7.08,2.28-10.74,2.28"/>
    <path class="cls-7" d="M39.43,70.2c1.83.5,3.66.85,3.82,1.13.44.79-4.31,2.78-7.04,1.68l3.22-2.81"/>
    <path class="cls-14" d="M37.32,69.83h0,0M37.78,70.13c-.09,0-.16.02-.23.07h0c-1.07.68-1.83,1.48-1.79,1.91.02.23.34.41.6.51,2.25.9,5.73-.46,6.4-1.09-.36-.14-1.13-.33-1.78-.49-.51-.13-1.09-.27-1.66-.43-.32-.09-.59-.19-.83-.28-.35-.13-.55-.2-.71-.2M38.1,73.74c-.73,0-1.44-.1-2.05-.35-.7-.28-1.08-.69-1.13-1.22-.1-1.13,1.49-2.26,2.18-2.7.57-.36,1.11-.16,1.68.06.22.08.47.18.76.26.56.15,1.14.3,1.64.42,1.7.42,2.25.57,2.43.91.07.13.2.48-.17.89-.7.79-3.14,1.73-5.35,1.73"/>
    <path class="cls-7" d="M40.56,67.61c1.83.49,3.67.83,3.83,1.11.44.79-4.29,2.8-7.03,1.72l3.21-2.82"/>
    <path class="cls-14" d="M44.07,69h0M38.68,67.62c-1.07.68-1.82,1.49-1.78,1.92.02.23.34.41.6.51,2.26.89,5.73-.49,6.39-1.13-.36-.13-1.14-.32-1.78-.48-.51-.12-1.09-.26-1.66-.42-.32-.09-.59-.19-.83-.27-.54-.2-.74-.25-.93-.13M39.2,71.17c-.72,0-1.41-.1-2.01-.34-.7-.28-1.08-.69-1.13-1.21-.11-1.13,1.48-2.27,2.16-2.71.57-.36,1.11-.16,1.68.05.22.08.47.17.76.25.56.15,1.14.29,1.64.41,1.7.41,2.25.56,2.44.89.07.13.2.47-.17.9-.7.8-3.16,1.76-5.38,1.76"/>
    <path class="cls-7" d="M37.84,64.63c.55-.37,1.09.05,2.11.3,1.84.45,3.69.74,3.85,1.02.46.78-4.23,2.9-6.99,1.88-2.18-.8.22-2.66,1.03-3.2"/>
    <path class="cls-14" d="M37.84,64.63h0,0M38.31,64.91c-.09,0-.17.02-.24.07-1.05.71-1.78,1.53-1.73,1.96.03.23.35.4.61.5,2.28.84,5.72-.62,6.36-1.27-.36-.13-1.14-.29-1.79-.44-.51-.11-1.1-.24-1.67-.38-.33-.08-.6-.17-.84-.26-.34-.12-.54-.18-.7-.18M38.51,68.52c-.66,0-1.29-.09-1.84-.29-.71-.26-1.1-.66-1.16-1.19-.13-1.13,1.42-2.31,2.1-2.76.56-.38,1.1-.19,1.68,0,.22.08.48.16.77.23.57.14,1.14.26,1.65.38,1.71.37,2.26.51,2.46.84.08.13.21.47-.15.9-.7.84-3.25,1.88-5.51,1.88"/>
    <path class="cls-5" d="M38.29,72.56c-3.57,2.32-12.57,1.95-16.24-1.72-6.12-6.11-1.72-11.73,2.82-11.28,4.4.44,2.21,1.15,12.51,4.35,4.57,1.42,2.97,7.3.9,8.64"/>
    <path class="cls-5" d="M38.29,72.56c-3.57,2.32-12.57,1.95-16.24-1.72-6.12-6.11-1.72-11.73,2.82-11.28,4.4.44,2.21,1.15,12.51,4.35,4.57,1.42,2.97,7.3.9,8.64"/>
    <path class="cls-5" d="M38.29,72.56c-3.57,2.32-12.57,1.95-16.24-1.72-4.16-4.15-3.46-8.08-1.16-10.02,1.09-.92,2.53-1.4,3.98-1.25,3.61.36,2.79.9,8.05,2.85,1.16.43,2.61.92,4.47,1.5,4.57,1.42,2.97,7.3.9,8.64"/>
    <path class="cls-4" d="M38.34,65.36c-.28-.16-.6-.29-.95-.4-1.86-.58-3.31-1.07-4.47-1.5-5.26-1.94-4.44-2.49-8.05-2.85-.17-.02-.34-.03-.51-.03-1.28,0-2.51.47-3.47,1.28-.47.39-.87.87-1.18,1.41.06-.17.13-.35.21-.51.32-.68.8-1.26,1.38-1.71.51-.22,1.01-.49,1.47-.8.51-.18,1.05-.27,1.59-.27.15,0,.31,0,.47.02,2.08.21,2.59.46,3.83,1.06,1.32.65,3.32,1.63,8.61,3.27.69.21,1.2.53,1.59.9-.1.03-.21.05-.31.08-.07.02-.13.03-.2.05"/>
    <path class="cls-12" d="M31.88,73.6c-.54,0-1.08-.02-1.64-.07-3.4-.28-6.28-1.37-7.89-2.98-2.12-2.11-3.1-4.36-2.85-6.36.46,1.18,1.27,2.43,2.55,3.7,2.16,2.15,6.16,3.17,9.81,3.17,1.02,0,2.01-.08,2.93-.24.62.83,1.44,1.43,2.35,1.87-1.36.59-3.23.91-5.27.91"/>
    <path class="cls-14" d="M38.29,72.56h0,0M24.37,59.97c-1.86,0-3.64,1.1-4.44,2.79-1.1,2.32-.21,5.16,2.43,7.79,1.62,1.61,4.49,2.7,7.89,2.98,3.17.26,6.16-.24,7.81-1.32,1.08-.7,2.08-2.94,1.81-4.89-.14-1.04-.71-2.41-2.61-2.99-5.28-1.64-7.28-2.62-8.61-3.27-1.23-.61-1.74-.86-3.83-1.06-.16-.02-.31-.02-.47-.02M31.86,74.44c-.55,0-1.12-.02-1.68-.07-3.6-.3-6.67-1.47-8.42-3.22-4.13-4.12-3.19-7.49-2.59-8.75,1.01-2.15,3.38-3.48,5.76-3.24,2.23.22,2.86.53,4.11,1.14,1.3.64,3.26,1.6,8.48,3.22,1.81.56,2.94,1.87,3.19,3.68.33,2.36-.87,4.86-2.19,5.72-1.5.97-3.96,1.52-6.66,1.52"/>
    <path class="cls-5" d="M31.56,41.98l-.48,1.51-.91,2.89-1.48,4.7s-1.64,5.31-5.45,8.3c-1.23.97-2.69,1.69-4.4,1.92-11.56,1.5-7.76-7.17-7.76-7.17,0,0,5.67-.74,7.57-1.39,2.59-.88,3.74-4.88,7.54-7.96.46-.37.95-.73,1.49-1.06.11-.07.23-.14.34-.21,1.01-.59,2.16-1.11,3.51-1.51"/>
    <path class="cls-12" d="M16.04,61.04c-.07,0-.14,0-.22-.01-.29-.02-.58-.02-.86-.07-.14-.02-.28-.03-.43-.06l-.42-.09c-.05-.01-.1-.02-.15-.04.33-.07.55-.2.73-.39,1.12-1.13.31-3.12-.75-3.17.05-.26.05-.51,0-.72,0,0,0,0,0,0,0,0,0,0,0,0-.05-.17-.13-.31-.25-.42,0,0,0,0,0,0-.03-.03-.06-.05-.09-.08,0,0,0,0,0,0-.58-.55-.85-1.13-.98-1.65.18-.03.36-.05.54-.08.56.25,1.01.58,1.33.85.05.05.11.09.15.13.12.11.27.17.42.17.16,0,.33-.06.45-.19.01-.01.02-.02.03-.03.19-.19.4-.4.56-.52.31-.24.59-.43.82-.57.2-.12.31-.34.31-.55.03,0,.06-.01.09-.02.16-.04.32-.07.48-.11.3,1.41-1.9,2.08-1.9,3.4,0,1.41.65,1.92,1.86,2.18.5.11,1,.16,1.5.16,1.62,0,3.22-.54,4.52-1.56.01,0,.02-.02.03-.03,1.06-.83,1.91-1.7,2.58-2.51-.42.72-.91,1.4-1.43,2.04-.37.45-.76.88-1.19,1.28-.42.4-.87.76-1.34,1.09-.47.33-.98.6-1.5.83-.52.24-1.07.39-1.63.51l-.42.07c-.14.03-.29.03-.44.05l-.44.05-.22.02h-.22s-.44.04-.44.04c-.13,0-.26.02-.39.02-.02,0-.03,0-.05,0h-.44s-.22,0-.22,0"/>
    <path class="cls-14" d="M31.6,42.12c-.92.49-1.83.92-2.71,1.41-.88.49-1.71,1.05-2.5,1.67-.2.15-.38.32-.58.49-.18.17-.37.34-.55.52-.36.35-.7.73-1.03,1.11-.66.78-1.26,1.6-1.87,2.44-.3.42-.61.84-.95,1.26-.33.41-.69.82-1.1,1.19-.41.37-.9.69-1.45.89-.53.18-1.04.3-1.55.41-2.05.43-4.1.74-6.16,1.02l.33-.25c-.05.11-.1.26-.14.39-.05.13-.09.27-.13.41-.08.27-.14.55-.19.83-.09.56-.13,1.13-.07,1.67.06.55.22,1.07.49,1.52.27.45.67.82,1.13,1.1.46.28,1,.46,1.55.59l.42.09c.14.02.28.04.43.06.28.05.57.05.86.07.07,0,.14.01.22.01h.22s.44,0,.44,0c.15,0,.29,0,.44-.02l.44-.03h.22s.22-.04.22-.04l.44-.05c.14-.02.3-.03.44-.05l.42-.07c.56-.12,1.11-.27,1.63-.51.52-.23,1.03-.5,1.5-.83.47-.32.93-.68,1.34-1.09.42-.4.82-.82,1.19-1.28.74-.9,1.39-1.89,1.92-2.94l.8-1.57c.14-.26.27-.52.42-.78.15-.26.3-.52.47-.77h0c.05-.07.14-.09.2-.04.04.03.06.08.06.12-.01.32-.06.62-.13.92-.07.3-.16.59-.27.88-.21.57-.47,1.13-.78,1.66-.61,1.06-1.26,2.1-2.05,3.05-.39.48-.81.93-1.26,1.36-.45.43-.93.82-1.45,1.17-1.03.71-2.2,1.22-3.44,1.46l-.47.08c-.16.03-.3.04-.46.05l-.46.05-.23.02h-.23s-.46.04-.46.04c-.15,0-.31.02-.46.02h-.46s-.23,0-.23,0c-.08,0-.15,0-.23-.01-.31-.02-.62-.03-.93-.08-.15-.02-.31-.04-.46-.06l-.46-.1c-.61-.15-1.23-.35-1.79-.69-.56-.34-1.07-.81-1.41-1.39-.35-.58-.54-1.23-.61-1.87-.07-.65-.03-1.29.08-1.91.05-.31.12-.62.21-.92.04-.15.09-.3.14-.45.05-.15.1-.29.17-.45.06-.14.19-.23.32-.25h0c2.04-.28,4.09-.59,6.09-1.01.49-.11,1-.23,1.45-.38.42-.15.82-.41,1.18-.73.36-.32.69-.69,1-1.08.32-.39.62-.81.92-1.22.61-.84,1.22-1.69,1.9-2.49.69-.8,1.42-1.57,2.24-2.26.81-.69,1.71-1.29,2.66-1.76.95-.47,1.98-.81,3.03-.92.08,0,.15.05.16.13,0,.06-.03.11-.08.14h0"/>
    <path class="cls-7" d="M15.5,55.22c-.24.24-.62.25-.87.02-.59-.54-1.76-1.38-3.34-1.41-1.26-.02.91-2.08,2.89-1.92,1.32.11,2.26.69,2.82,1.16.33.28.28.79-.08,1.01-.23.14-.51.33-.82.57-.17.13-.4.35-.59.56"/>
    <path class="cls-8" d="M15.06,55.41c-.15,0-.3-.06-.42-.17-.05-.04-.1-.09-.15-.13.05.05.1.09.15.13.12.11.27.17.42.17.16,0,.33-.06.45-.19.01-.01.02-.02.03-.03-.01.01-.02.02-.03.03-.12.13-.28.19-.45.19"/>
    <path class="cls-15" d="M11.07,53.25c.13-.18.34-.37.6-.56h0c-.26.19-.47.38-.61.56,0,0,0,0,0,0"/>
    <path class="cls-14" d="M17.18,53.33c-.04-.09-.09-.18-.18-.25,0,0-.02-.01-.02-.02,0,0,.02.01.02.02.08.07.14.15.18.25"/>
    <path class="cls-13" d="M15.06,55.41c-.15,0-.3-.06-.42-.17-.05-.04-.1-.09-.15-.13-.43-.37-1.09-.82-1.94-1.08-.11-.58-.08-1.05-.2-1.26,1.17.23,2.04.88,2.53,1.32.12.11.27.17.42.17.16,0,.33-.06.45-.19.2-.2.42-.42.59-.56.24-.18.45-.34.64-.46,0,0,0,0,0,0,0,0,.02.01.02.02.08.07.14.15.18.25.11.27.01.6-.26.77-.23.14-.51.33-.82.57-.16.13-.37.33-.56.52-.01.01-.02.02-.03.03-.12.13-.28.19-.45.19M11.07,53.25c.13-.18.34-.37.61-.56.06,0,.13,0,.19.01-.23.08-.52.27-.8.54"/>
    <path class="cls-14" d="M11.48,53.42c1.68.09,2.9,1.01,3.49,1.56.05.05.14.05.19,0,.28-.29.51-.51.68-.64.32-.25.63-.46.94-.65.05-.03.07-.08.07-.11,0-.03,0-.07-.04-.11-.52-.46-1.4-1.03-2.66-1.13-1.14-.1-2.28.66-2.67,1.08h0ZM15.06,55.86c-.24,0-.48-.09-.67-.26-.52-.49-1.62-1.31-3.1-1.34-.44,0-.63-.2-.72-.36-.09-.17-.14-.44.11-.82.49-.74,2.08-1.7,3.54-1.58,1.49.12,2.53.8,3.15,1.34.24.21.36.51.33.82-.03.31-.21.6-.48.76-.28.16-.56.36-.85.58-.14.11-.34.3-.59.56-.19.2-.45.3-.71.3h0Z"/>
    <path class="cls-7" d="M12.92,58.86s-1.91.54-2.6-1.72c-.96-3.1,1.38-4.64,1.89-4.48.51.17-.2,1.93,1.47,3.41.62.55.24,1.98-.76,2.78"/>
    <path class="cls-8" d="M13.95,57.22h0c.05-.26.05-.51,0-.72.06.21.06.46,0,.72M13.94,56.49s0,0,0,0c0,0,0,0,0,0M13.68,56.07s-.06-.05-.09-.08c0,0,0,0,0,0,.03.03.06.05.09.08"/>
    <path class="cls-13" d="M11.35,57.53c-.18,0-.36,0-.57-.01-.11,0-.22-.01-.33-.02-.05-.11-.09-.23-.13-.36-.3-.96-.28-1.78-.09-2.44.03.11.06.21.09.33.47,1.53,1.5,1.77,2.11,1.77.29,0,.49-.06.49-.06.27-.22.5-.48.67-.76.03.03.06.05.09.08,0,0,0,0,0,0,.12.11.21.25.25.42,0,0,0,0,0,0,0,0,0,0,0,0,.06.21.06.46,0,.72-.02,0-.03,0-.05,0-.44,0-.93.32-2.55.32"/>
    <path class="cls-14" d="M12,53.11c-.21.08-.58.32-.92.78-.43.59-.83,1.6-.36,3.13.5,1.61,1.66,1.52,2,1.45.48-.42.82-1.06.83-1.59,0-.13-.01-.36-.16-.49-1.19-1.06-1.3-2.25-1.37-2.97,0-.1-.02-.22-.03-.32h0ZM12.92,58.86h0,0ZM12.42,59.34c-.85,0-2-.43-2.51-2.08-.74-2.4.37-3.83.88-4.33.41-.41,1.07-.83,1.55-.67.45.15.49.62.54,1.08.06.67.15,1.58,1.09,2.41.3.26.45.67.44,1.15-.02.81-.5,1.71-1.22,2.29-.04.04-.1.06-.15.08-.17.05-.38.08-.61.08h0Z"/>
    <path class="cls-7" d="M14.7,60.39c-.38.38-.93.57-2.29.32-2.78-.51-4.86-2.44-4.19-3.15.45-.48,1.39-.08,2.57-.04,2.08.08,2.63-.3,3.12-.3,1.08,0,1.94,2.02.8,3.17"/>
    <path class="cls-15" d="M11.51,60.49c-1.49-.45-2.67-1.27-3.17-1.97.5.7,1.68,1.52,3.17,1.97,0,0,0,0,0,0"/>
    <path class="cls-14" d="M11.87,60.59c-.12-.03-.24-.06-.36-.1,0,0,0,0,0,0,.12.04.24.07.36.1"/>
    <path class="cls-13" d="M13.47,60.82c-.29,0-.64-.04-1.06-.11-.18-.03-.36-.07-.53-.12-.12-.03-.24-.06-.36-.1-1.49-.45-2.67-1.27-3.17-1.97-.25-.36-.33-.68-.17-.91.74.74,2.12,1.53,3.75,1.82.43.08.78.11,1.06.11.63,0,.97-.17,1.23-.43.41-.41.56-.94.54-1.45.56.66.75,1.91-.06,2.72-.26.26-.6.43-1.23.43"/>
    <path class="cls-14" d="M14.7,60.39h0,0ZM8.9,57.74c-.17,0-.31.03-.38.1-.03.03,0,.11,0,.14.23.7,1.85,1.92,3.95,2.3,1.34.24,1.69.03,1.92-.2h0c.52-.53.47-1.27.28-1.74-.18-.43-.49-.71-.77-.71-.1,0-.23.03-.41.07-.49.12-1.22.29-2.72.23-.4-.02-.78-.07-1.1-.12-.29-.04-.55-.08-.76-.08h0ZM13.46,61.24c-.33,0-.7-.04-1.13-.12-2.33-.42-4.26-1.83-4.6-2.87-.13-.38-.06-.73.18-.99.46-.49,1.15-.39,1.88-.28.32.05.66.1,1.01.11,1.38.06,2.05-.1,2.49-.21.22-.05.41-.1.61-.1.64,0,1.24.47,1.55,1.23.39.94.21,1.99-.46,2.66h0c-.37.38-.85.56-1.54.56h0Z"/>
    <path class="cls-7" d="M44.11,73.33s-7.2.69-9.36-3.37c-2.28-4.29,4.82-3.66,7.64-5.61l1.71,8.98"/>
    <path class="cls-13" d="M42.27,72.93c-2.19-.08-5.78-.62-7.14-3.16.69.3,1.4.44,2.1.44,1.04,0,2.05-.31,2.92-.86.33,1.58,1.18,2.97,2.1,3.57,0,0,.01,0,.02.01"/>
    <path class="cls-14" d="M42.09,65.02c-.95.5-2.17.81-3.35,1.11-1.72.44-3.49.89-3.91,1.85-.2.45-.1,1.04.29,1.79,1.69,3.19,6.89,3.24,8.48,3.17l-1.51-7.92M42.87,73.8c-2.24,0-6.78-.42-8.49-3.64-.53-.99-.63-1.82-.32-2.53.59-1.33,2.48-1.81,4.48-2.32,1.35-.34,2.74-.7,3.62-1.31.12-.08.27-.1.4-.04.13.05.23.17.26.31l1.71,8.98c.02.12,0,.24-.08.33-.07.1-.18.16-.3.17-.07,0-.56.05-1.28.05"/>
    <path class="cls-5" d="M42.48,72.56c3.57,2.32,12.57,1.95,16.24-1.72,6.12-6.11,1.72-11.73-2.82-11.28-4.4.44-2.21,1.15-12.51,4.35-4.57,1.42-2.97,7.3-.9,8.64"/>
    <path class="cls-5" d="M42.48,72.56c3.57,2.32,12.57,1.95,16.24-1.72,6.12-6.11,1.72-11.73-2.82-11.28-4.4.44-2.21,1.15-12.51,4.35-4.57,1.42-2.97,7.3-.9,8.64"/>
    <path class="cls-5" d="M42.48,72.56c3.57,2.32,12.57,1.95,16.24-1.72,6.12-6.11,1.72-11.73-2.82-11.28-4.4.44-2.21,1.15-12.51,4.35-4.57,1.42-2.97,7.3-.9,8.64"/>
    <path class="cls-4" d="M40.96,66.98c.22-.98.85-2.13,2.54-2.66,5.28-1.64,7.28-2.62,8.61-3.27,1.23-.61,1.74-.86,3.83-1.06.16-.02.31-.02.47-.02.33,0,.66.03.97.1.04.03.08.06.12.08.7.48,1.47.87,2.27,1.15.44.41.81.9,1.07,1.45.14.29.24.58.32.88-.9-1.77-2.78-2.89-4.75-2.89-.17,0-.34,0-.51.03-4.4.44-2.21,1.15-12.51,4.35-1.19.37-1.97,1.04-2.42,1.86"/>
    <path class="cls-12" d="M48.89,73.6c-2.53,0-4.81-.5-6.18-1.39-1.07-.7-2.07-2.92-1.81-4.87.38.98.96,1.79,1.58,2.19,1.47.96,3.86,1.45,6.42,1.45,3.66,0,7.66-1.02,9.82-3.17,1.27-1.27,2.08-2.51,2.54-3.68.28,2.01-.71,4.28-2.84,6.41-1.62,1.61-4.49,2.7-7.89,2.98-.55.05-1.1.07-1.64.07"/>
    <path class="cls-14" d="M42.71,72.21c1.65,1.08,4.65,1.58,7.81,1.32,3.4-.28,6.28-1.37,7.89-2.98,2.64-2.63,3.52-5.47,2.43-7.79-.86-1.83-2.88-2.96-4.91-2.76-2.08.21-2.59.46-3.83,1.06-1.32.65-3.32,1.63-8.61,3.27-1.89.59-2.46,1.95-2.61,2.99-.27,1.95.73,4.19,1.81,4.89M48.91,74.44c-2.71,0-5.16-.55-6.66-1.52-1.32-.86-2.51-3.36-2.19-5.72.25-1.82,1.39-3.12,3.19-3.68,5.22-1.62,7.18-2.58,8.48-3.22,1.25-.61,1.88-.92,4.11-1.14,2.38-.24,4.74,1.1,5.76,3.24.6,1.26,1.54,4.63-2.59,8.75-1.75,1.75-4.82,2.93-8.42,3.22-.57.05-1.13.07-1.68.07"/>
    <path class="cls-5" d="M48.84,41.98l.48,1.51.91,2.89,1.48,4.7s1.64,5.31,5.45,8.3c1.23.97,2.69,1.69,4.4,1.92,11.56,1.5,7.76-7.17,7.76-7.17,0,0-5.67-.74-7.57-1.39-2.59-.88-3.74-4.88-7.54-7.96-.46-.37-.95-.73-1.49-1.06-.11-.07-.23-.14-.34-.21-1-.59-2.16-1.11-3.51-1.51"/>
    <path class="cls-12" d="M64.36,61.04h-.22s-.44,0-.44,0c-.02,0-.03,0-.05,0-.13,0-.26,0-.39-.02l-.44-.03h-.22s-.22-.04-.22-.04l-.44-.05c-.14-.02-.3-.03-.44-.05l-.42-.07c-.56-.12-1.11-.27-1.63-.51-.52-.23-1.03-.5-1.5-.83-.47-.32-.93-.68-1.34-1.09-.42-.4-.82-.82-1.19-1.28-.52-.64-1.01-1.32-1.43-2.04.67.81,1.52,1.67,2.58,2.51.01,0,.02.02.03.03,1.3,1.01,2.89,1.56,4.52,1.56.5,0,1-.05,1.5-.16.63-.14,1.12-.34,1.43-.71.21.31.5.59.84.83.24.65.62,1.25,1.11,1.76l-.16.03c-.14.02-.28.04-.43.06-.28.05-.57.05-.86.07-.07,0-.14.01-.22.01M68.63,59.57s-.06-.02-.09-.03c.95-.71.91-2.59.76-3.81-.02-.15-.04-.29-.06-.42.05.2.09.41.13.62.09.56.13,1.13.07,1.67-.06.55-.22,1.07-.49,1.52-.1.16-.21.31-.33.45M64.31,56.12c-.54-.91-1.94-1.57-1.7-2.71.04,0,.07.02.11.02,0,.07-.01.15,0,.22.03.31.21.6.48.76.28.16.56.36.85.58.14.11.34.3.59.56h0c.05.05.11.1.16.14-.18.13-.35.28-.49.43"/>
    <path class="cls-14" d="M48.88,41.85c1.06.11,2.08.45,3.03.92.96.47,1.85,1.07,2.66,1.76.82.69,1.55,1.46,2.24,2.26.68.81,1.3,1.66,1.9,2.49.3.42.61.83.92,1.22.32.39.64.77,1,1.08.36.32.75.58,1.18.73.45.16.95.27,1.45.38,2,.42,4.05.73,6.09,1.01h0c.15.02.27.12.33.25.07.16.12.3.17.45.05.15.1.3.14.45.09.3.15.61.21.92.1.62.15,1.26.08,1.91-.07.64-.26,1.29-.61,1.87-.35.58-.85,1.05-1.41,1.39-.56.34-1.18.55-1.79.69l-.46.1c-.15.03-.31.04-.46.06-.31.05-.62.06-.93.08-.08,0-.15.01-.23.01h-.23s-.46,0-.46,0c-.15,0-.31,0-.46-.02l-.46-.03h-.23s-.23-.04-.23-.04l-.46-.05c-.15-.02-.3-.03-.46-.05l-.47-.08c-1.24-.24-2.41-.76-3.44-1.46-.51-.35-1-.74-1.45-1.17-.45-.43-.87-.88-1.26-1.36-.78-.95-1.44-1.99-2.05-3.05-.3-.53-.56-1.09-.78-1.66-.11-.29-.2-.58-.27-.88-.07-.3-.12-.6-.13-.92,0-.08.06-.15.14-.15.05,0,.1.02.12.06h0c.17.26.33.51.47.77.15.26.29.52.42.78l.8,1.57c.53,1.05,1.18,2.03,1.92,2.94.37.45.76.88,1.19,1.28.42.4.87.76,1.34,1.09.47.33.98.6,1.5.83.52.24,1.07.39,1.63.51l.42.07c.14.03.29.03.44.05l.44.05.22.02h.22s.44.04.44.04c.15,0,.29.02.44.02h.44s.22,0,.22,0c.07,0,.14,0,.22-.01.29-.02.58-.02.86-.07.14-.02.29-.03.43-.06l.42-.09c.55-.13,1.08-.31,1.55-.59.46-.28.86-.65,1.13-1.1.27-.45.43-.98.49-1.52.06-.55.02-1.11-.07-1.67-.05-.28-.11-.56-.19-.83-.04-.14-.08-.27-.13-.41-.04-.13-.1-.27-.14-.39l.33.25c-2.06-.28-4.11-.59-6.16-1.02-.51-.12-1.02-.23-1.55-.41-.55-.2-1.04-.53-1.45-.89-.42-.37-.77-.78-1.1-1.19-.33-.41-.64-.84-.95-1.26-.61-.84-1.21-1.67-1.87-2.44-.33-.38-.67-.76-1.03-1.11-.18-.18-.37-.35-.55-.52-.19-.16-.38-.33-.58-.49-.79-.63-1.62-1.18-2.5-1.67-.88-.49-1.79-.92-2.71-1.41h0c-.07-.04-.1-.13-.06-.19.03-.05.09-.08.14-.08"/>
    <path class="cls-7" d="M64.9,55.22c.24.24.62.25.87.02.59-.54,1.76-1.38,3.34-1.41,1.26-.02-.91-2.08-2.89-1.92-1.32.11-2.26.69-2.82,1.16-.33.28-.28.79.08,1.01.23.14.51.33.82.57.17.13.4.35.59.56"/>
    <path class="cls-13" d="M65.23,54.96c-.27-.28-.5-.49-.67-.63-.32-.25-.63-.46-.94-.65-.05-.03-.07-.08-.07-.11,0-.03,0-.07.04-.11.06-.05.13-.11.2-.17.09.06.18.13.28.21.17.13.4.35.59.56.12.13.28.19.45.19.15,0,.3-.06.42-.17.31-.28.78-.65,1.39-.94-.71.45-1.29,1.07-1.7,1.81"/>
    <path class="cls-14" d="M65.24,54.97c.05.05.14.06.19,0,.59-.55,1.81-1.47,3.49-1.56-.39-.43-1.53-1.18-2.67-1.08-1.26.1-2.14.67-2.66,1.13-.04.04-.05.08-.04.11,0,.03.02.08.07.11.31.18.63.4.94.65.17.13.4.35.68.64M65.34,55.86c-.26,0-.52-.1-.71-.3h0c-.25-.26-.45-.45-.59-.56-.29-.22-.57-.42-.85-.58-.27-.16-.45-.44-.48-.76-.03-.31.09-.62.33-.82.61-.54,1.66-1.21,3.15-1.34,1.46-.12,3.05.84,3.54,1.58.25.38.2.65.11.82-.09.16-.28.36-.72.36-1.49.03-2.58.85-3.1,1.34-.19.18-.43.26-.67.26"/>
    <path class="cls-12" d="M40.52,47.78c-3.75,0-7.27-.46-10.34-1.4h0l.64-2.03c2.92.81,6.21,1.21,9.71,1.21h.12c3.21,0,6.26-.35,8.99-1.04l.59,1.86.06.19c-2.9.8-6.17,1.2-9.64,1.21h-.13"/>
    <path class="cls-12" d="M30.18,46.39c-1.12-.34-2.17-.74-3.16-1.21-.12-.06-.24-.12-.36-.18.64-.49,1.32-.94,2.02-1.34.69.26,1.4.49,2.14.7l-.64,2.03"/>
    <path class="cls-14" d="M26.66,45c-.15-.07-.3-.15-.44-.23.46-.37.95-.73,1.49-1.06.07-.14.1-.21.1-.21h.24s.06-.04.1-.05c.02,0,.04.02.06.03.15.06.31.12.46.18-.7.41-1.38.85-2.02,1.34"/>
    <path class="cls-12" d="M50.28,46.57l-.06-.19-.59-1.86c.82-.2,1.6-.44,2.36-.71.7.42,1.38.88,2.02,1.39,0,0,0,0,0,0-.08.04-.16.07-.23.11-1.01.45-2.08.84-3.22,1.17-.09.03-.19.05-.28.08"/>
    <path class="cls-14" d="M54.02,45.21s0,0,0,0c-.64-.51-1.32-.97-2.02-1.39.29-.1.57-.21.84-.31h.09s.04.08.12.23c.59.37,1.12.76,1.61,1.17-.21.11-.42.21-.64.31"/>
    <path class="cls-5" d="M62.18,31.13c.03,9.76-9.62,14.4-21.54,14.43-11.92.03-21.59-4.56-21.61-14.31-.02-9.35,6.02-20.05,19.7-20.95,1.65-.85,3.89-2.32,5.15-4.48.39-.68,1.39-.58,1.65.16.33.99.64,2.29-.02,3.97,1.83-.89,3.65-1.91,4.24-2.45.64-.58,1.66-.11,1.63.75-.03.83-.32,2.6-.67,4.08,7.85,3.69,11.45,11.63,11.47,18.81"/>
    <path class="cls-15" d="M27.53,43.19c-2.02-.89-3.75-2.04-5.12-3.45,1.37,1.41,3.11,2.56,5.12,3.45h0"/>
    <path class="cls-14" d="M27.63,43.23s-.07-.03-.1-.04h0s.07.03.1.04h0"/>
    <path class="cls-14" d="M28.15,43.45c-.18-.07-.35-.14-.52-.22h0c.17.07.34.15.52.22h0"/>
    <path class="cls-14" d="M28.21,43.47s-.04-.02-.06-.03h0s.04.02.06.03"/>
    <path class="cls-15" d="M55.17,42.41c3.74-2.05,6.27-5.13,6.87-9.27,0,0,0,0,0,0,0,0,0,0,0-.01,0,0,0,0,0,0,0,0,0,0,0,0,0,0,0-.01,0-.02,0,0,0,0,0,0,0,0,0,0,0-.01t0,0c.07-.48.11-.97.12-1.47h0s0-.04,0-.06h0s0-.01,0-.02h0s0-.02,0-.03h0s0-.01,0-.01c0,0,0,0,0,0h0s0-.01,0-.02c0,0,0-.01,0-.02,0,0,0,0,0,0h0s0-.01,0-.02h0s0-.02,0-.02c0,0,0,0,0,0h0s0-.01,0-.02h0s0-.01,0-.02v-.02s0,0,0,0h0v-.02s0,0,0-.01h0s0-.02,0-.02h0v-.02h0v-.02s0,0,0,0v-.02h0v-.02h0v-.02h0v-.02h0v-.02h0v-.02c0-.33,0-.66-.03-.99.02.33.02.66.03.99.01,5.17-2.69,8.91-7.01,11.28M22.4,39.73s0,0,0,0c0,0,0,0,0,0M22.37,39.71s0,0,0,0c0,0,0,0,0,0M19.35,34.15s0,0,0,0c0,0,0,0,0,0M19.35,34.14s0,0,0,0c0,0,0,0,0,0M19.35,34.13s0,0,0,0c0,0,0,0,0,0M19.35,34.12c-.2-.9-.31-1.86-.31-2.88,0-.31,0-.62.02-.93-.01.31-.02.62-.02.93,0,1.02.11,1.98.31,2.88"/>
    <path class="cls-12" d="M40.52,45.56c-4.58,0-8.82-.68-12.31-2.09-.02,0-.04-.02-.06-.03-.18-.07-.35-.14-.52-.22-.03-.01-.07-.03-.1-.04-2.02-.89-3.75-2.04-5.12-3.45,0,0,0,0,0,0,0,0,0,0,0,0,0,0-.02-.02-.02-.02,0,0,0,0,0,0-1.48-1.54-2.53-3.38-3.02-5.55,0,0,0,0,0,0,0,0,0,0,0,0,0,0,0,0,0,0,0,0,0,0,0,0,0,0,0,0,0,0,0,0,0,0,0,0-.2-.9-.31-1.86-.31-2.88,0-.31,0-.62.02-.93,0-.09,0-.17.01-.26.58,9.12,9.96,13.44,21.46,13.44h.12c10.36-.03,19-3.54,21.07-10.87,0,.02,0,.05,0,.07,0,1.04-.1,2.01-.31,2.93.3-.78.51-1.62.64-2.5-.6,4.14-3.13,7.22-6.87,9.27-3.83,2.1-8.93,3.14-14.53,3.15h-.12M62.04,33.13s0,0,0-.01c0,0,0,0,0,.01M62.04,33.12s0,0,0,0c0,0,0,0,0,0M62.05,33.09s0,0,0,0c0,0,0,0,0,0M62.05,33.07s0,0,0,0t0,0M62.17,31.6h0s0,0,0,0M62.18,31.54h0s0,0,0,0M62.18,31.53h0s0,0,0,0M62.18,31.5h0s0,0,0,0M62.18,31.49s0,0,0,0c0,0,0,0,0,0M62.18,31.47s0,0,0,0c0,0,0,0,0,0M62.18,31.45s0,0,0,0c0,0,0,0,0,0M62.18,31.43s0,0,0,0c0,0,0,0,0,0M62.18,31.42s0,0,0-.01c0,0,0,0,0,.01M62.18,31.39h0s0,0,0,0M62.18,31.38h0s0,0,0,0M62.18,31.36v-.02.02M62.18,31.34h0s0,0,0,0M62.18,31.32s0,0,0-.01c0,0,0,0,0,.01M62.18,31.3s0-.01,0-.02c0,0,0,.01,0,.02M62.18,31.28h0s0,0,0,0M62.18,31.26h0s0,0,0,0M62.18,31.25v-.02.02M62.18,31.22h0s0,0,0,0M62.18,31.21v-.02.02M62.18,31.19v-.02.02M62.18,31.17h0s0,0,0,0M62.18,31.15v-.02c0-.33,0-.66-.03-.99h0c.02.33.02.66.03.99v.02"/>
    <path class="cls-16" d="M20.08,24.45s0,0,0,0c0,0,0,0,0,0M20.08,24.44c2.22-6.99,8.05-13.25,18.13-14.11-10.08.86-15.91,7.12-18.13,14.11M38.21,10.33s.05,0,.08,0c-.03,0-.05,0-.08,0M38.29,10.33s.04,0,.06,0c-.02,0-.04,0-.06,0M38.35,10.32s.01,0,.02,0c0,0-.01,0-.02,0M38.37,10.32s.04,0,.06,0c-.02,0-.04,0-.06,0M38.43,10.31s.01,0,.02,0c0,0-.01,0-.02,0M38.45,10.31s.01,0,.02,0c0,0-.01,0-.02,0M38.47,10.31s.03,0,.04,0c-.01,0-.03,0-.04,0M38.51,10.31s.01,0,.01,0c0,0,0,0-.01,0M38.53,10.31s0,0,.01,0c0,0,0,0-.01,0M38.55,10.31s.03,0,.04,0c-.01,0-.02,0-.04,0M38.59,10.3s0,0,.01,0c0,0,0,0-.01,0M38.61,10.3s0,0,.01,0c0,0,0,0-.01,0M38.63,10.3s.02,0,.04,0c-.01,0-.03,0-.04,0M38.68,10.3s0,0,.01,0c0,0,0,0-.01,0M38.69,10.3s0,0,.01,0c0,0,0,0-.01,0M38.71,10.29s.01,0,.02,0c0,0-.01,0-.02,0"/>
    <path class="cls-6" d="M61.71,32.63c-.04-6.73-3.74-14.52-10.69-18.48-.79-.45-1.21-1.36-1.01-2.25.22-1.01.4-1.95.42-2.5.02-.49-.15-.72-.42-.72-.2,0-.46.13-.74.38-.47.42-1.68,1.13-3.06,1.85-.09.05-.18.07-.27.07-.34,0-.64-.3-.58-.67.17-1.12-.06-2.03-.31-2.77-.13-.38-.3-.62-.52-.62s-.46.21-.75.72c-.83,1.45-2.28,2.47-3.64,3.23-1.09.61-2.29.99-3.53,1.15-9.21,1.19-14.66,7.03-16.88,13.6.1-.39.21-.78.34-1.17,0,0,0,0,0,0,0,0,0,0,0,0,2.22-6.99,8.05-13.25,18.13-14.11,0,0,0,0,0,0,.03,0,.05,0,.08,0,0,0,0,0,0,0,.02,0,.04,0,.06,0,0,0,0,0,0,0,0,0,.01,0,.02,0,0,0,0,0,0,0,.02,0,.04,0,.06,0,0,0,0,0,0,0,0,0,.01,0,.02,0,0,0,0,0,0,0,0,0,.01,0,.02,0,0,0,0,0,0,0,.01,0,.03,0,.04,0,0,0,0,0,0,0,0,0,0,0,.01,0,0,0,0,0,0,0,0,0,0,0,.01,0,0,0,0,0,0,0,.01,0,.02,0,.04,0,0,0,0,0,0,0,0,0,0,0,.01,0,0,0,0,0,0,0,0,0,0,0,.01,0,0,0,0,0,0,0,.01,0,.02,0,.04,0,0,0,0,0,0,0,0,0,0,0,.01,0,0,0,0,0,0,0,0,0,0,0,.01,0,0,0,0,0,0,0,0,0,.01,0,.02,0h0c1.65-.85,3.89-2.32,5.15-4.48.18-.31.48-.46.79-.46.36,0,.72.21.86.62.19.56.37,1.22.37,1.99,0,.59-.1,1.25-.39,1.98h0c1.83-.89,3.65-1.91,4.24-2.45.2-.18.43-.25.65-.25.5,0,.98.39.98.97,0,.01,0,.02,0,.03-.03.83-.32,2.6-.67,4.08h0c7.49,3.52,11.11,10.91,11.45,17.82,0-.03,0-.06,0-.09-.06.91-.21,1.77-.44,2.58"/>
    <path class="cls-11" d="M62.04,33.14s0,0,0,0c0,0,0,0,0,0M62.04,33.12s0,0,0,0c0,0,0,0,0,0M62.05,33.11s0-.01,0-.02c0,0,0,.01,0,.02M62.05,33.09s0,0,0-.01c0,0,0,0,0,.01M62.05,33.07c.07-.48.11-.97.12-1.47-.01.51-.06,1-.12,1.47M62.17,31.6s0-.04,0-.05c0,.02,0,.04,0,.05M62.18,31.54s0,0,0-.01c0,0,0,0,0,.01M62.18,31.53s0-.02,0-.02c0,0,0,.02,0,.02M62.18,31.5s0,0,0-.01c0,0,0,0,0,.01M62.18,31.48h0s0,0,0,0M62.18,31.47s0-.01,0-.02c0,0,0,.01,0,.02M62.18,31.44h0s0,0,0,0M62.18,31.42h0s0,0,0,0M62.18,31.4s0,0,0,0c0,0,0,0,0,0M62.18,31.38s0,0,0,0c0,0,0,0,0,0M62.18,31.37s0,0,0,0c0,0,0,0,0,0M62.18,31.34s0,0,0,0c0,0,0,0,0,0M62.18,31.33h0s0,0,0,0M62.18,31.31h0s0,0,0,0M62.18,31.29h0s0,0,0,0M62.18,31.27h0s0,0,0,0M62.18,31.25s0,0,0,0c0,0,0,0,0,0M62.18,31.23h0s0,0,0,0M62.18,31.21h0s0,0,0,0M62.18,31.19h0s0,0,0,0M62.18,31.17h0s0,0,0,0M62.18,31.15h0s0,0,0,0"/>
    <path class="cls-19" d="M61.4,35.63c.21-.92.31-1.9.31-2.93,0-.02,0-.05,0-.07.23-.81.38-1.67.44-2.58,0,.03,0,.06,0,.09.02.33.02.66.03.99v.02h0v.02h0v.02h0v.02h0v.02h0v.02s0,0,0,0h0v.02h0v.02s0,.01,0,.02h0s0,.01,0,.02h0v.02s0,0,0,0v.02s0,0,0,0h0s0,.02,0,.02h0s0,.02,0,.02c0,0,0,0,0,.01h0s0,.01,0,.02h0s0,.01,0,.02c0,0,0,.01,0,.02,0,0,0,0,0,0h0s0,.01,0,.02c0,0,0,0,0,.01h0s0,.02,0,.03h0s0,.01,0,.01h0s0,.04,0,.06h0c-.01.51-.06,1-.12,1.47,0,0,0,0,0,0,0,0,0,0,0,.01,0,0,0,0,0,0,0,0,0,.01,0,.02,0,0,0,0,0,0,0,0,0,0,0,0,0,0,0,0,0,.01,0,0,0,0,0,0-.13.88-.34,1.71-.64,2.5"/>
    <path class="cls-2" d="M57.92,29.82c0,2.84-.85,5.91-3.42,8.28-2.63,2.43-7.06,4.13-14.21,4.15h0c-7.08.02-11.5-1.63-14.15-4-2.65-2.37-3.54-5.46-3.55-8.34,0-.58.04-1.16.14-1.72.8-4.93,5.08-8.71,10.24-8.72,2.82,0,5.39,1.11,7.27,2.93,1.87-1.83,4.43-2.96,7.25-2.97,5.1-.01,9.35,3.64,10.26,8.48h0c.12.62.18,1.25.18,1.9"/>
    <path class="cls-14" d="M42.89,30.5c0,.89-1.17,1.95-2.63,1.96-1.46,0-2.64-1.06-2.64-1.94,0-.89,1.18-1.26,2.63-1.26,1.46,0,2.64.36,2.64,1.25"/>
    <path class="cls-9" d="M40.32,30.48c-.59,0-1.07-.25-1.07-.45,0-.21.48-.3,1.07-.3h.02c.59,0,1.06.09,1.06.29,0,.21-.48.46-1.07.46h0"/>
    <path class="cls-14" d="M30.62,44.37c-1.03-.15-2.04-.42-3.02-.79-.98-.36-1.93-.83-2.83-1.39-.44-.28-.88-.58-1.3-.91-.42-.32-.82-.68-1.2-1.05-.38-.37-.74-.77-1.07-1.19-.33-.42-.64-.86-.91-1.32-.27-.46-.52-.94-.73-1.43-.11-.24-.2-.5-.29-.75-.05-.13-.08-.25-.12-.38-.04-.13-.08-.25-.11-.39l-.1-.39c-.03-.13-.06-.26-.09-.39-.06-.26-.1-.53-.14-.79-.07-.53-.12-1.06-.14-1.59-.04-2.11.2-4.22.74-6.26.54-2.03,1.36-4,2.46-5.8.55-.9,1.16-1.76,1.85-2.57.69-.8,1.43-1.55,2.24-2.24.8-.7,1.67-1.3,2.57-1.84.45-.28.92-.52,1.39-.76.48-.22.95-.46,1.44-.64,1.95-.8,4.02-1.27,6.1-1.5.23-.03.44.14.47.37.03.23-.13.43-.36.47h-.01s-.75.12-.75.12l-.38.06-.37.07-.74.15-.73.18-.37.09-.36.11c-.24.07-.48.14-.72.22-.47.17-.95.33-1.41.53-.47.18-.92.41-1.37.63-.44.24-.89.47-1.31.74-.85.53-1.67,1.11-2.43,1.77-.76.65-1.47,1.37-2.12,2.13-.65.77-1.23,1.59-1.75,2.45-1.05,1.71-1.82,3.59-2.34,5.54-.53,1.94-.77,3.97-.74,5.97.04,1.99.54,3.96,1.55,5.67.99,1.72,2.47,3.13,4.15,4.22.84.54,1.72,1.03,2.64,1.48.91.45,1.85.85,2.8,1.27.04.02.06.06.04.1-.01.03-.05.05-.08.04h0Z"/>
    <path class="cls-14" d="M50.82,11.9c1.67.76,3.24,1.74,4.63,2.94,1.39,1.2,2.62,2.59,3.63,4.12,2.03,3.07,3.21,6.66,3.52,10.31.07.91.1,1.83.05,2.76-.06.93-.21,1.85-.46,2.75-.49,1.8-1.45,3.47-2.7,4.85-1.25,1.37-2.78,2.46-4.4,3.31-.81.42-1.66.77-2.53,1.04-.87.27-1.76.47-2.66.56-.04,0-.08-.03-.08-.07,0-.03.02-.06.05-.08.83-.36,1.65-.69,2.46-1.06.81-.36,1.6-.74,2.38-1.15,1.54-.83,2.96-1.88,4.11-3.17.57-.65,1.07-1.36,1.48-2.11.11-.19.19-.38.29-.57.09-.19.17-.39.26-.59.07-.2.15-.4.22-.6.06-.21.14-.41.19-.62.23-.83.36-1.68.41-2.55.05-.86.01-1.74-.06-2.61-.15-1.74-.51-3.47-1.07-5.13-.56-1.66-1.31-3.25-2.27-4.71-.96-1.46-2.1-2.8-3.41-3.96-.65-.58-1.36-1.11-2.09-1.58-.73-.48-1.49-.91-2.28-1.3h0c-.21-.1-.3-.36-.2-.57.1-.21.35-.3.56-.2h0Z"/>
    <path class="cls-17" d="M36.62,30.03c-.43,3.08-2.91,3.81-6.15,5.12-2.03.82-3.43,2.04-4.34,3.1-2.65-2.37-3.54-5.46-3.55-8.34,0-.58.04-1.16.14-1.72,1.9-1.99,4.91-3.9,9.26-3.39,3.18.37,4.96,3,4.64,5.21h0Z"/>
    <path class="cls-17" d="M57.92,29.82c0,2.84-.85,5.91-3.42,8.28-.92-1.04-2.3-2.21-4.29-3-3.24-1.29-5.72-2.01-6.18-5.09-.32-2.21,1.44-4.85,4.62-5.24,4.2-.52,7.17,1.25,9.09,3.16h0c.12.62.18,1.25.18,1.9h0Z"/>
    <path class="cls-14" d="M45.05,11.01c-.1,0-.21-.04-.29-.11-.17-.16-.18-.43-.02-.6,1.09-1.17.81-2.92.38-4.19-.06-.19-.21-.31-.41-.33-.19-.02-.37.07-.47.24-2.23,3.84-6.59,4.77-6.77,4.81-.23.05-.45-.1-.5-.33-.05-.23.1-.45.33-.5.04,0,4.18-.9,6.21-4.4.27-.46.76-.71,1.29-.66.52.05.96.4,1.12.9.72,2.13.52,3.87-.56,5.04-.08.09-.2.14-.31.14h0Z"/>
    <path class="cls-14" d="M50.64,12.71c-.06,0-.13-.01-.19-.04-.21-.1-.3-.36-.19-.57.4-.81.64-2.15.69-3.87,0-.23-.11-.42-.32-.52-.21-.1-.44-.06-.61.09-1.17,1.05-2.9,2.36-4.48,2.61-.23.04-.45-.12-.48-.35-.04-.23.12-.45.35-.48,1.38-.21,2.96-1.42,4.04-2.4.43-.38,1.01-.47,1.53-.23.52.24.82.74.81,1.31-.06,1.87-.32,3.29-.78,4.22-.07.15-.22.24-.38.24h0Z"/>
    <path class="cls-14" d="M27.99,29.98c.06-.07.1-.12.15-.17.05-.05.1-.1.15-.15.1-.1.2-.18.31-.27.22-.17.45-.32.69-.45.49-.26,1.03-.44,1.59-.52.28-.04.57-.05.85-.04.29.02.57.06.84.13.55.14,1.06.39,1.49.74.2.16.22.45.06.65-.11.13-.28.19-.44.16h-.02c-.46-.1-.89-.17-1.32-.21-.21-.01-.42-.02-.63-.02-.21,0-.42.02-.63.05-.42.06-.84.15-1.25.29-.21.07-.42.14-.63.23-.11.04-.21.09-.31.13l-.16.07c-.05.02-.11.05-.14.06l-.12.03c-.24.07-.49-.07-.55-.31-.04-.15,0-.3.08-.4h0Z"/>
    <path class="cls-14" d="M52.38,30.6s-.09-.04-.15-.06l-.16-.07c-.11-.04-.21-.09-.31-.13-.21-.08-.42-.16-.63-.22-.42-.13-.84-.23-1.26-.28-.21-.02-.42-.04-.63-.04-.21,0-.42,0-.63.02-.43.04-.85.12-1.32.21h-.02c-.25.05-.49-.11-.54-.36-.03-.17.03-.34.16-.45.42-.35.93-.6,1.48-.75.27-.07.56-.11.84-.13.28-.01.57,0,.85.04.56.08,1.1.25,1.6.51.24.13.48.28.69.45.11.09.21.17.31.27.05.05.1.1.15.15.05.05.09.1.15.17.16.19.13.47-.06.63-.12.1-.27.12-.4.09l-.13-.03h0Z"/>
    <path class="cls-14" d="M43.27,34.67c-.11.11-.21.18-.32.27-.11.08-.22.15-.34.22-.23.14-.47.25-.73.35-.51.19-1.06.3-1.63.3-.58-.01-1.14-.15-1.63-.37-.25-.11-.49-.24-.71-.39-.11-.08-.22-.15-.32-.24-.11-.09-.2-.17-.31-.28-.17-.17-.16-.44,0-.6.12-.11.28-.15.42-.1l.06.02c.09.03.21.07.31.11.11.04.21.08.32.11.21.07.43.13.64.19.42.11.84.17,1.23.18.2,0,.41,0,.62-.03.21-.02.42-.06.64-.1.21-.04.43-.09.65-.15.11-.03.22-.06.33-.09.11-.03.22-.07.32-.09l.07-.02c.23-.06.46.09.52.31.04.16-.02.31-.12.41h0Z"/>
    <path class="cls-14" d="M39.77,71.14c-3.08,0-5.08-.75-5.17-.78-.22-.08-.33-.33-.25-.55.08-.22.33-.33.55-.25.04.01,2.51.93,6.09.69.23-.01.43.16.45.39.02.23-.16.43-.39.45-.44.03-.87.04-1.28.04h0Z"/>
    <path class="cls-14" d="M35.18,68.75c-.55,0-.87-.03-.9-.03-.23-.02-.4-.23-.38-.46.02-.23.23-.4.46-.38.02,0,2.51.22,5.99-.64.23-.06.46.08.51.31.06.23-.08.46-.31.51-2.39.59-4.31.69-5.37.69h0Z"/>
    <path class="cls-7" d="M66.38,57.37c0-1.53,1.71-2.77,3.24-2.77h1.3l.95,5.54h-2.25c-.76,0-1.46-.31-1.96-.81-.5-.5-1.28-1.19-1.28-1.96M65.03,57.37c0,1.27.51,2.41,1.34,3.24.83.83,1.97,1.34,3.24,1.34h4.39l-1.57-9.16h-2.83c-2.53,0-4.58,2.05-4.58,4.58"/>
    <path class="cls-13" d="M71.71,61.53h-2.09c-1.11,0-2.15-.43-2.94-1.22-.18-.18-.35-.38-.49-.59.07.02.15.04.22.06.83.81,1.96,1.31,3.21,1.31h1.91c.06.14.12.29.19.43M67.56,54.6c.53-.56,1.14-.85,2.05-.85h.71v.16c-.02.09-.02.18-.03.27h-.69c-.6,0-1.2.13-1.74.38-.1,0-.21.02-.31.04"/>
    <path class="cls-14" d="M69.61,55.03c-1.36,0-2.81.82-2.81,2.35,0,2.32,2.79,2.35,2.81,2.35h1.74l-.8-4.69h-.94M71.86,60.57h-2.25c-1.47,0-3.66-.85-3.66-3.19,0-2,1.86-3.19,3.66-3.19h1.3c.21,0,.38.15.42.35l.95,5.54c.02.12-.01.25-.09.34-.08.1-.2.15-.32.15M69.61,53.21c-2.29,0-4.16,1.87-4.16,4.16,0,1.11.43,2.15,1.22,2.94.79.78,1.83,1.22,2.94,1.22h3.89l-1.42-8.32h-2.47M74.01,62.38h-4.39c-1.34,0-2.59-.52-3.54-1.47-.95-.95-1.47-2.2-1.47-3.54,0-2.76,2.25-5,5-5h2.83c.21,0,.38.15.42.35l1.57,9.16c.02.12-.01.25-.09.34-.08.1-.2.15-.32.15"/>
    <path class="cls-7" d="M71.83,61.8c.43.9,1.28,1.53,2.26,1.66.54.07,1.09.11,1.64.11s1.1-.04,1.64-.11c.99-.13,1.84-.77,2.27-1.68,1.01-2.14,1.54-4.49,1.54-6.86,0-.34,0-.68-.03-1.02l-.16-2.57c0,.55-2.35.99-5.25.99s-5.25-.44-5.25-.99l-.16,2.57c-.17,2.73.35,5.44,1.51,7.9"/>
    <path class="cls-15" d="M77.4,63.46c.92-.13,1.71-.7,2.16-1.51h0s.02-.03.03-.04c0,0,0,0,0,.01-.4.84-1.21,1.41-2.13,1.53-.02,0-.03,0-.05,0M74.06,63.46s-.03,0-.05,0c-.74-.1-1.4-.5-1.84-1.08h.01c.46.58,1.13.98,1.87,1.08"/>
    <path class="cls-13" d="M71.52,61.1h0c-.07-.18-.14-.35-.21-.53h0c.07.18.14.36.21.53"/>
    <path class="cls-15" d="M71.02,59.72h0c-.47-1.52-.72-3.1-.73-4.69h0c.01,1.6.26,3.18.73,4.69"/>
    <polyline class="cls-13" points="70.33 53.75 70.33 53.75 70.36 53.21 70.36 53.21 70.33 53.75"/>
    <polyline class="cls-15" points="70.42 52.37 70.42 52.37 70.43 52.14 70.42 52.37"/>
    <path class="cls-1" d="M71.71,61.53h0c-.06-.14-.13-.29-.19-.43h0c.06.14.12.29.19.43M70.3,54.18h0c0-.09,0-.18.02-.27v-.16h.01v.16c-.02.09-.02.18-.03.27"/>
    <path class="cls-14" d="M72.19,62.38h-.01c-.12-.16-.22-.33-.31-.51-.05-.11-.11-.23-.16-.34h0c.04.09.08.18.12.27.1.21.22.4.36.58M71.31,60.57h0c-.1-.28-.2-.56-.29-.85h0c.09.28.19.57.29.85M70.29,55.03h0c0-.28,0-.56.02-.85h0c-.01.28-.02.56-.02.85M70.36,53.21h0l.05-.85h0l-.05.85"/>
    <path class="cls-15" d="M71.03,51.78c-.35-.13-.55-.28-.55-.44h0c0,.16.2.31.55.44h0"/>
    <path class="cls-13" d="M75.73,63.57c-.56,0-1.12-.04-1.67-.11-.75-.11-1.41-.5-1.87-1.08-.14-.18-.26-.37-.36-.58-.04-.09-.08-.18-.12-.27-.06-.14-.13-.29-.19-.43-.07-.18-.14-.35-.21-.53-.1-.28-.2-.56-.29-.85-.47-1.52-.72-3.1-.73-4.69,0-.28,0-.56.02-.85,0-.09,0-.18.02-.27v-.16s.04-.53.04-.53l.05-.85v-.23s.07-.8.07-.8c0,.16.2.31.55.44l-.06.91c-.14,2.23.19,4.46.95,6.54.68,1.86,2.45,3.12,4.44,3.13h.03c1.07,0,2.13-.13,3.17-.4-.44.81-1.24,1.38-2.16,1.51-.55.07-1.11.11-1.67.11"/>
    <path class="cls-7" d="M70.48,51.33c0,.55,2.35.99,5.25.99s5.25-.44,5.25-.99-2.35-.99-5.25-.99-5.25.45-5.25.99h0Z"/>
    <path class="cls-7" d="M70.48,51.33c0,.18.26.35.7.5.91.3,2.6.5,4.55.5s3.64-.2,4.55-.5c.45-.15.7-.32.7-.5,0-.55-2.35-.99-5.25-.99s-5.25.45-5.25.99h0Z"/>
    <path class="cls-18" d="M71.26,51.83c.91.3,2.6.5,4.55.5s3.64-.2,4.55-.5c-.91-.3-2.61-.5-4.55-.5s-3.64.2-4.55.5h0Z"/>
    <path class="cls-14" d="M70.85,52.16l-.11,1.77c-.17,2.66.35,5.34,1.5,7.75.35.74,1.04,1.25,1.84,1.36,1.09.15,2.21.15,3.3,0,.79-.11,1.47-.6,1.82-1.31,1.02-2.11,1.55-4.46,1.55-6.8,0-.35-.01-.67-.03-.99l-.11-1.77c-.28.11-.64.21-1.09.29-1.02.19-2.36.3-3.79.3s-2.78-.11-3.79-.3c-.45-.08-.81-.18-1.09-.29h0ZM75.73,63.99c-.59,0-1.18-.04-1.76-.12-1.08-.15-2.01-.83-2.49-1.83-1.21-2.54-1.76-5.36-1.58-8.17l.16-2.57c.01-.23.21-.4.44-.4.2,0,.36.15.4.33.29.24,1.96.66,4.84.66s4.55-.42,4.84-.66c.04-.18.2-.32.4-.33.23,0,.42.17.44.4l.16,2.57c.02.34.03.68.03,1.05,0,2.47-.57,4.94-1.64,7.17-.47.97-1.39,1.63-2.47,1.78-.58.08-1.18.12-1.77.12h0Z"/>
    <path class="cls-14" d="M71.06,51.33c.54.24,2.14.57,4.67.57s4.13-.33,4.68-.57c-.54-.24-2.14-.57-4.68-.57s-4.13.33-4.67.57h0ZM75.73,52.75c-1.43,0-2.78-.11-3.79-.3-1.3-.25-1.88-.59-1.88-1.12s.58-.87,1.88-1.12c1.02-.19,2.36-.3,3.79-.3s2.78.11,3.79.3c1.3.25,1.88.59,1.88,1.12s-.58.87-1.88,1.12c-1.02.19-2.36.3-3.79.3h0Z"/>
    <path class="cls-7" d="M69.12,54.6s.88,3.87-.59,4.94c-1.47,1.08-4.88-.48-4.77-2.34.1-1.58,3.28-3.01,5.36-2.61"/>
    <path class="cls-12" d="M64.08,58.28c-.22-.33-.34-.69-.32-1.07,0-.07.01-.14.03-.21,0,0,0,0,0,0-.02.07-.03.14-.03.21-.02.38.1.74.32,1.07h0"/>
    <path class="cls-8" d="M68.54,59.54h0c.95-.71.91-2.59.76-3.81.14,1.23.19,3.11-.76,3.81M64.92,59.11c-.34-.24-.63-.52-.84-.83h0c.21.31.5.59.84.83,0,0,0,0,0,0"/>
    <path class="cls-13" d="M67.29,59.9c-.29,0-.59-.04-.89-.12,0,0,0,0,0,0,.3.07.6.12.89.12,0,0,.01,0,.02,0h0s-.01,0-.02,0"/>
    <path class="cls-1" d="M66.4,59.79c-.07-.02-.15-.04-.22-.06,0,0,0,0,0,0,.07.02.15.04.22.06,0,0,0,0,0,0"/>
    <path class="cls-14" d="M67.31,59.9h0c.46,0,.89-.11,1.22-.35,0,0,0,0,0,0h0s0,0,0,0c-.33.24-.76.35-1.22.35M66.18,59.72c-.45-.14-.89-.35-1.26-.61,0,0,0,0,0,0,.38.26.82.48,1.26.61,0,0,0,0,0,0"/>
    <path class="cls-13" d="M67.29,59.9c-.29,0-.59-.04-.89-.12-.07-.02-.15-.04-.22-.06-.45-.14-.89-.35-1.26-.61-.34-.24-.63-.52-.84-.83-.22-.33-.34-.69-.32-1.07,0-.07.01-.14.03-.21.66.86,1.99,1.48,3.11,1.48.47,0,.91-.11,1.24-.35.89-.65.92-2.33.8-3.55.06,0,.12.02.18.03,0,0,.11.47.18,1.12.14,1.23.18,3.11-.76,3.81,0,0,0,0,0,0-.33.24-.76.35-1.22.35,0,0-.01,0-.02,0"/>
    <path class="cls-14" d="M68.37,54.96c-1.13,0-2.52.44-3.41,1.14-.48.38-.76.78-.78,1.14-.04.73.67,1.38,1.35,1.76,1.01.55,2.17.64,2.75.21.93-.68.69-3.1.48-4.23-.13-.01-.26-.02-.39-.02h0ZM67.3,60.32c-.75,0-1.54-.24-2.17-.59-1.18-.64-1.84-1.6-1.79-2.55.04-.62.42-1.22,1.11-1.76,1.27-.98,3.31-1.52,4.75-1.24.17.03.3.16.33.32.1.42.89,4.17-.75,5.38-.42.31-.94.44-1.48.44h0Z"/>
    <path class="cls-14" d="M65.85,57.95c-.71,0-1.45-.04-2.16-.16-.23-.04-.39-.25-.35-.49.04-.23.26-.39.49-.35,2.45.4,5.45-.15,5.48-.15.23-.04.45.11.49.34.04.23-.11.45-.34.49-.09.02-1.73.31-3.6.31h0Z"/>
    <path class="cls-10" d="M75.51,47.59c-.2,0-.4-.09-.55-.28-.39-.51-.7-1.3-.67-2.5.07-2.94,2.45-1.82.93-6.15-.9-2.56,1.35-3.81,1.35-3.81,0,0-.27,2.06.33,3.31.87,1.83,2.22,3.48.78,4.88-1.09,1.07-1.39,2.72-1.46,3.88-.02.41-.36.67-.71.67"/>
  </g>
  <g>
    <path class="cls-14" d="M74.62,59.5c-.66,0-1.22-.36-1.51-.99l-.02-.04c-.1-.2-.2-.42-.2-.68,0-.38.25-.67.55-.84-.2-.29-.36-.65-.36-1.1,0-.94.77-1.68,1.74-1.68.91,0,1.52.54,1.52,1.35,0,.53-.28.83-.63.94.29.34.58.77.58,1.33,0,.97-.72,1.7-1.68,1.7Z"/>
    <path class="cls-14" d="M77.33,60.69c-.55,0-.88-.32-.97-.69-.08.02-.16.03-.24.03-.52,0-.92-.37-.96-.88-.05-.67-.06-1.4-.06-1.96,0-.2,0-1.62,0-1.77,0-.71.5-1.08.99-1.08.19,0,.71.06.92.71.06-.01.12-.02.19-.02.88,0,1.03.69,1.06.91,0,.02,0,.05,0,.07,0,.05,0,.17.01.3.01.28.03.63.03.73v.36c0,.84,0,2-.04,2.5,0,.04,0,.08-.02.11-.07.31-.35.67-.88.67,0,0-.04,0-.04,0Z"/>
    <path class="cls-7" d="M74.01,57.55c.19,0,.35.64.58.64.17,0,.38-.08.38-.28,0-.18-.12-.43-.24-.55-.33-.51-.89-.85-.89-1.51,0-.55.46-.92.99-.92.4,0,.76.15.76.6,0,.14-.01.24-.2.24-.28,0-.26-.28-.53-.28-.23,0-.45.18-.45.41,0,.61,1.14,1.12,1.14,1.91,0,.52-.36.95-.92.95-.39,0-.66-.2-.83-.56-.04-.09-.14-.28-.14-.39s.26-.25.36-.25Z"/>
    <path class="cls-3" d="M75.85,57.19c0-.39,0-1.45,0-1.77s.19-.32.24-.32c.25,0,.25.43.25.61,0,.22,0,1.43.04,1.79l.36-.04s.27-.03.28-.04v-1.41c0-.15.05-.2.18-.2.2,0,.28.04.31.24,0,.15.04.86.04,1.01,0,.76,0,2.25-.03,2.8-.02.1-.13.09-.19.09s-.23,0-.23-.13v-1.83s-.04-.03-.06-.04c-.14,0-.61.08-.66.08h0v1.09s0,.08-.04.1c-.06.04-.14.06-.2.06-.1,0-.19-.05-.2-.18-.05-.61-.06-1.28-.06-1.9Z"/>
  </g>
</svg>