<?xml version="1.0" encoding="UTF-8"?>
<svg id="Vrstva_1" data-name="Vrstva 1" xmlns="http://www.w3.org/2000/svg" viewBox="0 0 29.39 30.01">
  <defs>
    <style>
      .cls-1 {
        fill: #1d1d1b;
      }
    </style>
  </defs>
  <path class="cls-1" d="M28.78,26.2c-.17,1.58-1.38,2.86-2.94,3.13-2.21.39-4.11.56-5.61.63-2.39.12-4.14.02-11.32-.53-1.63-.12-3.37-.26-5.22-.41-1.71-.13-3.09-1.46-3.29-3.16C-.12,21.4-.05,17.89.14,15.36c.13-1.69.42-4.43.58-8.68.03-.9.05-1.74.07-2.5.03-1.78,1.36-3.27,3.12-3.49C7.65.21,11.93-.09,16.63.02c3.26.08,6.29.34,9.05.71,1.65.22,2.93,1.54,3.11,3.2.47,4.4.71,9.32.53,14.69-.09,2.66-.28,5.2-.54,7.59Z"/>
</svg>