<?xml version="1.0" encoding="UTF-8"?>
<svg id="Vrstva_1" data-name="Vrstva 1" xmlns="http://www.w3.org/2000/svg" viewBox="0 0 79.69 88.62">
  <defs>
    <style>
      .cls-1 {
        fill: #f9f5f3;
      }

      .cls-2 {
        fill: #621410;
      }

      .cls-3 {
        fill: #edcca7;
      }

      .cls-4 {
        fill: #bf8678;
      }

      .cls-5 {
        fill: #64140e;
      }

      .cls-6 {
        fill: #c89063;
      }

      .cls-7 {
        fill: #e5b685;
      }

      .cls-8 {
        fill: #fcf7f4;
      }

      .cls-9 {
        fill: #967660;
      }
    </style>
  </defs>
  <path class="cls-2" d="M59.55,15.95c-.13-1.99,1.1-3.63,2.72-4.61l1.97-1.19c1.17-.91,1.59-2.5.8-3.78-.59-.95-1.69-1.35-2.77-1.28s-1.94.76-2.42,1.77c-.46.95-1.72.83-2.56.34-1.52-.9.27-3.73,2.61-4.67,2.28-.91,4.94-.51,6.85,1.01,1.32,1.04,1.98,2.52,2.03,4.17.05,2.02-.93,3.81-2.69,4.78l-1.76.97c-1.91,1.05-1.62,2.9-2.26,3.27-.79.45-2.44.02-2.5-.78Z"/>
  <circle class="cls-2" cx="60.28" cy="20.08" r="1.85"/>
  <path class="cls-2" d="M65.31,24.44c.22-1.41,1.34-2.35,2.62-2.78l1.56-.52c.96-.45,1.5-1.49,1.15-2.51-.26-.75-.96-1.2-1.73-1.32s-1.47.22-1.97.85c-.47.59-1.33.3-1.83-.17-.92-.86.77-2.56,2.55-2.84s3.52.42,4.61,1.78c.75.93.98,2.07.75,3.22-.28,1.41-1.25,2.5-2.63,2.91l-1.38.4c-1.49.43-1.58,1.76-2.09,1.92-.62.19-1.7-.37-1.62-.94Z"/>
  <circle class="cls-2" cx="65.17" cy="27.43" r="1.32"/>
  <g>
    <path class="cls-2" d="M53.26,83.57c.5.91-.14,2.21-1.13,2.48-.53.21-1.19.02-1.72.24-.23.08-.46.15-.7.17-.42.07-.83-.07-1.25-.09-.34.01-.69.14-1.05.13-2.02-.12-4.53-.38-6.09-1.8-.39-.37-.7-.88-.76-1.41-.2-.33-.14-.76-.22-1.25-.16-1.37-.41-4.05-.59-5.35-.78-.08-2.18.07-3.17-.02-.08,0-.12.01-.14.04-.04.13-.08.64-.16,1.32-.17,1.47-.41,3.69-.56,5.03-.21.34-.13.71-.41,1.07-.75,1.27-2.32,1.7-3.65,1.98-1.29.32-2.69.45-3.9.22-.39.02-.83.15-1.26.1-.53,0-.99-.31-1.52-.27-.24,0-.5,0-.73-.05-.93-.17-1.63-1.02-1.56-2,.05-.33.24-.57.3-.93.11-.53.55-1.01.37-1.58-1.4-5.99-2.4-11.97-2.02-18.1.03-.27-.06-.49-.31-.63-1.19-.63-2.1-1.59-2.67-2.8-2.13-4.94.37-10.55,3.74-14.31.19-.22.08-.38-.17-.52-10.8-6.41-8.41-23.51,1.1-30.04,2.11-1.51,4.59-2.53,7.11-3.16,2.17-.49,4.04-1.72,5.34-3.51.61-.64.82-1.25,1.5-1.69,1.72-.92,2.6,1.31,2.54,3.03,0,.12.02.21.07.24.05.04.12.02.21-.02,1.33-.74,3.46-1.78,4.71-1.44,1.25.35.99,1.82.51,3.04-.05.14-.11.33-.01.44,9.77,3.25,15.92,15.29,12.16,24.96-.96,2.3-2.66,4.29-4.66,5.84-.07.13-.02.19.11.28,3.78,2.04,7.83,4.89,9.98,8.53,2.77,4.54.16,9.19-3.71,11.77-.21.32.17.67.1,1.04-.02.73-.53,1.35-1.15,1.7-.3.19-.38.56-.62.8-.7.69-1.71.72-2.67.54-.25-.02-.31.17-.31.38-.16,4.53-.78,8.99-1.69,13.43-.16.52.27.95.43,1.4.1.24.15.51.25.69l.03.06Z"/>
    <g>
      <g>
        <path class="cls-7" d="M33.82,44.94c.36-.18,3.01,2.72,2.61,6-2.17,4.7-6.66,10.43-12.23,10.81-1.77.12-3.83-.4-4.86-1.95l-.32-.69c-.89-3.83.97-8.36,3.26-11.42.03-.05.09-.08.15-.11s.13-.05.2-.07c.03-.06.08-.15.13-.14,1.02.29,2.27.71,3.26,1.1.31.04.47.16.49.35-.85.84-4.19,4.07-4.15,4.33,0,.04.09.07.13.08,1.44-.35,2.61-1.34,3.71-2.3,1.57-1.48,3.18-2.94,4.81-4.38.79-.67,1.65-1.21,2.58-1.62h.23Z"/>
        <path class="cls-6" d="M44.52,83.79l-.04,1.11c-1.49-.24-2.83-.85-2.97-2.4l-.58-6.37c.6-.27,1.21-.4,1.6-1.01-2.92.54-5.71.54-8.66.02.32.54.89.69,1.43.92l-.64,6.43c-.15,1.55-1.48,2.15-2.98,2.42l-.07-1.09c1.18-.29,2.04-1.22,2.24-2.47.28-1.81.53-4.19-.55-5.54l-1.62-2.02s-.03-.02-.04-.03c-.1-.06,0-.17.08-.09l.04.03,1.48.32c3.9.85,7.91.56,11.79-.39l-2,2.25c-1.17,1.28-.89,3.8-.64,5.64.16,1.17,1,1.99,2.13,2.24Z"/>
        <path class="cls-6" d="M22.69,65.6c-.01.26-.43.17-.44-.07l.07-2.15c7.08,1.6,13.39-5.76,15.05-12.01,1.28-.07,2.54-.7,2.77-1.82.52,1.6-.89,3.33-2.5,3.93-1.64,4.48-4.73,8.39-8.86,10.73-1.91,1.08-3.98,1.65-6.09,1.4Z"/>
        <path class="cls-6" d="M36.43,50.94c-.06.52-.2,1-.4,1.53-1.03,2.7-2.63,5.15-4.78,7.11-2.44,2.22-5.87,3.79-9.07,2.72-1.29-.43-2.3-1.31-2.84-2.5,2.64,2.67,6.44,2.08,9.51.13,3.46-2.2,5.5-5.27,7.35-8.84.05-.1.14-.13.23-.15Z"/>
        <path class="cls-3" d="M33.82,44.94c-1.45.7-2.74,1.68-3.95,2.81l-2.58,2.4c-1.2,1.11-3.51,3.31-4.81,3.08,1.04-.57,2-1.25,2.89-2.09l4.06-3.81c1.18-1.11,2.41-2.07,3.86-2.83.2-.1.61.3.53.45Z"/>
        <path class="cls-1" d="M37.65,44.76c-.72.06-1.32.42-2.02.58-.38-.5-.8-.9-1.35-1.34,1.64-.82,4.05-1.25,5.45-.21.1.07.15.19.14.28,0,.07-.09.2-.2.22l-2.02.47Z"/>
        <path class="cls-3" d="M22.63,47.51c-2.43,3.21-4.22,7.7-3.6,11.59-1.39-3.86.54-8.74,3.07-11.82l.53.23Z"/>
        <path class="cls-1" d="M47.86,85.23c-.4.23-.85.17-1.27.09-.52.03-.95-.2-1.23-.65-.09-1.05.59-2.59,1.38-2.55.63.03,1.35,1.96,1.13,3.11Z"/>
        <path class="cls-1" d="M39.43,47.89c-.8-.46-1.66-.48-2.52-.19-.22-.57-.45-1.08-.81-1.65,1.33-.62,3.3-.27,3.63.88.11.37.02.68-.31.96Z"/>
        <path class="cls-1" d="M50.14,85.11c-.42.36-1,.28-1.43.07.11-1.13-.17-2.12-.72-3.06.16-.24.44-.36.71-.35.97.04,1.69,2.06,1.44,3.34Z"/>
        <path class="cls-6" d="M55.39,54.51c-.58.27-1.1.46-1.61.85l-.71-.69-.91-2.87,3.22,2.71Z"/>
        <g>
          <path class="cls-1" d="M30.8,84.32c-.22.41-.46.67-.78.93-.54.11-1.09.21-1.67.05-.3-1.09.36-3.12,1.09-3.18.66-.05,1.28,1.21,1.36,2.19Z"/>
          <path class="cls-1" d="M27.46,85.15c-.42.25-.99.26-1.44,0-.21-1.08.05-2.23.75-3.06.38-.45,1.05-.43,1.37.02-.53.91-.81,1.87-.68,3.03Z"/>
          <path class="cls-1" d="M25.09,84.96c-.34.15-1.08.07-1.22-.37-.3-.93.21-2,.94-2.54.34-.26.7-.32,1.08-.14-.59.9-.87,1.88-.8,3.06Z"/>
        </g>
        <path class="cls-1" d="M52.26,84.64c-.35.41-.86.46-1.28.36.11-1.14-.16-2.17-.74-3.1,1.24-.48,2.28,1.39,2.02,2.74Z"/>
        <path class="cls-1" d="M56.71,66.19c-.58,1.06-1.61.67-2.47-.23l-.02-1.03c.5.04.91.05,1.43-.09l1.06,1.35Z"/>
        <path class="cls-1" d="M39.17,49.6c-.44.25-.93.38-1.48.41.05.25-.04.33-.27.4,0-.67-.09-1.27-.25-1.93.6-.2,1.27-.22,1.77.12.38.26.44.67.24,1Z"/>
        <path class="cls-1" d="M57.28,65.51l-.8-.86,1.02-.41c.19-.08.33-.05.44.02.18.13.2.33.12.54-.14.33-.41.55-.77.71Z"/>
        <path class="cls-3" d="M39.17,49.6c-.36.58-1.1.73-1.75.81.12-.15.14-.27.07-.54l1.68-.27Z"/>
        <g>
          <path class="cls-7" d="M58.06,61.98l-3.23,2.08c-.2,0-.43.04-.64-.07-.09-2.33-.32-4.58-.65-6.82.5-.72,1.05-1.42,1.64-2.1.35-.25.6-.57-.04-.55-1.76-1.48-2.64-2.22-2.64-2.22l-.33-.5c-.13-.42-.31-.83-.66-1.22l.45,2.93c.65,3.66,1.16,7.3,1.29,10.98-.22,5.29-.63,11.32-1.75,16.63-.57-.27-1.21-.32-1.82.05-.74-.47-1.61-.4-2.25.2-.53-.22-1.08-.2-1.59.1-.74.59-1.13,1.42-1.32,2.32-.26.24-.74-.06-1.02-.23-.77-.48-1.11-1.12-1.28-1.99-.34-1.75-.49-4.23.62-5.71l1.69-1.9c-3.45.84-6.78.92-10.28.46-.3-.04-2.22-.37-2.46-.59-.02-.02-.03-.06-.03-.1l-.07.09s.06-.03.07-.03c.1.04.18.1.26.17.3.26,1.57,1.92,1.74,2.27.59,1.18.54,2.52.44,3.8-.12,1.4-.28,2.72-1.55,3.55-.28.18-.77.5-1.04.27-.12-.72-.4-1.42-.91-1.98s-1.26-.83-2-.45c-.62-.62-1.51-.72-2.26-.24-.63-.34-1.28-.35-1.88-.04-.15-.32-.29-.64-.37-.99-.54-2.31-.87-4.82-1.16-7.18-.28-2.28-.6-5.05-.52-7.24l.17-.13.34-.14c6.81.17,12.24-6.15,14.49-12.09,1.63-.68,2.71-2.01,2.63-3.82.05-.26.05-.53,0-.79.17-.1.35-.21.56-.25,3.43-.65,6.73-1.28,9.86-2.93.6-.37,1.22-.63,1.86-.78.08,0,.15,0,.23.01s.14.03.2.06c2.79,1.74,5.63,4.1,7.84,6.55,1.44,1.59,2.49,3.44,1.93,5.35-.96,2.08-2.74,3.87-4.57,5.23Z"/>
          <g>
            <path class="cls-3" d="M62,53.74c-1.96-3.86-6.01-6.67-9.57-8.95.14-.08.29-.14.4-.31,2.4,1.31,4.67,2.89,6.64,4.84,1.58,1.57,3.25,3.88,3.24,6.04"/>
            <path class="cls-6" d="M62.79,55.84c0,1.28-.47,2.5-1.19,3.62-1.35,2.11-4.42,4.52-6.77,4.6.01-.21.21-.33.4-.45l2.4-1.54c1.98-1.39,3.63-3.13,4.74-5.32.33-.64.15-.13.42-.92Z"/>
            <path class="cls-3" d="M22.67,65.55c.09,5.1.84,10.28,1.87,15.27.04.18,0,.38-.08.41-.08.04-.19-.08-.23-.25-.96-4.3-1.96-9.43-1.98-13.7-.02-.54-.06-1.13,0-1.68.05-.16.25-.12.36-.09l.06.03Z"/>
            <path class="cls-3" d="M53.26,64.49c.12,3.22-.1,6.42-.5,9.67l-1.09,6.78c-.01.06-.02.13-.05.16-.02.02-.07.02-.11.02-.02-.59.17-1.11.26-1.74.62-4.09.97-8.15,1.24-12.27.06-.92.15-2.6.16-2.61.02-.02.07-.02.09-.01Z"/>
            <path class="cls-3" d="M53.54,57.17c-.17-.49,1.03-1.59,1.64-2.1,0,.37-.31.57-.53.85-.36.46-.61.99-1.11,1.25Z"/>
          </g>
        </g>
      </g>
      <g>
        <path class="cls-7" d="M38.57,9.85c.05,1.34-.65,2.27-.06,2.24.12,0,.27-.12.37-.11,2.6-1.2,3.9-1.8,3.9-1.8.9-.3,1.82-.4,1.46.9-.28.87-1.35,2.4-.63,2.07.51-.23.92-.04,1.38.11.25.21,0,.36-.27.39,6.79,2.6,11.7,9.12,12.51,16.34.27,1.81.01,3.71-.51,5.48-2.48,5.96-8.98,8.85-14.93,10.17-1.27.41-1.67.24-1.2-.5,0-.19.05-.36.14-.49-.06-.14.1-.31.11-.44,4.08-.83,8.1-2.43,10.96-5.59.08-.09.29-.08.3-.16.02-.13.03-.26.08-.32l.09-.39c2.12-2.73,2.74-6.36,1.8-9.68l.06-.39c-.65-2.31-1.99-4.43-3.89-5.92-4.54-3.55-11.02-2.61-14.4,2.07-2.83-1.66-6.25-1.79-9.3-.63-4.96,1.88-7.94,7.02-6.98,12.2l.22.28c.55,3.13,2.55,5.94,5.42,7.35l.21.29c1.66.91,3.56,1.31,5.45,1.58l-1.3,1.03c-.14.06-.29.11-.44.1-1.9-.17-4.63-1.25-6.3-2.18-2.59-1.45-4.71-3.51-5.98-6.16-.42-1.23-.86-2.54-.85-3.83-.42-8.6,4.7-17.47,13.24-19.85,3.27-.66,5.99-2.34,7.74-5.18,1.04-1.23,1.48.06,1.59,1.02Z"/>
        <path class="cls-6" d="M56.72,35.46c-.65,2.18-1.91,4.09-3.58,5.68-1.21,1.15-2.55,2.02-3.98,2.87-.51.3-1.01.54-1.47.98,1.34-.11,2.46-.69,3.62-1.27l1.51.75c.18.27-.13.43-.4.31-3.92,2.21-7.81,3.39-12.28,3.97-.01-.06-.09-.13-.03-.2l.16-.16c.82-1.05.39-2.44-.84-3.12.5-.16.92-.32,1.3-.64.14.34.02.67-.26,1.09,6.61-1.26,13.12-4.02,16.24-10.27Z"/>
        <path class="cls-3" d="M38.57,9.85c-.11-.1-.13-.27-.16-.44-.08-.44-.32-.86-.79-.94-.46.33-.78.8-1.08,1.24-1.62,2.36-3.92,3.62-6.61,4.29-4.63,1.15-8.41,4.05-10.81,8.13-2.1,3.58-3.12,7.61-3.13,11.73-.44-3.74.22-7.53,1.85-10.96,2.47-5.2,7-8.56,12.56-9.89,5.18-1.24,6.47-5.42,7.33-5.37.56.03.8,1.36.83,2.21Z"/>
        <path class="cls-6" d="M29.58,45.93c-1.1.87-2.07,1.9-3.07,2.89l-3.88-1.31c-.16.21-.57.02-.53-.23l1.21-1.29c1.58.57,3.17,1.19,4.92.97l-4.49-1.81c-3.23-1.53-5.73-4.11-6.9-7.46.19,0,.2.12.29.28,2.53,4.65,7.33,7.17,12.44,7.97Z"/>
        <path class="cls-3" d="M57.23,29.98c-.85-5.58-3.96-10.85-8.65-14.13-1.4-.98-2.9-1.61-4.54-2.32.39-.13.91.07.95-.28,7.12,2.32,11.62,9.44,12.24,16.73Z"/>
        <path class="cls-3" d="M44.24,11.07c-.01-.26.05-.63-.15-.8-.78-.67-4.34,1.76-5.2,1.71.07-.26.31-.35.54-.5,1.31-.8,2.61-1.53,4.12-1.88.23-.05.71-.17.83.06.23.45,0,1-.14,1.41Z"/>
        <g>
          <path class="cls-9" d="M25.43,43.31c-3.17-1.42-5.35-4.51-5.85-7.92,1.96-2.98,4.82-5.39,8.23-6.44,2.39-.74,4.61.64,5.2,3.01.53,2.15-.46,4.31-2.31,5.59-1.1.76-2.23,1.4-3.21,2.34s-1.82,2.05-2.06,3.42Z"/>
          <path class="cls-9" d="M54.15,27.67c1.15,3.58.47,7.57-1.95,10.46-.43-.83-1.04-1.46-1.8-2-2.1-1.5-4.08-1.44-5.85-2.27-2.01-.95-3.24-3.01-2.99-5.23.21-1.85,1.51-3.2,3.33-3.54,1.15-.22,2.29-.1,3.46.08,2.16.32,4.11,1.19,5.8,2.52Z"/>
          <g>
            <path class="cls-8" d="M54.15,27.67l-.41-.1c-2.78-2.32-11.05-4.39-11.97.76-.52,2.9,1.26,5.22,3.95,5.78,12.16,2.53,5,7.33-2.49,9.7-.64.18-1.29.34-1.94.46-.07.01-.14,0-.22-.01-.08-.01-.16-.04-.23-.07.06-.66-.43-1.19-1.07-1.5-2.68-1.29-6.71.46-8.9,2.2l-.38.12c-.88-.08-1.97-.35-2.82-.6-.5-.15-1.89-.57-2.14-.91-.04-.06-.07-.12-.1-.19l-.12-.28c.29-1.79,2.15-3.49,3.57-4.48,2.42-1.37,4.58-3.31,4.01-6.33-.39-2.07-2.29-3.67-4.44-3.25-3.39.66-6.57,3.4-8.51,6.18l-.36.23c-.05-.04-.1-.09-.14-.15-.04-.05-.08-.1-.08-.16-.64-4.23,1.24-8.43,4.78-10.83,3.38-2.29,8.18-2.8,11.69-.58,1.73-2.65,4.94-4.21,8.08-4.25,3.37-.05,6.42,1.55,8.45,4.23.62.82,1.71,2.64,1.86,3.63.02.13-.01.26-.06.39Z"/>
            <path class="cls-2" d="M40.85,38.41c-1.22-.77-2.73-.28-3.53.87-.14.2-.37.28-.57.24-.16-.03-.41-.29-.3-.53.85-1.83,3.25-2.58,4.86-1.36.24.18.33.44.25.62-.12.27-.42.34-.71.16Z"/>
            <g>
              <path class="cls-2" d="M40.65,33.26c-.29,1.01-1.19,1.75-2.04,1.99-1.65.48-3.65-.48-3.59-1.89.06-1.52,2.71-2.34,4.43-1.98.89.19,1.47.95,1.2,1.87Z"/>
              <path class="cls-4" d="M38.89,32.26c.16.62-2.08,1.12-2.22.47-.13-.59,2.06-1.11,2.22-.47Z"/>
            </g>
          </g>
        </g>
      </g>
    </g>
  </g>
  <path class="cls-5" d="M31.29,33.44c.2,1.17-2.39-.67-5.34,1.98-.15.13-.39.17-.51.14-.14-.05-.35-.36-.26-.62.78-2.24,3.7-3.41,5.65-2.05.25.17.44.39.47.55Z"/>
  <path class="cls-5" d="M49.71,29.86c-3.48-1.02-5.16,1.25-5.63.78-.18-.18-.18-.51-.05-.8.98-2.15,3.76-2.54,5.63-1.15.2.15.34.33.42.48.08.16-.13.76-.37.69Z"/>
</svg>