<?xml version="1.0" encoding="UTF-8"?>
<svg id="Vrstva_1" data-name="Vrstva 1" xmlns="http://www.w3.org/2000/svg" viewBox="0 0 79.37 79.37">
  <defs>
    <style>
      .cls-1 {
        fill: #5897bb;
      }

      .cls-2 {
        fill: #e0bda6;
      }

      .cls-3 {
        fill: #73cbf4;
      }

      .cls-4 {
        fill: #fefbfc;
      }

      .cls-5 {
        fill: #36aee4;
      }

      .cls-6 {
        fill: #ecc18e;
      }

      .cls-7 {
        fill: #9c4e3e;
      }

      .cls-8 {
        fill: #fff;
      }

      .cls-9 {
        fill: #c2b9c1;
      }

      .cls-10 {
        fill: #c9a7a6;
      }

      .cls-11 {
        fill: #c68e7b;
      }

      .cls-12 {
        fill: #d0b2b2;
      }

      .cls-13 {
        fill: #b27059;
      }

      .cls-14 {
        fill: #5cc5f2;
      }

      .cls-15 {
        fill: #b27d7e;
      }

      .cls-16 {
        fill: #1f86ba;
      }

      .cls-17 {
        fill: #a89ba6;
      }

      .cls-18 {
        fill: #dcf0fd;
      }

      .cls-19 {
        fill: #64140e;
      }

      .cls-20 {
        fill: #6a9dbc;
      }

      .cls-21 {
        fill: #ec68a3;
      }

      .cls-22 {
        fill: #257dad;
      }

      .cls-23 {
        fill: #c69687;
      }

      .cls-24 {
        fill: #967660;
      }
    </style>
  </defs>
  <path class="cls-6" d="M57.18,58.4c-.02,1.31-.25,2.52-.66,3.61-4.06,11.05-25.62,10.88-29.09-.37-.61-1.92-.72-4-.3-5.99.28-1.31.67-2.78,1.11-4.32.67-2.3,1.46-4.71,2.25-6.86.16-.44.32-.86.47-1.27.38-1.01.76-1.93,1.1-2.71h19.95c.14.31.32.74.52,1.26h0c.34.86.74,1.95,1.14,3.04.56,1.53,1.1,3.07,1.42,4.02.78,2.59,2.14,6.4,2.09,9.59"/>
  <path class="cls-19" d="M57.18,58.4h0,0M32.34,40.92c-1.57,3.67-3.81,10.25-4.79,14.82-.4,1.91-.3,3.91.29,5.77,2.01,6.5,10.29,8.99,17.07,8.03,5.63-.8,11.7-4.15,11.83-11.15.04-2.67-.93-5.79-1.71-8.29-.13-.41-.25-.79-.36-1.16-.65-1.95-2.2-6.27-2.95-8.02h-19.38M41.96,70.63c-2.79,0-5.51-.53-7.9-1.56-3.62-1.56-6.06-4.08-7.05-7.3-.64-2-.74-4.15-.32-6.21,1.02-4.74,3.37-11.6,4.96-15.25l.11-.26h20.53l.12.26c.7,1.56,2.4,6.3,3.09,8.36h0c.11.38.23.76.36,1.17.8,2.56,1.8,5.76,1.75,8.57h0c-.06,3.3-1.41,6.18-3.9,8.33-2.22,1.91-5.22,3.18-8.68,3.67-1.03.15-2.06.22-3.08.22"/>
  <path class="cls-6" d="M60.75,57.33c-.15,3.29-2.38,4.36-4.23,4.68-1.36.23-2.51.06-2.51.06l-1.89-14.96.12-1.56.29-3.81h0c.52.96,1.1,1.85,1.7,2.69,3.1,4.35,6.78,7.45,6.52,12.89"/>
  <path class="cls-6" d="M60.75,57.33c-.09,1.99-.94,3.17-2.01,3.86-.7.45-1.49.7-2.22.82-1.36.23-2.51.06-2.51.06l-1.89-14.96v-.14s.12-1.42.12-1.42l.29-3.81h0c.52.96,1.1,1.85,1.7,2.69,3.1,4.35,6.78,7.45,6.52,12.89"/>
  <path class="cls-11" d="M53.77,49.17h-1.14l-.26-1.84s0-.01,0-.02c.46.64.93,1.26,1.4,1.86M52.16,47.01s-.02-.01-.03-.02v-.02s.02.03.03.04"/>
  <path class="cls-19" d="M55.05,62.57c-.63,0-1.06-.06-1.1-.07l-.32-.05-2.12-15.01c-.03-.24.13-.46.37-.5.24-.03.46.13.5.37l2.03,14.34c.82.06,3.01.09,4.48-1.12.89-.73,1.38-1.82,1.44-3.24.19-4.12-1.94-6.83-4.41-9.96-1.3-1.64-2.64-3.34-3.76-5.4-.12-.21-.04-.48.18-.59.21-.12.48-.04.6.18,1.08,1.99,2.4,3.66,3.68,5.27,2.47,3.13,4.81,6.09,4.6,10.54-.08,1.68-.67,2.98-1.76,3.88-1.38,1.13-3.22,1.34-4.38,1.34"/>
  <path class="cls-6" d="M63.06,59.79v7.99H20.94v-7.99c3.48-5.45,8.83.68,8.83.68h24.46s2.05-2.35,4.43-2.85c1.47-.31,3.07.09,4.4,2.17"/>
  <path class="cls-2" d="M22.19,60.19c-.1-.3-.22-.59-.36-.87.7-.82,1.51-1.27,2.4-1.34.08,0,.16,0,.25,0,.51,0,1.02.12,1.51.3l.15,1.03c-.39-.09-.79-.15-1.2-.15-.91,0-1.86.28-2.76,1.04"/>
  <path class="cls-2" d="M61.86,60.22c-.36-.31-.73-.55-1.1-.72.11-.39.21-.77.28-1.14.42.23.8.56,1.17.99-.13.28-.25.57-.35.86"/>
  <path class="cls-19" d="M63.5,68.22H20.5v-8.56l.07-.11c.97-1.52,2.18-2.34,3.6-2.45,3.02-.22,5.82,2.94,5.93,3.08.16.18.14.46-.04.62-.18.16-.46.14-.62-.04-.03-.03-2.63-2.97-5.21-2.78-1.09.08-2.05.73-2.85,1.94v7.42h41.24v-7.42c-.8-1.21-1.76-1.86-2.85-1.94-2.58-.19-5.18,2.75-5.21,2.78-.16.18-.44.2-.62.04-.18-.16-.2-.44-.04-.62.12-.14,2.92-3.3,5.93-3.08,1.41.11,2.62.93,3.6,2.45l.07.11v8.56"/>
  <path class="cls-8" d="M15.64,63.77c-.43-2.95-.84-7.21.27-8.06,1.48-1.13,5.22,1.82,6.03,5.18.46,1.9-5.93,5.4-6.29,2.88"/>
  <path class="cls-19" d="M19.62,63.63c-.15,0-.27-.11-.29-.26-.49-4.6-2.87-7.7-2.89-7.73-.1-.13-.08-.31.05-.41.13-.1.31-.08.41.05.1.13,2.5,3.25,3.01,8.03.02.16-.1.3-.26.32-.01,0-.02,0-.03,0h0Z"/>
  <path class="cls-19" d="M18.17,65.09c-.11,0-.21-.06-.26-.17-2.05-4.27-2.46-8.97-2.46-9.01-.01-.16.11-.3.27-.31.16-.01.3.11.31.27,0,.05.4,4.64,2.41,8.81.07.15,0,.32-.14.39-.04.02-.08.03-.13.03h0Z"/>
  <path class="cls-19" d="M16.07,63.7c.03.24.14.37.34.44.84.31,2.88-.52,4.2-1.7.63-.57.98-1.12.9-1.46-.55-2.28-2.58-4.41-4.13-4.96-.36-.13-.87-.23-1.2.02-.25.19-1.01,1.32-.1,7.64h0M16.82,65.08c-.26,0-.5-.04-.71-.11-.5-.18-.83-.59-.91-1.14h0c-.95-6.56-.21-7.98.43-8.47.36-.27,1-.52,2.03-.15,1.76.62,4.06,2.93,4.69,5.58.17.69-.24,1.49-1.16,2.32-1.19,1.07-3.06,1.98-4.38,1.98"/>
  <path class="cls-8" d="M68.41,63.77c.43-2.95.84-7.21-.27-8.06-1.48-1.13-5.22,1.82-6.03,5.18-.46,1.9,5.93,5.4,6.29,2.88"/>
  <path class="cls-19" d="M64.43,63.63s-.02,0-.03,0c-.16-.02-.28-.16-.26-.32.51-4.77,2.91-7.9,3.01-8.03.1-.13.28-.15.41-.05.13.1.15.28.05.41-.02.03-2.4,3.13-2.89,7.73-.02.15-.14.26-.29.26h0Z"/>
  <path class="cls-19" d="M65.88,65.09s-.09,0-.13-.03c-.15-.07-.21-.24-.14-.39,2.01-4.17,2.41-8.76,2.41-8.81.01-.16.16-.28.31-.27.16.01.28.15.27.31,0,.05-.41,4.74-2.46,9.01-.05.1-.15.17-.26.17h0Z"/>
  <path class="cls-19" d="M68.41,63.77h0,0M67.35,55.9c-.23,0-.47.06-.67.13-1.55.55-3.58,2.67-4.13,4.96-.08.33.26.89.9,1.46,1.32,1.18,3.36,2,4.2,1.7.2-.07.3-.21.34-.44.92-6.32.16-7.45-.1-7.64-.15-.11-.34-.16-.53-.16M67.23,65.08c-1.32,0-3.18-.91-4.38-1.98-.93-.83-1.33-1.63-1.16-2.32.64-2.64,2.93-4.96,4.69-5.58,1.03-.36,1.67-.12,2.03.15.64.49,1.39,1.9.43,8.47h0c-.08.55-.4.96-.91,1.14-.21.08-.45.11-.71.11"/>
  <path class="cls-6" d="M60.68,63.87s.78-1.88,1.4-2.98c1.36-2.43,6.33-3.29,6.3,2.55-.01,2.19-.85,3.8-1.89,4.97-1.52,1.69-3.71,2.62-5.99,2.62H23.52c-2.28,0-4.47-.93-5.99-2.62-1.04-1.16-1.88-2.78-1.89-4.97-.03-5.84,4.94-4.97,6.3-2.55.62,1.1,1.4,2.98,1.4,2.98h37.34"/>
  <path class="cls-13" d="M60.49,70.59h-3.21c.21-.32.33-.7.33-1.1,0-.63-.43-1.15-1.01-1.31l.09-.62c2.65-.84,2.39-2.85,2.39-2.85,0,0,1.9,3.03,4.17,3.03,2.93,0,4.1-1.75,4.53-2.78-.25,1.17-.79,2.23-1.62,3.15-1.41,1.58-3.48,2.48-5.66,2.48M26.78,70.59h-3.26c-2.19,0-4.25-.9-5.66-2.48-.88-.98-1.44-2.12-1.67-3.39.42,1,1.59,3.19,3.75,3.4.13.01.27.02.39.02,2.71,0,3.89-2.79,3.89-2.79,0,0,.25,1.58,3.15,2.27l.08.56c-.58.15-1.01.68-1.01,1.31,0,.41.12.79.33,1.1"/>
  <path class="cls-19" d="M60.49,71.47H23.52c-2.43,0-4.74-1.01-6.32-2.77-1.32-1.47-2-3.24-2.01-5.26-.02-3.51,1.65-4.47,2.65-4.74,1.62-.43,3.62.46,4.47,1.97.62,1.11,1.39,2.95,1.42,3.03.09.22-.01.48-.24.57-.22.09-.48-.01-.57-.24,0-.02-.78-1.87-1.37-2.93-.65-1.17-2.25-1.88-3.48-1.55-1.3.34-2.01,1.72-2,3.88,0,1.8.61,3.37,1.78,4.68,1.41,1.58,3.48,2.48,5.66,2.48h36.97c2.19,0,4.25-.9,5.66-2.48,1.17-1.31,1.77-2.88,1.78-4.68.01-2.16-.7-3.54-2-3.88-1.23-.33-2.83.39-3.48,1.55-.6,1.06-1.37,2.92-1.37,2.93-.09.22-.35.33-.57.24-.22-.09-.33-.35-.24-.57.03-.08.8-1.92,1.42-3.03.85-1.51,2.85-2.4,4.47-1.97,1,.26,2.67,1.23,2.65,4.74-.01,2.02-.69,3.79-2.01,5.26-1.58,1.76-3.88,2.77-6.32,2.77"/>
  <path class="cls-8" d="M17.9,65.54c.48,1.05,1.59,1.56,2.48,1.16.9-.41,1.24-1.59.76-2.63-.47-1.05-1.59-1.56-2.48-1.16-.9.41-1.24,1.59-.76,2.63h0Z"/>
  <path class="cls-8" d="M19.89,62.29c.14.31.47.46.73.34.26-.12.37-.47.23-.78-.14-.31-.47-.46-.73-.34-.26.12-.37.47-.23.78h0Z"/>
  <path class="cls-8" d="M16.84,63.18c.14.3.46.45.71.33.26-.12.35-.45.22-.75-.14-.3-.46-.45-.71-.33-.26.12-.36.45-.22.75h0Z"/>
  <path class="cls-8" d="M17.78,62.07c.2.43.66.65,1.03.48.37-.17.51-.66.32-1.09-.2-.43-.66-.65-1.03-.48-.37.17-.51.66-.32,1.09h0Z"/>
  <path class="cls-8" d="M65.97,65.54c-.48,1.05-1.59,1.56-2.48,1.16-.9-.41-1.24-1.59-.76-2.63.48-1.05,1.59-1.56,2.48-1.16.9.41,1.24,1.59.76,2.63h0Z"/>
  <path class="cls-8" d="M63.99,62.29c-.14.31-.47.46-.73.34-.26-.12-.37-.47-.23-.78.14-.31.47-.46.73-.34s.37.47.23.78h0Z"/>
  <path class="cls-8" d="M67.04,63.18c-.14.3-.46.45-.71.33-.26-.12-.36-.45-.22-.75.14-.3.46-.45.71-.33.26.12.36.45.22.75h0Z"/>
  <path class="cls-8" d="M66.09,62.07c-.2.43-.66.65-1.03.48-.37-.17-.51-.66-.32-1.09.2-.43.66-.65,1.03-.48.37.17.51.66.32,1.09h0Z"/>
  <path class="cls-6" d="M33.54,43.86l-.6,1.94-1.63,5.29c-1.08.13-2.1.21-3.08.24-13.23.46-17.32-7.69-17.7-14.69-.42-7.71,5.11-7.59,6.55-7.15,3.96,1.23,2.73,4.27,6.4,9.21.91,1.22,2.26,2.19,3.67,2.94,1.31.69,2.67,1.2,3.8,1.55,1.5.47,2.59.66,2.59.66"/>
  <path class="cls-11" d="M24.88,50.81c-3.67-.32-6.68-1.45-8.98-3.38-3.95-3.31-4.79-8.2-4.93-10.82-.06-1.08,0-2.03.17-2.86.63-.87,1.78-2.12,3.45-2.63.66-.2,1.34-.28,2-.28.76,0,1.48.1,2.08.24.06.18.07.32-.04.32-2.38.17-4.08.28-5.07,2.92-1.56,4.17.82,13.39,11.38,15.76-.07.21-.1.44-.06.66v.07"/>
  <path class="cls-19" d="M27.17,51.79c-4.94,0-8.91-1.23-11.84-3.69-3.12-2.61-4.98-6.68-5.24-11.44-.17-3.13.58-5.37,2.24-6.66,1.64-1.28,3.82-1.26,4.88-.93,2.53.78,3.12,2.27,3.93,4.32.54,1.36,1.21,3.06,2.69,5.04,2.72,3.67,9.72,4.98,9.79,4.99.24.04.4.27.35.51-.04.24-.27.4-.51.35-.3-.05-7.41-1.38-10.33-5.33-1.54-2.08-2.24-3.83-2.8-5.24-.78-1.96-1.25-3.15-3.38-3.81-.57-.18-2.55-.41-4.08.78-1.42,1.11-2.06,3.1-1.9,5.92.14,2.62.98,7.5,4.93,10.82,3.52,2.95,8.69,4.03,15.36,3.22.24-.03.46.14.49.38.03.24-.14.46-.38.49-1.47.18-2.86.27-4.19.27"/>
  <path class="cls-11" d="M42.32,47.65c-3.39,0-6.58-.61-9.37-1.85h0l.44-1.43c2.67.73,5.69,1.09,8.89,1.09h.11c3.63,0,7.04-.48,9.97-1.44l-.12,1.53c-2.9,1.4-6.26,2.09-9.85,2.1h-.07"/>
  <path class="cls-11" d="M52.24,45.56h0l.12-1.53c.29-.09.57-.19.85-.3.21.32.43.64.65.95-.06.04-.13.08-.19.11-.46.28-.94.53-1.43.77h0"/>
  <path class="cls-19" d="M53.86,44.67c-.22-.31-.44-.62-.65-.95.14-.05.28-.11.42-.16.2.3.4.59.6.87-.12.08-.25.16-.37.24"/>
  <path class="cls-11" d="M32.95,45.8c-.86-.38-1.68-.82-2.46-1.33-.86-.55-1.66-1.18-2.4-1.88,1.61.72,3.18,1.18,4.21,1.44.36.12.73.23,1.1.33l-.44,1.43"/>
  <path class="cls-19" d="M32.29,44.03c-1.03-.26-2.6-.72-4.21-1.44-.32-.3-.63-.62-.93-.95.29.15.59.3.88.44,1.26.79,2.69,1.44,4.25,1.95"/>
  <path class="cls-6" d="M62.29,32.12c.02,9.02-8.89,13.31-19.9,13.34-11.01.03-19.95-4.21-19.97-13.23-.02-8.64,5.56-18.53,18.21-19.36,1.53-.78,3.6-2.14,4.76-4.14.36-.63,1.29-.54,1.52.15.31.91.59,2.12-.02,3.67,1.69-.83,3.37-1.77,3.92-2.26.59-.53,1.53-.1,1.51.69-.03.77-.3,2.4-.62,3.77,7.26,3.41,10.58,10.75,10.6,17.38"/>
  <path class="cls-17" d="M55.93,42.48c3.38-1.89,5.67-4.7,6.23-8.47h0s0-.02,0-.03c0,0,0,0,0,0,0,0,0,0,0,0,0,0,0,0,0,0,0,0,0,0,0,0,.07-.48.11-.98.12-1.5h0s0-.03,0-.04h0s0,0,0-.01h0s0-.03,0-.04h0s0-.01,0-.01h0v-.02s0,0,0-.01c0,0,0,0,0,0h0v-.02s0,0,0,0h0v-.02s0,0,0,0h0v-.02h0s0-.01,0-.02v-.02h0v-.02h0v-.02h0v-.02h0v-.02h0v-.02c0-.31,0-.61-.02-.92.02.31.02.61.02.92.01,4.73-2.44,8.16-6.36,10.36M22.48,33.49s0,0,0,0h0M22.48,33.48s0,0,0,0c0,0,0,0,0,0M22.48,33.47c-.04-.4-.06-.82-.06-1.24,0-.28,0-.56.02-.84-.01.28-.02.56-.02.84,0,.42.02.84.06,1.24"/>
  <path class="cls-11" d="M42.28,45.46c-10.43,0-18.98-3.85-19.8-11.97h0s0,0,0,0c0,0,0,0,0,0,0,0,0,0,0,0-.04-.4-.06-.82-.06-1.24,0-.28,0-.56.02-.84,0-.09,0-.18.01-.26.54,8.43,9.21,12.42,19.83,12.42h.11c9.58-.03,17.56-3.27,19.47-10.04,0,.02,0,.04,0,.07,0,.96-.1,1.86-.29,2.71.27-.72.47-1.47.59-2.28-.56,3.77-2.85,6.58-6.23,8.47-3.55,1.99-8.31,2.96-13.54,2.98-.04,0-.08,0-.11,0M62.16,34.01s0-.02,0-.03c0,.01,0,.02,0,.03M62.17,33.97s0,0,0,0c0,0,0,0,0,0M62.17,33.96s0,0,0,0c0,0,0,0,0,0M62.29,32.45h0s0,0,0,0M62.29,32.41h0s0,0,0,0M62.29,32.4h0s0,0,0,0M62.29,32.36h0s0,0,0,0M62.29,32.35h0s0,0,0,0M62.29,32.33s0,0,0-.01c0,0,0,0,0,.01M62.29,32.31h0s0,0,0,0M62.29,32.3s0,0,0,0c0,0,0,0,0,0M62.29,32.28h0s0,0,0,0M62.29,32.26h0s0,0,0,0M62.29,32.24h0s0,0,0,0M62.29,32.23v-.02.02M62.29,32.21h0s0,0,0,0M62.29,32.19h0s0,0,0,0M62.29,32.17v-.02.02M62.29,32.15h0s0,0,0,0M62.29,32.14v-.02c0-.31,0-.61-.02-.92h0c.01.31.02.61.02.92v.02"/>
  <path class="cls-18" d="M23.46,25.71h0s0,0,0,0M23.47,25.7c2.11-6.35,7.45-11.98,16.6-12.79-9.16.81-14.5,6.44-16.6,12.79M40.07,12.91s.04,0,.05,0c-.02,0-.04,0-.05,0M40.13,12.9s.01,0,.02,0c0,0-.01,0-.02,0M40.14,12.9s.01,0,.02,0c0,0-.01,0-.02,0M40.16,12.9s.02,0,.04,0c-.01,0-.02,0-.04,0M40.2,12.9s0,0,.02,0c0,0-.01,0-.02,0M40.22,12.89s.01,0,.02,0c0,0-.01,0-.02,0M40.24,12.89s.02,0,.04,0c-.01,0-.02,0-.04,0M40.27,12.89s0,0,.01,0c0,0,0,0-.01,0M40.29,12.89s0,0,.01,0c0,0-.01,0-.01,0M40.31,12.89s.02,0,.03,0c-.01,0-.02,0-.03,0M40.35,12.88s0,0,.01,0c0,0,0,0-.01,0M40.37,12.88s0,0,.01,0c0,0,0,0-.01,0M40.38,12.88s.02,0,.03,0c-.01,0-.02,0-.03,0M40.42,12.88s0,0,.01,0c0,0,0,0-.01,0M40.44,12.88s0,0,.01,0c0,0,0,0-.01,0M40.46,12.88s.02,0,.03,0c-.01,0-.02,0-.03,0M40.5,12.87s0,0,.01,0c0,0,0,0-.01,0M40.51,12.87s0,0,.01,0c0,0,0,0-.01,0M40.53,12.87s.02,0,.03,0c-.01,0-.02,0-.03,0M40.57,12.87s0,0,.01,0c0,0,0,0-.01,0M40.59,12.87s0,0,.01,0c0,0,0,0-.01,0M40.6,12.87s.01,0,.02,0c0,0-.01,0-.02,0"/>
  <path class="cls-2" d="M61.86,33.51c-.04-6.22-3.46-13.42-9.88-17.08-.73-.42-1.11-1.26-.93-2.08.2-.93.37-1.8.39-2.31.01-.45-.14-.66-.39-.66-.19,0-.43.12-.68.35-.43.39-1.55,1.05-2.83,1.71-.08.04-.17.06-.25.06-.31,0-.59-.27-.54-.62.16-1.03-.05-1.88-.28-2.56-.12-.35-.28-.57-.48-.57s-.42.2-.69.66c-.77,1.34-2.1,2.28-3.36,2.99-1,.57-2.12.91-3.26,1.06-8.51,1.1-13.54,6.5-15.6,12.57.11-.44.24-.89.39-1.33h0s0,0,0,0c2.11-6.35,7.45-11.98,16.6-12.79h0s.04,0,.05,0c0,0,0,0,0,0,0,0,.01,0,.02,0,0,0,0,0,0,0,0,0,.01,0,.02,0h0s.02,0,.04,0c0,0,0,0,0,0,0,0,.01,0,.02,0,0,0,0,0,0,0,0,0,.01,0,.02,0,0,0,0,0,0,0,.01,0,.02,0,.04,0,0,0,0,0,0,0,0,0,0,0,.01,0,0,0,0,0,0,0,0,0,0,0,.01,0,0,0,0,0,0,0,.01,0,.02,0,.03,0,0,0,0,0,0,0,0,0,0,0,.01,0,0,0,0,0,0,0,0,0,0,0,.01,0,0,0,0,0,0,0,.01,0,.02,0,.03,0,0,0,0,0,0,0,0,0,0,0,.01,0,0,0,0,0,0,0,0,0,0,0,.01,0,0,0,0,0,0,0,.01,0,.02,0,.03,0,0,0,0,0,0,0,0,0,0,0,.01,0,0,0,0,0,0,0,0,0,0,0,.01,0,0,0,0,0,0,0,.01,0,.02,0,.03,0,0,0,0,0,0,0,0,0,0,0,.01,0,0,0,0,0,0,0,0,0,0,0,.01,0,0,0,0,0,0,0,0,0,.01,0,.02,0h0c1.53-.78,3.6-2.14,4.76-4.14.17-.29.45-.42.73-.42.34,0,.67.2.79.57.17.52.34,1.13.34,1.84,0,.55-.1,1.15-.36,1.83h0c1.69-.83,3.37-1.77,3.92-2.26.18-.16.39-.24.6-.24.47,0,.91.36.91.9,0,.01,0,.02,0,.03-.03.77-.3,2.4-.62,3.77h0c6.92,3.25,10.27,10.08,10.58,16.46,0-.03,0-.06,0-.08-.06.84-.19,1.64-.4,2.39"/>
  <path class="cls-9" d="M62.16,34.01h0s0,0,0,0M62.16,33.98s0,0,0,0c0,0,0,0,0,0M62.17,33.96s0,0,0,0c0,0,0,0,0,0M62.17,33.95c.07-.48.11-.98.12-1.5-.01.52-.05,1.01-.12,1.5M62.29,32.45s0-.02,0-.04c0,.01,0,.02,0,.04M62.29,32.41s0,0,0-.01c0,0,0,0,0,.01M62.29,32.4s0-.02,0-.03c0,.01,0,.02,0,.03M62.29,32.36s0,0,0,0c0,0,0,0,0,0M62.29,32.34h0s0,0,0,0M62.29,32.32s0,0,0,0c0,0,0,0,0,0M62.29,32.3h0s0,0,0,0M62.29,32.29h0s0,0,0,0M62.29,32.27s0,0,0,0c0,0,0,0,0,0M62.29,32.25h0s0,0,0,0M62.29,32.23s0,0,0,0c0,0,0,0,0,0M62.29,32.21h0s0,0,0,0M62.29,32.2h0s0,0,0,0M62.29,32.18h0s0,0,0,0M62.29,32.16h0s0,0,0,0M62.29,32.14h0s0,0,0,0"/>
  <path class="cls-23" d="M61.57,36.28c.19-.85.29-1.76.29-2.71,0-.02,0-.04,0-.07.21-.75.35-1.55.4-2.39,0,.03,0,.06,0,.08.01.31.02.61.02.92v.02h0v.02h0v.02h0v.02h0v.02h0v.02s0,0,0,0h0v.02h0s0,.01,0,.02h0v.02s0,0,0,0h0v.02s0,0,0,0c0,0,0,0,0,.01h0v.02s0,0,0,0h0s0,.03,0,.04h0s0,.01,0,.01h0s0,.03,0,.04h0c-.01.52-.05,1.02-.12,1.5,0,0,0,0,0,0,0,0,0,0,0,0,0,0,0,0,0,0,0,0,0,0,0,0,0,.01,0,.02,0,.03h0c-.12.8-.32,1.56-.59,2.28"/>
  <path class="cls-4" d="M58.35,30.91c0,2.63-.78,5.46-3.16,7.65-2.43,2.24-6.53,3.82-13.13,3.84h0c-6.54.02-10.62-1.5-13.08-3.69-2.45-2.19-3.27-5.05-3.28-7.7,0-.54.04-1.07.13-1.59.74-4.56,4.69-8.05,9.47-8.06,2.61,0,4.98,1.03,6.72,2.71,1.73-1.69,4.09-2.74,6.7-2.75,4.71-.01,8.64,3.36,9.48,7.84h0c.11.57.16,1.16.17,1.76"/>
  <path class="cls-19" d="M44.46,31.54c0,.82-1.09,1.81-2.43,1.81-1.34,0-2.44-.98-2.44-1.8,0-.82,1.09-1.16,2.43-1.17,1.35,0,2.44.34,2.44,1.16"/>
  <path class="cls-15" d="M42.09,31.52c-.55,0-.99-.23-.99-.42,0-.19.44-.27.99-.27h.01c.54,0,.98.08.98.27,0,.19-.44.42-.99.42h0"/>
  <path class="cls-19" d="M33.14,44.73s-.08,0-.12-.02c-7.1-2.03-11.03-6.46-11.04-12.49-.01-4.58,1.46-9.02,4.15-12.51,3.12-4.05,7.69-6.53,13.2-7.18.24-.03.46.14.49.38.03.24-.14.46-.38.49-11.42,1.34-16.6,10.69-16.57,18.81.01,5.6,3.71,9.73,10.41,11.64.23.07.37.31.3.54-.06.19-.23.32-.42.32h0Z"/>
  <path class="cls-19" d="M50.93,44.88c-.19,0-.37-.13-.42-.33-.06-.23.08-.47.31-.53,7.13-1.86,11.05-6.08,11.04-11.89-.02-5.9-2.76-13.46-10.41-17.02-.22-.1-.32-.36-.21-.58.1-.22.36-.31.58-.21,3.48,1.62,6.34,4.27,8.26,7.67,1.73,3.06,2.65,6.57,2.66,10.14.02,6.25-4.14,10.77-11.69,12.74-.04,0-.07.01-.11.01h0Z"/>
  <path class="cls-24" d="M38.67,31.1c-.4,2.85-2.69,3.52-5.68,4.74-1.88.76-3.17,1.88-4.01,2.87-2.45-2.19-3.27-5.05-3.28-7.7,0-.54.04-1.07.13-1.59,1.76-1.84,4.54-3.61,8.55-3.13,2.94.35,4.58,2.78,4.29,4.82h0Z"/>
  <path class="cls-24" d="M58.35,30.91c0,2.63-.78,5.46-3.16,7.65-.85-.96-2.13-2.04-3.97-2.77-3-1.2-5.29-1.86-5.71-4.7-.3-2.04,1.33-4.48,4.27-4.84,3.89-.48,6.63,1.15,8.4,2.92h0c.11.57.16,1.16.17,1.76h0Z"/>
  <path class="cls-19" d="M46.46,13.57c-.11,0-.21-.04-.3-.12-.18-.16-.19-.44-.02-.62.99-1.06.73-2.67.34-3.83-.07-.22-.26-.26-.34-.27-.06,0-.27,0-.39.2-2.07,3.57-6.12,4.43-6.29,4.47-.24.05-.47-.1-.52-.34-.05-.24.1-.47.34-.52.04,0,3.84-.83,5.71-4.05.26-.44.73-.69,1.24-.63.5.05.92.38,1.08.86.67,1.98.48,3.61-.53,4.7-.09.09-.2.14-.32.14h0Z"/>
  <path class="cls-19" d="M51.63,15.15c-.06,0-.13-.01-.19-.04-.22-.11-.31-.37-.2-.59.36-.74.58-1.97.63-3.56,0-.28-.2-.4-.27-.43-.07-.03-.3-.12-.51.08-1.58,1.42-2.98,2.24-4.17,2.42-.24.04-.46-.13-.5-.37-.04-.24.13-.46.37-.5,1-.15,2.28-.92,3.71-2.2.41-.37.97-.45,1.47-.22.49.23.79.71.77,1.26-.06,1.73-.3,3.05-.72,3.92-.08.16-.23.25-.39.25h0Z"/>
  <path class="cls-19" d="M30.66,31.02c.05-.07.09-.11.14-.16.04-.05.09-.1.14-.14.09-.09.19-.18.29-.26.2-.16.42-.3.64-.43.46-.25.96-.42,1.49-.49.26-.04.53-.05.8-.04.27.02.53.06.79.12.51.14,1,.38,1.38.71.2.17.22.48.05.68-.11.13-.28.18-.44.16h-.03c-.43-.07-.82-.14-1.21-.16-.19,0-.38-.01-.57,0-.19,0-.38.02-.57.04-.38.05-.76.14-1.14.25-.19.06-.38.12-.58.2l-.29.11-.14.06s-.1.04-.13.05l-.17.03c-.25.05-.49-.12-.54-.36-.03-.14.01-.27.09-.37h0Z"/>
  <path class="cls-19" d="M53.2,31.67s-.09-.03-.13-.05l-.14-.06-.29-.11c-.19-.07-.39-.14-.58-.19-.38-.12-.76-.2-1.14-.25-.19-.02-.38-.04-.57-.04-.19,0-.38,0-.57.01-.39.03-.78.09-1.21.16h-.03c-.26.05-.51-.13-.55-.39-.03-.17.04-.33.16-.44.39-.34.87-.58,1.38-.72.26-.07.52-.11.79-.13.27-.01.54,0,.8.03.53.07,1.04.24,1.49.48.23.12.44.26.65.42.1.08.2.16.29.26.05.05.09.09.14.14.05.05.08.1.14.16.16.2.13.49-.07.65-.11.09-.24.12-.37.09l-.17-.03h0Z"/>
  <path class="cls-19" d="M44.84,35.43c-.06.05-.1.09-.15.14-.05.04-.1.08-.15.12-.1.08-.21.14-.31.21-.21.13-.44.24-.68.33-.47.18-.99.29-1.53.28-.55,0-1.07-.14-1.53-.35-.23-.1-.45-.23-.66-.37-.1-.07-.2-.15-.3-.23-.05-.04-.1-.08-.14-.12-.05-.05-.09-.09-.14-.14-.17-.18-.16-.45.01-.62.11-.1.25-.14.38-.11l.11.02s.09.03.14.04l.15.05c.1.03.2.07.3.09.2.06.39.12.59.16.38.09.76.15,1.12.15.18,0,.37,0,.56-.03.19-.02.38-.05.58-.09.2-.04.39-.08.59-.13.1-.02.2-.05.3-.08l.15-.04s.1-.03.14-.03h.12c.24-.04.46.13.49.37.02.14-.04.28-.13.37h0Z"/>
  <path class="cls-5" d="M55.58,71.07h-27.1c-.88,0-1.59-.71-1.59-1.59,0-.51.41-.92.92-.92h28.45c.51,0,.92.41.92.92,0,.88-.71,1.59-1.59,1.59"/>
  <path class="cls-14" d="M27.37,69.55s-.03-.03-.05-.05h0c0-.28.21-.49.48-.49h28.45c.26,0,.48.21.48.48h0s-.02.03-.03.04c0,0-.01.01-.02.02-.13-.07-.27-.11-.43-.11h-28.45c-.15,0-.3.04-.43.11"/>
  <path class="cls-16" d="M55.58,70.63h-27.1c-.61,0-1.1-.47-1.15-1.06.01,0,.03-.02.05-.03.29.27.67.44,1.1.44h27.1c.43,0,.82-.17,1.1-.44.02,0,.03.02.05.03-.04.59-.54,1.06-1.15,1.06"/>
  <path class="cls-1" d="M27.33,69.57s0-.05,0-.07c.02.02.03.03.05.05-.02,0-.03.02-.05.03M56.73,69.57s-.03-.02-.05-.03c0,0,.01-.01.02-.02,0,0,.02-.02.03-.03,0,.03,0,.05,0,.08"/>
  <path class="cls-19" d="M27.8,69.01c-.26,0-.48.21-.48.48,0,.63.52,1.15,1.15,1.15h27.1c.63,0,1.15-.52,1.15-1.15,0-.26-.21-.48-.48-.48h-28.45M55.58,71.51h-27.1c-1.12,0-2.03-.91-2.03-2.03,0-.75.61-1.35,1.35-1.35h28.45c.75,0,1.35.61,1.35,1.35,0,1.12-.91,2.03-2.03,2.03"/>
  <path class="cls-21" d="M58.75,50.68l-2.65,17.89h-28.14l-.1-.65-2.56-17.24c-.08-.57.36-1.07.93-1.07h31.59c.57,0,1.01.51.93,1.07"/>
  <path class="cls-5" d="M58.75,50.68l-2.65,17.89h-28.14l-.1-.65-2.56-17.24c-.08-.57.36-1.07.93-1.07h31.59c.57,0,1.01.51.93,1.07"/>
  <path class="cls-3" d="M28.3,67.91l-2.56-17.29c-.02-.15.02-.29.12-.4.1-.11.23-.17.38-.17h28.48c.04.19.08.4.11.61h-27.54c-.57,0-1.01.51-.93,1.07l2.4,16.16c-.16,0-.31,0-.45.01"/>
  <path class="cls-16" d="M55.72,68.13h-26.93l-.04-.24c3.81-.11,14.59-.44,20.8-4.61,1.01-.67,1.84-1.46,2.53-2.32.17.1.34.19.52.28.31.45.7.85,1.15,1.18.87.63,1.78.98,2.66,1.03l-.69,4.67M54.93,52.5c0-.67-.04-1.29-.12-1.84h3.49v.07c-.59,1.04-.93,1.12-1.8,1.32-.42.1-.92.21-1.57.45"/>
  <path class="cls-20" d="M28.79,68.13h-.45l-.03-.22c.14,0,.29,0,.45-.01l.04.24M58.31,50.66h-3.49c-.03-.21-.07-.42-.11-.61h3.11c.15,0,.28.06.38.17.1.11.14.25.12.4v.04"/>
  <path class="cls-19" d="M28.33,68.13h27.39l2.6-17.52c.02-.15-.02-.29-.12-.4-.1-.11-.23-.17-.38-.17h-31.59c-.15,0-.28.06-.38.17-.1.11-.14.25-.12.4l2.6,17.52M56.48,69.01h-28.9l-2.71-18.26c-.06-.4.06-.8.32-1.1.26-.3.64-.48,1.04-.48h31.59c.4,0,.78.17,1.04.48.26.3.38.7.32,1.1l-2.71,18.26"/>
  <path class="cls-8" d="M43.63,60.45c.07,0,.14,0,.2-.02-.35.7-1.08,1.19-1.92,1.19-1.18,0-2.14-.96-2.14-2.14s.96-2.14,2.14-2.14c.84,0,1.57.48,1.92,1.19-.07-.02-.13-.02-.2-.02-.54,0-.98.44-.98.98s.44.98.98.98h0Z"/>
  <path class="cls-14" d="M30.63,64.43c-.14,0-.28-.17-.4-.43-1.07-2.35-1.84-6.37-1.67-8.73.07-.95.34-1.41.66-1.41.47,0,1.06.99,1.32,2.79.86,6.1.52,7.78.09,7.78"/>
  <path class="cls-8" d="M19.78,31.41s0,0-.01,0c-1.01-.39-3.19-.9-5.18-.29-2.69.82-4.03,3.56-4.03,3.56.31-2.24.15-5.85,1.24-7.47.33-.49.77-.8,1.37-.83,3.85-.2,6.61,5.04,6.61,5.04"/>
  <path class="cls-10" d="M10.56,34.68c.31-2.24.15-5.85,1.24-7.47-.16,1.17-.26,3.17.95,3.32.11.01.23.02.36.02.48,0,1.1-.08,1.76-.17.66-.08,1.38-.17,2.06-.17,1.19,0,2.28.25,2.84,1.2-.28-.11-.66-.23-1.1-.33-.6-.14-1.32-.24-2.08-.24-.65,0-1.34.08-2,.28-1.67.51-2.82,1.76-3.45,2.63-.38.53-.58.92-.58.92"/>
  <path class="cls-19" d="M13.38,26.81c-.06,0-.12,0-.19,0-1.63.08-1.84,3.2-2.01,5.7-.01.16-.02.33-.03.49.71-.86,1.81-1.85,3.31-2.31,1.45-.44,3.06-.33,4.34-.04-.95-1.4-2.96-3.85-5.42-3.85h0ZM10.56,35.11s-.09,0-.13-.02c-.21-.06-.34-.27-.31-.48.09-.63.13-1.37.19-2.15.2-3,.42-6.4,2.84-6.52,4.08-.21,6.9,5.04,7.02,5.27.09.16.06.36-.06.5-.12.14-.32.18-.49.12-.26-.1-2.65-.97-4.9-.29-2.47.75-3.75,3.31-3.76,3.33-.08.15-.23.24-.39.24h0Z"/>
  <path class="cls-6" d="M60.02,60.34c-.95,2.62-3.45,3.58-6.01,1.73-3.28-2.37-1.78-7.97.59-8.97,2.5-1.06,3.04-.27,4.12-2.23,0,0,3.66,2.98,1.3,9.47"/>
  <path class="cls-2" d="M55.23,53.88c.15-.25.35-.52.63-.77.32-.09.6-.16.85-.22.91-.21,1.48-.38,2.1-1.33.11.12.23.27.36.46-.76.96-2.15,1.61-3.94,1.85"/>
  <path class="cls-13" d="M56.64,62.59c-.64,0-1.32-.21-2-.63-.26-.47-.53-1.09-.59-1.72-.05-.48.04-.96.35-1.37,0,0-.08-.1-.18-.27.87.57,1.82.84,2.72.84,1.41,0,2.7-.68,3.36-1.96-.11.82-.32,1.72-.68,2.71-.43,1.18-1.19,1.99-2.15,2.28-.27.08-.54.12-.82.12"/>
  <path class="cls-19" d="M58.81,51.57c-.63.94-1.19,1.12-2.1,1.33-.49.11-1.09.25-1.93.6-1.06.45-1.98,2.06-2.18,3.82-.21,1.87.4,3.47,1.67,4.39,1.1.8,2.21,1.06,3.2.76.95-.29,1.72-1.1,2.15-2.28,1.79-4.92.02-7.67-.8-8.62M56.66,63.47c-.95,0-1.95-.35-2.9-1.04-1.54-1.11-2.28-3.01-2.03-5.2.24-2.09,1.35-3.96,2.71-4.53.9-.38,1.55-.53,2.07-.65.89-.2,1.22-.28,1.83-1.39.06-.11.17-.19.3-.22.13-.03.26,0,.36.09.16.13,3.88,3.26,1.44,9.96-.53,1.44-1.49,2.44-2.71,2.82-.34.11-.7.16-1.07.16"/>
  <path class="cls-19" d="M58.81,51.57c-.63.94-1.19,1.12-2.1,1.33-.49.11-1.09.25-1.93.6-1.06.45-1.98,2.06-2.18,3.82-.21,1.87.4,3.47,1.67,4.39,1.1.8,2.21,1.06,3.2.76.95-.29,1.72-1.1,2.15-2.28,1.79-4.92.02-7.67-.8-8.62M56.66,63.47c-.95,0-1.95-.35-2.9-1.04-1.54-1.11-2.28-3.01-2.03-5.2.24-2.09,1.35-3.96,2.71-4.53.9-.38,1.55-.53,2.07-.65.89-.2,1.22-.28,1.83-1.39.06-.11.17-.19.3-.22.13-.03.26,0,.36.09.16.13,3.88,3.26,1.44,9.96-.53,1.44-1.49,2.44-2.71,2.82-.34.11-.7.16-1.07.16"/>
  <path class="cls-8" d="M56.61,52.57s-6.26.57-7.64,4.43c-.93,2.6,3.84,4.05,6.16,5.72,0,0-1.85-2.38-.73-3.85,0,0-1.48-1.81.54-3.09,0,0-.59-1.88,1.67-3.21"/>
  <path class="cls-22" d="M49.36,58.96c-.38-.47-.58-.99-.5-1.56,0,0,0,0,0,0-.08.57.12,1.08.49,1.56"/>
  <path class="cls-7" d="M54.64,61.96h0c-.26-.47-.53-1.09-.59-1.72.06.63.33,1.25.59,1.72"/>
  <path class="cls-19" d="M55.13,62.72s0,0,0,0c0-.01-.24-.31-.49-.76h0c.25.46.49.76.49.76"/>
  <path class="cls-12" d="M55.13,62.72c-1.67-1.2-4.59-2.28-5.77-3.76-.38-.47-.58-.99-.49-1.56.21.37.61.43,1.2.43.13,0,.26,0,.4,0,.14,0,.29,0,.46,0,.83,0,1.89.07,3.17.56.14.3.3.49.3.49-.31.41-.39.89-.35,1.37.06.63.33,1.25.59,1.72h0c.25.45.48.75.49.76"/>
  <path class="cls-19" d="M54.4,59.16s-.04,0-.06,0c-1.1-.22-4.16-.69-5.09-.27-.15.07-.32,0-.39-.14-.07-.15,0-.32.14-.39,1.27-.58,5.03.15,5.45.23.16.03.26.19.23.34-.03.14-.15.23-.29.23h0Z"/>
  <path class="cls-19" d="M49,57.16c-.08,0-.16-.03-.22-.1-.11-.12-.09-.31.03-.41,1.93-1.69,5.96-1.3,6.13-1.28.16.02.28.16.26.32-.02.16-.16.28-.32.26-.04,0-3.95-.38-5.68,1.14-.06.05-.12.07-.19.07h0Z"/>
  <path class="cls-19" d="M55.12,53.27c-1.87.42-4.88,1.47-5.74,3.88-.52,1.44,1.22,2.51,3.72,3.87.28.15.55.3.81.44-.32-.79-.5-1.76-.04-2.58-.22-.36-.53-1.02-.41-1.77.09-.59.43-1.1.99-1.52-.08-.59.02-1.48.68-2.31h0ZM55.13,63.16c-.09,0-.18-.03-.26-.08-.6-.43-1.37-.85-2.19-1.29-2.31-1.25-4.94-2.67-4.13-4.93,1.46-4.08,7.75-4.7,8.02-4.72.21-.02.39.11.46.3.06.2-.02.41-.2.51-1.92,1.13-1.49,2.64-1.47,2.7.06.19-.02.39-.18.5-.49.31-.78.68-.84,1.09-.12.7.4,1.35.41,1.36.13.16.13.38,0,.54-.75.99.27,2.73.73,3.32.13.17.12.42-.03.57-.09.09-.2.13-.32.13h0Z"/>
  <path class="cls-19" d="M16.05,31.15c-.11,0-.22-.07-.27-.18-.99-2.31-2.57-4.36-2.59-4.38-.1-.13-.08-.31.05-.41s.31-.08.41.05c.07.09,1.65,2.13,2.67,4.51.06.15,0,.32-.15.38-.04.02-.08.02-.11.02h0Z"/>
  <path class="cls-19" d="M13.16,32.08c-.12,0-.23-.07-.27-.19-.83-2.11-1.1-4.87-1.11-4.99-.02-.16.1-.3.26-.32.16-.01.3.1.32.26,0,.03.28,2.8,1.08,4.84.06.15-.02.32-.17.38-.03.01-.07.02-.11.02h0Z"/>
</svg>