<?xml version="1.0" encoding="UTF-8"?>
<svg id="Vrstva_1" data-name="Vrstva 1" xmlns="http://www.w3.org/2000/svg" viewBox="0 0 35.92 36.14">
  <defs>
    <style>
      .cls-1 {
        fill: #1d1d1b;
      }
    </style>
  </defs>
  <path class="cls-1" d="M35.24,18.81c-1.96,9.55-10.68,17.29-17.29,17.29S2.64,33.26.67,18.81C-1.29,4.36.57-3.38,17.96,1.52c17.39,4.91,19.25,7.74,17.29,17.29Z"/>
  <path class="cls-1" d="M17.96,36.14c-6.83,0-15.39-3.01-17.33-17.33C.02,14.32-.14,11.02.13,8.43.44,5.4,1.36,3.27,2.93,1.9,4.29.72,6.13.1,8.55.01c2.51-.09,5.6.39,9.42,1.46,9.19,2.59,13.65,4.53,15.92,6.92,2.43,2.56,2.36,5.76,1.4,10.43-.92,4.5-3.38,8.85-6.92,12.25-3.35,3.23-7.15,5.08-10.42,5.08ZM9.18.1c-.21,0-.42,0-.62.01-2.4.09-4.21.7-5.56,1.87C.1,4.49-.56,9.37.72,18.8c1.93,14.25,10.44,17.24,17.24,17.24,3.24,0,7.01-1.84,10.35-5.05,3.52-3.39,5.97-7.72,6.89-12.2h.05s-.05,0-.05,0c1.92-9.32.47-12.23-17.25-17.23C14.44.58,11.56.1,9.18.1Z"/>
</svg>