<?xml version="1.0" encoding="UTF-8"?>
<svg id="Vrstva_1" data-name="Vrstva 1" xmlns="http://www.w3.org/2000/svg" viewBox="0 0 39.07 40.99">
  <defs>
    <style>
      .cls-1 {
        fill: #373d3a;
      }

      .cls-2 {
        fill: #68aa31;
      }

      .cls-3 {
        opacity: .5;
      }
    </style>
  </defs>
  <g class="cls-3">
    <path class="cls-2" d="M38.1,17.52c-1.64,4.72-5.14,8.64-9.28,11.44-6.13,4.13-14.34,6.1-21.76,5.18-3.6-1.57-5.98-5.8-5.74-9.84.29-4.85,3.62-9.11,7.7-11.73,4.09-2.62,8.89-3.87,13.62-4.97,4.73-1.1,9.55-2.13,13.84-4.4,2.86,4.09,3.26,9.62,1.61,14.34Z"/>
  </g>
  <path class="cls-1" d="M33.24.06c-3.76,2.45-8.14,3.91-12.38,5.32-.3.1-.61.2-.91.3-4.77,1.59-9.37,3.27-13.21,6.27C2.38,15.37-.14,20.12,0,24.67c.07,2.04.79,4.14,2.03,5.9,1.14,1.62,2.67,2.85,4.33,3.53-.43,2.23-.37,4.44.17,6.61.05.2.25.33.46.28,0,0,0,0,0,0,.21-.05.33-.26.28-.46-.51-2.04-.56-4.12-.17-6.21,2.6.07,5.31-.21,7.99-.83,1.1-.25,2.2-.57,3.28-.93,3.73-1.26,7.21-3.16,10.06-5.49,2.03-1.66,3.77-3.54,5.16-5.57,1.5-2.19,2.56-4.5,3.15-6.88,0,0,0,0,0,0,.62-2.5.68-5.13.2-7.62-.51-2.6-1.62-4.97-3.21-6.85-.12-.15-.34-.18-.5-.07ZM36.01,14.42c-1.09,4.41-3.95,8.68-8.05,12.04-2.78,2.27-6.17,4.13-9.82,5.36-3.57,1.21-7.32,1.8-10.87,1.72.35-1.47.92-2.96,1.72-4.44.24-.45.5-.9.78-1.36.37-.05.73-.11,1.09-.2,2.44-.56,4.69-1.91,6.3-3.81.14-.16.12-.4-.04-.54s-.4-.12-.54.04c-1.59,1.87-3.83,3.16-6.25,3.64,1.64-2.43,3.87-4.88,6.66-7.33.5-.09,1-.19,1.49-.31,2.38-.55,4.69-1.35,6.76-2.34.19-.09.27-.32.18-.51-.09-.19-.32-.27-.51-.18-2.04.99-4.34,1.77-6.71,2.31,2.15-1.79,4.59-3.58,7.33-5.37.18-.12.23-.35.11-.53-.12-.18-.35-.23-.53-.11-3.1,2.03-5.83,4.06-8.19,6.09.7-2.23,1.78-4.15,3.18-5.62.15-.15.14-.4-.01-.54-.15-.15-.4-.14-.54.01-1.72,1.8-2.99,4.24-3.68,7.08-3.4,3.09-5.93,6.16-7.55,9.21-.14.27-.28.54-.41.8-.41-2.92.33-5.96,2.07-8.34.12-.17.09-.41-.08-.54-.17-.12-.41-.09-.54.08-2.08,2.85-2.83,6.59-2,10.03-.34.85-.62,1.71-.83,2.56-1.48-.63-2.84-1.75-3.87-3.21-1.16-1.64-1.83-3.58-1.89-5.48-.14-4.31,2.27-8.82,6.44-12.08,3.75-2.93,8.28-4.58,12.98-6.15.3-.1.61-.2.91-.3,4.18-1.39,8.49-2.82,12.27-5.22,2.83,3.52,3.84,8.67,2.64,13.53Z"/>
</svg>