<?xml version="1.0" encoding="UTF-8"?>
<svg id="Vrstva_1" data-name="Vrstva 1" xmlns="http://www.w3.org/2000/svg" viewBox="0 44 202.95 50">
  <defs>
    <style>
      .cls-1 {
        fill: #68aa31;
      }

      .cls-2 {
        fill: #ffffff;
      }
    </style>
  </defs>
  <path class="cls-2" d="M134.33,78.25c2.75,0,4.1.12,4.1,1.32,0,.85-.12,2.17-.97,2.25-3.14.35-16.56.35-19.77.31-.85-.66-1.28-1.78-1.28-2.83v-22.43c0-.19.16-1.36.66-1.59,1.74,0,5.78-.16,7.64-.16s3.41-.04,3.41,1.94c0,.23-.12,2.09-.31,2.09l-7.6.04v7.1c1.32.15,2.71.35,4.07.62.62.19.43,3.3-.31,3.3h-3.76v8.04M7.04,73.5c1.32,0,2.48,4.54,4.11,4.54,1.2,0,2.68-.54,2.68-1.94,0-1.24-.85-3.02-1.71-3.88-2.33-3.61-6.28-6.01-6.28-10.62,0-3.88,3.26-6.47,6.94-6.47,2.83,0,5.35,1.08,5.35,4.19,0,.97-.08,1.67-1.4,1.67-1.98,0-1.86-1.98-3.76-1.98-1.63,0-3.18,1.24-3.18,2.87,0,4.26,7.99,7.87,7.99,13.42,0,3.68-2.56,6.67-6.48,6.67-2.75,0-4.65-1.43-5.82-3.92-.31-.66-1.01-1.94-1.01-2.75s1.82-1.78,2.56-1.78ZM20.46,80.69v-26.32c0-1.28.23-2.02,1.55-2.02,1.2,0,2.48.19,2.48,1.67v24.23h13.61c.58.16,1.09.58,1.09,1.43s-.27,1.75-.85,1.98c-.39.19-12.37.66-13.92.66-.47,0-2.48-.19-2.91-.27-.31-.23-1.05-.97-1.05-1.36ZM39.09,54c5.85,0,6.2,8.57,6.2,12.64.23,3.49.35,8.68.35,9.11,0,1.55-.08,12.59-.35,12.59-1.01.62-2.02.85-2.83,0-.62-.66-.85-14.14-.89-15.46l-6.01.5c0,1.82.07.52.07,2.26,0,.39-.12,1.16-.66,1.16h-2.48c-1.32,0-1.04-5.95-1.04-9.63v-.5c0-4.92,1.55-12.68,7.64-12.68ZM35.56,69.16l6.01-.35c-.12-3.3,0-10.31-2.52-10.35-3.8-.08-3.96,4.96-3.49,10.7ZM56.38,54c3.1,0,5.51,2.29,5.51,5.35,0,.89-.04,2.21-1.24,2.21-3.14,0-1.32-3.96-4.27-3.8-3.88,0-4.5,8.26-4.5,11.05,0,2.44.66,8.72,4.11,8.72,2.29.19,2.99-6.86,4.27-7.56.12-.04,1.59.08,2.05.93,0,.16.04.85.04,1.01,0,4.19-2.06,9.42-6.98,9.42-5.97,0-7.52-7.41-7.52-12.14s1.82-15.2,8.53-15.2ZM67.93,71.18c-.19,4.38-.5,10.78-.93,10.78-.71,0-1.43,0-2.14,0-.07,0-.24.04-.43-.05-.17-.08-.3-.24-.42-.53-.23-.55-.21-1.03-.21-1.03s.05-1.25.23-7.6c0,0,.02-.63.05-1.9.02-.66.04-1.31.05-1.97.02-.67.04-1.33.05-2,.02-.66.04-1.32.05-1.99.02-.65.03-1.29.05-1.94.02-.62.03-1.24.05-1.86.02-.58.03-1.16.05-1.74.01-.53.03-1.05.04-1.58.01-.46.02-.92.04-1.38.01-.38.02-.76.03-1.15,0-.29.02-.58.02-.87,0-.19.01-.38.02-.56,0-.07,0-.14,0-.22.12-.74.31-1.24,1.12-1.24.35,0,2.36.31,2.36.93l-.31,12.62c3.1-3.02,4.77-8.18,7.37-11.86.12,0,.54-.04.62-.04.85,0,2.56.74,2.56,1.86,0,.78-3.18,6.09-5.32,8.76l-.35.58s1.28,4.22,1.59,4.88c1.47,3.22,5.19,11.45,6.58,14.74.27.66.97,1.63.97,2.52,0,1.01-1.78,1.55-2.52,1.55h-.08c-.27,0-.39,0-.58-.31l-8.79-19.59s-1.36,1.55-1.86,2.17ZM81.75,80.69v-26.34c0-1.28.23-2.02,1.55-2.02,1.2,0,2.48.19,2.48,1.67v24.25h20.14c.58.16,1.09.58,1.09,1.43s-.27,1.75-.85,1.98c-.39.19-18.9.66-20.45.66-.47,0-2.48-.19-2.91-.27-.31-.23-1.05-.97-1.05-1.36ZM97.06,56.52c0,7.6-.16,11.43-.62,19.37-.31.74-.78.93-1.55.93h-.08c-.54,0-2.13,0-2.13-.58l.35-16.23c.04-2.17.12-4.89,1.47-4.89,1.05,0,2.21.35,2.56,1.4ZM99.38,56.25c0-1.32,2.87-1.51,4.03-.43,2.56,2.4,5.82,12.67,7.06,15.66v-1.12c0-.43-.04-.89-.04-1.36-.08-4.42-.16-12.77,0-15.99.26-.54.6-.7,1.43-.66,1.16-.03,1.63-.03,2.22.66,0,7.06-.39,17.58-.39,24.64,0,.89.04,1.82.04,2.71,0,.5-.43,1.2-.62,1.24h-2.33c-.85,0-2.02-4.15-2.37-4.96-1.59-3.57-3.76-11.9-5.46-14.77-.23,3.49.46,12.72-.2,14.51-.97.7-2.91.47-3.37,0v-20.13Z"/>
  <g>
    <path class="cls-1" d="M130.95,64.8c0-3.03.04-11.34.04-13.82s1.51-2.52,1.86-2.52c1.98,0,1.98,3.34,1.98,4.74,0,1.71.08,11.18.31,13.94l2.79-.31c.16,0,2.1-.23,2.17-.31v-11.02c0-1.16.39-1.59,1.4-1.59,1.55,0,2.21.35,2.41,1.9.04,1.2.31,6.67.31,7.88,0,5.9.08,17.55-.27,21.81-.19.81-1.01.7-1.51.7s-1.82-.08-1.82-1.01l-.04-14.29s-.31-.23-.47-.31c-1.13,0-4.77.66-5.12.66h-.04l.07,4.39c0,.32-.15.62-.42.79-.48.3-1.07.49-1.59.49-.81,0-1.51-.43-1.59-1.44-.39-4.73-.47-5.83-.47-10.68Z"/>
    <path class="cls-1" d="M147.5,60.73c0-1.78,0-2.79.31-4.77.23-1.67,4.62-1.82,5.82-1.82,4.38,0,7.61,2.83,7.61,7.33,0,4.85-3.34,5.66-6.67,6.13,1.82,3.06,7.2,11.21,8.83,14.36-.12.81-1.36,1.55-2.1,1.55-1.51,0-8.88-11.86-10.02-15.27,0,0,0,0,0,0,.16,8.13.27,10.41.31,10.92,0,0,0,0,0,0-.27.58-1.75.62-2.33.62-.7,0-.89-.23-1.16-.93-.5-6.05-.58-12.07-.58-18.12ZM151.38,58.01v6.59s0,0,0,0c1.32,0,6.05-.43,6.28-2.83.23-2.52-1.98-4.07-4.38-4.07-.35,0-1.9.16-1.9.31Z"/>
    <path class="cls-1" d="M172.31,55.06c5.39,0,6.32,6.17,6.32,10.52,0,3.88.23,17.15-7.72,17.15-6.36,0-7.37-7.1-7.37-11.76,0-5.55.62-15.91,8.77-15.91ZM167.27,70.12c0,4.62,1.16,8.92,3.65,8.92,2.75,0,4.23-6.01,4.23-11.49,0-4.54-1.01-8.73-3.18-8.77-3.07,0-4.7,5.9-4.7,11.33Z"/>
    <path class="cls-1" d="M182.4,55.69c.35-.04.66-.08.97-.08,1.94,0,2.68,1.09,2.68,1.28-.12,2.37-.31,5.62-.31,9.27,0,4.89.78,11.87,4,11.87,4.07,0,4.58-9.62,4.58-15.17,0-1.7-.03-3.41-.05-5.11-.02-1.7-.1-3.42-.06-5.12,0-.32,0-.61.03-.91.06-.52.51-.9,1.03-.9.81,0,1.62,0,2.42,0,.78,0,.78,9.32.78,12.5,0,5.47,0,18.55-9,18.55-7.95,0-7.88-12.41-7.88-17.38,0-1.09-.27-8.8.81-8.8Z"/>
  </g>
</svg>