<?xml version="1.0" encoding="UTF-8"?>
<svg id="Vrstva_1" data-name="Vrstva 1" xmlns="http://www.w3.org/2000/svg" xmlns:xlink="http://www.w3.org/1999/xlink" viewBox="0 0 283.51 92.45">
  <defs>
    <style>
      .cls-1 {
        fill: #fefbfc;
      }

      .cls-2 {
        fill: #ecc18e;
      }

      .cls-3 {
        fill: #fff;
      }

      .cls-4 {
        fill: #68a930;
      }

      .cls-5 {
        fill: none;
      }

      .cls-6 {
        fill: #f5ddc1;
      }

      .cls-7 {
        fill: #b589a6;
      }

      .cls-8 {
        fill: #f3d7b5;
      }

      .cls-9 {
        fill: #c68e7b;
      }

      .cls-10 {
        fill: #e59147;
      }

      .cls-11 {
        fill: #b75c27;
      }

      .cls-12 {
        fill: #381b15;
      }

      .cls-13 {
        fill: #d7eefb;
      }

      .cls-14 {
        fill: #bad27a;
      }

      .cls-15 {
        fill: #64140e;
      }

      .cls-16 {
        fill: #b3428b;
      }

      .cls-17 {
        fill: #967660;
      }

      .cls-18 {
        clip-path: url(#clippath);
      }
    </style>
    <clipPath id="clippath">
      <path class="cls-5" d="M155.62,58.79c.38-3.38.3-7.76-.73-9.82-.79-1.59-2.21-2.35-3.61-2.35-.36,0-.71.05-1.05.15-.82.24-1.58.91-2.15,1.55.17-.59.4-.97.83-1.44.7-.76,1.9-1.24,3.05-1.24.13,0,.26,0,.39.02.71.07,1.68.38,2.31,1.42,1.33,2.21,2.36,6.8.95,11.71"/>
    </clipPath>
  </defs>
  <g>
    <g>
      <path class="cls-12" d="M37.19,40.83l-.15-3.63c-.05-1.29.68-2.32,1.9-2.84,5.16-2.2,11.72-.24,11.66,2.06l-.11,4.47c.56.23,1.04.55,1.35,1.07,1.03-.11,1.92.29,2.47,1.16h3.2v6.15l-3.52-.02c-1.34,2.04-2.85.7-3.92,1.79l-.25,5.78c-.59.88-1.43,1.3-2.4,1.68-2.95,1.21-9.4.14-9.51-1.73l-.37-6.08c-1.91-.94-2.45-3.17-1.52-5.03-.98-1.73-.71-4.01,1.17-4.86Z"/>
      <path class="cls-4" d="M57.5,45.2v2.7h-3.34v-2.68"/>
      <path class="cls-14" d="M54.16,44.48h3.34v1.04h-3.34v-1.04Z"/>
      <path class="cls-11" d="M45.5,57.51l.3-.17v-3.71c.34-.42,1.03-1.26.35-1.57-2.49.03-4.85,0-7.27-.78l.24,5.17c1.9,1.2,4.2,1.39,6.38,1.06Z"/>
      <path class="cls-10" d="M38.44,37.46c.49,1.2,2.63,1.57,3.85,1.72,1.85.23,4.59.08,6.16-.98.49-.33.7-.52.83-1.14.14-2.38-7.06-2.95-9.95-1.44-.82.41-1.16,1.03-.9,1.84Z"/>
      <path class="cls-11" d="M38.44,37.46l.16,4.47c2.26,1.02,4.72,1.15,7.11.92l.29-.28c.09-.78.19-1.55.3-2.31.78-.07,1.53-.29,2.25-.66.36-.12.53-.33.62-.69l.11-1.85c-1.85,2.54-8.39,2.44-10.84.4Z"/>
      <path class="cls-4" d="M50.97,43.08l-.36-.07c-2.53,1.76-6.34,2.12-9.29,1.5,0-.25-.02-.4-.31-.5-1.44-.28-2.79-.68-3.84-1.69-.5.79-.45,1.58-.14,2.43.18.5.87.93,1.58,1.23,3.43,1.43,7.36,1.37,10.78-.06,1.2-.51,1.8-1.6,1.58-2.84Z"/>
      <path class="cls-4" d="M46.4,48.01c.1.25.15.37.15.37-1.39.47-3.07.39-4.53.21-.74-.09-1.39-.2-1.8-.81-1.11-.32-2.07-.7-3.1-1.25-.59,1.29-.09,2.62,1.17,3.15,3.84,1.61,8.06,1.56,11.86-.19.34-.87.19-1.72.03-2.66-1.27.59-2.44.99-3.79,1.18Z"/>
      <path class="cls-10" d="M45.5,57.51h.03c1.07-.17,2.11-.43,2.98-1.16l.17-4.79c-1.06.28-2.08.48-3.13.51l-.05,5.44Z"/>
      <path class="cls-10" d="M45.72,42.86c1.12-.11,2.27-.34,3.31-.87l.15-3.07c-.93.62-2.33.92-3.45,1.16,0,1.11,0,1.88,0,2.78Z"/>
      <path class="cls-14" d="M41,44.01c.02.23-.03.46.04.62.36.78,7.74.73,9.92-1.56-.06-.36-.21-.63-.62-.72-.25.53-.69.85-1.25,1.04-2.6.9-5.39,1.14-8.1.61Z"/>
      <path class="cls-4" d="M51.86,44.92c-.72,2.1-.14,2.48-.27,4.25.44.08.77-.07,1.01-.3.66-.61-.07-2.14.34-3.67.03-.5-.83-.76-1.08-.28Z"/>
      <path class="cls-14" d="M40.66,47.88c1.89.38,3.79.41,5.74.13.28.04.47.18.46.4-.02.9-6.32.77-6.61-.16-.04-.13-.02-.29-.03-.46l.44.1Z"/>
      <path class="cls-14" d="M51.86,44.92c.4-.03.7.18,1.08.28.1-.39.25-.79.18-1.19-.06-.36-.32-.7-.89-.75-.06.56-.18,1.1-.37,1.67Z"/>
    </g>
    <g>
      <path class="cls-12" d="M246.32,40.83l.15-3.63c.05-1.29-.68-2.32-1.9-2.84-5.16-2.2-11.72-.24-11.66,2.06l.11,4.47c-.56.23-1.04.55-1.35,1.07-1.03-.11-1.92.29-2.47,1.16h-3.7v6.15l4.02-.02c1.34,2.04,2.85.7,3.92,1.79l.25,5.78c.59.88,1.43,1.3,2.4,1.68,2.95,1.21,9.4.14,9.51-1.73l.37-6.08c1.91-.94,2.45-3.17,1.52-5.03.98-1.73.71-4.01-1.17-4.86Z"/>
      <path class="cls-4" d="M225.51,45.2v2.7h3.84v-2.68"/>
      <path class="cls-14" d="M229.35,44.48h-3.84v1.04h3.84v-1.04Z"/>
      <path class="cls-11" d="M238.01,57.51l-.3-.17v-3.71c-.34-.42-1.03-1.26-.35-1.57,2.49.03,4.85,0,7.27-.78l-.24,5.17c-1.9,1.2-4.2,1.39-6.38,1.06Z"/>
      <path class="cls-10" d="M245.07,37.46c-.49,1.2-2.63,1.57-3.85,1.72-1.84.23-4.59.08-6.16-.98-.49-.33-.7-.52-.83-1.14-.14-2.38,7.06-2.95,9.95-1.44.82.41,1.16,1.03.9,1.84Z"/>
      <path class="cls-11" d="M245.07,37.46l-.16,4.47c-2.26,1.02-4.72,1.15-7.11.92l-.29-.28c-.09-.78-.19-1.55-.3-2.31-.78-.07-1.53-.29-2.25-.66-.36-.12-.53-.33-.62-.69l-.11-1.85c1.85,2.54,8.39,2.44,10.84.4Z"/>
      <path class="cls-4" d="M232.54,43.08l.36-.07c2.53,1.76,6.34,2.12,9.29,1.5,0-.25.02-.4.31-.5,1.44-.28,2.79-.68,3.84-1.69.5.79.45,1.58.14,2.43-.18.5-.87.93-1.58,1.23-3.43,1.43-7.36,1.37-10.78-.06-1.2-.51-1.8-1.6-1.58-2.84Z"/>
      <path class="cls-4" d="M237.11,48.01c-.1.25-.15.37-.15.37,1.39.47,3.07.39,4.53.21.74-.09,1.39-.2,1.8-.81,1.11-.32,2.07-.7,3.1-1.25.59,1.29.09,2.62-1.17,3.15-3.84,1.61-8.06,1.56-11.86-.19-.34-.87-.19-1.72-.03-2.66,1.27.59,2.44.99,3.79,1.18Z"/>
      <path class="cls-10" d="M238.01,57.51h-.03c-1.07-.17-2.11-.43-2.98-1.16l-.17-4.79c1.06.28,2.08.48,3.13.51l.05,5.44Z"/>
      <path class="cls-10" d="M237.79,42.86c-1.12-.11-2.27-.34-3.31-.87l-.15-3.07c.93.62,2.33.92,3.45,1.16,0,1.11,0,1.88,0,2.78Z"/>
      <path class="cls-14" d="M242.51,44.01c-.02.23.03.46-.04.62-.36.78-7.74.73-9.92-1.56.06-.36.21-.63.62-.72.25.53.69.85,1.25,1.04,2.6.9,5.39,1.14,8.1.61Z"/>
      <path class="cls-4" d="M231.65,44.92c.72,2.1.14,2.48.27,4.25-.44.08-.77-.07-1.01-.3-.66-.61.07-2.14-.34-3.67-.03-.5.83-.76,1.08-.28Z"/>
      <path class="cls-14" d="M242.85,47.88c-1.89.38-3.79.41-5.74.13-.28.04-.47.18-.46.4.02.9,6.32.77,6.61-.16.04-.13.02-.29.03-.46l-.44.1Z"/>
      <path class="cls-14" d="M231.65,44.92c-.41-.03-.7.18-1.08.28-.1-.39-.25-.79-.18-1.19.06-.36.32-.7.89-.75.06.56.18,1.1.37,1.67Z"/>
    </g>
    <g>
      <rect class="cls-12" x="57.5" y="43.13" width="168.01" height="1.35"/>
      <rect class="cls-14" x="57.5" y="44.48" width="168.01" height="1.04"/>
      <rect class="cls-4" x="57.5" y="45.52" width="168.01" height="2.37"/>
      <rect class="cls-12" x="57.5" y="47.89" width="168.01" height="1.4"/>
    </g>
  </g>
  <g>
    <path class="cls-16" d="M174.51,52.55s0,0,0,0l.03-.02s0,0,0,0c0,0-.01,0-.02.01,0,0-.01,0-.02.01"/>
    <path class="cls-3" d="M150.56,46.1c0,1.49-.68,2.7-1.52,2.7s-1.52-1.21-1.52-2.7.68-2.7,1.52-2.7,1.52,1.21,1.52,2.7"/>
    <path class="cls-3" d="M155.81,46.57c0,1.49-.68,2.7-1.52,2.7s-1.52-1.21-1.52-2.7.68-2.7,1.52-2.7,1.52,1.21,1.52,2.7"/>
    <path class="cls-15" d="M149.04,43.89c-.49,0-1.03.95-1.03,2.21s.54,2.21,1.03,2.21,1.03-.95,1.03-2.21-.54-2.21-1.03-2.21M149.04,49.3c-1.13,0-2.01-1.4-2.01-3.19s.88-3.19,2.01-3.19,2.01,1.4,2.01,3.19-.88,3.19-2.01,3.19"/>
    <path class="cls-15" d="M154.29,44.36c-.48,0-1.03.95-1.03,2.21s.54,2.21,1.03,2.21,1.03-.95,1.03-2.21-.54-2.21-1.03-2.21M154.29,49.77c-1.13,0-2.01-1.4-2.01-3.19s.88-3.19,2.01-3.19,2.01,1.4,2.01,3.19-.88,3.19-2.01,3.19"/>
    <path class="cls-3" d="M153.2,45.37c0,1.49-.69,2.7-1.54,2.7s-1.54-1.21-1.54-2.7.69-2.7,1.54-2.7,1.54,1.21,1.54,2.7"/>
    <path class="cls-15" d="M151.66,43.16c-.49,0-1.05.95-1.05,2.21s.55,2.21,1.05,2.21,1.05-.95,1.05-2.21-.55-2.21-1.05-2.21M151.66,48.56c-1.14,0-2.03-1.4-2.03-3.19s.89-3.19,2.03-3.19,2.03,1.4,2.03,3.19-.89,3.19-2.03,3.19"/>
    <path class="cls-3" d="M162.04,46.32c.73,1.3.73,2.69,0,3.1-.73.41-1.92-.31-2.65-1.62-.73-1.3-.73-2.69,0-3.1.73-.41,1.92.31,2.65,1.62h0Z"/>
    <path class="cls-3" d="M166.8,43.66c.73,1.3.73,2.69,0,3.1-.73.41-1.91-.32-2.64-1.62-.73-1.3-.73-2.69,0-3.1.73-.41,1.92.32,2.64,1.62h0Z"/>
    <path class="cls-15" d="M159.85,45.08c-.08,0-.16.02-.22.05-.42.24-.44,1.33.18,2.43.62,1.1,1.55,1.67,1.98,1.43.42-.24.44-1.33-.18-2.43h0c-.31-.55-.73-1.01-1.15-1.27-.23-.14-.44-.21-.61-.21h0ZM161.58,50.02c-.89,0-1.94-.75-2.63-1.98-.87-1.56-.79-3.22.2-3.77.52-.29,1.16-.23,1.82.18.57.35,1.1.93,1.49,1.63.87,1.56.79,3.22-.2,3.77-.21.12-.44.17-.69.17h0Z"/>
    <path class="cls-15" d="M164.62,42.41c-.08,0-.16.02-.23.05-.19.11-.3.39-.3.79,0,.5.18,1.09.48,1.64.62,1.11,1.55,1.67,1.98,1.43.42-.24.43-1.33-.18-2.43-.52-.94-1.28-1.48-1.75-1.48h0ZM166.35,47.36c-.89,0-1.94-.75-2.63-1.98-.39-.7-.61-1.46-.61-2.13,0-.77.29-1.35.8-1.64.98-.55,2.44.24,3.31,1.81.87,1.56.79,3.22-.19,3.77-.21.12-.44.17-.69.17h0Z"/>
    <path class="cls-3" d="M163.83,43.94c.73,1.3.72,2.7-.02,3.11-.74.41-1.93-.31-2.66-1.61-.73-1.3-.72-2.7.02-3.11.74-.41,1.93.31,2.66,1.61h0Z"/>
    <path class="cls-15" d="M161.64,42.7c-.09,0-.17.02-.23.05-.19.11-.31.4-.31.8,0,.5.17,1.1.48,1.64.31.55.73,1.01,1.15,1.27.34.21.65.26.84.15.19-.11.31-.4.31-.8,0-.5-.17-1.1-.48-1.64h0c-.31-.55-.73-1.01-1.15-1.27-.23-.14-.44-.21-.61-.21h0ZM163.34,47.66c-.35,0-.74-.12-1.12-.35-.57-.35-1.11-.93-1.5-1.63-.39-.7-.61-1.46-.6-2.13,0-.77.29-1.36.81-1.65.52-.29,1.17-.23,1.83.17.57.35,1.11.93,1.5,1.63h0c.39.7.61,1.46.6,2.13,0,.77-.29,1.36-.81,1.65-.22.12-.46.18-.71.18h0Z"/>
    <path class="cls-2" d="M175.4,72.83c-2.51,18.04-29.22,22.29-41.52,9.71-.65-.66-1.25-1.37-1.81-2.12-6.03-8.11,6.91-17.63,6.91-17.63,0,0,5.9-.81,7.54-7.39.11-.44.2-.92.27-1.41.32-2.36.46-3.82.62-4.83.2-1.28.44-1.85,1.14-2.61,1.46-1.6,5.03-2.22,6.53.28,1.49,2.49,2.87,8.5.08,14.6-.35.77-.76,1.54-1.25,2.3,7.39.82,9.26-1.77,9.26-1.77.31-1.94.06-6.1-1.83-11.23-2-5.44,2.35-7.56,5.19-6.35,8.86,3.8,9.65,22.79,8.86,28.45"/>
    <g class="cls-18">
      <rect class="cls-8" x="148.09" y="45.63" width="8.94" height="13.15"/>
    </g>
    <path class="cls-9" d="M152.43,89.28c-7.68,0-15.01-3.08-19.41-8.44,4.24-2.51,7.78-7.51,10.21-13.72,1.08-2.75,1.83-5.47,2.22-8.06.42-.62.8-1.33,1.11-2.15-.01,3.04-.54,6.35-1.53,9.74-1.13,3.88-2.7,7.35-4.65,10.13-1.54,2.2-.55,5.27,1.98,6.17,3.08,1.1,6.39,1.65,9.67,1.65,10.83,0,21.45-5.88,22.98-16.93.03-.2.05-.41.08-.64.08,2.49-.02,4.55-.19,5.74-1.05,7.59-6.8,13.43-15.38,15.62-2.35.6-4.75.89-7.11.89"/>
    <path class="cls-15" d="M139.19,63.25c-.85.65-7.3,5.76-8.14,11.33-.3,2.01.18,3.88,1.42,5.54,5.59,7.51,16.72,10.91,27.07,8.26,8.58-2.2,14.33-8.04,15.38-15.62.67-4.85.24-24.15-8.57-27.93-1.32-.57-2.95-.29-3.96.66-1.16,1.1-1.36,2.9-.57,5.06,1.89,5.14,2.18,9.39,1.85,11.47l-.02.12-.07.1c-.08.11-2.13,2.8-9.72,1.97l-.79-.09.43-.67c4.14-6.45,2.91-13.47,1.16-16.38-.63-1.05-1.6-1.35-2.31-1.42-1.25-.13-2.67.37-3.44,1.22-.86.94-.93,1.5-1.26,4.2-.09.79-.21,1.77-.38,2.98-.58,4.25-2.78,6.53-4.52,7.7-1.61,1.08-3.12,1.42-3.57,1.51M152.42,90.25c-2.72,0-5.44-.36-8.01-1.09-5.33-1.5-9.74-4.42-12.73-8.45-1.4-1.89-1.94-4-1.6-6.28.95-6.34,8.3-11.81,8.62-12.04l.1-.07.12-.02c.26-.04,6.37-.99,7.39-8.39.16-1.2.28-2.17.38-2.96.33-2.74.43-3.57,1.51-4.75.99-1.08,2.7-1.69,4.27-1.53,1.32.13,2.4.81,3.05,1.9,1.81,3.01,3.11,10.1-.76,16.74,5.61.46,7.59-1.19,7.97-1.57.28-2.01-.04-5.99-1.82-10.84-1.27-3.45-.03-5.31.81-6.11,1.29-1.22,3.35-1.57,5.03-.85,4.99,2.14,7.29,8.73,8.34,13.88,1.27,6.25,1.18,12.45.82,15.09-1.11,7.99-7.13,14.14-16.11,16.44-2.38.61-4.87.91-7.36.91"/>
    <path class="cls-2" d="M137.81,42.23c8.93,3.5,9.69,13.98,5.42,24.89-4.27,10.9-11.95,18.08-20.88,14.59-8.55-3.35-16.15-12.73-12.04-25.56-.18-1.82-.71-4.39-2.24-6.32-.48-.6-.03-1.48.74-1.45,1.02.05,2.32.24,3.62,1.45-.16-1.99-.43-4.02-.71-4.76-.3-.79.5-1.56,1.28-1.22.75.33,2.26,1.23,3.49,2.08,6.2-5.85,14.76-6.27,21.33-3.7"/>
    <path class="cls-13" d="M116.47,78.25s0,0,0,0c0,0,0,0,0,0M116.46,78.24c-5.51-4.52-9.08-11.99-6.37-21.37-2.71,9.38.86,16.85,6.37,21.37M110.09,56.87s0-.01,0-.02c0,0,0,.01,0,.02M110.1,56.85s.01-.04.02-.05c0,.02-.01.04-.02.05M110.11,56.8s0-.01,0-.02c0,0,0,.01,0,.02M110.12,56.78s.01-.04.02-.06c0,.02-.01.04-.02.06M110.14,56.72s0-.01,0-.02c0,0,0,.01,0,.02M110.14,56.7s0-.01,0-.02c0,0,0,.01,0,.02M110.15,56.69s0-.02.01-.04c0,.01,0,.02-.01.04M110.16,56.65s0,0,0-.01c0,0,0,0,0,.01M110.16,56.63s0-.01,0-.02c0,0,0,.01,0,.02M110.17,56.61s0-.02.01-.04c0,.01,0,.02-.01.04M110.18,56.57s0,0,0-.01c0,0,0,0,0,.01M110.19,56.55s0,0,0-.01c0,0,0,0,0,.01M110.19,56.54s0-.02.01-.03c0,.01,0,.02-.01.03M110.2,56.5s0,0,0-.01c0,0,0,0,0,.01M110.21,56.48s0-.01,0-.01c0,0,0,.01,0,.01M110.21,56.46s0-.02.01-.04c0,.01,0,.02-.01.04M110.23,56.42s0,0,0-.01c0,0,0,0,0,.01M110.23,56.4s0,0,0-.01c0,0,0,0,0,.01M110.24,56.39s0-.02.01-.03c0,.01,0,.02-.01.03M110.25,56.35s0,0,0-.01c0,0,0,0,0,.01M110.25,56.33s0,0,0-.01c0,0,0,0,0,.01M110.26,56.31s0-.02.01-.03c0,.01,0,.02-.01.03M110.27,56.27s0,0,0-.01c0,0,0,0,0,.01M110.28,56.25s0,0,0-.01c0,0,0,0,0,.01M110.28,56.24s0-.02.01-.03c0,.01,0,.02-.01.03M110.3,56.2s0,0,0-.01c0,0,0,0,0,.01M110.3,56.18s0,0,0-.01c0,0,0,0,0,.01M110.31,56.16s0-.01,0-.02c0,0,0,.01,0,.02"/>
    <path class="cls-6" d="M117.48,79.03c-.34-.25-.68-.51-1-.78,0,0,0,0,0,0h0c-5.51-4.52-9.08-11.99-6.37-21.37h0s0-.01,0-.02h0s.01-.04.02-.06h0s0-.01,0-.02h0s.01-.04.02-.06h0s0-.01,0-.02c0,0,0,0,0,0,0,0,0-.01,0-.02,0,0,0,0,0,0,0-.01,0-.02.01-.04,0,0,0,0,0,0,0,0,0,0,0-.01,0,0,0,0,0,0,0,0,0-.01,0-.02,0,0,0,0,0,0,0-.01,0-.02.01-.04,0,0,0,0,0,0,0,0,0,0,0-.01,0,0,0,0,0,0,0,0,0,0,0-.01,0,0,0,0,0,0,0-.01,0-.02.01-.03,0,0,0,0,0,0,0,0,0,0,0-.01,0,0,0,0,0,0,0,0,0-.01,0-.01,0,0,0,0,0,0,0-.01,0-.02.01-.04,0,0,0,0,0,0,0,0,0,0,0-.01,0,0,0,0,0,0,0,0,0,0,0-.01,0,0,0,0,0,0,0-.01,0-.02.01-.03,0,0,0,0,0,0,0,0,0,0,0-.01,0,0,0,0,0,0,0,0,0,0,0-.01,0,0,0,0,0,0,0-.01,0-.02.01-.03,0,0,0,0,0,0,0,0,0,0,0-.01,0,0,0,0,0,0,0,0,0,0,0-.01,0,0,0,0,0,0,0-.01,0-.02.01-.03,0,0,0,0,0,0,0,0,0,0,0-.01,0,0,0,0,0,0,0,0,0,0,0-.01,0,0,0,0,0,0,0,0,0-.01,0-.02h0c-.18-1.82-.71-4.39-2.24-6.32-.14-.17-.2-.37-.2-.56,0-.46.36-.89.89-.89.02,0,.03,0,.05,0,1.02.05,2.32.24,3.62,1.45h0c-.16-1.99-.43-4.02-.71-4.76-.04-.12-.06-.23-.06-.34,0-.52.44-.96.96-.96.12,0,.25.03.38.08.75.33,2.26,1.23,3.49,2.08,3.89-3.67,8.71-5.2,13.37-5.2,2.78,0,5.5.54,7.95,1.5,0,0,.01,0,.02,0,0,0,0,0,0,0,0,0,0,0,.01,0,0,0,0,0,0,0,0,0,.01,0,.02,0,0,0,0,0,0,0,0,0,0,0,.01,0,0,0,0,0,0,0,0,0,0,0,.01,0,0,0,0,0,0,0,0,0,.01,0,.02,0,0,0,0,0,0,0,0,0,0,0,.01,0,0,0,0,0,0,0,0,0,0,0,.01,0,0,0,0,0,0,0,0,0,0,0,.01,0,0,0,0,0,0,0,0,0,0,0,0,0,0,0,0,0,0,0,0,0,0,0,0,0,0,0,0,0,0,0,0,0,0,0,.01,0,0,0,0,0,0,0,0,0,0,0,0,0,0,0,0,0,0,0,0,0,0,0,0,0,0,0,0,0,.01,0,0,0,0,0,0,0,0,0,0,0,0,0,0,0,0,0,0,0,0,0,0,0,0,0,0,0,0,0,0,0,0,0,.01,0,.02,0,0,0,0,0,0,0,0,0,0,0,.01,0,0,0,0,0,0,0,0,0,0,0,.01,0,0,0,0,0,0,0,.01,0,.02.01.04.02,0,0,0,0,0,0,.44.19.86.39,1.26.61,0,0,0,0,0,0,0,0,0,0,0,0,0,0,0,0,0,0,0,0,0,0,0,0,0,0,0,0,.01,0,0,0,0,0,0,0,0,0,0,0,.01,0,0,0,0,0,0,0,.8.45,1.51.96,2.14,1.54-.77-.52-1.62-.97-2.57-1.34-2.31-.9-4.93-1.39-7.64-1.39-4.54,0-9.32,1.37-13.17,4.47-.38.3-.83.46-1.29.46-.39,0-.79-.11-1.13-.35-.84-.56-1.64-1.07-2.13-1.29-.17-.07-.32-.11-.44-.11-.42,0-.52.43-.29,1.04.22.58.43,1.94.59,3.46.04.36-.25.64-.57.64-.09,0-.19-.02-.28-.08-.96-.56-1.88-.68-2.64-.72-.04,0-.08,0-.12,0-.68,0-.94.34-.25,1.2,1.02,1.28,1.43,2.97,1.64,4.49.17,1.21.08,2.45-.22,3.64-2.23,8.85,1.14,15.93,6.34,20.33"/>
    <path class="cls-1" d="M135.08,45.65c2.6,1.02,5.09,2.9,6.33,6.11,1.27,3.28,1.23,7.94-1.33,14.49h0c-2.53,6.47-5.63,9.92-8.76,11.49-3.12,1.57-6.27,1.27-8.9.24-.53-.21-1.04-.46-1.52-.74-4.22-2.51-6.12-7.78-4.27-12.51,1.01-2.58,2.96-4.53,5.3-5.59-1-2.37-1.11-5.12-.1-7.7,1.83-4.66,6.7-7.23,11.45-6.31h0c.6.12,1.21.29,1.8.52"/>
    <path class="cls-15" d="M130.28,59.64c.81.32,1.36,1.78.84,3.11-.52,1.33-1.92,2.03-2.73,1.71-.81-.32-.73-1.53-.21-2.86.52-1.33,1.28-2.28,2.09-1.96"/>
    <path class="cls-7" d="M128.59,62.79s-.04,0-.06-.01c-.19-.07-.1-.54.12-1.09.2-.5.42-.88.61-.88.02,0,.03,0,.05,0,.19.07.25.6.03,1.14-.19.49-.54.83-.75.83"/>
    <path class="cls-15" d="M130.79,67.31c-.13,0-.27-.01-.4-.03-.27-.04-.45-.29-.41-.56.04-.27.29-.45.56-.41.75.12,1.21-.25,1.34-1.09.24-1.49-1.4-2.2-1.47-2.23l.36-.91c.07.03,1.74.62,2.59-.64.47-.71.39-1.28-.24-1.71-.23-.15-.29-.46-.13-.68.15-.22.46-.28.68-.13.86.57,1.44,1.68.51,3.07-.51.76-1.23,1.09-1.93,1.2.44.55.75,1.29.61,2.19-.23,1.43-1.15,1.94-2.06,1.94h0Z"/>
    <path class="cls-15" d="M126.87,83.08c-1.55,0-3.12-.31-4.69-.92-4.54-1.78-8.36-4.97-10.76-9-2.79-4.67-3.46-10.16-1.95-15.87.07-.26.34-.42.6-.35.26.07.42.34.35.6-3.13,11.8,4.09,20.56,12.12,23.7,4.08,1.6,8.02.98,11.71-1.83,3.4-2.59,6.35-6.91,8.53-12.48,2.18-5.57,2.95-10.75,2.21-14.96-.8-4.57-3.27-7.69-7.35-9.29-5.83-2.28-14.37-2.52-20.87,3.65-.2.19-.51.18-.69-.02-.19-.2-.18-.51.02-.69,2.97-2.82,6.71-4.61,10.82-5.18,3.7-.52,7.53-.06,11.08,1.33,4.36,1.71,7.11,5.18,7.96,10.04.77,4.39-.02,9.74-2.26,15.48-2.25,5.74-5.31,10.2-8.85,12.9-2.51,1.92-5.21,2.88-7.97,2.88h0Z"/>
    <path class="cls-17" d="M127.59,65.19c2.66,1.51,2.43,4.04,2.46,7.47.02,2.15.62,3.87,1.27,5.08-3.12,1.57-6.27,1.27-8.9.24-.53-.21-1.04-.46-1.52-.74-1.13-2.46-1.79-5.9.24-9.68,1.49-2.77,4.53-3.45,6.44-2.36h0Z"/>
    <path class="cls-17" d="M135.08,45.65c2.6,1.02,5.09,2.9,6.33,6.11-1.28.46-2.85,1.31-4.29,2.84-2.35,2.5-3.9,4.51-6.88,3.81-2.14-.5-3.91-3.07-3.12-6.11,1.04-4.03,3.72-6.1,6.16-7.17h0c.6.12,1.21.29,1.8.52h0Z"/>
    <path class="cls-15" d="M109.94,57.91s-.06,0-.09,0c-.27-.05-.45-.3-.4-.57,0-.04.68-4.11-1.77-7.2-.34-.43-.4-1.01-.15-1.5.25-.49.75-.77,1.3-.74,2.23.11,3.78.94,4.46,2.38.12.24.01.54-.23.65-.24.12-.54.01-.65-.23-.66-1.38-2.34-1.75-3.63-1.82-.23-.01-.34.15-.38.21-.03.05-.11.24.05.44,2.73,3.45,2,7.8,1.97,7.98-.04.24-.25.41-.48.41h0Z"/>
    <path class="cls-15" d="M112.47,50.36s-.07,0-.11-.01c-.26-.06-.43-.32-.37-.59.24-1.04-.02-2.61-.73-4.52-.21-.56-.07-1.16.36-1.56.43-.41,1.03-.51,1.57-.28,1.7.73,2.91,1.49,3.6,2.25.18.2.17.51-.03.69-.2.18-.51.17-.69-.03-.59-.65-1.72-1.34-3.26-2.01-.26-.11-.45.04-.5.09-.05.05-.22.24-.12.51.79,2.12,1.05,3.83.77,5.08-.05.23-.25.38-.48.38h0Z"/>
    <path class="cls-15" d="M124.36,73.09c-.09-.14-.14-.26-.2-.39-.06-.13-.1-.26-.15-.39-.05-.13-.07-.26-.11-.4-.03-.13-.05-.27-.07-.41-.07-.55-.04-1.12.1-1.68.06-.28.17-.55.27-.81.13-.25.26-.51.44-.74.33-.47.78-.83,1.26-1.09.26-.14.58-.05.72.21.08.16.08.33.01.48l-.04.09c-.05.11-.11.2-.16.3-.06.1-.12.18-.16.28-.05.1-.1.19-.15.28-.05.09-.08.19-.13.28-.09.18-.15.37-.23.56-.06.19-.13.38-.17.57-.1.39-.17.79-.2,1.21l-.02.32c0,.11-.01.22-.01.32v.16c0,.05,0,.11,0,.16,0,.11,0,.23,0,.31l-.02.14c-.03.29-.29.49-.58.46-.17-.02-.31-.12-.39-.25h0Z"/>
    <path class="cls-15" d="M133.83,51.07c-.05.07-.14.16-.21.24-.04.04-.07.08-.11.12l-.11.12c-.07.08-.14.17-.21.25l-.2.25c-.26.33-.49.68-.68,1.03-.1.17-.17.36-.26.54-.07.19-.16.37-.21.56-.03.1-.07.19-.09.29-.02.1-.05.2-.08.31-.04.1-.05.21-.07.32-.02.11-.05.22-.08.33l-.03.09c-.09.28-.39.44-.67.35-.17-.05-.29-.18-.35-.34-.17-.52-.26-1.09-.18-1.66.02-.29.1-.56.17-.84.1-.27.2-.54.35-.78.28-.5.64-.94,1.07-1.3.11-.08.22-.17.33-.25.12-.08.23-.15.35-.22.12-.07.24-.13.37-.18.13-.06.25-.1.41-.15.28-.08.57.07.65.35.05.16.01.33-.08.46l-.09.12h0Z"/>
  </g>
</svg>