<?xml version="1.0" encoding="UTF-8"?>
<svg id="Vrstva_1" data-name="Vrstva 1" xmlns="http://www.w3.org/2000/svg" viewBox="0 0 37.42 36.51">
  <defs>
    <style>
      .cls-1 {
        fill: #373d3a;
      }

      .cls-2 {
        fill: #68aa31;
      }

      .cls-3 {
        opacity: .5;
      }
    </style>
  </defs>
  <g class="cls-3">
    <path class="cls-2" d="M15.22,1.41c4.81-2.52,12.23-1.9,17.59,3.71,5.36,5.6,5.65,13.04,2.92,17.73-3.01,5.18-8.58,8.32-14.51,9.77-5.93,1.45-12.29,1.4-18.57,1.34.22-6.28.45-12.63,2.17-18.49,1.72-5.86,5.1-11.28,10.41-14.06Z"/>
  </g>
  <path class="cls-1" d="M2.59,17.13C.7,23.22.34,29.77,0,36.11c0,.11.03.21.11.29s.17.12.28.12c6.35-.06,12.91-.12,19.07-1.74,3.26-.86,6.18-2.12,8.7-3.77,2.79-1.82,4.99-4.06,6.53-6.65,1.53-2.56,2.17-5.74,1.83-8.95-.37-3.42-1.84-6.61-4.24-9.24l4.52-4.33c.15-.15.16-.39.01-.54s-.39-.16-.54-.01l-4.52,4.33c-2.52-2.52-5.64-4.13-9.04-4.65-3.19-.49-6.4.02-9.03,1.43-2.65,1.42-4.98,3.52-6.93,6.23-1.76,2.44-3.15,5.31-4.15,8.53ZM14.04,3.05c2.48-1.33,5.52-1.81,8.55-1.34,3.24.5,6.2,2.03,8.6,4.42l-5.16,4.93-7.75.61c-.09,0-.17.05-.23.1-.08.08-.13.19-.12.31.02.21.2.37.41.35l6.81-.54-6.97,6.67-7.75.61c-.09,0-.17.05-.23.1-.08.08-.13.19-.12.31.02.21.2.37.41.35l6.81-.54-9.01,8.62c-.15.15-.16.39-.01.54s.39.16.54.01l9.79-9.36s0,0,0,0c0,0,0,0,0,0l.67-.64-.84,6.78c-.03.21.12.4.33.43.12.01.23-.03.31-.1.06-.06.1-.14.12-.23l.96-7.71,6.3-6.02s0,0,0,0c0,0,0,0,0,0l.67-.64-.84,6.78c-.03.21.12.4.33.43.12.01.23-.03.31-.1.06-.06.1-.14.12-.23l.96-7.71,3.71-3.54c2.29,2.5,3.68,5.54,4.04,8.79.33,3.05-.28,6.06-1.72,8.48-1.48,2.48-3.6,4.64-6.29,6.4-2.45,1.6-5.3,2.83-8.48,3.67-5.94,1.56-12.3,1.66-18.48,1.72.34-6.16.71-12.52,2.54-18.38.98-3.14,2.34-5.93,4.04-8.31,1.88-2.61,4.12-4.63,6.67-6Z"/>
</svg>