<?xml version="1.0" encoding="UTF-8"?>
<svg id="Vrstva_1" data-name="Vrstva 1" xmlns="http://www.w3.org/2000/svg" viewBox="0 0 283.51 143.52">
  <defs>
    <style>
      .cls-1 {
        fill: #fefbfc;
      }

      .cls-2 {
        fill: #f4dabb;
      }

      .cls-3 {
        fill: #ecc18e;
      }

      .cls-4 {
        fill: #f2d5b0;
      }

      .cls-5 {
        fill: #fff;
      }

      .cls-6 {
        fill: #68a930;
      }

      .cls-7 {
        fill: #a3d9ec;
      }

      .cls-8 {
        fill: #b589a6;
      }

      .cls-9 {
        fill: #c68e7b;
      }

      .cls-10 {
        fill: #96c4da;
      }

      .cls-11 {
        fill: #aa6a6d;
      }

      .cls-12 {
        fill: #e59147;
      }

      .cls-13 {
        fill: #b75c27;
      }

      .cls-14 {
        fill: #d6b0a3;
      }

      .cls-15 {
        fill: #381b15;
      }

      .cls-16 {
        fill: #edc18e;
      }

      .cls-17 {
        fill: #c58863;
      }

      .cls-18 {
        fill: #bad27a;
      }

      .cls-19 {
        fill: #d1b9ca;
      }

      .cls-20 {
        fill: #64140e;
      }

      .cls-21 {
        fill: #b388a5;
      }

      .cls-22 {
        fill: #69aaca;
      }

      .cls-23 {
        fill: #4c64ac;
      }

      .cls-24 {
        fill: #967660;
      }
    </style>
  </defs>
  <g>
    <g>
      <path class="cls-15" d="M37.19,66.37l-.15-3.63c-.05-1.29.68-2.32,1.9-2.84,5.16-2.2,11.72-.24,11.66,2.06l-.11,4.47c.56.23,1.04.55,1.35,1.07,1.03-.11,1.92.29,2.47,1.16h3.2v6.15l-3.52-.02c-1.34,2.04-2.85.7-3.92,1.79l-.25,5.78c-.59.88-1.43,1.3-2.4,1.68-2.95,1.21-9.4.14-9.51-1.73l-.37-6.08c-1.91-.94-2.45-3.17-1.52-5.03-.98-1.73-.71-4.01,1.17-4.86Z"/>
      <path class="cls-6" d="M57.5,70.73v2.7h-3.34v-2.68"/>
      <path class="cls-18" d="M54.16,70.02h3.34v1.04h-3.34v-1.04Z"/>
      <path class="cls-13" d="M45.5,83.05l.3-.17v-3.71c.34-.42,1.03-1.26.35-1.57-2.49.03-4.85,0-7.27-.78l.24,5.17c1.9,1.2,4.2,1.39,6.38,1.06Z"/>
      <path class="cls-12" d="M38.44,63c.49,1.2,2.63,1.57,3.85,1.72,1.85.23,4.59.08,6.16-.98.49-.33.7-.52.83-1.14.14-2.38-7.06-2.95-9.95-1.44-.82.41-1.16,1.03-.9,1.84Z"/>
      <path class="cls-13" d="M38.44,63l.16,4.47c2.26,1.02,4.72,1.15,7.11.92l.29-.28c.09-.78.19-1.55.3-2.31.78-.07,1.53-.29,2.25-.66.36-.12.53-.33.62-.69l.11-1.85c-1.85,2.54-8.39,2.44-10.84.4Z"/>
      <path class="cls-6" d="M50.97,68.62l-.36-.07c-2.53,1.76-6.34,2.12-9.29,1.5,0-.25-.02-.4-.31-.5-1.44-.28-2.79-.68-3.84-1.69-.5.79-.45,1.58-.14,2.43.18.5.87.93,1.58,1.23,3.43,1.43,7.36,1.37,10.78-.06,1.2-.51,1.8-1.6,1.58-2.84Z"/>
      <path class="cls-6" d="M46.4,73.54c.1.25.15.37.15.37-1.39.47-3.07.39-4.53.21-.74-.09-1.39-.2-1.8-.81-1.11-.32-2.07-.7-3.1-1.25-.59,1.29-.09,2.62,1.17,3.15,3.84,1.61,8.06,1.56,11.86-.19.34-.87.19-1.72.03-2.66-1.27.59-2.44.99-3.79,1.18Z"/>
      <path class="cls-12" d="M45.5,83.05h.03c1.07-.17,2.11-.43,2.98-1.16l.17-4.79c-1.06.28-2.08.48-3.13.51l-.05,5.44Z"/>
      <path class="cls-12" d="M45.72,68.39c1.12-.11,2.27-.34,3.31-.87l.15-3.07c-.93.62-2.33.92-3.45,1.16,0,1.11,0,1.88,0,2.78Z"/>
      <path class="cls-18" d="M41,69.55c.02.23-.03.46.04.62.36.78,7.74.73,9.92-1.56-.06-.36-.21-.63-.62-.72-.25.53-.69.85-1.25,1.04-2.6.9-5.39,1.14-8.1.61Z"/>
      <path class="cls-6" d="M51.86,70.45c-.72,2.1-.14,2.48-.27,4.25.44.08.77-.07,1.01-.3.66-.61-.07-2.14.34-3.67.03-.5-.83-.76-1.08-.28Z"/>
      <path class="cls-18" d="M40.66,73.41c1.89.38,3.79.41,5.74.13.28.04.47.18.46.4-.02.9-6.32.77-6.61-.16-.04-.13-.02-.29-.03-.46l.44.1Z"/>
      <path class="cls-18" d="M51.86,70.45c.4-.03.7.18,1.08.28.1-.39.25-.79.18-1.19-.06-.36-.32-.7-.89-.75-.06.56-.18,1.1-.37,1.67Z"/>
    </g>
    <g>
      <path class="cls-15" d="M246.32,66.37l.15-3.63c.05-1.29-.68-2.32-1.9-2.84-5.16-2.2-11.72-.24-11.66,2.06l.11,4.47c-.56.23-1.04.55-1.35,1.07-1.03-.11-1.92.29-2.47,1.16h-3.7v6.15l4.02-.02c1.34,2.04,2.85.7,3.92,1.79l.25,5.78c.59.88,1.43,1.3,2.4,1.68,2.95,1.21,9.4.14,9.51-1.73l.37-6.08c1.91-.94,2.45-3.17,1.52-5.03.98-1.73.71-4.01-1.17-4.86Z"/>
      <path class="cls-6" d="M225.51,70.73v2.7h3.84v-2.68"/>
      <path class="cls-18" d="M229.35,70.02h-3.84v1.04h3.84v-1.04Z"/>
      <path class="cls-13" d="M238.01,83.05l-.3-.17v-3.71c-.34-.42-1.03-1.26-.35-1.57,2.49.03,4.85,0,7.27-.78l-.24,5.17c-1.9,1.2-4.2,1.39-6.38,1.06Z"/>
      <path class="cls-12" d="M245.07,63c-.49,1.2-2.63,1.57-3.85,1.72-1.85.23-4.59.08-6.16-.98-.49-.33-.7-.52-.83-1.14-.14-2.38,7.06-2.95,9.95-1.44.82.41,1.16,1.03.9,1.84Z"/>
      <path class="cls-13" d="M245.07,63l-.16,4.47c-2.26,1.02-4.72,1.15-7.11.92l-.29-.28c-.09-.78-.19-1.55-.3-2.31-.78-.07-1.53-.29-2.25-.66-.36-.12-.53-.33-.62-.69l-.11-1.85c1.85,2.54,8.39,2.44,10.84.4Z"/>
      <path class="cls-6" d="M232.54,68.62l.36-.07c2.53,1.76,6.34,2.12,9.29,1.5,0-.25.02-.4.31-.5,1.44-.28,2.79-.68,3.84-1.69.5.79.45,1.58.14,2.43-.18.5-.87.93-1.58,1.23-3.43,1.43-7.36,1.37-10.78-.06-1.2-.51-1.8-1.6-1.58-2.84Z"/>
      <path class="cls-6" d="M237.11,73.54c-.1.25-.15.37-.15.37,1.39.47,3.07.39,4.53.21.74-.09,1.39-.2,1.8-.81,1.11-.32,2.07-.7,3.1-1.25.59,1.29.09,2.62-1.17,3.15-3.84,1.61-8.06,1.56-11.86-.19-.34-.87-.19-1.72-.03-2.66,1.27.59,2.44.99,3.79,1.18Z"/>
      <path class="cls-12" d="M238.01,83.05h-.03c-1.07-.17-2.11-.43-2.98-1.16l-.17-4.79c1.06.28,2.08.48,3.13.51l.05,5.44Z"/>
      <path class="cls-12" d="M237.79,68.39c-1.12-.11-2.27-.34-3.31-.87l-.15-3.07c.93.62,2.33.92,3.45,1.16,0,1.11,0,1.88,0,2.78Z"/>
      <path class="cls-18" d="M242.51,69.55c-.02.23.03.46-.04.62-.36.78-7.74.73-9.92-1.56.06-.36.21-.63.62-.72.25.53.69.85,1.25,1.04,2.6.9,5.39,1.14,8.1.61Z"/>
      <path class="cls-6" d="M231.65,70.45c.72,2.1.14,2.48.27,4.25-.44.08-.77-.07-1.01-.3-.66-.61.07-2.14-.34-3.67-.03-.5.83-.76,1.08-.28Z"/>
      <path class="cls-18" d="M242.85,73.41c-1.89.38-3.79.41-5.74.13-.28.04-.47.18-.46.4.02.9,6.32.77,6.61-.16.04-.13.02-.29.03-.46l-.44.1Z"/>
      <path class="cls-18" d="M231.65,70.45c-.4-.03-.7.18-1.08.28-.1-.39-.25-.79-.18-1.19.06-.36.32-.7.89-.75.06.56.18,1.1.37,1.67Z"/>
    </g>
    <g>
      <rect class="cls-15" x="57.5" y="68.67" width="168.01" height="1.35"/>
      <rect class="cls-18" x="57.5" y="70.02" width="168.01" height="1.04"/>
      <rect class="cls-6" x="57.5" y="71.06" width="168.01" height="2.37"/>
      <rect class="cls-15" x="57.5" y="73.43" width="168.01" height="1.4"/>
    </g>
  </g>
  <g>
    <g>
      <g>
        <path class="cls-5" d="M120.58,46.08s5.06,1.34,4.24,1.69c-.82.35-2.46.28-2.46.38s2.84,1.24,2.27,1.65c-.58.41-2.7.74-2.7.74,0,0,2.54,1.33,1.82,1.6-.72.27-3.15-.19-3.15-.19l-.02-5.86"/>
        <path class="cls-16" d="M113.33,43.62c4.09,1.29,8.39,1.6,8.81,4.92.42,3.33-2.21,4.58-8,4.03-3.61-.34-12.22-2.58-14.9-3.39,1.25-2.86,2.53-5.81,4.43-8.48,1.56.57,7.82,2.33,9.66,2.91Z"/>
        <path class="cls-17" d="M115.52,50.74c.24,0,.47,0,.69-.01,3.64-.15,5.01-1.77,5.47-2.6.04.15.07.3.09.46.14,1.1-.07,1.92-.65,2.51-.71.73-2.02,1.14-3.9,1.22-.89.04-1.91,0-3.05-.1-3.55-.33-12.11-2.56-14.78-3.36.17-.39.35-.79.52-1.18,3.52,1.01,12.27,3.05,15.61,3.07Z"/>
        <path class="cls-2" d="M113.22,43.96c.84.27,1.7.49,2.52.71,2.59.68,4.88,1.29,5.72,2.89-.49-.26-2.84-1.49-4.5-2.04-1.47-.48-10.19-2.66-13.86-3.95.12-.19.25-.37.37-.55,1.58.58,7.89,2.36,9.76,2.95Z"/>
        <path class="cls-20" d="M103.46,41.01q.13-.2,0,0c1.58.58,7.89,2.36,9.76,2.95.84.27,1.7.49,2.52.71,3.08.81,5.73,1.51,6.04,3.91.14,1.1-.07,1.92-.65,2.51-1.04,1.07-3.38,1.45-6.95,1.11-3.55-.33-12.11-2.56-14.78-3.36-.1.23-.2.45-.3.67,2.7.82,11.37,3.08,15.01,3.42,3.86.36,6.33-.07,7.55-1.33.73-.75,1.01-1.8.85-3.11-.37-2.89-3.38-3.69-6.58-4.53-.81-.21-1.66-.44-2.48-.7l-9.58-2.94-.4.69Z"/>
        <path class="cls-20" d="M99.39,48.84c-.1.23-.2.45-.3.67"/>
        <path class="cls-20" d="M123.24,52.58c.26-.01.48-.04.64-.11.31-.12.36-.36.36-.46,0-.14.03-.52-1.26-1.31.67-.14,1.49-.36,1.85-.61.16-.11.24-.29.23-.47-.03-.39-.48-.73-1.46-1.24.47-.05.98-.13,1.36-.29.31-.13.32-.39.31-.46-.02-.31-.21-.58-2.43-1.29-1.07-.34-2.16-.63-2.17-.63-.2-.05-.4.07-.45.26-.05.2.06.4.26.45,1.35.36,2.87.83,3.64,1.15-.41.07-.88.11-1.23.13-.17.01-.31.02-.42.03-.41.05-.48.26-.48.42.01.25.13.31.73.6.34.17,1.16.57,1.49.84-.53.23-1.66.46-2.34.57-.16.02-.28.15-.31.3-.03.16.05.31.19.38.63.33,1.26.73,1.57.99-.63.05-1.85-.11-2.66-.26-.2-.04-.39.09-.43.29-.04.2.09.39.29.43.33.06,1.75.32,2.71.28h0Z"/>
      </g>
      <g>
        <path class="cls-5" d="M71.33,60.44c.18-.75.99-1.15,1.72-.85.37.15.75.42,1.05.89.74,1.14-1.05,3.1-3.1,3.69-.55.16-1.03-.45-.75-.94.36-.61.76-1.52,1.07-2.79"/>
        <path class="cls-19" d="M70.81,63.76c-.08,0-.13-.07-.15-.09-.02-.03-.07-.11-.04-.19.35-.11.69-.24,1.01-.41.02.12.06.23.14.32-.29.15-.59.27-.88.36-.03,0-.05,0-.07,0"/>
        <path class="cls-20" d="M71.33,60.44h0s0,0,0,0M72.63,59.94c-.16-.02-.32.01-.47.09-.21.11-.36.29-.41.52-.27,1.13-.65,2.11-1.12,2.91-.05.09,0,.18.03.22.02.03.1.12.22.08,1.27-.37,2.53-1.38,2.87-2.29.11-.3.11-.55-.02-.74-.22-.34-.5-.58-.85-.72-.08-.03-.17-.06-.25-.06M70.72,64.63c-.29-.03-.56-.18-.75-.42-.28-.35-.31-.82-.09-1.2.43-.73.77-1.63,1.03-2.68.12-.48.43-.88.87-1.1.45-.23.98-.25,1.45-.05.51.21.94.57,1.25,1.05.28.43.32.96.1,1.53-.44,1.18-1.89,2.37-3.45,2.83-.13.04-.27.05-.4.04"/>
        <path class="cls-5" d="M70.25,59.8c.38-.67,1.26-.84,1.89-.35.32.25.61.61.77,1.14.4,1.29-1.86,2.69-3.99,2.71-.57,0-.87-.72-.47-1.11.51-.49,1.14-1.25,1.79-2.4"/>
        <path class="cls-19" d="M68.89,62.87c-.11-.01-.16-.11-.17-.14-.01-.04-.04-.12.01-.19.37-.02.74-.07,1.09-.15-.02.12,0,.25.04.37-.32.07-.64.1-.95.1,0,0-.01,0-.02,0"/>
        <path class="cls-20" d="M70.25,59.8h0s0,0,0,0M71.41,59.61c-.08,0-.16,0-.24.01-.23.05-.42.18-.54.39-.57,1.01-1.2,1.85-1.87,2.5-.08.08-.05.18-.03.22.01.03.07.14.19.14,1.32-.01,2.81-.64,3.39-1.42.19-.26.25-.5.18-.72-.12-.38-.33-.69-.62-.92-.14-.11-.29-.17-.46-.19M68.81,63.74c-.39-.04-.74-.3-.89-.68-.17-.41-.08-.88.24-1.18.61-.59,1.19-1.36,1.71-2.3.24-.43.65-.73,1.13-.82.49-.1,1.01.03,1.41.35.44.34.75.8.92,1.36.15.49.04,1.01-.31,1.5-.74,1.02-2.46,1.77-4.09,1.78-.04,0-.08,0-.12,0"/>
        <path class="cls-5" d="M69.54,58.58c.51-.65,1.46-.68,2.04-.06.29.31.54.74.63,1.32.21,1.42-2.38,2.54-4.63,2.22-.6-.09-.8-.89-.31-1.24.61-.44,1.4-1.14,2.27-2.24"/>
        <path class="cls-19" d="M67.83,61.64c-.06,0-.13-.01-.19-.02-.15-.02-.19-.16-.2-.2-.01-.05-.03-.17.08-.25.54-.38,1.07-.86,1.59-1.42.02.31.09.6.21.86-.15.12-.28.22-.41.31-.25.18-.32.48-.25.74-.28.02-.56,0-.83-.02"/>
        <path class="cls-20" d="M69.54,58.58l.35.27c-.76.97-1.55,1.75-2.36,2.32-.11.08-.09.2-.08.25,0,.04.05.18.2.2,1.4.2,3.08-.22,3.82-.97.25-.25.35-.5.32-.75-.06-.43-.24-.79-.51-1.09-.19-.21-.46-.32-.73-.3-.26.01-.49.13-.65.34l-.35-.27M67.76,62.52c-.08,0-.16-.02-.24-.03-.45-.07-.82-.4-.93-.86-.11-.45.06-.91.42-1.17.74-.52,1.47-1.25,2.18-2.15.32-.4.79-.65,1.3-.67.52-.02,1.04.19,1.41.58.4.43.65.95.74,1.56.08.53-.11,1.05-.56,1.5-.9.9-2.68,1.41-4.32,1.24"/>
        <path class="cls-5" d="M102.16,70.79c-.77.1-1.47-.5-1.48-1.28,0-.39.1-.84.41-1.28.77-1.07,3.31-.13,4.69,1.53.37.44-.01,1.1-.58,1.02-.71-.11-1.72-.16-3.04,0"/>
        <path class="cls-19" d="M105.45,70.27c-.24-.27-.51-.52-.8-.75.05-.04.09-.09.13-.14.24.2.47.43.66.66.07.08.04.17.02.21,0,0,0,0,0,.02"/>
        <path class="cls-20" d="M102.37,68.23c-.1,0-.19-.01-.28-.01-.31.01-.53.1-.65.27-.22.31-.33.65-.33,1.01,0,.25.11.48.3.64.19.16.44.24.69.21,1.16-.15,2.22-.15,3.16,0,.12.02.17-.06.19-.1.02-.04.05-.12-.02-.21-.8-.96-2.09-1.72-3.07-1.82M101.82,71.24c-.36-.04-.7-.18-.98-.42-.37-.33-.59-.8-.6-1.29,0-.55.16-1.07.49-1.54.28-.4.74-.62,1.33-.64,1.26-.04,3,.88,4.05,2.14.28.34.32.81.1,1.2-.22.39-.65.6-1.09.53-.85-.13-1.84-.13-2.92,0-.13.02-.27.02-.4,0"/>
        <path class="cls-3" d="M83.93,47.7c-3.27,6.21-5.97,4.93-8.58,4.61-1.81-.22-7.5,6.38-5.31,8.56,1.97,1.96,7.53-.81,7.53-.81,0,0,6.55,3.92,10.86-.54l-4.51-11.82"/>
        <path class="cls-9" d="M71.71,61.11c-.55-.06-1.03-.22-1.36-.55-.69-.69-.25-2,.12-2.81,0,.51.15.95.49,1.29.41.41.98.61,1.63.68,2.43.25,5.91-1.49,5.91-1.49,0,0,.52.22,1.2.29s1.49-.01,2.12-.59c1.22,1.13,2.66,2.04,4.3,2.7-1.24.55-2.54.65-3.74.52-2.5-.25-4.54-1.45-4.58-1.47l-.21-.12-.21.11c-1.13.56-3.83,1.63-5.67,1.44"/>
        <path class="cls-20" d="M71.62,61.98c-.74-.07-1.4-.31-1.88-.8-.84-.84-.83-2.21.02-3.96,1.22-2.5,4.1-5.5,5.63-5.35,0,0,.02,0,.02,0,.3.04.59.09.88.13,2.31.38,4.49.73,7.25-4.51.11-.21.38-.3.59-.18.21.11.3.38.18.59-3.06,5.8-5.77,5.36-8.17,4.97-.29-.05-.57-.09-.85-.13h0c-.84-.09-3.49,2.27-4.75,4.86-.38.79-.92,2.22-.19,2.95,1.43,1.43,5.56-.16,7.03-.89l.21-.11.21.12c.06.04,6.31,3.68,10.32-.47.17-.17.45-.18.62-.01.17.17.18.45.01.62-1.87,1.93-4.45,2.65-7.45,2.07-1.8-.35-3.23-1.06-3.75-1.34-.81.38-3.72,1.64-5.94,1.42"/>
        <path class="cls-3" d="M107.16,53.63c-.99,3.34-4.65,6.12-7.02,6.84-6.11,1.87-16.96,1.95-21.05-7.13-2.18-4.83-.89-10.43,5.37-19.34,2.32-3.31,5.33-7.07,9.09-11.42l10.62,12.51c-.29,1.86-.01,3.58.5,5.25,1.28,4.24,4.01,8.18,2.5,13.28"/>
        <path class="cls-9" d="M89.44,60.67c-3.26-.62-6.43-2.14-8.63-5.19.12-.06.23-.11.34-.18,1.97,2.27,4.54,3.59,7.25,4.26.16.19.32.37.49.54.18.2.37.38.55.56M103.4,58.11s-.05-.09-.07-.13c-.06-.12-.12-.23-.2-.34-.02-.03-.04-.06-.06-.09,1.55-1.14,3.05-2.75,3.81-4.57-.04.17-.09.35-.14.52-.53,1.79-1.87,3.41-3.34,4.61"/>
        <path class="cls-9" d="M106.61,44.35c-.13-.34-.27-.69-.4-1.03-.28-.72-.56-1.42-.81-2.13,0,0,0,0,0,0,.4,1.05.84,2.09,1.21,3.16"/>
        <path class="cls-20" d="M105.41,41.19s0,0,0,0c-.01-.03-.02-.06-.03-.09.01.03.02.07.04.1"/>
        <path class="cls-20" d="M90.99,61.8c-.77-.08-1.51-.2-2.23-.35-4.73-1.04-8.21-3.78-10.08-7.92-1.6-3.55-1.32-7.43.9-12.2,2.23-4.81,6.56-10.86,13.64-19.03.16-.18.44-.2.62-.04.18.16.2.44.04.62-13.45,15.54-17.35,23.75-14.4,30.3,4.13,9.15,15.23,8.51,20.53,6.89,2.21-.68,5.77-3.33,6.73-6.55,1.09-3.68-.09-6.69-1.34-9.86-1.06-2.69-2.16-5.47-1.66-8.62.04-.24.26-.41.5-.36.24.04.4.26.36.5-.46,2.91.55,5.46,1.61,8.16,1.25,3.18,2.55,6.46,1.37,10.44-1.09,3.68-5.01,6.43-7.31,7.14-2.93.9-6.26,1.21-9.27.9"/>
        <path class="cls-9" d="M98.89,40.19c-6.01-.61-11.14-2.55-14.14-5.85.27-.39.56-.79.85-1.19,3.01,3.19,8.07,5.08,13.98,5.68.56.06,1.12.1,1.69.13.88.05,1.75.07,2.6.07.09.45.21.9.34,1.34-1.18.04-2.4.03-3.63-.04-.57-.03-1.13-.08-1.69-.13"/>
        <path class="cls-20" d="M104.21,40.36c-.13-.44-.25-.89-.34-1.34.06,0,.13,0,.19,0,0,0,0,0,0,0,0,.21.16.38.35.42.07.3.16.6.25.9-.15,0-.3.01-.45.02M84.75,34.34c-.1-.11-.2-.23-.3-.34.27-.39.55-.78.84-1.18.1.11.2.22.3.33-.29.4-.57.8-.85,1.19"/>
        <path class="cls-3" d="M82.67,24.94c-.51,8.75,7.91,13.4,18.59,14.02,10.69.62,19.59-3.01,20.1-11.76.49-8.39-4.4-18.28-16.62-19.78-1.44-.84-3.37-2.27-4.39-4.28-.32-.63-1.22-.59-1.48.06-.35.87-.69,2.02-.18,3.56-1.6-.89-3.17-1.9-3.68-2.41-.54-.55-1.48-.18-1.5.59-.02.75.16,2.35.39,3.69-7.23,2.91-10.85,9.86-11.23,16.3"/>
        <path class="cls-22" d="M85.01,32.47c-1.64-2.03-2.51-4.54-2.34-7.53.05-.87.16-1.75.33-2.63-.12.6-.21,1.2-.27,1.8-.03.28-.05.56-.07.83h0s0,.01,0,.02c0,0,0,0,0,0,0,0,0,0,0,.01,0,0,0,0,0,0,0,0,0,0,0,.02,0,0,0,0,0,0,0,0,0,0,0,.01,0,0,0,0,0,0,0,0,0,0,0,.02h0s0,.01,0,.02c0,0,0,0,0,0,0,0,0,0,0,.01h0s0,.01,0,.02c0,0,0,0,0,0,0,0,0,0,0,0,0,0,0,0,0,0,0,0,0,0,0,.01,0,0,0,0,0,0,0,0,0,0,0,0,0,0,0,0,0,0,0,0,0,0,0,0,0,0,0,0,0,.01,0,0,0,0,0,0,0,0,0,0,0,0,0,0,0,0,0,0,0,0,0,.01,0,.02,0,0,0,0,0,0,0,0,0,0,0,0,0,0,0,0,0,0,0,.01,0,.02,0,.03,0,0,0,0,0,0-.02.66,0,1.29.08,1.9,0,0,0,0,0,0,0,0,0,0,0,0,0,0,0,0,0,0,0,0,0,0,0,0,0,0,0,0,0,.01,0,0,0,0,0,0,.26,2.03,1.05,3.79,2.27,5.29h0"/>
        <path class="cls-20" d="M85.3,32.81c-.1-.11-.2-.23-.29-.34h0c.09.12.19.23.29.34h0"/>
        <path class="cls-11" d="M99.58,38.82c-5.9-.6-10.96-2.48-13.98-5.68h0c3.01,3.19,8.07,5.08,13.97,5.68.56.06,1.12.1,1.69.13.88.05,1.75.07,2.6.07h0c-.85,0-1.72-.02-2.6-.07-.57-.03-1.13-.08-1.69-.13"/>
        <path class="cls-20" d="M103.87,39.02h0c.06,0,.13,0,.19,0h0c-.06,0-.13,0-.19,0M85.6,33.15c-.1-.11-.2-.22-.3-.33h0c.1.11.2.22.3.33h0"/>
        <path class="cls-9" d="M99.58,38.82c-5.9-.6-10.96-2.48-13.97-5.68-.1-.11-.2-.22-.3-.33-.1-.11-.2-.23-.29-.34-1.22-1.5-2.01-3.27-2.27-5.29.08.64.22,1.25.4,1.84-.14-.84-.19-1.72-.13-2.65.04-.64.11-1.29.22-1.94.62,7.17,7.75,11.18,16.88,12.11.56.06,1.12.1,1.69.13,8.35.49,15.6-1.62,18.63-6.74-.73,2.31-2.22,4.21-4.47,5.66-.89.57-1.82,1.42-2.92,1.84-.48.04-.83.35-1.23.42-.71.12-.81-.1-.93.27-1.69.36-4.44.41-6.41.46-.24,0-.43.21-.43.45-.06,0-.13,0-.19,0-.85,0-1.72-.02-2.6-.07-.57-.03-1.13-.08-1.69-.13M82.74,27.17s0,0,0-.01c0,0,0,0,0,.01M82.74,27.15s0,0,0,0c0,0,0,0,0,0M82.74,27.14s0,0,0,0c0,0,0,0,0,0M82.66,25.24s0,0,0,0c0,0,0,0,0,0M82.66,25.21s0,0,0,0c0,0,0,0,0,0M82.66,25.19s0,0,0,0c0,0,0,0,0,0M82.66,25.17s0,0,0,0c0,0,0,0,0,0M82.66,25.16s0,0,0,0c0,0,0,0,0,0M82.66,25.14s0,0,0,0c0,0,0,0,0,0M82.66,25.12s0,0,0,0c0,0,0,0,0,0M82.67,25.11s0,0,0-.01c0,0,0,0,0,.01M82.67,25.09s0,0,0,0c0,0,0,0,0,0M82.67,25.07s0,0,0-.01c0,0,0,0,0,.01M82.67,25.06s0,0,0-.01c0,0,0,0,0,.01M82.67,25.04s0,0,0-.01c0,0,0,0,0,.01M82.67,25.02s0,0,0-.02c0,0,0,.01,0,.02M82.67,25s0,0,0-.01c0,0,0,0,0,.01M82.67,24.99s0,0,0-.02c0,0,0,.01,0,.02M82.67,24.97s0,0,0-.01c0,0,0,0,0,.01M82.67,24.95s0-.01,0-.02c0,0,0,.01,0,.02"/>
        <path class="cls-7" d="M105.52,7.52c-.15-.02-.3-.04-.45-.06.15.02.3.04.45.06h0M105.07,7.46s-.04,0-.05,0c.02,0,.04,0,.05,0M105.02,7.45s-.01,0-.02,0c0,0,.01,0,.02,0M105,7.45s-.01,0-.02,0c0,0,.01,0,.02,0M104.98,7.45s-.02,0-.03,0c.01,0,.02,0,.03,0M104.94,7.44s-.01,0-.02,0c0,0,0,0,.02,0M104.93,7.44s-.01,0-.02,0c0,0,.01,0,.02,0M104.91,7.44s-.02,0-.03,0c.01,0,.02,0,.03,0M104.87,7.43s0,0-.01,0c0,0,0,0,.01,0M104.85,7.43s0,0-.01,0c0,0,0,0,.01,0M104.84,7.43s-.02,0-.03,0c.01,0,.02,0,.03,0M104.8,7.42s0,0-.01,0c0,0,0,0,.01,0M104.78,7.42s0,0-.01,0c0,0,0,0,.01,0M104.77,7.42s-.01,0-.02,0c0,0,.01,0,.02,0"/>
        <path class="cls-4" d="M83.24,24.43c-.05-.57-.06-1.16-.02-1.78.04-.76.13-1.52.27-2.29-.19.64-.35,1.29-.48,1.94,1.09-5.61,4.65-11.15,10.9-13.67h0c-.23-1.35-.41-2.94-.39-3.69,0-.02,0-.05,0-.07.05-.51.51-.82.96-.78.19.02.38.1.53.26.51.51,2.09,1.52,3.68,2.41h0c-.25-.75-.29-1.41-.24-1.99.06-.61.24-1.13.41-1.57.15-.37.5-.54.84-.51.26.03.51.17.64.45,1.02,2.01,2.95,3.44,4.39,4.28h0s.01,0,.02,0c0,0,0,0,0,0,0,0,0,0,.01,0,0,0,0,0,0,0,0,0,0,0,.01,0,0,0,0,0,0,0,.01,0,.02,0,.03,0,0,0,0,0,0,0,0,0,0,0,.01,0,0,0,0,0,0,0,0,0,0,0,.01,0,0,0,0,0,0,0,.01,0,.02,0,.03,0h0s.01,0,.02,0c0,0,0,0,0,0,0,0,.01,0,.02,0,0,0,0,0,0,0,.01,0,.02,0,.03,0t0,0s.01,0,.02,0c0,0,0,0,0,0,0,0,.01,0,.02,0h0s.04,0,.05,0c0,0,0,0,0,0,.15.02.3.04.45.06-.04.24.12.46.36.5,6.1,1.06,10.21,4.41,12.58,8.53-2.46-3.6-6.35-6.45-11.9-7.49-1.1-.21-2.16-.6-3.11-1.21-1.18-.76-2.42-1.74-3.1-3.08-.23-.45-.44-.66-.62-.68-.2-.02-.37.18-.51.53-.26.65-.52,1.46-.42,2.47.03.35-.27.6-.58.57-.07,0-.15-.03-.22-.07-1.2-.71-2.25-1.41-2.65-1.82-.23-.23-.44-.36-.62-.38-.25-.03-.42.17-.43.62-.01.49.1,1.35.25,2.26.13.81-.29,1.6-1.02,1.97-5.77,2.88-9.35,8.65-10.29,14.16"/>
        <path class="cls-10" d="M82.75,27.18s0,0,0,0c0,0,0,0,0,0M82.74,27.16s0,0,0,0c0,0,0,0,0,0M82.74,27.15s0,0,0,0c0,0,0,0,0,0M82.74,27.14c-.08-.61-.1-1.24-.08-1.9-.02.66,0,1.29.08,1.9M82.66,25.24s0-.02,0-.03c0,.01,0,.02,0,.03M82.66,25.2s0,0,0,0c0,0,0,0,0,0M82.66,25.19s0-.01,0-.02c0,0,0,.01,0,.02M82.66,25.16s0,0,0,0c0,0,0,0,0,0M82.66,25.15s0,0,0-.01c0,0,0,0,0,.01M82.66,25.13s0,0,0,0c0,0,0,0,0,0M82.66,25.11s0,0,0,0c0,0,0,0,0,0M82.67,25.09s0,0,0,0c0,0,0,0,0,0M82.67,25.08s0,0,0,0c0,0,0,0,0,0M82.67,25.06h0s0,0,0,0M82.67,25.04s0,0,0,0c0,0,0,0,0,0M82.67,25.03h0s0,0,0,0M82.67,25.01s0,0,0,0c0,0,0,0,0,0M82.67,24.99s0,0,0,0c0,0,0,0,0,0M82.67,24.97s0,0,0,0c0,0,0,0,0,0M82.67,24.96s0,0,0,0c0,0,0,0,0,0"/>
        <path class="cls-14" d="M83.15,29.02c-.18-.59-.32-1.2-.4-1.84,0,0,0,0,0,0,0,0,0,0,0-.01,0,0,0,0,0,0,0,0,0,0,0,0,0,0,0,0,0,0,0,0,0,0,0,0-.08-.61-.1-1.24-.08-1.9,0,0,0,0,0,0,0-.01,0-.02,0-.03,0,0,0,0,0,0,0,0,0,0,0,0,0,0,0,0,0,0,0,0,0-.01,0-.02,0,0,0,0,0,0,0,0,0,0,0,0,0,0,0,0,0,0,0,0,0,0,0-.01,0,0,0,0,0,0,0,0,0,0,0,0,0,0,0,0,0,0,0,0,0,0,0,0,0,0,0,0,0-.01,0,0,0,0,0,0,0,0,0,0,0,0,0,0,0,0,0,0,0,0,0,0,0-.01h0s0-.01,0-.02c0,0,0,0,0,0,0,0,0,0,0-.01h0s0-.01,0-.02c0,0,0,0,0,0,0,0,0,0,0-.01,0,0,0,0,0,0,0,0,0-.01,0-.02,0,0,0,0,0,0,0,0,0,0,0-.01,0,0,0,0,0,0,0,0,0-.01,0-.02h0c.02-.28.04-.55.07-.83.06-.6.15-1.2.27-1.8.13-.65.29-1.3.48-1.94-.13.76-.22,1.53-.27,2.29-.04.61-.03,1.2.02,1.78-.11.65-.19,1.3-.22,1.94-.05.93,0,1.81.13,2.65"/>
        <path class="cls-1" d="M86.56,23.98c-.15,2.55.46,5.34,2.66,7.6,2.24,2.31,6.13,4.06,12.54,4.43h0c6.35.37,10.39-.89,12.89-2.88,2.5-1.99,3.45-4.72,3.6-7.3.03-.52.02-1.04-.04-1.55-.48-4.47-4.12-8.06-8.75-8.33-2.53-.15-4.89.73-6.67,2.27-1.59-1.74-3.82-2.88-6.36-3.03-4.57-.27-8.57,2.8-9.62,7.09h0c-.14.55-.22,1.11-.26,1.7"/>
        <path class="cls-20" d="M100.01,25.34c-.05.79.96,1.81,2.26,1.89,1.31.08,2.42-.82,2.47-1.61.05-.79-.99-1.19-2.3-1.27-1.31-.08-2.38.2-2.43.99"/>
        <path class="cls-8" d="M102.23,25.44c-.49-.05-.87-.28-.86-.46.01-.19.45-.24.98-.21.07,0,.14,0,.2.02.43.04.75.14.74.3-.01.19-.45.38-.99.35-.03,0-.05,0-.08,0"/>
        <path class="cls-20" d="M104.46,39.45c-.22-.02-.39-.2-.39-.43,0-.24.19-.44.43-.45,4.68-.12,8.65-1.15,11.48-2.98,3.08-1.99,4.75-4.82,4.96-8.42.46-7.88-4.06-17.23-15.06-19.14-.24-.04-.4-.27-.36-.51.04-.24.27-.4.51-.36,5.32.93,9.62,3.59,12.43,7.69,2.42,3.53,3.61,7.93,3.35,12.37-.22,3.84-2.08,6.99-5.36,9.11-2.97,1.92-7.1,3-11.94,3.12-.02,0-.04,0-.06,0"/>
        <path class="cls-20" d="M101.27,38.96c.13-.06.25-.1.37-.14.12-.04.25-.07.37-.09.25-.05.49-.08.73-.1.24-.02.49-.04.73-.05.24,0,.48-.01.73,0h0c.24.02.42.23.4.47-.02.21-.18.38-.39.4-.25.03-.5.02-.74.02-.25-.01-.5-.04-.74-.07-.25-.04-.49-.08-.74-.15-.12-.03-.24-.07-.36-.12-.12-.05-.24-.1-.36-.18h0Z"/>
        <path class="cls-20" d="M85.63,32.52c.15.14.29.3.43.45.14.16.27.32.4.48.13.16.27.33.39.51.06.09.12.18.18.29.06.1.11.2.16.32-.13-.01-.24-.04-.35-.08-.11-.03-.22-.08-.32-.12-.21-.1-.39-.22-.58-.35-.18-.13-.36-.27-.52-.42-.16-.15-.32-.32-.45-.5-.14-.2-.09-.47.11-.61.17-.12.4-.1.55.03h0Z"/>
        <path class="cls-20" d="M85.12,33.1c-.11-.01-.21-.06-.29-.15-1.9-2.25-2.78-4.96-2.6-8.03.2-3.47,1.28-6.83,3.13-9.71,2.05-3.2,4.97-5.62,8.44-7,.23-.09.48.02.57.25.09.23-.02.48-.25.57-7.61,3.04-10.68,10.23-11.02,15.94-.17,2.84.64,5.34,2.39,7.42.16.19.13.46-.05.62-.09.08-.21.11-.33.1h0Z"/>
        <path class="cls-24" d="M105.66,25.22c.24,2.79,2.42,3.57,5.26,4.9,1.78.84,2.97,2,3.74,3,2.5-1.99,3.45-4.72,3.6-7.3.03-.52.02-1.04-.04-1.55-1.61-1.88-4.21-3.74-8.13-3.5-2.87.18-4.6,2.45-4.43,4.45h0Z"/>
        <path class="cls-24" d="M86.56,23.98c-.15,2.55.46,5.34,2.66,7.6.88-.89,2.18-1.87,4-2.48,2.97-1,5.24-1.52,5.79-4.26.4-1.97-1.05-4.42-3.88-4.93-3.74-.68-6.49.76-8.31,2.38h0c-.14.55-.22,1.11-.26,1.7h0Z"/>
        <path class="cls-20" d="M99.02,7.8c-.11-.01-.22-.06-.29-.16-.93-1.12-1.02-2.71-.26-4.61.19-.46.61-.77,1.11-.79.5-.02.95.24,1.18.69,1.64,3.22,5.28,4.22,5.31,4.23.23.06.37.3.31.54-.06.23-.3.37-.54.31-.16-.04-4.05-1.1-5.87-4.68-.1-.2-.3-.21-.35-.21-.07,0-.25.03-.33.24-.44,1.1-.77,2.64.12,3.72.15.19.13.46-.06.62-.09.08-.21.11-.32.1h0Z"/>
        <path class="cls-20" d="M93.92,9.05c-.15-.02-.3-.11-.36-.27-.37-.87-.53-2.16-.49-3.85.01-.54.33-.99.83-1.19.5-.2,1.05-.09,1.43.3,1.32,1.33,2.52,2.13,3.48,2.34.24.05.39.28.34.52-.05.24-.28.39-.52.34-1.14-.24-2.46-1.11-3.92-2.58-.19-.19-.41-.13-.48-.1-.06.02-.27.13-.27.39-.04,1.54.11,2.74.42,3.48.09.22-.01.48-.23.58-.07.03-.14.04-.21.03h0Z"/>
        <path class="cls-20" d="M112.79,26.24c-.08-.03-.17-.08-.26-.12-.05-.02-.09-.04-.14-.06l-.14-.06c-.09-.04-.19-.07-.27-.11l-.27-.1c-.36-.13-.73-.23-1.09-.3-.18-.04-.36-.05-.54-.08-.18,0-.37-.03-.55-.02-.09,0-.19,0-.28,0-.09,0-.19.01-.29.02-.1,0-.2.02-.3.03-.1.01-.2.02-.31.02h-.08c-.26,0-.48-.2-.49-.46,0-.16.07-.3.19-.39.4-.3.87-.53,1.39-.62.25-.07.52-.07.78-.08.26.01.52.02.78.08.51.1,1,.29,1.43.56.1.07.21.14.31.21.1.08.2.15.29.24.09.09.18.17.27.27.09.1.16.19.25.31.15.21.1.5-.12.65-.13.09-.28.11-.42.06l-.12-.04h0Z"/>
        <path class="cls-20" d="M90.96,24.26c.1-.11.18-.2.28-.28.09-.09.19-.16.3-.23.1-.08.21-.14.32-.21.11-.06.22-.12.33-.18.46-.21.96-.35,1.48-.39.26-.03.52,0,.78,0,.26.05.52.08.76.17.5.15.94.44,1.3.78.19.18.2.48.02.67-.11.12-.26.17-.41.15h-.08c-.11-.03-.21-.05-.31-.07-.1-.02-.19-.05-.29-.06-.1-.02-.19-.03-.28-.05-.09-.02-.19-.02-.28-.04-.18-.03-.37-.03-.55-.05-.18,0-.37,0-.55.01-.37.02-.74.08-1.12.17l-.28.07c-.09.03-.19.05-.29.08l-.14.04s-.09.03-.14.05c-.09.03-.2.07-.28.08l-.12.03c-.25.05-.5-.11-.56-.36-.03-.15.01-.3.11-.41h0Z"/>
        <path class="cls-3" d="M88.37,59.29c7.25,5.32,3.13,7.97,3.69,10.64.4,1.95,9.67,3.36,10.81.93,1.22-2.62-2.18-4.02-2.18-4.02,0,0,6-4.93.93-10.46l-13.25,2.9"/>
        <path class="cls-9" d="M97.48,71.63h-.03c-.59-.06-1.18-.16-1.77-.28-.58-.13-1.15-.28-1.7-.49-.27-.1-.53-.22-.78-.35-.24-.13-.47-.29-.6-.45-.07-.08-.11-.16-.12-.21l-.03-.19c0-.06,0-.13-.01-.19,0-.26.03-.53.08-.81.11-.56.31-1.14.46-1.77.07-.31.13-.64.16-.96.03-.33.03-.67,0-1-.08-.67-.28-1.32-.58-1.9-.3-.59-.67-1.12-1.09-1.6-.42-.48-.88-.92-1.38-1.3-.45-.35-.94-.65-1.46-.88.42-.07.83-.08,1.23-.04,2.75.28,4.8,3,4.01,5.88-.24.88-.5,1.68-.33,2.49.21,1.01,2.79,1.87,5.38,2.13.08,0,.17.02.25.02-.3.43-.39.86-.39,1.24,0,.28.09.53.24.74-.51,0-1.02-.03-1.53-.08"/>
        <path class="cls-20" d="M88.46,59.18c.59.24,1.13.56,1.63.95.5.38.96.82,1.38,1.3.42.48.79,1.02,1.09,1.6.3.59.51,1.23.58,1.9.03.33.03.67,0,1-.03.33-.09.65-.16.96-.14.62-.34,1.21-.46,1.77-.06.28-.09.55-.08.81,0,.06,0,.13.01.19l.03.19c.01.05.05.13.12.21.14.16.36.32.6.45.24.13.51.25.78.35.54.21,1.12.36,1.7.49.58.12,1.17.22,1.77.28.59.06,1.19.09,1.78.08.59-.01,1.18-.06,1.74-.18.28-.06.55-.14.79-.25.24-.11.45-.25.59-.41.04-.04.06-.08.09-.12l.03-.06.04-.09c.05-.12.09-.24.13-.37.06-.25.08-.5.04-.74-.07-.48-.37-.94-.76-1.32-.2-.19-.42-.36-.66-.52-.12-.08-.24-.15-.36-.22-.12-.07-.26-.13-.37-.18l-.66-.28.55-.46c.08-.06.17-.15.25-.23.09-.08.17-.16.25-.25.17-.17.32-.35.48-.53.3-.37.58-.75.82-1.16.48-.81.84-1.69.95-2.61.06-.46.06-.92,0-1.37-.06-.46-.19-.9-.36-1.32-.1-.21-.19-.42-.31-.62-.06-.1-.1-.21-.16-.31-.06-.1-.11-.2-.17-.31l-.08-.16c-.03-.05-.06-.1-.09-.15-.06-.1-.11-.21-.17-.32-.11-.22-.23-.43-.31-.69h0c-.03-.09.02-.18.1-.21.04-.01.09,0,.12.01.24.13.45.28.65.45.1.09.19.18.28.28.04.05.09.1.13.14.04.05.08.1.12.16.08.11.16.21.23.32.07.11.13.23.2.34.13.23.22.48.32.73.17.5.32,1.02.38,1.55.06.53.06,1.07,0,1.6-.13,1.06-.54,2.06-1.07,2.95-.27.45-.57.87-.9,1.26-.17.2-.34.39-.52.58-.09.09-.18.18-.28.27-.1.09-.19.18-.3.27l-.11-.74c.17.07.31.14.46.22.14.08.28.16.42.25.28.18.54.38.78.62.24.23.47.5.65.8.18.3.32.65.37,1.01.06.36.03.74-.05,1.08-.04.17-.1.34-.17.5l-.05.12-.07.14c-.05.09-.11.17-.18.25-.26.3-.58.5-.9.64-.32.14-.64.24-.96.31-.64.14-1.28.19-1.91.2-.63.01-1.26-.02-1.89-.09-.62-.06-1.24-.16-1.86-.29-.62-.13-1.23-.3-1.83-.53-.3-.11-.6-.24-.89-.41-.29-.17-.59-.35-.85-.66-.13-.15-.25-.35-.31-.59l-.04-.27c-.01-.09-.01-.18-.02-.27,0-.35.04-.69.1-1.01.13-.64.33-1.22.46-1.79.06-.28.11-.57.14-.85.02-.28.02-.56,0-.83-.06-.55-.24-1.08-.51-1.58-.27-.5-.63-.96-1.01-1.4-.09-.11-.2-.22-.29-.33-.1-.11-.2-.22-.3-.32l-.31-.32-.32-.31c-.21-.22-.43-.42-.63-.65-.21-.22-.42-.44-.61-.7h0c-.05-.07-.04-.17.03-.22.04-.03.1-.04.15-.02"/>
        <path class="cls-5" d="M73.9,53.59c.69-.29,1.48.08,1.69.79.11.36.13.79-.05,1.28-.43,1.19-3.02.98-4.71-.2-.45-.31-.27-1.02.27-1.09.69-.08,1.63-.3,2.8-.79"/>
        <path class="cls-19" d="M71.64,55.45c-.19-.1-.38-.21-.56-.33-.02-.01-.04-.03-.05-.05.13.02.25.04.38.05.58.06,1.13.02,1.58-.12.09-.03.17-.06.26-.1.03.03.06.05.1.08-.51.14-.96.23-1.33.27-.16.02-.28.09-.37.19"/>
        <path class="cls-20" d="M73.9,53.59h0s0,0,0,0M74.47,53.94c-.14-.01-.27,0-.4.06h0c-1.03.44-2.01.71-2.92.82-.1.01-.13.08-.14.12,0,.04-.02.11.06.17,1.2.83,2.74,1.07,3.54.81.28-.09.45-.22.51-.41.12-.34.14-.68.04-1.01-.07-.22-.22-.4-.43-.5-.09-.04-.18-.07-.27-.07M73.42,56.87c-.96-.1-2.01-.47-2.84-1.04-.36-.25-.52-.68-.41-1.1.1-.42.45-.73.88-.78.82-.1,1.72-.36,2.68-.76.45-.19.95-.18,1.39.03.43.21.76.59.9,1.05.15.51.13,1.03-.06,1.55-.16.45-.53.77-1.07.95-.42.13-.93.17-1.47.11"/>
        <path class="cls-5" d="M71.93,51.58c.75-.32,1.61.09,1.84.86.12.39.14.86-.05,1.39-.47,1.29-3.28,1.06-5.13-.21-.49-.34-.3-1.11.3-1.18.75-.09,1.77-.32,3.04-.86"/>
        <path class="cls-19" d="M69.74,53.77c-.32-.14-.62-.31-.9-.5-.1-.07-.1-.17-.08-.22,0-.04.04-.13.14-.16.38.11.77.18,1.15.22.41.04.8.04,1.17,0-.34.08-.65.13-.93.16-.3.04-.49.25-.56.49"/>
        <path class="cls-20" d="M72.1,51.99c-1.12.47-2.18.77-3.16.89-.13.02-.17.12-.18.16-.01.05-.02.15.08.22,1.18.82,2.88,1.21,3.88.89.31-.1.51-.26.58-.47.14-.38.15-.76.05-1.12-.07-.25-.25-.45-.49-.57-.24-.11-.52-.12-.76-.02M71.41,55.12c-1.03-.1-2.17-.51-3.07-1.13-.37-.26-.54-.71-.43-1.15.11-.44.47-.77.93-.82.9-.11,1.88-.39,2.93-.83.47-.2,1.01-.19,1.48.03.46.22.81.62.95,1.11.16.55.14,1.11-.06,1.67-.17.47-.57.82-1.14,1-.45.14-1,.18-1.58.12"/>
        <path class="cls-5" d="M70.9,49.69c.67-.4,1.54-.12,1.86.59.16.36.24.81.13,1.33-.28,1.29-2.99,1.43-4.91.45-.51-.26-.42-1.02.13-1.16.7-.18,1.64-.53,2.79-1.21"/>
        <path class="cls-19" d="M69.05,52.02c-.3-.09-.6-.21-.87-.35-.1-.05-.1-.14-.1-.18,0-.04.03-.13.14-.16.92-.24,1.89-.66,2.9-1.26.1-.06.2-.09.31-.11-.12.3-.2.61-.23.94-.66.31-1.23.51-1.69.63-.26.07-.42.27-.46.49"/>
        <path class="cls-20" d="M70.9,49.69h0s0,0,0,0M71.66,49.95c-.18-.02-.37.02-.53.12-1.01.59-1.98,1.02-2.9,1.26-.11.03-.14.12-.14.16,0,.05,0,.13.1.18,1.22.63,2.89.78,3.79.35.28-.13.44-.3.49-.51.08-.38.05-.73-.1-1.06-.1-.23-.29-.39-.53-.47-.06-.02-.12-.03-.18-.04M70.05,53.11c-.78-.08-1.58-.3-2.27-.65-.4-.2-.62-.62-.57-1.06.05-.45.36-.81.79-.92.84-.22,1.74-.61,2.68-1.16.43-.25.95-.31,1.43-.16.47.15.86.5,1.06.95.23.5.28,1.04.16,1.61-.1.48-.44.86-.97,1.11-.6.29-1.43.38-2.3.29"/>
        <path class="cls-5" d="M101.62,71.73c-.77.1-1.47-.5-1.48-1.28,0-.39.1-.84.41-1.28.77-1.07,3.31-.13,4.69,1.53.37.44-.01,1.1-.58,1.02-.71-.11-1.72-.16-3.04,0"/>
        <path class="cls-19" d="M104.74,71.29s-.01,0-.02,0c-.14-.02-.29-.04-.44-.06s-.29-.03-.44-.03c-.2-.24-.42-.46-.66-.66h.03c.15.02.29.04.41.06.01,0,.02,0,.03,0,.25.03.46-.1.58-.27.24.2.47.43.66.66.07.08.04.17.02.21-.02.03-.07.11-.18.1"/>
        <path class="cls-20" d="M101.84,69.17c-.1,0-.19-.01-.28-.01-.31.01-.53.1-.65.27-.22.31-.33.65-.33,1.01,0,.25.11.48.3.64.19.16.44.24.69.21,1.16-.15,2.23-.15,3.16,0,.12.02.17-.06.19-.1.02-.04.05-.12-.02-.21-.8-.96-2.09-1.72-3.07-1.82M101.28,72.17c-.36-.04-.7-.18-.98-.42-.37-.33-.59-.8-.6-1.29,0-.55.16-1.07.49-1.54.28-.4.75-.62,1.33-.64,1.26-.04,3,.88,4.05,2.14.28.34.32.81.1,1.2-.22.39-.65.6-1.09.53-.86-.13-1.84-.13-2.92,0-.13.02-.27.02-.4,0"/>
        <path class="cls-5" d="M100.25,72.26c-.77.1-1.47-.5-1.48-1.28,0-.39.1-.84.41-1.28.77-1.07,3.31-.13,4.69,1.53.37.44-.01,1.1-.58,1.02-.71-.11-1.72-.16-3.04,0"/>
        <path class="cls-20" d="M100.11,72.27s.09,0,.13-.01c.09-.01.18-.02.26-.03-.09,0-.17.02-.26.03-.04,0-.09,0-.13.01"/>
        <path class="cls-23" d="M101.95,72.15h0c.34,0,.65.02.92.05.15.01.29.03.41.05.01,0,.02,0,.03,0,.2.02.37-.05.5-.17h0c-.12.12-.3.19-.5.17-.01,0-.02,0-.03,0-.13-.02-.27-.04-.42-.05-.27-.03-.58-.05-.92-.05"/>
        <path class="cls-20" d="M101.85,72.15s0,0,0,0c.03,0,.07,0,.1,0h0s-.07,0-.1,0"/>
        <path class="cls-19" d="M103.19,70.54c-.07-.06-.15-.12-.22-.18h0c.08.06.15.12.22.18h0"/>
        <path class="cls-21" d="M103.84,71.2c-.2-.24-.42-.46-.66-.66h0c.24.2.46.42.66.66h0"/>
        <path class="cls-20" d="M101.47,72.15c.13,0,.26,0,.38,0,0,0,0,0,0,0-.12,0-.25,0-.38,0M103.82,72.08c.22-.21.28-.57.05-.85,0,0-.02-.02-.02-.03h0s.02.02.02.03c.23.28.17.64-.05.85h0"/>
        <path class="cls-19" d="M99.95,72.26c-.6-.06-1.1-.53-1.17-1.15.04,0,.09.02.14.02.1,0,.2,0,.3,0,1.08-.14,1.95-.13,2.62-.06.15.01.29.03.41.05.01,0,.02,0,.03,0,.45.05.77-.37.68-.76.08.06.15.12.22.18.24.2.46.42.66.66,0,0,.02.02.02.03.23.28.17.64-.05.85-.12.12-.3.19-.5.17-.01,0-.02,0-.03,0-.13-.02-.27-.04-.41-.05-.27-.03-.58-.05-.92-.05-.03,0-.07,0-.1,0-.12,0-.25,0-.38,0-.3.01-.62.03-.96.07-.09,0-.17.02-.26.03-.04,0-.09,0-.13.01-.06,0-.11,0-.17,0"/>
        <path class="cls-20" d="M100.46,69.69c-.1,0-.19-.01-.28-.01-.31.01-.53.1-.65.27-.22.31-.33.65-.33,1.01,0,.25.11.48.3.64.19.16.44.24.69.21,1.16-.15,2.22-.15,3.16,0,.12.02.17-.06.19-.1.02-.04.05-.12-.02-.21-.8-.96-2.09-1.72-3.07-1.82h0ZM99.9,72.7c-.36-.04-.7-.18-.98-.42-.37-.33-.59-.8-.6-1.29,0-.55.16-1.07.49-1.54.28-.4.75-.62,1.33-.64,1.26-.04,3,.88,4.05,2.14.28.34.32.81.1,1.2-.22.39-.65.6-1.09.53-.86-.13-1.84-.13-2.92,0-.13.02-.27.02-.4,0h0Z"/>
        <path class="cls-3" d="M85.33,36.47c-2.42,1.99-2.41,2.44-5.78,7.01-1.77,2.39-4.31,3.07-6.02,4.11-2.06,1.25-3.96,4.25-.19,7.39,2.45,2.04,6.91,1.52,9.07-.61,3-2.96,5.78-8.93,7.85-9.88l-4.93-8.02"/>
        <path class="cls-9" d="M81.15,55.3h0c.47-.26.9-.58,1.26-.93.9-.89,1.78-2.05,2.63-3.26-.85,1.21-1.73,2.37-2.63,3.26-.36.36-.79.67-1.26.93"/>
        <path class="cls-11" d="M80.82,55.48h0c.12-.06.23-.11.34-.18h0c-.11.06-.22.12-.34.18"/>
        <path class="cls-20" d="M80.19,55.75c.21-.08.42-.17.62-.27h0c-.2.1-.41.19-.62.27"/>
        <polyline class="cls-20" points="72.82 54.51 72.82 54.51 72.82 54.51"/>
        <path class="cls-19" d="M72.53,54.21c-.37-.4-.65-.79-.86-1.17h0c.21.38.49.77.86,1.17h0"/>
        <path class="cls-20" d="M72.81,54.5c-.1-.1-.2-.2-.29-.29h0c.09.1.18.19.29.29"/>
        <path class="cls-19" d="M71.33,52.22c-.13-.43-.16-.85-.13-1.25-.03.4,0,.82.13,1.25h0"/>
        <path class="cls-20" d="M71.67,53.04c-.15-.28-.27-.55-.34-.82h0c.08.27.19.55.34.82h0"/>
        <polyline class="cls-19" points="71.19 50.97 71.19 50.97 71.19 50.97"/>
        <path class="cls-9" d="M76.53,56.23c-1.19-.12-2.31-.52-3.19-1.25-.19-.16-.37-.32-.53-.47,0,0,0,0,0,0,0,0,0,0,0,0-.1-.1-.2-.2-.29-.29-.37-.4-.65-.79-.86-1.17-.15-.28-.27-.55-.34-.82-.13-.43-.16-.85-.13-1.25h0s0,0,0,0c.07-.86.46-1.62,1-2.25-.03,1.17.54,2.49,2.16,3.84.87.73,2,1.13,3.19,1.25,2.15.22,4.49-.49,5.89-1.86,2.08-2.06,1.96-5.21,5.23-7.74.23-.18.51-.25.78-.22.33.03.64.21.82.52-1.45.66-3.24,3.79-5.22,6.62-.85,1.21-1.73,2.37-2.63,3.26-.36.36-.79.67-1.26.93-.11.06-.22.12-.34.18-.2.1-.41.19-.62.27-1.14.43-2.43.61-3.66.48"/>
        <path class="cls-20" d="M85.43,36.58c-.31.41-.65.78-.97,1.15-.32.37-.64.73-.94,1.11-.3.38-.59.77-.88,1.17l-.89,1.2-1.77,2.43c-.07.1-.16.2-.24.31-.08.1-.16.21-.25.31l-.27.29c-.09.1-.19.19-.28.28-.09.09-.19.18-.29.27-.1.08-.2.17-.3.25-.21.16-.41.32-.63.47-.86.59-1.79,1.04-2.68,1.47-.45.22-.89.44-1.29.68-.39.24-.76.53-1.07.87-.63.66-1.05,1.51-1.05,2.39,0,.43.1.87.27,1.28.18.41.43.8.73,1.16.3.36.64.69,1.01,1,.35.29.75.52,1.17.7.85.36,1.8.5,2.75.47.94-.03,1.89-.23,2.76-.6.43-.19.85-.41,1.22-.68.19-.14.37-.28.53-.44.17-.16.34-.34.5-.52.65-.72,1.25-1.5,1.83-2.31.58-.81,1.13-1.64,1.68-2.47l.84-1.25c.29-.41.56-.84.86-1.25.3-.41.63-.81,1.02-1.17.19-.18.41-.34.64-.48.24-.14.49-.25.78-.29.08-.01.16.05.17.13,0,.05-.01.09-.04.13h0c-.17.18-.32.36-.47.54-.15.19-.29.37-.44.56-.3.37-.59.76-.89,1.15-.3.39-.6.78-.88,1.19-.28.41-.56.82-.84,1.24-.56.83-1.11,1.67-1.7,2.49-.59.82-1.2,1.63-1.89,2.39-.17.19-.35.37-.54.56-.2.19-.4.36-.62.52-.43.32-.91.57-1.39.78-.98.41-2.02.64-3.07.67-1.05.03-2.12-.12-3.12-.54-.5-.21-.97-.49-1.39-.84-.4-.34-.78-.7-1.12-1.11-.34-.41-.64-.86-.87-1.37-.21-.51-.35-1.07-.34-1.63,0-.28.04-.57.1-.84.06-.28.16-.54.27-.79.11-.25.25-.49.41-.72.15-.23.33-.44.51-.63.37-.4.79-.73,1.25-1.02.45-.27.91-.5,1.36-.72.9-.44,1.78-.86,2.57-1.41.2-.13.39-.28.58-.42.09-.07.18-.15.27-.23.09-.08.18-.16.26-.24.08-.08.17-.16.25-.25l.24-.26c.08-.09.15-.18.22-.27.07-.09.15-.18.22-.29.59-.8,1.17-1.61,1.74-2.43.57-.82,1.12-1.66,1.81-2.44.34-.39.71-.76,1.12-1.07.41-.31.83-.59,1.3-.82.07-.04.16,0,.2.07.03.05.02.11-.01.16h0Z"/>
      </g>
    </g>
    <path class="cls-20" d="M104.21,28.87c-2.85.98-4.39-.56-4.84-.27-.14.09-.26.45-.14.59,1.38,1.59,3.72,1.73,5.38.45.18-.14.24-.34.18-.56-.05-.16-.36-.29-.57-.21Z"/>
  </g>
</svg>