<?xml version="1.0" encoding="UTF-8"?>
<svg id="Vrstva_1" data-name="Vrstva 1" xmlns="http://www.w3.org/2000/svg" viewBox="0 0 28.25 29.5">
  <defs>
    <style>
      .cls-1 {
        fill: #1d1d1b;
      }
    </style>
  </defs>
  <path class="cls-1" d="M28.13,25.51c-.09,1.75-1.45,3.16-3.19,3.37-.42.05-.85.1-1.28.14-7.38.76-14.24.57-20.42-.15-1.75-.2-3.08-1.67-3.15-3.43-.1-2.44-.09-4.48-.06-6.02.11-4.9.56-7.45.5-12.73-.01-.9-.03-1.74-.07-2.51C.38,2.27,1.82.63,3.73.46,8.42.04,13.6-.13,19.16.11c1.84.08,3.63.2,5.36.36,1.88.17,3.29,1.79,3.24,3.68-.05,1.99-.04,3.66-.02,4.95.1,5.1.51,7.37.5,12.21,0,1.57-.06,2.98-.12,4.21Z"/>
</svg>