<?xml version="1.0" encoding="UTF-8"?>
<svg id="Vrstva_1" data-name="Vrstva 1" xmlns="http://www.w3.org/2000/svg" viewBox="0 0 31.56 33.52">
  <defs>
    <style>
      .cls-1 {
        fill: #1d1d1b;
      }
    </style>
  </defs>
  <path class="cls-1" d="M29.08,29.44c-1.91,1.8-4.49,2.73-7.05,3.3-3.96.88-8.08,1.02-12.09.41-2.43-.37-4.89-1.05-6.85-2.53-1.96-1.49-3.34-3.92-3.05-6.36.24-1.94,1.44-3.59,2.47-5.25,1.02-1.66,1.92-3.61,1.45-5.5-.57-2.3-3-3.81-3.49-6.14C.03,5.24,1.37,3.13,3.06,1.78c.56-.45,1.17-.84,1.8-1.17,1.57-.8,3.44-.82,5.02-.03,0,0,.02,0,.03.01,2.02,1.03,3.63,2.97,5.86,3.34,3.33.56,6.28-2.6,9.65-2.59,1.63,0,3.25.82,4.22,2.13.98,1.31,1.29,3.09.83,4.66-.69,2.33-2.95,4.12-3.01,6.55-.08,2.88,2.92,4.88,3.82,7.62.82,2.5-.29,5.33-2.21,7.13Z"/>
</svg>