<?xml version="1.0" encoding="UTF-8"?>
<svg id="Vrstva_1" data-name="Vrstva 1" xmlns="http://www.w3.org/2000/svg" viewBox="0 0 30.78 31.32">
  <defs>
    <style>
      .cls-1 {
        fill: #1d1d1b;
      }
    </style>
  </defs>
  <path class="cls-1" d="M21.43,4.02C19.25,1.55,16.05,0,12.5,0,5.97.01.59,5.47.66,12c0,.63.06,1.25.17,1.86.3,1.78.21,3.61-.36,5.32C.18,20.06.01,20.99,0,21.96c-.07,5.13,4.11,9.36,9.23,9.36,1.14,0,2.24-.21,3.25-.59,1.98-.74,4.08-1.11,6.19-1.09.04,0,.08,0,.12,0,6.57,0,12-5.44,11.98-12.01,0-4.02-2-7.58-5.05-9.75-1.58-1.12-3.03-2.41-4.31-3.86Z"/>
</svg>