<?xml version="1.0" encoding="UTF-8"?>
<svg id="Vrstva_1" data-name="Vrstva 1" xmlns="http://www.w3.org/2000/svg" viewBox="0 0 202.95 137.29">
  <defs>
    <style>
      .cls-1 {
        fill: #fcf7f6;
      }

      .cls-2 {
        fill: #68aa31;
      }

      .cls-3 {
        fill: #ccb3c9;
      }

      .cls-4 {
        fill: #edcba9;
      }

      .cls-5 {
        fill: #97745d;
      }

      .cls-6 {
        fill: #c1866e;
      }

      .cls-7 {
        fill: #64140e;
      }

      .cls-8 {
        fill: #e8b886;
      }
    </style>
  </defs>
  <g>
    <path class="cls-7" d="M178.04,55.87c2.49,5.2,2.88,11.78,2.32,17.44-.49,4.89-1.86,9.61-4.23,13.93,4.16,1.97,7.48,1.46,11.7.27,3.01-.76,5.44-1.53,8.25.14,1.07.04,2.12.37,2.9,1.05.64.57.95,1.4.47,2.1.15.58-.18,1.04-.66,1.38-.02.65-.38,1.16-.93,1.49-.69.55-1.46.89-2.36,1.14-1.31,1.49-3.03,2.5-4.89,3.24l-5.41,1.73c-1.8.57-3.41,1.56-4.35,3.17-1.06,1.81-1.12,3.82-.1,5.67l.84,1.34c.56.68.62,1.45.62,2.29,0,1.28-.01,2.54-.54,3.73.23.57.25,1.11.09,1.68-.09,1.25-.53,2.98-1.67,3-.21.63-.73.96-1.39.88-.25-.07-.51-.1-.77-.11-.38-.02-.75-.15-1.03-.41-.79-.72-1.25-1.68-1.56-2.73-4.79-2.51-6.28-8.77-10.14-12.77l.86,3.49c.63,2.57,1.26,5.1,1.35,7.74.06,1.54-.12,3.13-1.25,4.28-.18.85-.47,1.67-1.08,2.35-.29.32-.67.55-1.1.63-1.12.23-1.35-.15-2.17-.53-.25-.11-.47-.28-.65-.48-.7-.79-1.16-1.71-1.34-2.77-.82-1.33-1.21-2.74-1.44-4.31-.77-5.44-1.13-10.85-1.27-16.34l-.1-3.95-2.77.16c-3.55-.03-6.71-1.6-8.71-4.56-4.28-6.33-3.54-15.69,3.03-20.31,1.36-.96,2.36-2.36,2.76-3.96l.08-1.88c1.35-.89,2.75.5,3.35,2.14,1.05-1.29,2.48-3.6,3.57-2.4.35.72.6,1.52.5,2.36,4.02-.11,7.73,1.34,10.7,4.18.37-4.21.22-8.19-.11-12.23-.1-1-.12-1.87.06-2.95l.39-1.88c.26-1.1,1.19-1.83,2.28-1.57.73-.58,1.67-.59,2.41-.02,1.07-.19,1.96.44,2.43,1.39l1.04,1.77Z"/>
    <path class="cls-8" d="M175.27,87.43c.81.6,1.8.85,2.71,1.26,2.43.89,5.08.88,7.59.34,1.95-.5,3.91-.96,5.87-1.37,1.22-.13,2.42-.07,3.62.17.43.22-2.02,1.32-1.5,4.69l-.02.51c-1.63,1.88-4.14,2.65-6.47,3.32-3.28.72-5.83,1.39-7.7,4.41-2.04,3.29-2,7.39-1.78,11.13,0,1.83-.32,4.04-2.3,4.68-.46.15-.85.23-1.29-.04-.84-.69-1.59-1.47-2.18-2.41l-2.4-3.82c-1.56-2.48-3.29-5.55-5.88-6.98l-.1.09c.83,3.63,1.46,7.4,1.74,11.08.14,1.85-.03,4.58-2.12,5.25-1.04.33-2.52-.07-3.22-.9-.51-1.19-.72-2.47-.91-3.75-.53-6.27-.88-12.74-1.09-19,0-.09.06-.14.15-.15l.43-.24c2.61-.26,5.17-1.05,7.39-2.46s3.79-3.42,5.23-5.71c.57-.66,1.03-1.38,1.48-2.17,2.63-4.62.98-9.46-2.29-13.26.29-2.82.39-5.65.3-8.49l-.35-5.76.16-.13.18-.02c1.78,1.29,3.82,1.02,5.68.06,1.08,1.41,1.44,3.48,1.71,5.24,1.23,7.77-.22,16.34-3.73,23.36.34.28.7.55,1.09.82v.26Z"/>
    <path class="cls-6" d="M174,116.54c1.39.07,2.5-.6,3-1.95.41-1.13.42-2.33.35-3.58-.25-4.1.08-8.57,2.87-11.73,1.19-1.35,2.75-2.11,4.51-2.54,2.68-.66,6.45-1.55,8.34-3.48.23-.24.47-.42.49-.73.13.82.41,1.58,1.02,2.26-2.17,2.27-5.75,3.27-8.73,4.1-1.4.39-2.68.9-3.82,1.77-2.94,2.25-3.49,6.28-1.25,9.25.47.62.85,1.25.84,2.09.08,1.23-.12,2.4-.47,3.6-1.3,1.58-3.35,2.5-5.39,2.05-.7-.15-1.26-.7-1.75-1.1Z"/>
    <path class="cls-6" d="M175.27,87.43c-.43-.32-.92-.58-1.28-1.08,3.74-8,5.32-17.1,3.22-25.72-.24-1-.54-1.87-1.07-2.72-1.79,1.14-4.25,1.24-5.81-.19-.24.1-.25-.42-.1-.52.53.61,1.25.91,1.99.49.64.63,1.61.62,2.21-.04,1.95.54,1.99-1.63,2.38-1.71.35-.06.5.04.65.34.76,1.54,1.25,3.1,1.63,4.79,1.93,8.57.52,18.67-3.84,26.34Z"/>
    <path class="cls-6" d="M163.54,103.33l.73,1.2c.91,3.61,1.87,7.1,2.41,10.76.25,1.78.21,3.48-.73,5.03-1.45.92-3.27.82-4.75-.05-.66-.32-1.1-.8-1.37-1.41l1.24.6c.82.25,1.62.34,2.41-.11,1.75-.99,1.6-3.99,1.38-6.09-.36-3.41-.95-6.71-1.63-10.05.16-.08.23.08.3.13Z"/>
    <path class="cls-4" d="M195.05,87.84l-.64.13c-1.64-.35-3.14-.15-4.74.26-4.04,1.05-7.76,2.26-11.7.46,2.65.74,5.4.61,8.11-.06l4.97-1.22c1.39-.21,2.81-.18,3.99.43Z"/>
    <path class="cls-1" d="M174.06,57.05c-.3.59-1.08.58-1.48.15-.4-1.29-.45-2.63-.02-3.91.4-.48,1.19-.47,1.57,0-.29,1.26-.37,2.46-.08,3.77Z"/>
    <path class="cls-4" d="M157.99,95.94l.11,3.27.85,14.92c.02.36.22.69-.02.97-.83-6.35-1.11-12.77-1.25-19.17l.31.02Z"/>
    <path class="cls-1" d="M198.42,91.61c-1.34-.62-2.73-.63-4.18-.21-.12-.58.07-1.17.4-1.67,1.45-.55,4.07.24,4.18,1.17.03.27-.07.54-.4.72Z"/>
    <path class="cls-4" d="M170.23,57.19l.1.52.36,5.54c.19,2.98-.06,5.93-.47,8.85-.2-.23-.05-.58-.03-.89.29-3.7.23-7.35-.06-11.05-.09-1.17-.19-2.22-.08-3.39.12.13.15.29.17.43Z"/>
    <path class="cls-1" d="M197.8,92.06c.3.39-.4.88-.73,1.07-.68.39-2.22.85-2.68.02-.13-.34-.26-.68-.14-1.06,1.13-.49,2.43-.49,3.55-.03Z"/>
    <path class="cls-1" d="M171.9,57.06c-.36.3-.85.14-1.07-.28-.44-.83-.53-1.93-.13-2.78.24-.5.76-.77,1.26-.68-.29,1.25-.35,2.43-.05,3.74Z"/>
    <path class="cls-1" d="M175.63,53.52c.52.72.4,2.89-.37,3.38-.19.12-.39.21-.57.04-.29-1.12-.33-2.39.07-3.52.12-.32.65-.02.86.09Z"/>
    <path class="cls-1" d="M179.47,120.13c.17.33-.35.94-.7.73-.86-.52-1.21-1.52-1.39-2.46l1.37-.29c.1.75.35,1.32.72,2.03Z"/>
    <path class="cls-1" d="M179.98,119.72c-.44-.51-.52-1.2-.64-1.88l1.2-.73c.35.05.33.6.32.9-.02.5-.28,1.76-.87,1.7Z"/>
    <path class="cls-3" d="M194.39,93.15c.94.63,3.11-.07,3.41-1.09,1.01.41-1.3,1.94-2.77,2.19-.35-.31-.53-.68-.65-1.09Z"/>
    <path class="cls-1" d="M198.92,89.77c-1.2-.54-2.43-.9-3.82-.78.23-.29.49-.43.81-.67,1.1-.04,2.37.3,3.01,1.45Z"/>
    <path class="cls-1" d="M163.42,123.35c-.9.19-1.56-1.1-1.74-2.15l1.23.35c.06.64.19,1.22.52,1.79Z"/>
    <path class="cls-1" d="M161.63,122.48c-.78-.29-.8-.74-1.05-1.59l.67.22c.12.47.17.93.38,1.36Z"/>
    <path class="cls-1" d="M164.86,121.49c.49.26-.46,1.61-.75,1.62-.05,0-.1-.03-.15-.07-.34-.38-.41-.88-.45-1.43l1.34-.12Z"/>
    <path class="cls-3" d="M179.98,119.72c.67-.65.78-1.75.55-2.6.21-.13.32-.41.63-.52.06,1.2-.37,3.3-.95,3.29-.06,0-.18-.06-.23-.17Z"/>
    <path class="cls-3" d="M174.69,56.94c1.22-.08,1.16-2.04.94-3.42.35.19.56.67.48,1.22-.11.75.02,1.57-.58,2.12-.14.13-.27.28-.45.29-.12.01-.32,0-.38-.22Z"/>
    <path class="cls-1" d="M176.75,118.41l.6,1.95c-.95-.47-1-1.26-1.31-1.97l.71.02Z"/>
    <path class="cls-3" d="M163.97,123.04c.55-.34.82-.92.89-1.55l.58-.14c-.27.88-1.1,2.13-1.32,1.87l-.15-.17Z"/>
    <g>
      <path class="cls-6" d="M173.13,80.27c.31,4.16-2.88,7.59-5.89,10.43,1.46-.79,2.73-1.94,3.8-3.17-2.36,5.18-7.44,8-13.05,8.41-.02.29-.26.26-.31-.02-.3-.82,1.61-.61,2.83-1.65-2.06.43-3.93.8-5.95.81-5.24.02-8.71-3.15-10.12-7.98l1.22,1.91c1.18,1.84,2.87,3.11,4.91,3.86,2.52.93,5.07.8,7.69.26,4.7-.98,9.07-3.33,12.09-7.09,1.41-1.75,2.43-3.63,2.8-5.77Z"/>
      <g>
        <path class="cls-8" d="M169.88,72.76c1.2,1.24,2.03,2.79,2.68,4.43.41,1.03.49,2.04.57,3.08-.28,3.94-3.61,7.54-6.75,9.69-6.93,4.73-18.24,6.27-21.95-2.86-.88-1.92-.99-4.25-.79-6.35.66-3.05,1.92-6.11,4.51-8.17,1.98-1.33,3.56-3.02,3.98-5.43.04-.62.12-1.53.6-1.41.51.1.88.64,1.1,1.07.15.29.28.65.35.99.14.6.02,1.01.27,1,.29-.13.43-.51.64-.75.69-.85,1.41-1.69,2.12-2.54.42-.5.58-.13.74.39.06.2.11.39.16.59.08.33.11.68.15,1.02.04.31.27.46.53.54,4.2-.11,8.26,1.7,11.1,4.71Z"/>
        <path class="cls-4" d="M153.35,66.14c-.3-.14-.62-.31-.94-.03-.05,2.35-1.2,4.5-3.16,5.89-2.07,1.47-3.64,3.35-4.52,5.78l-1.09,2.98c.37-3.81,2.31-7.22,5.46-9.42,1.77-1.24,3.29-3.7,2.88-5.91.61-.08,1.04.31,1.37.71Z"/>
        <g>
          <path class="cls-5" d="M152.81,92.59c.28.07.25.21-.03.25-2.81-.61-5.05-2.82-6.04-5.44.78-2.68,2.72-4.91,5.43-5.63,1.29-.34,2.56,0,3.44.9s1.29,2.18.8,3.42c-.68,1.71-3.38,3.85-3.61,6.5Z"/>
          <path class="cls-7" d="M154.84,84.69c.35.8-1.82-.06-3.47,2.35-.08.12-.25.19-.34.19-.11,0-.32-.2-.3-.4.17-1.74,2.05-3.08,3.68-2.45.21.08.38.2.43.31Z"/>
        </g>
        <g>
          <path class="cls-5" d="M169.17,75.64c1.74,2.15,2.46,5.33,1.31,7.96-.83-.44-1.73-.74-2.69-.71l-3.26.1c-1.57.15-2.95-.51-3.63-1.88s-.44-2.95.68-4.09c1.93-1.97,4.99-2.33,7.59-1.38Z"/>
          <path class="cls-7" d="M166.78,79.26c-2.66-.12-3.47,1.79-3.89,1.53-.16-.1-.22-.33-.17-.56.33-1.71,2.24-2.47,3.83-1.8.17.07.3.18.38.27.09.1.04.57-.15.56Z"/>
        </g>
        <g>
          <path class="cls-1" d="M169.17,75.64l-.35.09c-2.72-1.06-7.46.01-8.03,3.25-.37,2.12,1.13,3.66,3.18,3.83l3.83-.12c.53-.04,2.25.27,2.57.62.07.08.12.18.13.29-.51,1.18-1.25,2.25-2.08,3.23l-.1.12s-.07.08-.14.05c-.08.18-.22.32-.36.46-3.21,3.13-10.32,6.48-14.83,5.28-.07-.02-.12-.08-.17-.16-.2-.37-.17-.81.1-1.33.79-1.59,1.76-3.09,2.92-4.49.91-1.46.78-3.04-.58-4.17-2.93-2.44-7.5,1.52-8.22,4.56l-.29.24c-1.35-3.58-.13-7.44,3.29-9.35,1.85-1.03,3.98-1.33,6.04-.5.8-2.79,3.15-4.65,5.81-5.08,2.9-.47,5.68.77,7.29,3.17Z"/>
          <path class="cls-3" d="M168.16,87.01c-.02.24-.15.4-.35.6-3.05,2.99-6.97,4.88-11.22,5.49-1.33.19-2.58.01-3.82-.26l.03-.25c5.24.94,11.5-2.08,15.36-5.58Z"/>
          <path class="cls-3" d="M168.3,86.96l.1-.12-.1.12Z"/>
          <path class="cls-7" d="M162.59,84.42c-1.11,2.89-4.88,2.78-5.01,1.97-.02-.14.12-.48.35-.46,1.48.13,2.93-.53,3.84-1.75.15-.21.17-.46.48-.39.22.04.47.31.34.63Z"/>
          <g>
            <path class="cls-7" d="M157.8,84.37c-.31-.17-.5-.43-.55-.68-.24-1.22,2.8-2.54,3.31-1.63.4.7.06,1.59-.44,2.11-.58.6-1.59.61-2.32.21Z"/>
            <path class="cls-6" d="M159.71,82.55c-.65.21-1.21.66-1.95.75.81-1.11,2.56-1.29,2.13-.91l-.19.16Z"/>
          </g>
        </g>
      </g>
    </g>
  </g>
  <g>
    <path class="cls-2" d="M27.23,89.84c0-4.83.06-18.11.06-22.07s2.42-4.03,2.97-4.03c3.16,0,3.16,5.33,3.16,7.56,0,2.73.12,17.86.5,22.26l4.46-.5c.25,0,3.35-.37,3.47-.5v-17.6c0-1.86.62-2.54,2.23-2.54,2.48,0,3.53.56,3.84,3.04.06,1.92.5,10.66.5,12.58,0,9.42.12,28.02-.43,34.84-.31,1.3-1.61,1.12-2.42,1.12s-2.91-.12-2.91-1.61l-.06-22.81c0-.06-.5-.37-.74-.5-1.8,0-7.62,1.05-8.18,1.05h-.06l.12,13.62c0,.51-.24,1-.67,1.27-.76.47-1.7.79-2.54.79-1.3,0-2.42-.68-2.54-2.29-.62-7.56-.74-15.92-.74-23.67Z"/>
    <path class="cls-2" d="M53.67,83.33c0-2.85,0-4.46.5-7.62.37-2.66,7.37-2.91,9.29-2.91,7,0,12.14,4.52,12.14,11.71,0,7.75-5.33,9.05-10.66,9.79,2.91,4.89,11.5,17.91,14.1,22.93-.19,1.3-2.17,2.48-3.35,2.48-2.41,0-14.17-18.94-16.01-24.38,0,0-.01,0-.01,0,.25,12.98.43,16.63.49,17.43,0,0,0,0,0,0-.43.93-2.79.99-3.72.99-1.12,0-1.42-.37-1.86-1.49-.81-9.67-.93-19.27-.93-28.94ZM59.86,78.99v10.53s0,0,0,0c2.11,0,9.66-.68,10.03-4.52.37-4.03-3.16-6.51-7-6.51-.56,0-3.04.25-3.04.5Z"/>
    <path class="cls-2" d="M93.29,74.28c8.61,0,10.1,9.85,10.1,16.79,0,6.2.37,27.39-12.33,27.39-10.16,0-11.77-11.34-11.77-18.77,0-8.86.99-25.4,14-25.4ZM85.23,98.33c0,7.37,1.86,14.25,5.82,14.25,4.4,0,6.75-9.6,6.75-18.34,0-7.25-1.61-13.94-5.08-14-4.9,0-7.5,9.42-7.5,18.09Z"/>
    <path class="cls-2" d="M109.4,75.28c.56-.06,1.05-.12,1.55-.12,3.1,0,4.28,1.73,4.28,2.04-.19,3.78-.49,8.98-.49,14.8,0,7.81,1.24,18.96,6.38,18.96,6.51,0,7.31-15.36,7.31-24.22,0-2.72-.05-5.44-.08-8.16-.04-2.72-.16-5.45-.1-8.17.01-.5,0-.98.06-1.45.1-.83.81-1.44,1.65-1.44,1.29,0,2.58,0,3.87,0,1.24,0,1.24,14.88,1.24,19.96,0,8.74,0,29.62-14.38,29.62-12.7,0-12.58-19.83-12.58-27.76,0-1.74-.44-14.06,1.3-14.06Z"/>
  </g>
  <g>
    <path class="cls-7" d="M52.05,53.64h-19.22V19.42c0-2.08-1.81-2.35-3.5-2.35-1.86,0-2.19,1.04-2.19,2.85v37.17c0,.55,1.04,1.59,1.48,1.92.6.11,3.45.38,4.11.38,2.19,0,19.11-.66,19.66-.93.82-.33,1.2-1.59,1.2-2.79s-.71-1.81-1.53-2.03Z"/>
    <path class="cls-7" d="M53.44,19.39c-8.6,0-10.79,10.95-10.79,17.91v.71c0,5.2-.4,13.6,1.46,13.6h3.5c.77,0,.93-1.1.93-1.64,0-2.46-.09-.62-.09-3.19l8.49-.71c.06,1.86.38,20.91,1.26,21.84,1.15,1.2,2.57.88,4,0,.38,0,.49-15.59.49-17.79,0-.6-.16-7.94-.49-12.87,0-5.75-.49-17.85-8.76-17.85ZM48.46,40.8c-.66-8.1-.44-15.22,4.93-15.11,3.56.06,3.39,9.97,3.56,14.62l-8.49.49Z"/>
    <path class="cls-7" d="M16.56,26.45c2.68,0,2.52,2.79,5.31,2.79,1.86,0,1.97-.99,1.97-2.35,0-4.38-3.56-5.91-7.56-5.91-5.2,0-9.8,3.67-9.8,9.14,0,6.52,5.59,9.91,8.87,15,1.2,1.2,2.41,3.72,2.41,5.48,0,1.97-2.08,2.74-3.78,2.74-2.3,0-3.94-6.41-5.8-6.41-1.04,0-3.61,1.37-3.61,2.52s.99,2.96,1.42,3.89c1.64,3.5,4.33,5.53,8.21,5.53,5.53,0,9.14-4.22,9.14-9.42,0-7.83-11.28-12.92-11.28-18.95,0-2.3,2.19-4.05,4.49-4.05Z"/>
    <path class="cls-7" d="M132.14,51.62h.11c1.1,0,1.75-.27,2.19-1.31.66-11.23.88-16.63.88-27.36-.49-1.48-2.14-1.97-3.61-1.97-1.92,0-2.03,3.83-2.08,6.9l-.49,22.93c0,.82,2.25.82,3.01.82Z"/>
    <path class="cls-7" d="M103.03,42.11c-.44-.93-2.29-6.84-2.24-6.9l.49-.82c3.01-3.78,7.51-11.28,7.51-12.37,0-1.59-2.41-2.63-3.61-2.63-.11,0-.71.06-.88.06-3.67,5.2-6.03,12.48-10.41,16.76l.44-17.82c0-.88-2.85-1.31-3.34-1.31-1.15,0-1.42.71-1.59,1.75,0,.1,0,.21,0,.31,0,.27-.01.53-.02.8-.01.41-.02.82-.03,1.24-.01.54-.03,1.08-.04,1.62-.02.65-.03,1.3-.05,1.95-.02.74-.04,1.49-.06,2.23-.02.82-.04,1.64-.07,2.45-.02.87-.05,1.75-.07,2.62-.02.91-.05,1.83-.07,2.74-.03.94-.05,1.87-.08,2.81-.03.94-.05,1.88-.08,2.82-.02.93-.05,1.85-.07,2.78-.05,1.78-.07,2.68-.07,2.68-.26,8.98-.33,10.74-.33,10.74s-.03.68.29,1.46c.17.4.34.63.59.75.26.12.51.07.6.07,1.01,0,2.01-.01,3.02-.01.6,0,1.04-9.03,1.31-15.22.71-.88,2.57-3.07,2.63-3.07l12.41,27.66c.27.44.44.44.82.44h.11c1.04,0,3.56-.77,3.56-2.19,0-1.26-.99-2.63-1.37-3.56-1.97-4.65-7.21-16.27-9.3-20.82Z"/>
    <path class="cls-7" d="M83.34,41.95c-1.81.99-2.79,10.95-6.02,10.68-4.87,0-5.8-8.87-5.8-12.32,0-3.94.88-15.61,6.35-15.61,4.16-.22,1.59,5.37,6.02,5.37,1.7,0,1.75-1.86,1.75-3.12,0-4.33-3.39-7.56-7.78-7.56-9.47,0-12.05,14.57-12.05,21.46s2.19,17.14,10.62,17.14c6.95,0,9.86-7.39,9.86-13.31,0-.22-.06-1.2-.06-1.42-.66-1.2-2.74-1.37-2.9-1.31Z"/>
    <path class="cls-7" d="M187.95,53.64h-11.3c.28.7.12,1.52.07,1.79-.08.43-.32,1.78-1.31,2.1-.38.12-.74.05-.98-.02-.06.07-.44.49-1.07.51-.65.02-1.06-.41-1.12-.47-.14.08-.4.22-.75.21-.59-.02-.97-.47-1.11-.64-.37-.44-.44-.92-.52-1.47-.05-.35-.1-.74,0-1.24.03-.15.1-.44.26-.77h-2.11v-11.36h5.31c1.04,0,1.31-4.38.44-4.65-1.92-.38-3.89-.66-5.75-.88v-10.02l10.73-.06c.27,0,.44-2.63.44-2.96,0-2.79-2.08-2.74-4.82-2.74s-8.32.22-10.79.22c-.71.33-.93,1.97-.93,2.25v31.67c0,1.48.6,3.07,1.81,4,4.54.06,23.49.06,27.93-.44,1.2-.11,1.37-1.97,1.37-3.18,0-1.7-1.9-1.86-5.79-1.86Z"/>
    <path class="cls-7" d="M156.22,17.07c-1.17-.06-1.65.17-2.02.93-.22,4.54-.11,16.34,0,22.58,0,.66.05,1.31.05,1.92v1.59c-1.75-4.22-6.35-18.72-9.97-22.12-1.64-1.53-5.69-1.26-5.69.6v28.43c.66.66,3.39.99,4.76,0,.93-2.52-.05-15.56.28-20.49,2.41,4.05,5.47,15.82,7.72,20.86.49,1.15,2.14,7.01,3.34,7.01h3.29c.27-.05.88-1.04.88-1.75,0-1.26-.06-2.57-.06-3.83,0-9.97.55-24.83.55-34.8-.83-.97-1.49-.97-3.13-.93Z"/>
    <path class="cls-7" d="M147.84,53.64h-28.45V19.39c0-2.08-1.81-2.35-3.5-2.35-1.86,0-2.19,1.04-2.19,2.85v37.2c0,.55,1.04,1.59,1.48,1.92.6.11,3.45.38,4.11.38,2.19,0,28.33-.66,28.88-.93.82-.33,1.2-1.59,1.2-2.79s-.71-1.81-1.53-2.03Z"/>
  </g>
</svg>