<?xml version="1.0" encoding="UTF-8"?>
<svg id="Vrstva_1" data-name="Vrstva 1" xmlns="http://www.w3.org/2000/svg" viewBox="0 0 79.37 79.37">
  <defs>
    <style>
      .cls-1 {
        fill: #abc7e9;
      }

      .cls-2 {
        fill: #ede4d5;
      }

      .cls-3 {
        fill: #eccfbc;
      }

      .cls-4 {
        fill: #fcfcfc;
        opacity: .8;
      }

      .cls-5 {
        fill: #241e3f;
      }

      .cls-6 {
        fill: #9d4f3e;
      }

      .cls-7 {
        fill: #b37e7f;
      }

      .cls-8 {
        fill: #b37059;
      }

      .cls-9 {
        fill: #7a7db3;
      }

      .cls-10 {
        fill: #64140e;
      }

      .cls-11 {
        fill: #fffbfc;
      }

      .cls-12 {
        fill: #c99c8c;
      }

      .cls-13 {
        fill: #edc28e;
      }

      .cls-14 {
        fill: #977761;
      }
    </style>
  </defs>
  <g>
    <path class="cls-8" d="M68.99,53.73h-.14c.05-.13.09-.25.13-.38,0,.12,0,.25,0,.38"/>
    <path class="cls-13" d="M69.93,47.01c.34,13.68-13.03,20.49-29.73,20.91-16.7.42-30.41-5.71-30.75-19.39-.33-13.11,7.8-28.29,26.95-30,2.29-1.24,5.38-3.37,7.07-6.45.53-.96,1.94-.86,2.31.18.5,1.38.97,3.19.1,5.57,2.54-1.31,5.05-2.79,5.87-3.57.88-.83,2.32-.21,2.31,1-.01,1.17-.37,3.65-.81,5.74,11.13,4.92,16.42,15.95,16.68,26.01"/>
    <path class="cls-6" d="M25.83,66.4h0c-9.05-2.44-15.44-7.81-16.29-16.38h0c.86,8.57,7.25,13.94,16.29,16.38"/>
    <path class="cls-9" d="M9.46,48.89h0c0-.12,0-.24-.01-.35-.02-.84,0-1.68.04-2.54,0,0,0,0,0,0-.05.85-.06,1.69-.04,2.53,0,.12,0,.24.01.35"/>
    <path class="cls-10" d="M35.5,67.86c-3.44-.18-6.7-.67-9.67-1.47h0c2.97.8,6.23,1.29,9.67,1.47M9.53,50.01h0c-.04-.37-.06-.74-.08-1.12h0c.02.38.04.75.08,1.12"/>
    <path class="cls-8" d="M68.98,53.36s0,0,0,0c.44-1.25.73-2.57.87-3.98h0s0-.02,0-.03h0s0-.02,0-.02c0,0,0,0,0,0,0,0,0-.01,0-.02,0,0,0,0,0,0,0,0,0,0,0-.02,0,0,0,0,0-.01,0,0,0-.01,0-.02,0,0,0,0,0-.01,0,0,0,0,0,0,0,0,0,0,0-.01,0,0,0,0,0,0,0-.01,0-.02,0-.03,0,0,0,0,0,0,0,0,0-.01,0-.02h0c.03-.34.05-.69.06-1.04h0s0-.05,0-.08t0,0s0-.04,0-.06h0s0-.01,0-.02c0,0,0,0,0,0,0-.02,0-.03,0-.05h0s0-.02,0-.02h0s0-.04,0-.06h0s0-.02,0-.02h0s0-.02,0-.03v-.02s0,0,0-.01c0,0,0,0,0-.01h0s0-.02,0-.02,0,0,0-.01v-.02s0,0,0-.01h0s0-.02,0-.02v-.02s0,0,0,0v-.02s0,0,0,0v-.02s0,0,0,0c0,0,0-.02,0-.02h0s0-.02,0-.02h0s0-.02,0-.03h0s0-.02,0-.03h0s0-.02,0-.02h0s0-.02,0-.03h0s0-.02,0-.03h0s0-.02,0-.02h0s0-.02,0-.03h0s0-.02,0-.03h0s0-.02,0-.02h0s0-.02,0-.03h0s0-.02,0-.03h0s0-.02,0-.03h0s0-.04,0-.06h0s0-.02,0-.02h0s0-.04,0-.06c0,0,0,0,0,0v-.02s0,0,0,0c0,0,0-.02,0-.02-.01-.45-.03-.89-.06-1.34h0c.03.45.05.9.06,1.34.06,2.31-.27,4.42-.95,6.34"/>
    <path class="cls-6" d="M68.85,53.72h0c.05-.12.09-.24.13-.37,0,0,0,0,0,0-.04.12-.09.24-.13.37"/>
    <path class="cls-6" d="M51.97,66.39c8.19-2.08,14.46-6.28,16.88-12.67h0c-2.42,6.39-8.69,10.59-16.88,12.67h0"/>
    <path class="cls-10" d="M43.06,67.79c3.14-.22,6.13-.69,8.91-1.39h0c-2.77.7-5.77,1.17-8.91,1.39"/>
    <path class="cls-8" d="M38.66,67.94c-1.07,0-2.13-.03-3.17-.08-3.44-.18-6.7-.67-9.67-1.47-9.05-2.44-15.44-7.81-16.29-16.38-.04-.37-.06-.74-.08-1.12,0-.12,0-.24-.01-.35-.02-.84,0-1.68.04-2.53.91,12.61,13.56,18.48,29.18,18.47.51,0,1.01,0,1.53-.02,14.39-.36,26.32-5.47,29.12-15.63,0,.13.01.27.01.4.04,1.45-.08,2.83-.34,4.12.44-1.24.73-2.57.87-3.98-.14,1.41-.43,2.73-.87,3.98-.04.12-.09.25-.13.37-2.42,6.39-8.69,10.59-16.88,12.67-2.77.7-5.77,1.17-8.91,1.39-.94.07-1.9.11-2.86.14-.51.01-1.03.02-1.53.02M69.85,49.37s0-.02,0-.02c0,0,0,.02,0,.02M69.85,49.35s0-.02,0-.02c0,0,0,.02,0,.02M69.85,49.32s0-.01,0-.02c0,0,0,.01,0,.02M69.86,49.29s0,0,0-.02c0,0,0,0,0,.02M69.86,49.27s0-.01,0-.02c0,0,0,.01,0,.02M69.86,49.24s0,0,0,0c0,0,0,0,0,0M69.86,49.22s0,0,0,0c0,0,0,0,0,0M69.87,49.18s0,0,0,0c0,0,0,0,0,0M69.87,49.16h0s0,0,0,0M69.93,48.12h0s0,0,0,0M69.93,48.04s0,0,0,0t0,0M69.93,47.99h0s0,0,0,0M69.93,47.97s0,0,0,0c0,0,0,0,0,0M69.93,47.91h0s0,0,0,0M69.93,47.89h0s0,0,0,0M69.93,47.83h0s0,0,0,0M69.93,47.81h0s0,0,0,0M69.93,47.78v-.02s0,.01,0,.02M69.93,47.76s0,0,0-.01c0,0,0,0,0,.01M69.94,47.73h0s0,0,0,0M69.94,47.71v-.02s0,.01,0,.02M69.94,47.68h0s0,0,0,0M69.94,47.65v-.02s0,.01,0,.02M69.94,47.63v-.02s0,.01,0,.02M69.94,47.6v-.02s0,.01,0,.02M69.94,47.58s0-.02,0-.02c0,0,0,.02,0,.02M69.94,47.55v-.02s0,.02,0,.02M69.94,47.52v-.02s0,.01,0,.02M69.94,47.5v-.02s0,.02,0,.02M69.94,47.47s0-.01,0-.02c0,0,0,.02,0,.02M69.94,47.44v-.02s0,.01,0,.02M69.94,47.42v-.02s0,.02,0,.02M69.94,47.39v-.02s0,.02,0,.02M69.94,47.36s0-.01,0-.02c0,0,0,.01,0,.02M69.94,47.34v-.03s0,.02,0,.03M69.94,47.31s0-.01,0-.02c0,0,0,.01,0,.02M69.93,47.28s0-.02,0-.02c0,0,0,.02,0,.02M69.93,47.26v-.03s0,.02,0,.03M69.93,47.23s0-.01,0-.02c0,0,0,.02,0,.02M69.93,47.2s0-.03,0-.05c0,.02,0,.03,0,.05M69.93,47.15s0-.01,0-.02c0,0,0,.01,0,.02M69.93,47.12s0-.03,0-.05c0,.02,0,.03,0,.05M69.93,47.06v-.02s0,.01,0,.02M69.93,47.04s0-.02,0-.02c-.01-.45-.03-.89-.06-1.34h0c.03.45.05.9.06,1.34,0,0,0,.02,0,.02"/>
    <path class="cls-1" d="M10.85,38.47s0,0,0,0c0,0,0,0,0,0M10.85,38.46c3.01-9.64,10.9-18.29,24.68-19.83-13.78,1.54-21.67,10.19-24.68,19.83M35.54,18.63s.02,0,.03,0c0,0-.02,0-.03,0M35.56,18.62s.05,0,.08,0c-.03,0-.05,0-.08,0M35.65,18.62s.01,0,.02,0c0,0-.01,0-.02,0M35.68,18.61s.02,0,.02,0c0,0-.02,0-.02,0M35.7,18.61s.04,0,.05,0c-.02,0-.04,0-.05,0M35.76,18.6s.01,0,.02,0c0,0-.01,0-.02,0M35.79,18.6s.01,0,.02,0c0,0-.02,0-.02,0M35.81,18.6s.03,0,.05,0c-.02,0-.04,0-.05,0M35.87,18.59s.01,0,.02,0c0,0-.01,0-.02,0M35.9,18.59s.02,0,.02,0c0,0-.02,0-.02,0M35.92,18.59s.04,0,.05,0c-.02,0-.04,0-.05,0M35.98,18.58s.01,0,.02,0c0,0-.01,0-.02,0M36.01,18.58s.01,0,.02,0c0,0-.01,0-.02,0M36.04,18.58s.02,0,.03,0c0,0-.02,0-.03,0M36.06,18.57s.02,0,.03,0c0,0-.02,0-.03,0M36.09,18.57s.01,0,.02,0c0,0-.01,0-.02,0M36.12,18.57s.01,0,.02,0c0,0-.01,0-.02,0M36.15,18.56s.04,0,.05,0c-.02,0-.03,0-.05,0M36.21,18.56s.01,0,.02,0c0,0-.01,0-.02,0M36.23,18.56s.01,0,.02,0c0,0-.01,0-.02,0M36.26,18.55s.03,0,.05,0c-.02,0-.04,0-.05,0M36.32,18.55s.01,0,.02,0c0,0-.01,0-.02,0M36.35,18.55s.01,0,.02,0c0,0-.01,0-.02,0M36.37,18.54s.02,0,.03,0c0,0-.02,0-.03,0"/>
    <path class="cls-3" d="M69.31,48.83c-.38-9.36-5.8-19.99-15.56-25.26-1.13-.61-1.73-1.87-1.49-3.13.28-1.42.5-2.75.51-3.52,0-.68-.23-.99-.6-.99-.29,0-.65.19-1.03.56-.64.61-2.32,1.64-4.23,2.69-.13.07-.26.1-.4.1-.47,0-.89-.4-.82-.92.21-1.57-.15-2.85-.52-3.88-.19-.53-.44-.85-.74-.85s-.64.31-1.03,1.03c-1.12,2.06-3.11,3.53-4.99,4.65-1.5.9-3.18,1.46-4.91,1.72-12.88,1.96-20.32,10.32-23.24,19.6.17-.72.37-1.44.59-2.16,0,0,0,0,0,0,0,0,0,0,0,0,3.01-9.64,10.9-18.29,24.68-19.83h0s.02,0,.03,0c0,0,0,0,0,0,.03,0,.05,0,.08,0,0,0,0,0,0,0,0,0,.01,0,.02,0,0,0,0,0,0,0,0,0,.02,0,.02,0,0,0,0,0,0,0,.02,0,.04,0,.05,0,0,0,0,0,0,0,0,0,.01,0,.02,0,0,0,0,0,0,0,0,0,.02,0,.02,0,0,0,0,0,0,0,.02,0,.04,0,.05,0,0,0,0,0,0,0,0,0,.01,0,.02,0,0,0,0,0,0,0,0,0,.02,0,.02,0t0,0s.04,0,.05,0c0,0,0,0,0,0,0,0,.01,0,.02,0,0,0,0,0,0,0,0,0,.01,0,.02,0,0,0,0,0,0,0,0,0,.02,0,.03,0h0s.02,0,.03,0c0,0,0,0,0,0,0,0,.01,0,.02,0,0,0,0,0,0,0,0,0,.01,0,.02,0,0,0,0,0,0,0,.02,0,.03,0,.05,0,0,0,0,0,0,0,0,0,.01,0,.02,0,0,0,0,0,0,0,0,0,.01,0,.02,0,0,0,0,0,0,0,.02,0,.04,0,.05,0,0,0,0,0,0,0,0,0,.01,0,.02,0,0,0,0,0,0,0,0,0,.01,0,.02,0,0,0,0,0,0,0,0,0,.02,0,.03,0h0c2.29-1.24,5.38-3.37,7.07-6.45.25-.45.68-.66,1.12-.67.5,0,.99.29,1.2.84.3.82.58,1.79.58,2.94,0,.79-.13,1.66-.49,2.63h0c2.54-1.31,5.05-2.79,5.87-3.57.28-.26.61-.38.93-.38.7,0,1.38.55,1.38,1.37h0c-.01,1.18-.37,3.67-.81,5.75h0c10.64,4.7,15.94,14.98,16.61,24.67-.09,1.1-.28,2.15-.56,3.15"/>
    <path class="cls-12" d="M69.85,49.38h0s0,0,0,0M69.85,49.35h0s0,0,0,0M69.85,49.33s0,0,0,0c0,0,0,0,0,0M69.85,49.3s0,0,0,0c0,0,0,0,0,0M69.86,49.28s0,0,0-.01c0,0,0,0,0,.01M69.86,49.25s0,0,0-.01c0,0,0,0,0,.01M69.86,49.23s0,0,0-.01c0,0,0,0,0,.01M69.86,49.21s0-.02,0-.03c0,.01,0,.02,0,.03M69.87,49.18s0-.01,0-.02c0,0,0,.01,0,.02M69.87,49.16c.03-.34.05-.69.06-1.04-.01.35-.03.7-.06,1.04M69.93,48.12s0-.05,0-.08c0,.03,0,.05,0,.08M69.93,48.04s0-.04,0-.06c0,.02,0,.04,0,.06M69.93,47.98v-.02s0,.01,0,.02M69.93,47.96s0-.03,0-.05c0,.02,0,.03,0,.05M69.93,47.9s0-.01,0-.02c0,0,0,.01,0,.02M69.93,47.88s0-.03,0-.05c0,.02,0,.03,0,.05M69.93,47.82s0,0,0-.01c0,0,0,0,0,.01M69.93,47.8s0-.01,0-.02c0,0,0,.01,0,.02M69.93,47.77h0s0,0,0,0M69.94,47.74h0s0,0,0,0M69.94,47.72s0,0,0-.01c0,0,0,0,0,.01M69.94,47.69h0s0,0,0,0M69.94,47.66s0,0,0,0c0,0,0,0,0,0M69.94,47.64h0s0,0,0,0M69.94,47.61h0s0,0,0,0M69.94,47.58h0s0,0,0,0M69.94,47.55h0s0,0,0,0M69.94,47.53h0s0,0,0,0M69.94,47.5h0s0,0,0,0M69.94,47.47h0s0,0,0,0M69.94,47.45h0s0,0,0,0M69.94,47.42h0s0,0,0,0M69.94,47.39h0s0,0,0,0M69.94,47.37h0s0,0,0,0M69.94,47.34h0s0,0,0,0M69.94,47.31h0s0,0,0,0M69.93,47.29h0s0,0,0,0M69.93,47.26h0s0,0,0,0M69.93,47.23h0s0,0,0,0M69.93,47.21h0s0,0,0,0M69.93,47.15h0s0,0,0,0M69.93,47.13h0s0,0,0,0M69.93,47.07s0,0,0,0c0,0,0,0,0,0M69.93,47.05s0,0,0,0c0,0,0,0,0,0"/>
    <path class="cls-12" d="M68.98,53.35c.26-1.3.38-2.67.34-4.12,0-.13,0-.27-.01-.4.28-1,.46-2.05.56-3.15.03.45.05.9.06,1.34,0,0,0,.02,0,.02,0,0,0,0,0,0v.02s0,0,0,0c0,.02,0,.03,0,.05h0s0,.02,0,.03h0s0,.04,0,.05h0s0,.02,0,.03h0s0,.02,0,.03h0s0,.02,0,.02h0s0,.02,0,.03h0s0,.02,0,.03h0s0,.02,0,.02h0s0,.02,0,.03h0s0,.02,0,.03h0s0,.02,0,.02h0s0,.02,0,.03h0s0,.02,0,.03h0s0,.02,0,.03h0s0,.02,0,.03h0s0,.02,0,.02h0s0,.02,0,.02h0s0,.02,0,.03h0s0,.02,0,.02c0,0,0,0,0,0h0s0,.02,0,.02v.02s0,0,0,.01h0s0,.02,0,.02c0,0,0,0,0,.01h0s0,.02,0,.03c0,0,0,.01,0,.02h0s0,.02,0,.02h0s0,.04,0,.06h0s0,.02,0,.02h0s0,.04,0,.06c0,0,0,0,0,0v.02s0,0,0,0c0,.02,0,.04,0,.06,0,0,0,0,0,0,0,.03,0,.05,0,.08h0c-.01.35-.03.7-.06,1.04h0s0,.02,0,.02c0,0,0,0,0,0,0,0,0,.02,0,.03,0,0,0,0,0,0,0,0,0,0,0,.01,0,0,0,0,0,0,0,0,0,0,0,.01,0,0,0,.01,0,.02,0,0,0,0,0,.01,0,0,0,.01,0,.02,0,0,0,0,0,0,0,0,0,.01,0,.02,0,0,0,0,0,0,0,0,0,.02,0,.02h0s0,.02,0,.02h0c-.14,1.41-.43,2.73-.87,3.98"/>
    <path class="cls-11" d="M63.91,45.31c.1,3.99-1,8.31-4.54,11.71-3.61,3.48-9.77,6.01-19.79,6.27h0c-9.92.25-16.17-1.92-19.96-5.16-3.8-3.24-5.14-7.54-5.24-11.57-.02-.82.03-1.62.14-2.41.97-6.94,6.85-12.36,14.08-12.55,3.96-.1,7.59,1.39,10.28,3.88,2.56-2.63,6.12-4.29,10.07-4.39,7.15-.18,13.22,4.81,14.64,11.56h0c.18.86.29,1.75.31,2.66"/>
    <path class="cls-10" d="M42.86,46.74c.03,1.24-1.59,2.78-3.63,2.83-2.04.05-3.73-1.4-3.76-2.64-.03-1.24,1.61-1.8,3.65-1.86,2.04-.05,3.71.43,3.74,1.67"/>
    <path class="cls-7" d="M39.2,46.79c-.8,0-1.44-.32-1.45-.6,0-.29.66-.43,1.49-.45.06,0,.13,0,.19,0,.74,0,1.32.11,1.32.38,0,.29-.66.66-1.49.68-.02,0-.05,0-.07,0"/>
    <path class="cls-14" d="M34.06,46.27c-.51,4.33-3.96,5.44-8.46,7.38-2.82,1.22-4.74,2.96-5.98,4.49-3.8-3.24-5.14-7.54-5.24-11.57-.02-.82.03-1.62.14-2.41,2.61-2.85,6.76-5.62,12.87-5.05,4.47.43,7.04,4.05,6.68,7.16h0Z"/>
    <path class="cls-14" d="M63.91,45.31c.1,3.99-1,8.31-4.54,11.71-1.32-1.43-3.3-3.03-6.11-4.07-4.59-1.71-8.09-2.64-8.82-6.94-.52-3.09,1.87-6.84,6.31-7.49,5.88-.86,10.09,1.52,12.85,4.14h0c.18.86.29,1.75.31,2.66h0Z"/>
    <path class="cls-10" d="M56.68,45.09c-.14.2-.26.34-.4.49-.13.15-.28.28-.43.42-.15.14-.31.25-.47.37-.16.12-.33.22-.5.33-.69.4-1.47.68-2.28.82-.4.08-.82.08-1.24.09-.41-.04-.83-.06-1.23-.18-.8-.18-1.54-.58-2.14-1.08-.35-.29-.4-.81-.11-1.16.17-.2.41-.3.65-.3h.15c.17,0,.33.02.48.04.16.02.3.05.46.05.15,0,.3.02.44.03.14.02.29,0,.43.01.28.02.57-.01.85,0,.28-.03.56-.04.83-.09.56-.08,1.12-.21,1.69-.39l.43-.14c.14-.06.29-.1.43-.15.15-.05.29-.11.44-.16.14-.05.3-.12.42-.15l.25-.06c.43-.1.86.16.97.59.06.24,0,.48-.13.66h0Z"/>
    <path class="cls-10" d="M22.47,44.74c.12.02.28.09.43.13.15.05.29.1.44.14.15.05.3.08.44.13l.44.12c.58.15,1.14.25,1.7.31.28.04.56.03.84.05.28-.02.56,0,.84-.03.14-.02.29,0,.43-.03.14-.02.29-.04.44-.06.16,0,.3-.05.46-.07.16-.02.31-.05.48-.06h.15c.45-.04.85.3.88.75.02.26-.09.5-.26.66-.58.53-1.29.97-2.09,1.19-.39.14-.8.18-1.22.24-.41.01-.83.03-1.24-.03-.82-.09-1.61-.33-2.32-.7-.17-.1-.35-.19-.52-.3-.16-.11-.33-.22-.48-.35-.15-.13-.31-.25-.45-.39-.15-.14-.27-.28-.42-.47-.28-.34-.22-.85.12-1.13.19-.15.43-.2.65-.16l.25.05h0Z"/>
    <path class="cls-10" d="M43.52,52.56c-.3.29-.59.49-.91.7-.32.19-.66.37-1.01.51-.7.29-1.48.46-2.28.46-.81,0-1.59-.17-2.3-.46-.35-.14-.69-.32-1.01-.52-.32-.21-.61-.41-.9-.7-.23-.23-.24-.6-.01-.83.16-.16.39-.22.6-.15l.07.02c.28.09.6.2.89.29.3.1.6.17.9.24.6.14,1.18.22,1.74.21.57,0,1.16-.09,1.76-.23.3-.07.6-.14.9-.24.3-.08.62-.2.9-.28l.08-.02c.31-.09.64.09.73.4.06.22,0,.44-.15.59h0Z"/>
    <path class="cls-10" d="M44.59,12.18c-.12,0-.33.04-.46.27-1.78,3.24-4.99,5.46-7.37,6.75-.09.05-.19.08-.29.09-18.51,1.65-26.59,16.3-26.27,29.22.36,14.3,15.72,19.01,29.98,18.65,14.26-.36,29.36-5.84,29-20.14-.22-8.88-4.6-20.2-16.23-25.34-.33-.14-.51-.5-.43-.84.44-2.11.78-4.51.79-5.59,0-.36-.25-.51-.37-.56-.09-.04-.4-.14-.67.12-.98.92-3.76,2.51-6.04,3.69-.28.14-.61.1-.85-.1-.23-.21-.32-.53-.21-.83.77-2.09.41-3.66-.1-5.05-.1-.28-.34-.33-.44-.34-.01,0-.03,0-.04,0h0ZM38.6,68.7c-18.19.02-29.6-7.61-29.92-20.14-.34-13.57,8.11-28.95,27.48-30.75,2.19-1.21,5.07-3.22,6.64-6.08.39-.71,1.13-1.11,1.94-1.05.8.06,1.47.57,1.74,1.33.43,1.2.8,2.62.54,4.35,2.02-1.11,3.63-2.11,4.19-2.65.63-.6,1.52-.75,2.32-.4.79.35,1.28,1.1,1.27,1.96-.01,1.08-.3,3.24-.7,5.29,5.08,2.38,9.29,6.22,12.21,11.13,2.72,4.58,4.23,9.87,4.37,15.3.32,12.89-11.35,21.2-30.47,21.68-.54.01-1.08.02-1.61.02h0Z"/>
  </g>
  <path class="cls-10" d="M50.86,57.19c-.57-.21-1.13-.01-1.39.48.06-.12.46,0,.53.06.28.22.2.75-.04.95-.42.35-1.01-.13-1.2-.48-.27-.5-.49-1.05-.67-1.58-.73-2.2-1.09-4.86-3.37-6.32-1.24-.8-2.9-1-4.39-.7-.35.07-1.04.46-1.04.46,0,0-.7-.39-1.04-.46-1.48-.3-3.14-.1-4.39.7-2.28,1.46-2.63,4.12-3.37,6.32-.18.53-.39,1.08-.67,1.58-.19.35-.79.83-1.2.48-.24-.2-.32-.73-.04-.95.07-.05.47-.18.53-.06-.26-.49-.82-.69-1.39-.48,0,0-1.31.48-.78,2.1,0,0,.73,2.21,3.7,2.14,0,0,2.06.06,3.61-1.85.1-.13.2-.26.29-.4.53-.76,1.03-1.55,1.49-2.34.65-1.11,1.14-2.29,1.78-3.4.28-.49.63-1.14,1.31-1.28.86-.18,1.33.73,1.65,1.28.64,1.11,1.13,2.29,1.78,3.4.47.79.96,1.58,1.49,2.34.09.13.19.27.29.4,1.55,1.91,3.61,1.85,3.61,1.85,2.97.06,3.7-2.14,3.7-2.14.53-1.62-.78-2.1-.78-2.1Z"/>
  <g>
    <g>
      <path class="cls-5" d="M63.37,26.37c0,5.72-10.29,10.36-22.99,10.36s-22.99-4.64-22.99-10.36,10.29-10.36,22.99-10.36,22.99,4.64,22.99,10.36Z"/>
      <g>
        <path class="cls-5" d="M24.75,21.47s.35-4.38,1.48-8.85c.96-3.79,2.52-7.68,4.52-8.6,1.94-.89,5.37-.89,8.95-1.09,4.44-.24,9.07-.42,10.68,1.09,1.51,1.42,3.05,5.32,4.08,9.07.96,3.47,1.47,6.8,1.55,8.37.18,3.27-4.72,7.81-15.63,7.09-10.9-.73-13.45-1.45-15.63-7.09Z"/>
        <path class="cls-2" d="M33.39,26.04c1.99.28,4.67.07,6.98.07,2.69,0,4.75.15,6.99-.22,4.1-.68,7.46-2.26,8.69-3.87.31.4.5.81.5,1.24,0,1.98-4.02,4.27-9.19,5.13-2.24.37-4.29.22-6.99.22-2.31,0-4.99.2-6.98-.08-5.7-.79-9.19-3.18-9.19-5.28,0-.41.17-.81.46-1.2,1.09,1.7,4.19,3.34,8.73,3.97Z"/>
      </g>
    </g>
    <path class="cls-4" d="M33.07,7.54c-.08-.19-.2-.32-.38-.38-1.68-.54-2.97,5.13-3.17,6.2-.48,2.6-1.94,7.31-.8,7.85,1.93-1.71,2.49-5.48,3.1-7.83.22-.86,1.77-4.59,1.26-5.84Z"/>
  </g>
</svg>