<?xml version="1.0" encoding="UTF-8"?>
<svg id="Vrstva_1" data-name="Vrstva 1" xmlns="http://www.w3.org/2000/svg" viewBox="0 0 137.55 152.97">
  <defs>
    <style>
      .cls-1 {
        stroke-width: 2px;
      }

      .cls-1, .cls-2 {
        fill: #fff;
      }

      .cls-1, .cls-3 {
        stroke: #64140e;
        stroke-linecap: round;
        stroke-linejoin: round;
      }

      .cls-4 {
        fill: #fefbfc;
      }

      .cls-5 {
        fill: #68aa31;
      }

      .cls-6 {
        fill: #ecc18e;
      }

      .cls-7 {
        fill: #f2d5b0;
      }

      .cls-8 {
        fill: #68a930;
      }

      .cls-9 {
        fill: #a3d9ec;
      }

      .cls-10 {
        fill: #b589a6;
      }

      .cls-11 {
        fill: #c68e7b;
      }

      .cls-12 {
        fill: #96c4da;
      }

      .cls-13 {
        fill: #aa6a6d;
      }

      .cls-14 {
        fill: #d2681f;
      }

      .cls-15 {
        fill: #e59147;
      }

      .cls-16 {
        fill: #d6b0a3;
      }

      .cls-3 {
        fill: none;
        stroke-width: 4px;
      }

      .cls-17 {
        fill: #bad27a;
      }

      .cls-18 {
        fill: #d1b9ca;
      }

      .cls-19 {
        fill: #64140e;
      }

      .cls-20 {
        fill: #b388a5;
      }

      .cls-21 {
        fill: #69aaca;
      }

      .cls-22 {
        fill: #4c64ac;
      }

      .cls-23 {
        fill: #967660;
      }

      .cls-24 {
        fill: #f1881c;
      }
    </style>
  </defs>
  <g>
    <path class="cls-1" d="M106.08,56.91c-18-1.39-27.91-1.79-44.9,3.08-16.99,4.87-26.9,4.47-44.9,3.08-2.2-15.19-4.39-30.38-6.59-45.58,18,1.39,27.91,1.79,44.9-3.08,16.99-4.87,26.9-4.47,44.9-3.08,2.2,15.19,4.39,30.38,6.59,45.58Z"/>
    <g>
      <path class="cls-19" d="M71.47,36.16c1.12-.24,1.68-.25,1.75.28.05.38.09.96-.25,1.05-1.26.36-7.03,2.58-7.89,2.6-.25,0-.62-.57-.68-1.03-.57-3.95-.86-5.92-1.43-9.87-.01-.09-.02-.69.16-.81.5-.34,2.27-1.01,3.01-1.27.77-.27,1.36-.47,1.48.4.01.1.09.94,0,.96-1.21.39-1.82.62-3.01,1.12.18,1.25.27,1.87.45,3.12.53-.14,1.12-.31,1.65-.35.24-.02.38,1.39.09,1.49-.6.22-.89.33-1.49.58.2,1.42.31,2.12.51,3.54M19.18,42.4c.56.05,1.34,2.09,2.03,2.17.51.06,1.1-.09,1.02-.71-.08-.55-.56-1.38-.97-1.8-1.22-1.71-3.05-2.91-3.34-4.94-.25-1.71.96-2.75,2.53-2.54,1.21.16,2.35.81,2.55,2.18.06.43.07.73-.49.64-.84-.13-.92-.99-1.73-1.1-.69-.09-1.27.38-1.17,1.1.27,1.88,3.91,3.93,4.26,6.36.23,1.62-.67,2.74-2.34,2.54-1.17-.14-2.06-.83-2.71-1.96-.17-.3-.55-.88-.6-1.24-.05-.36.66-.73.97-.71ZM25.35,46.33l-1.67-11.58c-.08-.56-.03-.87.54-.77.52.09,1.08.27,1.17.92.62,4.26.92,6.39,1.54,10.66,2.33.42,3.51.65,5.83,1.01.26.11.5.33.56.7.05.38-.02.74-.24.81-.15.05-5.26-.62-5.92-.74-.2-.04-1.12-.26-1.26-.34-.14-.08-.51-.5-.53-.67ZM31.64,35.96c2.5.37,3.14,4.18,3.45,5.91.27,1.51.7,3.84.73,4.02.1.68.77,5.54.65,5.52-.39.23-.8.28-1.2-.14-.31-.32-1.26-6.27-1.36-6.85-1.01-.05-1.52-.09-2.54-.17.12.8.06.23.17,1,.02.17.02.5-.21.46-.43-.07-.64-.11-1.06-.18-.57-.1-.82-2.69-1.06-4.31-.01-.09-.02-.13-.03-.22-.31-2.17-.14-5.43,2.46-5.04ZM31.1,42.39c1.02.11,1.53.16,2.55.24-.26-1.46-.66-4.53-1.73-4.71-1.62-.27-1.38,1.91-.81,4.47ZM38.95,36.55c1.29-.02,2.43.88,2.62,2.23.06.39.13.98-.37,1.02-1.3.1-.83-1.64-2.01-1.59-1.57.07-1.36,3.6-1.18,4.83.16,1.07.9,3.82,2.28,3.87.93.03.81-3.05,1.29-3.4.05-.02.66-.02.91.33,0,.07.07.37.08.44.27,1.84-.24,4.29-2.3,4.29-2.5,0-3.63-3.4-3.94-5.48-.31-2.15-.18-6.51,2.62-6.55ZM44.8,43.61c.2,1.94.48,4.78.31,4.82-.29.05-.58.11-.87.15-.03,0-.1.03-.18,0-.08-.03-.14-.09-.2-.21-.13-.23-.15-.44-.15-.44,0,0-.06-.55-.39-3.36,0,0-.03-.28-.1-.84-.03-.29-.07-.58-.1-.87-.03-.29-.07-.59-.1-.88l-.1-.88c-.03-.29-.07-.57-.1-.86-.03-.27-.07-.55-.1-.82-.03-.26-.06-.51-.09-.77-.03-.23-.06-.46-.08-.7-.02-.2-.05-.41-.07-.61-.02-.17-.04-.34-.06-.51-.02-.13-.03-.26-.05-.39,0-.08-.02-.17-.03-.25,0-.03,0-.06-.01-.1,0-.33.05-.56.38-.62.14-.02.98-.04,1.02.23.27,2.23.41,3.35.68,5.58,1.07-1.58,1.41-4.05,2.21-5.99.05-.01.21-.09.25-.1.34-.11,1.07-.02,1.14.47.05.34-.88,3.12-1.57,4.54-.04.12-.06.18-.1.3-.01.02.78,1.71.95,1.96.79,1.24,2.79,4.34,3.56,5.58.15.25.49.57.54.96.06.44-.61.96-.9,1.06-.01,0-.02,0-.03.01-.11.04-.15.06-.25-.05-1.89-2.94-2.85-4.44-4.76-7.56-.02,0-.45.81-.62,1.12ZM50.93,46.09c-.67-4.64-1.01-6.95-1.68-11.59-.08-.56-.04-.92.48-1.13.47-.2.99-.33,1.08.32.62,4.27.93,6.4,1.54,10.67,3.17-1.38,4.72-2.25,7.87-3.81.24-.04.46.05.51.42.05.38,0,.82-.21,1.03-.14.15-7.33,3.89-7.94,4.16-.18.08-1.04.37-1.16.36-.11,0-.48-.26-.5-.43ZM55.39,32.71c.86,2.68.67,5.06.99,8.64-.07.38-.24.56-.55.71-.01,0-.02,0-.03.01-.21.1-.83.4-.87.15-.36-2.88-.54-4.32-.9-7.21-.12-.96-.27-2.17.26-2.43.41-.2.97-.23,1.09.12ZM56.28,32.14c-.08-.58,1.02-1.23,1.54-.98,1.15.56,3.07,4.45,3.75,5.53-.03-.2-.04-.3-.07-.49-.03-.19-.07-.39-.1-.59-.29-1.92-1.09-5.82-1.02-7.03.02-.24.21-.42.52-.56.44-.2.8-.29.91-.11.99,1.64.97,7.8,1.42,10.91.06.39.13.79.19,1.19.03.22-.09.61-.16.66-.36.17-.55.26-.91.43-.33.16-1.05-1.44-1.24-1.74-.85-1.27-2.22-4.51-3.07-5.44.13,1.58,1.11,5.75.85,6.42-.17.44-1.1.77-1.31.66-.51-3.54-.77-5.31-1.28-8.86Z"/>
      <g>
        <path class="cls-5" d="M69.25,30.58c-.19-1.33-.71-4.99-.86-6.09-.16-1.09.45-1.27.59-1.3.8-.19,1.01,1.29,1.1,1.9.11.75.74,4.91,1.01,6.11.45-.15.67-.22,1.12-.34.06,0,.84-.22.87-.26-.28-1.94-.42-2.91-.7-4.85-.07-.51.06-.72.47-.76.64-.06.97.11,1.12.77.11.5.55,2.93.63,3.46.38,2.59,1.15,7.72,1.27,9.6-.03.36-.37.33-.58.35-.21.02-.76.03-.82-.38-.37-2.51-.55-3.77-.92-6.28,0-.02-.16-.11-.21-.12-.35-.05-1.91.6-2.05.63,0,0,0,0-.02,0,.12.77.19,1.15.31,1.92.02.14-.02.29-.12.38-.17.17-.4.31-.61.36-.33.08-.64-.03-.73-.47-.46-2.04-.56-2.52-.87-4.65Z"/>
        <path class="cls-5" d="M75.78,27.89c-.11-.79-.17-1.24-.17-2.1,0-.73,1.82-.74,2.33-.71,1.85.13,3.41,1.58,3.69,3.56.31,2.13-1.06,2.3-2.44,2.39.97,1.41,3.77,5.27,4.67,6.75,0,.35-.48.6-.8.56-.64-.09-4.52-5.6-5.22-7.12,0,0,0,0,0,0,.57,3.57.78,4.59.82,4.81h0c-.08.25-.69.24-.94.24-.29,0-.39-.11-.55-.42-.6-2.66-1.01-5.31-1.4-7.97ZM77.23,26.74c.17,1.16.25,1.74.42,2.9,0,0,0,0,0,0,.56.03,2.53,0,2.48-1.04-.06-1.1-1.1-1.89-2.12-1.96-.15,0-.79.02-.78.09Z"/>
        <path class="cls-5" d="M85.96,26.59c2.31.41,3.11,3.2,3.38,5.11.25,1.71,1.19,7.55-2.22,6.95-2.73-.48-3.61-3.64-3.9-5.69-.35-2.44-.75-7,2.74-6.38ZM84.75,32.85c.29,2.03,1.07,4.01,2.13,4.19,1.18.21,1.43-2.32,1.08-4.73-.29-2-.99-3.93-1.92-4.1-1.3-.24-1.64,2.25-1.29,4.64Z"/>
        <path class="cls-5" d="M90.32,27.64c.15,0,.28.01.41.04.83.14,1.22.66,1.23.75.12,1.01.23,2.45.46,4.06.31,2.15,1.09,5.29,2.46,5.47,1.74.23,1.33-4.01.98-6.45-.11-.75-.23-1.5-.35-2.25-.12-.75-.26-1.51-.35-2.25-.02-.14-.04-.27-.04-.4,0-.23.16-.38.38-.36.34.03.68.06,1.02.08.33.02.92,4.12,1.12,5.52.35,2.41,1.2,8.3-2.64,7.78-3.39-.46-4.16-5.99-4.47-8.17-.07-.48-.68-3.89-.21-3.81Z"/>
      </g>
    </g>
  </g>
  <path class="cls-6" d="M92.37,100.5s5.78,6.65,18.39,6.59c4.3-.02,7.68,1.31,8.3,3.42.97,3.32.25,7.54-9.03,8.19-8.5.6-14.53-7.46-14.53-7.46l-3.13-10.73"/>
  <path class="cls-11" d="M114.34,117.49c-1.24.43-3.64,1.07-6.65.69-3.25-.41-5.55-1.81-6.63-2.57-.02-.85-.13-1.67-.3-2.46.98.98,3.02,2.76,6.17,3.79,3.26,1.06,6.04.78,7.41.55Z"/>
  <path class="cls-19" d="M109.15,119.21c-3.31,0-6.71-1.25-9.87-3.64-2.6-1.96-4.11-3.97-4.17-4.05-.16-.22-.12-.53.1-.69.22-.16.53-.12.69.1.06.08,5.98,7.84,14.1,7.27,4.18-.29,6.93-1.34,8.16-3.11.81-1.17.96-2.67.44-4.45-.53-1.81-3.71-3.07-7.73-3.07-.03,0-.06,0-.09,0-.06,0-.11,0-.17,0-6.53,0-11.21-1.81-13.99-3.33-3.06-1.68-4.54-3.35-4.6-3.42-.18-.21-.16-.52.05-.69.21-.18.52-.16.69.05.06.07,5.76,6.42,17.85,6.42.06,0,.11,0,.17,0,4.65-.02,8.1,1.46,8.78,3.77.61,2.08.42,3.86-.57,5.29-1.41,2.03-4.4,3.21-8.9,3.53-.3.02-.61.03-.91.03"/>
  <line class="cls-3" x1="116.66" y1="130.51" x2="99.09" y2="9.05"/>
  <path class="cls-24" d="M104.84,142.21c-.48,1.51-1.88,2.42-3.13,2.02-1.25-.4-1.87-1.95-1.39-3.46.48-1.51,1.88-2.42,3.13-2.02,1.25.4,1.87,1.95,1.39,3.46"/>
  <path class="cls-14" d="M102.43,144.32c.12-.2.22-.42.29-.66l.29-.99c.56-.06,1.15-.13,1.75-.21-.44,1.09-1.37,1.8-2.32,1.86"/>
  <path class="cls-19" d="M102.85,139.15c-.86,0-1.72.71-2.06,1.77-.4,1.25.08,2.53,1.07,2.84.99.31,2.11-.45,2.51-1.7.2-.62.19-1.27-.03-1.82-.21-.51-.57-.88-1.03-1.03-.15-.05-.3-.07-.46-.07h0ZM102.31,144.82c-.25,0-.5-.04-.75-.12-1.5-.48-2.27-2.31-1.71-4.08.56-1.77,2.25-2.82,3.75-2.34.75.24,1.33.81,1.65,1.6.3.76.32,1.64.06,2.48h0c-.47,1.48-1.73,2.46-3,2.46h0Z"/>
  <path class="cls-19" d="M102.8,141.62l-.55,1.91c-.29.99-1.2,1.68-2.24,1.68h-1.83c-1.04,0-1.95-.68-2.24-1.68l-.55-1.91h7.41"/>
  <path class="cls-19" d="M100.01,145.7h-1.83c-1.25,0-2.36-.84-2.71-2.03l-.55-1.91c-.08-.26.07-.53.34-.61.26-.08.53.07.61.34l.55,1.91c.23.78.95,1.32,1.76,1.32h1.83c.81,0,1.54-.54,1.76-1.32l.55-1.91c.08-.26.35-.41.61-.34.26.08.41.35.34.61l-.55,1.91c-.35,1.2-1.46,2.03-2.71,2.03"/>
  <path class="cls-24" d="M99.55,145.78c-.48,1.51-1.88,2.42-3.13,2.02-1.25-.4-1.87-1.95-1.39-3.46.01-.04.03-.08.04-.13.52-1.44,1.88-2.28,3.09-1.9.79.25,1.33.97,1.5,1.85.1.5.07,1.06-.11,1.62"/>
  <path class="cls-19" d="M98.04,145.3c-.16.5-.63.81-1.05.67-.42-.13-.62-.65-.46-1.15.16-.51.63-.81,1.05-.67.42.13.62.65.46,1.15"/>
  <path class="cls-19" d="M97.56,142.72c-.86,0-1.72.71-2.06,1.77-.4,1.25.08,2.53,1.07,2.84.99.31,2.11-.45,2.51-1.7.2-.62.19-1.27-.03-1.82-.21-.51-.57-.88-1.03-1.03-.15-.05-.3-.07-.46-.07M97.02,148.39c-.25,0-.5-.04-.75-.12-1.5-.48-2.27-2.31-1.71-4.08.56-1.77,2.25-2.82,3.75-2.34.75.24,1.33.81,1.65,1.6.3.76.32,1.64.06,2.48h0c-.47,1.48-1.73,2.46-3,2.46"/>
  <path class="cls-24" d="M81.73,142.21c-.48,1.51-1.88,2.42-3.13,2.02-1.25-.4-1.87-1.95-1.39-3.46.48-1.51,1.88-2.42,3.13-2.02,1.25.4,1.87,1.95,1.39,3.46"/>
  <path class="cls-14" d="M79.32,144.32c.12-.2.22-.42.29-.66l.2-.68h1.57c-.49.79-1.26,1.29-2.06,1.34"/>
  <path class="cls-19" d="M79.74,139.15c-.86,0-1.72.71-2.06,1.77-.2.62-.19,1.27.03,1.82.21.51.57.88,1.03,1.03.99.31,2.11-.45,2.51-1.7.4-1.25-.08-2.53-1.07-2.84-.15-.05-.3-.07-.46-.07h0ZM79.2,144.82c-.25,0-.5-.04-.75-.12-.75-.24-1.33-.81-1.65-1.6-.3-.76-.32-1.64-.06-2.48.56-1.77,2.25-2.82,3.75-2.34,1.5.48,2.27,2.31,1.71,4.08-.47,1.48-1.73,2.46-3,2.46h0Z"/>
  <path class="cls-19" d="M79.69,141.62l-.55,1.91c-.29.99-1.2,1.68-2.24,1.68h-1.83c-1.04,0-1.95-.68-2.24-1.68l-.55-1.91h7.41"/>
  <path class="cls-19" d="M76.9,145.7h-1.83c-1.25,0-2.36-.84-2.71-2.03l-.55-1.91c-.08-.26.07-.53.34-.61.26-.08.53.07.61.34l.55,1.91c.23.78.95,1.32,1.76,1.32h1.83c.81,0,1.54-.54,1.76-1.32l.55-1.91c.08-.26.35-.41.61-.34.26.08.41.35.34.61l-.55,1.91c-.35,1.2-1.46,2.03-2.71,2.03"/>
  <path class="cls-24" d="M76.44,145.78c-.48,1.51-1.88,2.42-3.13,2.02-1.25-.4-1.87-1.95-1.39-3.46.07-.22.16-.42.26-.61.62-1.14,1.8-1.75,2.87-1.41.79.25,1.32.96,1.49,1.82.1.51.07,1.08-.11,1.64"/>
  <path class="cls-19" d="M74.45,142.72c-.86,0-1.72.71-2.06,1.77-.2.62-.19,1.27.03,1.82.21.51.57.88,1.03,1.03.99.31,2.11-.45,2.51-1.7.4-1.25-.08-2.53-1.07-2.84-.15-.05-.3-.07-.46-.07M73.91,148.39c-.25,0-.5-.04-.75-.12-.75-.24-1.33-.81-1.65-1.6-.3-.76-.32-1.64-.06-2.48.56-1.77,2.25-2.82,3.75-2.34,1.5.48,2.27,2.31,1.71,4.08-.47,1.48-1.73,2.46-3,2.46"/>
  <path class="cls-19" d="M74.94,145.3c-.16.5-.63.81-1.04.67-.42-.13-.62-.65-.46-1.15.16-.51.63-.81,1.04-.67.42.13.62.65.46,1.15h0Z"/>
  <path class="cls-14" d="M76.04,144.11c-.94-.06-2.1-.16-3.32-.31.38-.59.94-.98,1.51-1.07.24.02.47.04.7.06.56.19.95.69,1.11,1.31"/>
  <path class="cls-19" d="M76.55,144.14c-.16,0-.33-.02-.51-.03-.16-.63-.55-1.13-1.11-1.31.35.03.68.05.99.07.31.33.53.78.63,1.27M72.71,143.8c-.18-.02-.35-.04-.53-.07.25-.47.6-.84,1-1.11.36.04.71.08,1.04.11-.58.08-1.14.47-1.51,1.07"/>
  <path class="cls-14" d="M98.23,144.21h-.5s-.1-.05-.15-.07c-.07-.02-.13-.03-.2-.03-.13,0-.25.04-.37.1h-1.41c.23-.54.61-.97,1.04-1.23h1.6s.06,0,.17,0c.28.19.5.47.64.83.05.12.09.25.11.37-.59.02-.93.03-.93.03"/>
  <path class="cls-19" d="M97.73,144.21h-.72c.12-.07.24-.1.37-.1.07,0,.14,0,.2.03.05.02.1.04.15.07"/>
  <path class="cls-19" d="M95.6,144.21h-.53c.18-.49.45-.91.78-1.23h.79c-.43.26-.81.69-1.04,1.23M99.16,144.19c-.03-.13-.07-.25-.11-.37-.14-.36-.36-.64-.64-.83.15,0,.39-.01.7-.02.28.33.47.75.55,1.21-.18,0-.35.02-.5.02"/>
  <path class="cls-15" d="M82.49,138.65h-6.65c-4.76,0-10.98-2.15-12.52-2.71-.18-.06-.36.07-.37.25,0,.38,0,.95,0,1.34.14,4.74,15.46,4.96,15.46,4.96h19.81s15.32-.22,15.46-4.96c0-.25,0-.91,0-1.34,0-.18-.19-.3-.35-.23-1.4.59-6.76,2.69-12.53,2.69h-18.32"/>
  <path class="cls-19" d="M63.45,136.51c0,.34,0,.73,0,1.01.05,1.65,2.66,2.99,7.36,3.79,3.77.64,7.58.7,7.61.7h19.8s3.84-.06,7.61-.7c4.7-.79,7.31-2.14,7.36-3.79,0-.15,0-.48,0-.97-1.86.76-6.93,2.59-12.4,2.59h-24.96c-4.55,0-10.32-1.9-12.4-2.63M82.52,142.98h-4.09s-3.92-.06-7.76-.71c-5.37-.9-8.13-2.5-8.19-4.73-.01-.39,0-.95,0-1.35,0-.25.13-.48.33-.62.2-.14.46-.17.7-.09,1.73.63,7.73,2.68,12.36,2.68h24.96c5.64,0,10.87-2.03,12.34-2.65.23-.1.49-.07.7.06.21.14.33.37.34.62,0,.48,0,1.11,0,1.35-.06,2.24-2.82,3.83-8.19,4.73-3.84.65-7.72.71-7.75.71h-15.72"/>
  <path class="cls-8" d="M82.49,136.93h-6.65c-8.61,0-12.93-2.83-12.88-1.12.14,4.74,15.46,4.96,15.46,4.96h19.81s15.32-.22,15.46-4.96c.05-1.71-4.28,1.12-12.88,1.12h-18.32"/>
  <path class="cls-17" d="M84.84,138.12h-9c-6.61,0-10.69-1.67-12.21-1.67h-.02c-.1-.21-.16-.43-.16-.66,0-.01,0-.02,0-.03.04-.01.1-.02.17-.02.43,0,1.35.21,2.19.4,2.2.51,5.52,1.27,10.04,1.27h8.87c0,.07.01.14.02.21.02.1.03.2.05.29l.05.2M100.83,138.12c.02-.11.02-.22,0-.32.14-.1.25-.23.34-.38,4.34-.04,7.54-.78,9.67-1.27.83-.19,1.76-.4,2.19-.4.07,0,.12,0,.16.02,0,0,0,.02,0,.03,0,.23-.06.45-.16.66h-.02c-1.52,0-5.6,1.67-12.19,1.67"/>
  <path class="cls-19" d="M63.45,135.76s0,.02,0,.03c.05,1.65,2.66,2.99,7.36,3.79,3.77.64,7.58.7,7.61.7h19.8s3.84-.06,7.61-.7c4.7-.79,7.31-2.14,7.36-3.79,0-.01,0-.02,0-.03-.3-.08-1.39.17-2.35.39-2.2.51-5.52,1.27-10.04,1.27h-24.96c-4.52,0-7.84-.76-10.04-1.27-.96-.22-2.05-.47-2.35-.39M82.52,141.26h-4.09s-3.92-.06-7.76-.71c-5.37-.9-8.13-2.5-8.19-4.73-.01-.44.17-.68.33-.81.53-.44,1.43-.23,3.22.18,2.15.5,5.41,1.25,9.82,1.25h24.96c4.41,0,7.67-.75,9.82-1.25,1.79-.41,2.69-.62,3.22-.18.16.13.35.38.33.81-.06,2.24-2.82,3.83-8.19,4.73-3.84.65-7.72.71-7.75.71h-15.72"/>
  <path class="cls-2" d="M61.12,129.8c.12-.86.97-1.39,1.83-1.14.43.13.89.39,1.27.87.95,1.18-.83,3.58-3.04,4.48-.59.24-1.2-.39-.94-.97.33-.72.68-1.78.88-3.24"/>
  <path class="cls-18" d="M60.92,133.57c-.09,0-.15-.06-.18-.08-.03-.03-.09-.11-.07-.21.38-.16.75-.35,1.08-.57.03.13.1.25.19.34-.3.2-.62.37-.95.5-.03.01-.05.02-.08.02"/>
  <path class="cls-19" d="M61.12,129.8h0,0M62.52,129.09c-.18,0-.36.05-.51.15-.22.14-.36.37-.4.63-.18,1.29-.49,2.43-.92,3.38-.05.11.02.2.05.24.03.03.13.12.26.07,1.38-.56,2.67-1.82,2.95-2.88.09-.35.06-.63-.1-.83-.28-.35-.63-.59-1.03-.71-.1-.03-.19-.04-.29-.04M60.92,134.55c-.33,0-.65-.13-.89-.38-.35-.36-.44-.88-.24-1.33.39-.86.68-1.91.84-3.11.08-.54.38-1.03.84-1.32.47-.3,1.06-.39,1.61-.22.6.18,1.11.53,1.52,1.04.36.45.46,1.04.29,1.69-.36,1.37-1.84,2.86-3.53,3.55-.14.06-.3.09-.45.09"/>
  <path class="cls-2" d="M59.84,129.21c.35-.79,1.32-1.08,2.07-.6.38.24.75.61.99,1.19.59,1.4-1.77,3.22-4.15,3.48-.63.07-1.05-.7-.64-1.19.51-.61,1.14-1.53,1.73-2.88"/>
  <path class="cls-18" d="M58.68,132.78c-.12,0-.19-.1-.2-.13-.02-.04-.06-.13-.01-.21.41-.06.81-.16,1.2-.29-.01.14.02.28.09.41-.35.11-.7.19-1.05.22,0,0-.02,0-.02,0"/>
  <path class="cls-19" d="M59.84,129.21h0,0M61.12,128.87c-.09,0-.18.01-.27.04-.25.08-.45.25-.56.5-.52,1.19-1.13,2.2-1.8,3-.08.09-.04.2-.01.25.02.03.09.15.23.13,1.48-.16,3.07-1.03,3.62-1.97.18-.31.22-.59.12-.83-.18-.41-.44-.74-.8-.96-.16-.1-.35-.16-.53-.16M58.68,133.77c-.44,0-.86-.25-1.07-.66-.24-.44-.19-.97.13-1.34.61-.73,1.17-1.65,1.66-2.76.22-.5.65-.88,1.17-1.04.54-.16,1.13-.08,1.61.23.53.33.92.81,1.18,1.41.22.53.16,1.12-.18,1.71-.72,1.22-2.55,2.25-4.36,2.45-.04,0-.09,0-.13,0"/>
  <path class="cls-2" d="M58.91,127.92c.49-.78,1.56-.92,2.27-.3.36.31.69.76.85,1.41.4,1.57-2.37,3.1-4.92,3-.68-.03-.99-.91-.49-1.35.64-.56,1.44-1.43,2.28-2.75"/>
  <path class="cls-18" d="M57.36,131.54c-.07,0-.15,0-.22,0-.17,0-.23-.15-.25-.2-.02-.05-.05-.19.06-.29.56-.49,1.1-1.08,1.62-1.77.06.35.17.66.33.93-.15.15-.29.28-.43.4-.26.23-.3.57-.19.85-.31.05-.63.07-.93.07"/>
  <path class="cls-19" d="M58.91,127.92l.42.26c-.74,1.17-1.54,2.13-2.37,2.86-.11.1-.08.24-.06.29.02.04.08.19.25.2,1.59.06,3.41-.6,4.15-1.51.25-.31.34-.6.27-.88-.12-.47-.35-.86-.7-1.16-.24-.21-.55-.3-.85-.26-.29.04-.53.2-.69.45l-.42-.26M57.37,132.52c-.09,0-.18,0-.27,0-.51-.02-.96-.36-1.13-.85-.17-.49-.04-1.03.34-1.36.76-.67,1.5-1.56,2.19-2.65.31-.49.81-.81,1.38-.9.58-.09,1.18.09,1.64.49.5.43.84.99,1.01,1.66.15.58,0,1.19-.46,1.74-.9,1.11-2.84,1.88-4.69,1.88"/>
  <path class="cls-2" d="M96.71,137.88c-.85.2-1.69-.39-1.79-1.26-.05-.44.01-.94.32-1.47.74-1.29,3.69-.52,5.41,1.18.46.45.11,1.23-.53,1.2-.81-.04-1.94.02-3.39.35"/>
  <path class="cls-18" d="M100.32,136.93c-.3-.27-.63-.52-.97-.74.05-.05.09-.11.13-.17.29.2.57.42.81.66.09.09.06.18.04.23,0,0,0,.01,0,.02"/>
  <path class="cls-19" d="M96.66,135c-.11,0-.21,0-.31.02-.34.05-.58.17-.69.38-.21.37-.3.77-.25,1.17.03.28.18.52.4.68.23.16.52.22.79.16,1.28-.3,2.47-.42,3.53-.36.13,0,.19-.09.21-.13.02-.05.04-.14-.04-.23-1-.99-2.53-1.68-3.63-1.68M96.38,138.41c-.4,0-.8-.12-1.14-.36-.45-.32-.75-.82-.82-1.37-.07-.62.06-1.21.38-1.77.27-.48.76-.78,1.41-.86,1.4-.19,3.45.64,4.76,1.94.35.35.45.87.25,1.33-.2.46-.66.74-1.16.71-.97-.05-2.07.06-3.26.34-.15.03-.29.05-.44.05"/>
  <path class="cls-6" d="M73.75,114.15c-2.95,7.3-6.1,6.18-9.06,6.12-2.05-.05-7.65,7.97-4.96,10.16,2.42,1.97,8.32-1.75,8.32-1.75,0,0,7.76,3.63,12.07-1.83l-6.37-12.69"/>
  <path class="cls-11" d="M61.62,130.51c-.62,0-1.17-.14-1.58-.47-.85-.69-.51-2.2-.18-3.15.06.57.28,1.05.7,1.39.51.41,1.17.58,1.89.58,2.74,0,6.43-2.33,6.43-2.33,0,0,.61.19,1.37.19s1.67-.18,2.3-.9c1.49,1.13,3.2,1.98,5.11,2.53-1.32.75-2.76,1.01-4.12,1.01-2.82,0-5.23-1.1-5.28-1.12l-.24-.11-.23.14c-1.2.75-4.09,2.25-6.17,2.25"/>
  <path class="cls-19" d="M61.62,131.48c-.83,0-1.59-.19-2.19-.68-1.03-.84-1.18-2.37-.42-4.42,1.08-2.93,3.96-6.61,5.68-6.61,0,0,.02,0,.03,0,.33,0,.67.03,1,.05,2.62.16,5.09.31,7.59-5.86.1-.25.39-.37.64-.27.25.1.37.39.27.64-2.76,6.82-5.84,6.64-8.56,6.47-.33-.02-.65-.04-.96-.05h0c-.95,0-3.64,2.93-4.75,5.96-.34.92-.78,2.59.12,3.32,1.76,1.43,6.19-.8,7.75-1.78l.23-.14.24.11c.07.03,7.46,3.4,11.47-1.69.17-.21.48-.25.69-.08.21.17.25.48.08.69-1.87,2.37-4.66,3.46-8.08,3.15-2.05-.19-3.72-.81-4.33-1.07-.86.52-3.97,2.25-6.48,2.25"/>
  <path class="cls-6" d="M100.36,118.15c-.73,3.84-4.51,7.36-7.07,8.43-6.61,2.77-18.71,4.1-24.31-5.59-2.98-5.15-2.17-11.55,3.81-22.2,2.22-3.96,5.15-8.5,8.86-13.78l13.27,12.77c-.12,2.11.39,4,1.15,5.81,1.91,4.59,5.4,8.68,4.29,14.55"/>
  <path class="cls-11" d="M81.37,128.01c-3.71-.32-7.43-1.67-10.22-4.82.12-.08.24-.15.36-.23,2.46,2.31,5.48,3.5,8.58,3.94.2.2.4.37.61.55.22.2.45.38.67.57M96.67,123.58s-.06-.09-.09-.14c-.08-.12-.17-.25-.26-.36-.03-.03-.05-.06-.08-.09,1.61-1.45,3.1-3.41,3.74-5.53-.03.2-.06.4-.1.6-.39,2.06-1.71,4.02-3.21,5.52"/>
  <path class="cls-11" d="M98.7,107.85c-.19-.37-.38-.74-.57-1.1-.4-.77-.79-1.53-1.15-2.29,0,0,0,0,0,0,.57,1.12,1.17,2.24,1.71,3.39"/>
  <path class="cls-19" d="M97,104.46s0,0,0,0c-.02-.03-.03-.07-.05-.1.02.03.04.07.05.1"/>
  <path class="cls-19" d="M83.23,129.09c-.87,0-1.71-.05-2.53-.14-5.4-.63-9.6-3.3-12.15-7.71-2.19-3.79-2.31-8.15-.38-13.73,1.95-5.62,6.1-12.86,13.08-22.78.16-.22.46-.28.69-.12.22.16.28.46.12.69-13.26,18.86-16.69,28.47-12.65,35.45,5.64,9.76,17.97,7.78,23.7,5.38,2.39-1,6.07-4.37,6.77-8.07.8-4.24-.86-7.46-2.61-10.86-1.49-2.88-3.03-5.87-2.83-9.43.02-.27.25-.48.52-.46.27.02.48.25.46.52-.19,3.3,1.22,6.03,2.72,8.93,1.76,3.41,3.57,6.93,2.71,11.5-.8,4.23-4.87,7.75-7.36,8.8-3.17,1.33-6.85,2.06-10.25,2.06"/>
  <path class="cls-11" d="M89.61,104.07c-6.78,0-12.73-1.59-16.44-4.94.26-.47.53-.94.81-1.42,3.72,3.22,9.59,4.76,16.25,4.76.63,0,1.26-.01,1.9-.04.99-.04,1.96-.12,2.92-.22.16.49.34.98.53,1.46-1.31.18-2.67.3-4.06.36-.64.03-1.27.04-1.9.04"/>
  <path class="cls-19" d="M95.57,103.67c-.2-.48-.38-.96-.53-1.46.07,0,.14-.02.21-.02,0,0,0,0,0,0,.03.23.22.41.44.43.12.33.24.65.38.98-.17.03-.33.05-.5.07M73.16,99.14c-.13-.11-.25-.23-.37-.35.26-.46.53-.93.81-1.41.12.11.25.23.37.34-.28.48-.55.96-.81,1.42"/>
  <path class="cls-6" d="M69.78,88.88c.42,9.83,10.34,14.06,22.34,13.55,12-.51,21.53-5.57,21.12-15.4-.4-9.42-6.97-19.92-20.79-20.21-1.7-.78-4.02-2.16-5.39-4.28-.43-.66-1.43-.52-1.65.24-.29,1.01-.54,2.33.2,4-1.88-.82-3.76-1.76-4.38-2.27-.67-.55-1.68-.03-1.61.83.07.84.44,2.6.86,4.08-7.74,4.07-11.01,12.24-10.7,19.47"/>
  <path class="cls-21" d="M73.24,97.02c-2.07-2.09-3.32-4.79-3.46-8.15-.04-.98-.02-1.98.07-2.98-.06.68-.09,1.36-.09,2.04,0,.31,0,.63.02.94h0s0,.01,0,.02c0,0,0,0,0,0,0,0,0,.01,0,.02,0,0,0,0,0,0,0,0,0,.01,0,.02,0,0,0,0,0,0,0,0,0,0,0,.01,0,0,0,0,0,0,0,0,0,.01,0,.02h0s0,.01,0,.02c0,0,0,0,0,0,0,0,0,0,0,.01h0s0,.01,0,.02c0,0,0,0,0,0,0,0,0,0,0,.01,0,0,0,0,0,0,0,0,0,0,0,.02,0,0,0,0,0,0,0,0,0,0,0,0,0,0,0,0,0,0,0,0,0,0,0,0,0,0,0,0,0,.01,0,0,0,0,0,0,0,0,0,0,0,0,0,0,0,0,0,0,0,0,0,.01,0,.02,0,0,0,0,0,0,0,0,0,0,0,.01,0,0,0,0,0,0,0,.01,0,.02,0,.04,0,0,0,0,0,0,.05.73.15,1.44.3,2.11,0,0,0,0,0,0,0,0,0,0,0,.01,0,0,0,0,0,0,0,0,0,0,0,0,0,0,0,0,0,.01,0,0,0,0,0,0,.52,2.23,1.6,4.11,3.13,5.65h0"/>
  <path class="cls-19" d="M73.6,97.38c-.12-.12-.24-.23-.36-.35h0c.12.12.24.24.36.35h0"/>
  <path class="cls-13" d="M90.22,102.47c-6.66,0-12.52-1.53-16.25-4.76h0c3.72,3.22,9.59,4.76,16.24,4.76.63,0,1.26-.01,1.9-.04.99-.04,1.96-.12,2.92-.22h0c-.95.1-1.93.18-2.92.22-.64.03-1.27.04-1.9.04"/>
  <path class="cls-19" d="M95.04,102.21h0c.07,0,.14-.02.21-.02h0c-.07,0-.14.02-.21.02M73.98,97.71c-.13-.11-.25-.22-.37-.34h0c.12.11.25.23.37.34h0"/>
  <path class="cls-11" d="M90.22,102.47c-6.66,0-12.52-1.54-16.24-4.76-.13-.11-.25-.22-.37-.34-.12-.12-.24-.23-.36-.35-1.53-1.54-2.61-3.42-3.13-5.65.16.7.38,1.37.66,2.01-.25-.92-.4-1.9-.45-2.94-.03-.72-.02-1.45.03-2.19,1.5,7.93,9.91,11.61,20.22,11.61.63,0,1.26-.01,1.9-.04,9.37-.4,17.24-3.57,20.04-9.63-.55,2.67-2.01,4.95-4.35,6.82-.93.74-1.87,1.79-3.05,2.38-.53.1-.89.49-1.32.61-.78.22-.91-.02-1.01.4-1.84.6-4.91.96-7.1,1.23-.27.03-.46.28-.43.55-.07,0-.14.02-.21.02-.95.1-1.93.18-2.92.22-.64.03-1.28.04-1.9.04M70.11,91.37s0,0,0-.01c0,0,0,0,0,.01M70.11,91.35s0,0,0,0c0,0,0,0,0,0M70.1,91.33s0,0,0,0c0,0,0,0,0,0M69.8,89.22s0,0,0,0c0,0,0,0,0,0M69.8,89.18s0,0,0,0c0,0,0,0,0,0M69.8,89.16s0,0,0,0c0,0,0,0,0,0M69.79,89.14s0,0,0,0c0,0,0,0,0,0M69.79,89.12s0,0,0,0c0,0,0,0,0,0M69.79,89.1s0,0,0,0c0,0,0,0,0,0M69.79,89.08s0,0,0,0c0,0,0,0,0,0M69.79,89.07s0,0,0-.02c0,0,0,0,0,.02M69.79,89.05s0,0,0-.01c0,0,0,0,0,.01M69.79,89.03s0,0,0-.01c0,0,0,0,0,.01M69.79,89.01s0,0,0-.01c0,0,0,0,0,.01M69.79,88.99s0,0,0-.01c0,0,0,0,0,.01M69.79,88.97s0-.01,0-.02c0,0,0,.01,0,.02M69.78,88.95s0,0,0-.01c0,0,0,0,0,.01M69.78,88.93s0-.01,0-.02c0,0,0,.01,0,.02M69.78,88.91s0-.01,0-.02c0,0,0,0,0,.02M69.78,88.9s0-.01,0-.02c0,0,0,.01,0,.02"/>
  <path class="cls-9" d="M93.32,66.86c-.17,0-.34-.02-.51-.02.17,0,.34.01.51.02h0M92.81,66.84s-.04,0-.06,0c.02,0,.04,0,.06,0M92.75,66.83s-.01,0-.02,0c0,0,.01,0,.02,0M92.73,66.83s-.01,0-.02,0c0,0,.01,0,.02,0M92.71,66.83s-.03,0-.04,0c.01,0,.03,0,.04,0M92.67,66.83s-.01,0-.02,0c0,0,.01,0,.02,0M92.65,66.83s-.01,0-.02,0c0,0,.01,0,.02,0M92.63,66.83s-.03,0-.04,0c.01,0,.03,0,.04,0M92.59,66.83s0,0-.01,0c0,0,0,0,.01,0M92.57,66.83s0,0-.01,0c0,0,0,0,.01,0M92.55,66.83s-.03,0-.04,0c.01,0,.02,0,.04,0M92.51,66.83s0,0-.01,0c0,0,0,0,.01,0M92.49,66.83s0,0-.01,0c0,0,0,0,.01,0M92.47,66.83s-.01,0-.02,0c0,0,.01,0,.02,0"/>
  <path class="cls-7" d="M70.35,88.25c-.12-.63-.2-1.29-.22-1.98-.04-.85-.02-1.72.04-2.59-.14.74-.25,1.48-.32,2.22.59-6.39,3.93-12.97,10.62-16.49h0c-.41-1.48-.79-3.24-.86-4.08,0-.03,0-.06,0-.08,0-.57.48-.98.99-.98.21,0,.43.07.62.23.63.52,2.5,1.46,4.38,2.27h0c-.36-.81-.49-1.54-.49-2.2,0-.68.14-1.28.29-1.8.12-.43.5-.66.88-.66.29,0,.59.14.77.43,1.36,2.13,3.68,3.5,5.39,4.28h0s.01,0,.02,0c0,0,0,0,0,0,0,0,0,0,.01,0,0,0,0,0,0,0,0,0,0,0,.01,0,0,0,0,0,0,0,.01,0,.03,0,.04,0,0,0,0,0,0,0,0,0,0,0,.01,0,0,0,0,0,0,0,0,0,0,0,.01,0,0,0,0,0,0,0,.01,0,.03,0,.04,0h0s.01,0,.02,0c0,0,0,0,0,0,0,0,.01,0,.02,0,0,0,0,0,0,0,.01,0,.03,0,.04,0t0,0s.01,0,.02,0c0,0,0,0,0,0,0,0,.01,0,.02,0h0s.04,0,.06,0c0,0,0,0,0,0,.17,0,.34.01.51.02-.02.27.19.5.46.52,6.93.5,11.9,3.78,15.01,8.11-3.15-3.74-7.82-6.49-14.13-7.01-1.25-.1-2.48-.43-3.61-1-1.4-.71-2.9-1.67-3.81-3.09-.31-.48-.56-.69-.77-.69-.23,0-.4.25-.51.64-.22.76-.41,1.69-.18,2.81.08.38-.23.7-.58.7-.08,0-.17-.02-.25-.06-1.42-.66-2.68-1.32-3.17-1.73-.28-.23-.54-.35-.74-.35-.28,0-.45.24-.41.74.04.55.27,1.5.54,2.5.24.89-.14,1.82-.92,2.31-6.12,3.86-9.46,10.71-9.89,16.98"/>
  <path class="cls-12" d="M70.11,91.37s0,0,0,0c0,0,0,0,0,0M70.11,91.35s0,0,0,0c0,0,0,0,0,0M70.11,91.34s0,0,0-.01c0,0,0,0,0,.01M70.1,91.32c-.15-.67-.26-1.37-.3-2.11.05.73.15,1.44.3,2.11M69.8,89.21s0-.02,0-.04c0,.01,0,.02,0,.04M69.8,89.17s0,0,0-.01c0,0,0,0,0,.01M69.8,89.16s0-.01,0-.02c0,0,0,.01,0,.02M69.79,89.13s0,0,0,0c0,0,0,0,0,0M69.79,89.12s0,0,0-.01c0,0,0,0,0,.01M69.79,89.09s0,0,0,0c0,0,0,0,0,0M69.79,89.08s0,0,0,0c0,0,0,0,0,0M69.79,89.05s0,0,0,0c0,0,0,0,0,0M69.79,89.04s0,0,0,0c0,0,0,0,0,0M69.79,89.02h0s0,0,0,0M69.79,89s0,0,0,0c0,0,0,0,0,0M69.79,88.98h0s0,0,0,0M69.78,88.96s0,0,0,0c0,0,0,0,0,0M69.78,88.94s0,0,0,0c0,0,0,0,0,0M69.78,88.92s0,0,0,0c0,0,0,0,0,0M69.78,88.9s0,0,0,0c0,0,0,0,0,0"/>
  <path class="cls-16" d="M70.77,93.38c-.27-.63-.49-1.3-.66-2.01,0,0,0,0,0,0,0,0,0,0,0-.01,0,0,0,0,0,0,0,0,0,0,0,0,0,0,0,0,0-.01,0,0,0,0,0,0-.15-.67-.26-1.37-.3-2.11,0,0,0,0,0,0,0-.01,0-.02,0-.04,0,0,0,0,0,0,0,0,0,0,0-.01,0,0,0,0,0,0,0,0,0-.01,0-.02,0,0,0,0,0,0,0,0,0,0,0,0,0,0,0,0,0,0,0,0,0,0,0-.01,0,0,0,0,0,0,0,0,0,0,0,0,0,0,0,0,0,0,0,0,0,0,0,0,0,0,0,0,0-.02,0,0,0,0,0,0,0,0,0,0,0-.01,0,0,0,0,0,0,0,0,0,0,0-.01h0s0-.01,0-.02c0,0,0,0,0,0,0,0,0,0,0-.01h0s0-.01,0-.02c0,0,0,0,0,0,0,0,0,0,0-.01,0,0,0,0,0,0,0,0,0-.01,0-.02,0,0,0,0,0,0,0,0,0-.01,0-.02,0,0,0,0,0,0,0,0,0-.01,0-.02h0c-.01-.31-.02-.62-.02-.94,0-.67.03-1.36.09-2.04.07-.74.17-1.48.32-2.22-.06.87-.08,1.73-.04,2.59.03.69.1,1.35.22,1.98-.05.74-.06,1.47-.03,2.19.04,1.04.2,2.02.45,2.94"/>
  <path class="cls-4" d="M74.02,87.37c.12,2.86,1.12,5.91,3.82,8.18,2.76,2.32,7.3,3.84,14.5,3.53h0c7.13-.3,11.5-2.16,14.07-4.67,2.56-2.51,3.32-5.66,3.2-8.56-.03-.59-.1-1.16-.22-1.72-1.03-4.93-5.51-8.54-10.71-8.32-2.84.12-5.38,1.36-7.19,3.28-1.97-1.76-4.6-2.78-7.44-2.66-5.14.22-9.25,4.09-9.94,9.01h0c-.09.63-.12,1.27-.09,1.92"/>
  <path class="cls-19" d="M89.18,87.37c.04.89,1.27,1.91,2.74,1.85,1.47-.06,2.61-1.18,2.57-2.08-.04-.89-1.24-1.22-2.71-1.15-1.47.06-2.64.49-2.6,1.38"/>
  <path class="cls-10" d="M91.67,87.23c-.56,0-1-.22-1.01-.42,0-.21.47-.32,1.07-.34.08,0,.16,0,.23,0,.49,0,.86.07.86.26,0,.21-.46.48-1.06.51-.03,0-.06,0-.09,0"/>
  <path class="cls-19" d="M95.74,102.62c-.24,0-.46-.18-.49-.43-.03-.27.16-.52.43-.55,5.21-.66,9.52-2.26,12.49-4.63,3.21-2.57,4.76-5.92,4.59-9.96-.38-8.85-6.47-18.77-18.97-19.67-.27-.02-.48-.26-.46-.53.02-.27.26-.48.53-.46,6.04.44,11.14,2.92,14.75,7.18,3.1,3.67,4.93,8.44,5.14,13.44.18,4.31-1.53,8.04-4.95,10.77-3.1,2.48-7.59,4.15-12.98,4.83-.02,0-.04,0-.06,0"/>
  <path class="cls-19" d="M92.12,102.43c.13-.08.27-.14.4-.2.13-.06.27-.1.4-.14.27-.08.54-.14.81-.19.27-.05.54-.1.81-.14.27-.04.54-.07.81-.08h0c.27,0,.5.21.51.48,0,.24-.16.45-.39.49-.27.06-.55.08-.83.1-.28.02-.56.02-.84,0-.28-.01-.56-.03-.84-.08-.14-.02-.28-.06-.42-.1-.14-.04-.28-.09-.42-.16h0Z"/>
  <path class="cls-19" d="M73.93,97.01c.19.14.36.3.53.45.17.16.34.32.51.49.17.17.34.34.49.52.08.09.16.19.23.3.07.1.15.22.21.34-.14,0-.27-.02-.4-.05-.13-.02-.25-.06-.37-.1-.24-.08-.46-.2-.68-.32-.22-.12-.43-.26-.63-.41-.2-.15-.39-.32-.55-.51-.18-.21-.16-.52.05-.7.18-.16.44-.16.62-.02h0Z"/>
  <path class="cls-19" d="M73.44,97.71c-.12,0-.25-.05-.34-.14-2.38-2.3-3.66-5.22-3.81-8.68-.17-3.9.66-7.77,2.4-11.19,1.93-3.8,4.91-6.83,8.63-8.77.24-.13.54-.03.66.21.13.24.03.54-.21.66-8.16,4.25-10.77,12.62-10.5,19.04.14,3.19,1.32,5.89,3.51,8.01.2.19.2.5.01.7-.1.1-.23.15-.35.15h0Z"/>
  <path class="cls-23" d="M95.47,86.6c.58,3.08,3.11,3.71,6.43,4.88,2.08.74,3.54,1.89,4.51,2.93,2.56-2.51,3.32-5.66,3.2-8.56-.03-.59-.1-1.16-.22-1.72-2.01-1.92-5.13-3.71-9.48-2.99-3.18.52-4.86,3.25-4.44,5.46h0Z"/>
  <path class="cls-23" d="M74.02,87.37c.12,2.86,1.12,5.91,3.82,8.18.88-1.09,2.22-2.33,4.18-3.22,3.21-1.45,5.67-2.29,5.99-5.41.23-2.24-1.67-4.82-4.89-5.07-4.26-.33-7.17,1.58-9.01,3.59h0c-.09.63-.12,1.27-.09,1.92h0Z"/>
  <path class="cls-19" d="M86.1,67.9c-.12,0-.25-.05-.35-.14-1.16-1.14-1.45-2.91-.81-5.11.15-.54.59-.92,1.15-1,.56-.08,1.09.16,1.39.64,2.19,3.41,6.37,4.12,6.41,4.12.27.04.45.3.41.56-.04.27-.29.45-.56.41-.19-.03-4.65-.77-7.08-4.57-.14-.22-.36-.2-.42-.19-.08.01-.27.06-.34.3-.37,1.28-.57,3.03.56,4.14.19.19.2.5,0,.7-.1.1-.22.15-.35.15h0Z"/>
  <path class="cls-19" d="M80.55,69.87c-.17,0-.34-.09-.43-.26-.51-.93-.84-2.35-.98-4.24-.05-.6.26-1.14.79-1.42.54-.28,1.16-.21,1.63.17,1.62,1.33,3.05,2.1,4.15,2.22.27.03.47.27.44.54-.03.27-.27.47-.54.44-1.3-.14-2.87-.96-4.67-2.44-.24-.19-.48-.09-.54-.06-.07.03-.28.17-.26.47.13,1.72.43,3.05.87,3.84.13.24.04.54-.2.67-.07.04-.16.06-.24.06h0Z"/>
  <path class="cls-19" d="M103.55,86.94c-.09-.02-.2-.07-.31-.1-.06-.02-.11-.04-.16-.05l-.16-.05c-.11-.04-.22-.06-.32-.1l-.32-.09c-.42-.11-.84-.18-1.25-.21-.21-.03-.41-.02-.62-.03-.2.02-.41,0-.62.04-.1.02-.21.01-.32.03-.1.02-.21.04-.32.05-.11,0-.22.04-.33.06-.11.02-.22.05-.34.06h-.09c-.29.05-.56-.16-.6-.45-.02-.18.05-.35.17-.46.41-.38.92-.69,1.48-.85.28-.1.57-.14.86-.18.29-.01.59-.03.88,0,.58.05,1.15.21,1.66.46.12.07.25.13.37.2.12.08.24.15.35.24.11.09.22.17.33.27.11.1.2.19.31.32.19.22.16.55-.06.74-.13.11-.3.15-.46.11l-.14-.03h0Z"/>
  <path class="cls-19" d="M78.96,87.19c.1-.14.18-.24.28-.35.09-.11.2-.2.3-.3.1-.1.22-.18.33-.26.11-.08.23-.16.35-.23.49-.29,1.04-.5,1.61-.6.29-.06.58-.07.87-.08.29.02.59.03.87.11.57.11,1.1.38,1.54.72.23.18.28.51.1.75-.11.14-.28.22-.44.21h-.09c-.12,0-.24-.02-.35-.03-.11-.01-.22-.04-.33-.04-.11,0-.22-.01-.32-.03-.11-.02-.21,0-.32,0-.21-.02-.42.01-.62.01-.2.03-.41.03-.61.08-.41.07-.82.17-1.23.32l-.31.11c-.1.04-.21.08-.31.12l-.16.06c-.05.02-.1.05-.15.07-.1.04-.21.1-.3.13l-.13.04c-.28.09-.57-.06-.66-.34-.05-.16-.02-.34.07-.47h0Z"/>
  <path class="cls-6" d="M80.02,126.59c8.69,5.12,4.39,8.54,5.32,11.47.67,2.14,11.18,2.66,12.17-.18,1.07-3.06-2.89-4.24-2.89-4.24,0,0,6.14-6.18-.14-11.78l-14.47,4.74"/>
  <path class="cls-11" d="M91.58,139.35h-.03c-.67,0-1.34-.04-2-.11-.66-.07-1.32-.19-1.95-.35-.31-.08-.62-.18-.91-.31-.28-.12-.55-.27-.72-.44-.09-.08-.14-.16-.16-.22l-.05-.21c-.02-.07-.02-.14-.04-.21-.04-.29-.03-.6,0-.91.07-.64.22-1.31.31-2.02.04-.36.07-.72.07-1.09,0-.37-.05-.75-.12-1.12-.16-.74-.47-1.44-.87-2.06-.4-.62-.87-1.18-1.4-1.67-.53-.49-1.09-.92-1.69-1.29-.54-.34-1.12-.62-1.73-.81.46-.12.92-.18,1.37-.18,3.1,0,5.7,2.81,5.14,6.11-.17,1.01-.37,1.93-.09,2.82.35,1.1,3.32,1.78,6.25,1.78.09,0,.19,0,.28,0-.28.51-.34,1-.29,1.43.04.31.16.58.35.8-.57.06-1.14.08-1.72.08"/>
  <path class="cls-19" d="M80.1,126.45c.68.2,1.32.5,1.92.87.6.37,1.16.81,1.69,1.29.52.49,1,1.04,1.4,1.67.4.62.7,1.32.87,2.06.07.37.11.75.12,1.12,0,.37-.02.74-.07,1.09-.09.71-.25,1.39-.31,2.02-.03.32-.04.63,0,.91.01.07.02.14.04.21l.05.21c.02.06.07.14.16.22.17.17.44.32.72.44.29.12.59.22.91.31.63.17,1.29.28,1.95.35.66.07,1.33.11,2,.11.67,0,1.34-.03,2-.11.66-.08,1.31-.2,1.92-.4.3-.1.59-.22.85-.37.26-.15.48-.33.61-.52.03-.05.06-.1.09-.15l.03-.08.03-.11c.05-.14.08-.28.1-.43.04-.28.03-.56-.04-.83-.13-.53-.51-1.01-1-1.38-.24-.19-.51-.36-.79-.5-.14-.07-.28-.14-.43-.2-.14-.06-.3-.12-.43-.16l-.77-.24.56-.58c.08-.08.17-.19.26-.28.09-.1.17-.2.25-.31.17-.21.32-.43.47-.64.3-.44.56-.9.79-1.38.45-.96.75-1.98.77-3.02.01-.52-.04-1.03-.15-1.53-.11-.5-.31-.98-.56-1.44-.14-.22-.26-.45-.41-.66-.08-.11-.14-.22-.21-.33-.08-.1-.15-.22-.23-.32l-.11-.17c-.04-.05-.08-.11-.12-.16-.08-.11-.15-.22-.22-.34-.15-.23-.3-.46-.43-.73h0c-.04-.1,0-.2.09-.24.05-.02.09-.02.14,0,.28.11.54.26.77.43.12.09.23.18.34.28.05.05.11.1.16.15.05.05.1.11.15.16.1.11.2.22.29.33.09.11.18.24.26.36.18.24.3.51.44.77.25.54.47,1.1.6,1.69.13.58.19,1.19.18,1.78-.03,1.2-.37,2.36-.87,3.41-.25.53-.54,1.03-.87,1.51-.16.24-.33.48-.51.7-.09.11-.18.23-.28.34-.1.11-.19.22-.3.34l-.21-.82c.2.06.36.13.53.2.17.07.34.15.5.24.33.17.64.37.94.6.3.23.58.51.82.82.24.32.43.69.53,1.09.1.4.12.82.06,1.22-.03.2-.07.39-.13.58l-.04.14-.07.16c-.05.1-.11.2-.17.3-.26.37-.59.62-.93.82-.34.19-.69.34-1.04.45-.7.23-1.4.36-2.11.44-.71.08-1.41.12-2.11.12-.7,0-1.41-.04-2.11-.12-.7-.08-1.4-.2-2.1-.38-.35-.09-.7-.21-1.04-.35-.34-.15-.69-.33-1.02-.64-.16-.16-.32-.36-.41-.63l-.08-.29c-.02-.1-.03-.2-.05-.29-.05-.39-.04-.78,0-1.14.08-.73.23-1.39.31-2.05.04-.32.06-.64.06-.96,0-.32-.04-.62-.1-.93-.13-.61-.39-1.18-.74-1.71-.35-.53-.81-1-1.29-1.45-.11-.12-.24-.22-.36-.33-.12-.11-.24-.22-.37-.33l-.38-.32-.39-.31c-.26-.22-.52-.42-.78-.65-.26-.23-.52-.45-.76-.71h0c-.06-.07-.06-.18,0-.25.05-.04.11-.05.16-.04"/>
  <path class="cls-13" d="M115.95,114.96s-.09-.03-.14-.05c-.08-.03-.16-.06-.23-.09.08.03.15.06.23.09.05.02.09.03.14.05"/>
  <path class="cls-13" d="M114.51,114.46s-.05-.01-.07-.02h0s.05.01.07.02"/>
  <path class="cls-19" d="M112.38,112.63h0c.15-.1.3-.19.46-.28h0c-.16.09-.31.18-.46.28"/>
  <path class="cls-19" d="M112.84,112.36h0c.19-.1.38-.19.57-.28h0c-.19.08-.38.17-.57.28"/>
  <g>
    <path class="cls-6" d="M115.87,117.49s3.28-1.08,3.81-4.34c.85-5.28-2.24-7.55-4.62-6.86-2.5.73-4.33,4.08-.78,8.46.64.79,1.33,1.28,1.59,2.74"/>
    <path class="cls-11" d="M116.19,116.86c-.27-.94-.74-1.46-1.19-1.97-.12-.14-.25-.28-.37-.43-.18-.22-.34-.44-.5-.66.02,0,.04.01.06.02.31.09.64.21,1,.34.07.03.14.06.22.09.04.02.09.03.13.04.13.04.26.06.38.06.48,0,.93-.25,1.18-.67.24.07.48.11.72.11.47,0,.94-.14,1.34-.41-.47,2.06-2.15,3.09-2.98,3.48"/>
    <path class="cls-19" d="M115.92,106.63c-.24,0-.49.03-.72.1-1.08.31-1.93,1.15-2.26,2.23-.49,1.58.11,3.54,1.71,5.5.12.15.25.29.37.43.45.51.92,1.03,1.19,1.97.87-.41,2.67-1.52,3.03-3.78.4-2.49-.09-4.56-1.36-5.68-.57-.5-1.27-.77-1.95-.77M115.51,118.09l-.09-.52c-.18-1.04-.61-1.52-1.1-2.07-.13-.14-.26-.29-.4-.46-1.79-2.21-2.46-4.47-1.87-6.35.43-1.37,1.51-2.43,2.88-2.83,1.21-.35,2.53-.03,3.54.86,1.51,1.33,2.11,3.7,1.66,6.51-.57,3.5-3.97,4.65-4.12,4.7l-.5.16"/>
    <path class="cls-2" d="M114.4,109.47c.75.19,1.51-.31,1.62-1.08.05-.39,0-.84-.25-1.31-.63-1.16-3.26-.54-4.82.93-.42.39-.12,1.09.45,1.08.72-.02,1.72.05,3,.38"/>
    <path class="cls-18" d="M112.94,108.72c-.46-.06-.9-.09-1.32-.09-.08,0-.16,0-.24,0h0c-.09,0-.14-.07-.16-.11-.02-.04-.03-.12.04-.18.17-.16.34-.3.52-.43.1.09.24.14.4.14,0,0,.01,0,.02,0,.07,0,.14,0,.21,0,.51,0,1.14.05,1.89.19-.45.1-.91.27-1.36.48"/>
    <path class="cls-19" d="M114.51,109.03c.24.06.49.02.69-.12.2-.14.33-.34.36-.58.05-.35-.02-.7-.2-1.03-.1-.18-.3-.29-.59-.34-.86-.14-2.41.34-3.51,1.39-.07.07-.05.14-.04.18.02.04.06.11.16.11.94-.03,2,.11,3.13.4h0M114.72,109.97c-.15,0-.29-.02-.44-.06h0c-1.05-.27-2.02-.39-2.88-.37-.45.02-.86-.25-1.03-.67-.17-.42-.07-.89.26-1.2,1.2-1.13,3.04-1.82,4.29-1.62.58.09,1.02.37,1.25.81.28.51.38,1.04.3,1.59-.07.49-.35.94-.76,1.21-.29.2-.64.3-.99.3"/>
    <path class="cls-2" d="M115.26,111.83c.82.21,1.64-.34,1.76-1.17.06-.42,0-.91-.27-1.43-.68-1.26-3.55-.59-5.25,1.01-.45.43-.13,1.19.49,1.17.78-.02,1.87.06,3.27.42"/>
    <path class="cls-18" d="M116.2,111.22c-.23-.06-.5-.09-.78-.09s-.55.03-.85.08c-.83-.17-1.62-.25-2.34-.25-.09,0-.17,0-.25,0,0,0,0,0-.01,0-.13,0-.18-.1-.2-.14-.02-.05-.04-.15.05-.24.25-.24.54-.46.85-.66.1.24.33.42.63.42h.02c.08,0,.16,0,.24,0,.75,0,1.74.1,2.98.41-.06.19-.17.35-.33.47"/>
    <path class="cls-19" d="M112.23,110.95c.96,0,2.01.15,3.14.43h0c.27.07.55.02.78-.13.23-.15.38-.39.41-.66.05-.39-.02-.78-.22-1.15-.11-.21-.34-.34-.67-.39-1.08-.17-2.77.49-3.86,1.52-.09.09-.07.19-.05.24.02.04.08.15.21.14.08,0,.17,0,.25,0M115.61,112.33c-.16,0-.31-.02-.47-.06-1.15-.29-2.2-.43-3.14-.4-.48.01-.9-.26-1.08-.7-.18-.44-.08-.93.27-1.26,1.29-1.22,3.28-1.97,4.63-1.76.62.1,1.08.4,1.33.86.3.54.4,1.12.32,1.71-.07.53-.37,1-.81,1.29-.31.21-.68.32-1.05.32"/>
    <path class="cls-2" d="M115.42,114.25c.75.3,1.61-.11,1.83-.89.11-.4.12-.87-.08-1.39-.49-1.29-3.3-1.01-5.12.3-.49.35-.28,1.11.32,1.18.75.08,1.77.3,3.06.81"/>
    <path class="cls-18" d="M115.93,114.35c-.13,0-.26-.02-.38-.06-.04-.01-.09-.03-.13-.04-.07-.03-.15-.06-.22-.09-.35-.14-.68-.25-1-.34-.02,0-.04-.01-.06-.02-.47-.14-.9-.23-1.27-.3-.03,0-.05,0-.08-.01-.15-.02-.3-.04-.43-.06-.59-.06-.8-.83-.32-1.18.06-.04.12-.09.18-.13.14-.09.28-.18.43-.26.17-.09.35-.18.53-.26-.2.38.03.9.51.95.75.08,1.77.3,3.06.81.15.06.3.09.44.1-.21.53-.72.86-1.27.86"/>
    <path class="cls-19" d="M115.42,111.58c-.97,0-2.2.4-3.11,1.05-.09.07-.08.16-.07.21.01.04.05.13.17.15.98.1,2.05.39,3.18.84.24.1.51.09.75-.03.23-.12.4-.32.47-.57.1-.36.08-.73-.06-1.11-.08-.2-.27-.35-.58-.45-.22-.07-.47-.1-.74-.1h0ZM115.93,114.81c-.23,0-.46-.04-.68-.13-1.05-.42-2.04-.69-2.93-.78-.46-.05-.84-.37-.96-.82-.12-.45.05-.91.42-1.18,1.39-1,3.39-1.46,4.65-1.08.58.18.99.52,1.17,1,.21.56.24,1.12.09,1.68-.14.5-.48.91-.95,1.14-.25.13-.53.19-.81.19h0Z"/>
  </g>
  <path class="cls-2" d="M63.22,121.86c.74-.4,1.66-.08,1.98.7.16.39.23.87.09,1.44-.35,1.38-3.26,1.43-5.28.31-.54-.3-.42-1.11.18-1.25.76-.17,1.78-.52,3.03-1.2"/>
  <path class="cls-18" d="M60.9,124.19c-.22-.09-.45-.19-.66-.31-.03-.01-.04-.03-.06-.05.14,0,.29.01.43.01.66,0,1.26-.1,1.75-.31.1-.04.19-.09.27-.14.04.03.08.05.12.08-.56.22-1.04.36-1.45.46-.17.04-.31.14-.4.26"/>
  <path class="cls-19" d="M63.22,121.86h0,0M63.9,122.18c-.15,0-.31.04-.44.11h0c-1.1.6-2.17,1.02-3.16,1.25-.11.02-.13.11-.14.15,0,.05,0,.13.09.18,1.43.79,3.18.88,4.04.51.3-.13.48-.3.53-.51.1-.4.08-.78-.07-1.13-.1-.24-.29-.42-.54-.51-.1-.04-.2-.05-.31-.05M63.05,125.58c-1.08,0-2.3-.29-3.28-.84-.42-.24-.65-.7-.59-1.18.07-.48.42-.87.9-.98.9-.2,1.88-.59,2.91-1.15.48-.26,1.04-.31,1.55-.12.51.18.92.57,1.12,1.07.23.55.26,1.14.11,1.74-.13.52-.51.92-1.09,1.18-.45.2-1.01.29-1.62.29"/>
  <path class="cls-2" d="M60.8,119.84c.8-.44,1.81-.09,2.15.76.17.43.25.95.1,1.56-.38,1.5-3.55,1.56-5.75.34-.59-.32-.46-1.21.2-1.35.82-.19,1.94-.56,3.3-1.31"/>
  <path class="cls-18" d="M58.6,122.53c-.37-.12-.73-.27-1.06-.46-.12-.07-.13-.18-.12-.24,0-.04.03-.15.14-.19.43.08.88.11,1.31.11.46,0,.9-.04,1.31-.13-.38.13-.72.22-1.02.29-.33.07-.52.33-.56.61"/>
  <path class="cls-19" d="M61.03,120.27c-1.2.66-2.35,1.11-3.43,1.35-.15.03-.18.15-.19.2,0,.06,0,.17.12.24,1.41.78,3.36,1.02,4.43.56.34-.15.54-.34.6-.59.11-.44.08-.86-.08-1.26-.11-.27-.33-.48-.61-.58-.28-.1-.59-.07-.85.07M60.61,123.84c-1.16,0-2.48-.32-3.55-.91-.45-.25-.69-.73-.62-1.24.07-.51.44-.91.94-1.02.99-.22,2.06-.65,3.17-1.26.51-.28,1.11-.33,1.65-.13.54.19.97.61,1.19,1.14.24.59.28,1.22.12,1.87-.14.55-.54.98-1.16,1.25-.49.21-1.09.31-1.75.31"/>
  <path class="cls-2" d="M59.43,117.84c.71-.52,1.71-.31,2.15.45.22.38.36.87.29,1.48-.17,1.47-3.18,1.94-5.43,1.06-.6-.23-.59-1.09.02-1.31.76-.28,1.77-.78,2.98-1.67"/>
  <path class="cls-18" d="M57.63,120.65c-.35-.07-.69-.16-1.01-.29-.11-.04-.13-.14-.13-.2,0-.04.01-.15.14-.2,1-.37,2.04-.95,3.1-1.73.1-.07.21-.13.33-.16-.1.35-.15.71-.15,1.08-.7.42-1.32.7-1.82.89-.28.11-.44.35-.46.6"/>
  <path class="cls-19" d="M59.43,117.84h0,0M60.31,118.05c-.21,0-.41.07-.58.19-1.06.78-2.1,1.36-3.1,1.73-.12.05-.14.15-.14.2,0,.05.02.15.13.2,1.44.56,3.31.55,4.27-.03.3-.18.46-.39.49-.62.05-.43-.03-.82-.23-1.17-.14-.24-.37-.41-.64-.46-.07-.01-.14-.02-.2-.02M58.87,121.76c-.87,0-1.8-.16-2.61-.47-.46-.18-.76-.62-.76-1.12,0-.5.31-.94.78-1.11.91-.34,1.87-.88,2.86-1.6.45-.33,1.02-.46,1.57-.34.54.11,1.01.46,1.29.94.31.54.43,1.13.35,1.78-.06.55-.39,1.01-.96,1.35-.64.39-1.56.58-2.53.58"/>
  <path class="cls-2" d="M96.22,138.99c-.85.2-1.69-.39-1.79-1.26-.05-.44.01-.94.32-1.47.74-1.29,3.69-.52,5.41,1.18.46.45.11,1.23-.53,1.2-.81-.04-1.94.02-3.39.35"/>
  <path class="cls-18" d="M99.65,138.14s-.01,0-.02,0c-.16,0-.33-.01-.5-.01s-.33,0-.5.01c-.25-.24-.52-.46-.81-.66h.03c.17,0,.32,0,.47.01.01,0,.03,0,.04,0,.28,0,.5-.16.62-.37.29.2.57.42.81.66.09.09.06.18.04.23-.02.04-.07.13-.19.13"/>
  <path class="cls-19" d="M96.17,136.1c-.11,0-.21,0-.31.02-.34.05-.58.17-.69.38-.21.37-.3.77-.25,1.17.03.28.18.52.4.68.23.16.52.22.79.16,1.28-.3,2.47-.42,3.53-.36.13,0,.19-.09.21-.13.02-.05.05-.14-.04-.23-1-.99-2.53-1.68-3.63-1.68M95.89,139.52c-.4,0-.8-.12-1.14-.36-.45-.32-.75-.82-.81-1.37-.07-.61.06-1.21.38-1.77.27-.48.76-.78,1.41-.86,1.4-.19,3.45.64,4.76,1.94.35.35.45.87.25,1.33-.2.46-.66.74-1.16.72-.97-.05-2.07.06-3.26.34-.15.03-.29.05-.44.05"/>
  <path class="cls-2" d="M94.74,139.73c-.85.2-1.69-.39-1.79-1.26-.05-.44.01-.94.31-1.47.74-1.29,3.69-.52,5.41,1.18.46.45.11,1.23-.53,1.2-.81-.04-1.94.02-3.39.35"/>
  <path class="cls-19" d="M94.59,139.75s.1-.02.15-.03c.1-.02.19-.04.29-.06-.09.02-.19.04-.29.06-.05.01-.1.02-.15.03"/>
  <path class="cls-22" d="M96.63,139.41h0c.38-.04.72-.05,1.03-.05.17,0,.32,0,.47.01.01,0,.03,0,.04,0,.22,0,.41-.1.54-.25h0c-.12.15-.31.25-.54.25-.01,0-.03,0-.04,0-.15,0-.3-.01-.47-.01-.31,0-.65.01-1.03.05"/>
  <path class="cls-19" d="M96.52,139.42s0,0,0,0c.04,0,.08,0,.11-.01h0s-.08,0-.12.01"/>
  <path class="cls-18" d="M97.83,137.48c-.09-.06-.18-.12-.27-.18h0c.09.06.18.12.27.18h0"/>
  <path class="cls-20" d="M98.64,138.14c-.25-.24-.52-.46-.81-.66h0c.29.2.56.42.81.66h0"/>
  <path class="cls-19" d="M96.1,139.48c.15-.02.29-.04.42-.05,0,0,0,0,0,0-.14.01-.28.03-.42.05M98.71,139.13c.22-.26.25-.67-.04-.95-.01,0-.02-.02-.03-.03h0s.02.02.03.03c.29.28.26.69.04.95h0"/>
  <path class="cls-18" d="M94.41,139.76c-.68,0-1.29-.47-1.43-1.15.05,0,.1,0,.15,0,.11,0,.22-.01.33-.04,1.19-.28,2.16-.36,2.92-.36.17,0,.32,0,.47.01.01,0,.03,0,.04,0,.5,0,.81-.5.67-.93.09.06.18.12.27.18.29.2.56.42.81.66.01,0,.02.02.03.03.29.28.26.69.04.95-.12.15-.31.25-.54.25-.01,0-.03,0-.04,0-.15,0-.3-.01-.47-.01-.31,0-.65.01-1.03.05-.04,0-.08,0-.11.01-.14.01-.28.03-.42.05-.33.05-.69.11-1.07.19-.09.02-.19.04-.29.06-.05.01-.1.02-.15.03-.06,0-.12.01-.19.01"/>
  <path class="cls-19" d="M94.69,136.84c-.11,0-.21,0-.31.02-.34.05-.58.17-.69.38-.21.37-.3.77-.25,1.17.03.28.18.52.4.68.23.16.52.22.79.16,1.28-.3,2.47-.42,3.53-.36.13,0,.19-.09.21-.13.02-.05.05-.14-.04-.23-1-.99-2.53-1.68-3.63-1.68h0ZM94.41,140.26c-.4,0-.8-.12-1.14-.36-.45-.32-.75-.82-.81-1.37-.07-.62.06-1.21.38-1.77.27-.48.76-.78,1.41-.86,1.4-.19,3.45.64,4.76,1.94.35.35.45.87.25,1.33-.2.46-.66.74-1.16.71-.97-.05-2.07.06-3.26.34-.15.03-.29.05-.44.05h0Z"/>
  <path class="cls-6" d="M74.05,101.45c-2.48,2.5-2.42,2.99-5.66,8.48-1.7,2.87-4.47,3.92-6.26,5.26-2.16,1.62-3.95,5.19.63,8.28,2.97,2,7.89.92,10.06-1.71,3.02-3.65,5.45-10.63,7.65-11.91l-6.41-8.4"/>
  <path class="cls-11" d="M71.51,122.95h0c.5-.35.94-.74,1.31-1.19.9-1.09,1.76-2.49,2.57-3.94-.81,1.45-1.66,2.84-2.56,3.94-.37.44-.81.84-1.31,1.19"/>
  <path class="cls-13" d="M71.15,123.19h0c.12-.08.24-.15.36-.24h0c-.12.08-.24.16-.36.24"/>
  <path class="cls-19" d="M70.49,123.56c.23-.11.45-.24.67-.37h0c-.21.13-.44.26-.67.37"/>
  <polyline class="cls-19" points="62.11 123.01 62.11 123.01 62.11 123.01"/>
  <path class="cls-18" d="M61.76,122.71c-.45-.4-.81-.8-1.09-1.21h0c.28.4.63.81,1.09,1.21h0"/>
  <path class="cls-19" d="M62.11,123c-.12-.1-.24-.2-.35-.29h0c.11.1.23.2.35.29"/>
  <path class="cls-18" d="M60.19,120.62c-.19-.47-.28-.93-.29-1.38,0,.45.1.91.29,1.38h0"/>
  <path class="cls-19" d="M60.67,121.5c-.2-.29-.36-.59-.48-.88h0c.12.29.28.59.48.88h0"/>
  <polyline class="cls-18" points="59.9 119.24 59.9 119.24 59.9 119.24"/>
  <path class="cls-11" d="M66.45,124.51c-1.34,0-2.64-.32-3.7-1.03-.23-.16-.44-.31-.64-.47,0,0,0,0,0,0,0,0,0,0,0,0-.12-.1-.24-.2-.35-.29-.45-.4-.81-.8-1.09-1.21-.2-.29-.36-.59-.48-.88-.19-.47-.28-.93-.29-1.38h0s0,0,0,0c-.02-.96.33-1.86.86-2.63.09,1.31.88,2.72,2.85,4.04,1.06.71,2.36,1.03,3.7,1.03,2.42,0,4.96-1.05,6.36-2.74,2.1-2.53,1.6-6.04,4.97-9.24.24-.23.54-.34.85-.34.37,0,.73.16.98.48-1.54.9-3.2,4.59-5.08,7.98-.81,1.45-1.66,2.84-2.57,3.94-.36.44-.81.84-1.31,1.19-.12.08-.24.16-.36.24-.21.13-.44.26-.67.37-1.23.61-2.65.95-4.03.95"/>
  <path class="cls-19" d="M74.17,101.57c-.3.49-.63.94-.95,1.39-.32.45-.63.89-.92,1.34-.29.46-.57.93-.85,1.41l-.86,1.44-1.71,2.91c-.07.12-.15.25-.23.37-.08.12-.15.25-.24.37l-.26.36c-.09.12-.19.23-.28.34-.09.11-.19.23-.29.33-.1.11-.2.22-.31.32-.21.2-.43.41-.65.59-.89.76-1.88,1.36-2.83,1.95-.47.29-.94.59-1.36.91-.41.31-.79.68-1.1,1.09-.63.81-1.01,1.81-.91,2.78.04.49.21.96.45,1.4.25.44.58.84.95,1.21.37.37.8.7,1.24,1,.42.28.89.5,1.39.65.99.3,2.07.36,3.12.21,1.05-.14,2.08-.48,3.01-.98.46-.26.9-.55,1.28-.9.19-.17.38-.36.54-.55.17-.2.34-.42.5-.64.65-.88,1.23-1.82,1.78-2.79.55-.97,1.07-1.95,1.6-2.94l.8-1.49c.27-.5.53-1,.82-1.5.29-.5.61-.97,1-1.42.19-.22.41-.43.66-.61.25-.18.52-.34.83-.41.09-.02.18.04.21.13.01.05,0,.11-.03.15h0c-.17.23-.32.44-.47.66-.14.22-.29.44-.43.67-.29.45-.57.92-.86,1.38-.29.47-.58.94-.85,1.43-.27.49-.53.98-.79,1.48-.53.99-1.05,1.99-1.62,2.97-.56.98-1.16,1.96-1.85,2.88-.17.23-.35.46-.54.69-.2.23-.41.45-.64.65-.45.4-.95.74-1.47,1.03-1.04.57-2.18.94-3.35,1.1-1.17.16-2.38.1-3.54-.25-.58-.18-1.14-.44-1.65-.78-.49-.33-.95-.69-1.38-1.11-.43-.42-.82-.89-1.12-1.43-.3-.54-.51-1.15-.57-1.79-.03-.32-.02-.64.02-.95.04-.31.11-.62.21-.92.1-.3.23-.58.38-.85.15-.27.32-.53.5-.77.37-.48.8-.91,1.29-1.28.47-.36.96-.66,1.44-.96.96-.59,1.89-1.16,2.71-1.86.21-.17.4-.36.6-.54.1-.09.18-.19.28-.29.09-.09.18-.2.26-.3.08-.1.18-.2.25-.31l.24-.32c.08-.1.15-.22.22-.33.07-.11.14-.22.21-.34.57-.96,1.13-1.93,1.67-2.91.54-.98,1.07-1.98,1.74-2.92.34-.47.71-.93,1.13-1.32.42-.4.86-.76,1.35-1.07.08-.05.18-.03.23.05.03.06.03.12,0,.18h0Z"/>
  <path class="cls-19" d="M89.91,90.97c2.85.98,4.39-.56,4.84-.27.14.09.26.45.14.59-1.38,1.59-3.72,1.73-5.38.45-.18-.14-.24-.34-.18-.56.05-.16.36-.29.57-.21Z"/>
</svg>