<?xml version="1.0" encoding="UTF-8"?>
<svg id="Vrstva_1" data-name="Vrstva 1" xmlns="http://www.w3.org/2000/svg" viewBox="0 0 283.51 98.97">
  <defs>
    <style>
      .cls-1 {
        fill: #abc7e9;
      }

      .cls-2 {
        fill: #cca7a7;
      }

      .cls-3 {
        fill: #fff;
      }

      .cls-4 {
        fill: #68a930;
      }

      .cls-5 {
        fill: #9d4f3e;
      }

      .cls-6 {
        fill: #e59147;
      }

      .cls-7 {
        fill: #b75c27;
      }

      .cls-8 {
        fill: #b37e7f;
      }

      .cls-9 {
        fill: #d1b3b3;
      }

      .cls-10 {
        fill: #e1bea7;
      }

      .cls-11 {
        fill: #381b15;
      }

      .cls-12 {
        fill: #b37059;
      }

      .cls-13 {
        fill: #7a7db3;
      }

      .cls-14 {
        fill: #bad27a;
      }

      .cls-15 {
        fill: #64140e;
      }

      .cls-16 {
        fill: #fffbfc;
      }

      .cls-17 {
        fill: #c99c8c;
      }

      .cls-18 {
        fill: #edc28e;
      }

      .cls-19 {
        fill: #977761;
      }
    </style>
  </defs>
  <g>
    <g>
      <path class="cls-11" d="M37.19,44.09l-.15-3.63c-.05-1.29.68-2.32,1.9-2.84,5.16-2.2,11.72-.24,11.66,2.06l-.11,4.47c.56.23,1.04.55,1.35,1.07,1.03-.11,1.92.29,2.47,1.16h3.2v6.15l-3.52-.02c-1.34,2.04-2.85.7-3.92,1.79l-.25,5.78c-.59.88-1.43,1.3-2.4,1.68-2.95,1.21-9.4.14-9.51-1.73l-.37-6.08c-1.91-.94-2.45-3.17-1.52-5.03-.98-1.73-.71-4.01,1.17-4.86Z"/>
      <path class="cls-4" d="M57.5,48.46v2.7h-3.34v-2.68"/>
      <path class="cls-14" d="M54.16,47.75h3.34v1.04h-3.34v-1.04Z"/>
      <path class="cls-7" d="M45.5,60.77l.3-.17v-3.71c.34-.42,1.03-1.26.35-1.57-2.49.03-4.85,0-7.27-.78l.24,5.17c1.9,1.2,4.2,1.39,6.38,1.06Z"/>
      <path class="cls-6" d="M38.44,40.73c.49,1.2,2.63,1.57,3.85,1.72,1.85.23,4.59.08,6.16-.98.49-.33.7-.52.83-1.14.14-2.38-7.06-2.95-9.95-1.44-.82.41-1.16,1.03-.9,1.84Z"/>
      <path class="cls-7" d="M38.44,40.73l.16,4.47c2.26,1.02,4.72,1.15,7.11.92l.29-.28c.09-.78.19-1.55.3-2.31.78-.07,1.53-.29,2.25-.66.36-.12.53-.33.62-.69l.11-1.85c-1.85,2.54-8.39,2.44-10.84.4Z"/>
      <path class="cls-4" d="M50.97,46.34l-.36-.07c-2.53,1.76-6.34,2.12-9.29,1.5,0-.25-.02-.4-.31-.5-1.44-.28-2.79-.68-3.84-1.69-.5.79-.45,1.58-.14,2.43.18.5.87.93,1.58,1.23,3.43,1.43,7.36,1.37,10.78-.06,1.2-.51,1.8-1.6,1.58-2.84Z"/>
      <path class="cls-4" d="M46.4,51.27c.1.25.15.37.15.37-1.39.47-3.07.39-4.53.21-.74-.09-1.39-.2-1.8-.81-1.11-.32-2.07-.7-3.1-1.25-.59,1.29-.09,2.62,1.17,3.15,3.84,1.61,8.06,1.56,11.86-.19.34-.87.19-1.72.03-2.66-1.27.59-2.44.99-3.79,1.18Z"/>
      <path class="cls-6" d="M45.5,60.77h.03c1.07-.17,2.11-.43,2.98-1.16l.17-4.79c-1.06.28-2.08.48-3.13.51l-.05,5.44Z"/>
      <path class="cls-6" d="M45.72,46.12c1.12-.11,2.27-.34,3.31-.87l.15-3.07c-.93.62-2.33.92-3.45,1.16,0,1.11,0,1.88,0,2.78Z"/>
      <path class="cls-14" d="M41,47.28c.02.23-.03.46.04.62.36.78,7.74.73,9.92-1.56-.06-.36-.21-.63-.62-.72-.25.53-.69.85-1.25,1.04-2.6.9-5.39,1.14-8.1.61Z"/>
      <path class="cls-4" d="M51.86,48.18c-.72,2.1-.14,2.48-.27,4.25.44.08.77-.07,1.01-.3.66-.61-.07-2.14.34-3.67.03-.5-.83-.76-1.08-.28Z"/>
      <path class="cls-14" d="M40.66,51.14c1.89.38,3.79.41,5.74.13.28.04.47.18.46.4-.02.9-6.32.77-6.61-.16-.04-.13-.02-.29-.03-.46l.44.1Z"/>
      <path class="cls-14" d="M51.86,48.18c.4-.03.7.18,1.08.28.1-.39.25-.79.18-1.19-.06-.36-.32-.7-.89-.75-.06.56-.18,1.1-.37,1.67Z"/>
    </g>
    <g>
      <path class="cls-11" d="M246.32,44.09l.15-3.63c.05-1.29-.68-2.32-1.9-2.84-5.16-2.2-11.72-.24-11.66,2.06l.11,4.47c-.56.23-1.04.55-1.35,1.07-1.03-.11-1.92.29-2.47,1.16h-3.7v6.15l4.02-.02c1.34,2.04,2.85.7,3.92,1.79l.25,5.78c.59.88,1.43,1.3,2.4,1.68,2.95,1.21,9.4.14,9.51-1.73l.37-6.08c1.91-.94,2.45-3.17,1.52-5.03.98-1.73.71-4.01-1.17-4.86Z"/>
      <path class="cls-4" d="M225.51,48.46v2.7h3.84v-2.68"/>
      <path class="cls-14" d="M229.35,47.75h-3.84v1.04h3.84v-1.04Z"/>
      <path class="cls-7" d="M238.01,60.77l-.3-.17v-3.71c-.34-.42-1.03-1.26-.35-1.57,2.49.03,4.85,0,7.27-.78l-.24,5.17c-1.9,1.2-4.2,1.39-6.38,1.06Z"/>
      <path class="cls-6" d="M245.07,40.73c-.49,1.2-2.63,1.57-3.85,1.72-1.85.23-4.59.08-6.16-.98-.49-.33-.7-.52-.83-1.14-.14-2.38,7.06-2.95,9.95-1.44.82.41,1.16,1.03.9,1.84Z"/>
      <path class="cls-7" d="M245.07,40.73l-.16,4.47c-2.26,1.02-4.72,1.15-7.11.92l-.29-.28c-.09-.78-.19-1.55-.3-2.31-.78-.07-1.53-.29-2.25-.66-.36-.12-.53-.33-.62-.69l-.11-1.85c1.85,2.54,8.39,2.44,10.84.4Z"/>
      <path class="cls-4" d="M232.54,46.34l.36-.07c2.53,1.76,6.34,2.12,9.29,1.5,0-.25.02-.4.31-.5,1.44-.28,2.79-.68,3.84-1.69.5.79.45,1.58.14,2.43-.18.5-.87.93-1.58,1.23-3.43,1.43-7.36,1.37-10.78-.06-1.2-.51-1.8-1.6-1.58-2.84Z"/>
      <path class="cls-4" d="M237.11,51.27c-.1.25-.15.37-.15.37,1.39.47,3.07.39,4.53.21.74-.09,1.39-.2,1.8-.81,1.11-.32,2.07-.7,3.1-1.25.59,1.29.09,2.62-1.17,3.15-3.84,1.61-8.06,1.56-11.86-.19-.34-.87-.19-1.72-.03-2.66,1.27.59,2.44.99,3.79,1.18Z"/>
      <path class="cls-6" d="M238.01,60.77h-.03c-1.07-.17-2.11-.43-2.98-1.16l-.17-4.79c1.06.28,2.08.48,3.13.51l.05,5.44Z"/>
      <path class="cls-6" d="M237.79,46.12c-1.12-.11-2.27-.34-3.31-.87l-.15-3.07c.93.62,2.33.92,3.45,1.16,0,1.11,0,1.88,0,2.78Z"/>
      <path class="cls-14" d="M242.51,47.28c-.02.23.03.46-.04.62-.36.78-7.74.73-9.92-1.56.06-.36.21-.63.62-.72.25.53.69.85,1.25,1.04,2.6.9,5.39,1.14,8.1.61Z"/>
      <path class="cls-4" d="M231.65,48.18c.72,2.1.14,2.48.27,4.25-.44.08-.77-.07-1.01-.3-.66-.61.07-2.14-.34-3.67-.03-.5.83-.76,1.08-.28Z"/>
      <path class="cls-14" d="M242.85,51.14c-1.89.38-3.79.41-5.74.13-.28.04-.47.18-.46.4.02.9,6.32.77,6.61-.16.04-.13.02-.29.03-.46l-.44.1Z"/>
      <path class="cls-14" d="M231.65,48.18c-.4-.03-.7.18-1.08.28-.1-.39-.25-.79-.18-1.19.06-.36.32-.7.89-.75.06.56.18,1.1.37,1.67Z"/>
    </g>
    <g>
      <rect class="cls-11" x="57.5" y="46.39" width="168.01" height="1.35"/>
      <rect class="cls-14" x="57.5" y="47.75" width="168.01" height="1.04"/>
      <rect class="cls-4" x="57.5" y="48.79" width="168.01" height="2.37"/>
      <rect class="cls-11" x="57.5" y="51.15" width="168.01" height="1.4"/>
    </g>
  </g>
  <g>
    <path class="cls-3" d="M179.82,48.85s7.8.31,8.94-5.92c.14-.75-1.07-.72-2.71-.7-1.75.03-3.99.06-5.62-.86-3.1-1.73-.6,7.47-.6,7.47"/>
    <path class="cls-9" d="M184.43,47.53c-.11-.1.11-.35.19-1.05.06-.5,0-.92-.05-1.21.33-.04.72-.11,1.12-.2.37-.08.79-.2,1.24-.39.23-.09.44-.19.63-.29.13-.07.25-.14.37-.22-.12.28-.31.66-.59,1.09-1.03,1.53-2.65,2.5-2.9,2.26Z"/>
    <path class="cls-15" d="M183.33,45.37c-.2,0-.36-.16-.36-.36,0-.2.16-.36.36-.36.04,0,3.78-.03,5.14-1.93.12-.16.34-.2.5-.08.16.12.2.34.08.5-1.57,2.2-5.55,2.23-5.72,2.23h0"/>
    <path class="cls-15" d="M179.75,41.62s-.09.01-.12.03c-.1.08-.57.63-.08,3.73.2,1.25.48,2.45.63,3.01.63-.01,2.07-.1,3.57-.61,2.59-.88,4.13-2.54,4.56-4.93,0,0,0,0,0-.01-.23-.18-1.37-.16-2.21-.15-1.85.03-4.15.07-5.9-.91-.1-.05-.3-.16-.45-.16M180.01,49.31c-.12,0-.19,0-.21,0-.2,0-.37-.14-.42-.34-.02-.07-.45-1.68-.73-3.45-.54-3.4-.02-4.25.42-4.59.28-.22.79-.4,1.58.05,1.54.86,3.7.83,5.44.8,1.5-.02,2.49-.04,2.94.48.12.14.25.39.18.75-.49,2.72-2.29,4.67-5.2,5.65-1.77.59-3.43.65-4,.65"/>
    <path class="cls-12" d="M173.79,48.68c-.45,0-.91,0-1.35,0,0-.02,0-.05,0-.07-.05-.52-.41-1.33-.95-2.14.73.01,1.49.02,2.26.02,4.34,0,8.95-.22,9.91-1.11.15.97.01,1.88-.28,2.29-.12.17-1.12,1-9.31,1.02-.09,0-.18,0-.27,0"/>
    <path class="cls-18" d="M144.98,29.99s10.96-9.08,20.42-5.6c10.29,3.78,7.92,14.75,7.92,14.75,0,0,6.32.38,9.56,3.61,1.56,1.56,1.51,4.26.87,5.17-1.35,1.91-18.35,1-18.35,1,0,0-18.15.83-23.82-5.13-5.67-5.96,3.41-13.8,3.41-13.8"/>
    <path class="cls-10" d="M173.04,35.03c-.8-3.37-2.95-7.15-8.31-9.12-1.63-.6-3.29-.85-4.95-.85-4.29,0-8.49,1.69-11.63,3.39-.02-.03-.04-.06-.05-.09,2.93-1.84,7.77-4.3,12.7-4.3,1.49,0,2.99.22,4.44.76,4.1,1.51,6.63,4.34,7.52,8.43.14.62.22,1.22.27,1.79"/>
    <path class="cls-15" d="M173.74,49.59c-4.27,0-8.33-.21-8.37-.22-.25-.01-.45-.23-.43-.48.01-.25.23-.45.48-.43.04,0,4.29.22,8.65.22,8.18-.02,9.19-.86,9.31-1.02.53-.76.56-3.21-.82-4.58-3.07-3.07-9.2-3.48-9.26-3.48-.13,0-.26-.07-.34-.18-.08-.11-.11-.24-.08-.37,0-.03.57-2.71-.11-5.79-.89-4.09-3.42-6.92-7.52-8.43-9.1-3.34-19.86,5.44-19.97,5.53-.19.16-.48.13-.64-.06-.16-.19-.13-.48.06-.64.11-.09,2.83-2.33,6.76-4.17,5.25-2.45,10.12-2.98,14.1-1.51,5.51,2.03,7.45,6.08,8.11,9.13.54,2.49.33,4.68.19,5.64,1.6.17,6.53.89,9.34,3.7,1.69,1.69,1.72,4.62.92,5.76-.27.38-.98,1.39-10.06,1.41-.11,0-.22,0-.32,0"/>
    <path class="cls-12" d="M150.05,41.39h-.09c.03-.08.05-.15.08-.23,0,.08,0,.15,0,.23"/>
    <path class="cls-5" d="M123.89,49.03h0c-5.48-1.49-9.35-4.74-9.86-9.94h0c.51,5.2,4.38,8.45,9.86,9.94"/>
    <path class="cls-13" d="M113.98,38.42h0c0-.07,0-.14,0-.21-.01-.51,0-1.02.03-1.54,0,0,0,0,0,0-.03.51-.04,1.03-.03,1.53,0,.07,0,.14,0,.21"/>
    <path class="cls-15" d="M129.74,49.93c-2.08-.11-4.06-.41-5.86-.9h0c1.8.49,3.77.78,5.86.9M114.02,39.1h0c-.02-.22-.04-.45-.05-.68h0c0,.23.03.46.05.68"/>
    <path class="cls-12" d="M150.04,41.16s0,0,0,0c.27-.75.44-1.56.53-2.41h0s0-.01,0-.02h0s0,0,0-.01c0,0,0,0,0,0,0,0,0,0,0,0,0,0,0,0,0,0,0,0,0,0,0,0,0,0,0,0,0,0,0,0,0,0,0,0,0,0,0,0,0,0,0,0,0,0,0,0,0,0,0,0,0,0,0,0,0,0,0,0,0,0,0-.01,0-.02,0,0,0,0,0,0,0,0,0,0,0-.01h0c.02-.21.03-.42.04-.63h0s0-.03,0-.05t0,0s0-.02,0-.03h0s0-.01,0-.01c0-.01,0-.02,0-.03h0s0,0,0-.01h0s0-.02,0-.03h0s0-.01,0-.01h0s0-.01,0-.02h0v-.02s0,0,0,0h0s0-.02,0-.02h0v-.02h0s0-.01,0-.01h0v-.03h0v-.02h0s0-.01,0-.02h0v-.02h0v-.02h0v-.02s0,0,0-.01h0v-.02h0v-.02h0v-.02s0,0,0-.01h0v-.02h0s0-.01,0-.01h0s0-.01,0-.02h0v-.02h0s0-.01,0-.02h0s0-.02,0-.03h0s0-.01,0-.01h0s0-.02,0-.03c0,0,0,0,0,0h0s0-.01,0-.02c0,0,0,0,0-.01,0-.27-.02-.54-.04-.81h0c.02.27.03.54.04.81.03,1.4-.17,2.68-.58,3.84"/>
    <path class="cls-5" d="M149.96,41.38h0c.03-.07.06-.15.08-.22,0,0,0,0,0,0-.03.07-.05.15-.08.22"/>
    <path class="cls-5" d="M139.72,49.05c4.97-1.26,8.77-3.79,10.24-7.67h0c-1.47,3.87-5.27,6.41-10.24,7.67h0"/>
    <path class="cls-15" d="M134.33,49.89c1.9-.13,3.72-.41,5.4-.84h0c-1.68.43-3.5.7-5.4.84"/>
    <path class="cls-1" d="M114.83,32.11s0,0,0,0c0,0,0,0,0,0M114.83,32.1c1.83-5.84,6.62-11.08,14.97-12-8.35.93-13.14,6.16-14.97,12M129.8,20.1s.01,0,.02,0c0,0,0,0-.02,0M129.82,20.09s.03,0,.05,0c-.02,0-.03,0-.05,0M129.87,20.09s0,0,.01,0c0,0,0,0-.01,0M129.88,20.09s0,0,.01,0c0,0,0,0-.01,0M129.9,20.09s.02,0,.03,0c-.01,0-.02,0-.03,0M129.93,20.08s0,0,.01,0c0,0,0,0-.01,0M129.95,20.08s0,0,.01,0c0,0,0,0-.01,0M129.97,20.08s.02,0,.03,0c-.01,0-.02,0-.03,0M130,20.08s0,0,.01,0c0,0,0,0-.01,0M130.02,20.07s0,0,.01,0c0,0,0,0-.01,0M130.03,20.07s.02,0,.03,0c-.01,0-.02,0-.03,0M130.07,20.07s0,0,.01,0c0,0,0,0-.01,0M130.09,20.07s0,0,.01,0c0,0,0,0-.01,0M130.1,20.06s.01,0,.02,0c0,0-.01,0-.02,0M130.12,20.06s.01,0,.02,0c0,0-.01,0-.02,0M130.14,20.06s0,0,.01,0c0,0,0,0-.01,0M130.15,20.06s0,0,.01,0c0,0,0,0-.01,0M130.17,20.06s.02,0,.03,0c-.01,0-.02,0-.03,0M130.21,20.06s0,0,.01,0c0,0,0,0-.01,0M130.22,20.05s0,0,.01,0c0,0,0,0-.01,0M130.24,20.05s.02,0,.03,0c0,0-.02,0-.03,0M130.27,20.05s0,0,.01,0c0,0,0,0-.01,0M130.29,20.05s0,0,.01,0c0,0,0,0-.01,0M130.31,20.05s.01,0,.02,0c0,0-.01,0-.02,0"/>
    <path class="cls-17" d="M150.57,38.75h0s0,0,0,0M150.57,38.73h0s0,0,0,0M150.57,38.72s0,0,0,0c0,0,0,0,0,0M150.57,38.71s0,0,0,0c0,0,0,0,0,0M150.58,38.69s0,0,0,0c0,0,0,0,0,0M150.58,38.67s0,0,0,0c0,0,0,0,0,0M150.58,38.66s0,0,0,0c0,0,0,0,0,0M150.58,38.65s0-.01,0-.02c0,0,0,.01,0,.02M150.58,38.63s0,0,0-.01c0,0,0,0,0,.01M150.58,38.62c.02-.21.03-.42.04-.63,0,.21-.02.42-.04.63M150.62,37.99s0-.03,0-.05c0,.02,0,.03,0,.05M150.62,37.94s0-.02,0-.03c0,.01,0,.02,0,.03M150.62,37.91h0s0,0,0,0M150.62,37.89s0-.02,0-.03c0,.01,0,.02,0,.03M150.62,37.86s0,0,0,0c0,0,0,0,0,0M150.62,37.84s0-.02,0-.03c0,0,0,.02,0,.03M150.62,37.81s0,0,0,0c0,0,0,0,0,0M150.62,37.79s0,0,0,0c0,0,0,0,0,0M150.62,37.77h0s0,0,0,0M150.62,37.76h0s0,0,0,0M150.62,37.75s0,0,0,0c0,0,0,0,0,0M150.62,37.73h0s0,0,0,0M150.62,37.71s0,0,0,0c0,0,0,0,0,0M150.62,37.7h0s0,0,0,0M150.62,37.68h0s0,0,0,0M150.62,37.66h0s0,0,0,0M150.62,37.64h0s0,0,0,0M150.62,37.63h0s0,0,0,0M150.62,37.61h0s0,0,0,0M150.62,37.6h0s0,0,0,0M150.62,37.58h0s0,0,0,0M150.62,37.56h0s0,0,0,0M150.62,37.55h0s0,0,0,0M150.62,37.53h0s0,0,0,0M150.62,37.52h0s0,0,0,0M150.62,37.5h0s0,0,0,0M150.62,37.48h0s0,0,0,0M150.62,37.47h0s0,0,0,0M150.62,37.45h0s0,0,0,0M150.62,37.43h0s0,0,0,0M150.62,37.4h0s0,0,0,0M150.62,37.39h0s0,0,0,0M150.62,37.35s0,0,0,0c0,0,0,0,0,0M150.62,37.34s0,0,0,0c0,0,0,0,0,0"/>
    <path class="cls-17" d="M150.04,41.16c.16-.79.23-1.62.21-2.5,0-.08,0-.16,0-.24.17-.61.28-1.24.34-1.91.02.27.03.54.04.81,0,0,0,0,0,.01,0,0,0,0,0,0h0s0,.01,0,.02c0,.01,0,.02,0,.03h0s0,.01,0,.02h0s0,.02,0,.03h0s0,.01,0,.02h0v.02h0s0,.01,0,.01h0s0,.01,0,.02h0v.02h0s0,.01,0,.01h0v.02h0v.02h0v.02s0,0,0,.01h0v.02h0v.02h0v.02h0s0,.01,0,.01h0v.02h0v.02h0s0,.01,0,.02h0v.03s0,0,0,0h0s0,.02,0,.02h0v.02s0,0,0,0h0s0,.01,0,.01h0s0,.02,0,.03h0s0,.01,0,.01h0s0,.02,0,.03c0,0,0,0,0,0h0s0,.03,0,.04c0,0,0,0,0,0,0,.02,0,.03,0,.05h0c0,.21-.02.42-.04.63h0s0,0,0,.01c0,0,0,0,0,0,0,0,0,.01,0,.02,0,0,0,0,0,0,0,0,0,0,0,0,0,0,0,0,0,0,0,0,0,0,0,0,0,0,0,0,0,0,0,0,0,0,0,0,0,0,0,0,0,0,0,0,0,0,0,0,0,0,0,0,0,0,0,0,0,0,0,0,0,0,0,0,0,.01h0s0,0,0,.01h0c-.08.85-.26,1.66-.53,2.41"/>
    <path class="cls-5" d="M172.43,48.67s0,0,0,0c0-.02,0-.05,0-.07,0,.03,0,.05,0,.07"/>
    <path class="cls-15" d="M172.06,49.16h0c-.44,0-1.47,0-2.65,0-.58,0-1.19,0-1.79,0,0,0,0,0,0,0,.6,0,1.21,0,1.79,0,1.17,0,2.2,0,2.65,0h0c.27,0,.38-.19.37-.49,0,0,0,0,0,0,.01.3-.1.49-.37.49"/>
    <path class="cls-12" d="M164.77,46.71c.06-.16.12-.32.19-.48-.07.16-.13.32-.19.48h0"/>
    <path class="cls-5" d="M164.21,48.7c.09-.46.27-1.21.56-1.98h0c-.29.77-.47,1.52-.56,1.98h0"/>
    <path class="cls-15" d="M164.13,49.16s.02-.18.08-.46h0c-.06.29-.08.46-.08.46,0,0,1.66,0,3.49,0,0,0,0,0,0,0-1.82,0-3.49,0-3.49,0"/>
    <path class="cls-15" d="M150.41,17.42c-.11,0-.22-.06-.28-.16-.07-.11-.06-.25.02-.36l1.04-1.42-1,.15c-.18.03-.34-.1-.36-.27-.03-.18.1-.34.27-.36l1.76-.26c.13-.02.25.04.32.15.07.11.06.25-.02.36l-1.04,1.42,1-.15c.18-.03.34.1.36.27.03.18-.1.34-.27.36l-1.76.26s-.03,0-.05,0h0Z"/>
    <path class="cls-15" d="M145.09,14.87c-.11,0-.22-.06-.28-.16-.07-.11-.06-.25.02-.36l2.05-2.78-2.18.32c-.18.03-.34-.1-.36-.27-.03-.18.1-.34.27-.36l2.94-.43c.13-.02.25.04.32.15.07.11.06.25-.02.36l-2.05,2.78,2.18-.32c.18-.03.34.1.36.27.03.18-.1.34-.27.36l-2.94.43s-.03,0-.05,0h0Z"/>
    <path class="cls-15" d="M149.56,10.27c-.12,0-.23-.06-.29-.17-.07-.12-.06-.27.02-.38l3.03-4.12-3.32.49c-.19.03-.36-.1-.39-.29-.03-.19.1-.36.29-.39l4.13-.6c.14-.02.27.04.34.16.07.12.06.27-.02.38l-3.03,4.12,3.32-.49c.19-.03.36.1.39.29.03.19-.1.36-.29.39l-4.13.6s-.03,0-.05,0h0Z"/>
    <g>
      <path class="cls-18" d="M167.75,43.21c-6.56-3.61-16.35-1.72-16.35-1.72l-.49-.04-.86-.07-33.42-2.52c-1.04-.02-2.03-.07-2.98-.13-3.29-.21-6.03-.57-8.41-.64-.05.18-.1.36-.15.54l-2.16-.13c-1.26-.07-2.44-.27-3.61-.67-.92-.31-1.68-.88-2.16-1.65-.17.19-.37.36-.59.5-.46.29-.97.36-1.49.41-.53.05-1.08-.07-1.55-.32-.08-.05-.16-.1-.24-.15,0,.36.03.72.12,1.09,1.54.79,3.1,2.49,1.93,3.79.51.31.84.73.93,1.17.1.56-.13,1.07-.56,1.45-.4.36-.86.7-1.35.84,1.94,1.24,4.64,1.65,7.01,1.79.16,0,.33.01.49.02-.22.44-.44.88-.66,1.33-.15.3-.32.56-.5.8.11.02.22.05.34.07,1.27.23,8.44.39,17.6.47,8.23.07,18.07.08,26.69.03,10.78-.07,19.64-.23,21.06-.49,3.74-.69,5.78-3.33,1.35-5.77Z"/>
      <path class="cls-15" d="M90.95,44.48c-.68-.1-1.09-.55-1.33-1.08-.27-.62-.25-1.33.31-1.77-.05-.39-.58-.64-.59-1.27,0-.21.01-.43,0-.65,0-.05,0-.1.02-.17.02-.09.05-.12.11-.24.04-.09.05-.13.08-.19.07-.14.15-.26.25-.37.19-.22.44-.38.71-.47.22-.08.45-.11.68-.11,1.69.03,3.55,1.51,3.49,2.33-.04.51-1.24.8-2.09.92l-1.83.28.32.12,2.33.2c.88.08,1.88.4,1.84,1.03-.07.85-2.54,1.69-4.29,1.44Z"/>
      <path class="cls-15" d="M116.29,38.31c-1.18-.06-2.87-.15-4.91-.27-1.91-.12-1.68-.1-2.39-.15-2.8-.22-7.38-.3-9.24-.93-.91-.31-1.37-.82-1.48-.96-.23-.27-.41-.58-.53-.92-.05.28-.16.57-.28.76-.09.14-.19.26-.29.38.49.77,1.24,1.33,2.16,1.65,1.17.39,2.35.6,3.61.67,1.95.14,3.95.26,5.99.35,2.53.12,5.01.19,7.42.23-.01-.26-.03-.53-.04-.79Z"/>
      <g>
        <path class="cls-12" d="M115.07,42.75c-.72-1.33-.97-2.65-1.05-3.66-.13,0-.27,0-.4,0-.03.51-.04,1.01-.02,1.51.06,2.56.88,4.69,2.28,6.42-1.81-.01-4.19-.02-6.04-.04-2.77-.04-4.9-.05-7.41-.15-.35-.02-.71-.03-1.06-.05-2.37-.14-5.07-.55-7.01-1.79l-1.8.5c1.24,1.98,4.93,2.98,7.09,3.11l4.83.3c.84.01,2.08.03,3.59.04,4.67.04,5.3-.02,7.22.03,5.62.13,8.47.6,8.59.07.18-.78-6.23-1.52-8.82-6.28Z"/>
        <path class="cls-12" d="M148.1,47.05c1.28-1.65,1.98-3.64,1.95-5.66h-.09c-1.47,3.87-5.27,6.4-10.24,7.66,2.12,0,4.25-.02,6.37-.03,2.57-.02,5.13-.04,7.7-.07,2.57-.03,5.13-.08,7.69-.15.91-.03,1.82-.06,2.72-.1.09-.46.27-1.21.56-1.98-2.95.16-9.19.27-16.67.33Z"/>
      </g>
    </g>
    <path class="cls-15" d="M170.62,45.48c-.11-.38-.31-.71-.53-1-.45-.57-1.01-.99-1.57-1.35-.28-.18-.58-.34-.87-.49-.29-.16-.6-.29-.9-.43-.61-.26-1.23-.49-1.86-.68-.31-.1-.63-.18-.95-.26-.32-.07-.64-.15-.96-.21-1.28-.26-2.58-.42-3.88-.51-.65-.03-1.3-.06-1.95-.04-.33,0-.65.02-.98.04-.32.01-.65.04-.97.07-.32.03-.65.06-.97.11-.32.04-.64.09-.96.15-.64.12-1.27.26-1.9.46-.06.02-.11.08-.11.15,0,.08.07.15.16.15h0c2.56-.1,5.09-.23,7.62-.11.63.03,1.26.08,1.89.14.63.08,1.25.16,1.87.29.16.03.31.06.46.1l.46.11c.3.08.61.16.91.25.6.18,1.18.4,1.76.64.28.13.57.25.84.4.28.14.55.29.8.45.51.33,1,.7,1.34,1.14.17.22.3.45.37.69.07.24.08.47.01.7-.13.46-.53.88-1.01,1.19-.24.16-.51.29-.78.41-.27.12-.56.22-.85.3-.29.08-.59.15-.89.2-.15.02-.29.04-.44.05l-.47.03c-1.26.08-2.55.12-3.83.16-2.56.07-5.13.11-7.69.15-4.07.05-6.1.07-7.7.07-6.79.03-10.29-.12-13.83-.16-6.66-.06-28.47.14-33.77-.47-.9-.1-2.33-.35-3.83-1.22-.98-.57-1.68-1.23-2.11-1.69l1.8-.5c.49-.14.94-.48,1.34-.84.42-.38.66-.89.56-1.45-.08-.45-.41-.86-.92-1.17,1.17-1.31-.39-3.01-1.93-3.8-.09-.36-.11-.73-.12-1.09-.24-.18-.43-.39-.61-.63l-.02-.02c-.19-.18-.32-.39-.42-.61l.04,1.87c-1.03-.26-2.14-.14-2.98.58-1.07.92-1.31,2.48-.61,3.71-.4.97-.32,1.94.28,2.81.49.71,1.37,1.2,2.4,1.18.26.43.69,1.04,1.35,1.64.27.24.84.71,1.81,1.19,1.78.86,3.4,1,5.21,1.13,0,0,0,0,0,0,0,0,0,0,0,0,0,0,.5.03,1.02.05,3.41.17,6.87.26,6.87.26,1.47.04,3.55.06,7.66.1,3.17.03,5.51.05,8.77.07,1.97.01,4.15.02,6.63.02,5.14,0,10.27,0,15.41-.04,2.57-.02,5.14-.04,7.7-.07,2.57-.03,5.14-.08,7.71-.15,1.29-.04,2.57-.08,3.87-.16l.49-.04c.17-.02.34-.04.51-.06.34-.05.66-.13.99-.22.33-.09.65-.2.96-.34.31-.14.62-.29.92-.49.29-.19.58-.42.82-.7.25-.28.46-.62.57-1.01.11-.39.1-.82-.02-1.2Z"/>
    <path class="cls-18" d="M150.62,37.32c.2,8.29-7.91,12.41-18.03,12.65-10.12.24-18.42-3.48-18.62-11.77-.19-7.94,4.75-17.14,16.35-18.16,1.39-.75,3.26-2.04,4.29-3.9.32-.58,1.17-.52,1.4.11.3.83.58,1.93.05,3.37,1.54-.79,3.06-1.69,3.56-2.16.53-.5,1.41-.12,1.4.61,0,.71-.23,2.21-.49,3.48,6.74,2.99,9.94,9.67,10.09,15.77"/>
    <path class="cls-12" d="M131.66,49.98c-.65,0-1.29-.02-1.92-.05-2.08-.11-4.06-.41-5.86-.9-5.48-1.49-9.35-4.74-9.86-9.94-.02-.22-.04-.45-.05-.68,0-.07,0-.14,0-.21-.01-.51,0-1.02.03-1.53.54,7.64,8.2,11.21,17.67,11.21.31,0,.61,0,.93-.01,8.72-.21,15.95-3.3,17.65-9.45,0,.08,0,.16,0,.24.02.88-.05,1.71-.21,2.5.27-.75.44-1.56.53-2.41-.08.85-.26,1.66-.53,2.41-.03.07-.05.15-.08.22-1.47,3.87-5.27,6.41-10.24,7.67-1.68.43-3.5.7-5.4.84-.57.04-1.15.07-1.74.08-.31,0-.62.01-.93.01M150.57,38.75s0,0,0-.01c0,0,0,0,0,.01M150.57,38.73s0,0,0-.01c0,0,0,0,0,.01M150.57,38.71s0,0,0,0c0,0,0,0,0,0M150.57,38.7s0,0,0,0c0,0,0,0,0,0M150.58,38.68s0,0,0,0c0,0,0,0,0,0M150.58,38.67s0,0,0,0c0,0,0,0,0,0M150.58,38.65s0,0,0,0c0,0,0,0,0,0M150.58,38.63s0,0,0,0c0,0,0,0,0,0M150.58,38.62h0s0,0,0,0M150.62,37.99h0s0,0,0,0M150.62,37.94s0,0,0,0t0,0M150.62,37.91h0s0,0,0,0M150.62,37.9s0,0,0,0c0,0,0,0,0,0M150.62,37.86h0s0,0,0,0M150.62,37.85h0s0,0,0,0M150.62,37.81h0s0,0,0,0M150.62,37.8h0s0,0,0,0M150.62,37.78h0s0,0,0,0M150.62,37.77s0,0,0,0c0,0,0,0,0,0M150.62,37.75h0s0,0,0,0M150.62,37.74h0s0,0,0,0M150.62,37.72h0s0,0,0,0M150.62,37.71h0s0,0,0,0M150.62,37.69h0s0,0,0,0M150.62,37.67h0s0,0,0,0M150.62,37.66s0,0,0-.01c0,0,0,0,0,.01M150.62,37.64h0s0,0,0,0M150.62,37.63h0s0,0,0,0M150.62,37.61h0s0,0,0,0M150.62,37.59s0,0,0-.01c0,0,0,0,0,.01M150.62,37.58h0s0,0,0,0M150.62,37.56h0s0,0,0,0M150.62,37.55h0s0,0,0,0M150.62,37.53s0,0,0-.01c0,0,0,0,0,.01M150.62,37.51v-.02.02M150.62,37.5s0,0,0-.01c0,0,0,0,0,.01M150.62,37.48s0,0,0-.01c0,0,0,0,0,.01M150.62,37.47v-.02.02M150.62,37.45s0,0,0-.01c0,0,0,0,0,.01M150.62,37.43s0-.02,0-.03c0,.01,0,.02,0,.03M150.62,37.4s0,0,0-.01c0,0,0,0,0,.01M150.62,37.38s0-.02,0-.03c0,.01,0,.02,0,.03M150.62,37.35h0s0,0,0,0M150.62,37.33s0,0,0-.01c0-.27-.02-.54-.04-.81h0c.02.27.03.54.04.81,0,0,0,0,0,.01"/>
    <path class="cls-10" d="M150.24,38.41c-.22-5.67-3.5-12.11-9.41-15.32-.68-.37-1.05-1.13-.9-1.89.17-.86.31-1.66.31-2.13,0-.41-.14-.6-.36-.6-.17,0-.39.12-.63.34-.39.37-1.41.99-2.57,1.63-.08.04-.16.06-.24.06-.28,0-.54-.24-.5-.56.13-.95-.09-1.72-.31-2.35-.11-.32-.27-.51-.45-.51s-.39.18-.63.62c-.68,1.25-1.89,2.14-3.03,2.81-.91.54-1.93.88-2.98,1.04-7.8,1.18-12.32,6.24-14.09,11.86.1-.44.22-.88.36-1.31,0,0,0,0,0,0,0,0,0,0,0,0,1.83-5.84,6.62-11.07,14.97-12h0s0,0,.02,0c0,0,0,0,0,0,.02,0,.03,0,.05,0,0,0,0,0,0,0,0,0,0,0,.01,0,0,0,0,0,0,0,0,0,0,0,.01,0,0,0,0,0,0,0,.01,0,.02,0,.03,0,0,0,0,0,0,0,0,0,0,0,.01,0,0,0,0,0,0,0,0,0,0,0,.01,0,0,0,0,0,0,0,.01,0,.02,0,.03,0,0,0,0,0,0,0,0,0,0,0,.01,0,0,0,0,0,0,0,0,0,0,0,.01,0t0,0s.02,0,.03,0c0,0,0,0,0,0,0,0,0,0,.01,0,0,0,0,0,0,0,0,0,0,0,.01,0,0,0,0,0,0,0,0,0,.01,0,.02,0h0s.01,0,.02,0c0,0,0,0,0,0,0,0,0,0,.01,0,0,0,0,0,0,0,0,0,0,0,.01,0,0,0,0,0,0,0,.01,0,.02,0,.03,0,0,0,0,0,0,0,0,0,0,0,.01,0,0,0,0,0,0,0,0,0,0,0,.01,0,0,0,0,0,0,0,0,0,.02,0,.03,0,0,0,0,0,0,0,0,0,0,0,.01,0,0,0,0,0,0,0,0,0,0,0,.01,0,0,0,0,0,0,0,0,0,.01,0,.02,0h0c1.39-.75,3.26-2.04,4.29-3.9.15-.27.41-.4.68-.4.3,0,.6.17.72.51.18.5.35,1.08.35,1.78,0,.48-.08,1.01-.3,1.59h0c1.54-.79,3.06-1.69,3.56-2.16.17-.16.37-.23.57-.23.43,0,.83.33.83.83h0c0,.72-.23,2.22-.49,3.49h0c6.44,2.86,9.65,9.09,10.05,14.96-.06.67-.17,1.3-.34,1.91"/>
    <path class="cls-16" d="M146.97,36.28c.06,2.41-.61,5.03-2.76,7.09-2.19,2.11-5.92,3.64-12,3.78h0c-6.01.15-9.8-1.17-12.09-3.14-2.3-1.96-3.11-4.57-3.17-7.02-.01-.5.02-.98.08-1.46.59-4.21,4.16-7.49,8.54-7.59,2.4-.06,4.6.84,6.23,2.36,1.56-1.59,3.71-2.6,6.11-2.66,4.33-.1,8.01,2.92,8.87,7.02h0c.11.52.17,1.06.19,1.61"/>
    <path class="cls-15" d="M134.22,37.14c.02.75-.96,1.68-2.2,1.71-1.24.03-2.26-.85-2.28-1.6-.02-.75.98-1.09,2.21-1.12,1.24-.03,2.25.26,2.26,1.01"/>
    <path class="cls-8" d="M132,37.16c-.48,0-.87-.2-.88-.37,0-.18.4-.26.91-.27.04,0,.08,0,.12,0,.45,0,.8.07.8.23,0,.18-.4.4-.9.41-.01,0-.03,0-.04,0"/>
    <path class="cls-19" d="M128.89,36.85c-.31,2.63-2.4,3.29-5.13,4.46-1.71.74-2.87,1.79-3.63,2.71-2.3-1.96-3.11-4.57-3.17-7.02-.01-.5.02-.98.08-1.46,1.58-1.72,4.1-3.4,7.8-3.05,2.71.26,4.27,2.46,4.04,4.35h0Z"/>
    <path class="cls-19" d="M146.97,36.28c.06,2.41-.61,5.03-2.76,7.09-.8-.87-2-1.84-3.7-2.47-2.78-1.04-4.9-1.6-5.34-4.21-.31-1.87,1.14-4.14,3.83-4.54,3.56-.52,6.11.93,7.78,2.52h0c.11.52.17,1.06.19,1.61h0Z"/>
    <path class="cls-15" d="M142.6,36.14c-.09.12-.16.21-.24.3-.08.09-.17.17-.26.25-.09.08-.19.15-.28.22-.1.07-.2.13-.3.2-.42.24-.89.41-1.38.49-.24.05-.5.05-.75.05-.25-.02-.5-.04-.74-.11-.49-.11-.93-.35-1.3-.66-.21-.18-.24-.49-.07-.7.1-.12.25-.18.39-.18h.09c.1,0,.2.01.29.02.09,0,.18.03.28.03.09,0,.18.01.27.02.09.01.18,0,.26,0,.17.01.34,0,.51,0,.17-.02.34-.02.51-.06.34-.05.68-.13,1.02-.24l.26-.08c.08-.03.18-.06.26-.09.09-.03.18-.07.27-.1.09-.03.18-.07.25-.09l.15-.04c.26-.06.52.1.59.36.03.14,0,.29-.08.4h0Z"/>
    <path class="cls-15" d="M121.87,35.91c.07.01.17.05.26.08.09.03.18.06.27.09.09.03.18.05.27.08l.26.07c.35.09.69.15,1.03.19.17.02.34.02.51.03.17,0,.34,0,.51-.02.09-.01.18,0,.26-.02.09-.01.18-.02.27-.03.09,0,.18-.03.28-.04.09-.01.19-.03.29-.04h.09c.27-.03.51.18.53.46.01.16-.05.3-.16.4-.35.32-.78.59-1.27.72-.24.08-.49.11-.74.15-.25,0-.5.02-.75-.02-.5-.06-.98-.2-1.41-.43-.11-.06-.21-.12-.31-.18-.1-.07-.2-.13-.29-.21-.09-.08-.19-.15-.27-.24-.09-.09-.16-.17-.26-.29-.17-.21-.13-.52.07-.68.11-.09.26-.12.39-.1l.15.03h0Z"/>
    <path class="cls-15" d="M134.61,40.66c-.18.18-.36.3-.55.42-.19.12-.4.22-.61.31-.43.17-.89.28-1.38.28-.49,0-.96-.1-1.39-.28-.21-.09-.42-.19-.61-.31-.19-.13-.37-.25-.55-.43-.14-.14-.14-.36,0-.5.1-.1.24-.13.36-.09h.04c.17.07.36.14.54.19.18.06.37.1.55.15.36.09.72.13,1.05.13.35,0,.7-.05,1.07-.14.18-.04.37-.09.55-.14.18-.05.37-.12.54-.17h.05c.19-.07.39.04.44.23.04.13,0,.27-.09.36h0Z"/>
    <path class="cls-15" d="M135.29,16.2c-.07,0-.2.02-.28.17-1.08,1.96-3.03,3.3-4.47,4.09-.06.03-.12.05-.18.05-11.22.99-16.12,9.86-15.93,17.69.21,8.66,9.51,11.53,18.15,11.32,8.64-.21,17.79-3.52,17.58-12.18-.13-5.38-2.78-12.24-9.82-15.36-.2-.09-.31-.3-.26-.51.27-1.28.47-2.73.48-3.39,0-.22-.15-.31-.22-.34-.05-.02-.24-.09-.41.07-.59.56-2.28,1.52-3.66,2.23-.17.09-.37.06-.51-.06-.14-.13-.19-.32-.13-.5.46-1.26.25-2.22-.06-3.06-.06-.17-.21-.2-.27-.21,0,0-.02,0-.03,0h0ZM131.63,50.44c-11.02,0-17.93-4.63-18.11-12.22-.2-8.22,4.94-17.54,16.67-18.62,1.33-.73,3.07-1.95,4.02-3.68.24-.43.69-.67,1.18-.64.49.04.89.35,1.06.81.26.73.48,1.59.33,2.64,1.23-.67,2.2-1.28,2.54-1.6.38-.36.92-.45,1.4-.24.48.21.77.67.77,1.19,0,.66-.18,1.96-.43,3.21,3.08,1.44,5.63,3.77,7.39,6.75,1.64,2.78,2.56,5.99,2.64,9.27.19,7.81-6.89,12.84-18.48,13.12-.33,0-.65.01-.98.01h0Z"/>
    <path class="cls-3" d="M164.13,49.16s6.59-.02,7.92,0c1.33.02-1.05-4.44-3.45-5.23-3.57-1.17-4.47,5.23-4.47,5.23"/>
    <g>
      <path class="cls-3" d="M94.67,40.48c-1.74.42-3.6.36-5.32-.13,0-.08,0-.2,0-.35,0-.19.01-.39.07-.6.02-.07.11-.36.35-.64.08-.09.32-.36.73-.5.22-.08.45-.11.68-.11,1.69.03,3.55,1.51,3.49,2.33Z"/>
      <path class="cls-3" d="M90.75,41.68c.16.04.43.1.77.15,1.48.24,2.06.05,2.87.44.29.14.87.43.85.75-.04.6-2.12,1.17-3.98.87-.7-.11-1.26-.33-1.64-.51-.27-.62-.25-1.33.31-1.77l.82.06Z"/>
      <path class="cls-2" d="M95.24,43.04c-.07.85-2.54,1.69-4.29,1.44-.68-.1-1.09-.55-1.33-1.08,1.89.56,3.89.47,5.61-.36Z"/>
      <path class="cls-2" d="M94.67,40.48c-.04.51-1.24.8-2.09.92l-1.83.28-.82-.06c-.05-.39-.58-.64-.59-1.27,1.73.49,3.58.55,5.32.13Z"/>
    </g>
    <path class="cls-3" d="M96.7,35.23c0,.05,0,.11-.03.17-.01.05-.04.11-.07.16-.06.1-.14.2-.25.3-.16.14-.38.28-.63.37-.24.09-.52.14-.79.14-.24,0-.48-.04-.7-.12-.22-.08-.43-.21-.62-.4-.06-.06-.11-.12-.16-.19-.06-.1-.12-.21-.16-.36-.04-.15-.07-.35-.07-.62,0-.32.04-.73.13-1.25.13-.73.35-1.42.61-2.04.2-.47.42-.89.65-1.27.18-.28.36-.54.54-.76.13-.17.27-.31.4-.44.19-.19.38-.32.53-.41.07-.04.14-.07.19-.08.05-.01.09-.02.12-.02.02,0,.03,0,.03,0,0,0,0,0,.01,0,.02.02.03.04.05.06.02.03.04.08.05.15.01.07.02.16.02.26,0,.12-.01.27-.03.44-.02.25-.07.54-.12.86-.04.32-.08.68-.1,1.06,0,.26-.01.51-.01.74,0,.53.02.97.06,1.35.03.28.06.52.1.73.06.32.12.56.16.75.02.09.04.17.05.23,0,.06.01.11.01.16Z"/>
    <path class="cls-2" d="M96.34,32.94c.01.16.07,1.47-.96,2.37-.79.68-1.7.69-1.93.68.2.17.56.43,1.06.52.97.18,2.13-.3,2.36-1.04.07-.22-.04-.68-.27-1.59-.1-.39-.19-.71-.25-.94Z"/>
    <path class="cls-9" d="M172.06,49.16h0c-.44,0-1.47,0-2.65,0-.58,0-1.19,0-1.79,0-1.82,0-3.49,0-3.49,0,0,0,.02-.18.08-.46.09-.46.27-1.21.56-1.98.06-.16.12-.32.19-.48,0,0,0,0,0,0h0c.44-1,1.09-1.95,2.01-2.3-.15.24-.28.5-.4.76-.65,1.44.32,3.1,1.9,3.24,1.23.11,2.68.25,3.91.4.02.09.04.18.04.26,0,.03,0,.05,0,.07,0,.3-.1.49-.37.49"/>
    <path class="cls-15" d="M170.48,49.51c-.13,0-.25-.07-.31-.18-1.88-3.38-4.68-3.72-4.71-3.73-.2-.02-.34-.2-.32-.4.02-.2.2-.34.4-.32.13.01,3.19.39,5.25,4.09.1.17.03.39-.14.49-.06.03-.12.05-.17.05h0Z"/>
    <path class="cls-15" d="M169.41,48.69c1.11,0,2.09,0,2.57,0,0-.15-.06-.5-.34-1.07-.63-1.29-1.96-2.87-3.18-3.27-.61-.2-1.15-.15-1.64.15-1.31.81-1.92,3.13-2.13,4.18.96,0,3,0,4.73,0h0ZM172.06,49.62s-.01,0-.02,0c-1.31-.02-7.84,0-7.91,0-.13,0-.26-.06-.35-.16-.09-.1-.13-.23-.11-.36.02-.17.59-4.07,2.65-5.35.72-.45,1.54-.54,2.41-.25,2.2.72,4.35,4.11,4.14,5.42-.07.43-.38.7-.82.7h0Z"/>
    <path class="cls-15" d="M97.74,34.94c-.02-.16-.06-.31-.1-.48-.06-.25-.13-.53-.18-.92-.05-.39-.09-.88-.09-1.53,0-.21,0-.44.01-.7.02-.43.08-.85.13-1.25.03-.2.06-.39.08-.58.02-.19.04-.37.04-.56,0-.1,0-.21-.02-.32-.02-.16-.06-.33-.13-.49-.07-.16-.18-.31-.32-.44-.1-.1-.23-.18-.36-.23-.13-.05-.28-.07-.41-.07-.12,0-.23.02-.34.04-.2.05-.4.14-.59.25-.16.1-.33.22-.49.37-.28.24-.56.55-.83.91-.4.53-.78,1.18-1.11,1.91-.32.73-.58,1.55-.74,2.42-.1.56-.15,1.03-.15,1.44,0,.22.01.43.04.61.02.14.05.28.09.4.06.19.14.36.24.51.09.15.21.28.32.4.3.29.64.5.99.64.35.14.72.2,1.08.19.35,0,.7-.05,1.02-.16.24-.08.47-.18.68-.31.16-.09.31-.2.44-.32.2-.18.37-.39.5-.63.06-.12.11-.25.14-.38.03-.13.05-.27.05-.41,0-.1,0-.2-.02-.29ZM93.2,34.68c0-.32.04-.73.13-1.25.13-.73.35-1.42.61-2.04.2-.47.42-.89.65-1.27.26-.41.48-.68.54-.76.28-.33.97-1.16,1.26-1.02.18.09.16.51.13,1-.02.29-.04.31-.12.86-.04.32-.08.68-.1,1.06-.01.26-.01.51-.01.74,0,.53.02.97.06,1.35.03.28.06.52.1.73.09.44.33.97.16,1.41-.58,1.09-2.42,1.18-3.14.24-.23-.3-.28-.68-.28-1.05Z"/>
  </g>
</svg>