<?xml version="1.0" encoding="UTF-8"?>
<svg id="Vrstva_1" data-name="Vrstva 1" xmlns="http://www.w3.org/2000/svg" viewBox="0 0 283.51 144.16">
  <defs>
    <style>
      .cls-1 {
        fill: #fefbfc;
      }

      .cls-2 {
        fill: #90c9ef;
      }

      .cls-3 {
        fill: #ca9f9a;
      }

      .cls-4 {
        fill: #f4dabb;
      }

      .cls-5 {
        fill: #ecc18e;
      }

      .cls-6 {
        fill: #f2d5b0;
      }

      .cls-7 {
        fill: #fff;
      }

      .cls-8 {
        fill: #68a930;
      }

      .cls-9 {
        fill: #b589a6;
      }

      .cls-10 {
        fill: #c68e7b;
      }

      .cls-11 {
        fill: #aa6a6d;
      }

      .cls-12 {
        fill: #b27626;
      }

      .cls-13 {
        fill: #e59147;
      }

      .cls-14 {
        fill: #b75c27;
      }

      .cls-15 {
        fill: #955880;
      }

      .cls-16 {
        fill: #381b15;
      }

      .cls-17 {
        fill: #edc18e;
      }

      .cls-18 {
        fill: #c58863;
      }

      .cls-19 {
        fill: #bad27a;
      }

      .cls-20 {
        fill: #d1b9ca;
      }

      .cls-21 {
        fill: #ffe966;
      }

      .cls-22 {
        fill: #64140e;
      }

      .cls-23 {
        fill: #b388a5;
      }

      .cls-24 {
        fill: #967660;
      }

      .cls-25 {
        fill: #a67495;
      }
    </style>
  </defs>
  <g>
    <path class="cls-17" d="M166.89,65.36c3.84,3.49,8.41,6,7.19,9.87-1.22,3.87-4.75,3.91-10.83.38-3.8-2.2-13.96-11.32-16.5-13.58,2.82-2.51,5.72-5.1,9.17-7.08,1.42,1.41,9.25,8.83,10.98,10.4Z"/>
    <path class="cls-18" d="M165.7,74.29c.26.12.51.23.76.34,4.08,1.68,6.4.59,7.33-.09-.03.18-.07.37-.13.55-.4,1.28-1.05,2.07-1.98,2.43-1.15.44-2.79.23-4.91-.64-1-.41-2.1-.96-3.3-1.66-3.73-2.16-13.85-11.25-16.38-13.49.39-.34.78-.69,1.17-1.03,3.36,2.89,13.79,11.87,17.44,13.59Z"/>
    <path class="cls-4" d="M160.53,59.98c.79.72,7.68,7.1,8.47,7.76,2.5,2.06,4.71,3.88,4.82,6.07-.41-.54-2.36-3.08-3.92-4.53-1.37-1.27-11.69-10.39-15.07-13.67.23-.14.46-.28.69-.42,1.44,1.44,3.25,3.19,5,4.78Z"/>
    <path class="cls-22" d="M155.53,55.2q.25-.15,0,0c1.44,1.43,3.25,3.19,5,4.78.79.72,7.68,7.1,8.47,7.76,2.97,2.45,5.53,4.56,4.65,7.36-.4,1.28-1.05,2.07-1.98,2.43-1.69.65-4.45-.12-8.2-2.3-3.73-2.16-13.85-11.25-16.38-13.49-.22.2-.45.39-.67.59,2.56,2.27,12.77,11.44,16.61,13.67,4.06,2.35,6.99,3.12,8.97,2.36,1.18-.46,2.03-1.46,2.51-2.99,1.06-3.36-1.85-5.77-4.93-8.31-.79-.65-1.6-1.32-2.38-2.03l-10.88-10.39-.78.55Z"/>
    <path class="cls-22" d="M147.09,61.74c-.22.2-.45.39-.67.59"/>
  </g>
  <g>
    <g>
      <path class="cls-16" d="M37.19,66.69l-.15-3.63c-.05-1.29.68-2.32,1.9-2.84,5.16-2.2,11.72-.24,11.66,2.06l-.11,4.47c.56.23,1.04.55,1.35,1.07,1.03-.11,1.92.29,2.47,1.16h3.2v6.15l-3.52-.02c-1.34,2.04-2.85.7-3.92,1.79l-.25,5.78c-.59.88-1.43,1.3-2.4,1.68-2.95,1.21-9.4.14-9.51-1.73l-.37-6.08c-1.91-.94-2.45-3.17-1.52-5.03-.98-1.73-.71-4.01,1.17-4.86Z"/>
      <path class="cls-8" d="M57.5,71.05v2.7h-3.34v-2.68"/>
      <path class="cls-19" d="M54.16,70.34h3.34v1.04h-3.34v-1.04Z"/>
      <path class="cls-14" d="M45.5,83.36l.3-.17v-3.71c.34-.42,1.03-1.26.35-1.57-2.49.03-4.85,0-7.27-.78l.24,5.17c1.9,1.2,4.2,1.39,6.38,1.06Z"/>
      <path class="cls-13" d="M38.44,63.32c.49,1.2,2.63,1.57,3.85,1.72,1.85.23,4.59.08,6.16-.98.49-.33.7-.52.83-1.14.14-2.38-7.06-2.95-9.95-1.44-.82.41-1.16,1.03-.9,1.84Z"/>
      <path class="cls-14" d="M38.44,63.32l.16,4.47c2.26,1.02,4.72,1.15,7.11.92l.29-.28c.09-.78.19-1.55.3-2.31.78-.07,1.53-.29,2.25-.66.36-.12.53-.33.62-.69l.11-1.85c-1.85,2.54-8.39,2.44-10.84.4Z"/>
      <path class="cls-8" d="M50.97,68.93l-.36-.07c-2.53,1.76-6.34,2.12-9.29,1.5,0-.25-.02-.4-.31-.5-1.44-.28-2.79-.68-3.84-1.69-.5.79-.45,1.58-.14,2.43.18.5.87.93,1.58,1.23,3.43,1.43,7.36,1.37,10.78-.06,1.2-.51,1.8-1.6,1.58-2.84Z"/>
      <path class="cls-8" d="M46.4,73.86c.1.25.15.37.15.37-1.39.47-3.07.39-4.53.21-.74-.09-1.39-.2-1.8-.81-1.11-.32-2.07-.7-3.1-1.25-.59,1.29-.09,2.62,1.17,3.15,3.84,1.61,8.06,1.56,11.86-.19.34-.87.19-1.72.03-2.66-1.27.59-2.44.99-3.79,1.18Z"/>
      <path class="cls-13" d="M45.5,83.36h.03c1.07-.17,2.11-.43,2.98-1.16l.17-4.79c-1.06.28-2.08.48-3.13.51l-.05,5.44Z"/>
      <path class="cls-13" d="M45.72,68.71c1.12-.11,2.27-.34,3.31-.87l.15-3.07c-.93.62-2.33.92-3.45,1.16,0,1.11,0,1.88,0,2.78Z"/>
      <path class="cls-19" d="M41,69.87c.02.23-.03.46.04.62.36.78,7.74.73,9.92-1.56-.06-.36-.21-.63-.62-.72-.25.53-.69.85-1.25,1.04-2.6.9-5.39,1.14-8.1.61Z"/>
      <path class="cls-8" d="M51.86,70.77c-.72,2.1-.14,2.48-.27,4.25.44.08.77-.07,1.01-.3.66-.61-.07-2.14.34-3.67.03-.5-.83-.76-1.08-.28Z"/>
      <path class="cls-19" d="M40.66,73.73c1.89.38,3.79.41,5.74.13.28.04.47.18.46.4-.02.9-6.32.77-6.61-.16-.04-.13-.02-.29-.03-.46l.44.1Z"/>
      <path class="cls-19" d="M51.86,70.77c.4-.03.7.18,1.08.28.1-.39.25-.79.18-1.19-.06-.36-.32-.7-.89-.75-.06.56-.18,1.1-.37,1.67Z"/>
    </g>
    <g>
      <path class="cls-16" d="M246.32,66.69l.15-3.63c.05-1.29-.68-2.32-1.9-2.84-5.16-2.2-11.72-.24-11.66,2.06l.11,4.47c-.56.23-1.04.55-1.35,1.07-1.03-.11-1.92.29-2.47,1.16h-3.7v6.15l4.02-.02c1.34,2.04,2.85.7,3.92,1.79l.25,5.78c.59.88,1.43,1.3,2.4,1.68,2.95,1.21,9.4.14,9.51-1.73l.37-6.08c1.91-.94,2.45-3.17,1.52-5.03.98-1.73.71-4.01-1.17-4.86Z"/>
      <path class="cls-8" d="M225.51,71.05v2.7h3.84v-2.68"/>
      <path class="cls-19" d="M229.35,70.34h-3.84v1.04h3.84v-1.04Z"/>
      <path class="cls-14" d="M238.01,83.36l-.3-.17v-3.71c-.34-.42-1.03-1.26-.35-1.57,2.49.03,4.85,0,7.27-.78l-.24,5.17c-1.9,1.2-4.2,1.39-6.38,1.06Z"/>
      <path class="cls-13" d="M245.07,63.32c-.49,1.2-2.63,1.57-3.85,1.72-1.84.23-4.59.08-6.16-.98-.49-.33-.7-.52-.83-1.14-.14-2.38,7.06-2.95,9.95-1.44.82.41,1.16,1.03.9,1.84Z"/>
      <path class="cls-14" d="M245.07,63.32l-.16,4.47c-2.26,1.02-4.72,1.15-7.11.92l-.29-.28c-.09-.78-.19-1.55-.3-2.31-.78-.07-1.53-.29-2.25-.66-.36-.12-.53-.33-.62-.69l-.11-1.85c1.85,2.54,8.39,2.44,10.84.4Z"/>
      <path class="cls-8" d="M232.54,68.93l.36-.07c2.53,1.76,6.34,2.12,9.29,1.5,0-.25.02-.4.31-.5,1.44-.28,2.79-.68,3.84-1.69.5.79.45,1.58.14,2.43-.18.5-.87.93-1.58,1.23-3.43,1.43-7.36,1.37-10.78-.06-1.2-.51-1.8-1.6-1.58-2.84Z"/>
      <path class="cls-8" d="M237.11,73.86c-.1.25-.15.37-.15.37,1.39.47,3.07.39,4.53.21.74-.09,1.39-.2,1.8-.81,1.11-.32,2.07-.7,3.1-1.25.59,1.29.09,2.62-1.17,3.15-3.84,1.61-8.06,1.56-11.86-.19-.34-.87-.19-1.72-.03-2.66,1.27.59,2.44.99,3.79,1.18Z"/>
      <path class="cls-13" d="M238.01,83.36h-.03c-1.07-.17-2.11-.43-2.98-1.16l-.17-4.79c1.06.28,2.08.48,3.13.51l.05,5.44Z"/>
      <path class="cls-13" d="M237.79,68.71c-1.12-.11-2.27-.34-3.31-.87l-.15-3.07c.93.62,2.33.92,3.45,1.16,0,1.11,0,1.88,0,2.78Z"/>
      <path class="cls-19" d="M242.51,69.87c-.02.23.03.46-.04.62-.36.78-7.74.73-9.92-1.56.06-.36.21-.63.62-.72.25.53.69.85,1.25,1.04,2.6.9,5.39,1.14,8.1.61Z"/>
      <path class="cls-8" d="M231.65,70.77c.72,2.1.14,2.48.27,4.25-.44.08-.77-.07-1.01-.3-.66-.61.07-2.14-.34-3.67-.03-.5.83-.76,1.08-.28Z"/>
      <path class="cls-19" d="M242.85,73.73c-1.89.38-3.79.41-5.74.13-.28.04-.47.18-.46.4.02.9,6.32.77,6.61-.16.04-.13.02-.29.03-.46l-.44.1Z"/>
      <path class="cls-19" d="M231.65,70.77c-.41-.03-.7.18-1.08.28-.1-.39-.25-.79-.18-1.19.06-.36.32-.7.89-.75.06.56.18,1.1.37,1.67Z"/>
    </g>
    <g>
      <rect class="cls-16" x="57.5" y="68.99" width="168.01" height="1.35"/>
      <rect class="cls-19" x="57.5" y="70.34" width="168.01" height="1.04"/>
      <rect class="cls-8" x="57.5" y="71.38" width="168.01" height="2.37"/>
      <rect class="cls-16" x="57.5" y="73.75" width="168.01" height="1.4"/>
    </g>
  </g>
  <g>
    <path class="cls-5" d="M169.99,77.72s2.09,2.66,6.37,1.42c5.56-1.6,6.86-6.82,5.54-9.02-1.38-2.31-5.06-3.15-8.66,1.42-2.4,3.04-.71,3.04-3.25,6.18"/>
    <path class="cls-22" d="M181.24,70.11c-.58-.78-1.44-1.25-2.41-1.31-1.67-.11-3.5.99-5.15,3.08-1.1,1.4-1.28,2.08-1.46,2.81-.19.76-.39,1.55-1.49,2.99.67.6,2.47,1.8,5.49.93,3.38-.98,4.71-3.2,5.19-4.43.55-1.4.56-2.88.03-3.77-.06-.1-.12-.2-.19-.29M169.28,77.71l.28-.34c1.22-1.51,1.39-2.21,1.58-2.96.2-.8.41-1.63,1.66-3.22,1.88-2.39,4.04-3.63,6.09-3.5,1.46.09,2.72.87,3.48,2.13.71,1.2.73,3.01.05,4.75-.96,2.43-3.11,4.28-5.92,5.09-4.59,1.33-6.87-1.49-6.96-1.61l-.27-.35"/>
    <path class="cls-7" d="M178.46,69.94c0,.8.7,1.43,1.5,1.34.4-.05.84-.21,1.25-.59.99-.93-.31-3.4-2.19-4.58-.5-.31-1.12.16-.96.73.21.71.39,1.73.4,3.1"/>
    <path class="cls-22" d="M180.23,67.97c-.38-.52-.9-1.02-1.5-1.4-.02,0-.05-.03-.1,0-.05.04-.04.09-.04.1.27.94.42,2.04.42,3.25h0c0,.23.1.44.27.6.17.15.39.22.61.19.35-.04.66-.19.93-.45.13-.12.19-.33.16-.62-.04-.47-.32-1.09-.76-1.69M178.28,71.07c-.24-.32-.37-.72-.38-1.13h0c0-1.11-.13-2.11-.38-2.95-.14-.48.03-.99.43-1.29.4-.3.93-.32,1.35-.06,1.48.93,2.65,2.58,2.78,3.92.08.8-.23,1.27-.51,1.53-.45.42-.97.67-1.56.74-.53.06-1.07-.11-1.48-.46-.1-.09-.19-.19-.27-.29"/>
    <path class="cls-7" d="M176.33,71.41c0,.87.77,1.56,1.63,1.45.44-.05.91-.23,1.36-.64,1.08-1.01-.34-3.7-2.38-4.98-.54-.34-1.22.18-1.04.79.23.78.43,1.89.44,3.38"/>
    <path class="cls-22" d="M178.29,69.24c-.42-.57-.98-1.12-1.65-1.54-.06-.04-.11-.03-.17,0-.04.03-.08.08-.06.16.3,1.02.45,2.21.46,3.53h0c0,.26.11.51.31.69.2.17.45.25.71.22.39-.05.74-.21,1.04-.5.16-.15.22-.39.19-.71-.05-.52-.35-1.2-.84-1.86M176.17,72.61c-.25-.34-.4-.76-.4-1.2,0-1.21-.15-2.3-.41-3.22-.15-.5.03-1.04.45-1.35.42-.32.97-.34,1.42-.06,1.6,1,2.86,2.78,3,4.23.06.67-.12,1.23-.53,1.62-.48.45-1.04.71-1.67.79-.57.07-1.14-.11-1.57-.49-.11-.09-.2-.2-.28-.31"/>
    <path class="cls-7" d="M173.95,72.2c-.11.83.53,1.58,1.37,1.59.42,0,.9-.1,1.37-.44,1.16-.82.15-3.57-1.63-5.05-.48-.39-1.19.01-1.1.62.12.77.17,1.85-.02,3.27"/>
    <path class="cls-22" d="M175.64,69.73c-.26-.36-.58-.7-.93-.99-.02-.01-.06-.05-.13-.01-.05.03-.07.07-.06.13.15,1.01.15,2.17-.01,3.42-.03.24.04.49.2.68.16.19.38.29.63.29.37,0,.72-.11,1.04-.34.16-.12.25-.33.26-.63.02-.66-.33-1.65-.99-2.54M173.77,73.55c-.3-.41-.44-.92-.37-1.42.15-1.15.15-2.2.02-3.12-.08-.51.16-1,.61-1.25.45-.25.99-.2,1.38.12,1.4,1.16,2.38,3.02,2.33,4.43-.02.66-.28,1.17-.72,1.49-.52.37-1.09.55-1.7.54-.55,0-1.08-.26-1.45-.68-.03-.04-.06-.08-.09-.12"/>
    <path class="cls-5" d="M169.99,77.72s2.09,2.66,6.37,1.42c5.56-1.6,6.86-6.82,5.54-9.02-1.38-2.31-5.06-3.15-8.66,1.42-2.4,3.04-.71,3.04-3.25,6.18"/>
    <path class="cls-6" d="M179.72,76.66c1.3-1.73,1.65-3.74,1.29-5.15.2-.11.4-.25.57-.42.03-.03.07-.06.1-.1.26.88.17,2.06-.28,3.19-.26.66-.76,1.6-1.68,2.48"/>
    <path class="cls-10" d="M170.72,77.68c1.1-1.44,1.3-2.23,1.49-2.99.18-.72.36-1.4,1.46-2.81.12-.15.23-.29.35-.43-.01.16-.03.32-.05.48,0,.09-.02.18-.03.27,0,.05-.01.1-.01.15,0,.33.1.63.28.88.05.07.11.13.17.19-.49,1.04-.39,1.63-.95,2.72-.42.82-.31,1.76.19,2.44.09.12.19.23.31.34-1.68-.06-2.74-.8-3.22-1.23"/>
    <path class="cls-22" d="M181.24,70.11c-.58-.78-1.44-1.25-2.41-1.31-1.67-.11-3.5.99-5.15,3.08-1.1,1.4-1.28,2.08-1.46,2.81-.19.76-.39,1.55-1.49,2.99.67.6,2.47,1.8,5.49.93,3.38-.98,4.71-3.2,5.19-4.43.55-1.4.56-2.88.03-3.77-.06-.1-.12-.2-.19-.29M169.28,77.71l.28-.34c1.22-1.51,1.39-2.21,1.58-2.96.2-.8.41-1.63,1.66-3.22,1.88-2.39,4.04-3.63,6.09-3.5,1.46.09,2.72.87,3.48,2.13.71,1.2.73,3.01.05,4.75-.96,2.43-3.11,4.28-5.92,5.09-4.59,1.33-6.87-1.49-6.96-1.61l-.27-.35"/>
    <path class="cls-7" d="M178.46,69.94c0,.8.7,1.43,1.5,1.34.4-.05.84-.21,1.25-.59.99-.93-.31-3.4-2.19-4.58-.5-.31-1.12.16-.96.73.21.71.39,1.73.4,3.1"/>
    <path class="cls-20" d="M179.65,69.31c-.13-.24-.29-.48-.46-.71-.09-.12-.19-.24-.28-.36-.07-.56-.18-1.08-.32-1.56,0-.02-.02-.06.04-.1.05-.04.09-.02.1,0,.2.13.4.27.58.42-.04.11-.04.24,0,.37.14.5.28,1.14.35,1.94"/>
    <path class="cls-22" d="M180.23,67.97c-.38-.52-.9-1.02-1.5-1.4-.02,0-.05-.03-.1,0-.05.04-.04.09-.04.1.27.94.42,2.04.42,3.25h0c0,.23.1.44.27.6.17.15.39.22.61.19.35-.04.66-.19.93-.45.13-.12.19-.33.16-.62-.04-.47-.32-1.09-.76-1.69M178.28,71.07c-.24-.32-.37-.72-.38-1.13h0c0-1.11-.13-2.11-.38-2.95-.14-.48.03-.99.43-1.29.4-.3.93-.32,1.35-.06,1.48.93,2.65,2.58,2.78,3.92.08.8-.23,1.27-.51,1.53-.45.42-.97.67-1.56.74-.53.06-1.07-.11-1.48-.46-.1-.09-.19-.19-.27-.29"/>
    <path class="cls-7" d="M176.33,71.41c0,.87.77,1.56,1.63,1.45.44-.05.91-.23,1.36-.64,1.08-1.01-.34-3.7-2.38-4.98-.54-.34-1.22.18-1.04.79.23.78.43,1.89.44,3.38"/>
    <path class="cls-20" d="M177.18,72.09c-.02-.4-.13-.85-.32-1.31-.05-1.07-.19-2.04-.44-2.89-.02-.08.02-.13.06-.16.05-.04.11-.04.17,0,.31.19.6.42.86.66-.18.17-.27.43-.19.71.22.75.42,1.82.44,3.25-.2,0-.4-.09-.55-.23,0,0,0,0,0,0"/>
    <path class="cls-22" d="M178.29,69.24c-.42-.57-.98-1.12-1.65-1.54-.06-.04-.11-.03-.17,0-.04.03-.08.08-.06.16.3,1.02.45,2.21.46,3.53h0c0,.26.11.51.31.69.2.17.45.25.71.22.39-.05.74-.21,1.04-.5.16-.15.22-.39.19-.71-.05-.52-.35-1.2-.84-1.86M176.17,72.61c-.25-.34-.4-.76-.4-1.2,0-1.21-.15-2.3-.41-3.22-.15-.5.03-1.04.45-1.35.42-.32.97-.34,1.42-.06,1.6,1,2.86,2.78,3,4.23.06.67-.12,1.23-.53,1.62-.48.45-1.04.71-1.67.79-.57.07-1.14-.11-1.57-.49-.11-.09-.2-.2-.28-.31"/>
    <path class="cls-7" d="M173.95,72.2c-.11.83.53,1.58,1.37,1.59.42,0,.9-.1,1.37-.44,1.16-.82.15-3.57-1.63-5.05-.48-.39-1.19.01-1.1.62.12.77.17,1.85-.02,3.27"/>
    <path class="cls-11" d="M173.94,72.35s0-.1.01-.15c.01-.09.02-.18.03-.27,0,.09-.02.18-.03.27,0,.05-.01.1-.01.15"/>
    <path class="cls-22" d="M174.05,69.82c-.02-.33-.05-.63-.09-.89-.09-.61.62-1.02,1.1-.62.15.12.29.25.42.39h0c-.13-.14-.27-.26-.42-.39-.48-.39-1.19.01-1.1.62.04.26.07.56.09.89h0"/>
    <path class="cls-22" d="M174.06,70.89c.01-.39,0-.74,0-1.06h0c.02.32.02.67,0,1.06M175.48,68.69h0s.01.01.02.02c0,0,0,0,0,0,0,0-.01-.01-.02-.02"/>
    <path class="cls-22" d="M175.49,68.71s0,0,0,0c.18.18.34.37.5.57h0c-.16-.2-.32-.39-.5-.57"/>
    <path class="cls-20" d="M174.21,73.23c-.18-.25-.29-.55-.28-.88,0-.05,0-.1.01-.15.01-.09.02-.18.03-.27.04-.37.07-.72.08-1.05.01-.39.01-.74,0-1.06-.02-.33-.05-.63-.09-.89-.09-.61.62-1.02,1.1-.62.15.12.29.25.42.39,0,0,.01.01.02.02.18.18.34.37.5.57-.43-.1-.89.26-.82.76.12.77.17,1.85-.02,3.27-.02.16-.01.32.02.47-.4-.05-.74-.26-.96-.56"/>
    <path class="cls-22" d="M175.64,69.73c-.26-.36-.58-.7-.93-.99-.02-.01-.06-.05-.13-.01-.05.03-.07.07-.06.13.15,1.01.15,2.17-.01,3.42-.03.24.04.49.2.68.16.19.38.29.63.29.37,0,.72-.11,1.04-.34.16-.12.25-.33.26-.63.02-.66-.33-1.65-.99-2.54h0ZM173.77,73.56c-.3-.41-.44-.92-.37-1.42.15-1.15.15-2.2.02-3.12-.08-.51.16-1,.61-1.25.45-.25.99-.2,1.38.12,1.4,1.16,2.38,3.02,2.33,4.43-.02.66-.28,1.17-.72,1.49-.52.37-1.09.55-1.7.54-.55,0-1.08-.26-1.45-.68-.03-.04-.06-.08-.09-.12h0Z"/>
  </g>
  <path class="cls-7" d="M163.8,79.54c-.55-.69-.38-1.7.36-2.17.38-.24.86-.4,1.47-.35,1.49.11,2.08,3.11,1.29,5.41-.21.61-1.07.64-1.32.04-.31-.75-.86-1.75-1.79-2.92"/>
  <path class="cls-20" d="M166.21,82.34s-.02,0-.03-.01c.02-.58-.02-1.15-.12-1.68.09.18.16.34.23.5.07.16.18.27.31.35-.05.25-.12.5-.2.75-.02.06-.07.1-.14.1-.01,0-.03,0-.05,0"/>
  <path class="cls-22" d="M164.23,79.19c.83,1.04,1.46,2.06,1.87,3.05.03.08.1.1.15.1.07,0,.12-.04.14-.1.56-1.62.33-3.43-.2-4.24-.18-.27-.38-.42-.6-.44-.42-.03-.8.06-1.14.27-.22.14-.37.36-.41.62-.04.26.03.53.19.74M165.97,83.42c-.39-.09-.73-.36-.89-.74-.37-.9-.95-1.83-1.72-2.79-.36-.45-.51-1.04-.42-1.61.1-.57.43-1.07.91-1.37.54-.34,1.14-.49,1.8-.44.57.04,1.07.36,1.44.93.81,1.22.94,3.41.33,5.21-.17.5-.62.83-1.15.84-.11,0-.21,0-.32-.03"/>
  <path class="cls-7" d="M161.87,81.3c-.59-.75-.4-1.86.42-2.36.41-.25.94-.42,1.6-.37,1.61.14,2.22,3.41,1.33,5.9-.24.66-1.17.68-1.44.02-.33-.82-.91-1.91-1.91-3.2"/>
  <path class="cls-20" d="M164.45,84.42c-.05-.01-.12-.04-.15-.13-.1-.24-.2-.48-.32-.72.04-.67-.01-1.33-.15-1.93.19.37.35.7.47,1,.1.26.31.41.55.46.05.01.1.02.15.02-.06.4-.16.8-.29,1.17-.04.12-.14.14-.2.14-.02,0-.04,0-.06,0"/>
  <path class="cls-22" d="M162.31,80.96c.88,1.13,1.55,2.25,1.99,3.33.05.12.15.14.21.14.06,0,.15-.02.2-.14.57-1.58.49-3.63-.17-4.66-.2-.31-.43-.48-.68-.51-.47-.04-.89.06-1.27.29-.26.16-.43.41-.48.71-.05.3.02.61.21.84M164.21,85.5c-.42-.09-.77-.38-.94-.79-.4-.98-1.02-2.02-1.84-3.07-.38-.49-.53-1.11-.42-1.72.11-.6.47-1.13.99-1.45.58-.36,1.23-.51,1.94-.45.6.05,1.13.4,1.52,1.01.84,1.31.96,3.73.28,5.63-.19.52-.66.86-1.21.87-.11,0-.21,0-.32-.03"/>
  <path class="cls-7" d="M159.79,82.34c-.59-.7-.45-1.77.32-2.28.39-.26.89-.44,1.53-.41,1.56.07,2.25,3.2,1.49,5.62-.2.65-1.1.69-1.38.08-.35-.78-.94-1.81-1.95-3"/>
  <path class="cls-20" d="M162.37,85.23s-.09-.04-.13-.11c-.46-1.02-1.14-2.07-2.02-3.12.36.04.72.04,1.08,0,.4.61.69,1.14.89,1.59.11.23.3.37.51.42.04,0,.08.01.12.02-.05.36-.12.72-.23,1.07-.03.1-.11.12-.16.13-.02,0-.04,0-.06,0"/>
  <path class="cls-22" d="M160.21,81.99c.89,1.06,1.58,2.11,2.03,3.13.05.1.14.11.18.11.06,0,.13-.03.16-.13.54-1.71.26-3.61-.33-4.45-.2-.29-.42-.44-.66-.45-.44-.02-.85.09-1.19.32-.24.16-.39.4-.43.68-.04.28.04.57.23.79M162.13,86.3c-.39-.09-.73-.35-.9-.73-.42-.93-1.05-1.89-1.87-2.87-.39-.46-.56-1.06-.47-1.65.08-.59.41-1.11.91-1.44.55-.36,1.17-.53,1.86-.5.59.03,1.11.35,1.51.92.87,1.25,1.07,3.52.48,5.41-.16.51-.61.86-1.15.9-.12,0-.24,0-.36-.03"/>
  <path class="cls-7" d="M108.2,78.24c.74-.72,1.95-.65,2.6.16.33.41.58.95.6,1.66.06,1.73-3.39,2.77-6.19,2.13-.75-.17-.88-1.16-.21-1.52.84-.45,1.95-1.2,3.2-2.42"/>
  <path class="cls-20" d="M105.41,81.66s-.06-.01-.09-.02c-.17-.04-.21-.17-.21-.23,0-.04,0-.09.02-.14.68,0,1.34-.07,1.93-.22-.15.09-.3.17-.44.25-.21.11-.34.29-.4.48-.27-.03-.54-.07-.81-.13"/>
  <path class="cls-22" d="M108.2,78.24h0s0,0,0,0M109.69,78.32c-.06-.01-.13-.02-.19-.03-.34-.02-.68.1-.92.34-1.11,1.07-2.22,1.92-3.33,2.51-.14.08-.15.2-.14.27,0,.06.04.19.21.23,1.81.42,4.03.08,5.06-.77.31-.26.46-.52.45-.8-.02-.51-.18-.96-.48-1.33-.17-.22-.41-.36-.67-.42M105.16,82.74s-.05-.01-.07-.02c-.57-.13-.98-.59-1.06-1.16-.08-.57.2-1.12.71-1.39,1.01-.54,2.05-1.33,3.08-2.33.46-.45,1.11-.69,1.76-.65.65.04,1.25.35,1.66.86.45.57.7,1.23.72,1.98.02.63-.27,1.21-.85,1.69-1.27,1.05-3.81,1.48-5.94,1.01"/>
  <path class="cls-7" d="M105.99,76.71c.8-.63,1.98-.43,2.52.44.27.44.45,1,.39,1.71-.14,1.72-3.64,2.38-6.29,1.43-.71-.25-.73-1.25-.03-1.53.88-.36,2.04-.98,3.41-2.05"/>
  <path class="cls-20" d="M103.59,80c-.27-.06-.54-.13-.8-.23-.15-.05-.17-.18-.17-.24,0-.06.01-.2.17-.26.07-.03.14-.06.22-.09.12.03.24.06.36.09.33.07.67.13,1,.16-.21.17-.31.42-.3.66-.15-.02-.31-.05-.46-.09"/>
  <path class="cls-22" d="M106.33,77.14c-1.2.94-2.4,1.66-3.54,2.13-.16.06-.17.2-.17.26,0,.07.03.19.17.24,1.7.6,3.9.52,5-.2.35-.22.53-.48.55-.76.04-.51-.06-.97-.31-1.37-.17-.28-.45-.47-.78-.53-.33-.06-.67.03-.93.23M103.34,81.07c-.31-.07-.62-.16-.92-.26-.54-.19-.9-.69-.91-1.26-.01-.58.32-1.09.85-1.31,1.05-.43,2.15-1.09,3.28-1.97.51-.4,1.17-.56,1.8-.45.63.11,1.19.49,1.52,1.04.38.61.54,1.3.48,2.04-.05.63-.42,1.18-1.06,1.6-1.18.76-3.22.97-5.05.57"/>
  <path class="cls-7" d="M105.28,75.12c.86-.48,1.94-.11,2.32.79.19.46.28,1.02.12,1.68-.39,1.62-3.8,1.71-6.19.42-.63-.34-.5-1.29.2-1.46.89-.21,2.08-.62,3.54-1.44"/>
  <path class="cls-20" d="M102.89,78c-.38-.12-.74-.28-1.08-.46-.12-.07-.13-.18-.12-.24,0-.05.04-.17.18-.2.99-.23,2.03-.63,3.12-1.19-.02.3-.02.64.02,1-.58.23-1.09.38-1.53.48-.33.08-.53.33-.59.61"/>
  <path class="cls-22" d="M105.55,75.6c-1.29.72-2.52,1.22-3.68,1.49-.14.03-.17.15-.18.2,0,.06,0,.17.12.24,1.52.82,3.61,1.07,4.76.56.35-.16.57-.37.63-.62.11-.47.08-.92-.09-1.34-.12-.29-.35-.5-.65-.61-.3-.1-.62-.07-.9.08M103.36,79.26c-.72-.16-1.44-.41-2.08-.76-.49-.27-.76-.8-.69-1.35.07-.56.48-1,1.02-1.13,1.06-.25,2.2-.72,3.4-1.38.55-.31,1.2-.37,1.8-.16.59.2,1.07.65,1.31,1.22.27.64.32,1.32.15,2.02-.15.6-.58,1.07-1.25,1.37-.94.42-2.31.46-3.66.16"/>
  <path class="cls-5" d="M140.66,49.77l3.01,22.89c-10.83.72-16.26-1.42-18.9-2.94-1.47-.84-2.08-1.5-2.29-1.39-.49.28,0,3.28-.78,5.85-.68,2.27-3.33,7.18-9.85,6.86-6.11-.31-6.66-3.8-6.22-5.78s4.52-3.17,5.87-5.98c1.35-2.81.53-7.68.53-7.68-2.74-8.58,3.16-20.06,13-20.47,9.89-.41,17.02,8.84,17.02,8.84l-1.4-.19"/>
  <path class="cls-4" d="M113.44,50.22c.42-.93.94-1.83,1.53-2.68,2.52-3.61,6.11-5.69,10.09-5.86,1.36-.06,2.66.08,3.91.35,2.76.6,5.21,1.89,7.2,3.27-.19.42-.36.85-.52,1.28-1.95-1.3-4.31-2.49-6.97-3.07-1.29-.28-2.66-.42-4.08-.36-4.88.2-8.79,3.13-11.16,7.07"/>
  <path class="cls-10" d="M109.89,80.23c-1.43-.31-2.47-.89-3.1-1.72-.53-.7-.69-1.47-.71-2.1.77.93,2.05,1.86,4.02,2.29.41.09.84.16,1.3.2,5.9.53,9.36-5.15,9.79-7.48.55-2.94-.07-4.99.37-5.34.15-.12.32-.14.55-.09.53.12,1.34.64,2.65,1.27,1.31.63,3.12,1.38,5.68,1.94s5.7.91,9.83.83c.26.55.69,1.34,1.39,2.18-4.53.16-8-.2-10.65-.78-4.34-.95-6.48-2.47-7.46-3.16-.35-.25-.62-.44-.88-.5-.16-.03-.31-.02-.46.07-.5.28-.52.93-.56,2.23-.03,1.1-.08,2.61-.48,3.94-.21.7-2.26,6.82-9.29,6.46-.73-.04-1.4-.12-2-.25"/>
  <path class="cls-22" d="M128.97,42.03c-1.24-.27-2.55-.41-3.91-.35-3.99.17-7.57,2.25-10.09,5.86-2.9,4.15-3.82,9.47-2.4,13.89l.02.08c.03.21.83,5.08-.58,8.01-.75,1.56-2.24,2.63-3.54,3.57-1.09.78-2.12,1.53-2.29,2.29-.12.55-.3,1.95.61,3.13.91,1.19,2.62,1.85,5.1,1.98,7.03.35,9.08-5.76,9.29-6.46.4-1.34.45-2.84.48-3.94.04-1.3.06-1.96.56-2.23.41-.23.78.03,1.34.43,1.63,1.15,6.53,4.62,19.49,3.87l-2.93-22.3c-.04-.3.17-.58.48-.62.03,0,.06,0,.09,0-1.82-1.95-6.12-5.97-11.71-7.19M109.66,81.3c-1.69-.37-2.95-1.08-3.75-2.13-1.19-1.55-.96-3.34-.81-4.04.26-1.18,1.45-2.04,2.72-2.95,1.2-.86,2.56-1.84,3.19-3.15,1.2-2.49.56-6.87.49-7.31-1.5-4.73-.52-10.41,2.56-14.82,2.72-3.9,6.61-6.15,10.95-6.33,4.17-.17,8.52,1.34,12.58,4.37,3.04,2.28,4.83,4.58,4.91,4.68.19.24.14.59-.1.77-.24.19-.59.14-.77-.1,0-.01-.15-.19-.4-.48l3.07,23.35-.59.04c-13.79.91-19.06-2.81-20.79-4.04-.04-.03-.07-.05-.11-.08-.02.29-.04.68-.05,1.02-.04,1.16-.08,2.75-.53,4.23-.24.78-2.53,7.65-10.4,7.25-.79-.04-1.51-.13-2.17-.28"/>
  <path class="cls-5" d="M139.96,69.23s1.57,5.68,9.24,7.14c6.62,1.26,6.62,3.49,9.33,5.07,3.24,1.89,8.96-.84,6.9-7.24-1.25-3.88-5.13-4.59-8.13-5.11-1.59-.27-2.93-.49-3.5-1.1l-2.07-13.44-12.82-6.05,1.04,20.73"/>
  <path class="cls-7" d="M165.44,79s0,0,0,0c0-.02.02-.05.03-.07,0,.02-.02.05-.03.07"/>
  <path class="cls-7" d="M163.7,81.13s0,0,0,0c.06-.04.12-.08.18-.13,0,0,0,0,0,0,0,0,0,0,0,0,.33-.25.63-.54.9-.88h0c-.31.4-.68.74-1.08,1.01"/>
  <path class="cls-25" d="M164.78,80.12h0c.26-.33.49-.71.66-1.12,0,0,0,0,0,0-.18.42-.4.79-.66,1.12"/>
  <path class="cls-25" d="M162.94,81.56s0,0,0,0c.26-.12.52-.26.76-.43,0,0,0,0,0,0-.24.17-.5.31-.76.43"/>
  <polyline class="cls-7" points="165.47 78.93 165.47 78.92 165.47 78.93"/>
  <path class="cls-21" d="M165.73,75.37h0s0,0,0,0M165.73,75.37c-.07-.37-.17-.76-.3-1.16-.12-.38-.27-.73-.44-1.06.17.32.32.67.44,1.06.13.4.23.79.3,1.16"/>
  <path class="cls-4" d="M163.87,81s0,0,0,0c0,0,0,0,0,0M163.88,81c1.19-.9,2.02-2.36,1.99-4.35-.3.6-.7,1.1-1.16,1.51.1-.95,0-2.03-.4-3.25-1.91-5.93-9.16-3.47-10.5-6.93.36.39,1.04.62,1.9.8.48.11,1.03.2,1.6.3.57.1,1.18.21,1.79.34,2.28.5,4.67,1.38,5.9,3.72.17.32.32.67.44,1.06.13.4.23.79.3,1.16,0,0,0,0,0,0h0c.26,1.39.13,2.58-.26,3.55,0,0,0,0,0,0,0,0,0,0,0,0,0,.02-.02.05-.03.07-.18.42-.4.79-.66,1.12-.26.34-.57.63-.9.88"/>
  <path class="cls-20" d="M161.31,82.01h0c.47-.05.94-.16,1.39-.34h0c-.45.18-.92.29-1.39.34"/>
  <path class="cls-23" d="M160.22,82h0c.36.04.72.04,1.08,0h0c-.36.04-.73.04-1.08,0"/>
  <path class="cls-12" d="M158.89,81.63c-.12-.06-.25-.12-.36-.19-2.6-1.52-2.7-3.63-8.57-4.91-.24-.05-.5-.11-.76-.16-.15-.03-.3-.06-.45-.09-2.8-.61-4.74-1.79-6.08-3.02h0c1.34,1.22,3.28,2.4,6.08,3.01.15.03.3.06.45.09.26.05.52.1.76.16,5.87,1.28,5.97,3.39,8.57,4.92.12.07.24.13.36.19,0,0,0,0,0,0"/>
  <path class="cls-22" d="M159.77,81.93c-.3-.07-.6-.16-.88-.29,0,0,0,0,0,0,.28.13.58.23.88.29.15.03.3.06.45.08h0c-.15-.02-.3-.04-.45-.07M162.7,81.67h0c.08-.03.16-.07.24-.1t0,0c-.08.04-.16.07-.24.1"/>
  <path class="cls-10" d="M140.26,70.02c-.23-.49-.31-.79-.31-.79,0,0,0,0,0,0,0,.03.09.33.31.79h0"/>
  <path class="cls-11" d="M141.66,72.21c-.7-.84-1.14-1.63-1.39-2.18h0c.26.55.69,1.34,1.39,2.18h0"/>
  <path class="cls-22" d="M142.67,73.27c-.39-.35-.72-.71-1.01-1.06h0c.29.35.63.71,1.01,1.06h0"/>
  <path class="cls-10" d="M159.77,81.92c-.3-.07-.6-.16-.88-.29-.12-.06-.25-.12-.36-.19-2.6-1.52-2.7-3.63-8.57-4.92-.24-.05-.5-.11-.76-.16-.15-.03-.3-.06-.45-.09-2.8-.61-4.74-1.79-6.08-3.01-.39-.35-.72-.71-1.01-1.06-.7-.84-1.14-1.63-1.39-2.18-.21-.46-.3-.76-.31-.79.06.08,2.06,2.84,8.91,4.34.29.06.58.12.89.18.26.05.52.1.76.16,5.86,1.28,5.97,3.39,8.57,4.91.39.23.81.39,1.25.48,1.48.32,3.15-.08,4.37-1.14-.16,1.48-.84,2.63-1.76,3.4-.08.04-.16.07-.24.1-.45.18-.92.29-1.39.34-.36.04-.73.04-1.08,0-.15-.02-.3-.04-.45-.08"/>
  <path class="cls-20" d="M163.69,81.13h0c.06-.04.12-.08.18-.13-.06.04-.12.09-.18.13"/>
  <path class="cls-15" d="M162.94,81.56s0,0,0,0c.26-.12.52-.26.76-.43h0c-.24.17-.49.31-.76.43"/>
  <polyline class="cls-20" points="163.88 81 163.88 81 163.88 81"/>
  <path class="cls-3" d="M162.94,81.56c.92-.77,1.6-1.91,1.76-3.4.47-.41.87-.91,1.16-1.51.04,1.99-.8,3.45-1.99,4.35,0,0,0,0,0,0,0,0,0,0,0,0-.06.04-.12.09-.18.13-.24.17-.49.31-.76.43"/>
  <path class="cls-22" d="M140.13,69.18c.24.44.52.87.81,1.28.14.21.3.41.45.6.15.2.31.39.48.58.65.75,1.39,1.42,2.2,1.99.4.29.83.54,1.26.79.44.23.89.45,1.35.64.23.1.47.18.7.27.24.07.48.16.72.22.24.06.48.14.73.18l.75.16.78.17c.26.06.52.13.78.2l.39.1.39.12c.26.09.52.15.77.26,1.02.37,2.01.88,2.89,1.55.44.34.85.7,1.22,1.06.38.36.75.71,1.13,1.01.1.08.2.15.29.22.1.08.2.14.3.2.1.06.2.13.31.19.1.05.2.11.3.15.41.19.86.3,1.32.33.92.07,1.88-.16,2.67-.63.8-.47,1.44-1.2,1.79-2.06.18-.43.3-.89.35-1.36.05-.47.04-.95-.01-1.44-.04-.24-.06-.48-.13-.72-.03-.12-.05-.24-.08-.36l-.1-.36-.05-.18-.06-.17c-.04-.11-.08-.23-.13-.34-.1-.21-.19-.44-.32-.64-.11-.21-.26-.4-.39-.59-.15-.18-.3-.37-.47-.53-.34-.33-.71-.63-1.13-.88-.83-.5-1.77-.84-2.75-1.09-.98-.26-1.99-.42-3.03-.6-.52-.09-1.04-.19-1.58-.33-.27-.07-.54-.16-.82-.28-.28-.13-.57-.29-.83-.55l-.12-.12-.03-.17-2.08-13.44.31.41-6.41-3.02c-1.07-.5-2.16-.95-3.22-1.49-.53-.27-1.05-.54-1.56-.85-.51-.31-1.01-.63-1.48-1.02-.08-.07-.09-.19-.02-.27.05-.05.12-.08.18-.06.6.11,1.17.29,1.73.49.56.19,1.1.43,1.65.66,1.08.47,2.12,1.03,3.19,1.54l6.41,3.03.26.13.05.29,2.07,13.44-.14-.29c.1.11.28.21.47.3.2.08.42.16.66.22.47.13.97.22,1.48.31,1.02.18,2.07.35,3.11.62,1.04.27,2.09.64,3.05,1.22.48.29.93.64,1.33,1.04.21.2.39.42.57.64.16.23.34.46.47.71.15.24.26.5.38.76.05.13.1.26.15.4l.07.2.06.2.11.4c.03.13.06.27.09.4.07.27.1.55.14.82.06.56.07,1.12.01,1.69-.06.57-.2,1.13-.43,1.66-.44,1.07-1.25,1.99-2.25,2.58-.99.59-2.16.88-3.32.79-.58-.04-1.16-.18-1.7-.43-.14-.06-.26-.13-.4-.2-.13-.07-.24-.15-.36-.22-.12-.07-.24-.15-.35-.24-.11-.08-.23-.16-.33-.25-.43-.35-.82-.72-1.2-1.08-.38-.36-.75-.69-1.14-.99-1.56-1.2-3.54-1.78-5.54-2.19-2.08-.38-4.22-1.08-6-2.38-.88-.65-1.68-1.42-2.32-2.32-.16-.23-.3-.46-.44-.69-.13-.24-.26-.48-.37-.73-.22-.5-.39-1.01-.47-1.57-.01-.1.06-.19.16-.21.08-.01.15.03.19.09h0Z"/>
  <path class="cls-5" d="M175.55,53.73c.11,9.32-9.07,13.84-20.46,13.97-11.39.13-20.67-4.17-20.78-13.5-.1-8.94,5.58-19.21,18.65-20.19,1.57-.82,3.7-2.25,4.88-4.33.37-.65,1.33-.57,1.57.14.33.94.63,2.18.01,3.79,1.74-.87,3.47-1.86,4.03-2.38.61-.56,1.59-.12,1.57.7-.02.8-.29,2.49-.6,3.9,7.54,3.46,11.04,11.02,11.12,17.88"/>
  <path class="cls-21" d="M174.77,58.37c.02-.1.04-.2.06-.3.16-.43.29-.87.4-1.33-.11.56-.27,1.11-.46,1.63"/>
  <path class="cls-2" d="M159.43,33.62c.08-.22.15-.43.2-.63-.04.2-.09.4-.15.61-.02,0-.03.02-.05.03"/>
  <path class="cls-4" d="M174.83,58.07c.15-.79.22-1.63.21-2.51-.07-6.45-3.68-13.9-10.37-17.64-.76-.42-1.16-1.29-.98-2.14.2-.96.37-1.87.38-2.39,0-.41-.12-.63-.32-.67s-.49.08-.79.36c-.44.41-1.59,1.1-2.91,1.8-.13.07-.26.08-.38.05-.27-.06-.48-.31-.44-.62.16-1.07-.07-1.94-.32-2.65-.11-.33-.26-.54-.44-.58-.21-.05-.47.15-.77.68-.78,1.39-2.15,2.38-3.45,3.12-1.03.6-2.18.96-3.36,1.13-8.8,1.22-13.95,6.84-16.02,13.14,1.8-7.26,7.53-14.02,18.02-14.81,1.57-.82,3.7-2.25,4.88-4.33.21-.36.6-.5.94-.42.27.06.52.25.63.56.26.74.5,1.67.29,2.82-.05.2-.12.42-.2.63.02,0,.03-.02.05-.03-.04.12-.08.24-.13.36,1.74-.87,3.47-1.86,4.03-2.38.25-.23.55-.29.83-.23.41.09.75.44.74.93-.02.8-.29,2.49-.6,3.9,7.54,3.46,11.04,11.02,11.12,17.88.01.94-.07,1.84-.25,2.69-.11.46-.24.9-.4,1.33"/>
  <path class="cls-1" d="M171.47,52.51c.03,2.72-.76,5.65-3.2,7.94-2.49,2.34-6.71,4.01-13.55,4.09h0c-6.76.08-11-1.46-13.56-3.7-2.56-2.24-3.43-5.19-3.46-7.94,0-.56.03-1.11.12-1.64.73-4.72,4.78-8.36,9.71-8.42,2.7-.03,5.16,1.02,6.97,2.74,1.77-1.77,4.21-2.87,6.91-2.9,4.87-.06,8.97,3.4,9.87,8.02h0c.12.59.18,1.19.19,1.81"/>
  <path class="cls-22" d="M157.11,53.29c0,.85-1.11,1.88-2.5,1.89-1.39.02-2.53-.99-2.54-1.83,0-.85,1.11-1.21,2.5-1.23,1.39-.02,2.52.33,2.53,1.17"/>
  <path class="cls-9" d="M154.22,53.24c-.35-.08-.59-.24-.59-.38,0-.2.46-.29,1.02-.29.27,0,.52.01.71.05.2.04.32.11.32.22,0,.2-.45.44-1.02.45-.16,0-.31-.01-.44-.04"/>
  <path class="cls-22" d="M151.72,57.8c-.88-.19-1.37-.91-1.54-1.61-.07-.3.12-.59.41-.66.3-.07.59.11.66.41.16.68.62.93,1.38.75,1.37-.32,1.41-1.99,1.41-2.06h1.1c0,.06.08,1.72,1.44,2.01,0,0,.01,0,.02,0,.76.16,1.22-.11,1.36-.79.06-.3.35-.49.65-.43h0c.3.07.48.36.42.65-.2.97-1.02,1.98-2.67,1.64,0,0-.02,0-.03,0-.83-.18-1.38-.67-1.74-1.23-.35.57-.9,1.08-1.74,1.27-.45.1-.83.11-1.17.03h0Z"/>
  <path class="cls-22" d="M146.83,67.48c-2.52-.55-4.76-1.39-6.64-2.5-4.15-2.46-6.38-6.18-6.43-10.76-.05-4.76,1.44-9.39,4.2-13.03,3.21-4.24,7.93-6.86,13.65-7.58.3-.04.58.18.62.48.04.3-.18.58-.48.62-11.74,1.49-16.98,11.15-16.88,19.51.05,4.23,2.03,7.54,5.89,9.83,3.57,2.11,8.52,3.19,14.33,3.13,9.7-.11,20.03-3.7,19.91-13.42-.07-6.07-2.96-13.83-10.87-17.41-.28-.13-.4-.45-.27-.73.13-.28.45-.4.73-.27,3.64,1.65,6.63,4.38,8.66,7.89,1.82,3.16,2.81,6.8,2.85,10.51.1,8.81-7.95,14.38-21,14.53-2.99.03-5.77-.23-8.27-.78h0Z"/>
  <path class="cls-24" d="M151.11,52.89c-.39,2.95-2.75,3.67-5.83,4.95-1.93.8-3.26,1.97-4.12,3-2.56-2.24-3.43-5.19-3.46-7.94,0-.56.03-1.11.12-1.64,1.8-1.92,4.66-3.77,8.82-3.32,3.04.33,4.76,2.83,4.48,4.94h0Z"/>
  <path class="cls-24" d="M171.47,52.51c.03,2.72-.76,5.65-3.2,7.94-.89-.99-2.22-2.09-4.13-2.83-3.11-1.21-5.49-1.87-5.95-4.81-.33-2.11,1.34-4.65,4.37-5.05,4.01-.53,6.86,1.13,8.72,2.94h0c.12.59.18,1.19.19,1.81h0Z"/>
  <path class="cls-22" d="M151.56,34.68c-.21-.04-.38-.21-.42-.42-.06-.3.13-.59.42-.66.04,0,3.92-.88,5.8-4.19.28-.49.8-.77,1.37-.72.56.05,1.02.41,1.21.95.72,2.08.54,3.8-.53,4.97-.21.23-.55.24-.78.04-.23-.21-.24-.55-.04-.78.98-1.07.7-2.69.3-3.86-.06-.17-.21-.21-.27-.21-.06,0-.21,0-.31.16-2.13,3.75-6.35,4.69-6.53,4.72-.08.02-.16.02-.23,0h0Z"/>
  <path class="cls-22" d="M164.25,36.35s-.08-.02-.12-.04c-.27-.13-.39-.46-.26-.74.36-.76.58-2.02.61-3.65,0-.23-.15-.32-.22-.35-.07-.03-.25-.09-.42.07-1.63,1.5-3.09,2.36-4.34,2.57-.3.05-.58-.16-.63-.46-.05-.3.16-.58.46-.63,1.01-.17,2.32-.96,3.77-2.29.45-.41,1.07-.51,1.62-.26.55.25.88.78.87,1.38-.04,1.81-.28,3.19-.72,4.1-.11.24-.37.35-.62.3h0Z"/>
  <path class="cls-22" d="M142.76,52.8c.1-.14.18-.24.28-.34.09-.1.19-.2.3-.29.1-.09.21-.17.32-.25.11-.08.23-.15.35-.22.48-.27,1.01-.46,1.58-.55.28-.05.57-.05.85-.05.28.03.57.05.84.14.55.14,1.05.42,1.46.78.25.22.27.6.05.85-.12.13-.28.2-.44.2h-.13c-.23,0-.43-.04-.64-.05-.1,0-.2-.01-.3-.02-.1-.01-.2,0-.29,0-.19-.01-.38,0-.57,0-.19.02-.37.02-.56.06-.37.05-.75.13-1.14.24l-.29.09c-.1.03-.2.06-.3.1l-.3.1c-.1.03-.21.08-.29.09l-.21.04c-.32.06-.62-.15-.68-.47-.03-.16.01-.32.1-.45h0Z"/>
  <path class="cls-22" d="M166.08,53.42c-.08-.01-.19-.06-.29-.08l-.3-.09c-.1-.03-.2-.06-.3-.09l-.29-.08c-.39-.1-.77-.17-1.14-.22-.19-.03-.37-.03-.56-.04-.19,0-.38-.01-.57,0-.09,0-.2,0-.29.01-.1.01-.2.02-.3.03-.21.01-.41.06-.64.07h-.13c-.33,0-.61-.26-.61-.59,0-.18.07-.34.19-.45.4-.37.89-.67,1.44-.82.27-.09.56-.12.84-.16.28,0,.57-.02.85.03.56.07,1.11.25,1.59.51.12.07.24.14.35.21.11.08.22.16.33.25.1.09.21.18.3.28.1.1.18.2.28.33.2.26.15.62-.11.82-.13.1-.29.14-.44.11l-.21-.03h0Z"/>
</svg>