<?xml version="1.0" encoding="UTF-8"?>
<svg id="Vrstva_1" data-name="Vrstva 1" xmlns="http://www.w3.org/2000/svg" viewBox="0 0 156.97 137.29">
  <defs>
    <style>
      .cls-1 {
        fill: #1d1d1b;
      }
    </style>
  </defs>
  <path class="cls-1" d="M45.56,30.74c-.18,1.65-1.47,2.96-3.12,3.16-.51.06-1.02.12-1.53.17-7.29.75-14.07.57-20.2-.12-1.81-.2-3.18-1.71-3.21-3.53-.03-2.4-.13-4.41-.22-5.94-.33-5.45-.84-8.22-.52-12.86.07-1.07.18-2.06.29-2.94.22-1.65,1.54-2.94,3.2-3.1,4.89-.47,10.31-.67,16.17-.42,1.81.08,3.57.2,5.27.35,1.9.17,3.36,1.77,3.3,3.68-.06,2.03-.03,3.71.02,4.96.21,5.23.89,7.49.83,12.16-.02,1.67-.13,3.16-.27,4.43Z"/>
  <path class="cls-1" d="M77.01,30.56c-.09,1.75-1.45,3.16-3.19,3.37-.42.05-.85.1-1.28.14-7.38.76-14.24.57-20.42-.15-1.75-.2-3.08-1.67-3.15-3.43-.1-2.44-.09-4.48-.06-6.02.11-4.9.56-7.45.5-12.73-.01-.9-.03-1.74-.07-2.51-.08-1.92,1.36-3.55,3.27-3.72,4.7-.42,9.87-.59,15.44-.35,1.84.08,3.63.2,5.36.36,1.88.17,3.29,1.79,3.24,3.68-.05,1.99-.04,3.66-.02,4.95.1,5.1.51,7.37.5,12.21,0,1.57-.06,2.98-.12,4.21Z"/>
  <path class="cls-1" d="M84.28,33.89c-1.58-.17-2.86-1.37-3.13-2.94-.51-2.98-.9-6.43-.95-10.25-.07-4.64.36-8.75.96-12.21.27-1.56,1.54-2.75,3.11-2.94,4.62-.56,8.23-.49,10.82-.3,1.69.13,4.43.42,8.68.58.75.03,1.45.05,2.11.06,1.94.04,3.49,1.63,3.51,3.57,0,1.28,0,2.37-.02,3.21-.14,6.73-.78,9.57-.55,15.21.03.81.08,1.57.13,2.26.15,1.95-1.27,3.66-3.21,3.85-4.19.42-8.85.62-13.9.44-2.65-.09-5.18-.28-7.56-.54Z"/>
  <path class="cls-1" d="M141.23,31c-.17,1.58-1.38,2.86-2.94,3.13-2.21.39-4.11.56-5.61.63-2.39.12-4.14.02-11.32-.53-1.63-.12-3.37-.26-5.22-.41-1.71-.13-3.09-1.46-3.29-3.16-.52-4.47-.45-7.98-.26-10.51.13-1.69.42-4.43.58-8.68.03-.9.05-1.74.07-2.5.03-1.78,1.36-3.27,3.12-3.49,3.75-.48,8.02-.78,12.73-.66,3.26.08,6.29.34,9.05.71,1.65.22,2.93,1.54,3.11,3.2.47,4.4.71,9.32.53,14.69-.09,2.66-.28,5.2-.54,7.59Z"/>
  <path class="cls-1" d="M112.93,41.54c.18-1.65,1.47-2.96,3.12-3.16.51-.06,1.02-.12,1.53-.17,7.29-.75,14.07-.57,20.2.12,1.81.2,3.18,1.71,3.21,3.53.03,2.4.13,4.41.22,5.94.33,5.45.84,8.22.52,12.86-.07,1.07-.18,2.06-.29,2.94-.22,1.65-1.54,2.94-3.2,3.1-4.89.47-10.31.67-16.17.42-1.81-.08-3.57-.2-5.27-.35-1.9-.17-3.36-1.77-3.3-3.68.06-2.03.03-3.71-.02-4.96-.21-5.23-.89-7.49-.83-12.16.02-1.67.13-3.16.27-4.43Z"/>
  <path class="cls-1" d="M81.47,41.71c.09-1.75,1.45-3.16,3.19-3.37.42-.05.85-.1,1.28-.14,7.38-.76,14.24-.57,20.42.15,1.75.2,3.08,1.67,3.15,3.43.1,2.44.09,4.48.06,6.02-.11,4.9-.56,7.45-.5,12.73.01.9.03,1.74.07,2.51.08,1.92-1.36,3.55-3.27,3.72-4.7.42-9.87.59-15.44.35-1.84-.08-3.63-.2-5.36-.36-1.88-.17-3.29-1.79-3.24-3.68.05-1.99.04-3.66.02-4.95-.1-5.1-.51-7.37-.5-12.21,0-1.57.06-2.98.12-4.21Z"/>
  <path class="cls-1" d="M74.21,38.39c1.58.17,2.86,1.37,3.13,2.94.51,2.98.9,6.43.95,10.25.07,4.64-.36,8.75-.96,12.21-.27,1.56-1.54,2.75-3.11,2.94-4.62.56-8.23.49-10.82.3-1.69-.13-4.43-.42-8.68-.58-.75-.03-1.45-.05-2.11-.06-1.94-.04-3.49-1.63-3.51-3.57,0-1.28,0-2.37.02-3.21.14-6.73.78-9.57.55-15.21-.03-.81-.08-1.57-.13-2.26-.15-1.95,1.27-3.66,3.21-3.85,4.19-.42,8.85-.62,13.9-.44,2.65.09,5.18.28,7.56.54Z"/>
  <path class="cls-1" d="M17.26,41.27c.17-1.58,1.38-2.86,2.94-3.13,2.21-.39,4.11-.56,5.61-.63,2.39-.12,4.14-.02,11.32.53,1.63.12,3.37.26,5.22.41,1.71.13,3.09,1.46,3.29,3.16.52,4.47.45,7.98.26,10.51-.13,1.69-.42,4.43-.58,8.68-.03.9-.05,1.74-.07,2.5-.03,1.78-1.36,3.27-3.12,3.49-3.75.48-8.02.78-12.73.66-3.26-.08-6.29-.34-9.05-.71-1.65-.22-2.93-1.54-3.11-3.2-.47-4.4-.71-9.32-.53-14.69.09-2.66.28-5.2.54-7.59Z"/>
  <path class="cls-1" d="M45.56,96.33c-.18,1.65-1.47,2.96-3.12,3.16-.51.06-1.02.12-1.53.17-7.29.75-14.07.57-20.2-.12-1.81-.2-3.18-1.71-3.21-3.53-.03-2.4-.13-4.41-.22-5.94-.33-5.45-.84-8.22-.52-12.86.07-1.07.18-2.06.29-2.94.22-1.65,1.54-2.94,3.2-3.1,4.89-.47,10.31-.67,16.17-.42,1.81.08,3.57.2,5.27.35,1.9.17,3.36,1.77,3.3,3.68-.06,2.03-.03,3.71.02,4.96.21,5.23.89,7.49.83,12.16-.02,1.67-.13,3.16-.27,4.43Z"/>
  <path class="cls-1" d="M77.01,96.16c-.09,1.75-1.45,3.16-3.19,3.37-.42.05-.85.1-1.28.14-7.38.76-14.24.57-20.42-.15-1.75-.2-3.08-1.67-3.15-3.43-.1-2.44-.09-4.48-.06-6.02.11-4.9.56-7.45.5-12.73-.01-.9-.03-1.74-.07-2.51-.08-1.92,1.36-3.55,3.27-3.72,4.7-.42,9.87-.59,15.44-.35,1.84.08,3.63.2,5.36.36,1.88.17,3.29,1.79,3.24,3.68-.05,1.99-.04,3.66-.02,4.95.1,5.1.51,7.37.5,12.21,0,1.57-.06,2.98-.12,4.21Z"/>
  <path class="cls-1" d="M84.28,99.49c-1.58-.17-2.86-1.37-3.13-2.94-.51-2.98-.9-6.43-.95-10.25-.07-4.64.36-8.75.96-12.21.27-1.56,1.54-2.75,3.11-2.94,4.62-.56,8.23-.49,10.82-.3,1.69.13,4.43.42,8.68.58.75.03,1.45.05,2.11.06,1.94.04,3.49,1.63,3.51,3.57,0,1.28,0,2.37-.02,3.21-.14,6.73-.78,9.57-.55,15.21.03.81.08,1.57.13,2.26.15,1.95-1.27,3.66-3.21,3.85-4.19.42-8.85.62-13.9.44-2.65-.09-5.18-.28-7.56-.54Z"/>
  <path class="cls-1" d="M141.23,96.6c-.17,1.58-1.38,2.86-2.94,3.13-2.21.39-4.11.56-5.61.63-2.39.12-4.14.02-11.32-.53-1.63-.12-3.37-.26-5.22-.41-1.71-.13-3.09-1.46-3.29-3.16-.52-4.47-.45-7.98-.26-10.51.13-1.69.42-4.43.58-8.68.03-.9.05-1.74.07-2.5.03-1.78,1.36-3.27,3.12-3.49,3.75-.48,8.02-.78,12.73-.66,3.26.08,6.29.34,9.05.71,1.65.22,2.93,1.54,3.11,3.2.47,4.4.71,9.32.53,14.69-.09,2.66-.28,5.2-.54,7.59Z"/>
  <path class="cls-1" d="M112.93,107.64c.18-1.65,1.47-2.96,3.12-3.16.51-.06,1.02-.12,1.53-.17,7.29-.75,14.07-.57,20.2.12,1.81.2,3.18,1.71,3.21,3.53.03,2.4.13,4.41.22,5.94.33,5.45.84,8.22.52,12.86-.07,1.07-.18,2.06-.29,2.94-.22,1.65-1.54,2.94-3.2,3.1-4.89.47-10.31.67-16.17.42-1.81-.08-3.57-.2-5.27-.35-1.9-.17-3.36-1.77-3.3-3.68.06-2.03.03-3.71-.02-4.96-.21-5.23-.89-7.49-.83-12.16.02-1.67.13-3.16.27-4.43Z"/>
  <path class="cls-1" d="M81.47,107.82c.09-1.75,1.45-3.16,3.19-3.37.42-.05.85-.1,1.28-.14,7.38-.76,14.24-.57,20.42.15,1.75.2,3.08,1.67,3.15,3.43.1,2.44.09,4.48.06,6.02-.11,4.9-.56,7.45-.5,12.73.01.9.03,1.74.07,2.51.08,1.92-1.36,3.55-3.27,3.72-4.7.42-9.87.59-15.44.35-1.84-.08-3.63-.2-5.36-.36-1.88-.17-3.29-1.79-3.24-3.68.05-1.99.04-3.66.02-4.95-.1-5.1-.51-7.37-.5-12.21,0-1.57.06-2.98.12-4.21Z"/>
  <path class="cls-1" d="M74.21,104.49c1.58.17,2.86,1.37,3.13,2.94.51,2.98.9,6.43.95,10.25.07,4.64-.36,8.75-.96,12.21-.27,1.56-1.54,2.75-3.11,2.94-4.62.56-8.23.49-10.82.3-1.69-.13-4.43-.42-8.68-.58-.75-.03-1.45-.05-2.11-.06-1.94-.04-3.49-1.63-3.51-3.57,0-1.28,0-2.37.02-3.21.14-6.73.78-9.57.55-15.21-.03-.81-.08-1.57-.13-2.26-.15-1.95,1.27-3.66,3.21-3.85,4.19-.42,8.85-.62,13.9-.44,2.65.09,5.18.28,7.56.54Z"/>
  <path class="cls-1" d="M17.26,107.38c.17-1.58,1.38-2.86,2.94-3.13,2.21-.39,4.11-.56,5.61-.63,2.39-.12,4.14-.02,11.32.53,1.63.12,3.37.26,5.22.41,1.71.13,3.09,1.46,3.29,3.16.52,4.47.45,7.98.26,10.51-.13,1.69-.42,4.43-.58,8.68-.03.9-.05,1.74-.07,2.5-.03,1.78-1.36,3.27-3.12,3.49-3.75.48-8.02.78-12.73.66-3.26-.08-6.29-.34-9.05-.71-1.65-.22-2.93-1.54-3.11-3.2-.47-4.4-.71-9.32-.53-14.69.09-2.66.28-5.2.54-7.59Z"/>
</svg>