<?xml version="1.0" encoding="UTF-8"?>
<svg id="Vrstva_1" data-name="Vrstva 1" xmlns="http://www.w3.org/2000/svg" viewBox="0 0 79.37 79.37">
  <defs>
    <style>
      .cls-1 {
        fill: #ecc18e;
      }

      .cls-2 {
        fill: #efcea9;
      }

      .cls-3 {
        fill: #bf8678;
      }

      .cls-4 {
        fill: #9d9d9c;
      }

      .cls-5 {
        fill: #fcf8f7;
      }

      .cls-6 {
        fill: #64140e;
      }

      .cls-7 {
        fill: #967660;
      }
    </style>
  </defs>
  <path class="cls-4" d="M28.64,75.77c-1.94-.08-11.94-.51-11.99-1.49-.02-.35,1.51-.68,2.24-.75l6.04-.5c.06.66.42,1.18,1.06,1.38.45.14.92.15,1.4.08.66.4,1.42.47,2.2.19.77.32,1.58.24,2.43.08l1.48-.27c1.23-.12,2.23-.79,2.73-1.91l.12-.15c1.37,0,2.75.02,4.13.04l.14.16c.61,1.3,1.92,1.95,3.37,1.91,1.06.39,2.2.55,3.26.14.79.25,1.54.18,2.21-.2.62.09,1.26.03,1.8-.29.43-.25.63-.74.65-1.22,2.1.13,4.2.28,6.31.6l1.73.42c.09.02.25.2.24.28-.02.97-9.94,1.42-11.83,1.49"/>
  <g>
    <path class="cls-6" d="M51.92,72.97c.11.04.13.09.14.19.08,1.1-1.66,1.75-2.57,1.47-.66.4-1.5.45-2.23.2-1.06.42-2.25.25-3.29-.14-.87.03-1.75-.2-2.45-.73-.38-.28-1.01-.86-.89-1.34-.05-.03-.1-.05-.14-.09s-.08-.07-.09-.11c-.18-.51-.29-1.05-.4-1.59l-.25-3.61c-.87.08-1.74.09-2.61.04l-.23,3.35c-.09.62-.23,1.22-.43,1.81l-.23.14c.12.47-.49,1.06-.86,1.34-.77.6-2.58.93-3.6,1.04-.84.09-1.15.08-1.98-.04-.07-.01-.15-.05-.21-.09-.72.28-1.57.22-2.23-.2-.83.14-1.84,0-2.32-.76-.14-.22-.37-.68-.11-.85-.05-.64.15-1.23.46-1.81l-1.15-7.35c-.36.42-.88.54-1.37.24-.89.32-1.7-.1-2.34-.77-.91-.95-1.25-2.19-1.54-3.47-.52-2.25-.58-4.44-.12-6.73.97-4.86,3.39-10.47,7.04-14.01-4.42-2.01-7.54-5.65-7.8-10.53-.2-3.78.68-7.55,2.45-10.85,2.97-5.55,8.36-9.06,14.58-9.85,2.42-.3,4.68-1.91,5.99-3.9.36-.54.64-.89,1.26-.86.56.03,1.02.39,1.2.97.31,1.01.48,2.02.23,3.14,1.14-.45,2.03-1.21,2.93-1.99.39-.34.9-.46,1.38-.27.43.17.82.58.84,1.14.04,1.25-.15,2.49-.52,3.69,7.21,3.38,11.32,11.63,10.58,19.37-.45,4.74-3.73,8.16-8,10.03,2.96,2.96,4.96,7.07,6.22,11.01.66,2.18,1.08,4.36,1.03,6.61-.02.83-.18,1.58-.32,2.37-.21,1.16-.45,2.27-1.05,3.28-.64,1.08-1.71,2.02-2.91,1.61-.48.3-1.05.21-1.41-.24l-1.15,7.35c.29.56.49,1.13.45,1.75Z"/>
    <g>
      <g>
        <g>
          <path class="cls-5" d="M46.74,73.94c-.8.29-1.6.08-2.34-.17-.09-1.1.64-2.69,1.41-2.8.65-.1,1.28,1.85.93,2.97Z"/>
          <path class="cls-5" d="M48.97,73.77c-.44.31-.95.28-1.37.13.14-1.02-.02-1.93-.44-2.81.15-.16.37-.29.58-.3.8-.05,1.56,1.78,1.23,2.98Z"/>
          <path class="cls-5" d="M51.04,73.29c-.31.36-.74.42-1.19.38.11-.94-.09-1.84-.54-2.73.29-.13.62-.08.88.12.68.5,1.01,1.37.84,2.24Z"/>
        </g>
        <path class="cls-5" d="M53.58,60.68l.15.06.86.12c-.08,1.45-1.14,3.29-1.44,2.21l-.07-.24s.03-.13.05-.17c-.01-.64.02-1.28.11-1.92l.17-.09.17.02Z"/>
        <path class="cls-5" d="M23.12,60.75c.17-.04.33-.05.48-.03.15.64.19,1.27.12,1.9v.29s0,.12,0,.12c-.14,1.15-1.32-.49-1.46-2.2l.87-.08Z"/>
        <path class="cls-5" d="M56.34,60.63c.16.12.19.32.09.58l-.51,1.12-.06.17-.07.1c-.27.33-.63.63-1.11.75.43-.82.71-1.66.77-2.56l.88-.16Z"/>
        <path class="cls-5" d="M20.63,60.67l.78.11c.07.88.32,1.7.78,2.55-.4-.08-.83-.32-1.01-.67-.41-.59-.86-1.3-.83-2.02l.29.03Z"/>
        <path class="cls-3" d="M23.71,62.62l-.25-1.88h-.34s.82-.22.82-.22l-.08,1.92s-.02.13-.05.13l-.09.04Z"/>
        <polygon class="cls-2" points="53.45 60.68 53.14 63.01 52.91 60.52 53.45 60.68"/>
        <path class="cls-2" d="M20.63,60.67h-.18c.1.73.4,1.35.73,1.99-.6-.57-.92-1.31-1.13-2.16l.59.17Z"/>
        <path class="cls-2" d="M55.83,62.55c.21-.62.47-1.25.47-1.9l.54-.21c-.17.79-.48,1.55-1.01,2.11Z"/>
        <path class="cls-3" d="M58.04,30.03c-.38,2.05-1.38,3.88-2.86,5.41-1.53,1.5-3.34,2.59-5.34,3.37-.92.36-1.8.67-2.69,1.28,1.06.16,1.99-.15,2.98-.48l1.13,1.07c.14.18-.07.31-.24.17-2.14.94-4.36,1.56-6.72,1.92-3.22.49-6.39.54-9.64.24-3.05-.29-5.94-1.03-8.71-2.21-.16.17-.34,0-.25-.2.34-.38.74-.73,1.17-1.04.84.3,1.66.53,2.62.44-.84-.65-1.75-.96-2.65-1.36-3.74-1.64-6.91-4.39-7.62-8.51.11,0,.19.14.25.29,2.03,4.68,7.05,7.15,11.91,8.09,4.94.95,10.06.92,14.97-.14,4.93-1.06,9.72-3.64,11.69-8.32Z"/>
        <path class="cls-2" d="M53.15,63.07l-.07-.24.07.24Z"/>
        <path class="cls-3" d="M43.77,72.31c-.14.43-.19.89-.19,1.37-1.25-.06-2.19-.9-2.44-2.16-.31-1.54-.36-3.13-.38-4.7.51-.3,1.07-.42,1.36-.97-2.5.62-4.85.58-7.33.02.33.51.82.68,1.34.94-.03,1.57-.08,3.16-.39,4.7-.26,1.27-1.19,2.13-2.44,2.18-.01-.48-.07-.94-.19-1.38,1.83-.4,2.26-2.82,1.88-4.56-.11-.51-.5-.87-.82-1.26-.89-.91-1.69-1.85-2.44-2.84l-.06-.07.08-.05.04.02c4.27,2.01,9.14,1.97,13.47-.06-.78,1.12-1.63,2.05-2.53,3-.37.39-.73.8-.83,1.35-.33,1.77.09,4.02,1.89,4.48Z"/>
        <path class="cls-2" d="M53.73,60.74s-.15-.04-.15-.06l.15.06Z"/>
        <path class="cls-2" d="M55.79,62.6l.07-.1s-.05.08-.07.1Z"/>
        <path class="cls-3" d="M23.71,63.03v-.12s0,.12,0,.12Z"/>
        <path class="cls-3" d="M25.15,53.01l-.6,5.09c-.07.56-.26,1.07-.62,1.49-1.3.58-2.84.56-4.07-.17-.33-.95-.41-1.9-.42-2.85l.5,1.13c.3.73.96,1.22,1.66,1.29,1.77.19,2.35-1.35,2.77-3l.65-2.89.14-.09Z"/>
        <g>
          <path class="cls-1" d="M51.93,61.64l.1.35-1.3,8.44c-.65-.48-1.36-.55-1.99-.11-.64-.49-1.48-.49-2.08.07-.52-.34-1.15-.33-1.65.04-.64.47-1.02,1.16-1.25,1.88-.24.21-.63-.07-.87-.23-1.45-1.04-1.78-4.2-.49-5.49.83-.85,1.61-1.75,2.35-2.7-2.76,1.15-5.78,1.58-8.73,1.13-1.12-.17-2.98-.58-3.93-1.14-.14-.08-.24-.19-.33-.32l-.06.09c.15.08.31.17.42.3.71.82,1.41,1.63,2.13,2.44.76.86.97,1.28.98,2.47s-.29,2.51-1.25,3.21c-.24.17-.67.47-.91.25-.18-.62-.52-1.21-.99-1.67-.54-.53-1.26-.65-1.9-.25-.62-.53-1.43-.56-2.09-.1-.66-.37-1.36-.35-1.99.14l-1.29-8.36v-.09s-.01-.16-.01-.16l.04-.2c.94-.65,1.14-1.96,1.16-3.04-.05-2.42-.08-4.9.3-7.31.3-1.48.67-3.2.93-4.69,0-.47-.12-.57-.34-.02-1.74,3.67-1.58,7.48-2.93,11.07-1.14,2.61-4.29,1.69-4.54-1,.1-5.02,2.67-11.76,6.02-15.53.72-.76,1.94.2,2.76.34,1.86.61,3.69,1.09,5.65,1.32,5.6.68,11.43.19,16.68-1.84.19-.07.36-.09.52-.03,3.52,3.55,6.43,10.96,6.34,15.95-.15,1.78-2.44,3.15-3.85,1.83-.9-.95-1.14-2.4-1.45-3.63-.56-2.93-.95-5.98-2.3-8.71-.14-.43-.21.04-.2.26.26,1.45.68,3.44.97,4.95.3,2.41.31,4.86.29,7.3,0,1.06.27,2.1,1.06,2.83Z"/>
          <g>
            <path class="cls-3" d="M52.04,61.99l-.36-.4c-.74-.72-.96-1.8-.97-2.87,0-2.43.03-4.8-.13-7.17l.75,5.62c.12,1.03.24,2.02.84,2.87l-.13,1.95Z"/>
            <path class="cls-3" d="M24.82,61.81c-.12-.61-.13-1.28-.07-1.9.52-.76.65-1.63.75-2.52.23-2,.41-3.97.78-5.91-.11,2.24-.17,4.48-.11,6.78.04,1.32-.24,2.96-1.35,3.55Z"/>
            <path class="cls-2" d="M25.99,40.81c-1.89,2.07-3.34,4.65-4.5,7.36-.77,1.81-1.34,3.64-1.65,5.6,0,.05-.01.14-.04.14l-.1.02c.67-4.46,3.06-10.1,5.99-13.34l.3.22Z"/>
            <path class="cls-2" d="M57.09,53.41c-.42-1.61-.78-3.25-1.48-4.82-1.17-2.81-2.62-5.48-4.59-7.75l.24-.17c2.95,3.4,5.08,8.31,5.84,12.73Z"/>
            <path class="cls-3" d="M24.83,62.06v-.09s0,.09,0,.09Z"/>
            <path class="cls-3" d="M26.34,51.18l.03-.1-.03.1Z"/>
          </g>
        </g>
        <path class="cls-3" d="M57.43,56.73c-.03.89-.1,1.79-.43,2.68-1.23.77-2.8.76-4.11.17-.36-.52-.5-1.05-.62-1.66l-.49-4.41s.18.04.14.03c.31,1.4.6,2.71,1.09,4.01.34.81.95,1.4,1.74,1.46.89.07,1.66-.34,2.11-1.15l.57-1.13Z"/>
        <g>
          <path class="cls-5" d="M32.46,73.74c-.72.32-1.55.47-2.33.22-.27-.93-.03-1.9.42-2.72.14-.12.31-.25.43-.26.7-.04,1.55,1.59,1.48,2.76Z"/>
          <path class="cls-5" d="M29.27,73.87c-.42.22-1,.21-1.39-.12-.29-1.09.33-2.94,1.18-2.96.22,0,.46.13.63.3-.41.86-.56,1.73-.42,2.78Z"/>
          <path class="cls-5" d="M27.03,73.65c-.49.1-.93,0-1.22-.38-.15-.84.17-1.71.85-2.22.26-.2.58-.24.9-.1-.43.83-.65,1.72-.53,2.7Z"/>
        </g>
      </g>
      <g>
        <path class="cls-2" d="M58.27,27.95c-.62-6.76-4.22-12.85-10.21-16.33-.65-.38-.84-1.27-.72-1.95.17-.98.6-2.67.17-2.94-.09-.06-.34-.05-.43.01-1.09.84-2.21,1.54-3.47,2.09l-.55-.1c.16-.45.54-.51.96-.66,2.17-.78,3.29-2.57,3.87-2.28.17.08.28.33.27.54-.07,1.14-.13,2.21-.52,3.27-.06.17-.3.6,0,.73,6.93,3.19,10.7,10.14,10.63,17.61Z"/>
        <path class="cls-2" d="M43,6.9c0-.58-.18-1.23-.54-1.73-.15-.21-.6.04-.72.25-.69,1.23-1.65,2.11-2.8,2.89-1.37.92-2.78,1.32-4.41,1.56-3.14.46-6.11,1.53-8.67,3.43-1.38,1.02-2.7,2.2-3.69,3.58,2.97-4.76,7.81-7.52,13.41-8.16,2.66-.64,4.97-2.1,6.4-4.47.08-.14.28-.26.43-.25.55.03.8,1.99.59,2.9Z"/>
        <g>
          <path class="cls-1" d="M43,6.9c-.01.93-1.02,1.4-.54,1.87.14.14.43.09.61-.03.11-.14.29-.16.52-.05,1.24-.54,2.38-1.3,3.46-2.1.84-.23.82.51.78,1.1-.11.81-.25,1.6-.43,2.39.01.41.28,1.06.61,1.32,5.89,3.39,10.02,9.71,10.27,16.56l-.14,1.58-.07.14-.02.36c-.65,2.3-2.49,4.17-4.42,5.49-6.06,4.16-15.23,4.34-22.27,3.11-4.93-.86-10.29-3.66-12.13-8.53-.18-1.05-.32-2.05-.25-3.19.22-3.55,1.12-7.19,3.2-10.05,2.92-4.34,7.95-6.65,13.04-7.27,2.64-.54,4.36-1.56,6.04-3.68,1-1.96,1.93-.57,1.75.98Z"/>
          <path class="cls-3" d="M58.06,29.67s.03-.1.07-.14c0,.03-.06.14-.07.14Z"/>
          <g>
            <path class="cls-7" d="M54.57,24.58c.62,3.54-.38,7.18-3.06,9.62-2.28-2.77-5.28-3.02-7.71-4.52-1.56-.97-2.4-2.79-1.9-4.59.47-1.68,1.86-2.91,3.57-3.29,3.33-.75,6.7.41,9.09,2.78Z"/>
            <path class="cls-6" d="M50.12,27.1c-.46.57-2.15-1.31-5.21-.45-.24.07-.54-.08-.6-.29-.27-1.09,3.65-2.42,5.85.19.1.12.04.45-.04.55Z"/>
          </g>
          <g>
            <path class="cls-7" d="M25.18,34.31c-.83-.74-1.52-1.54-2.06-2.55-1.15-2.14-1.52-4.6-1.13-7.01,2.15-2.13,5.05-3.36,8.14-3.1,1.3.11,2.51.52,3.46,1.41,1.04.98,1.57,2.31,1.33,3.75-.43,2.62-2.83,3.46-5.13,4.36-1.77.69-3.36,1.64-4.61,3.13Z"/>
            <path class="cls-6" d="M32.71,26.29c-.09,1.01-1.9-.72-5.2.93-.2.1-.56.03-.66-.14-.11-.18-.06-.46.12-.65,2.22-2.4,5.82-1.13,5.74-.14Z"/>
          </g>
          <g>
            <path class="cls-5" d="M54.57,24.58l-.33-.1c-2.71-2.9-9.72-4.3-11.85-.17-1.43,2.76.52,5.2,3.17,6.09l2.45,1.03c.81.33,3.32,1.84,3.49,2.59.01.06.02.12.02.18-2.6,2.37-6.19,3.34-9.69,3.68-4.27.41-9.29.19-13.25-1.45-1.28-.53-2.39-1.22-3.39-2.12,0-.06.01-.13.03-.19s.03-.11.07-.15c1.49-1.78,3.79-2.68,5.88-3.49,2.6-.86,4.66-3.38,3.22-6.12-2.21-4.2-9.32-2.65-12.05.3l-.33.11c.63-3.54,3.14-6.43,6.54-7.54s7.13-.26,9.75,2.21c2.6-2.47,6.3-3.34,9.69-2.27s5.92,3.91,6.6,7.42Z"/>
            <path class="cls-6" d="M36.07,30.17c2.85,1.24,4.56-.21,5,.13.14.11.23.48.09.62-1.56,1.52-3.97,1.47-5.57.01-.17-.15-.22-.37-.14-.59.06-.16.39-.26.61-.17Z"/>
            <g>
              <path class="cls-6" d="M40.64,27.61c-.44.83-1.37,1.31-2.25,1.32-1.5.02-2.84-1.16-2.49-2.15s2.81-1.12,4.16-.63c.62.23.91.83.58,1.46Z"/>
              <path class="cls-3" d="M39.36,26.6c.03.63-2.13.51-1.98,0,.12-.41,1.96-.35,1.98,0Z"/>
            </g>
          </g>
        </g>
      </g>
    </g>
  </g>
</svg>