<?xml version="1.0" encoding="UTF-8"?>
<svg id="Vrstva_1" data-name="Vrstva 1" xmlns="http://www.w3.org/2000/svg" viewBox="0 0 129.28 118.48">
  <defs>
    <style>
      .cls-1 {
        fill: #ea6914;
      }

      .cls-2 {
        fill: #e0bda6;
      }

      .cls-3 {
        fill: #fefbfc;
      }

      .cls-4 {
        fill: #629330;
      }

      .cls-5 {
        fill: #ead1c0;
      }

      .cls-6 {
        fill: #68aa31;
      }

      .cls-7 {
        fill: #71b746;
      }

      .cls-8 {
        fill: #ecc18e;
      }

      .cls-9 {
        fill: #fff;
      }

      .cls-10 {
        fill: #a73617;
      }

      .cls-11 {
        fill: #b9e2f8;
      }

      .cls-12 {
        fill: #f6b689;
      }

      .cls-13 {
        fill: #d0b2b2;
      }

      .cls-14 {
        fill: #932714;
      }

      .cls-15 {
        fill: #ee853e;
      }

      .cls-16 {
        fill: #b27059;
      }

      .cls-17 {
        fill: #b27d7e;
      }

      .cls-18 {
        fill: #ca7d5f;
      }

      .cls-19 {
        fill: #c24b17;
      }

      .cls-20 {
        fill: #96c778;
      }

      .cls-21 {
        fill: #64140e;
      }

      .cls-22 {
        fill: #954e4e;
      }

      .cls-23 {
        fill: #967660;
      }
    </style>
  </defs>
  <path class="cls-7" d="M65.25,27.5s-2.61-.49-2.27-3.92c.01-.15.03-.29.04-.43.21-2.8-.39-3.63-.39-3.63,0,0,3.61,1.34,4.21,3.87h0c.27,1.13-.07,2.51-1.59,4.11"/>
  <path class="cls-20" d="M66.5,23.58c-.65-1.4-2.17-2.35-3.14-2.84-.03-.2-.06-.37-.09-.52,1.05.53,2.83,1.65,3.21,3.28,0,.03.01.06.02.09"/>
  <path class="cls-4" d="M64.86,26.85c-.14-.04-.27-.08-.4-.12-.56-.41-1.17-1.21-1.12-2.72.27.51.72.92,1.43,1.02.07,0,.14.02.21.02,0,.35,0,.7-.03,1.05-.01.22-.04.44-.07.66,0,.03,0,.06-.01.1M65.43,26.73c0-.21.02-.42,0-.63,0-.36-.02-.73-.06-1.09.56-.09.93-.42,1.17-.86-.02.82-.39,1.68-1.12,2.57"/>
  <path class="cls-21" d="M63.28,20.21c.15.66.25,1.74.08,3.4-.25,2.54,1.23,3.28,1.78,3.46,1.15-1.27,1.61-2.47,1.35-3.59-.37-1.62-2.16-2.75-3.21-3.28M65.2,27.87s-.01,0-.02,0c-.03,0-2.94-.6-2.57-4.32.29-2.9-.28-3.81-.29-3.82-.1-.13-.09-.31,0-.44.1-.13.27-.18.43-.12.16.06,3.82,1.44,4.45,4.15.33,1.42-.24,2.91-1.69,4.43-.08.09-.2.13-.32.11"/>
  <path class="cls-21" d="M64.67,22.06c.19.43.32.86.43,1.31.11.45.19.9.25,1.36.05.46.09.92.09,1.38,0,.23,0,.46-.01.69,0,.23-.03.46-.05.69-.01.17-.16.3-.33.29-.17-.01-.3-.16-.29-.33,0,0,0-.02,0-.03v-.02c.04-.22.08-.44.1-.66.02-.22.06-.44.07-.66.04-.44.04-.89.03-1.33-.02-.45-.06-.89-.13-1.33-.07-.44-.16-.88-.31-1.3h0s0-.09.05-.1c.04-.01.08,0,.1.04"/>
  <path class="cls-7" d="M104.86,45.05s2.6-.52,2.21-3.95c-.02-.15-.03-.29-.04-.43-.25-2.8.34-3.64.34-3.64,0,0-3.59,1.39-4.16,3.93h0c-.25,1.14.1,2.51,1.65,4.09"/>
  <path class="cls-20" d="M103.55,41.15s.01-.06.02-.09c.35-1.63,2.12-2.77,3.16-3.32-.03.15-.06.32-.08.52-.96.5-2.47,1.48-3.1,2.89"/>
  <path class="cls-4" d="M105.26,44.51c-.01-.07-.02-.14-.03-.21-.03-.22-.06-.44-.08-.66-.04-.35-.05-.7-.05-1.05.84-.05,1.33-.5,1.63-1.06.09,1.88-.86,2.67-1.47,2.98M104.67,44.29c-.74-.88-1.13-1.74-1.16-2.56.25.43.62.76,1.18.84-.03.36-.05.72-.04,1.09,0,.21,0,.42.02.63"/>
  <path class="cls-21" d="M106.74,37.75c-1.04.54-2.81,1.69-3.16,3.32-.24,1.12.23,2.32,1.4,3.57.54-.19,2.02-.95,1.73-3.48-.19-1.66-.1-2.74.03-3.4M104.81,45.42c-.08-.01-.16-.05-.22-.11-1.47-1.5-2.06-2.98-1.75-4.41.59-2.72,4.24-4.15,4.39-4.21.15-.06.33-.01.43.12.1.13.11.31.01.44,0,0-.56.92-.23,3.81.42,3.72-2.48,4.35-2.51,4.35-.04,0-.08,0-.12,0"/>
  <path class="cls-21" d="M105.51,39.67c-.14.42-.22.87-.29,1.31-.06.44-.1.89-.11,1.33,0,.45,0,.89.05,1.33.01.22.05.44.08.66.03.22.07.44.11.65v.02c.03.17-.08.33-.25.36-.17.03-.33-.09-.36-.26,0,0,0-.02,0-.03-.02-.23-.04-.46-.06-.69,0-.23-.02-.46-.02-.69,0-.46.03-.92.07-1.38.05-.46.13-.91.23-1.36.11-.45.23-.89.41-1.31.02-.04.06-.06.1-.04.04.02.06.06.04.1h0"/>
  <path class="cls-7" d="M64.16,29.17s.5,2.61-2.82,3.54c-.14.04-.28.08-.41.12-2.69.82-3.24,1.69-3.24,1.69,0,0-.07-3.85,2.07-5.33h0c.96-.66,2.36-.85,4.4-.02"/>
  <path class="cls-4" d="M61.61,32.24c.41-.48.64-1.11.37-1.91.33-.13.66-.25.99-.35.21-.07.43-.12.64-.18.07-.02.14-.03.2-.05-.06.68-.42,1.86-2.2,2.49M61.81,29.96c-.28-.49-.72-.71-1.22-.78,0,0,0,0,0,0,.51-.19,1.09-.24,1.74-.15.22.03.45.08.69.14.12.04.23.08.35.12-.19.07-.37.13-.55.21-.34.13-.67.29-.99.45"/>
  <path class="cls-21" d="M62.32,29.03c-.92-.13-1.71.02-2.33.45-1.38.94-1.77,3.01-1.88,4.18.56-.38,1.53-.86,3.14-1.32,2.45-.69,2.6-2.35,2.57-2.92-.54-.2-1.04-.34-1.5-.4M57.64,34.9s-.03,0-.05-.01c-.16-.04-.27-.19-.27-.35,0-.17-.05-4.08,2.24-5.66,1.2-.83,2.8-.84,4.74-.05.12.05.2.15.23.28,0,.03.52,2.95-3.08,3.97-2.8.79-3.44,1.65-3.45,1.66-.08.12-.22.18-.36.16"/>
  <path class="cls-21" d="M59.31,31.7c.33-.33.69-.61,1.06-.88.38-.26.77-.51,1.17-.73.41-.21.82-.42,1.25-.59.21-.09.43-.16.65-.24.22-.08.44-.14.66-.21.16-.05.34.04.39.2.05.16-.04.34-.2.39,0,0-.02,0-.02,0h-.02c-.22.05-.43.09-.65.15-.21.06-.43.11-.64.18-.43.12-.84.29-1.25.46-.41.18-.81.38-1.19.61-.38.23-.76.48-1.1.76h0s-.08.03-.11,0c-.03-.03-.02-.08,0-.1"/>
  <path class="cls-8" d="M70.74,53.99c6.86-6.08,8.75-15.55,10.9-18.59,1.81-2.56,5.74-2.03,6.6.64.8,2.49.35,13.18-4.92,19.51l-12.59-1.56"/>
  <path class="cls-21" d="M70.69,54.38c-.09-.01-.18-.06-.24-.13-.15-.16-.13-.41.03-.56,4.65-4.12,6.99-9.83,8.7-14,.81-1.97,1.45-3.53,2.14-4.51.96-1.35,2.57-2.03,4.21-1.78,1.5.23,2.66,1.18,3.09,2.53.82,2.57.39,13.41-4.99,19.89-.14.17-.39.19-.56.05-.17-.14-.19-.39-.05-.56,2.83-3.4,4.09-7.87,4.64-11.02.65-3.65.59-6.91.2-8.12-.34-1.06-1.26-1.8-2.45-1.98-1.34-.21-2.66.35-3.44,1.46-.65.91-1.3,2.51-2.06,4.36-1.74,4.24-4.12,10.06-8.91,14.3-.09.08-.21.11-.32.1"/>
  <path class="cls-8" d="M81.51,59.74c6.86-6.08,8.75-15.55,10.9-18.59,1.81-2.56,5.74-2.03,6.6.64.8,2.49.35,13.18-4.92,19.51l-12.59-1.56"/>
  <path class="cls-21" d="M81.46,60.13c-.09-.01-.18-.06-.24-.13-.15-.16-.13-.41.03-.56,4.65-4.12,6.99-9.83,8.7-14,.81-1.97,1.45-3.53,2.14-4.51.96-1.35,2.57-2.03,4.21-1.78,1.5.23,2.66,1.18,3.09,2.53.82,2.57.39,13.41-4.99,19.89-.14.17-.39.19-.56.05-.17-.14-.19-.39-.05-.56,2.83-3.4,4.09-7.87,4.64-11.02.65-3.65.59-6.91.2-8.12-.34-1.06-1.26-1.8-2.45-1.98-1.35-.21-2.66.35-3.44,1.46-.65.91-1.3,2.51-2.06,4.36-1.74,4.24-4.12,10.06-8.91,14.3-.09.08-.21.11-.32.1"/>
  <path class="cls-16" d="M86.91,47.57c0-.06,0-.12,0-.18.04-.08.07-.15.11-.23-.04.14-.08.27-.12.41"/>
  <path class="cls-21" d="M85.59,52.91c-.19-.07-.39-.15-.6-.22,1.12-1.46,1.79-3.16,1.91-5.12.04-.14.08-.27.12-.41.6-1.3,1.12-2.56,1.58-3.7-.45,3.02-1.37,6.45-3.02,9.45"/>
  <path class="cls-16" d="M87.95,54c-.19-.1-.51-.28-.94-.48,1.6-2.72,2.73-5.48,3.67-7.78.07-.17.14-.34.2-.5-.05.25-.09.5-.14.75-.59,3.22-1.32,7.2-2.8,8.01"/>
  <path class="cls-21" d="M87.01,53.52c-.22-.1-.46-.21-.73-.33,1.6-2.7,2.73-5.46,3.67-7.75.24-.59.47-1.15.69-1.67.16.11.31.21.47.32-.07.37-.15.75-.22,1.15-.07.16-.14.33-.2.5-.94,2.3-2.07,5.06-3.67,7.78"/>
  <path class="cls-15" d="M56.76,25.82c.1-.46.56-.74,1.01-.62,3.84,1.04,20.02,5.6,28.85,10.74,25.91,15.08,33.21,11.2,35.27,13.61,1.32,1.55.45,8.69-3.74,8.3-6.87-.63-20.66-9.75-31.34-17.23-10.46-7.32-18.85-10.2-29.52-13.87-.39-.13-.62-.54-.53-.94"/>
  <path class="cls-1" d="M118.15,57.86c-6.87-.63-20.66-9.75-31.34-17.23-1.13-.79-2.23-1.52-3.31-2.22-.32-.2-.63-.4-.95-.6-8.58-5.33-16.08-7.9-25.26-11.06-.39-.13-.62-.54-.53-.94.1-.46.56-.74,1.01-.62,3.36.91,16.18,4.52,25.24,8.85,1.29.62,2.51,1.25,3.61,1.89.77.45,1.52.88,2.26,1.29,24.19,13.63,31.02,9.98,33.02,12.32,1.32,1.55.45,8.69-3.75,8.3"/>
  <path class="cls-12" d="M121.88,51.68c-.19-.32-.43-.56-.66-.72-4.24-3.06-4.97.32-21.45-7.28-.04-.17-.08-.35-.12-.52,9.7,4.36,15.35,5.17,18.53,5.62,1.86.27,2.89.41,3.41,1.03.23.26.38.79.44,1.46-.05.14-.1.28-.16.42M91.82,39.78c-1.32-.68-2.71-1.42-4.18-2.21.23-.07.46-.13.67-.19,1.25.71,2.46,1.37,3.62,1.99-.04.14-.08.27-.11.41M81.08,34.21c-.34-.16-.68-.32-1.02-.47-1.05-.74-2.23-1.37-3.53-1.84v-.08s.02-.06.02-.09c1.66.64,3.29,1.32,4.84,2.02-.11.15-.21.31-.3.47M72.25,30.38c.02-.08.04-.15.06-.23.07.02.13.05.2.07-.09.05-.17.1-.26.16M69.19,29.33c-5.18-1.87-9.53-3.15-11.72-3.76.05,0,.09-.01.14,0,.02,0,.04,0,.05.01,1.57.43,6.27,1.73,11.71,3.56-.06.07-.12.13-.19.19"/>
  <path class="cls-19" d="M117.75,57.41h0c-4.13-.57-10.66-4.02-17.34-8.18-.02-.57-.06-1.18-.11-1.81.78.51,1.55,1.02,2.32,1.54.67.44,1.35.87,2.03,1.28.69.41,1.38.81,2.08,1.21,1.4.78,2.82,1.52,4.29,2.18,1.47.65,2.96,1.24,4.52,1.68.69.19,1.4.35,2.11.45.09.01.17.02.26.03.4.05.81.07,1.22.07.41,0,.82-.05,1.22-.13.08-.02.13-.09.12-.18-.01-.07-.07-.12-.13-.13-.01,0-.03,0-.05,0h0c-.73.12-1.47.09-2.21-.02-.04,0-.08-.01-.12-.02-.78-.12-1.54-.31-2.3-.54-1.51-.46-2.98-1.07-4.41-1.74-2.88-1.34-5.63-2.95-8.3-4.66l-2-1.32c-.11-.07-.23-.15-.34-.22,6.69,3.8,12.99,6.84,17.08,7.41.17.02.33.04.5.06,1.4.13,2.43-.58,3.14-1.65.05.03.1.07.15.1.12.08.24.17.35.26.04.03.09.07.13.11-.12.78-.36,1.59-.73,2.31-.5.97-1.44,2.1-3.05,1.95-.14-.01-.28-.03-.43-.05M122.04,52.46c-.06-.05-.13-.1-.19-.14-.07-.05-.13-.09-.2-.14.08-.16.16-.33.23-.5.07.11.13.23.18.36,0,.14,0,.28-.02.42"/>
  <path class="cls-18" d="M122.06,52.04c-.06-.13-.12-.25-.18-.36.06-.14.11-.28.16-.42.02.24.03.5.03.78"/>
  <path class="cls-19" d="M91.29,43.25c-1.47-1.01-2.9-2-4.25-2.94-.85-.59-1.69-1.16-2.51-1.7-.02-.03-.04-.06-.05-.09.48-.11.89-.34,1.28-.56.33-.18.65-.36.99-.47.19-.06.37-.1.55-.12.12.07.24.13.36.19-.09.03-.19.06-.28.09-.11.03-.21.07-.31.12-.35.15-.39.63-.07.83,1.15.74,2.33,1.49,3.53,2.24-1.33-.75-2.67-1.49-4.01-2.21-.02,0-.03-.01-.05-.02-.06,0-.12.02-.16.08-.04.07-.02.17.06.21h0c1.38.81,2.75,1.61,4.12,2.43.37.22.75.45,1.12.67-.11.37-.22.79-.32,1.25"/>
  <path class="cls-18" d="M87.65,37.56c-.12-.06-.24-.13-.36-.19.45-.06.83-.03.99,0,.01,0,.02,0,.03,0,0,0,0,0,.01,0-.21.06-.44.12-.67.19"/>
  <path class="cls-19" d="M68.17,30.25c-3.39-1.33-6.87-2.53-10.63-3.83l-.12-.04c-.19-.07-.31-.26-.28-.45,0,0,0-.02,0-.03.01-.06.04-.12.07-.16.83.93,5.25,1.75,11.59,3.97-.21.19-.42.38-.64.55"/>
  <path class="cls-10" d="M100.61,46.92c-.12-.07-.25-.14-.37-.21,0,0,0-.02,0-.03.13.08.25.16.38.24M91.63,41.53c-.37-.23-.74-.46-1.1-.69.37.21.74.42,1.1.63,0,.02,0,.04,0,.06"/>
  <path class="cls-14" d="M117.65,55.76c-.72-.1-1.42-.25-2.11-.45-1.55-.44-3.05-1.03-4.52-1.68-1.46-.67-2.89-1.4-4.29-2.18-.7-.39-1.39-.79-2.08-1.21-.69-.42-1.36-.84-2.03-1.28-.77-.52-1.54-1.04-2.32-1.54-.02-.24-.04-.48-.07-.72.12.07.25.14.37.21.11.07.23.15.34.22l2,1.32c2.67,1.71,5.43,3.32,8.3,4.66,1.43.68,2.9,1.29,4.41,1.74.76.23,1.52.42,2.3.54.04,0,.08.01.12.02.74.1,1.49.13,2.21.02h0s.03,0,.05,0c.07,0,.12.06.13.13.01.08-.04.16-.12.18-.4.08-.81.12-1.22.13-.41,0-.81-.02-1.22-.07-.09-.01-.17-.02-.26-.03M91.6,42c-.37-.22-.75-.45-1.12-.67-1.37-.82-2.74-1.63-4.12-2.43h0c-.07-.04-.1-.14-.06-.21.03-.06.09-.08.16-.08.02,0,.04,0,.05.02,1.35.72,2.68,1.46,4.01,2.21.37.23.74.46,1.1.69,0,.16,0,.29.01.37-.01.03-.02.07-.03.11"/>
  <path class="cls-10" d="M114.34,52.34s0,0,0,0c-1.66-.33-3.29-.85-4.82-1.61-.77-.38-1.5-.8-2.23-1.22-.72-.43-1.44-.85-2.18-1.23-1.47-.78-3.03-1.33-4.63-1.81-.09-.03-.17-.05-.26-.08-.02-.2-.05-.39-.07-.59.16.04.32.08.48.12.82.21,1.63.46,2.43.75.8.3,1.58.65,2.34,1.04,1.51.79,2.9,1.76,4.37,2.52.37.19.74.38,1.12.55.38.17.76.33,1.15.48.78.3,1.57.54,2.38.77h0c.08.02.13.11.11.19-.02.08-.1.12-.17.11"/>
  <path class="cls-10" d="M121.33,52.73c-.19-.13-.39-.25-.59-.36-.51-.29-1.05-.54-1.6-.73-.55-.2-1.12-.36-1.7-.47-.2-.04-.41-.07-.61-.1-.09-.01-.18-.02-.27-.03-.15-.02-.29-.03-.44-.04l-.46-.04c-.31-.03-.62-.06-.93-.11s-.61-.09-.91-.16c-.31-.07-.61-.15-.91-.27-.3-.11-.58-.25-.85-.4-.54-.3-1.05-.61-1.58-.89-.53-.28-1.08-.53-1.64-.76h0c-.08-.03-.12-.12-.08-.2.03-.07.1-.1.16-.09.01,0,.02,0,.03,0,.57.21,1.14.43,1.7.69.56.25,1.1.55,1.63.82.27.13.53.25.81.34.27.09.56.16.84.22.15.03.3.05.46.07.43.06.87.09,1.32.12.3.02.61.03.92.07.13.01.25.03.38.04.18.03.37.05.55.09.61.11,1.22.27,1.81.48.59.21,1.16.47,1.7.78.2.12.4.24.59.37-.1.19-.21.38-.32.55"/>
  <path class="cls-14" d="M121.96,53.2s-.09-.07-.13-.11c-.11-.09-.23-.18-.35-.26-.05-.04-.1-.07-.15-.1.12-.18.22-.36.32-.55.07.05.13.09.2.14.07.05.13.1.19.14-.01.19-.03.39-.06.59,0,.05-.01.1-.02.15"/>
  <path class="cls-21" d="M57.15,25.9c-.04.21.07.41.27.48l.12.04c10.63,3.66,19.03,6.56,29.49,13.88,9.89,6.92,23.72,16.14,30.72,17.11.15.02.29.04.43.05,1.61.15,2.55-.98,3.05-1.95,1.09-2.1.99-4.95.36-5.7-.52-.61-1.55-.76-3.41-1.03-4.41-.63-13.59-1.93-31.76-12.5-8.88-5.16-25.51-9.82-28.76-10.7-.11-.03-.23-.01-.33.05-.1.06-.17.16-.19.27M117.64,58.2c-7.08-.98-20.28-9.69-31.06-17.24-10.37-7.26-18.72-10.14-29.29-13.78l-.12-.04c-.58-.2-.92-.8-.79-1.4h0c.07-.32.27-.61.55-.78.28-.17.63-.22.95-.14,4.58,1.24,20.21,5.7,28.95,10.78,18.03,10.49,27.11,11.78,31.47,12.4,1.99.28,3.19.45,3.91,1.3.99,1.16.86,4.42-.26,6.58-.87,1.68-2.23,2.52-3.83,2.38-.15-.01-.31-.03-.47-.05"/>
  <path class="cls-21" d="M57.15,25.9c-.04.21.07.41.27.48l.12.04c10.63,3.66,19.03,6.56,29.49,13.88,9.89,6.92,23.72,16.14,30.72,17.11.15.02.29.04.43.05,1.61.15,2.55-.98,3.05-1.95,1.09-2.1.99-4.95.36-5.7-.52-.61-1.55-.76-3.41-1.03-4.41-.63-13.59-1.93-31.76-12.5-8.88-5.16-25.51-9.82-28.76-10.7-.11-.03-.23-.01-.33.05-.1.06-.17.16-.19.27M117.64,58.2c-7.08-.98-20.28-9.69-31.06-17.24-10.37-7.26-18.72-10.14-29.29-13.78l-.12-.04c-.58-.2-.92-.8-.79-1.4h0c.07-.32.27-.61.55-.78.28-.17.63-.22.95-.14,4.58,1.24,20.21,5.7,28.95,10.78,18.03,10.49,27.11,11.78,31.47,12.4,1.99.28,3.19.45,3.91,1.3.99,1.16.86,4.42-.26,6.58-.87,1.68-2.23,2.52-3.83,2.38-.15-.01-.31-.03-.47-.05"/>
  <path class="cls-9" d="M92.04,41.94s-.27-3.11,1.59-4.34c2.17-1.44,4.86.97,5.28,4.49l-6.87-.15"/>
  <path class="cls-21" d="M91.98,42.34c-.18-.02-.32-.17-.34-.36-.01-.14-.27-3.36,1.77-4.71.87-.57,1.88-.64,2.84-.2,1.58.73,2.78,2.68,3.05,4.97.03.22-.13.41-.35.44-.22.03-.41-.13-.44-.35-.23-1.98-1.28-3.73-2.59-4.34-.5-.23-1.26-.4-2.07.14-1.64,1.08-1.42,3.95-1.41,3.98.02.22-.14.41-.36.43-.03,0-.06,0-.09,0"/>
  <path class="cls-8" d="M63.46,58.47c1.7,13.09,11.8,19.84,22.64,17.97,7.36-1.27,10.29-7.19,11.63-10.27,2.75-6.31,3.56-23.84-.42-26.48-.59-.39-3.03-1.23-4.75,1.09-1.55,2.09-1.66,12.55-4.64,13.66,0,0-6.58-3.91-12.2-1.58l-12.27,5.61"/>
  <path class="cls-8" d="M97.73,66.17c-1.35,3.08-4.27,9.01-11.63,10.27-6.25,1.08-12.25-.71-16.54-4.92-2.87-2.82-4.98-6.74-5.87-11.61-.05-.29-.1-.58-.15-.88-.03-.18-.05-.37-.08-.55l1.32-.6,1.3-.6,9.64-4.41c3.35-1.39,7.04-.56,9.47.33,1.65.61,2.73,1.25,2.73,1.25,2.3-.86,2.89-7.32,3.75-11.17.25-1.12.53-2.02.88-2.5,1.72-2.32,4.16-1.48,4.75-1.09,1.13.75,1.87,2.69,2.29,5.24,1.07,6.44.09,16.72-1.88,21.24"/>
  <path class="cls-5" d="M92.35,42.26c.16-.55.34-.98.53-1.25.99-1.33,2.17-1.49,3.03-1.37.69.09,1.17.37,1.18.38.63.42,1.15,1.29,1.56,2.55-.59-1.04-1.33-1.82-2.49-1.98-.18-.02-.37-.03-.57-.03-1.38.04-2.44.81-3.25,1.7"/>
  <path class="cls-16" d="M79.94,76.17c-2.98-.41-5.78-1.53-8.19-3.3-.63-.46-1.22-.96-1.77-1.49.06-.47.11-.96.13-1.46,0,0,.03-.8.21-1.5,3.08,3.27,6.85,5.28,11.04,5.86,1.92.26,3.92.23,5.98-.13,6.15-1.06,8.8-5.12,10.21-8.56-.06.15-.12.29-.18.43-1.64,3.76-4.6,8.88-11.34,10.04-2.07.36-4.12.39-6.09.12"/>
  <path class="cls-21" d="M79.83,76.96c-3.11-.43-6.03-1.59-8.55-3.45-4.47-3.3-7.39-8.62-8.22-14.99-.03-.22.13-.42.34-.44.22-.03.42.12.44.34.81,6.24,3.54,11.24,7.9,14.45,4,2.95,9.07,4.08,14.28,3.18,6.74-1.16,9.7-6.29,11.34-10.04,1.32-3.01,2.23-8.82,2.28-14.46.05-6.12-.9-10.43-2.56-11.53-.02-.02-2.43-1.39-4.21.99-.56.75-.94,2.87-1.36,5.12-.71,3.9-1.45,7.92-3.46,8.68-.11.04-.24.03-.34-.03-.06-.04-6.48-3.78-11.85-1.55-.2.08-.43-.01-.52-.21-.08-.2.01-.43.21-.52,5.28-2.19,11.24.87,12.38,1.5,1.48-.81,2.21-4.79,2.8-8.01.45-2.44.83-4.55,1.5-5.45,1.94-2.61,4.66-1.6,5.29-1.18,2.71,1.8,2.94,9.13,2.91,12.2-.05,5.73-1,11.67-2.35,14.77-1.71,3.92-4.81,9.28-11.93,10.51-2.15.37-4.29.41-6.33.13"/>
  <path class="cls-8" d="M69.71,69.9c-.03.55-.08,1.09-.16,1.61-.06.4-.13.79-.21,1.17-1.21,5.74-4.98,9.36-6.89,9.99-2.2.73-5.8.19-5.63-3.07.06-1.17,1.05-3.09,2.05-5.79.52-1.41,1.04-3.04,1.44-4.88.76-3.58,1.25-6.99,2.77-9.3.14-.22.29-.42.45-.62.36-.44.77-.83,1.24-1.16.38-.27.8-.49,1.27-.67l.03.08,4.01,10.53c-.34.83-.39,2.11-.39,2.11"/>
  <path class="cls-21" d="M59.76,83.3c-.76-.1-1.49-.36-2.08-.81-.88-.67-1.31-1.67-1.25-2.9.04-.85.49-1.95,1.11-3.47.78-1.9,1.75-4.27,2.38-7.27.12-.56.23-1.11.34-1.65.6-2.96,1.16-5.76,2.49-7.78.15-.23.31-.45.48-.65.39-.48.84-.89,1.32-1.23.41-.29.87-.53,1.36-.72l.37-.14.17.45c.08.2-.03.43-.23.51-.08.03-.17.03-.25.01-.35.15-.67.33-.97.54-.43.3-.82.66-1.16,1.08-.15.18-.29.38-.43.59-1.24,1.89-1.79,4.62-2.37,7.5-.11.55-.22,1.1-.34,1.66-.65,3.07-1.67,5.57-2.42,7.4-.57,1.4-1.02,2.5-1.06,3.21-.05.97.27,1.72.93,2.23,1.1.83,2.93.85,4.18.44,1.88-.62,5.94-4.56,6.83-10.84.07-.51.12-1.04.15-1.58,0-.05.05-1.35.41-2.24.08-.2.31-.3.52-.22.2.08.3.32.22.52-.31.75-.36,1.96-.36,1.97-.03.57-.08,1.12-.16,1.66-.95,6.71-5.27,10.79-7.37,11.48-.8.26-1.83.38-2.82.25"/>
  <path class="cls-9" d="M88.44,36.99s-.86-.18-1.82.13c-1.18.38-1.98,1.39-3.36.97-.83-.25-2.41-.93-2.19-2.55.42-3.05,3.95-3.25,5.39-2.55,2.63,1.29,1.98,4,1.98,4"/>
  <path class="cls-13" d="M84.08,37.78c.05-.32.16-.67.32-1.02.97-.32,1.71-.99,2.59-1.14.14-.02.27-.02.4,0,.25.04.49.14.71.27.03.26.02.49,0,.66-.38-.02-.97-.01-1.61.19-.42.13-.78.33-1.13.53-.46.25-.85.47-1.29.51M83.45,37.01s-.04-.06-.07-.09c.03,0,.06,0,.09,0-.01.03-.02.06-.03.09"/>
  <path class="cls-21" d="M85.38,33.09c-.78-.11-1.72,0-2.48.4-.82.43-1.3,1.14-1.43,2.11-.17,1.21.95,1.82,1.91,2.11.77.23,1.31-.06,1.99-.44.35-.19.71-.39,1.13-.53.64-.2,1.23-.21,1.61-.19.06-.71-.02-2.32-1.82-3.2-.25-.12-.56-.21-.91-.26M83.57,38.56c-.14-.02-.28-.05-.42-.09-1.78-.55-2.66-1.6-2.47-2.98.17-1.21.81-2.15,1.85-2.7,1.37-.73,3.14-.62,4.11-.15,2.88,1.41,2.2,4.42,2.19,4.45-.05.21-.26.34-.47.3-.02,0-.78-.15-1.62.12-.35.11-.66.28-.99.47-.62.34-1.3.72-2.18.6"/>
  <path class="cls-21" d="M83.6,38.58c-.19-.03-.34-.19-.34-.38-.03-1.15.71-2.65,1.83-3.71.83-.79,1.72-1.19,2.49-1.12.22.02.38.21.36.43-.02.22-.21.38-.43.36-.54-.04-1.23.29-1.88.91-.96.9-1.61,2.19-1.58,3.11,0,.22-.17.4-.39.41-.02,0-.04,0-.06,0"/>
  <path class="cls-21" d="M82.45,38.19c-.15-.02-.28-.13-.33-.28-.47-1.6.01-3.25.63-4.25.47-.77,1.06-1.27,1.61-1.38.22-.04.42.1.46.32.04.22-.1.42-.32.46-.24.05-.67.34-1.08,1.01-.53.86-.94,2.26-.54,3.62.06.21-.06.43-.27.49-.06.02-.11.02-.17.01"/>
  <path class="cls-16" d="M68.55,61.21c-.35-.05-.69-.1-1.02-.17l-.81-2.12c1.35.05,2.75,0,4.18-.12,5.75-.52,10.71-2.35,13.54-5.45.22.07.43.14.63.22-1.99,5.18-7.55,8.17-14.66,7.81-.63-.03-1.25-.09-1.85-.17"/>
  <path class="cls-21" d="M85.06,53.57c-.2-.07-.41-.15-.63-.22.1-.11.19-.22.29-.33.16.06.32.11.48.17-.04.13-.09.25-.14.38"/>
  <path class="cls-16" d="M67.53,61.05h0c-1.36-.26-2.64-.64-3.84-1.15-.08-.03-.16-.06-.23-.1.13-.19.26-.37.39-.53.16-.19.32-.37.49-.53.77.1,1.57.16,2.38.19l.81,2.12"/>
  <path class="cls-21" d="M63.45,59.8c-.12-.05-.25-.11-.37-.16.14-.22.29-.42.45-.62-.02-.14-.04-.27-.06-.41.21.03.42.07.63.09.08.01.16.02.23.03-.17.17-.34.34-.49.53-.14.17-.27.34-.39.53"/>
  <path class="cls-8" d="M86.88,45.93c.7,7.69-6.59,12.02-15.98,12.88-9.4.85-17.34-2.09-18.04-9.79-.67-7.37,3.35-16.23,14.08-17.9,1.24-.78,2.91-2.1,3.75-3.9.26-.56,1.06-.56,1.31.01.33.76.66,1.76.26,3.13,1.38-.83,2.74-1.76,3.18-2.23.46-.5,1.3-.2,1.34.48.04.66-.07,2.07-.24,3.26,6.45,2.36,9.84,8.38,10.36,14.04"/>
  <path class="cls-11" d="M53.2,43.65s0,0,0,0c0,0,0,0,0,0M53.2,43.64c.88-4,3.2-7.85,7.26-10.26,0,0,0,0,0,0-4.06,2.41-6.38,6.25-7.26,10.26M63.51,31.97h0c.88-.31,1.82-.55,2.82-.74-1,.19-1.94.43-2.82.74"/>
  <path class="cls-22" d="M60.46,33.38c.93-.55,1.94-1.03,3.05-1.41h0c-1.11.39-2.13.86-3.05,1.41,0,0,0,0,0,0"/>
  <path class="cls-2" d="M86.92,47.35h0s0,0,0,0M86.92,47.34s0,0,0,0c0,0,0,0,0,0M86.92,47.32s0,0,0,0c0,0,0,0,0,0M86.92,47.31s0,0,0,0c0,0,0,0,0,0M86.92,47.3s0-.02,0-.03c0,0,0,.02,0,.03M86.92,47.27s0,0,0,0c0,0,0,0,0,0M86.92,47.26c0-.31,0-.63-.01-.96.02.33.02.64.01.96M86.91,46.3s0,0,0-.01c0,0,0,0,0,.01M86.91,46.29s0-.01,0-.02c0,0,0,.01,0,.02M86.91,46.27s0,0,0,0c0,0,0,0,0,0M86.9,46.25s0,0,0,0c0,0,0,0,0,0M86.9,46.24s0-.01,0-.02c0,0,0,.01,0,.02M86.9,46.22s0,0,0,0c0,0,0,0,0,0M86.9,46.21s0,0,0,0c0,0,0,0,0,0M86.9,46.19s0,0,0-.01c0,0,0,0,0,.01M86.9,46.18s0,0,0,0c0,0,0,0,0,0M86.9,46.16s0,0,0,0c0,0,0,0,0,0M86.9,46.14s0,0,0,0c0,0,0,0,0,0M86.9,46.13s0,0,0,0c0,0,0,0,0,0M86.9,46.12s0,0,0,0c0,0,0,0,0,0M86.89,46.1s0,0,0,0c0,0,0,0,0,0M86.89,46.08s0,0,0,0c0,0,0,0,0,0M86.89,46.07s0,0,0,0c0,0,0,0,0,0M86.89,46.05s0,0,0,0c0,0,0,0,0,0M86.89,46.04s0,0,0,0c0,0,0,0,0,0M86.89,46.02s0,0,0,0c0,0,0,0,0,0M86.89,46.01s0,0,0,0c0,0,0,0,0,0M86.89,45.99s0,0,0,0c0,0,0,0,0,0M86.88,45.98s0,0,0,0c0,0,0,0,0,0M86.88,45.96s0,0,0,0c0,0,0,0,0,0M86.88,45.95s0,0,0,0c0,0,0,0,0,0"/>
  <path class="cls-11" d="M66.33,31.23s.04,0,.06-.01c-.02,0-.04,0-.06.01M66.39,31.22s0,0,.01,0c0,0,0,0-.01,0M66.41,31.22s.03,0,.05,0c-.02,0-.03,0-.05,0M66.45,31.21s0,0,.01,0c0,0,0,0-.01,0M66.47,31.21s.03,0,.04,0c-.01,0-.03,0-.04,0M66.52,31.2s0,0,.01,0c0,0,0,0-.01,0M66.53,31.19s0,0,.01,0c0,0,0,0-.01,0M66.55,31.19s.02,0,.03,0c0,0-.02,0-.03,0M66.58,31.19s0,0,.01,0c0,0,0,0-.01,0M66.59,31.18s0,0,.01,0c0,0,0,0-.01,0M66.61,31.18s.02,0,.03,0c0,0-.02,0-.03,0M66.64,31.18s0,0,.01,0c0,0,0,0-.01,0M66.66,31.17s0,0,.01,0c0,0,0,0-.01,0M66.67,31.17s.02,0,.03,0c-.01,0-.02,0-.03,0M66.7,31.17s0,0,.01,0c0,0,0,0-.01,0M66.72,31.16s0,0,.01,0c0,0,0,0-.01,0M66.73,31.16s.02,0,.03,0c0,0-.02,0-.03,0M66.77,31.15s0,0,.01,0c0,0,0,0-.01,0M66.78,31.15s0,0,.01,0c0,0,0,0-.01,0M66.8,31.15s.02,0,.03,0c0,0-.02,0-.03,0M66.83,31.14s0,0,0,0c0,0,0,0,0,0M66.84,31.14s0,0,0,0c0,0,0,0,0,0M66.86,31.14s.02,0,.03,0c0,0-.02,0-.03,0M66.89,31.13s0,0,0,0c0,0,0,0,0,0M66.91,31.13s0,0,.01,0c0,0,0,0-.01,0M66.92,31.13s0,0,.01,0c0,0,0,0-.01,0"/>
  <path class="cls-2" d="M86.58,49.54c.1-.74.12-1.52.04-2.34-.48-5.32-3.95-11.24-9.72-13.88-.66-.3-1.05-.99-.95-1.71.1-.81.18-1.57.16-2-.02-.34-.14-.51-.31-.54s-.4.1-.63.35c-.34.36-1.25,1.01-2.28,1.67-.1.06-.21.08-.31.07-.23-.03-.42-.23-.4-.48.06-.89-.19-1.6-.44-2.16-.11-.26-.25-.43-.4-.45-.18-.02-.38.15-.59.61-.56,1.2-1.62,2.1-2.64,2.8-.81.56-1.74.94-2.7,1.15-7.18,1.58-11.07,6.56-12.37,11.9.05-.3.11-.6.17-.89,0,0,0,0,0,0,0,0,0,0,0,0,.88-4,3.2-7.85,7.26-10.26.93-.55,1.94-1.03,3.05-1.41.88-.31,1.82-.55,2.82-.74h0s.04,0,.06-.01h0s0,0,.01,0h0s.03,0,.05,0h0s0,0,.01,0h0s.03,0,.04,0c0,0,0,0,0,0,0,0,0,0,.01,0,0,0,0,0,0,0,0,0,0,0,.01,0,0,0,0,0,0,0,0,0,.02,0,.03,0,0,0,0,0,0,0,0,0,0,0,.01,0,0,0,0,0,0,0,0,0,0,0,.01,0,0,0,0,0,0,0,0,0,.02,0,.03,0,0,0,0,0,0,0,0,0,0,0,.01,0,0,0,0,0,0,0,0,0,0,0,.01,0,0,0,0,0,0,0,.01,0,.02,0,.03,0,0,0,0,0,0,0,0,0,0,0,.01,0,0,0,0,0,0,0,0,0,0,0,.01,0,0,0,0,0,0,0,0,0,.02,0,.03,0,0,0,0,0,0,0,0,0,0,0,.01,0,0,0,0,0,0,0,0,0,0,0,.01,0,0,0,0,0,0,0,0,0,.02,0,.03,0,0,0,0,0,0,0,0,0,0,0,0,0,0,0,0,0,0,0,0,0,0,0,0,0,0,0,0,0,0,0,0,0,.02,0,.03,0,0,0,0,0,0,0,0,0,0,0,0,0,0,0,0,0,0,0,0,0,0,0,.01,0,0,0,0,0,0,0,0,0,0,0,.01,0h0c1.24-.78,2.91-2.1,3.75-3.9.15-.31.46-.45.75-.41.23.03.45.17.56.42.27.63.55,1.42.41,2.46-.02.14-.05.29-.09.45-.02.07-.04.15-.06.23h0c1.38-.83,2.74-1.76,3.18-2.23.19-.2.44-.27.67-.24.34.05.65.32.67.72.04.64-.07,2.01-.23,3.18v.08h-.01c6.45,2.36,9.84,8.38,10.36,14.04,0,0,0,0,0,.01,0,0,0,0,0,0,0,0,0,0,0,.01,0,0,0,0,0,0,0,0,0,0,0,.01t0,0s0,0,0,.01c0,0,0,0,0,0,0,0,0,0,0,.01,0,0,0,0,0,0,0,0,0,0,0,.01,0,0,0,0,0,0,0,0,0,0,0,.01,0,0,0,0,0,0,0,0,0,0,0,0,0,0,0,0,0,0,0,0,0,0,0,.01,0,0,0,0,0,0,0,0,0,0,0,0,0,0,0,0,0,0,0,0,0,0,0,0,0,0,0,0,0,0,0,0,0,0,0,.01,0,0,0,0,0,0,0,0,0,0,0,0,0,0,0,0,0,0,0,0,0,0,0,0,0,0,0,0,0,0,0,0,0,0,0,.01,0,0,0,0,0,0,0,0,0,0,0,0,0,0,0,0,0,0,0,0,0,0,0,0,0,0,0,0,0,.01,0,0,0,0,0,0,0,0,0,0,0,0,0,0,0,0,0,0,0,0,0,0,0,0,0,0,0,0,0,0,0,0,0,.01,0,.02,0,0,0,0,0,0,0,0,0,0,0,0,0,0,0,0,0,0,0,0,0,0,0,0h0s0,.01,0,.02c0,0,0,0,0,0,0,0,0,0,0,.01,0,0,0,0,0,0,.02.33.02.64.01.96,0,0,0,0,0,0,0,0,0,0,0,0,0,0,0,0,0,0,0,0,0,.02,0,.03,0,0,0,0,0,0,0,0,0,0,0,0,0,0,0,0,0,0,0,0,0,0,0,0,0,0,0,0,0,.01,0,0,0,0,0,0,0,0,0,0,0,.01h0c-.03.77-.15,1.5-.34,2.19"/>
  <path class="cls-3" d="M83.43,45.19c.2,2.24-.26,4.72-2.12,6.77-1.91,2.1-5.28,3.75-10.92,4.26h0c-5.58.51-9.18-.48-11.44-2.17-2.26-1.68-3.17-4.06-3.38-6.33-.04-.46-.05-.92-.01-1.36.29-3.95,3.4-7.22,7.47-7.59,2.23-.2,4.33.5,5.94,1.81,1.35-1.57,3.29-2.65,5.51-2.85,4.02-.37,7.63,2.22,8.68,5.97h0c.13.48.23.97.27,1.49"/>
  <path class="cls-21" d="M71.62,46.78c.06.7-.79,1.62-1.94,1.73-1.15.1-2.15-.65-2.22-1.35-.06-.7.84-1.08,1.99-1.18,1.15-.1,2.1.1,2.17.8"/>
  <path class="cls-17" d="M69.23,46.93c-.29-.04-.5-.16-.51-.27-.01-.16.36-.27.82-.31.23-.02.43-.02.59,0,.16.02.27.07.28.16.01.16-.35.39-.81.44-.13.01-.25,0-.37,0"/>
  <path class="cls-23" d="M66.64,46.84c-.13,2.46-2.03,3.21-4.49,4.47-1.54.79-2.56,1.84-3.21,2.75-2.26-1.68-3.17-4.06-3.38-6.33-.04-.46-.05-.92-.01-1.36,1.36-1.7,3.6-3.42,7.06-3.32,2.53.07,4.12,2.02,4.03,3.79h0Z"/>
  <path class="cls-23" d="M83.43,45.19c.2,2.24-.26,4.72-2.12,6.77-.8-.76-1.97-1.58-3.59-2.07-2.65-.79-4.66-1.19-5.23-3.59-.41-1.72.8-3.92,3.28-4.45,3.28-.7,5.74.48,7.39,1.86h0c.13.48.23.97.27,1.49h0Z"/>
  <path class="cls-21" d="M83.46,54.13c.38-.43.75-.87,1.09-1.32.33-.46.62-.94.88-1.43.26-.5.46-1.01.64-1.54.17-.53.28-1.07.35-1.62l.04-.41c.01-.14.01-.28.02-.42v-.21c.01-.07.01-.14.01-.21v-.42c-.02-.28-.03-.55-.06-.84-.03-.28-.07-.56-.1-.84-.17-1.12-.44-2.22-.83-3.28-.77-2.13-1.97-4.1-3.54-5.72-1.56-1.63-3.51-2.88-5.63-3.64-.21-.07-.31-.3-.24-.51h0s0,0,0,0c.12-.31.19-.65.23-1.01.04-.35.06-.72.07-1.08,0-.18,0-.37,0-.55v-.28s-.02-.14-.02-.14c0-.03,0-.04,0-.05,0-.01,0-.02,0-.04-.02-.09-.07-.16-.14-.22-.08-.05-.17-.08-.26-.07-.09.01-.17.05-.24.12-.13.14-.27.28-.4.42-.27.27-.56.54-.86.79-.3.25-.62.48-.97.69-.35.2-.72.38-1.14.49-.21.05-.43-.07-.48-.28-.02-.08-.02-.15,0-.22h0s.03-.1.04-.15c.01-.05.03-.1.04-.16.02-.1.04-.21.05-.32.03-.21.04-.43.03-.65-.01-.43-.09-.86-.24-1.26-.03-.1-.08-.2-.12-.3-.02-.06-.04-.07-.05-.1-.02-.02-.04-.05-.06-.06-.08-.07-.2-.11-.3-.08-.05.01-.09.04-.13.07-.02.02-.03.04-.05.06l-.06.11-.18.33-.09.17c-.03.05-.07.11-.1.16-.14.21-.27.42-.43.62-.08.1-.15.2-.23.29l-.25.28-.13.14-.13.13-.27.26-.29.24-.14.12-.15.11c-.39.3-.82.56-1.25.79-.11.06-.22.12-.33.17-.11.06-.22.11-.34.16-.23.1-.45.19-.71.27l.28-.3h0c-.03.16-.16.28-.3.31h0c-1.87.4-3.7,1.05-5.33,2.04-1.64.98-3.08,2.27-4.23,3.79-1.15,1.52-2,3.26-2.53,5.1-.53,1.83-.76,3.76-.66,5.67l.05.71c.03.23.05.47.09.7.07.47.18.93.32,1.37.14.45.31.89.52,1.3.21.42.45.82.72,1.2.54.76,1.22,1.43,1.97,2,.38.28.77.54,1.18.78.41.24.84.45,1.27.64.87.38,1.78.68,2.72.9.23.05.47.11.7.15.12.02.23.05.35.07.12.02.24.04.36.05.48.07.96.12,1.44.17.96.1,1.92.17,2.89.22.96.05,1.93.08,2.91.11h0c.07,0,.13.06.13.14,0,.06-.04.11-.1.12-.96.27-1.96.36-2.95.39-.99.02-1.98-.03-2.97-.15-.49-.06-.98-.13-1.47-.21l-.37-.06c-.13-.02-.25-.05-.37-.07-.25-.05-.49-.11-.73-.17-.97-.24-1.93-.54-2.85-.95-.46-.2-.91-.42-1.35-.68-.44-.25-.86-.53-1.27-.83-.81-.61-1.54-1.34-2.13-2.17-.3-.42-.56-.85-.79-1.31-.23-.46-.41-.93-.57-1.42-.16-.49-.27-.98-.35-1.48-.04-.25-.07-.5-.1-.75-.02-.25-.04-.5-.05-.75-.1-2,.14-4.01.69-5.93.56-1.92,1.45-3.75,2.66-5.35,1.21-1.6,2.73-2.97,4.46-3.99,1.72-1.04,3.63-1.72,5.58-2.13l-.31.31h0c.03-.15.14-.26.27-.3h0c.19-.06.41-.15.62-.24.1-.04.21-.09.31-.14.1-.05.2-.1.3-.15.4-.21.79-.45,1.15-.73l.14-.1.13-.11.26-.22.24-.23.12-.12.11-.12.23-.25c.07-.09.14-.18.21-.26.14-.17.26-.36.38-.55.03-.05.06-.09.09-.14l.08-.15.16-.3.04-.08.07-.12c.05-.07.11-.15.18-.21.14-.13.31-.22.49-.26.36-.09.75.02,1.02.27.07.06.12.13.18.2.05.07.09.16.11.21.05.12.11.23.15.36.18.49.28,1,.29,1.52,0,.26,0,.51-.04.77-.02.13-.04.25-.06.38-.01.06-.03.13-.04.19-.02.07-.03.12-.06.2l-.47-.52c.63-.16,1.24-.56,1.8-1.02.28-.23.55-.48.81-.74.13-.13.26-.26.38-.4.18-.2.46-.35.75-.37.29-.03.57.05.8.22.23.17.4.43.46.71v.1s.02.07.02.09v.14s.02.29.02.29c0,.19,0,.39,0,.58,0,.39-.02.78-.07,1.17-.05.39-.13.79-.28,1.19l-.24-.52c1.11.41,2.19.93,3.18,1.58.25.16.49.33.74.5.24.18.48.36.7.55.46.38.9.78,1.31,1.21,1.65,1.71,2.9,3.78,3.72,6,.41,1.11.71,2.26.91,3.43.1.59.15,1.17.19,1.78.01.6,0,1.21-.09,1.8-.09.6-.23,1.19-.43,1.76-.05.14-.11.28-.16.42l-.09.21-.1.2c-.07.13-.13.27-.2.4-.07.13-.15.26-.22.39-.32.51-.68.99-1.09,1.43-.41.43-.86.82-1.33,1.17-.06.04-.14.03-.19-.03-.04-.05-.03-.12,0-.17h0Z"/>
  <path class="cls-21" d="M59.79,47.36c.07-.11.13-.2.21-.28.07-.09.15-.17.23-.24.08-.08.16-.15.25-.22.09-.07.18-.13.27-.2.37-.25.8-.43,1.24-.54.22-.06.46-.08.69-.1.23,0,.46,0,.69.05.46.07.88.26,1.24.51.2.14.24.41.11.6-.08.12-.21.18-.34.18h-.08c-.1,0-.19,0-.27,0-.09,0-.17-.02-.26-.01-.09,0-.17,0-.25,0-.08,0-.17,0-.25,0-.16,0-.32.03-.48.03-.16.03-.32.04-.47.08-.32.07-.63.17-.95.29l-.24.1c-.08.04-.16.07-.24.11l-.12.06s-.08.04-.12.06c-.08.04-.16.08-.23.11l-.11.04c-.22.08-.46-.03-.54-.25-.05-.13-.03-.27.04-.37h0Z"/>
  <path class="cls-21" d="M79.07,46.25c-.07-.01-.16-.04-.25-.06-.04-.01-.09-.02-.13-.04l-.13-.03c-.08-.02-.17-.04-.25-.06l-.25-.05c-.33-.07-.66-.11-.98-.12-.16-.01-.32,0-.48,0-.16.02-.32.02-.48.05-.08.02-.17.02-.25.04-.08.02-.16.04-.25.05-.09,0-.17.04-.25.06-.09.02-.17.04-.27.06h-.07c-.23.05-.46-.11-.49-.34-.02-.14.03-.28.12-.37.31-.31.69-.58,1.13-.73.21-.09.44-.13.67-.18.23-.02.46-.05.69-.03.46.02.91.13,1.32.3.1.05.2.09.3.15.1.06.19.11.28.17.09.06.18.13.27.2.09.07.16.14.26.24.16.17.15.44-.02.6-.1.09-.23.13-.36.11l-.12-.02h0Z"/>
  <path class="cls-21" d="M72.25,50.08c-.08.1-.15.17-.24.25-.08.07-.16.14-.25.21-.17.13-.36.24-.56.34-.39.2-.83.33-1.29.36-.47.03-.93-.04-1.34-.19-.21-.07-.41-.16-.59-.27-.09-.06-.19-.11-.27-.17-.09-.06-.17-.13-.26-.21-.16-.15-.18-.4-.03-.57.09-.1.22-.15.35-.13h.08c.07.02.17.05.25.06.09.02.17.04.26.05.17.03.34.06.51.09.33.05.65.07.95.04.31-.03.63-.09.95-.18.16-.04.33-.1.49-.15.08-.03.17-.06.25-.08.08-.03.17-.06.24-.08l.08-.02c.21-.05.43.07.49.29.03.13,0,.26-.08.36h0Z"/>
  <path class="cls-21" d="M94.36,39.03c-.06,0-.13,0-.19.02.12-.05.26-.03.36.04-.05-.03-.1-.06-.17-.06h0ZM94.25,39.81c-.09-.01-.17-.05-.23-.12-.22-.22-.45-1.55-.04-2.57.08-.2.31-.3.51-.22.2.08.3.31.22.51-.3.75-.12,1.64-.06,1.82,0,.02.02.03.02.05.08.21-.03.43-.23.51-.06.02-.13.03-.19.02h0Z"/>
  <path class="cls-21" d="M96.53,39.77c-.18-.02-.33-.17-.34-.36,0-.02-.1-1.05-.7-1.84-.13-.17-.1-.42.08-.56.17-.13.42-.1.56.08.75.99.85,2.2.86,2.26.02.22-.15.41-.36.43-.03,0-.06,0-.09,0h0Z"/>
  <g>
    <path class="cls-9" d="M42.4,68.07c-9.9,9.43-12.15,21.15-22.01,30.55-6.47-3.96-9.71-5.94-16.18-9.9,9.86-9.39,12.11-21.11,22.01-30.55,6.47,3.96,9.71,5.94,16.18,9.9Z"/>
    <path class="cls-21" d="M42.4,68.07l-.5-.52c-1.25,1.19-2.38,2.42-3.42,3.67-3.15,3.8-5.45,7.82-7.74,11.79-2.28,3.98-4.54,7.91-7.58,11.57-1,1.2-2.08,2.38-3.28,3.52l.5.52.38-.61c-6.47-3.96-9.71-5.94-16.18-9.9l-.38.61.5.52c1.24-1.18,2.36-2.4,3.39-3.64,3.14-3.78,5.44-7.8,7.72-11.77,2.28-3.98,4.55-7.91,7.6-11.59,1-1.21,2.1-2.39,3.3-3.54l-.5-.52-.38.61c6.47,3.96,9.71,5.94,16.18,9.9l.38-.61-.5-.52.5.52.38-.61c-6.47-3.96-9.71-5.94-16.18-9.9-.28-.17-.64-.13-.87.09-1.25,1.19-2.38,2.42-3.42,3.67-3.15,3.8-5.45,7.82-7.74,11.79-2.28,3.98-4.54,7.91-7.58,11.57-1,1.2-2.08,2.38-3.28,3.52-.16.15-.24.38-.22.6s.15.42.34.54c6.47,3.96,9.71,5.94,16.18,9.9.28.17.64.13.87-.09,1.24-1.18,2.36-2.4,3.39-3.64,3.14-3.78,5.44-7.8,7.72-11.77,2.28-3.98,4.55-7.91,7.6-11.59,1-1.21,2.1-2.39,3.3-3.54.16-.15.24-.38.22-.6s-.15-.42-.34-.54l-.38.61Z"/>
    <path class="cls-21" d="M26.56,73.73c.22-.43.36-.61.55-.5.13.08.33.22.27.36-.22.5-1.03,2.96-1.26,3.24-.07.08-.34.05-.51-.05-1.4-.86-2.1-1.29-3.5-2.14-.03-.02-.22-.18-.22-.27.02-.25.28-1,.39-1.31.12-.32.21-.56.52-.38l.31.25c-.2.5-.28.75-.44,1.27.44.27.66.41,1.11.68.09-.21.2-.45.33-.63.06-.08.54.24.5.37-.09.25-.13.38-.21.63.5.31.75.46,1.26.77M14.67,92.26c.17-.17,1.02.12,1.24-.08.16-.15.27-.38.05-.51-.19-.12-.59-.19-.83-.16-.87-.06-1.75.2-2.47-.24-.61-.37-.61-1.03-.12-1.48.38-.34.89-.54,1.38-.24.15.09.25.17.07.33-.27.24-.56.03-.82.26-.22.2-.22.51.03.66.67.41,2.3-.21,3.16.32.58.35.69.94.17,1.42-.36.34-.82.44-1.36.35-.14-.02-.43-.06-.55-.13-.13-.08-.05-.4.04-.49ZM17.58,91.32c-1.64-1.01-2.47-1.51-4.11-2.51-.2-.12-.28-.22-.1-.38.17-.14.38-.27.61-.13,1.51.93,2.27,1.39,3.78,2.31.76-.64,1.15-.95,1.88-1.61.1-.06.24-.08.37,0,.13.08.23.2.19.29-.02.06-1.6,1.53-1.82,1.71-.06.05-.38.29-.45.32-.06.02-.3.03-.36,0ZM15.98,86.57c.78-.71,2.16.09,2.78.45.55.31,1.4.79,1.47.83.24.15,1.96,1.21,1.92,1.25-.03.19-.13.33-.36.35-.18.01-2.32-1.25-2.53-1.37-.28.31-.43.47-.73.77.28.17.09.04.36.21.06.04.17.13.09.19-.14.12-.2.18-.34.29-.18.16-1.07-.45-1.65-.8l-.08-.05c-.77-.47-1.75-1.39-.94-2.12ZM17.87,88.44c.31-.3.46-.45.75-.76-.53-.3-1.61-.98-1.95-.68-.52.45.24.95,1.2,1.44ZM18.1,84.36c.34-.42.92-.55,1.4-.26.14.09.34.22.22.39-.31.45-.74-.17-1.03.23-.39.53.78,1.39,1.22,1.66.38.23,1.45.72,1.83.28.25-.29-.75-1.07-.74-1.32,0-.02.17-.22.34-.21l.16.09c.65.4,1.3,1.21.76,1.88-.66.81-2.04.28-2.78-.17-.76-.47-2.11-1.66-1.38-2.58ZM21.88,84.33c.67.45,1.64,1.11,1.61,1.17-.06.11-.12.22-.18.32l-.05.06h-.12c-.11,0-.18-.06-.18-.06,0,0-.19-.13-1.17-.76,0,0-.1-.06-.29-.19-.1-.07-.2-.13-.3-.2-.1-.07-.2-.13-.31-.2-.1-.07-.2-.13-.31-.2-.1-.06-.2-.13-.3-.19-.1-.06-.19-.12-.29-.18-.09-.06-.18-.12-.27-.17-.08-.05-.16-.1-.24-.16-.07-.05-.14-.09-.21-.14-.06-.04-.12-.08-.18-.11l-.13-.09-.09-.06-.03-.02c-.1-.09-.17-.16-.1-.29.03-.05.24-.33.34-.27.78.5,1.17.75,1.95,1.25-.22-.76-.91-1.53-1.32-2.3l.03-.11c.05-.14.27-.35.45-.24.12.07.76,1.11,1.03,1.71l.07.11s.75.2.87.21c.6.07,2.11.24,2.71.32.12.02.31,0,.45.08.16.1.14.45.1.57h0s-.08.08-.08.08c-1.43-.16-2.16-.25-3.65-.45,0,0,.14.36.19.5ZM24.28,82.99c-1.65-1.01-2.47-1.51-4.11-2.52-.2-.12-.3-.23-.23-.46.06-.21.16-.41.39-.27,1.51.93,2.27,1.39,3.79,2.32.4-1.39.54-2.12.87-3.55.05-.09.14-.14.27-.06.13.08.26.22.27.34.01.08-.71,3.4-.78,3.67-.02.08-.15.43-.19.47-.03.03-.21.09-.27.05ZM21.22,78.02c1.07.43,1.78,1.12,3,1.96.1.13.11.23.08.36h0c-.02.11-.09.39-.18.33-1.01-.64-1.51-.97-2.52-1.61-.34-.21-.76-.49-.7-.73.04-.19.19-.38.33-.32ZM21.28,77.58c-.21-.13-.12-.65.1-.76.48-.22,2.22.18,2.74.25-.07-.04-.11-.06-.18-.11-.07-.04-.14-.08-.21-.12-.68-.41-2.13-1.18-2.5-1.53-.07-.07-.08-.18-.04-.31.05-.2.12-.34.2-.32.77.11,2.73,1.75,3.83,2.42.14.09.29.17.43.25.08.05.17.19.17.23-.04.16-.06.24-.1.41-.04.15-.74-.04-.88-.06-.63-.06-2.02-.47-2.53-.44.54.37,2.11,1.16,2.26,1.42.09.17-.05.56-.14.6-1.26-.77-1.89-1.15-3.14-1.92Z"/>
    <path class="cls-6" d="M24.21,72.97c-.47-.29-1.77-1.09-2.16-1.33-.39-.24-.28-.48-.26-.53.15-.31.68.01.89.15.27.16,1.75,1.06,2.2,1.28.07-.18.11-.27.19-.45l.15-.35c-.69-.42-1.03-.63-1.72-1.05-.18-.11-.21-.21-.12-.35.15-.22.29-.29.54-.16.19.1,1.07.59,1.26.71.92.56,2.75,1.67,3.38,2.12.11.1,0,.21-.04.28-.05.07-.19.25-.33.17-.89-.54-1.34-.82-2.23-1.36l-.09.04c-.11.1-.31.78-.34.83h0c.28.17.41.25.69.41l.09.14c0,.1,0,.21-.05.29-.06.13-.18.2-.34.11-.77-.39-.94-.48-1.7-.95Z"/>
    <path class="cls-6" d="M25.08,70.15c-.28-.17-.44-.27-.71-.5-.23-.19.25-.79.39-.94.53-.56,1.4-.68,2.11-.25.76.46.44.95.11,1.42.7.06,2.67.17,3.38.27.11.09.06.31-.04.4-.2.18-2.97-.02-3.64-.19h0c1.27.7,1.66.96,1.74,1,.06.09-.11.29-.17.37-.08.09-.14.1-.28.07-1-.51-1.95-1.07-2.89-1.65ZM25.09,69.37c.41.25.62.38,1.03.63h0c.16-.17.67-.82.33-1.07-.36-.27-.89-.14-1.18.17l-.18.28Z"/>
    <path class="cls-6" d="M27.37,66.52c.75-.64,1.84-.15,2.52.26.61.37,2.7,1.61,1.6,2.55-.88.75-2.11.2-2.84-.24-.87-.53-2.42-1.6-1.29-2.57ZM29.02,68.55c.72.44,1.55.71,1.9.42.38-.33-.35-1.07-1.21-1.6-.71-.43-1.51-.72-1.81-.46-.42.35.27,1.12,1.12,1.64Z"/>
    <path class="cls-6" d="M28.87,65.39l.12-.12c.27-.23.54-.21.57-.2.35.23.84.57,1.41.92.76.47,1.96,1.04,2.39.65.54-.49-.9-1.48-1.77-2.01-.27-.16-.54-.32-.8-.48-.27-.16-.55-.31-.81-.48l-.14-.09c-.07-.06-.08-.15,0-.21.1-.1.2-.2.3-.31.1-.1,1.55.79,2.05,1.1.85.52,2.94,1.8,1.74,2.89-1.06.96-3.01-.25-3.79-.72-.17-.1-1.41-.81-1.26-.94Z"/>
    <path class="cls-21" d="M70.48,83.26l-44.45-27.19c-.68-.42-1.56-.2-1.98.48s-.2,1.56.48,1.98l44.45,27.19c.68.42,1.56.2,1.98-.48s.2-1.56-.48-1.98"/>
  </g>
  <g>
    <path class="cls-9" d="M63.17,82.64c-.1,1.2-8.22.65-7.06-2.97.57-1.77,2.39-2.35,3.1-2.25.39.05,1.65.48,2.11,2.47.3,1.27,1.91,1.98,1.85,2.75"/>
    <path class="cls-13" d="M60.06,82.72c-.84-.12-1.72-.35-2.44-.74-1.56-.85-1.23-1.86-1.13-2.19.04-.14.1-.27.16-.39.42,1.18,1.81,1.81,3.3,2.01.64.09,1.29.1,1.89.04.04.04.07.11.13.13.88.37,1.37.97,1.01,1.19-.51.31-2.39.01-2.91-.06"/>
    <path class="cls-21" d="M59.16,77.81h0c-.55-.08-2.16.4-2.67,1.98-.11.33-.43,1.34,1.13,2.19,1.84,1,4.75.96,5.16.59-.02-.19-.34-.51-.62-.79-.46-.46-1.04-1.03-1.22-1.8-.46-1.96-1.72-2.16-1.78-2.17M60.02,83.52c-1.37-.19-2.81-.66-3.63-1.45-.73-.7-.96-1.57-.65-2.52.61-1.92,2.59-2.65,3.53-2.53h0c.2.03,1.87.33,2.44,2.78.13.55.59,1.01,1,1.42.46.46.9.9.85,1.45-.02.22-.15.52-.67.71-.63.24-1.73.29-2.89.13"/>
    <path class="cls-21" d="M61,83.6s-.01,0-.02,0c-.69-.13-1.2-.49-1.52-1.06-.95-1.69.21-4.75.26-4.88.08-.2.31-.31.51-.23.2.08.31.31.23.51-.3.78-.95,3.07-.31,4.21.2.36.52.58.98.67.22.04.36.25.32.46-.04.21-.24.35-.44.32h0Z"/>
    <path class="cls-21" d="M56.99,82.49c-.12-.02-.24-.09-.3-.21-.92-1.75,1.79-4.79,2.1-5.13.15-.16.4-.17.56-.03.16.15.17.4.03.56-1.03,1.13-2.48,3.28-1.98,4.23.1.19.03.43-.17.54-.08.04-.16.05-.24.04h0Z"/>
  </g>
</svg>