<?xml version="1.0" encoding="UTF-8"?>
<svg id="Vrstva_1" data-name="Vrstva 1" xmlns="http://www.w3.org/2000/svg" viewBox="0 0 79.37 79.37">
  <defs>
    <style>
      .cls-1 {
        fill: #fcf7f6;
      }

      .cls-2 {
        fill: #ccb3c9;
      }

      .cls-3 {
        fill: #edcba9;
      }

      .cls-4 {
        fill: #97745d;
      }

      .cls-5 {
        fill: #c1866e;
      }

      .cls-6 {
        fill: #64140e;
      }

      .cls-7 {
        fill: #e8b886;
      }
    </style>
  </defs>
  <path class="cls-6" d="M49.24,4.27c2.72,5.68,3.14,12.86,2.53,19.03-.53,5.34-2.03,10.49-4.62,15.2,4.54,2.15,8.17,1.59,12.77.3,3.29-.83,5.94-1.67,9,.15,1.17.04,2.31.41,3.17,1.14.69.62,1.04,1.53.51,2.3.17.63-.2,1.14-.72,1.51-.02.71-.42,1.26-1.01,1.63-.75.6-1.6.97-2.57,1.24-1.43,1.62-3.31,2.73-5.34,3.54l-5.9,1.88c-1.96.63-3.72,1.7-4.75,3.46-1.15,1.98-1.22,4.17-.11,6.18l.91,1.46c.62.74.68,1.58.67,2.49-.01,1.4-.01,2.78-.59,4.07.25.62.28,1.21.1,1.84-.1,1.37-.57,3.25-1.82,3.28-.23.69-.79,1.04-1.51.96-.28-.07-.56-.1-.84-.12-.41-.02-.82-.17-1.12-.45-.86-.79-1.36-1.83-1.7-2.98-5.23-2.74-6.86-9.57-11.07-13.94l.94,3.81c.69,2.81,1.37,5.57,1.48,8.45.06,1.68-.13,3.41-1.36,4.67-.2.93-.51,1.82-1.17,2.57-.31.35-.73.6-1.2.69-1.23.25-1.48-.17-2.37-.58-.27-.12-.51-.3-.71-.52-.76-.86-1.27-1.87-1.46-3.03-.9-1.45-1.32-2.99-1.57-4.71-.84-5.94-1.24-11.85-1.38-17.83l-.11-4.31-3.02.18c-3.88-.03-7.32-1.75-9.5-4.98-4.67-6.9-3.86-17.12,3.31-22.17,1.49-1.05,2.58-2.57,3.01-4.32l.09-2.05c1.48-.97,3,.54,3.65,2.34,1.15-1.41,2.7-3.93,3.89-2.62.38.78.65,1.66.54,2.57,4.39-.12,8.44,1.46,11.68,4.57.41-4.59.24-8.94-.12-13.35-.11-1.1-.13-2.04.07-3.22l.43-2.06c.28-1.2,1.3-2,2.49-1.71.8-.64,1.82-.64,2.63-.02,1.17-.21,2.13.48,2.66,1.52l1.13,1.93Z"/>
  <path class="cls-7" d="M46.21,38.72c.88.65,1.97.93,2.96,1.38,2.66.97,5.54.96,8.28.38,2.13-.54,4.27-1.04,6.41-1.5,1.33-.14,2.64-.08,3.95.19.46.24-2.21,1.44-1.64,5.12l-.02.56c-1.78,2.05-4.52,2.89-7.06,3.62-3.58.79-6.36,1.51-8.4,4.82-2.22,3.59-2.18,8.07-1.95,12.14,0,2-.35,4.41-2.51,5.11-.5.16-.93.25-1.41-.04-.92-.75-1.73-1.6-2.38-2.64l-2.62-4.16c-1.71-2.71-3.59-6.06-6.42-7.62l-.11.1c.91,3.96,1.59,8.07,1.9,12.09.15,2.02-.03,5-2.31,5.73-1.13.36-2.75-.07-3.51-.98-.56-1.29-.78-2.7-.99-4.1-.57-6.84-.96-13.91-1.19-20.74,0-.1.06-.15.17-.17l.47-.26c2.85-.28,5.65-1.14,8.06-2.69,2.51-1.61,4.13-3.74,5.71-6.23.62-.72,1.12-1.51,1.61-2.37,2.87-5.04,1.07-10.32-2.5-14.47.31-3.08.42-6.17.33-9.27l-.39-6.29.17-.14.19-.02c1.95,1.41,4.16,1.11,6.2.07,1.18,1.54,1.57,3.8,1.87,5.72,1.34,8.48-.24,17.83-4.07,25.5.37.31.76.6,1.19.9v.28Z"/>
  <path class="cls-5" d="M44.83,70.5c1.52.07,2.73-.65,3.27-2.13.45-1.23.46-2.55.38-3.9-.27-4.48.09-9.35,3.13-12.8,1.3-1.48,3.01-2.3,4.92-2.77,2.93-.72,7.04-1.69,9.1-3.8.25-.26.51-.46.54-.8.14.89.45,1.72,1.11,2.47-2.37,2.48-6.27,3.57-9.53,4.47-1.53.43-2.92.98-4.17,1.93-3.21,2.45-3.81,6.86-1.36,10.1.51.68.93,1.37.92,2.28.09,1.34-.13,2.62-.51,3.92-1.42,1.72-3.65,2.73-5.88,2.24-.76-.17-1.38-.77-1.91-1.2Z"/>
  <path class="cls-5" d="M46.21,38.72c-.47-.34-1-.63-1.39-1.18,4.08-8.73,5.8-18.67,3.52-28.07-.26-1.09-.59-2.05-1.17-2.97-1.96,1.25-4.64,1.36-6.35-.21-.26.1-.28-.46-.11-.56.58.66,1.37.99,2.17.54.7.69,1.76.67,2.42-.04,2.13.58,2.17-1.78,2.6-1.86.38-.07.55.04.71.37.83,1.68,1.37,3.39,1.78,5.23,2.1,9.36.57,20.37-4.19,28.75Z"/>
  <path class="cls-5" d="M33.41,56.07l.8,1.31c.99,3.94,2.04,7.75,2.63,11.74.28,1.94.23,3.8-.8,5.49-1.58,1-3.57.9-5.18-.05-.72-.35-1.21-.87-1.5-1.54l1.35.66c.89.27,1.77.37,2.63-.12,1.91-1.08,1.75-4.35,1.51-6.65-.39-3.72-1.04-7.32-1.78-10.97.18-.08.25.09.33.14Z"/>
  <path class="cls-3" d="M67.81,39.17l-.7.14c-1.79-.38-3.43-.16-5.18.29-4.41,1.14-8.47,2.47-12.77.51,2.9.81,5.89.66,8.86-.07l5.43-1.33c1.52-.23,3.06-.2,4.35.47Z"/>
  <path class="cls-1" d="M44.89,5.56c-.33.64-1.18.63-1.61.16-.43-1.41-.49-2.87-.02-4.27.44-.53,1.3-.51,1.72,0-.31,1.37-.4,2.68-.08,4.11Z"/>
  <path class="cls-3" d="M27.35,48.01l.12,3.57.93,16.28c.02.4.24.75-.02,1.06-.91-6.93-1.22-13.93-1.37-20.93l.34.02Z"/>
  <path class="cls-1" d="M71.49,43.28c-1.46-.67-2.98-.69-4.57-.23-.13-.63.07-1.28.44-1.82,1.59-.6,4.44.26,4.56,1.27.03.3-.08.59-.43.78Z"/>
  <path class="cls-3" d="M40.71,5.72l.11.56.39,6.05c.21,3.26-.07,6.47-.51,9.66-.22-.25-.05-.64-.03-.98.32-4.04.25-8.02-.07-12.07-.1-1.28-.21-2.42-.09-3.7.13.14.16.32.19.47Z"/>
  <path class="cls-1" d="M70.81,43.77c.33.43-.43.96-.8,1.16-.74.42-2.42.92-2.93.03-.14-.37-.29-.74-.15-1.16,1.23-.53,2.65-.54,3.87-.04Z"/>
  <path class="cls-1" d="M42.54,5.57c-.4.33-.93.15-1.17-.31-.48-.9-.58-2.11-.14-3.04.26-.55.83-.84,1.37-.74-.32,1.36-.38,2.65-.06,4.09Z"/>
  <path class="cls-1" d="M46.61,1.71c.56.79.43,3.16-.4,3.69-.2.13-.43.23-.62.04-.32-1.22-.36-2.61.08-3.84.13-.35.71-.03.94.1Z"/>
  <path class="cls-1" d="M50.8,74.41c.19.36-.39,1.02-.76.79-.94-.57-1.32-1.66-1.52-2.69l1.49-.32c.11.82.38,1.44.79,2.21Z"/>
  <path class="cls-1" d="M51.35,73.96c-.49-.56-.57-1.31-.7-2.05l1.31-.79c.38.05.36.65.35.99-.02.54-.31,1.92-.95,1.85Z"/>
  <path class="cls-2" d="M67.09,44.96c1.03.69,3.39-.08,3.72-1.19,1.1.45-1.42,2.12-3.02,2.39-.39-.33-.58-.75-.71-1.19Z"/>
  <path class="cls-1" d="M72.03,41.28c-1.31-.59-2.65-.99-4.17-.85.26-.32.54-.47.88-.73,1.2-.05,2.59.32,3.29,1.59Z"/>
  <path class="cls-1" d="M33.28,77.93c-.98.2-1.7-1.2-1.9-2.35l1.34.39c.07.7.2,1.33.56,1.96Z"/>
  <path class="cls-1" d="M31.33,76.98c-.86-.32-.87-.81-1.14-1.73l.73.24c.13.52.19,1.01.42,1.49Z"/>
  <path class="cls-1" d="M34.86,75.89c.53.28-.5,1.76-.82,1.77-.05,0-.11-.03-.16-.07-.37-.42-.45-.97-.49-1.56l1.47-.14Z"/>
  <path class="cls-2" d="M51.35,73.96c.73-.71.85-1.91.6-2.84.23-.14.35-.45.69-.56.07,1.31-.4,3.6-1.04,3.6-.06,0-.2-.07-.26-.19Z"/>
  <path class="cls-2" d="M45.58,5.44c1.33-.08,1.27-2.23,1.02-3.74.39.21.61.74.52,1.33-.12.81.02,1.71-.64,2.32-.15.14-.29.3-.49.32-.13.01-.35,0-.42-.24Z"/>
  <path class="cls-1" d="M47.83,72.53l.65,2.13c-1.04-.51-1.09-1.38-1.43-2.16l.78.02Z"/>
  <path class="cls-2" d="M33.88,77.59c.6-.37.89-1,.98-1.7l.64-.16c-.3.97-1.2,2.32-1.45,2.04l-.17-.19Z"/>
  <g>
    <path class="cls-5" d="M43.88,30.91c.34,4.54-3.14,8.28-6.43,11.38,1.59-.87,2.98-2.12,4.15-3.46-2.57,5.66-8.12,8.73-14.25,9.18-.03.32-.28.29-.34-.02-.33-.89,1.76-.67,3.08-1.8-2.25.46-4.29.87-6.5.88-5.72.03-9.51-3.44-11.05-8.71l1.34,2.08c1.29,2,3.13,3.4,5.35,4.22,2.75,1.02,5.54.87,8.4.28,5.13-1.07,9.9-3.64,13.19-7.73,1.54-1.92,2.66-3.97,3.06-6.3Z"/>
    <g>
      <path class="cls-7" d="M40.33,22.71c1.31,1.35,2.22,3.05,2.93,4.84.45,1.13.54,2.22.62,3.36-.31,4.3-3.94,8.23-7.37,10.58-7.56,5.16-19.91,6.84-23.96-3.12-.96-2.09-1.08-4.63-.86-6.93.72-3.33,2.1-6.66,4.92-8.91,2.16-1.45,3.88-3.3,4.34-5.93.04-.68.13-1.66.66-1.54.55.11.96.7,1.2,1.16.17.32.3.71.38,1.08.16.66.02,1.11.29,1.09.31-.14.47-.56.69-.82.76-.92,1.54-1.84,2.32-2.77.46-.55.63-.14.8.42.07.21.12.43.17.65.08.36.12.74.17,1.11.04.34.29.5.58.58,4.58-.12,9.01,1.86,12.11,5.14Z"/>
      <path class="cls-3" d="M22.29,15.48c-.33-.15-.68-.34-1.03-.04-.06,2.56-1.31,4.91-3.45,6.43-2.26,1.6-3.98,3.66-4.94,6.31l-1.19,3.26c.4-4.16,2.52-7.88,5.96-10.28,1.94-1.35,3.59-4.04,3.14-6.45.67-.09,1.13.34,1.5.78Z"/>
      <g>
        <path class="cls-4" d="M21.7,44.35c.3.08.27.23-.03.27-3.06-.67-5.51-3.08-6.59-5.94.85-2.93,2.97-5.36,5.93-6.14,1.41-.37,2.8,0,3.76.98s1.41,2.38.87,3.74c-.74,1.87-3.69,4.2-3.94,7.1Z"/>
        <path class="cls-6" d="M23.91,35.73c.38.87-1.99-.07-3.79,2.56-.09.13-.27.21-.37.2-.12,0-.34-.22-.32-.44.18-1.89,2.24-3.36,4.02-2.67.23.09.42.22.47.34Z"/>
      </g>
      <g>
        <path class="cls-4" d="M39.56,25.86c1.9,2.35,2.69,5.82,1.43,8.69-.9-.48-1.88-.81-2.94-.78l-3.55.11c-1.72.16-3.22-.56-3.97-2.05s-.48-3.22.74-4.47c2.11-2.16,5.45-2.54,8.28-1.51Z"/>
        <path class="cls-6" d="M36.95,29.8c-2.91-.13-3.79,1.96-4.24,1.68-.17-.11-.24-.36-.19-.61.36-1.86,2.45-2.7,4.18-1.96.18.08.33.2.42.29.09.11.04.62-.16.61Z"/>
      </g>
      <g>
        <path class="cls-1" d="M39.56,25.86l-.39.1c-2.96-1.15-8.15.02-8.77,3.54-.41,2.32,1.23,4,3.47,4.18l4.18-.13c.58-.04,2.46.29,2.8.68.08.09.13.2.14.32-.56,1.29-1.36,2.46-2.27,3.53l-.11.13s-.08.08-.15.05c-.09.2-.24.35-.39.5-3.5,3.41-11.27,7.07-16.18,5.77-.07-.02-.13-.09-.19-.17-.22-.4-.18-.89.11-1.46.86-1.74,1.92-3.37,3.19-4.9.99-1.59.85-3.31-.64-4.55-3.2-2.66-8.19,1.65-8.97,4.98l-.31.26c-1.47-3.91-.14-8.12,3.59-10.2,2.01-1.12,4.34-1.46,6.6-.54.88-3.05,3.44-5.07,6.34-5.54,3.16-.51,6.19.84,7.95,3.46Z"/>
        <path class="cls-2" d="M38.46,38.26c-.02.27-.17.44-.38.65-3.33,3.27-7.61,5.32-12.24,5.99-1.46.21-2.82.02-4.17-.28l.03-.27c5.72,1.02,12.55-2.27,16.76-6.09Z"/>
        <path class="cls-2" d="M38.61,38.21l.11-.13-.11.13Z"/>
        <path class="cls-6" d="M32.38,35.44c-1.21,3.15-5.32,3.03-5.47,2.15-.02-.15.13-.52.38-.5,1.61.15,3.2-.58,4.19-1.91.17-.22.18-.5.52-.43.24.05.51.34.38.69Z"/>
        <g>
          <path class="cls-6" d="M27.15,35.38c-.34-.19-.54-.47-.6-.74-.26-1.33,3.05-2.78,3.61-1.78.43.76.06,1.73-.48,2.3-.63.66-1.74.67-2.54.23Z"/>
          <path class="cls-5" d="M29.23,33.4c-.71.23-1.32.72-2.12.82.89-1.21,2.79-1.4,2.33-.99l-.2.18Z"/>
        </g>
      </g>
    </g>
  </g>
</svg>