<?xml version="1.0" encoding="UTF-8"?>
<svg id="Vrstva_1" data-name="Vrstva 1" xmlns="http://www.w3.org/2000/svg" viewBox="0 0 89.27 92.93">
  <defs>
    <style>
      .cls-1 {
        fill: #fff;
      }

      .cls-2 {
        fill: #68a930;
      }

      .cls-3 {
        fill: #b589a6;
      }

      .cls-4 {
        fill: #c57f4f;
      }

      .cls-5 {
        fill: #e9a972;
      }

      .cls-6 {
        fill: #f4d4b6;
      }

      .cls-7 {
        fill: #d1b9ca;
      }

      .cls-8 {
        fill: #c1866e;
      }

      .cls-9 {
        fill: #faf1e7;
      }

      .cls-10 {
        fill: #64140e;
      }

      .cls-11 {
        fill: #967660;
      }

      .cls-12 {
        fill: #e8b886;
      }

      .cls-13 {
        fill: #426f1e;
      }
    </style>
  </defs>
  <g>
    <g>
      <path class="cls-1" d="M17.27,47.73c.54-.09,1.04.3,1.08.85.02.28-.04.59-.25.91-.5.78-2.32.2-3.33-.91-.27-.3-.03-.77.37-.73.5.05,1.21.05,2.13-.11"/>
      <path class="cls-7" d="M15.35,48.68c-.12-.1-.24-.21-.34-.33-.01-.01-.02-.03-.03-.04.09.04.17.07.26.1.41.14.8.2,1.15.17.07,0,.13-.01.2-.03.02.02.04.05.06.07-.39.02-.72,0-.99-.02-.12-.01-.22.02-.3.08"/>
      <path class="cls-10" d="M17.27,47.73h0s0,0,0,0M17.62,48.07c-.09-.03-.2-.04-.3-.02h0c-.81.14-1.56.18-2.22.11-.07,0-.1.04-.12.07-.01.03-.03.08.02.13.72.79,1.78,1.21,2.39,1.16.21-.02.36-.09.43-.21.14-.22.21-.46.19-.71-.01-.17-.09-.32-.22-.43-.05-.04-.12-.08-.18-.1M16.38,49.99c-.67-.23-1.36-.66-1.85-1.21-.21-.23-.26-.57-.12-.85.14-.29.44-.45.76-.42.6.06,1.29.03,2.04-.1.35-.06.71.03.99.25.28.22.45.54.47.89.02.39-.08.76-.3,1.1-.19.29-.51.46-.92.5-.32.03-.69-.03-1.06-.16"/>
      <path class="cls-1" d="M16.2,45.97c.59-.1,1.14.33,1.17.92.02.3-.04.64-.27.99-.55.85-2.52.22-3.63-.99-.29-.32-.03-.84.41-.8.55.06,1.32.06,2.32-.12"/>
      <path class="cls-7" d="M14.27,47.17c-.2-.15-.39-.32-.56-.51-.06-.07-.04-.14-.02-.17.01-.03.05-.08.13-.09.25.14.52.25.78.34.28.1.57.16.84.2-.26,0-.49-.01-.69-.03-.22-.02-.39.1-.48.26"/>
      <path class="cls-10" d="M16.25,46.29c-.88.15-1.69.19-2.4.12-.1-.01-.14.06-.16.09-.02.04-.04.11.02.17.71.78,1.86,1.34,2.62,1.27.24-.02.4-.1.49-.24.16-.25.23-.52.22-.79-.01-.19-.1-.37-.26-.49-.15-.12-.35-.17-.54-.14M15.24,48.41c-.72-.24-1.47-.72-2.01-1.31-.22-.25-.27-.6-.12-.9.15-.3.46-.47.8-.44.66.07,1.41.03,2.23-.11.37-.07.75.03,1.05.27.29.23.48.58.5.95.03.42-.08.81-.32,1.18-.2.31-.54.49-.98.53-.34.03-.74-.04-1.15-.17"/>
      <path class="cls-1" d="M15.77,44.45c.55-.17,1.12.16,1.23.73.06.28.04.61-.13.97-.41.88-2.37.53-3.58-.48-.32-.27-.14-.8.29-.81.53-.02,1.26-.11,2.19-.41"/>
      <path class="cls-7" d="M14.06,45.81c-.2-.11-.39-.25-.56-.39-.06-.05-.05-.11-.04-.15,0-.03.04-.09.13-.09.69-.02,1.46-.16,2.28-.42.08-.02.16-.03.24-.03-.13.19-.24.41-.32.64-.52.11-.96.16-1.31.17-.2,0-.34.12-.41.28"/>
      <path class="cls-10" d="M15.77,44.45h0s0,0,0,0M16.27,44.76c-.13-.04-.27-.05-.4,0-.82.26-1.58.4-2.28.42-.09,0-.12.07-.13.09-.01.03-.02.1.04.15.77.65,1.93,1.03,2.65.88.22-.05.37-.14.43-.28.12-.25.15-.52.1-.77-.04-.18-.14-.33-.3-.42-.04-.02-.08-.04-.12-.06M14.6,46.75c-.54-.18-1.08-.47-1.51-.84-.25-.21-.34-.54-.23-.85.11-.31.39-.52.72-.53.63-.02,1.34-.15,2.1-.39.35-.11.73-.07,1.04.12.31.19.53.5.6.85.08.4.03.79-.15,1.17-.15.32-.46.54-.88.64-.48.1-1.09.03-1.69-.17"/>
      <g>
        <path class="cls-10" d="M16,75.52c-.48.35-1.1.49-1.53,0-.75-.63-2.64-2.24-3.21-2.72-.3-.26-.8-.47-1.21-.34-.52.28-.67,1.16-.24,1.65.71,1.15,1.91,1.86,3.11,2.96.27.27.56.36.77.66.21.26.05,1.04-.07,1.29-.13.21-.63-.43-1.06-.73-.92-.78-2.19-1.86-2.65-2.25-2.76-2.02-1.24-6.06,2.07-4.02.98.85,2.14,1.78,3.46,2.85.39.33.68.48.58.64l-.02.03Z"/>
        <path class="cls-10" d="M73.32,64.55c-.05.21-.73.38-1.09.36-.25-.02-.53-.14-.81-.26-2.13-1.03-4.09-.11-5.53,1.65-.32.38-.66.76-1.14.9-.26.07-.98.31-1.17.24-.02-.04.06-.15.19-.32.59-.72,1.21-1.59,1.84-2.27,2.03-2.19,5.49-2.39,7.72-.33v.04Z"/>
        <path class="cls-12" d="M33.28,86.53c-1.97.25-4.95.21-6.69-.84-.24-.27-.51-.38-.84-.49-.69-.28-2.18-1.36-2.72-1.94-.26-.37-.54-.52-.93-.8-.55-.5-1.63-1.46-1.98-1.87-.4-.61.43-.04.59.11.46.45.88.39,1.34.64.38.33.87.68,1.14,1.13,2.28,2.7,5.7,4.09,9.28,3.61l7.47-1.41,26.37-5.27c4.59-.95,8.59-3.45,11.04-7.57.61-.99,1.03-2.15.88-3.32-.07-.78.38,0,.49.48.18.83-.1,1.67-.47,2.41-2.01,3.91-5.38,6.47-9.44,7.87-11.75,2.53-23.59,4.95-35.53,7.26Z"/>
        <path class="cls-4" d="M20.73,80.77c.92.85,2.83,2.6,3.46,3.19.37.33.47,1.13-.04,1.37-.82.35-1.76-.57-2.49-.76-1.56-1.11-2.9-2.37-4.42-3.54-.62-.53-.86-.55-.84-1.12.03-.52.26-1.07.7-1.36.67-.4,1.02-.16,1.58.38.52.46,1.65,1.46,2.04,1.81l.03.03Z"/>
        <path class="cls-5" d="M14.75,76.04c-.16.24-.44.42-.62.7-.21.3-.39.51-.7.29-1.18-.89-2.6-2.07-3.67-3.07-.15-.14-.29-.3-.34-.5-.22-.98.81-1.4,1.55-.84,1.24.87,2.43,1.91,3.56,2.93.12.11.29.28.24.43l-.02.05Z"/>
        <path class="cls-4" d="M13.88,77.17c-.02.12-.17.64-.3.73-.09-.03-.13-.1-.21-.16-.53-.46-1.92-1.65-2.63-2.26-.4-.34-.76-.63-1.03-1.11-.72-1.4.26-.68.83-.12.83.77,3.09,2.52,3.34,2.88v.04Z"/>
        <path class="cls-6" d="M15.09,75.93c-.08.04-.21.08-.3.03-.28-.22-1.66-1.42-2.47-2.11-.71-.58-1.43-1.36-2.42-1.38-.06,0-.1-.02-.08-.04.35-.28,1.19-.02,1.51.3.45.43,3.53,2.81,3.78,3.19h-.02Z"/>
        <path class="cls-10" d="M20.83,79.27c.02.06.02.13,0,.17-.04.06-.13.09-.21.07.03-.05.04-.16.09-.19.03-.02.16-.05.13-.05Z"/>
        <path class="cls-4" d="M34.07,86.17l26.05-5.25,7-1.44c5.25-1.07,10.32-4.9,11.63-10.23.43.89.25,2.05-.18,3.01-2.2,4.16-6.1,7.18-10.71,8.3l-10.67,2.2-23.42,4.8c-2.38.49-4.74.36-7.01-.32-.32-.15-.92-.42-1.26-.57-.05-.01-.27-.26-.25-.29.23-.44.64-.79,1.07-1.06,2.33,1.21,5.08,1.4,7.74.86Z"/>
        <path class="cls-4" d="M26.34,85.46c.1.4-.54.65-.69.97-.07.1-.15.23-.29.24-1.61-.64-2.96-1.93-4.35-2.97-.32-.22-.45-.6-.02-.76.33-.07.62.34.99.41.19.06.4.05.55-.09.11-.11.15-.46.3-.44,1.04.73,2.03,1.7,3.19,2.31.11.07.25.16.3.27l.02.05Z"/>
        <path class="cls-8" d="M72.41,64.93c-1.17.47-2.66.79-3.79,1.46-.75.34-1.61.29-2.4.44-.24.06-.63.17-.89.24-.15.04-.24.04-.24-.01,1.14-1.8,2.93-3.44,5.12-3.07.67.13,1.6.65,2.2.93h0Z"/>
        <path class="cls-12" d="M78.35,68.57c-.31-.67-1.03-1.01-1.69-1.37-.43-.19-.88-.53-1.35-.55-.26.03-.39.21-.57.48-.13.22-.29.46-.38.67-.22.44-.1.76-.05,1.2.05.53-.26,1.07-.74,1.31-.36.17-.76.16-1.14.24.02-.03.02-.06.02-.1-.19-.18-.49-.52-.64-.63l-.04-.02c-.48-.23-1.01-.48-1.48-.68-.23-.08-.52-.24-.76-.19,0,0,0-.02,0-.02l-.02-.05c-.13-.22-.41-.21-.62-.13-.35.13-1.51.51-1.84.65-.05.03-.08.07-.08.1-.01,0-.03-.02-.04-.03l-5.59,1.69c-1.45,1.33-3.17,2.16-5.07,2.68-9.11,2.04-18.2,3.73-27.4,5.36-1.82.32-3.56.62-5.39.55-.2,0-.42,0-.59.08-.4.19-.49.76-.72,1.1-.15.26-.23.54-.05.81.69.82,1.46,1.65,2.36,2.29,2.1,1.74,4.85,2.53,7.56,2.32,11.53-2.04,23.04-4.49,34.64-6.84,2.99-.57,5.81-1.94,8.11-3.97,1.66-1.52,4.37-4.64,3.57-6.97Z"/>
        <path class="cls-10" d="M69.58,65.87c.01.06-.02.1-.06.11-.06.01-.12.02-.16.02.05-.07.13-.1.22-.13Z"/>
        <g>
          <path class="cls-10" d="M72.22,69.1c.01-.35.28-.82.66-.85.2.38-.41.67-.65.86h-.02Z"/>
          <g>
            <path class="cls-2" d="M46.77,74.4c-.37.12-.74.24-1.11.34,0,0-.55.15-1.12.26-1.21.24-17.54,2.33-20.08,2.88-1.21.26-1.57.68-1.72.94-.19.33-.18.61-.42.71-.45.18-.92-.63-1.42-.46-.4.13-.36.73-.7.78-.29.04-.44-.38-1.07-.9-.44-.37-.77-.65-1.17-.66-.88-.02-1.75,1.25-1.59,1.94.11.47.55.79.91,1.09.59.55-.12.69-.52.45-1.11-.58-2.12-1.61-2.99-2.43-.22-.23-.34-.53-.31-.84.14-.62.04-1.23.35-1.8.37-.71,1.17-.98,1.89-1.21,4.34-.38,12-1.3,15.58-1.74l10.67-1.45c.2-.03.31-.2.32-.33.33.95.96,1.58,1.98,1.8l2.54.64Z"/>
            <path class="cls-10" d="M17.15,82.27c-.21,0-.43-.06-.61-.16-1.01-.53-1.94-1.42-2.76-2.2l-.3-.29c-.32-.33-.47-.75-.42-1.17.05-.25.07-.45.09-.67.04-.41.07-.84.31-1.27.45-.86,1.41-1.17,2.11-1.39.03,0,.06-.02.09-.02,4.27-.38,11.79-1.27,15.56-1.74l10.66-1.45c0-.16.15-.31.33-.33,0,0,.04,0,.05,0,.17,0,.32.11.37.26.3.86.85,1.36,1.69,1.55l2.55.64c.17.04.29.19.3.37s-.1.33-.27.39c-.31.1-.71.23-1.13.34-.19.05-.66.17-1.15.27-.47.09-3.06.44-6.33.89-5.14.7-12.18,1.65-13.74,1.99-1.18.26-1.4.63-1.47.75-.05.09-.09.18-.12.27-.08.21-.18.47-.49.6-.09.04-.18.05-.28.05-.3,0-.56-.17-.76-.31-.13-.09-.3-.2-.39-.2-.06.02-.12.13-.17.23-.1.2-.25.51-.62.57-.04,0-.07,0-.11,0-.32,0-.52-.23-.73-.46-.14-.15-.3-.34-.54-.54-.39-.32-.67-.56-.93-.57h0c-.28,0-.56.18-.83.5-.26.32-.42.74-.37.96.07.3.38.56.68.8l.1.08c.53.49.36.86.26.99-.13.17-.35.27-.62.27ZM42.13,72.64s-.1.03-.15.03l-10.67,1.45c-3.76.47-11.27,1.36-15.56,1.74-.57.19-1.3.42-1.61,1-.16.29-.19.62-.22.97-.02.24-.04.48-.1.74-.01.15.06.34.21.48l.29.27c.67.64,1.41,1.35,2.2,1.85-.24-.24-.46-.51-.54-.88-.11-.46.1-1.11.52-1.63.41-.5.93-.79,1.44-.79.55.01.94.34,1.43.75.28.23.47.45.62.61.03.04.09.1.14.15.01-.02.02-.05.03-.07.1-.21.25-.52.62-.64.08-.03.17-.04.26-.04.32,0,.59.18.81.33.1.07.27.18.33.18-.01,0,.02-.1.04-.15.04-.11.09-.25.18-.4.32-.53.96-.9,1.98-1.12,1.59-.35,8.34-1.26,13.76-2h.04c3-.41,5.83-.8,6.28-.89.31-.06.62-.13.83-.19l-1.15-.29c-.9-.2-1.57-.7-2-1.49Z"/>
            <path class="cls-10" d="M17.15,82.16c-.19,0-.4-.05-.56-.15-1.01-.52-1.93-1.41-2.74-2.19l-.3-.28c-.3-.31-.44-.69-.39-1.08.05-.24.07-.45.09-.68.03-.4.07-.82.3-1.23.44-.82,1.37-1.12,2.05-1.34.02,0,.04-.01.06-.01,4.28-.38,11.8-1.27,15.57-1.74l10.67-1.45c.07,0,.08-.08.08-.08.01-.13.11-.24.25-.26.13-.02.26.06.3.19.31.89.89,1.42,1.77,1.62l2.55.64c.12.03.21.14.21.27,0,.13-.07.24-.19.28-.33.11-.72.23-1.13.34-.02,0-.57.15-1.14.27-.47.09-3.05.44-6.32.89-5.14.7-12.18,1.65-13.75,1.99-1.22.27-1.46.67-1.54.8-.06.1-.1.2-.13.29-.08.2-.16.43-.43.53-.36.14-.68-.07-.95-.25-.18-.12-.37-.25-.5-.21-.08.03-.14.12-.21.28-.09.19-.22.46-.54.51-.32.05-.52-.17-.75-.43-.14-.15-.3-.34-.55-.54-.41-.34-.7-.58-1-.59-.31-.02-.63.2-.91.54-.29.35-.45.79-.39,1.05.08.34.4.6.72.86l.1.08c.47.43.32.73.24.85-.11.15-.32.22-.53.22ZM15.74,75.76c-.62.2-1.37.45-1.69,1.06-.17.31-.2.65-.23,1.01-.02.23-.04.47-.1.72-.02.19.06.41.23.58l.29.28c.79.75,1.68,1.61,2.63,2.1.09.05.19.07.27.08-.02-.02-.04-.05-.07-.07l-.08-.07c-.37-.3-.79-.65-.91-1.17-.1-.43.1-1.04.5-1.54.4-.49.89-.76,1.37-.75.5.01.87.33,1.35.72.27.23.46.44.6.6.09.1.21.23.25.25.01-.02.07-.13.1-.19.1-.2.23-.48.55-.58.39-.12.72.1.98.28.16.11.34.23.42.19.03-.01.06-.07.11-.21.04-.11.09-.24.17-.38.3-.5.92-.85,1.91-1.07,1.59-.35,8.36-1.26,13.79-2,3.13-.42,5.84-.79,6.29-.88.55-.11,1.1-.26,1.1-.26.04-.01.09-.02.13-.04l-1.56-.39c-.9-.2-1.57-.71-1.98-1.53-.06.03-.13.05-.21.07l-10.67,1.45c-3.77.47-11.27,1.36-15.56,1.74Z"/>
          </g>
          <g>
            <path class="cls-2" d="M56.92,72.45c-.26.1-.72.3-1,.14-.17-.1-.17-.29-.14-.46.05-.33.14-.61.05-.95-.07-.27-.19-.52-.33-.75-.05-.08-.43-.65-.53-.62,5.71-1.5,11.39-3.11,16.98-4.92.36-.1.69-.3,1.05-.39.67-.16,1.28.12,1.88.47.26.18,1.83.79,1.37,1.12-.31.17-.76.2-1.07.4-.51.27-.74,1.03-1.18,1.47-.23.19-.54.2-.81.29-.29.15-.66.53-.68.88-.02.16-.02.33-.11.46-.82.84-2.1-.43-3.02-.56-2.95.84-5.89,1.65-8.88,2.31-1.23.19-2.4.68-3.57,1.11Z"/>
            <path class="cls-10" d="M56.17,73.04c-.17,0-.32-.04-.45-.12-.19-.11-.4-.35-.33-.85.01-.08.02-.15.04-.22.04-.23.07-.39.02-.58-.06-.21-.15-.43-.28-.63-.14-.21-.28-.4-.35-.47-.12-.05-.2-.14-.24-.26-.06-.21.07-.42.28-.48,6.6-1.74,11.99-3.3,16.96-4.92.17-.05.32-.11.47-.18.2-.09.4-.17.62-.22.16-.04.32-.06.48-.06.63,0,1.2.29,1.69.57.06.04.22.12.34.18.74.37,1.27.67,1.31,1.1,0,.09,0,.32-.25.5-.23.13-.44.18-.62.24-.18.05-.35.1-.47.17-.22.12-.39.39-.57.69-.16.25-.32.52-.53.73-.25.21-.52.28-.73.32-.08.02-.15.03-.21.05-.2.11-.43.38-.44.54v.12c-.03.15-.05.35-.18.54-.01.02-.03.04-.04.05-.26.27-.58.4-.94.4-.51,0-1.04-.26-1.5-.49-.31-.15-.6-.3-.84-.35-2.65.75-5.72,1.61-8.81,2.29-1.05.16-2.05.54-3.03.91l-.56.21c-.22.08-.51.2-.81.2ZM56.17,72.26c.15,0,.41-.1.53-.15l.56-.21c1.01-.38,2.06-.78,3.16-.95,3.05-.68,6.16-1.54,8.83-2.3.04,0,.07-.01.11-.01.02,0,.04,0,.05,0,.37.05.75.24,1.15.43.45.22.85.41,1.14.41.15,0,.27-.05.38-.15,0,0,0-.08.01-.15v-.1c.04-.51.55-1,.91-1.18.02,0,.03-.02.05-.02.1-.03.2-.06.31-.08.16-.04.3-.07.38-.14.13-.13.25-.34.39-.56.23-.37.46-.75.85-.96.19-.12.42-.18.64-.24.03,0,.06-.02.09-.03-.22-.13-.51-.28-.66-.35-.21-.1-.33-.17-.41-.22-.37-.22-.82-.45-1.26-.45-.1,0-.2.01-.3.04-.16.04-.32.11-.49.18-.18.08-.36.15-.55.21-4.82,1.57-10.03,3.08-16.35,4.76.04.06.09.13.13.2.18.28.31.57.38.86.09.35.04.63-.01.91-.01.06-.02.13-.03.2,0,.03,0,.06,0,.07,0,0,.01,0,.02,0Z"/>
            <path class="cls-10" d="M56.17,72.93c-.14,0-.28-.03-.4-.1-.24-.14-.33-.39-.28-.74.01-.07.02-.15.04-.22.04-.23.07-.42.02-.62-.06-.23-.16-.45-.3-.66-.14-.22-.3-.43-.38-.51-.09-.03-.17-.1-.19-.2-.04-.15.05-.31.2-.35,0,0,0,0,0,0,6.6-1.74,11.99-3.3,16.96-4.92.17-.05.32-.11.48-.18.19-.08.38-.17.6-.22.77-.18,1.46.13,2.09.51.06.04.21.12.34.18.71.36,1.22.64,1.25,1.01,0,.09-.01.26-.2.4-.2.11-.4.17-.59.22-.19.05-.36.1-.5.18-.24.13-.42.42-.61.72-.15.25-.31.5-.52.71-.23.19-.47.25-.68.3-.07.02-.15.03-.22.06-.23.12-.5.42-.51.64v.11c-.03.15-.05.33-.16.49,0,.01-.02.03-.03.04-.68.7-1.59.26-2.32-.1-.32-.16-.63-.31-.89-.36-2.66.76-5.75,1.62-8.83,2.3-1.05.16-2.06.55-3.04.92l-.49.18h0l-.07.03c-.21.08-.5.19-.77.19ZM56.82,72.18l.1.27-.1-.27.48-.18c1.01-.38,2.05-.78,3.14-.95,3.07-.68,6.17-1.55,8.84-2.3.04-.01.08-.01.12,0,.36.05.73.23,1.12.42.77.38,1.27.59,1.64.24.03-.05.03-.13.04-.22v-.1c.04-.47.52-.93.85-1.09.01,0,.02-.01.04-.01.1-.03.2-.06.3-.08.17-.04.32-.07.43-.16.14-.14.27-.36.41-.59.22-.36.45-.73.81-.92.18-.11.41-.18.62-.24.11-.03.21-.06.3-.09-.2-.16-.66-.39-.85-.49-.2-.1-.32-.16-.4-.22-.59-.35-1.1-.56-1.64-.43-.17.04-.33.11-.51.19-.17.07-.35.15-.54.2-4.85,1.58-10.11,3.11-16.5,4.8.07.09.14.2.22.32.17.27.3.55.37.83.08.33.04.6-.01.87-.01.06-.02.13-.03.2-.01.1-.01.16,0,.18.13.08.5-.06.68-.13l.07-.03Z"/>
          </g>
        </g>
      </g>
      <g>
        <path class="cls-1" d="M76.62,46.02c-.55-.03-1,.42-.97.96.01.28.11.58.35.87.59.72,2.32-.06,3.21-1.29.24-.33-.06-.77-.45-.68-.49.11-1.2.19-2.13.14"/>
        <path class="cls-7" d="M78.63,46.75c.11-.11.21-.24.3-.37.01-.02.02-.03.02-.04-.08.05-.17.09-.25.13-.39.18-.77.29-1.12.3-.07,0-.14,0-.2,0-.02.03-.03.05-.05.08.39-.03.72-.08.99-.14.11-.02.22,0,.31.04"/>
        <path class="cls-10" d="M76.62,46.02h0s0,0,0,0M76.31,46.4c.09-.04.19-.06.29-.06h0c.82.05,1.57,0,2.22-.14.07-.02.11.03.13.05.02.03.04.08,0,.13-.63.87-1.63,1.41-2.24,1.43-.21,0-.36-.05-.46-.16-.17-.21-.26-.44-.27-.69,0-.17.05-.33.17-.45.05-.05.11-.09.17-.12M77.76,48.17c.64-.3,1.27-.81,1.71-1.41.19-.26.19-.59.02-.86-.18-.27-.49-.39-.8-.33-.59.13-1.28.17-2.04.13-.35-.02-.7.11-.95.36-.25.25-.38.59-.36.94.02.39.16.75.42,1.06.22.27.56.4.97.39.32-.01.68-.11,1.04-.28"/>
        <path class="cls-1" d="M77.49,44.16c-.59-.04-1.09.45-1.06,1.05.02.3.12.63.38.95.64.78,2.53-.07,3.49-1.4.26-.35-.07-.84-.49-.74-.54.12-1.3.21-2.31.15"/>
        <path class="cls-7" d="M79.53,45.13c.19-.18.36-.37.5-.57.05-.07.02-.14,0-.17-.02-.02-.06-.08-.14-.07-.24.17-.49.31-.74.43-.27.13-.54.23-.81.29.26-.03.48-.07.68-.11.21-.05.4.05.5.21"/>
        <path class="cls-10" d="M77.47,44.48c.89.05,1.7,0,2.4-.16.1-.02.15.04.17.07.02.03.05.1,0,.17-.61.85-1.7,1.54-2.46,1.56-.24,0-.41-.05-.52-.18-.19-.23-.29-.49-.31-.76-.01-.19.06-.37.2-.51.14-.14.33-.21.52-.2M78.71,46.47c.69-.32,1.38-.88,1.84-1.53.19-.27.2-.62.02-.9-.18-.28-.52-.42-.84-.34-.65.14-1.39.19-2.22.14-.38-.02-.75.12-1.01.38-.27.26-.41.63-.39,1,.02.42.17.8.45,1.14.23.29.59.43,1.04.41.35-.01.73-.12,1.12-.3"/>
        <path class="cls-1" d="M77.74,42.59c-.56-.11-1.1.29-1.14.86-.02.29.03.62.24.95.51.82,2.42.26,3.5-.89.29-.31.04-.81-.38-.77-.53.05-1.27.03-2.22-.15"/>
        <path class="cls-7" d="M79.58,43.75c.19-.14.36-.29.52-.45.06-.06.04-.12.02-.15-.01-.03-.05-.09-.14-.08-.69.06-1.47,0-2.31-.16-.08-.02-.16-.02-.24,0,.15.18.29.38.39.59.53.05.97.05,1.32.02.2-.02.35.08.44.23"/>
        <path class="cls-10" d="M77.74,42.59h0s0,0,0,0M77.28,42.96c.12-.06.26-.08.4-.05.84.16,1.62.22,2.31.16.09,0,.12.05.14.08.02.03.03.09-.02.15-.69.73-1.8,1.25-2.53,1.17-.22-.02-.38-.1-.46-.23-.15-.24-.21-.49-.19-.76.01-.18.1-.34.25-.45.04-.03.07-.05.11-.07M79.16,44.75c.52-.24,1.02-.59,1.41-1.01.22-.24.28-.58.13-.87-.14-.3-.45-.47-.77-.44-.63.05-1.35,0-2.13-.15-.36-.07-.73.02-1.02.24-.29.22-.47.55-.5.91-.03.4.06.79.29,1.15.19.3.51.49.94.53.49.05,1.08-.09,1.66-.36"/>
        <path class="cls-10" d="M55.73,72.5c.4-.15.4-.53.39-.91-.02-.62-.46-1.8-1.15-1.79-.59-.28-1.12-.61-1.83-.46-.21-.49-.59-.66-1.07-.82,1.52-2.52,1.89-5.58,1.12-8.5,4.17-3.09,5.64-8.07,5.23-13.17,2.33,1.45,4.48,2.66,6.97,3.28,3.79.95,8.12,1.05,10.75-2.07.7-1.19,2.05-3.88,1-6.16-.06-.13-.13-.27-.21-.4-1.56-1.59-4.21-.87-6.99-1.36-2.83-.49-5.46-1.46-8.16-2.45,4.18-2.17,6.65-6.15,7-10.75.37-4.8-1.39-9.53-4.61-13.12-2.6-2.9-6.04-4.64-9.86-5.31-2.02-.35-3.6-1.35-4.98-2.76l-1.18-1.02c-.83-.59-1.9-.42-2.38.47-.46.86-.43,1.83-.36,2.83l-2.34-1.26c-.73-.39-1.5-.67-2.34-.38-1.06.36-.8,2.42-.19,3.69-1.66.75-4.25,2.2-6.45,4.94-.8.99-5.23,6.75-3.44,13.8.81,3.21,2.6,5.43,3.76,6.63-1.03.35-2.55.89-4.35,1.65-3.23,1.35-3.62,1.83-5.9,2.79-5.15,2.17-6.89,1.34-7.91,3.07-1.06,1.8-.29,4.54,1.13,6.12,1.76,1.96,4.31,2.04,5.7,2.08,3.01.1,5.26-1.14,6.22-1.75-.33,1.63-.4,3.06.07,4.53-1.74,2.94-4.32,2.37-5.69,3.19-1.45.87-2.27,2.49-2.48,4.14l-1.68,1.52c-.46.42-.58,1.04-.41,1.66.23.35.67.76,1.25.86.13.53.27,1.03.66,1.27.46.34,1,.37,1.61.3.5.77,1.31,1.09,2.19.79.9-.07,1.6-.68,2.18-1.38.72-.14,1.32-.41,1.94-.8,2.72.42,5.48.21,8.01-.84,1.12-.46,1.9-1.35,2.62-2.26l1.25.26c3.54,3.89.86,7.71,1.42,9.32.06.37.21.88.58,1.33.53.65,1.27.86,3.93,1.11,3.92.36,5.03.15,5.76-.08.96-.3,1.78-.77,1.82-.79.6-.35,1.05-.72,1.38-1.02Z"/>
        <path class="cls-10" d="M60.28,71.62c.1-.08.84-.65,1-.5.07.06.01.22-.01.28-.36.93-3.9,2.41-4.96,2.65-9.26,2.01-18.55,3.75-27.85,5.44-1.66.3-3.38.52-5.06.46-.29,0-.52.09-.66.36-.23.58-.76,1.31-1.42,1.03-.53-.29-.9-.81-1.47-1.02-.78-.21-2.1-2.52-2.91-1.26-.24.42-.17,1,.23,1.33,1.24,1.05,2.48,2.13,3.75,3.13,1.4.89,2.76,1.91,4.17,2.77,2.38,1.26,5.25,1.58,7.93,1.18l34.79-7.12c4.03-.97,7.39-3.37,9.73-6.77,1.32-1.75,2.2-4.82-.45-5.8-.38-.22-.88-.5-1.28-.7-.4-.18-.62-.34-.88-.05-.33.43-.75,1.05-.57,1.63.41,1.42-1.33,2.69-2.44,1.64-.35-.38-.13-.75.45-.6.72.21,1.45-.28.87-.99-.14-.2-.29-.41-.25-.56.21-.34.68-.37.88-.76.56-.99,1.68-1.77,2.73-1.12.67.4,2.14.86,2.87,2.2,1.07,2.08.03,4.31-1.26,6.07-2.5,3.5-6.08,6.04-10.33,6.93l-8.61,1.8-12.75,2.53-9.18,1.91c-1.88.39-3.63.85-5.53.99-3.69.31-7.09-.82-9.86-3.16-1.32-1.02-3.87-2.98-4.52-3.48-.18-.18-.15-.38-.35-.6-.08-.1-.18-.21-.29-.32-1.22-1.03-.63-2.76.83-3.07,1-.24,1.67.77,2.38,1.28.37.33.72.65,1.17.93.13.08.31.15.44.09,0,0,.15-.06.16-.16.02-.21-.54-.34-.55-.46,0-.2,1.01-.34,1.35-.39.14-.02,4.7-.38,3.37-.3h0c1.02-.06,4.13-.61,10.34-1.71,4-.71,9.07-1.66,14.99-2.91,0,0,6.91-1.26,8.99-2.81Z"/>
        <g>
          <g>
            <path class="cls-9" d="M51.29,73.66c-.19-.2-.45-.31-.79-.33l-1.09-.34-.08-.26c.05-.62.62-1.12,1.32-.92s1.38.85,1.42,1.61c.01.27-.57.26-.78.24Z"/>
            <path class="cls-9" d="M53.01,73.03c-.24-.88-.87-1.4-1.5-1.96,1.12-.43,2.1.56,2.35,1.51-.24.28-.44.41-.85.45Z"/>
            <path class="cls-4" d="M21.62,79.51c.83.58.18,1.77-.73,1.05-.62-.54-.13-1.57.68-1.09l.05.03Z"/>
            <path class="cls-9" d="M54.98,71.45c.07.18.03.33.04.41,0,.1-.3.27-.34.18-.36-.76-.89-1.34-1.64-1.8.88-.05,1.63.42,1.94,1.21Z"/>
            <path class="cls-6" d="M51.29,73.66l-1.96-.27c-.19-.03-.02-.48,0-.66l1.61.5c.11.03.23.04.3.09.09.07.12.22.05.33Z"/>
            <path class="cls-4" d="M72.67,69.75c-.48-.86.81-1.94,1.36-.94.34.82-.75,1.86-1.32.99l-.03-.06Z"/>
          </g>
          <g>
            <path class="cls-12" d="M35.18,36.39l.24.06c5.31,5.07,13.7,5.63,20.68,4.55.27.29.73,1.01.45,1.33l-.03.23.1.3.37,1.87c.92,3.43.61,7.04-.89,10.2-.71,1.21-1.65,2.08-2.83,2.6-.32.08-.65.1-.98.05-.02.29-.14.43-.36.41-.66,1.17,1.28,2.81.61,6.38-.28.45-.58.89-.89,1.32-.58,1.17-1.17,2.34-1.78,3.51.26.03.53-.01.79-.13l.27.14c.42-.13.94.18,1.29.41-.02.21-.04.3-.1.42-.67-.07-1.2.26-1.48.85-1.04-.19-1.83.4-2.18,1.3l-.16.22c-1.27.14-4.39-.05-4.12-1.93.59-3.13,1.04-5.66-.98-8.5-.45-.63-1.03-1.38-1.6-1.88-5.75-1.5-11.11-4.44-8.02-11.09.71-1.52,1.66-3.18,2.78-4.41.32-.22.71-.51.93-.98-1.24-.11-2.16.72-3.14,1.2-3.96,2.65-10.8,5.44-15.4,3.06-.69-.36-1.25-.72-1.6-1.44-.3-.78-.31-1.56-.19-2.36.28-.92.96-1.21,1.84-1.4,2.53-.35,5.03-1.06,7.31-2.26,2.58-1.48,5.25-2.88,8.03-3.87l1.06-.13Z"/>
            <path class="cls-8" d="M36.34,44.58c-2.08,3.63-5.44,7.84-2.15,11.41,1.34,1.46,3.04,2.46,4.93,3.14l2.58.76c5.63,5.47,1.97,9.67,2.82,11.36.46.91,2.61.89,3.93.92-.13.38-.12.77-.13,1.24-1.3-.1-2.53-.22-3.76-.54-1.11-.29-1.64-1.2-1.33-2.35.51-1.91.68-3.89.04-5.8-.44-1.19-1.17-2.16-1.99-3.09-1.31-.13-2.47-.49-3.68-.99-5.1-1.94-9.04-6.48-6.96-12.03,1.44-.87,2.67-1.94,4.06-2.9l1.65-1.15Z"/>
            <path class="cls-12" d="M29.16,56.53l.39.29c1.01,1.76,2.23,3.36,3.67,4.81.19.16.16.27.07.44-.58,1.11-4.78,1.36-5.92,1.25-.47.49-1.43,1.29-2.12,1.31l-.23-.19c-.5-.15-1.04-.52-1.47-.92-.27-.87-.48-1.75-1.15-2.26-.04-.05-.08-.1-.08-.16-.03-.82,1.69-2.87,2.61-3.02,1.49-.18,2.8-.7,3.92-1.55h.32Z"/>
            <path class="cls-8" d="M25.01,64.43c.93-.09,1.57-.68,2.29-1.32,1.34-.04,2.66,0,3.95-.32.7-.2,1.41-.36,1.95-.88-1.57-1.72-3.1-3.36-4.03-5.38-.32-.06-.3-.34.07-.86l.54-.64c1.63,3.56,4.88,5.78,8.73,7.01-1.97,2.88-6.66,2.76-10.01,2.35-.69.87-1.63,1.05-2.62.69-.38-.14-.78-.16-.86-.65Z"/>
            <path class="cls-8" d="M34.13,44.8c-3.52,2.84-7.38,5.69-12.17,5.33-1.31-.1-2.61-.48-3.56-1.41-.65-.63-.97-1.53-1.27-2.3,3.53,3.56,9.7,1.97,13.92-.1l3.07-1.51Z"/>
            <path class="cls-6" d="M34.12,36.53c-.12.16-.32.35-.56.44-2.22.84-4.27,1.88-6.33,3.07-2.49,1.43-5.03,2.35-7.87,2.75-1.08.16-1.95.46-2.41,1.28.15-1,.82-1.7,1.95-1.85,2.64-.34,5.09-1.11,7.48-2.35l4.37-2.27c1.08-.56,2.22-.92,3.37-1.06Z"/>
            <g>
              <path class="cls-12" d="M75.94,41.98c.85.75.75,2.09.52,3.15-.35.9-1.14,1.47-1.93,1.97-5.06,3.14-11.85.21-16.46-2.43l-.18-.27-.66-1.86c-.44-.2.02-1.76.23-1.88,1.3-.47,2.55-1.05,3.74-1.75l.53-.07c1.92.75,3.86,1.45,5.82,2.1,2.32.57,4.7.81,7.12.7.44.05.88.14,1.28.34Z"/>
              <path class="cls-8" d="M76.46,45.13c-.53,2.42-2.45,4.08-4.95,4.44-4.94.71-9.37-1.37-13.41-4.11l-.22-1.07c.42.06.76.26,1.14.49,5.3,3.17,13.04,5.44,17.43.24Z"/>
              <path class="cls-6" d="M75.94,41.98c-.87-.16-1.71-.2-2.59-.16-2.99.13-5.81-.42-8.53-1.63-1.06-.47-2.06-.91-3.09-1.34h.17s4.03,1.37,4.03,1.37c2.57.87,5.14,1.17,7.86,1.18.72,0,1.6.1,2.15.59Z"/>
            </g>
            <path class="cls-6" d="M29.16,56.53c-1.5,1.6-3.64,1.41-4.58,1.94-1.07.59-1.7,1.75-2.18,2.79-.05-.04-.16-.03-.19-.08-.14-.23.71-3.15,2.86-3.55,1.6-.3,3.12-.72,4.16-1.96.02.24-.16.66-.07.86Z"/>
            <path class="cls-8" d="M52.53,64.37c-.26,1.37-.76,2.68-1.44,3.96-.15.28-.27.56-.17.88-.39.12-.84.35-1.34.15.17-.64.46-1.16.79-1.65.89-1.35.86-2.42,2.17-3.34Z"/>
            <path class="cls-8" d="M56.09,54.93c-.74,1.57-1.8,3.06-3.32,4.07-.21-.52-.38-.93-.85-1.01.11-.19.09-.44.24-.66s1.08.92,3.44-1.99c.17-.2.25-.41.49-.42Z"/>
            <path class="cls-9" d="M22.58,63.8c-.74.55-1.92.82-2.69.12.49-.83,1.27-1.37,2.03-1.85.43.51.46,1.04.65,1.72Z"/>
            <path class="cls-9" d="M24.2,65.16c-.69.74-2.14,1.01-2.73.49-.43-.38.9-.34,1.62-1.19l1.1.7Z"/>
            <path class="cls-6" d="M25.84,66.08c-.48.54-1.27.92-2.08.59.48-.35.92-.56,1.24-.98.26.19.4.22.83.38Z"/>
            <path class="cls-8" d="M56.62,42.86c-.11-.05-.11-.19-.1-.3.16.03.08.22.1.3Z"/>
            <g>
              <path class="cls-12" d="M65.75,17.81c1.9,3.5,2.55,6.94,1.75,10.87-.61,1.57-1.4,2.93-2.62,4.17-1.36,1.38-2.98,2.33-4.77,3.08-1.68.7-4.2,1.47-6.01,1.48-.21,0-.4-.09-.58-.18l.03-.24c2.49-.53,4.79-1.48,6.91-2.87.41-.42.85-.69,1.33-.83l.11-.41c2.18-2.22,3.35-5.62,2.62-8.65l.18-.2-.3-.43c-.62-2.97-2.77-5.52-5.64-6.55-3.3-1.19-6.34-.09-8.99,2.01-5.19-4.77-13.06-2.39-14.74,4.47l-.36.52.14.39c-.56,3.02.46,6.16,2.61,8.33l.1.4.51.16c2.03,1.75,4.49,2.89,7.07,3.55l.42.33c-.18.09-.37.15-.56.15-1.34,0-3.76-.77-5.06-1.25-2.18-.82-4.18-1.96-5.8-3.63-1.24-1.28-2-2.6-2.61-4.2-.13-.66-.26-1.33-.25-1.99,0-6.45,4.28-12.61,10.27-14.91-.17-.14-.18-.39.04-.52.48-.56-.28-1.27-.45-2.3-.33-1.21.79-1.11,1.59-.71.95.58,1.95,1.09,2.99,1.51l.32.29c.16.06.33.21.47.15.53-.24-.06-1.14-.03-2.02-.02-.36-.04-1.32.21-1.58.38-.4.93-.34,1.37-.06,1.97,2.26,4.64,3.46,7.58,3.9,2.37.56,4.43,1.7,6.3,3.23,1.62,1.32,2.77,2.88,3.87,4.57Z"/>
              <path class="cls-8" d="M45.53,37.19c-.29-.32.29-.53.34-.09l.36.09.69-.15c1.68.11,3.36.15,5.04.13l.35.13.67-.1c0-.33.5-.29.55.02,2.89-.16,5.7-.95,8.29-2.35s4.39-3.43,5.46-6.08c.04-.09.16-.11.23-.1-.73,3.62-3.09,6.66-6.47,8.28-1.5.72-2.96,1.28-4.6,1.61l-3.76.76c-.16.03-.22.14-.21.24.02.14.14.15.31.16,2.6.2,5.14-.39,7.57-1.39l1.57.5h-.17c-1.29.85-2.66,1.46-4.13,1.98-.22.55-.4,1.12-.36,1.73l-.39-.29c-.08-.06-.22-.03-.3.08l-.5-1.16c-5.69,1.05-11.44.59-16.73-1.74-1.64-.72-3.06-1.72-4.14-3.05.11-.01.26-.12.42,0,1.34.97,2.84,1.69,4.5,1.93.21.03.39-.03.44-.22l-3.1-1.66c-3.12-1.76-5.29-4.72-5.95-8.19.2-.02.24.12.32.32,1.12,2.78,3.26,4.87,5.91,6.29,2.46,1.3,5.15,2,7.82,2.32Z"/>
              <path class="cls-6" d="M41.55,10.83c.03.2.13.38.11.64-5.88,2.26-10.32,8.67-10.42,14.79-.09-6.79,3.89-12.97,10.31-15.43Z"/>
              <path class="cls-6" d="M65.75,17.81c-.28.05-.29-.21-.4-.4-.97-1.75-2.34-3.09-3.9-4.31-1.99-1.55-4.19-2.58-6.68-3.06s-4.93-1.67-6.58-3.51c-.34-.37-1.01-.64-1.39-.22-.35.38-.35.98-.37,1.43-.08-.64-.19-1.6.28-2.18.36-.44,1.1,0,1.42.37,1.66,1.93,3.73,3.2,6.25,3.62,4.97.82,9.01,3.91,11.37,8.26Z"/>
              <path class="cls-6" d="M45.98,9.62c-1.06-.41-2.06-.85-3.05-1.49-.51-.33-1.21-.49-1.74-.2-.15.08-.09.52-.1.61-.16-.39-.23-.93.06-1.31,1.44,0,2.67,1.32,4.3,1.83.3.09.51.27.53.56Z"/>
              <g>
                <g>
                  <path class="cls-12" d="M52.97,37.2c-.17.22-.45.09-.67.1.18-.16.45-.11.67-.1Z"/>
                  <path class="cls-12" d="M46.22,37.19c-.12-.01-.27.06-.36-.09.14,0,.27-.01.36.09Z"/>
                  <path class="cls-9" d="M64.69,24.02l-.35.02c-2.61-1.92-7.68-3.91-10.12-.8-1.43,1.83-.56,4.07,1.27,5.21l2.92,1.45c1.03.58,2.93,1.88,3.38,2.97.05.13.03.27,0,.41-1.64,1.53-3.61,2.66-5.84,3.24l-2.43.7c-2.68.36-5.36.34-7.99-.03-2.97-.7-5.76-1.98-8.01-4.05-.01-.08-.02-.16-.02-.24.06-.88,2.73-2.93,3.64-3.31,2.32-.81,5.65-2.43,4.66-5.43-1.41-4.25-8.33-2.52-10.78-.13h-.35c.33-1.41.85-2.75,1.69-3.94,3.2-4.53,9.43-5.05,13.42-1.23,1.89-1.66,4.29-2.7,6.83-2.51,4.15.32,7.5,3.67,8.09,7.67Z"/>
                </g>
                <g>
                  <path class="cls-11" d="M64.69,24.02l.2.72c.38,3.19-.8,6.4-3.1,8.54-2.12-3.43-5.56-3.75-7.08-5.11-.99-.89-1.56-2.03-1.39-3.36.15-1.16.9-2.2,2.06-2.81,2.91-1.54,6.7.18,9.31,2.03Z"/>
                  <path class="cls-10" d="M59.82,26.17c-.2.88-1.79-1.51-4.04.13-.15.11-.44.12-.58,0-.41-.36.67-1.64,2.14-1.7,1.35-.06,2.6,1.03,2.47,1.58Z"/>
                </g>
                <g>
                  <path class="cls-11" d="M37.52,33.14c-2.45-2.26-3.62-5.85-2.86-9.12,2.78-2.36,7.59-3.98,10.39-1.4,1.35,1.24,1.47,3.18.39,4.64-.74.99-1.82,1.55-2.98,1.98-2.03.76-3.78,2.04-4.94,3.9Z"/>
                  <path class="cls-10" d="M43.63,26.21c-1.91-1.51-3.57.34-3.96.06-.5-.35.45-1.73,2.07-1.8,1.72-.07,2.72,1.22,2.51,1.62-.11.2-.38.31-.61.12Z"/>
                </g>
              </g>
            </g>
          </g>
          <path class="cls-10" d="M52,27.2c0,.79-1.04,1.73-2.34,1.74-1.29,0-2.34-.94-2.34-1.73,0-.79,1.05-1.12,2.34-1.12,1.29,0,2.34.32,2.34,1.11"/>
          <path class="cls-3" d="M49.72,27.17c-.52,0-.95-.22-.95-.4,0-.18.43-.26.95-.26h.01c.52,0,.94.08.94.26,0,.18-.43.41-.95.41h0"/>
          <path class="cls-10" d="M52.34,30.89c-.1.09-.19.16-.29.24-.1.07-.2.13-.3.2-.2.12-.42.22-.65.31-.45.17-.94.27-1.45.26-.52,0-1.01-.13-1.45-.33-.22-.1-.43-.21-.63-.34-.1-.07-.2-.13-.29-.21-.09-.08-.18-.15-.27-.25-.15-.15-.15-.39,0-.54.1-.1.25-.13.38-.09l.06.02c.08.03.18.07.28.1.1.03.19.07.29.1.19.06.38.12.57.17.37.1.74.15,1.09.16.18,0,.36,0,.55-.03.19-.02.37-.05.56-.09.19-.04.38-.08.57-.14.1-.02.19-.05.29-.08.09-.03.2-.06.28-.08h.06c.2-.06.41.06.46.26.03.14-.01.28-.11.37h0Z"/>
        </g>
      </g>
    </g>
    <g>
      <path class="cls-1" d="M54.62,79.77c.41-.08.62-.11.69.06.05.12.11.31,0,.35-.44.15-2.57.68-2.91.65-.13-.01-.29-.21-.36-.36-.58-1.26-1.07-1.85-1.62-3.13-.01-.03-.05-.22,0-.25.18-.09.85-.2,1.12-.26.29-.06.5-.11.62.17.01.03.12.3.09.3-.45.1-.67.14-1.12.24.19.4.3.6.52.99.21-.02.44-.04.65-.04.1,0,.32.44.21.47l-.56.12c.25.45.37.67.59,1.12M35.44,83c.2-.04.69.56.93.51.18-.04.36-.16.26-.35-.09-.17-.35-.39-.54-.49-.62-.43-1.4-.64-1.73-1.28-.28-.54.06-1.01.61-1.13.42-.09.84,0,1.05.43.07.14.1.24-.09.28-.29.06-.41-.22-.69-.16-.24.05-.39.27-.27.5.31.59,1.79.84,2.19,1.62.27.51.06,1.02-.52,1.14-.41.08-.77-.06-1.11-.38-.09-.08-.28-.24-.34-.35-.06-.11.14-.3.25-.33ZM37.92,83.6c-.64-1.49-1.29-2.17-1.85-3.68-.07-.18-.07-.3.13-.34.18-.04.37-.05.45.16.51,1.39,1.07,2.02,1.72,3.38.81-.17,1.21-.25,2.01-.42.1,0,.2.05.25.17.05.12.06.25,0,.31-.05.04-1.79.47-2.02.52-.07.01-.39.06-.45.05-.05,0-.21-.11-.23-.16ZM38.81,79.3c.87-.18,1.45,1.05,1.77,1.58.28.47.71,1.19.74,1.25.11.22.69,1.8.64,1.81-.13.12-.27.19-.42.09-.11-.08-.93-1.99-1.04-2.17-.34.1-.51.15-.85.25.14.25.05.07.18.31.03.05.07.17-.02.18-.15.03-.22.05-.37.08-.2.04-.59-.8-.88-1.3-.02-.03-.02-.04-.04-.07-.38-.68-.63-1.83.27-2.01ZM39.34,81.53c.35-.09.52-.14.86-.23-.27-.45-.76-1.43-1.13-1.36-.57.11-.24.82.27,1.6ZM41.37,78.77c.46-.1.93.16,1.14.59.06.13.15.31-.03.35-.46.1-.47-.5-.89-.4-.56.13-.08,1.29.14,1.68.19.34.76,1.17,1.26,1.09.34-.06-.06-1.05.07-1.18.01,0,.24-.04.38.07.01.02.07.12.08.14.32.58.35,1.38-.38,1.53-.88.18-1.61-.81-1.97-1.46-.38-.68-.78-2.18.21-2.39ZM44.28,80.82c.31.61.67,1.52.61,1.54-.11.02-.21.04-.32.07,0,0-.03.01-.07,0-.03,0-.06-.03-.09-.06-.07-.07-.09-.14-.09-.14,0,0-.04-.18-.49-1.07,0,0-.05-.09-.14-.26-.05-.09-.1-.18-.14-.27-.05-.09-.1-.19-.15-.28-.05-.09-.1-.18-.14-.28-.05-.09-.09-.18-.14-.27-.04-.09-.09-.17-.13-.26-.04-.08-.08-.16-.11-.24-.03-.07-.07-.15-.1-.22-.03-.07-.05-.13-.08-.2-.02-.05-.04-.11-.06-.16-.02-.04-.03-.08-.04-.13,0-.03-.02-.05-.03-.08,0-.01,0-.02-.01-.03-.02-.11-.02-.19.11-.21.05-.01.36-.03.4.06.23.73.42,1.08.79,1.78.23-.51.1-1.28.29-1.89.02,0,.08-.02.09-.02.13-.03.42.03.48.19.05.11-.07.95-.19,1.39,0,.04,0,.06,0,.09,0,0,.51.55.61.63.47.4,1.59,1.44,1.95,1.87.07.09.22.21.25.34.04.15-.21.28-.32.31,0,0,0,0-.01,0-.04,0-.06.01-.1-.03-.77-1.05-1.39-1.53-2.51-2.5,0,0-.08.26-.11.36ZM46.99,81.72c-.64-1.49-1.29-2.17-1.85-3.68-.07-.18-.07-.3.13-.34.18-.04.37-.05.45.16.51,1.39,1.07,2.02,1.72,3.39,1.19-.25,1.79-.37,2.98-.62.1,0,.2.05.25.17s.06.25,0,.31c-.05.04-2.76.67-2.99.72-.07.01-.39.06-.45.05-.05,0-.21-.11-.23-.16ZM47.53,77.88c.52.85.82,1.59,1.32,2.72,0,.11-.05.15-.16.18,0,0,0,0-.01,0-.08.02-.32.07-.36-.02-.44-.91-.73-1.35-1.16-2.27-.14-.31-.29-.69-.09-.74.16-.03.38-.01.46.12ZM47.86,77.77c-.08-.19.34-.3.57-.18.52.26,1.76,1.59,2.17,1.97-.03-.06-.05-.09-.09-.16-.03-.06-.07-.12-.11-.19-.34-.61-1.06-1.86-1.09-2.24,0-.07.06-.12.18-.14.17-.03.3-.05.36.03.45.58,1.19,2.47,1.67,3.46.06.13.13.26.18.38.03.07,0,.18-.02.19-.14.03-.21.04-.34.07-.13.03-.56-.52-.67-.63-.48-.45-1.46-1.53-1.92-1.88.22.49,1.11,1.85,1.06,2.02-.03.1-.4.15-.5.1-.57-1.13-.98-1.66-1.46-2.8Z"/>
      <g>
        <path class="cls-2" d="M53.12,78c-.23-.42-.75-1.59-.85-1.96-.1-.36.13-.42.18-.43.29-.06.42.43.49.63.09.25.73,1.57.98,1.95.16-.05.23-.08.39-.13.02,0,.29-.1.3-.11-.34-.61-.51-.91-.76-1.54-.07-.17-.03-.24.12-.27.23-.05.36-.01.46.2.08.16.49.93.58,1.1.44.82,1.32,2.44,1.46,3.06,0,.12-.12.13-.19.15-.07.02-.27.04-.31-.09-.27-.83-.5-1.22-.94-2.01,0,0-.07-.03-.09-.03-.14,0-.66.24-.71.25,0,0,0,0,0,0,.14.24.21.36.34.61.02.04.02.09,0,.12-.05.06-.12.1-.2.12-.12.02-.25-.01-.34-.15-.4-.65-.51-.79-.88-1.47Z"/>
        <path class="cls-2" d="M55.27,76.93c-.12-.25-.19-.39-.26-.68-.06-.24.58-.4.76-.44.65-.13,1.27.17,1.59.8.35.68-.07.89-.53,1.06.51.37,1.9,1.34,2.33,1.73.03.12-.12.26-.23.29-.22.05-2.11-1.39-2.54-1.83,0,0,0,0,0,0,.65,1.12.81,1.44.84,1.51h0c0,.09-.22.14-.3.16-.1.02-.15,0-.23-.1-.47-.84-1-1.65-1.43-2.5ZM55.66,76.43c.17.37.27.56.47.92,0,0,0,0,0,0,.2-.04.86-.25.72-.59-.15-.36-.57-.51-.93-.44-.05.01-.27.08-.26.1Z"/>
        <path class="cls-2" d="M58.58,75.37c.8-.17,1.32.68,1.65,1.28.3.54,1.25,2.39.07,2.63-.94.19-1.54-.78-1.89-1.42-.42-.77-1.04-2.24.17-2.49ZM58.9,77.62c.36.64.82,1.21,1.19,1.13.41-.08.2-.97-.22-1.73-.35-.63-.79-1.19-1.11-1.12-.45.09-.28.97.14,1.72Z"/>
        <path class="cls-2" d="M60.11,75.15s.09-.03.14-.04c.29-.06.46.07.47.1.13.33.33.8.61,1.3.37.68,1,1.63,1.48,1.53.6-.12-.05-1.47-.45-2.25-.12-.24-.25-.47-.36-.71s-.22-.48-.3-.73c-.01-.05-.03-.09-.04-.13-.01-.08.04-.15.11-.16.12-.02.24-.05.36-.07.11-.02.63,1.31.87,1.75.4.76,1.34,2.59,0,2.86-1.18.24-2.04-1.49-2.42-2.18-.08-.15-.64-1.23-.48-1.26Z"/>
      </g>
    </g>
  </g>
  <path class="cls-13" d="M20.22,79.63c-.18-.28-.46-.64-.85-1-.33-.29-.65-.5-.91-.64,2.12-.19,4.23-.39,6.35-.58-.3.03-1.14.16-1.86.84-.45.42-.66.88-.77,1.16-.24-.46-.75-.69-1.2-.58-.37.09-.65.4-.75.79Z"/>
  <path class="cls-13" d="M72.12,69.61c-.38-.09-.79-.2-1.22-.34-.58-.2-1.09-.42-1.53-.64.65-.27,1.63-.68,2.81-1.23,1.29-.6,3.36-1.59,3.4-1.51.03.05-.81.37-1.34,1.23-.21.34-.31.67-.37.94-.12-.01-.66-.05-1.15.34-.56.45-.59,1.11-.6,1.21Z"/>
</svg>