<?xml version="1.0" encoding="UTF-8"?>
<svg id="Vrstva_1" data-name="Vrstva 1" xmlns="http://www.w3.org/2000/svg" viewBox="0 0 79.37 79.37">
  <defs>
    <style>
      .cls-1 {
        fill: #abc7e9;
      }

      .cls-2 {
        fill: #9d4f3e;
      }

      .cls-3 {
        fill: #b37e7f;
      }

      .cls-4 {
        fill: #e1bea7;
      }

      .cls-5 {
        fill: #b37059;
      }

      .cls-6 {
        fill: #7a7db3;
      }

      .cls-7 {
        fill: #64140e;
      }

      .cls-8 {
        fill: #fffbfc;
      }

      .cls-9 {
        fill: #c99c8c;
      }

      .cls-10 {
        fill: #edc28e;
      }

      .cls-11 {
        fill: #977761;
      }
    </style>
  </defs>
  <path class="cls-5" d="M74.08,56.17h-.17c.05-.15.11-.3.16-.44,0,.15.01.3.01.44"/>
  <path class="cls-10" d="M75.18,48.29c.4,16.05-15.3,24.05-34.9,24.54-19.6.49-35.69-6.7-36.09-22.75-.39-15.39,9.16-33.21,31.64-35.21,2.69-1.46,6.32-3.96,8.3-7.57.62-1.13,2.27-1.01,2.71.21.58,1.62,1.13,3.74.11,6.53,2.98-1.54,5.93-3.28,6.89-4.19,1.03-.97,2.73-.24,2.71,1.18-.01,1.37-.44,4.29-.95,6.74,13.06,5.77,19.27,18.72,19.57,30.53"/>
  <path class="cls-2" d="M23.42,71.03h0c-10.62-2.87-18.12-9.17-19.13-19.23h0c1,10.06,8.51,16.36,19.13,19.23"/>
  <path class="cls-6" d="M4.2,50.49h0c0-.14-.01-.28-.01-.42-.03-.98,0-1.98.05-2.98,0,0,0,0,0,.01-.06,1-.07,1.99-.05,2.97,0,.14,0,.28.01.42"/>
  <path class="cls-7" d="M34.77,72.76c-4.04-.21-7.86-.78-11.35-1.72h0c3.49.94,7.31,1.51,11.35,1.72M4.3,51.8h0c-.04-.43-.07-.87-.09-1.31h0c.02.44.05.88.09,1.31"/>
  <path class="cls-5" d="M74.07,55.73s0,0,0,0c.51-1.46.86-3.02,1.02-4.67h0s0-.02,0-.03h0s0-.02,0-.03c0,0,0,0,0,0,0,0,0-.01,0-.02,0,0,0,0,0-.01,0,0,0-.01,0-.02,0,0,0,0,0-.01,0,0,0-.01,0-.02,0,0,0,0,0-.01,0,0,0,0,0-.01,0,0,0-.01,0-.02,0,0,0,0,0,0,0-.01,0-.02,0-.04,0,0,0,0,0,0,0,0,0-.01,0-.02h0c.03-.4.06-.81.07-1.22h0s0-.06,0-.09t0,0s0-.04,0-.06h0s0-.02,0-.02c0,0,0,0,0,0,0-.02,0-.04,0-.06h0s0-.02,0-.02h0s0-.05,0-.07h0s0-.02,0-.03h0s0-.02,0-.03v-.02s0,0,0-.01c0,0,0,0,0-.01h0s0-.02,0-.03,0,0,0-.02v-.02s0,0,0-.01v-.02s0,0,0-.01v-.02s0,0,0,0v-.03s0,0,0,0v-.02s0,0,0,0c0,0,0-.02,0-.03h0s0-.02,0-.03h0s0-.02,0-.03h0s0-.03,0-.04h0s0-.02,0-.03h0s0-.02,0-.03h0s0-.03,0-.03h0s0-.02,0-.03h0s0-.02,0-.03h0s0-.02,0-.03h0s0-.02,0-.03h0s0-.02,0-.03h0s0-.02,0-.03h0s0-.02,0-.03h0s0-.04,0-.07h0s0-.02,0-.03h0s0-.05,0-.06c0,0,0,0,0,0v-.02s0,0,0,0c0,0,0-.02,0-.03-.01-.52-.04-1.05-.07-1.58h0c.04.52.06,1.05.07,1.58.07,2.71-.32,5.19-1.11,7.44"/>
  <path class="cls-2" d="M73.91,56.16h0c.05-.14.11-.29.16-.43,0,0,0,0,0,0-.05.14-.1.29-.16.43"/>
  <path class="cls-2" d="M54.1,71.03c9.62-2.44,16.97-7.37,19.81-14.87h0c-2.84,7.51-10.2,12.43-19.81,14.87h0"/>
  <path class="cls-7" d="M43.65,72.67c3.68-.26,7.2-.81,10.45-1.63h0c-3.25.83-6.77,1.37-10.45,1.63"/>
  <path class="cls-5" d="M38.48,72.85c-1.26,0-2.5-.03-3.72-.09-4.04-.21-7.86-.78-11.35-1.72-10.62-2.87-18.12-9.17-19.13-19.23-.04-.43-.07-.87-.09-1.31,0-.14-.01-.28-.01-.42-.02-.98,0-1.97.05-2.97,1.07,14.8,15.92,21.69,34.25,21.67.59,0,1.19,0,1.79-.02,16.89-.43,30.89-6.42,34.18-18.35,0,.16.01.32.02.47.04,1.7-.09,3.32-.4,4.84.51-1.46.86-3.02,1.02-4.67-.16,1.65-.5,3.21-1.02,4.67-.05.14-.1.29-.16.43-2.84,7.51-10.2,12.43-19.81,14.87-3.25.83-6.77,1.37-10.45,1.63-1.11.08-2.23.13-3.36.16-.6.02-1.2.02-1.8.02M75.09,51.06s0-.02,0-.03c0,0,0,.02,0,.03M75.09,51.03s0-.02,0-.03c0,0,0,.02,0,.03M75.09,50.99s0-.01,0-.02c0,0,0,.01,0,.02M75.1,50.96s0-.01,0-.02c0,0,0,.01,0,.02M75.1,50.93s0-.01,0-.02c0,0,0,.01,0,.02M75.1,50.9s0,0,0-.01c0,0,0,0,0,.01M75.1,50.87s0,0,0,0c0,0,0,0,0,0M75.11,50.83s0,0,0,0c0,0,0,0,0,0M75.11,50.81h0s0,0,0,0M75.18,49.59h0s0,0,0,0M75.18,49.5s0,0,0,0t0,0M75.18,49.43h0s0,0,0,0M75.18,49.41s0,0,0,0c0,0,0,0,0,0M75.19,49.34h0s0,0,0,0M75.19,49.31h0s0,0,0,0M75.19,49.25h0s0,0,0,0M75.19,49.22h0s0,0,0,0M75.19,49.19v-.02s0,.01,0,.02M75.19,49.16s0,0,0-.01c0,0,0,0,0,.01M75.19,49.13v-.02s0,.01,0,.02M75.19,49.1v-.02s0,.01,0,.02M75.19,49.07v-.02s0,.01,0,.02M75.19,49.04v-.02s0,.01,0,.02M75.19,49.01v-.03s0,.02,0,.03M75.19,48.97v-.02s0,.01,0,.02M75.19,48.95s0-.02,0-.03c0,0,0,.02,0,.03M75.19,48.92v-.03s0,.02,0,.03M75.19,48.88v-.02s0,.01,0,.02M75.19,48.85v-.03s0,.02,0,.03M75.19,48.82s0-.02,0-.03c0,0,0,.02,0,.03M75.19,48.79v-.02s0,.01,0,.02M75.19,48.76v-.03s0,.02,0,.03M75.19,48.73v-.03s0,.02,0,.03M75.19,48.69s0-.02,0-.02c0,0,0,.02,0,.02M75.19,48.67v-.03s0,.02,0,.03M75.19,48.63s0-.02,0-.03c0,0,0,.02,0,.03M75.19,48.6s0-.02,0-.03c0,0,0,.02,0,.03M75.19,48.57v-.03s0,.02,0,.03M75.19,48.54s0-.02,0-.03c0,0,0,.02,0,.03M75.19,48.51s0-.04,0-.06c0,.02,0,.04,0,.06M75.19,48.44s0-.02,0-.02c0,0,0,.02,0,.02M75.19,48.41s0-.04,0-.06c0,.02,0,.04,0,.06M75.18,48.35v-.02s0,.02,0,.02M75.18,48.32s0-.02,0-.03c-.01-.52-.04-1.05-.07-1.58h0c.04.53.06,1.05.07,1.58,0,0,0,.02,0,.03"/>
  <path class="cls-1" d="M5.84,38.26s0,0,0,0c0,0,0,0,0,0M5.85,38.25c3.53-11.32,12.79-21.47,28.97-23.28-16.18,1.81-25.44,11.96-28.97,23.28M34.82,14.97s.02,0,.03,0c-.01,0-.02,0-.03,0M34.85,14.97s.06,0,.09-.01c-.03,0-.06,0-.09.01M34.95,14.96s.02,0,.02,0c0,0-.02,0-.02,0M34.98,14.95s.02,0,.03,0c0,0-.02,0-.03,0M35.01,14.95s.04,0,.06,0c-.02,0-.04,0-.06,0M35.08,14.94s.02,0,.02,0c0,0-.02,0-.02,0M35.11,14.94s.02,0,.03,0c0,0-.02,0-.03,0M35.14,14.94s.04,0,.06,0c-.02,0-.04,0-.06,0M35.21,14.93s.02,0,.02,0c0,0-.02,0-.02,0M35.24,14.93s.02,0,.03,0c0,0-.02,0-.03,0M35.27,14.92s.04,0,.06,0c-.02,0-.04,0-.06,0M35.34,14.92s.02,0,.02,0c0,0-.02,0-.02,0M35.37,14.91s.01,0,.02,0c0,0-.01,0-.02,0M35.4,14.91s.02,0,.03,0c0,0-.02,0-.03,0M35.43,14.91s.02,0,.03,0c-.01,0-.02,0-.03,0M35.47,14.9s.01,0,.02,0c0,0-.01,0-.02,0M35.5,14.9s.02,0,.02,0c0,0-.01,0-.02,0M35.53,14.9s.04,0,.06,0c-.02,0-.04,0-.06,0M35.6,14.89s.01,0,.02,0c0,0-.01,0-.02,0M35.63,14.89s.01,0,.02,0c0,0-.01,0-.02,0M35.66,14.88s.04,0,.06,0c-.02,0-.04,0-.06,0M35.73,14.88s.01,0,.02,0c0,0-.01,0-.02,0M35.77,14.87s.02,0,.02,0c0,0-.01,0-.02,0M35.8,14.87s.02,0,.03,0c0,0-.02,0-.03,0"/>
  <path class="cls-4" d="M74.46,50.41c-.45-10.99-6.8-23.46-18.26-29.65-1.32-.71-2.04-2.19-1.75-3.67.33-1.66.59-3.23.6-4.13,0-.8-.27-1.17-.7-1.17-.34,0-.76.23-1.21.65-.75.71-2.72,1.93-4.97,3.16-.15.08-.31.12-.46.12-.55,0-1.04-.47-.96-1.08.25-1.84-.17-3.34-.61-4.55-.22-.62-.51-.99-.87-.99s-.75.36-1.21,1.2c-1.32,2.41-3.65,4.14-5.86,5.46-1.77,1.05-3.73,1.71-5.76,2.02-15.12,2.3-23.86,12.11-27.27,23.01.2-.85.43-1.7.69-2.53,0,0,0,0,0,0,0,0,0,0,0,0,3.53-11.32,12.79-21.47,28.97-23.28h0s.02,0,.03,0c0,0,0,0,0,0,.03,0,.06,0,.09-.01,0,0,0,0,0,0,0,0,.02,0,.02,0,0,0,0,0,0,0,0,0,.02,0,.03,0,0,0,0,0,0,0,.02,0,.04,0,.06,0,0,0,0,0,0,0,0,0,.02,0,.02,0,0,0,0,0,0,0,0,0,.02,0,.03,0,0,0,0,0,0,0,.02,0,.04,0,.06,0,0,0,0,0,0,0,0,0,.02,0,.02,0,0,0,0,0,0,0,0,0,.02,0,.03,0t0,0s.04,0,.06,0c0,0,0,0,0,0,0,0,.01,0,.02,0,0,0,0,0,0,0,0,0,.01,0,.02,0,0,0,0,0,0,0,0,0,.02,0,.03,0h0s.02,0,.03,0c0,0,0,0,0,0,0,0,.01,0,.02,0,0,0,0,0,0,0,0,0,.01,0,.02,0,0,0,0,0,0,0,.02,0,.04,0,.06,0,0,0,0,0,0,0,0,0,.01,0,.02,0,0,0,0,0,.01,0,0,0,.01,0,.02,0,0,0,0,0,0,0,.02,0,.04,0,.06,0,0,0,0,0,0,0,0,0,.01,0,.02,0,0,0,0,0,0,0,0,0,.01,0,.02,0,0,0,0,0,0,0,0,0,.02,0,.03,0h0c2.69-1.46,6.32-3.96,8.3-7.57.29-.53.8-.78,1.31-.78.59,0,1.17.34,1.4.99.35.96.68,2.1.68,3.45,0,.92-.16,1.95-.57,3.08h0c2.98-1.54,5.93-3.28,6.89-4.19.32-.31.71-.44,1.1-.44.83,0,1.62.64,1.62,1.6v.02c-.01,1.37-.44,4.29-.95,6.74h0c12.48,5.52,18.71,17.59,19.5,28.95-.11,1.29-.33,2.52-.65,3.7"/>
  <path class="cls-9" d="M75.09,51.06h0s0,0,0,0M75.09,51.03h0s0,0,0,0M75.09,51s0,0,0,0c0,0,0,0,0,0M75.1,50.97s0,0,0-.01c0,0,0,0,0,.01M75.1,50.95s0,0,0-.01c0,0,0,0,0,.01M75.1,50.91s0-.01,0-.01c0,0,0,0,0,.01M75.1,50.89s0-.01,0-.02c0,0,0,.01,0,.02M75.11,50.86s0-.02,0-.04c0,.01,0,.02,0,.04M75.11,50.83s0-.01,0-.02c0,0,0,.01,0,.02M75.11,50.8c.03-.4.06-.81.07-1.22-.01.41-.04.82-.07,1.22M75.18,49.59s0-.06,0-.09c0,.03,0,.06,0,.09M75.18,49.49s0-.04,0-.06c0,.02,0,.04,0,.06M75.18,49.43v-.02s0,.01,0,.02M75.19,49.4s0-.04,0-.06c0,.02,0,.04,0,.06M75.19,49.33s0-.01,0-.02c0,0,0,.01,0,.02M75.19,49.31s0-.04,0-.06c0,.02,0,.04,0,.06M75.19,49.24s0,0,0-.02c0,0,0,.01,0,.02M75.19,49.21s0-.01,0-.02c0,0,0,.01,0,.02M75.19,49.17h0s0,0,0,0M75.19,49.14h0s0,0,0,0M75.19,49.11s0,0,0-.02c0,0,0,0,0,.02M75.19,49.08h0s0,0,0,0M75.19,49.05s0,0,0-.01c0,0,0,0,0,.01M75.19,49.02h0s0,0,0,0M75.19,48.98h0s0,0,0,0M75.19,48.95h0s0,0,0,0M75.19,48.92h0s0,0,0,0M75.19,48.89h0s0,0,0,0M75.19,48.86h0s0,0,0,0M75.19,48.82h0s0,0,0,0M75.19,48.8h0s0,0,0,0M75.19,48.77h0s0,0,0,0M75.19,48.73h0s0,0,0,0M75.19,48.7h0s0,0,0,0M75.19,48.67h0s0,0,0,0M75.19,48.64h0s0,0,0,0M75.19,48.61h0s0,0,0,0M75.19,48.57h0s0,0,0,0M75.19,48.54h0s0,0,0,0M75.19,48.51h0s0,0,0,0M75.19,48.45h0s0,0,0,0M75.19,48.42h0s0,0,0,0M75.18,48.35s0,0,0,0c0,0,0,0,0,0M75.18,48.32s0,0,0,0c0,0,0,0,0,0"/>
  <path class="cls-9" d="M74.07,55.73c.31-1.52.45-3.14.4-4.84,0-.16,0-.32-.02-.47.32-1.18.54-2.41.65-3.7.04.53.06,1.05.07,1.58,0,0,0,.02,0,.03,0,0,0,0,0,0v.02s0,0,0,0c0,.02,0,.04,0,.06h0s0,.02,0,.03h0s0,.04,0,.06h0s0,.02,0,.03h0s0,.02,0,.03h0s0,.02,0,.03h0s0,.02,0,.03h0s0,.02,0,.03h0s0,.02,0,.03h0s0,.02,0,.03h0s0,.02,0,.03h0s0,.02,0,.03h0s0,.03,0,.03h0s0,.02,0,.03h0s0,.02,0,.03h0s0,.03,0,.03h0s0,.02,0,.03h0s0,.02,0,.03h0s0,.03,0,.03h0s0,.02,0,.03c0,0,0,0,0,.01v.02s0,0,0,.01v.02s0,.01,0,.02v.02s0,0,0,.01c0,0,0,0,0,.01h0s0,.03,0,.03c0,0,0,.01,0,.02h0s0,.02,0,.03h0s0,.05,0,.07h0s0,.02,0,.03h0s0,.05,0,.07c0,0,0,0,0,0v.02s0,0,0,0c0,.02,0,.04,0,.06,0,0,0,0,0,0,0,.03,0,.06,0,.09h0c-.01.41-.04.82-.07,1.22h0s0,.02,0,.02c0,0,0,0,0,0,0,.01,0,.02,0,.04,0,0,0,0,0,0,0,0,0,.01,0,.02,0,0,0,0,0,.01,0,0,0,0,0,.01,0,0,0,.01,0,.02,0,0,0,0,0,.01,0,0,0,.01,0,.02,0,0,0,0,0,.01,0,0,0,.01,0,.02,0,0,0,0,0,0,0,0,0,.02,0,.03h0s0,.02,0,.03h0c-.16,1.65-.5,3.21-1.02,4.67"/>
  <path class="cls-8" d="M68.12,46.29c.12,4.68-1.17,9.75-5.32,13.75-4.24,4.09-11.47,7.06-23.23,7.36h0c-11.64.29-18.98-2.25-23.43-6.05-4.45-3.8-6.03-8.86-6.15-13.58-.02-.96.03-1.91.16-2.83,1.14-8.15,8.04-14.51,16.53-14.73,4.65-.12,8.91,1.63,12.07,4.56,3.01-3.08,7.18-5.04,11.82-5.16,8.39-.21,15.52,5.64,17.19,13.57h0c.21,1.01.34,2.05.37,3.12"/>
  <path class="cls-7" d="M43.41,47.97c.04,1.46-1.86,3.26-4.25,3.32-2.39.06-4.38-1.64-4.42-3.1-.04-1.46,1.89-2.12,4.28-2.18,2.39-.06,4.35.5,4.39,1.96"/>
  <path class="cls-3" d="M39.11,48.02c-.94,0-1.69-.38-1.7-.71,0-.34.78-.5,1.75-.53.08,0,.15,0,.23,0,.87,0,1.54.13,1.55.44,0,.34-.77.77-1.75.79-.03,0-.06,0-.08,0"/>
  <path class="cls-11" d="M33.08,47.42c-.6,5.09-4.65,6.38-9.93,8.66-3.31,1.43-5.56,3.48-7.02,5.27-4.45-3.8-6.03-8.86-6.15-13.58-.02-.96.03-1.91.16-2.83,3.06-3.34,7.94-6.6,15.1-5.92,5.24.5,8.27,4.76,7.84,8.41h0Z"/>
  <path class="cls-11" d="M68.12,46.29c.12,4.68-1.17,9.75-5.32,13.75-1.55-1.68-3.87-3.55-7.17-4.78-5.38-2.01-9.49-3.1-10.35-8.15-.61-3.62,2.19-8.03,7.4-8.79,6.9-1.01,11.85,1.78,15.08,4.86h0c.21,1.01.34,2.05.37,3.12h0Z"/>
  <path class="cls-7" d="M59.64,46.03c-.17.23-.3.4-.47.58-.16.18-.33.33-.5.49-.17.16-.36.29-.55.43-.19.14-.39.26-.59.38-.81.47-1.72.8-2.68.96-.47.1-.97.1-1.45.1-.49-.05-.97-.07-1.44-.21-.94-.21-1.8-.68-2.52-1.27-.41-.34-.47-.95-.13-1.36.19-.23.48-.35.76-.35h.18c.2,0,.39.03.57.05.18.02.36.06.54.05.18,0,.35.02.52.04.17.03.34,0,.51.01.33.03.67-.01.99-.01.33-.04.65-.05.98-.11.65-.1,1.31-.25,1.98-.46l.5-.16c.16-.06.34-.12.51-.18.17-.06.34-.13.51-.19.17-.06.35-.14.49-.18l.29-.07c.51-.12,1.01.19,1.14.69.07.28,0,.56-.15.77h0Z"/>
  <path class="cls-7" d="M19.48,45.61c.14.03.33.1.5.15.18.05.35.12.52.17.17.06.35.1.52.16l.51.14c.68.18,1.34.3,2,.36.33.05.65.04.98.06.33-.02.66,0,.99-.04.17-.02.34,0,.51-.04.17-.03.34-.05.52-.07.18,0,.35-.05.53-.08.18-.03.37-.06.57-.07h.17c.53-.05.99.35,1.03.88.02.3-.1.59-.31.78-.68.63-1.52,1.14-2.45,1.4-.46.16-.94.22-1.43.28-.48.02-.97.04-1.45-.03-.96-.11-1.89-.39-2.72-.82-.2-.12-.41-.23-.61-.35-.19-.13-.39-.26-.57-.41-.18-.15-.36-.29-.53-.46-.17-.17-.32-.33-.5-.55-.33-.4-.26-1,.14-1.32.22-.18.5-.24.76-.19l.3.06h0Z"/>
  <path class="cls-7" d="M44.18,54.8c-.35.34-.69.58-1.07.82-.38.23-.77.43-1.18.6-.83.33-1.73.54-2.67.54-.95,0-1.87-.2-2.7-.54-.41-.17-.81-.38-1.18-.61-.38-.24-.71-.49-1.06-.82-.27-.27-.28-.7-.01-.98.19-.19.46-.25.7-.18l.08.03c.33.1.7.24,1.05.34.35.11.71.2,1.06.29.7.17,1.39.26,2.04.25.67-.01,1.36-.11,2.06-.27.35-.08.71-.17,1.06-.28.35-.1.72-.23,1.05-.33l.09-.03c.37-.11.75.1.86.47.07.25,0,.52-.18.69h0Z"/>
  <path class="cls-7" d="M45.44,7.41c-.14,0-.38.04-.54.32-2.09,3.8-5.86,6.4-8.66,7.92-.11.06-.22.09-.34.1-21.73,1.93-31.21,19.14-30.83,34.3.42,16.78,18.45,22.31,35.18,21.89,16.73-.42,34.46-6.85,34.04-23.63-.26-10.42-5.4-23.71-19.04-29.74-.38-.17-.6-.58-.51-.99.52-2.47.91-5.29.93-6.56,0-.43-.3-.6-.43-.66-.1-.04-.47-.17-.79.14-1.15,1.08-4.41,2.95-7.09,4.33-.32.17-.72.12-.99-.12-.27-.24-.37-.63-.25-.97.9-2.45.48-4.3-.11-5.93-.12-.33-.4-.39-.52-.4-.01,0-.03,0-.05,0h0ZM38.42,73.74c-21.35.02-34.74-8.94-35.11-23.64-.4-15.92,9.52-33.98,32.26-36.1,2.57-1.41,5.95-3.78,7.79-7.13.46-.83,1.33-1.31,2.28-1.23.94.07,1.73.67,2.05,1.56.51,1.41.94,3.08.64,5.11,2.38-1.3,4.26-2.48,4.92-3.11.74-.7,1.78-.88,2.72-.47.93.41,1.5,1.29,1.49,2.3-.01,1.27-.35,3.8-.82,6.21,5.96,2.79,10.91,7.3,14.33,13.06,3.19,5.38,4.96,11.59,5.12,17.95.38,15.13-13.32,24.88-35.76,25.45-.64.02-1.27.02-1.89.02h0Z"/>
</svg>