<?xml version="1.0" encoding="UTF-8"?>
<svg id="Vrstva_1" data-name="Vrstva 1" xmlns="http://www.w3.org/2000/svg" viewBox="0 0 79.69 88.62">
  <defs>
    <style>
      .cls-1 {
        fill: #ecc18e;
      }

      .cls-2 {
        fill: #fff;
      }

      .cls-3 {
        fill: #efcea9;
      }

      .cls-4 {
        fill: #c68e7b;
      }

      .cls-5 {
        fill: #bf8678;
      }

      .cls-6 {
        fill: #9d9d9c;
      }

      .cls-7 {
        fill: #fcf8f7;
      }

      .cls-8 {
        fill: #d1b9ca;
      }

      .cls-9 {
        fill: #64140e;
      }

      .cls-10 {
        fill: #977761;
      }
    </style>
  </defs>
  <g>
    <g>
      <path class="cls-6" d="M29.09,86.65c-2.27-.09-13.92-.6-13.98-1.74-.02-.41,1.76-.79,2.61-.87l7.05-.59c.07.77.49,1.38,1.24,1.61.52.16,1.07.18,1.63.09.76.46,1.66.55,2.57.23.9.37,1.84.27,2.83.09l1.72-.32c1.43-.14,2.6-.92,3.19-2.23l.14-.17c1.6,0,3.21.02,4.81.05l.16.18c.71,1.51,2.24,2.28,3.93,2.23,1.24.46,2.57.64,3.8.17.92.29,1.79.21,2.58-.23.73.11,1.47.03,2.1-.34.5-.29.73-.86.76-1.42,2.45.15,4.89.33,7.36.7l2.02.49c.11.03.29.23.28.33-.02,1.13-11.59,1.65-13.8,1.74"/>
      <g>
        <path class="cls-9" d="M56.24,83.39c.13.05.15.11.16.22.09,1.28-1.94,2.04-2.99,1.72-.77.47-1.75.53-2.6.24-1.23.49-2.62.29-3.83-.17-1.01.03-2.04-.24-2.86-.85-.44-.33-1.18-1-1.04-1.56-.06-.03-.12-.06-.17-.11s-.09-.08-.11-.13c-.22-.6-.34-1.23-.46-1.85l-.29-4.2c-1.01.09-2.03.11-3.05.05l-.26,3.91c-.1.72-.27,1.42-.51,2.11l-.26.16c.15.55-.57,1.23-1,1.57-.9.7-3,1.08-4.2,1.21-.98.1-1.34.09-2.3-.05-.08-.01-.17-.06-.24-.1-.83.33-1.83.26-2.6-.23-.96.17-2.15,0-2.71-.89-.16-.26-.44-.8-.13-.99-.06-.74.18-1.43.54-2.11l-1.34-8.57c-.42.49-1.03.63-1.6.28-1.03.37-1.98-.12-2.73-.9-1.06-1.1-1.45-2.56-1.8-4.04-.61-2.62-.67-5.17-.14-7.84,1.14-5.67,3.96-12.21,8.2-16.34-5.15-2.34-8.8-6.59-9.09-12.28-.23-4.4.79-8.8,2.85-12.65,3.46-6.47,9.75-10.57,17-11.48,2.83-.36,5.46-2.23,6.98-4.54.42-.63.74-1.04,1.48-1,.65.03,1.18.46,1.39,1.13.37,1.18.56,2.35.26,3.66,1.33-.53,2.37-1.41,3.42-2.32.46-.4,1.05-.53,1.61-.32.5.19.96.67.98,1.32.04,1.45-.17,2.9-.6,4.3,8.4,3.94,13.2,13.56,12.34,22.58-.53,5.53-4.35,9.51-9.32,11.7,3.46,3.45,5.79,8.25,7.26,12.84.76,2.54,1.26,5.09,1.21,7.71-.02.96-.21,1.84-.38,2.77-.25,1.35-.53,2.65-1.22,3.83-.75,1.26-1.99,2.36-3.39,1.88-.56.34-1.22.25-1.64-.28l-1.34,8.57c.34.65.57,1.31.53,2.05Z"/>
        <g>
          <g>
            <g>
              <path class="cls-7" d="M50.19,84.53c-.94.34-1.86.1-2.73-.2-.11-1.28.74-3.13,1.64-3.27.76-.11,1.49,2.16,1.09,3.47Z"/>
              <path class="cls-7" d="M52.79,84.32c-.51.37-1.11.33-1.6.15.16-1.19-.02-2.25-.51-3.27.18-.18.44-.33.67-.35.94-.06,1.82,2.07,1.44,3.47Z"/>
              <path class="cls-7" d="M55.2,83.76c-.37.42-.86.49-1.39.44.13-1.1-.1-2.14-.62-3.18.34-.15.73-.09,1.03.14.79.58,1.18,1.6.98,2.61Z"/>
            </g>
            <path class="cls-5" d="M63.37,33.32c-.45,2.39-1.61,4.53-3.34,6.31-1.78,1.75-3.9,3.02-6.23,3.93-1.07.42-2.1.79-3.14,1.49,1.23.18,2.32-.18,3.47-.56l1.31,1.24c.17.21-.08.36-.27.19-2.49,1.09-5.09,1.82-7.84,2.24-3.75.57-7.45.64-11.24.28-3.56-.33-6.93-1.2-10.16-2.58-.18.2-.4,0-.29-.23.4-.44.87-.85,1.36-1.22.98.35,1.94.62,3.06.51-.98-.75-2.03-1.12-3.09-1.59-4.36-1.91-8.06-5.12-8.88-9.92.12.01.22.16.3.34,2.37,5.46,8.22,8.34,13.89,9.43,5.76,1.11,11.73,1.08,17.46-.16,5.75-1.24,11.34-4.24,13.63-9.7Z"/>
            <path class="cls-5" d="M46.73,82.62c-.16.51-.23,1.04-.23,1.6-1.45-.06-2.56-1.05-2.85-2.52-.36-1.8-.42-3.65-.45-5.48.59-.35,1.24-.49,1.59-1.13-2.92.72-5.65.67-8.55.02.38.6.95.79,1.57,1.09-.04,1.83-.09,3.69-.46,5.48-.3,1.48-1.38,2.48-2.85,2.54-.01-.56-.08-1.1-.23-1.6,2.13-.46,2.63-3.28,2.2-5.32-.13-.59-.59-1.01-.96-1.47-1.04-1.06-1.97-2.16-2.85-3.31l-.07-.08.1-.06.04.03c4.97,2.35,10.66,2.3,15.71-.07-.9,1.3-1.9,2.38-2.95,3.5-.43.46-.85.94-.96,1.57-.38,2.06.11,4.69,2.2,5.22Z"/>
            <path class="cls-5" d="M25.02,60.12l-.7,5.93c-.08.66-.31,1.25-.73,1.74-1.51.67-3.31.66-4.75-.2-.39-1.1-.48-2.22-.49-3.32l.59,1.32c.35.86,1.12,1.42,1.93,1.5,2.07.22,2.74-1.58,3.24-3.5l.76-3.37.16-.1Z"/>
            <g>
              <path class="cls-1" d="M56.25,70.18l.12.4-1.51,9.84c-.76-.56-1.58-.64-2.32-.13-.75-.57-1.72-.57-2.43.08-.6-.39-1.34-.39-1.92.04-.74.54-1.19,1.35-1.46,2.19-.28.24-.74-.08-1.01-.27-1.69-1.21-2.07-4.9-.57-6.4.97-1,1.88-2.04,2.74-3.15-3.21,1.34-6.73,1.84-10.18,1.31-1.3-.2-3.47-.68-4.58-1.33-.16-.09-.28-.22-.39-.37l-.07.11c.18.09.36.19.49.35.83.95,1.65,1.9,2.48,2.84.89,1,1.13,1.49,1.15,2.88s-.34,2.93-1.46,3.75c-.28.2-.78.55-1.06.29-.21-.72-.61-1.41-1.16-1.95-.63-.62-1.47-.76-2.21-.29-.72-.62-1.66-.65-2.44-.12-.77-.44-1.58-.41-2.32.16l-1.5-9.75v-.11s-.01-.18-.01-.18l.05-.24c1.1-.76,1.33-2.28,1.35-3.54-.06-2.82-.09-5.72.36-8.53.35-1.72.78-3.73,1.08-5.47,0-.55-.14-.66-.4-.03-2.03,4.28-1.85,8.72-3.42,12.91-1.33,3.04-5,1.97-5.3-1.16.12-5.85,3.11-13.72,7.02-18.11.84-.88,2.26.23,3.22.4,2.17.71,4.31,1.27,6.59,1.54,6.53.79,13.33.22,19.45-2.15.22-.08.42-.11.61-.04,4.1,4.14,7.5,12.78,7.39,18.6-.17,2.07-2.85,3.67-4.49,2.13-1.05-1.11-1.33-2.8-1.69-4.24-.65-3.42-1.1-6.98-2.68-10.15-.17-.5-.24.05-.24.3.3,1.69.79,4.01,1.13,5.77.35,2.81.37,5.67.34,8.51,0,1.23.32,2.45,1.24,3.3Z"/>
              <g>
                <path class="cls-5" d="M56.37,70.58l-.42-.46c-.86-.84-1.12-2.1-1.13-3.35-.01-2.84.03-5.6-.15-8.37l.87,6.55c.14,1.2.28,2.36.98,3.35l-.15,2.28Z"/>
                <path class="cls-5" d="M24.63,70.37c-.14-.71-.16-1.49-.08-2.22.61-.89.75-1.9.87-2.94.27-2.33.48-4.63.91-6.89-.13,2.61-.2,5.23-.13,7.91.04,1.53-.28,3.46-1.58,4.14Z"/>
                <path class="cls-3" d="M25.99,45.88c-2.21,2.42-3.9,5.42-5.24,8.59-.9,2.12-1.56,4.24-1.92,6.52,0,.06-.01.16-.05.17l-.12.02c.78-5.2,3.57-11.78,6.99-15.56l.35.26Z"/>
                <path class="cls-3" d="M62.25,60.58c-.48-1.88-.91-3.79-1.73-5.62-1.36-3.28-3.06-6.39-5.36-9.03l.27-.19c3.44,3.96,5.92,9.69,6.81,14.84Z"/>
                <path class="cls-5" d="M24.65,70.67v-.11s0,.11,0,.11Z"/>
                <path class="cls-5" d="M26.4,57.98l.04-.12-.04.12Z"/>
              </g>
            </g>
            <path class="cls-5" d="M62.65,64.45c-.03,1.04-.12,2.09-.5,3.12-1.44.9-3.27.88-4.8.2-.42-.61-.58-1.23-.72-1.94l-.57-5.14s.21.05.17.03c.36,1.63.71,3.16,1.27,4.67.4.95,1.1,1.63,2.03,1.7,1.04.08,1.94-.39,2.45-1.34l.66-1.32Z"/>
            <g>
              <path class="cls-7" d="M33.54,84.29c-.84.37-1.8.55-2.72.25-.32-1.08-.04-2.21.49-3.17.16-.14.36-.29.5-.3.81-.05,1.81,1.85,1.72,3.22Z"/>
              <path class="cls-7" d="M29.82,84.44c-.49.25-1.17.24-1.62-.13-.33-1.28.38-3.43,1.37-3.45.25,0,.54.16.73.34-.47,1-.65,2.01-.49,3.24Z"/>
              <path class="cls-7" d="M27.21,84.18c-.57.11-1.09,0-1.42-.44-.17-.98.2-1.99,1-2.59.31-.23.67-.28,1.05-.12-.51.97-.76,2-.62,3.15Z"/>
            </g>
          </g>
          <g>
            <path class="cls-3" d="M63.63,30.89c-.73-7.89-4.93-14.98-11.91-19.05-.76-.44-.98-1.48-.84-2.28.2-1.14.7-3.11.2-3.43-.1-.06-.4-.06-.5.02-1.27.98-2.58,1.8-4.04,2.44l-.64-.11c.19-.53.62-.59,1.11-.77,2.53-.91,3.84-2.99,4.51-2.66.2.1.32.39.31.63-.08,1.32-.15,2.57-.6,3.82-.07.2-.35.69,0,.85,8.08,3.72,12.48,11.82,12.4,20.53Z"/>
            <path class="cls-3" d="M45.82,6.35c0-.68-.21-1.43-.63-2.01-.18-.25-.7.05-.84.29-.8,1.43-1.92,2.47-3.27,3.37-1.6,1.07-3.24,1.54-5.14,1.82-3.66.54-7.12,1.79-10.11,4-1.61,1.19-3.14,2.57-4.31,4.17,3.47-5.55,9.11-8.77,15.64-9.51,3.1-.74,5.8-2.45,7.46-5.21.1-.16.32-.3.5-.29.64.03.93,2.32.69,3.38Z"/>
            <g>
              <path class="cls-1" d="M45.82,6.35c-.01,1.09-1.19,1.63-.63,2.18.17.16.51.1.71-.04.13-.17.33-.19.6-.06,1.44-.63,2.78-1.51,4.04-2.45.98-.27.95.59.91,1.28-.13.94-.29,1.87-.5,2.79.02.48.32,1.24.71,1.54,6.86,3.95,11.68,11.32,11.97,19.31l-.17,1.85-.08.16-.02.42c-.76,2.68-2.9,4.86-5.16,6.41-7.06,4.85-17.76,5.06-25.97,3.63-5.75-1-12-4.27-14.15-9.94-.21-1.22-.37-2.39-.29-3.72.25-4.14,1.31-8.38,3.73-11.72,3.41-5.06,9.27-7.75,15.2-8.48,3.08-.63,5.09-1.82,7.04-4.29,1.16-2.28,2.25-.67,2.04,1.14Z"/>
              <path class="cls-5" d="M63.39,32.9s.03-.12.08-.16c0,.03-.07.16-.08.16Z"/>
              <g>
                <path class="cls-10" d="M59.32,26.96c.73,4.13-.44,8.37-3.56,11.22-2.66-3.23-6.16-3.52-8.99-5.27-1.82-1.13-2.8-3.26-2.21-5.35.55-1.96,2.17-3.39,4.16-3.84,3.89-.88,7.81.47,10.6,3.24Z"/>
                <path class="cls-9" d="M54.13,29.9c-.53.67-2.51-1.53-6.08-.53-.28.08-.63-.09-.7-.33-.31-1.27,4.26-2.83,6.82.22.12.14.04.52-.05.64Z"/>
              </g>
              <g>
                <path class="cls-10" d="M25.05,38.3c-.96-.86-1.78-1.8-2.41-2.97-1.35-2.5-1.77-5.36-1.31-8.17,2.51-2.49,5.89-3.92,9.49-3.61,1.52.13,2.93.6,4.03,1.65,1.21,1.14,1.83,2.69,1.55,4.37-.5,3.05-3.3,4.04-5.99,5.08-2.07.81-3.92,1.92-5.37,3.65Z"/>
                <path class="cls-9" d="M33.83,28.96c-.1,1.17-2.21-.84-6.06,1.08-.23.12-.65.03-.77-.16-.13-.21-.07-.53.14-.76,2.59-2.8,6.79-1.32,6.69-.16Z"/>
              </g>
              <g>
                <path class="cls-7" d="M59.32,26.96l-.38-.12c-3.16-3.38-11.33-5.01-13.82-.2-1.66,3.22.61,6.06,3.7,7.1l2.85,1.2c.94.38,3.87,2.14,4.07,3.03.02.07.02.14.02.21-3.03,2.77-7.22,3.9-11.3,4.3-4.98.48-10.84.22-15.45-1.7-1.49-.62-2.78-1.42-3.95-2.47,0-.08.01-.15.03-.22s.04-.13.08-.18c1.73-2.08,4.42-3.13,6.86-4.07,3.03-1.01,5.43-3.94,3.75-7.14-2.57-4.89-10.87-3.1-14.05.35l-.39.13c.74-4.13,3.66-7.5,7.62-8.79,3.96-1.29,8.31-.3,11.37,2.58,3.03-2.88,7.34-3.9,11.3-2.65s6.9,4.56,7.7,8.66Z"/>
                <path class="cls-9" d="M37.75,33.48c3.32,1.45,5.32-.24,5.83.15.16.12.27.56.11.72-1.82,1.77-4.63,1.71-6.49.02-.2-.18-.26-.43-.16-.69.07-.19.46-.31.71-.2Z"/>
                <g>
                  <path class="cls-9" d="M43.08,30.49c-.51.96-1.6,1.53-2.63,1.54-1.75.02-3.31-1.35-2.91-2.51.42-1.19,3.28-1.31,4.86-.73.72.26,1.07.97.68,1.7Z"/>
                  <path class="cls-5" d="M41.58,29.31c.03.74-2.48.6-2.31,0,.14-.48,2.29-.41,2.31,0Z"/>
                </g>
              </g>
            </g>
          </g>
        </g>
      </g>
    </g>
    <g>
      <rect class="cls-2" x="14.46" y="48.66" width="50.95" height="24.21"/>
      <path class="cls-9" d="M65.41,73.37H14.46c-.28,0-.5-.22-.5-.5v-24.21c0-.28.22-.5.5-.5h50.95c.28,0,.5.22.5.5v24.21c0,.28-.22.5-.5.5ZM14.96,72.37h49.95v-23.21H14.96v23.21Z"/>
    </g>
    <g>
      <path class="cls-1" d="M65.34,62.07s2.93.03,4.25-2.45c2.12-4.02.25-6.68-1.85-6.77-2.21-.09-4.6,2.11-2.93,6.59.3.81.73,1.39.53,2.64"/>
      <path class="cls-4" d="M65.77,61.65c.04-.83-.19-1.38-.42-1.91-.06-.14-.12-.29-.18-.44-.08-.23-.16-.45-.22-.66.02.01.03.02.05.03.22.16.46.34.71.55.05.04.1.08.15.13.03.03.06.05.09.07.09.06.19.11.29.15.39.13.82.05,1.13-.22.17.12.36.22.55.29.38.13.79.14,1.19.03-.94,1.53-2.57,1.9-3.34,1.99"/>
      <path class="cls-9" d="M68.33,53.34c-.2-.07-.4-.11-.61-.11-.95-.04-1.86.4-2.43,1.18-.83,1.14-.87,2.88-.12,4.89.06.15.12.3.18.44.23.53.46,1.08.42,1.91.81-.09,2.56-.5,3.47-2.22,1-1.89,1.16-3.69.45-4.94-.32-.56-.81-.97-1.36-1.15M64.89,62.45l.07-.44c.14-.89-.07-1.39-.32-1.97-.06-.15-.13-.31-.19-.48-.84-2.27-.76-4.26.22-5.62.72-.99,1.87-1.55,3.09-1.49,1.07.05,2.04.67,2.61,1.66.85,1.48.69,3.55-.44,5.69-1.41,2.66-4.46,2.66-4.59,2.66h-.45"/>
      <path class="cls-2" d="M66.33,55.22c.55.36,1.3.16,1.6-.43.15-.3.23-.67.16-1.12-.19-1.1-2.48-1.32-4.13-.56-.44.2-.4.85.07.99.58.18,1.37.51,2.31,1.12"/>
      <path class="cls-8" d="M65.37,54.22c-.35-.17-.7-.32-1.04-.43-.06-.02-.13-.04-.19-.06h0c-.07-.03-.09-.09-.1-.13,0-.04,0-.1.08-.14.18-.08.36-.15.54-.2.06.1.15.18.28.22,0,0,0,0,.01,0,.06.02.11.04.17.06.41.14.9.35,1.47.67-.39-.04-.81-.03-1.23.02"/>
      <path class="cls-9" d="M66.54,54.89c.17.11.39.15.59.09.2-.05.36-.19.45-.37.13-.27.18-.57.12-.88-.03-.17-.16-.32-.38-.43-.65-.34-2.03-.38-3.2.16-.07.03-.08.1-.08.14,0,.04.02.11.1.13.77.24,1.58.63,2.41,1.17h0M66.46,55.71c-.12-.04-.23-.09-.34-.16h0c-.77-.5-1.52-.87-2.21-1.08-.37-.11-.62-.44-.65-.82-.03-.38.18-.73.53-.89,1.27-.58,2.94-.64,3.89-.14.44.23.72.58.79.99.08.48.02.94-.19,1.36-.19.38-.53.66-.94.77-.29.08-.6.07-.88-.03"/>
      <path class="cls-2" d="M66.38,57.35c.6.39,1.41.18,1.74-.47.16-.32.25-.73.17-1.22-.21-1.2-2.69-1.44-4.5-.61-.48.22-.43.92.07,1.08.64.2,1.49.56,2.51,1.22"/>
      <path class="cls-8" d="M67.31,57.11c-.17-.11-.38-.21-.6-.28s-.45-.13-.7-.17c-.62-.36-1.23-.64-1.82-.84-.07-.02-.14-.05-.21-.07,0,0,0,0-.01,0-.1-.03-.12-.13-.12-.17,0-.05,0-.14.11-.18.27-.12.56-.22.86-.3.01.22.15.43.39.51h.02c.06.02.13.05.19.07.6.2,1.38.55,2.29,1.14-.1.14-.23.24-.39.29"/>
      <path class="cls-9" d="M64.19,55.82c.77.26,1.58.66,2.41,1.2h0c.2.13.44.17.66.1.23-.06.41-.21.51-.42.15-.3.2-.63.13-.98-.03-.2-.18-.36-.44-.5-.82-.43-2.36-.36-3.52.17-.1.05-.11.13-.11.18,0,.04.02.14.13.17.07.02.14.04.21.07M66.53,57.85c-.13-.04-.25-.1-.36-.17-.84-.55-1.66-.94-2.42-1.18-.39-.12-.65-.46-.68-.86-.03-.4.19-.77.56-.94,1.37-.63,3.18-.69,4.2-.15.47.25.76.61.84,1.05.09.52.02,1.01-.21,1.46-.2.4-.57.7-1,.82-.31.08-.63.07-.93-.03"/>
      <path class="cls-2" d="M65.85,59.34c.52.45,1.32.35,1.71-.22.2-.29.34-.66.32-1.14-.04-1.17-2.38-1.71-4.2-1.16-.49.15-.53.82-.07,1.03.58.27,1.35.72,2.24,1.49"/>
      <path class="cls-8" d="M66.24,59.56c-.1-.03-.2-.08-.29-.15-.03-.02-.06-.05-.09-.07-.05-.04-.1-.09-.15-.13-.25-.21-.48-.39-.71-.55-.02-.01-.03-.02-.05-.03-.34-.24-.66-.43-.94-.58-.02-.01-.04-.02-.06-.03-.12-.06-.23-.12-.33-.16-.46-.21-.42-.89.07-1.03.06-.02.12-.04.18-.05.14-.04.27-.07.41-.09.16-.03.33-.05.5-.06-.26.25-.22.73.15.91.58.27,1.35.72,2.24,1.49.1.09.21.15.33.2-.31.37-.82.5-1.26.35"/>
      <path class="cls-9" d="M66.58,57.19c-.78-.26-1.88-.28-2.78,0-.09.03-.11.1-.11.15,0,.04,0,.12.1.16.76.35,1.54.87,2.33,1.54.17.14.39.21.61.18.22-.03.41-.15.53-.33.18-.26.26-.57.25-.91,0-.19-.12-.36-.34-.52-.16-.11-.35-.21-.57-.28h0ZM66.11,59.93c-.19-.06-.36-.16-.51-.29-.73-.63-1.45-1.11-2.15-1.43-.36-.17-.57-.53-.55-.92.03-.39.29-.72.66-.84,1.39-.42,3.12-.26,4.03.39.42.3.65.69.67,1.12.02.51-.11.97-.38,1.37-.25.36-.64.6-1.07.66-.24.03-.48,0-.7-.07h0Z"/>
    </g>
    <g>
      <path class="cls-1" d="M14.35,62.07s-2.93.03-4.25-2.45c-2.12-4.02-.25-6.68,1.85-6.77,2.21-.09,4.6,2.11,2.93,6.59-.3.81-.73,1.39-.53,2.64"/>
      <path class="cls-4" d="M13.92,61.65c-.04-.83.19-1.38.42-1.91.06-.14.12-.29.18-.44.08-.23.16-.45.22-.66-.02.01-.03.02-.05.03-.22.16-.46.34-.71.55-.05.04-.1.08-.15.13-.03.03-.06.05-.09.07-.09.06-.19.11-.29.15-.39.13-.82.05-1.13-.22-.17.12-.36.22-.55.29-.38.13-.79.14-1.19.03.94,1.53,2.57,1.9,3.34,1.99"/>
      <path class="cls-9" d="M11.36,53.34c.2-.07.4-.11.61-.11.95-.04,1.86.4,2.43,1.18.83,1.14.87,2.88.12,4.89-.06.15-.12.3-.18.44-.23.53-.46,1.08-.42,1.91-.81-.09-2.56-.5-3.47-2.22-1-1.89-1.16-3.69-.45-4.94.32-.56.81-.97,1.36-1.15M14.8,62.45l-.07-.44c-.14-.89.07-1.39.32-1.97.06-.15.13-.31.19-.48.84-2.27.76-4.26-.22-5.62-.72-.99-1.87-1.55-3.09-1.49-1.07.05-2.04.67-2.61,1.66-.85,1.48-.69,3.55.44,5.69,1.41,2.66,4.46,2.66,4.59,2.66h.45"/>
      <path class="cls-2" d="M13.36,55.22c-.55.36-1.3.16-1.6-.43-.15-.3-.23-.67-.16-1.12.19-1.1,2.48-1.32,4.13-.56.44.2.4.85-.07.99-.58.18-1.37.51-2.31,1.12"/>
      <path class="cls-8" d="M14.32,54.22c.35-.17.7-.32,1.04-.43.06-.02.13-.04.19-.06h0c.07-.03.09-.09.1-.13,0-.04,0-.1-.08-.14-.18-.08-.36-.15-.54-.2-.06.1-.15.18-.28.22,0,0,0,0-.01,0-.06.02-.11.04-.17.06-.41.14-.9.35-1.47.67.39-.04.81-.03,1.23.02"/>
      <path class="cls-9" d="M13.15,54.89c-.17.11-.39.15-.59.09-.2-.05-.36-.19-.45-.37-.13-.27-.18-.57-.12-.88.03-.17.16-.32.38-.43.65-.34,2.03-.38,3.2.16.07.03.08.1.08.14,0,.04-.02.11-.1.13-.77.24-1.58.63-2.41,1.17h0M13.23,55.71c.12-.04.23-.09.34-.16h0c.77-.5,1.52-.87,2.21-1.08.37-.11.62-.44.65-.82.03-.38-.18-.73-.53-.89-1.27-.58-2.94-.64-3.89-.14-.44.23-.72.58-.79.99-.08.48-.02.94.19,1.36.19.38.53.66.94.77.29.08.6.07.88-.03"/>
      <path class="cls-2" d="M13.31,57.35c-.6.39-1.41.18-1.74-.47-.16-.32-.25-.73-.17-1.22.21-1.2,2.69-1.44,4.5-.61.48.22.43.92-.07,1.08-.64.2-1.49.56-2.51,1.22"/>
      <path class="cls-8" d="M12.38,57.11c.17-.11.38-.21.6-.28s.45-.13.7-.17c.62-.36,1.23-.64,1.82-.84.07-.02.14-.05.21-.07,0,0,0,0,.01,0,.1-.03.12-.13.12-.17,0-.05,0-.14-.11-.18-.27-.12-.56-.22-.86-.3-.01.22-.15.43-.39.51h-.02c-.06.02-.13.05-.19.07-.6.2-1.38.55-2.29,1.14.1.14.23.24.39.29"/>
      <path class="cls-9" d="M15.5,55.82c-.77.26-1.58.66-2.41,1.2h0c-.2.13-.44.17-.66.1-.23-.06-.41-.21-.51-.42-.15-.3-.2-.63-.13-.98.03-.2.18-.36.44-.5.82-.43,2.36-.36,3.52.17.1.05.11.13.11.18,0,.04-.02.14-.13.17-.07.02-.14.04-.21.07M13.16,57.85c.13-.04.25-.1.36-.17.84-.55,1.66-.94,2.42-1.18.39-.12.65-.46.68-.86.03-.4-.19-.77-.56-.94-1.37-.63-3.18-.69-4.2-.15-.47.25-.76.61-.84,1.05-.09.52-.02,1.01.21,1.46.2.4.57.7,1,.82.31.08.63.07.93-.03"/>
      <path class="cls-2" d="M13.84,59.34c-.52.45-1.32.35-1.71-.22-.2-.29-.34-.66-.32-1.14.04-1.17,2.38-1.71,4.2-1.16.49.15.53.82.07,1.03-.58.27-1.35.72-2.24,1.49"/>
      <path class="cls-8" d="M13.45,59.56c.1-.03.2-.08.29-.15.03-.02.06-.05.09-.07.05-.04.1-.09.15-.13.25-.21.48-.39.71-.55.02-.01.03-.02.05-.03.34-.24.66-.43.94-.58.02-.01.04-.02.06-.03.12-.06.23-.12.33-.16.46-.21.42-.89-.07-1.03-.06-.02-.12-.04-.18-.05-.14-.04-.27-.07-.41-.09-.16-.03-.33-.05-.5-.06.26.25.22.73-.15.91-.58.27-1.35.72-2.24,1.49-.1.09-.21.15-.33.2.31.37.82.5,1.26.35"/>
      <path class="cls-9" d="M13.11,57.19c.78-.26,1.88-.28,2.78,0,.09.03.11.1.11.15,0,.04,0,.12-.1.16-.76.35-1.54.87-2.33,1.54-.17.14-.39.21-.61.18-.22-.03-.41-.15-.53-.33-.18-.26-.26-.57-.25-.91,0-.19.12-.36.34-.52.16-.11.35-.21.57-.28h0ZM13.57,59.93c.19-.06.36-.16.51-.29.73-.63,1.45-1.11,2.15-1.43.36-.17.57-.53.55-.92-.03-.39-.29-.72-.66-.84-1.39-.42-3.12-.26-4.03.39-.42.3-.65.69-.67,1.12-.02.51.11.97.38,1.37.25.36.64.6,1.07.66.24.03.48,0,.7-.07h0Z"/>
    </g>
  </g>
  <g>
    <path class="cls-9" d="M27.61,58.96c-.09-1.14-.14-2.61-.14-4.43,0-.46.03-.84.08-1.17.02-.12.13-.22.35-.29.21-.07.4-.12.58-.13.17-.02.34-.02.5-.02.54,0,.99.16,1.34.49.35.33.52.76.52,1.3,0,.23-.03.43-.1.6-.06.17-.14.31-.24.41-.09.1-.22.19-.38.26-.16.07-.3.12-.43.15-.13.03-.29.06-.49.09.09.15.25.42.48.8.23.38.44.72.63,1.03.18.31.33.58.46.8-.01.1-.08.18-.19.26-.12.08-.22.12-.32.12-.18,0-.49-.37-.95-1.09s-.76-1.32-.91-1.77c.03,1.5.06,2.39.08,2.67-.04.1-.23.15-.57.15-.08,0-.14-.02-.18-.05-.04-.03-.07-.09-.1-.18ZM28.88,53.8c-.06,0-.15,0-.27.02-.13.02-.19.03-.19.05v1.61c.11,0,.23,0,.37-.03.14-.02.3-.05.48-.09.18-.04.33-.12.46-.21.13-.1.2-.22.21-.36.02-.3-.07-.54-.28-.72-.21-.18-.48-.27-.79-.27Z"/>
    <path class="cls-9" d="M31.27,56.27c0-.33.03-.67.08-1,.06-.33.15-.66.29-.99.13-.33.33-.6.58-.8s.56-.31.92-.31c1.01,0,1.52,1.03,1.52,3.09.06.85.08,1.6.08,2.23,0,.53-.03.8-.08.8-.29.18-.52.18-.69,0-.12-.13-.19-.63-.22-1.5l-1.47.12c0,.15.01.38.04.69.03.31.04.53.04.67,0,.19-.05.28-.16.28h-.61c-.21,0-.32-1.05-.32-3.17v-.12ZM33.13,54.26c-.29,0-.51.11-.66.36-.15.25-.23.56-.23.95,0,.39,0,.82.04,1.3l1.47-.08c0-.06,0-.16,0-.3,0-.14,0-.26-.01-.35,0-.09-.01-.21-.02-.36,0-.15-.02-.27-.03-.38s-.03-.22-.05-.35c-.02-.13-.04-.23-.08-.32-.03-.09-.07-.17-.1-.25s-.08-.14-.14-.17-.12-.06-.18-.06ZM32.43,52.35c.06-.09.13-.2.23-.32.1-.12.23-.23.39-.33.16-.1.29-.11.4-.02.04.04.08.12.12.25.04.13.05.21.02.26-.09.06-.15.11-.18.15-.02.01-.06.05-.12.11-.06.06-.12.11-.16.15-.04.04-.11.08-.18.13-.08.05-.14.08-.19.07-.05,0-.12-.02-.2-.04-.18-.1-.22-.24-.12-.41Z"/>
    <path class="cls-9" d="M35.31,58.3c0-1.62.08-3.3.24-5.04,0-.21.05-.34.15-.39h.3c.84,0,1.5.28,1.98.83.48.55.72,1.25.72,2.09,0,.44-.05.85-.15,1.25-.1.4-.25.77-.46,1.1-.21.34-.48.61-.84.81-.35.2-.76.3-1.21.3-.34,0-.55-.06-.62-.17-.07-.11-.11-.34-.11-.7v-.09ZM36.54,53.87c-.09,1.1-.17,2.59-.23,4.46.44-.14.79-.44,1.05-.9.26-.46.38-.96.38-1.51,0-.48-.1-.91-.31-1.29-.21-.38-.5-.64-.9-.76Z"/>
    <path class="cls-9" d="M39.15,56.27c0-.33.03-.67.08-1,.06-.33.15-.66.29-.99.13-.33.33-.6.58-.8s.56-.31.92-.31c1.01,0,1.52,1.03,1.52,3.09.06.85.08,1.6.08,2.23,0,.53-.03.8-.08.8-.29.18-.52.18-.69,0-.12-.13-.19-.63-.22-1.5l-1.47.12c0,.15.01.38.04.69.03.31.04.53.04.67,0,.19-.05.28-.16.28h-.61c-.21,0-.32-1.05-.32-3.17v-.12ZM41.01,54.26c-.29,0-.51.11-.66.36-.15.25-.23.56-.23.95,0,.39,0,.82.04,1.3l1.47-.08c0-.06,0-.16,0-.3,0-.14,0-.26-.01-.35,0-.09-.01-.21-.02-.36,0-.15-.02-.27-.03-.38s-.03-.22-.05-.35c-.02-.13-.04-.23-.08-.32-.03-.09-.07-.17-.1-.25s-.08-.14-.14-.17-.12-.06-.18-.06Z"/>
    <path class="cls-9" d="M46.47,59.36c-.03-.56-.03-1.43,0-2.61s.04-2.04.02-2.58c-.13-.02-.31-.03-.55-.03-.24,0-.41-.01-.5-.02l-.07-.08v-.24c0-.28.03-.45.09-.5.09-.08.32-.13.69-.14.37-.01.85,0,1.43.03.58.03.92.05,1,.05.11.07.16.23.16.47,0,.15,0,.23,0,.25-.16.11-.36.16-.61.16-.08,0-.19,0-.33-.02s-.25-.02-.31-.02c.02,1.56-.03,3.31-.13,5.25-.03.1-.11.15-.25.15h-.05c-.26,0-.46-.04-.59-.11Z"/>
    <path class="cls-9" d="M49.48,53.03c.14,0,.45,0,.92-.02.48-.01.79-.02.94-.02.13,0,.23,0,.28,0s.12.01.21.02c.09.01.15.04.19.07.04.03.07.08.1.14.03.06.05.14.05.24,0,.06,0,.17-.02.3-.02.14-.03.21-.05.21h-1.86v1.74c.39.04.72.09,1,.15.08.03.1.17.08.42-.02.26-.07.38-.16.38h-.92v1.93s.04,0,.08,0,.07,0,.09,0c.07,0,.2,0,.4,0,.2,0,.36,0,.47,0,.37,0,.62.02.78.06.15.04.23.13.23.27,0,.35-.08.54-.24.55-.57.06-1.38.09-2.43.08-.21-.16-.31-.39-.31-.69v-5.45c0-.05.01-.12.04-.21.03-.09.07-.15.12-.17ZM50.85,51.53c.01-.08.12-.2.31-.37.2-.17.36-.26.5-.26.05,0,.1.02.15.06s.08.1.08.18c0,.16-.14.39-.42.69-.28.3-.49.45-.63.45-.16,0-.36-.14-.62-.42-.25-.28-.38-.49-.38-.64,0-.17.08-.26.24-.26s.28.05.39.14.2.18.26.28c.06.09.1.14.12.14Z"/>
    <path class="cls-9" d="M22.76,69.3c-.04-.22-.07-.43-.07-.62,0-.33,0-.74,0-1.23,0-.48-.01-.95-.02-1.41,0-.46-.02-.89-.02-1.29,0-.4-.01-.73-.02-.98,0-.25,0-.37,0-.36.14-.16.3-.27.48-.32.18-.05.42-.07.7-.07.68,0,1.15.16,1.43.47.27.32.41.79.41,1.43,0,.2-.02.37-.07.54-.05.16-.1.3-.16.41-.06.11-.15.21-.27.31s-.23.17-.31.22c-.08.05-.21.11-.38.17-.17.06-.29.1-.37.12s-.21.05-.38.09c-.01,0-.03.01-.05.02-.02,0-.03,0-.04,0v2.47c0,.05-.05.09-.17.12-.11.03-.2.04-.27.04-.19,0-.32-.05-.4-.16ZM23.55,64.05c0,.81.03,1.41.09,1.77.28,0,.53-.09.73-.26s.31-.39.31-.65c0-.32-.04-.56-.12-.7s-.25-.22-.52-.22c-.13,0-.29.02-.5.06Z"/>
    <path class="cls-9" d="M25.96,66.93c0-2.59.71-3.89,2.14-3.89.31,0,.57.08.79.24.22.16.38.38.48.65.1.28.17.54.21.81s.06.55.06.86v.08c0,2.74-.62,4.11-1.89,4.11-.3,0-.56-.06-.78-.19-.22-.13-.4-.29-.53-.48-.13-.19-.23-.42-.3-.7s-.13-.52-.15-.76-.04-.48-.04-.74ZM28.01,63.95c-.35,0-.63.28-.84.84-.21.56-.31,1.2-.31,1.92,0,.61.08,1.12.23,1.54.16.42.38.63.66.63.32,0,.57-.29.75-.86.19-.57.28-1.22.28-1.95,0-.6-.07-1.11-.2-1.52-.13-.41-.33-.62-.58-.62Z"/>
    <path class="cls-9" d="M30.29,69.38l-.09-.64c.35-.7.79-1.61,1.3-2.74.51-1.12.83-1.83.93-2.12h-2.22c-.14-.04-.21-.2-.21-.47,0-.21.04-.35.13-.41l2.68-.05s.08,0,.15,0c.07,0,.12,0,.16,0,.3,0,.45.09.45.28,0,.07,0,.12-.02.16-.18.67-.55,1.6-1.09,2.8-.55,1.2-.88,1.96-1,2.28h1.55c.13,0,.21.08.26.23.04.15.07.29.07.43s-.03.22-.09.26c-.38.06-.83.08-1.35.08-.13,0-.36,0-.71,0s-.57,0-.65,0l-.24-.08Z"/>
    <path class="cls-9" d="M34.04,69.57v-6.28c0-.16.13-.25.39-.27s.46.03.6.17c.15.13.31.38.5.74.19.36.35.7.48,1.03.13.33.28.71.45,1.14s.27.69.3.78v-.27s0-.08,0-.16c0-.08,0-.13,0-.17-.03-1.5-.03-2.52,0-3.06l.08-.16h.64l.16.16c0,.58-.02,1.44-.05,2.59-.03,1.15-.05,2.01-.05,2.59,0,.07,0,.18,0,.33s0,.26,0,.33c0,.06-.02.12-.06.19-.04.07-.07.11-.09.11h-.57c-.06,0-.13-.08-.21-.24s-.16-.36-.24-.6c-.08-.24-.12-.36-.13-.37-.09-.22-.3-.79-.62-1.71-.32-.92-.56-1.52-.72-1.78-.02.38-.02.9,0,1.56s.03,1.35.02,2.08c0,.73-.03,1.16-.07,1.28-.13.08-.28.12-.46.11-.18,0-.3-.05-.37-.11Z"/>
    <path class="cls-9" d="M38.2,66.16c0-.33.03-.67.08-1,.06-.33.15-.66.29-.99.13-.33.33-.6.58-.8s.56-.31.92-.31c1.01,0,1.52,1.03,1.52,3.09.06.85.08,1.6.08,2.23,0,.53-.03.8-.08.8-.29.18-.52.18-.69,0-.12-.13-.19-.63-.22-1.5l-1.47.12c0,.15.01.38.04.69.03.31.04.53.04.67,0,.19-.05.28-.16.28h-.61c-.21,0-.32-1.05-.32-3.17v-.12ZM40.06,64.15c-.29,0-.51.11-.66.36-.15.25-.23.56-.23.95,0,.39,0,.82.04,1.3l1.47-.08c0-.06,0-.16,0-.3,0-.14,0-.26-.01-.35,0-.09-.01-.21-.02-.36,0-.15-.02-.27-.03-.38s-.03-.22-.05-.35c-.02-.13-.04-.23-.08-.32-.03-.09-.07-.17-.1-.25s-.08-.14-.14-.17-.12-.06-.18-.06ZM39.36,62.24c.06-.09.13-.2.23-.32.1-.12.23-.23.39-.33.16-.1.29-.11.4-.02.04.04.08.12.12.25.04.13.05.21.02.26-.09.06-.15.11-.18.15-.02.01-.06.05-.12.11-.06.06-.12.11-.16.15-.04.04-.11.08-.18.13-.08.05-.14.08-.19.07-.05,0-.12-.02-.2-.04-.18-.1-.22-.24-.12-.41Z"/>
    <path class="cls-9" d="M42.14,63.24c0-.09.07-.17.22-.25s.27-.12.37-.12c.13,0,.26.13.37.39.1.25.22.55.35.92.13.37.24.69.34.98.1.29.23.67.38,1.16.16.49.27.84.35,1.07l.94-2.98c.02-.07.06-.2.12-.4.06-.2.11-.34.14-.45.04-.1.08-.23.15-.37.06-.15.13-.27.2-.38.49,0,.73.12.73.37,0,.15-.02.3-.06.46-.04.16-.1.34-.17.54-.08.21-.13.35-.16.44-.36,1.19-.85,2.6-1.48,4.23-.07.1-.14.15-.2.15-.33,0-.54-.08-.62-.23-.08-.14-.16-.28-.23-.43-.07-.15-.15-.32-.22-.5-.08-.19-.14-.34-.18-.46-.05-.12-.11-.29-.19-.52-.08-.23-.13-.38-.15-.46-.03-.08-.08-.26-.17-.53-.08-.27-.13-.42-.15-.47-.04-.11-.12-.33-.24-.63-.12-.31-.23-.6-.31-.86s-.13-.49-.13-.66Z"/>
    <path class="cls-9" d="M47.28,66.16c0-.33.03-.67.08-1,.06-.33.15-.66.29-.99.13-.33.33-.6.58-.8s.56-.31.92-.31c1.01,0,1.52,1.03,1.52,3.09.06.85.08,1.6.08,2.23,0,.53-.03.8-.08.8-.29.18-.52.18-.69,0-.12-.13-.19-.63-.22-1.5l-1.47.12c0,.15.01.38.04.69.03.31.04.53.04.67,0,.19-.05.28-.16.28h-.61c-.21,0-.32-1.05-.32-3.17v-.12ZM49.14,64.15c-.29,0-.51.11-.66.36-.15.25-.23.56-.23.95,0,.39,0,.82.04,1.3l1.47-.08c0-.06,0-.16,0-.3,0-.14,0-.26-.01-.35,0-.09-.01-.21-.02-.36,0-.15-.02-.27-.03-.38s-.03-.22-.05-.35c-.02-.13-.04-.23-.08-.32-.03-.09-.07-.17-.1-.25s-.08-.14-.14-.17-.12-.06-.18-.06ZM48.43,62.24c.06-.09.13-.2.23-.32.1-.12.23-.23.39-.33.16-.1.29-.11.4-.02.04.04.08.12.12.25.04.13.05.21.02.26-.09.06-.15.11-.18.15-.02.01-.06.05-.12.11-.06.06-.12.11-.16.15-.04.04-.11.08-.18.13-.08.05-.14.08-.19.07-.05,0-.12-.02-.2-.04-.18-.1-.22-.24-.12-.41Z"/>
    <path class="cls-9" d="M55.69,65l-1.21,3.9c-.04.2-.11.33-.19.39-.08.06-.22.09-.42.09-.05,0-.09,0-.13-.03-.04-.02-.07-.05-.1-.1-.03-.05-.06-.09-.07-.12-.02-.03-.04-.08-.06-.16-.03-.08-.04-.12-.05-.13-.17-.58-.4-1.3-.7-2.18-.29-.88-.45-1.33-.48-1.36.03.25.05.75.08,1.51.03.76.05,1.3.05,1.62v.04c0,.2,0,.34,0,.43,0,.09-.02.19-.04.29s-.07.18-.12.22-.13.06-.23.06c-.09,0-.17-.02-.23-.05-.07-.03-.12-.08-.16-.15-.04-.07-.07-.13-.09-.19-.03-.06-.04-.14-.05-.26,0-.11-.01-.19-.01-.25s0-.13,0-.24v-.09c0-.7-.02-1.8-.07-3.31,0-.12-.02-.33-.05-.64-.03-.3-.04-.54-.04-.7,0-.22.03-.39.1-.5.07-.11.19-.17.38-.17.05,0,.09,0,.13,0s.07.01.09.02c.03,0,.06.02.08.05.03.03.05.04.06.06.01.01.03.05.06.1.03.05.05.09.06.12.01.03.04.08.08.17s.07.15.09.19c.52,1.11,1.01,2.41,1.47,3.9h.08c.06-.25.15-.54.25-.87.1-.33.26-.84.47-1.54.21-.69.44-1.43.66-2.2.08-.18.23-.27.46-.27.19,0,.33.06.44.17.34,1.87.61,3.91.8,6.12v.05c0,.15,0,.26-.01.33s-.05.13-.11.19c-.06.06-.16.09-.29.09-.28,0-.43-.08-.43-.24-.09-.49-.18-1.23-.28-2.22s-.18-1.71-.26-2.16Z"/>
  </g>
</svg>