<?xml version="1.0" encoding="UTF-8"?>
<svg id="Vrstva_1" data-name="Vrstva 1" xmlns="http://www.w3.org/2000/svg" viewBox="0 0 79.37 79.37">
  <defs>
    <style>
      .cls-1 {
        fill: #fefbfc;
      }

      .cls-2 {
        fill: #ecc18e;
      }

      .cls-3 {
        fill: #f2d5b0;
      }

      .cls-4 {
        fill: #fff;
      }

      .cls-5 {
        fill: #a36069;
      }

      .cls-6 {
        fill: #b589a6;
      }

      .cls-7 {
        fill: #81b6d4;
      }

      .cls-8 {
        fill: #bf8678;
      }

      .cls-9 {
        fill: #cbaec2;
      }

      .cls-10 {
        fill: #9d9d9c;
        opacity: .5;
      }

      .cls-11 {
        fill: #64140e;
      }

      .cls-12 {
        fill: #4997c1;
      }

      .cls-13 {
        fill: #88d0eb;
      }

      .cls-14 {
        fill: #967660;
      }

      .cls-15 {
        fill: #d2aca1;
      }
    </style>
  </defs>
  <path class="cls-10" d="M39.69,77.65c-11.75,0-21.28-.84-21.28-1.88s9.53-1.88,21.28-1.88,21.28.84,21.28,1.88-9.53,1.88-21.28,1.88"/>
  <path class="cls-2" d="M56.09,52.37c0,.29-.03.57-.07.85-.09.79-.28,1.57-.55,2.31-.94,2.57-2.88,4.75-5.53,5.93l-.15.07c-3,1.34-6.2,2.04-9.41,2.12-.42,0-.85,0-1.27,0-3.21-.09-6.41-.81-9.41-2.17-2.65-1.2-4.59-3.4-5.51-5.99-.09-.25-.17-.51-.24-.77-.13-.49-.23-.99-.29-1.5-.04-.3-.06-.61-.06-.92,0-.08,0-.17,0-.25,0-.77.09-1.55.27-2.32.64-2.75,1.46-5.22,2.21-7.16.43-1.12.83-2.06,1.15-2.78.03-.06.05-.11.08-.17.26-.58.46-.99.58-1.22.06-.13.1-.2.1-.2h23.75s.04.08.11.22c.12.25.35.71.63,1.33.02.05.05.11.08.17.37.83.83,1.92,1.31,3.22.68,1.83,1.41,4.07,1.98,6.53.21.9.29,1.81.26,2.69"/>
  <path class="cls-8" d="M39.86,58.16c-.1-.02-.21-.05-.31-.08-.32-.08-.6-.18-.86-.27-.09-.03-.18-.06-.26-.08-.37-.25-.79-.45-1.28-.6-2.43-.75-4.12-1.36-5.35-1.85-.92-.37-1.59-.67-2.12-.92-.4-.19-.72-.35-1.02-.5-.23-.11-.44-.21-.67-.29-.34-.13-.7-.24-1.14-.33-.44-.09-.95-.16-1.62-.23-.18-.02-.35-.03-.53-.03-.05,0-.1,0-.15,0,.05-.04.09-.09.14-.13.43-.4.83-.83,1.19-1.28.74-.9,1.36-1.88,1.94-2.88.29-.5.53-1.03.74-1.57,0-.02.01-.03.02-.05-.33,1.59-.91,3.39-1.93,4.96-.03.05-.07.11-.11.16,2.83.44,1.98,1.25,10.79,3.98,1.07.33,1.78.92,2.22,1.64.44-.72,1.15-1.31,2.22-1.64,9.06-2.81,7.91-3.59,11.04-4.02-.03-.04-.05-.08-.08-.12-1.02-1.57-1.6-3.38-1.93-4.96,0,.02.01.03.02.05.2.54.45,1.07.74,1.57.58,1,1.2,1.98,1.94,2.88.37.45.77.88,1.19,1.28.05.05.1.09.14.13-.11,0-.22.01-.33.02-.53.05-.96.11-1.33.18-.33.06-.61.12-.87.2-.23.07-.44.14-.64.22-.18.07-.35.15-.53.23-.31.15-.65.32-1.06.51-.62.3-1.42.66-2.6,1.12-1.18.46-2.74,1-4.88,1.67-.49.15-.92.36-1.28.6-.15.04-.3.1-.46.15-.2.07-.42.14-.66.2-.1.03-.21.05-.31.08M28.86,45.28s-.02,0-.02,0l.04-.12s-.01.09-.02.13M50.51,45.28s-.01-.09-.02-.13l.04.12s-.02,0-.02,0"/>
  <path class="cls-11" d="M49.94,61.46l-.16-.37-.15.07c-3.13,1.4-6.48,2.09-9.83,2.09s-6.78-.71-9.94-2.14l-.16.36.25-.31h0l-.04-.03-.05-.02c-1.81-.82-3.28-2.13-4.29-3.71-1.01-1.58-1.58-3.44-1.58-5.36,0-.74.08-1.49.26-2.23.63-2.72,1.45-5.18,2.19-7.11h0c.51-1.33.98-2.42,1.33-3.17.17-.37.31-.67.41-.86.05-.1.09-.17.11-.22.01-.03.02-.04.03-.06,0,0,0-.01,0-.01h0s0,0,0,0h0l-.13-.07.13.07h0l-.13-.07.13.07-.35-.18v.4h23.75v-.4l-.35.18.12-.06-.12.06h0l.12-.06-.12.06s.99,1.91,2.1,4.9h0c.68,1.82,1.4,4.04,1.96,6.48.17.75.26,1.5.26,2.24,0,1.93-.57,3.79-1.59,5.38-1.02,1.59-2.5,2.89-4.33,3.71l.16.37.16.37c1.97-.88,3.57-2.29,4.67-4.01,1.11-1.71,1.72-3.73,1.72-5.81,0-.8-.09-1.62-.28-2.43-.58-2.48-1.31-4.73-1.99-6.58h0c-1.13-3.04-2.14-4.98-2.14-4.99l-.11-.22h-24.24l-.11.22s-.89,1.7-1.92,4.41h0c-.75,1.96-1.58,4.45-2.23,7.21-.19.81-.28,1.62-.28,2.41,0,2.08.61,4.08,1.7,5.79,1.1,1.71,2.68,3.12,4.64,4.01l.16-.36-.25.31h0l.04.03.05.02c3.26,1.47,6.76,2.21,10.27,2.21s6.92-.72,10.16-2.16l.15-.07-.16-.37"/>
  <path class="cls-4" d="M38.95,63.45c1.73.47,3.47.8,3.61,1.07.41.75-4.07,2.63-6.66,1.59l3.05-2.65"/>
  <path class="cls-11" d="M36.97,63.1l.21.34s.07-.04.11-.05c.03,0,.06-.01.1-.01.05,0,.12,0,.21.03.07.02.14.04.23.07.13.05.28.1.45.16.17.06.36.13.57.18.44.12.87.23,1.28.33.31.08.6.15.87.22.2.05.38.1.55.14.12.03.24.07.33.1.07.02.14.05.2.07.04.02.08.03.11.04.05.02.08.04.08.04h0s.07-.1.07-.1l-.09.09s.01.01.02.01l.07-.1-.09.09.19-.18-.23.13s.03.05.04.06l.19-.18-.23.13.16-.09-.18.05s.01.03.02.04l.16-.09-.18.05.18-.05h-.19s0,.03,0,.05l.18-.05h-.19.14l-.14-.03s0,.02,0,.03h.14l-.14-.03.07.02-.07-.03s0,0,0,0l.07.02-.07-.03h.03s-.03,0-.03,0h0s.03.01.03.01h-.03s0,0-.03.03c-.02.02-.04.05-.07.08-.06.06-.15.13-.26.2-.19.13-.45.26-.75.39-.45.2-1,.38-1.59.51-.58.13-1.2.21-1.79.21-.3,0-.6-.02-.87-.07-.28-.05-.54-.11-.78-.21-.13-.05-.23-.1-.31-.16-.06-.04-.1-.08-.14-.11-.05-.05-.08-.09-.1-.13-.02-.04-.02-.07-.02-.12,0-.05.01-.11.03-.18.02-.06.06-.13.1-.2.08-.13.19-.27.32-.4.19-.21.43-.41.65-.58.22-.17.44-.32.59-.41l-.21-.34-.21-.34c-.15.09-.34.22-.55.38-.16.12-.33.25-.49.4-.12.11-.25.23-.36.35-.17.18-.33.38-.45.6-.06.11-.11.22-.15.34-.04.12-.06.25-.06.38s.02.26.07.39c.04.1.09.19.15.27.09.13.21.24.36.34.14.1.31.18.5.26.3.12.62.2.94.26.33.05.66.08,1,.08.61,0,1.23-.08,1.82-.2.44-.09.87-.21,1.26-.35.29-.1.57-.21.82-.33.19-.09.36-.18.51-.27.12-.07.22-.14.32-.21.07-.05.14-.11.2-.17.09-.09.17-.18.24-.28.03-.05.06-.11.08-.18.02-.06.04-.14.04-.21,0-.05,0-.1-.02-.15-.01-.05-.03-.1-.06-.14-.02-.04-.05-.07-.07-.1-.05-.05-.09-.09-.14-.12-.04-.03-.08-.05-.13-.07-.08-.04-.17-.08-.27-.11-.18-.06-.38-.12-.62-.19-.35-.1-.77-.2-1.22-.31-.45-.11-.93-.23-1.41-.36-.33-.09-.6-.2-.86-.3-.13-.05-.26-.09-.39-.13-.13-.03-.27-.06-.42-.06-.11,0-.22.01-.32.04-.11.03-.21.08-.31.14l.21.34"/>
  <path class="cls-4" d="M40.02,61c1.73.46,3.47.78,3.62,1.05.42.74-4.06,2.65-6.65,1.63l3.03-2.67"/>
  <path class="cls-11" d="M38.03,60.67l.22.34s.07-.04.11-.05c.03,0,.06-.01.11-.01.05,0,.13,0,.21.03.07.02.14.04.23.07.13.04.28.1.45.16.17.06.36.12.57.18.44.12.87.22,1.28.32.31.07.6.14.87.21.2.05.39.1.55.14.12.03.24.07.34.1.07.02.14.04.2.07.04.02.08.03.11.04.05.02.08.04.08.04h0s0,0,0,0l.07-.1-.09.09s.01.01.02.01l.07-.1-.09.09.19-.18-.23.13s.03.05.04.06l.19-.18-.23.13.16-.09-.18.05s.01.03.02.04l.16-.09-.18.05.18-.05h-.19s0,.03,0,.05l.18-.05h-.19.14l-.14-.03s0,.02,0,.03h.14l-.14-.03.07.02-.07-.02s0,0,0,0l.07.02-.07-.02h.03s-.03,0-.03,0h0s.03.01.03.01h-.03s0,0,0,0h0s0,0,0,0h0s0,0,0,0c0,0-.01.02-.04.05-.04.05-.11.11-.21.19-.09.06-.19.13-.32.2-.22.12-.48.25-.78.37-.45.18-.97.34-1.52.46-.55.12-1.12.19-1.66.19-.29,0-.58-.02-.85-.06-.27-.04-.53-.11-.76-.2-.13-.05-.23-.1-.31-.15-.06-.04-.1-.07-.14-.11-.05-.05-.08-.09-.1-.13-.02-.04-.02-.07-.02-.12,0-.05,0-.11.03-.18.02-.06.05-.13.1-.2.08-.13.19-.27.31-.41.19-.21.43-.41.65-.58.22-.17.44-.32.58-.41l-.22-.34-.22-.34c-.15.09-.34.22-.55.38-.16.12-.33.25-.49.4-.12.11-.24.23-.36.35-.17.19-.33.38-.45.6-.06.11-.11.22-.15.34-.04.12-.06.25-.06.38,0,.13.02.26.07.39.04.1.09.19.15.27.09.13.21.24.36.34.14.1.31.18.5.26.29.12.61.2.93.25.32.05.65.07.98.07.61,0,1.24-.08,1.83-.2.44-.09.87-.22,1.27-.35.3-.1.57-.22.82-.33.19-.09.36-.18.52-.27.12-.07.22-.14.32-.21.07-.05.14-.11.2-.17.09-.09.17-.18.24-.28.03-.05.06-.11.08-.18.02-.06.04-.14.04-.21,0-.05,0-.1-.02-.15-.01-.05-.03-.1-.06-.15-.02-.04-.05-.07-.07-.1-.05-.05-.09-.09-.14-.11-.04-.03-.09-.05-.13-.07-.08-.04-.17-.07-.27-.11-.18-.06-.38-.12-.62-.18-.35-.09-.77-.19-1.22-.3-.45-.11-.93-.23-1.41-.35-.33-.09-.6-.2-.86-.29-.13-.05-.26-.09-.39-.12-.13-.03-.27-.06-.41-.06-.11,0-.22.01-.33.05-.11.03-.22.08-.32.14l.22.34"/>
  <path class="cls-4" d="M37.45,58.18c.52-.35,1.03.05,2,.29,1.74.42,3.49.7,3.64.96.43.73-4,2.74-6.61,1.78-2.06-.76.21-2.51.97-3.03"/>
  <path class="cls-11" d="M37.45,58.18l.22.33s.08-.04.11-.05c.03,0,.07-.02.11-.02.06,0,.13,0,.22.03.13.03.31.09.51.16.21.07.45.15.73.22.44.11.88.21,1.29.3.31.07.6.13.87.19.2.04.39.09.55.13.12.03.24.06.34.09.07.02.14.04.2.06.04.01.08.03.11.04.05.02.08.03.09.04h0s.07-.1.07-.1l-.09.09s.01.01.02.01l.07-.1-.09.09.18-.19-.22.13s.03.04.04.05l.18-.19-.22.13.16-.1-.18.05s.01.03.02.05l.16-.1-.18.05.18-.05h-.18s0,.03,0,.05l.18-.05h-.18.13l-.13-.03s0,.02,0,.03h.13l-.13-.03h.06s-.06,0-.06,0c0,0,0,0,0,0h.06s-.06,0-.06,0h.01s-.01,0-.01,0h0s.01,0,.01,0h-.01s0,.01-.02.03c-.02.02-.04.05-.07.08-.06.06-.15.14-.27.21-.2.14-.47.29-.78.43-.47.21-1.04.41-1.64.56-.6.15-1.24.24-1.84.24-.27,0-.53-.02-.78-.06-.25-.04-.48-.1-.7-.18-.13-.05-.24-.1-.32-.15-.06-.04-.11-.07-.14-.11-.05-.05-.08-.09-.1-.13,0-.02-.01-.04-.02-.06,0-.02,0-.04,0-.06,0-.05,0-.11.03-.18.02-.06.05-.13.1-.21.07-.13.18-.27.31-.41.19-.21.42-.42.63-.59.22-.18.42-.32.57-.42l-.22-.33-.22-.33c-.14.1-.33.23-.54.39-.15.12-.32.26-.48.41-.12.11-.24.23-.35.36-.17.19-.32.39-.43.6-.06.11-.11.22-.14.34-.04.12-.06.24-.06.37,0,.13.02.27.07.39.04.1.09.19.15.28.1.13.22.24.37.34.15.1.32.18.51.25.27.1.56.17.85.22.29.05.6.07.9.07.62,0,1.26-.08,1.86-.22.45-.1.89-.23,1.29-.38.3-.11.58-.23.84-.35.19-.09.37-.19.53-.29.12-.07.23-.15.33-.22.07-.06.14-.11.21-.17.09-.09.18-.18.24-.29.03-.05.06-.11.08-.18.02-.07.04-.14.04-.22,0-.05,0-.11-.02-.16-.01-.05-.04-.11-.06-.15-.02-.04-.05-.07-.08-.1-.05-.05-.1-.08-.14-.11-.04-.03-.09-.05-.13-.07-.08-.04-.17-.07-.28-.1-.18-.06-.39-.11-.62-.17-.36-.09-.78-.18-1.23-.27-.45-.1-.94-.21-1.42-.32-.32-.08-.6-.18-.86-.27-.13-.04-.26-.08-.39-.12-.13-.03-.26-.05-.41-.05-.11,0-.23.01-.34.05-.11.03-.23.09-.33.16l.22.33"/>
  <path class="cls-2" d="M37.88,65.68c-3.37,2.19-11.89,1.84-15.36-1.62-5.79-5.78-1.62-11.09,2.67-10.66,4.16.41,2.09,1.09,11.84,4.11,4.33,1.34,2.81,6.9.85,8.17"/>
  <path class="cls-2" d="M41.84,65.68c3.37,2.19,11.89,1.84,15.36-1.62,5.79-5.78,1.62-11.09-2.67-10.66-4.16.41-2.09,1.09-11.84,4.11-4.33,1.34-2.81,6.9-.85,8.17"/>
  <path class="cls-2" d="M37.88,65.68c-3.37,2.19-11.89,1.84-15.36-1.62-5.79-5.78-1.62-11.09,2.67-10.66,4.16.41,2.09,1.09,11.84,4.11,4.33,1.34,2.81,6.9.85,8.17"/>
  <path class="cls-2" d="M41.84,65.68c3.37,2.19,11.89,1.84,15.36-1.62,5.79-5.78,1.62-11.09-2.67-10.66-4.16.41-2.09,1.09-11.84,4.11-4.33,1.34-2.81,6.9-.85,8.17"/>
  <path class="cls-2" d="M37.88,65.68c-3.37,2.19-11.88,1.84-15.36-1.62-3.94-3.93-3.27-7.64-1.1-9.48,1.03-.87,2.39-1.32,3.77-1.18,3.41.34,2.63.86,7.61,2.69,1.09.41,2.47.87,4.22,1.42,4.33,1.34,2.81,6.9.85,8.17"/>
  <path class="cls-8" d="M31.8,66.66c-1.69,0-3.46-.24-5.05-.72-.79-.24-1.54-.54-2.21-.9-.67-.36-1.26-.78-1.73-1.26-.99-.99-1.67-1.96-2.11-2.87-.43-.91-.62-1.77-.62-2.55,0-.2.01-.4.04-.59.43,1.11,1.21,2.29,2.41,3.49,2.04,2.04,5.82,3,9.28,3,1.91,0,3.72-.29,5.08-.86.2.1.43.2.67.3.08.03.17.07.26.1-.08.02-.15.04-.22.07-.08.03-.16.05-.23.08-.05.02-.11.04-.15.06-.07.03-.14.06-.21.11-.03.02-.07.05-.1.08-.03.03-.07.07-.1.13-.03.04-.04.09-.06.14-.01.05-.02.1-.02.15,0,.05,0,.11.02.15.02.09.06.17.11.24.04.07.09.13.15.18.1.11.22.2.36.3,0,0,.02.01.03.02-.25.14-.53.27-.84.39-.64.24-1.38.43-2.18.56-.8.13-1.67.19-2.56.19h0"/>
  <path class="cls-11" d="M37.88,65.68l-.22-.34c-.32.21-.7.4-1.12.56-.64.24-1.38.43-2.18.56-.8.13-1.67.19-2.56.19-1.69,0-3.47-.24-5.06-.72-.79-.24-1.54-.54-2.21-.9-.67-.36-1.26-.78-1.73-1.26-.99-.99-1.67-1.96-2.11-2.87-.43-.91-.62-1.77-.62-2.55,0-.68.14-1.3.38-1.85.18-.42.43-.79.72-1.13.44-.5.98-.9,1.58-1.18.6-.28,1.26-.43,1.94-.43.15,0,.3,0,.45.02.51.05.93.11,1.27.17.3.05.56.11.79.18.2.06.38.12.56.2.16.06.32.14.49.22.3.14.63.31,1.05.51.63.3,1.46.68,2.66,1.14,1.2.46,2.78,1.02,4.93,1.68.47.15.86.35,1.18.58.24.18.44.37.61.59.25.32.43.68.55,1.07.12.39.17.8.17,1.23s-.05.84-.15,1.25c-.14.62-.38,1.2-.67,1.68-.14.24-.3.45-.46.63-.16.18-.32.32-.48.42l.22.34.22.34c.31-.2.58-.47.83-.79.38-.49.69-1.09.92-1.75.23-.66.36-1.39.36-2.11,0-.44-.05-.87-.16-1.3-.08-.32-.2-.63-.36-.92-.24-.44-.56-.85-.99-1.19-.42-.34-.94-.62-1.56-.81-2.43-.75-4.12-1.36-5.35-1.85-.92-.37-1.59-.67-2.12-.92-.4-.19-.72-.35-1.02-.5-.23-.11-.44-.21-.67-.29-.34-.13-.7-.24-1.14-.33-.44-.09-.95-.16-1.62-.23-.18-.02-.35-.03-.53-.03-.7,0-1.39.14-2.03.4-.96.39-1.81,1.04-2.41,1.9-.3.43-.55.91-.72,1.43-.17.52-.26,1.08-.26,1.67,0,.91.22,1.88.7,2.89.48,1.01,1.22,2.05,2.26,3.09.54.54,1.19,1,1.92,1.4,1.09.59,2.34,1.01,3.64,1.3,1.31.28,2.68.42,4,.42,1.24,0,2.44-.12,3.51-.36.54-.12,1.05-.27,1.51-.45.47-.18.89-.39,1.27-.63l-.22-.34"/>
  <path class="cls-4" d="M40.76,63.45c-1.73.47-3.47.8-3.61,1.07-.41.75,4.07,2.63,6.66,1.59l-3.05-2.65"/>
  <path class="cls-11" d="M42.75,63.1l.21-.34c-.1-.06-.21-.11-.31-.14-.11-.03-.22-.04-.32-.04-.15,0-.28.02-.42.06-.1.03-.2.06-.29.09-.15.05-.29.11-.45.17-.16.06-.33.11-.51.17-.43.12-.86.23-1.26.33-.31.08-.6.15-.87.22-.2.05-.39.1-.57.15-.13.04-.25.07-.36.11-.08.03-.16.05-.23.08-.05.02-.11.04-.15.06-.07.03-.14.06-.21.11-.03.02-.07.05-.1.08-.03.03-.07.07-.1.13-.03.04-.04.09-.06.14-.01.05-.02.1-.02.15,0,.05,0,.11.02.15.02.09.06.17.11.24.04.07.09.13.15.18.1.11.22.2.36.3.12.08.25.17.4.25.26.14.55.27.87.4.48.19,1.03.35,1.61.47.58.12,1.18.19,1.78.19.34,0,.68-.02,1-.08.33-.05.64-.14.95-.26.17-.07.32-.14.45-.23.1-.06.19-.13.26-.21.12-.11.21-.24.27-.39.06-.14.09-.29.09-.43,0-.16-.03-.31-.08-.44-.04-.12-.1-.24-.17-.35-.12-.19-.26-.37-.42-.54-.24-.25-.5-.48-.75-.67-.25-.19-.48-.35-.65-.45l-.21.34-.21.34c.13.08.31.2.5.34.14.11.3.23.44.36.11.1.21.2.31.3.14.15.26.31.34.44.04.07.07.13.08.19.02.06.02.1.02.14,0,.04,0,.07-.02.1,0,.03-.02.05-.04.08-.03.04-.08.1-.17.15-.08.06-.19.12-.34.17-.24.1-.5.16-.78.21-.28.05-.57.07-.87.07-.54,0-1.11-.07-1.66-.18-.41-.09-.8-.2-1.16-.32-.27-.09-.52-.19-.74-.3-.17-.08-.32-.16-.44-.23-.1-.06-.18-.11-.25-.17-.05-.04-.1-.08-.14-.11-.05-.05-.09-.09-.1-.11,0,0,0,0,0,0h0s-.03.01-.03.01h.03s0-.01,0-.01h-.03s.03,0,.03,0l-.12.04h.13s0-.03,0-.04l-.12.04h.13-.19l.18.05s0-.03,0-.05h-.19l.18.05-.18-.05.16.09s.01-.03.02-.04l-.18-.05.16.09-.23-.13.2.18s.02-.03.04-.05l-.23-.13.2.18-.12-.11.1.13s0,0,.02-.02l-.12-.11.1.13-.04-.05.04.05h0s-.04-.05-.04-.05l.04.05h-.01s0,0,0,0h0s-.01-.01-.01-.01h0s.01,0,.03,0c.04-.02.1-.05.18-.07.14-.05.33-.11.56-.17.34-.09.76-.2,1.21-.31.46-.11.95-.24,1.45-.37.38-.1.69-.23.93-.32.12-.04.23-.08.32-.1.09-.02.16-.03.21-.03.04,0,.07,0,.1.01.03,0,.07.02.11.05l.21-.34"/>
  <path class="cls-4" d="M39.7,61c-1.73.46-3.47.78-3.62,1.05-.42.74,4.06,2.65,6.65,1.63l-3.03-2.67"/>
  <path class="cls-11" d="M41.69,60.67l.22-.34c-.1-.06-.21-.11-.32-.14-.11-.03-.22-.05-.33-.05-.15,0-.28.02-.41.06-.1.03-.19.06-.29.09-.15.05-.29.11-.45.16-.16.06-.33.11-.51.16-.43.11-.86.22-1.27.32-.31.07-.6.14-.87.21-.2.05-.39.1-.57.15-.13.04-.25.07-.36.1-.08.03-.16.05-.23.08-.05.02-.11.04-.15.06-.07.03-.14.06-.21.11-.03.02-.07.05-.1.08-.03.03-.07.07-.1.13-.03.05-.05.1-.06.15-.01.05-.02.1-.02.15,0,.05,0,.11.02.15.02.09.06.17.11.25.04.07.09.13.15.19.1.11.22.21.36.3.12.08.25.17.4.25.26.14.55.28.88.4.49.19,1.04.36,1.62.48s1.19.2,1.79.2c.33,0,.66-.02.98-.07.32-.05.63-.13.93-.25.17-.07.32-.14.45-.23.1-.06.19-.13.27-.21.12-.11.21-.24.27-.39.06-.14.09-.29.09-.44,0-.16-.03-.3-.08-.44-.04-.12-.1-.24-.17-.35-.12-.19-.26-.37-.42-.54-.23-.25-.5-.48-.74-.67-.25-.19-.48-.35-.64-.45l-.22.34-.22.34c.13.08.31.2.5.35.14.11.29.23.44.36.11.1.21.2.31.3.14.15.26.31.33.44.04.07.07.13.08.19.02.06.02.1.02.14,0,.04,0,.07-.02.11,0,.03-.02.05-.05.08-.03.04-.08.1-.17.15-.08.06-.19.12-.34.17-.23.09-.49.16-.76.2-.27.04-.56.06-.85.06-.54,0-1.12-.07-1.66-.19-.41-.09-.81-.2-1.17-.33-.27-.09-.52-.2-.75-.3-.17-.08-.32-.16-.45-.24-.1-.06-.18-.11-.25-.17-.05-.04-.1-.08-.14-.11-.06-.05-.09-.09-.1-.12,0,0,0,0,0-.01h0s0,0,0,0h0s0,0,0,0h0s-.11.04-.11.04h.11s0-.04,0-.04l-.11.04h.11-.19l.18.05s0-.03,0-.05h-.19l.18.05-.18-.05.16.09s.01-.03.02-.04l-.18-.05.16.09-.23-.13.2.18s.02-.03.04-.05l-.23-.13.2.18-.12-.11.1.13s0,0,.02-.02l-.12-.11.1.13-.04-.05.04.05h0s-.04-.05-.04-.05l.04.05h0s0,0,0,0h0s0-.01,0-.01h0s.01,0,.03,0c.04-.02.1-.04.18-.07.14-.05.33-.11.56-.17.34-.09.76-.19,1.22-.3.46-.11.95-.23,1.45-.36.38-.1.68-.22.93-.31.12-.04.23-.08.32-.1.09-.02.16-.03.21-.03.04,0,.07,0,.11.01.03,0,.07.02.11.05l.22-.34"/>
  <path class="cls-4" d="M42.27,58.18c-.52-.35-1.03.05-2,.29-1.74.42-3.49.7-3.64.96-.43.73,4,2.74,6.61,1.78,2.06-.76-.21-2.51-.97-3.03"/>
  <path class="cls-11" d="M42.27,58.18l.22-.33c-.1-.07-.21-.12-.33-.16-.11-.03-.23-.05-.34-.05-.14,0-.28.02-.41.05-.19.05-.38.11-.58.18-.2.07-.42.14-.66.2-.43.1-.86.2-1.27.29-.31.07-.6.13-.87.19-.2.05-.4.09-.57.13-.13.03-.25.06-.36.1-.08.02-.16.05-.23.07-.05.02-.11.04-.15.06-.07.03-.14.06-.21.1-.03.02-.07.05-.1.08-.04.03-.07.07-.11.13-.03.05-.05.1-.06.15-.01.05-.02.11-.02.16s0,.11.02.16c.02.09.06.18.11.25.04.07.09.13.15.19.1.11.22.21.37.32.12.09.26.18.41.26.26.15.57.29.9.43.5.2,1.06.38,1.66.51.59.13,1.21.21,1.82.21.3,0,.61-.02.9-.07.29-.05.58-.12.85-.22.17-.06.33-.14.46-.22.1-.06.19-.13.27-.21.12-.11.22-.25.28-.39.06-.14.09-.3.09-.44,0-.15-.03-.3-.08-.44-.04-.12-.1-.24-.16-.35-.11-.19-.25-.37-.4-.54-.23-.25-.48-.48-.72-.68-.24-.2-.46-.36-.63-.47l-.22.33-.22.33c.13.09.3.21.49.35.14.11.29.23.43.37.11.1.21.2.3.3.14.15.25.31.33.45.04.07.06.13.08.19.02.06.02.11.02.15,0,.04,0,.07-.02.11,0,.03-.02.05-.05.08-.03.04-.09.1-.17.15-.08.06-.2.11-.35.17-.22.08-.45.14-.7.18-.25.04-.51.06-.78.06-.55,0-1.13-.08-1.69-.2-.42-.09-.82-.21-1.19-.35-.28-.1-.54-.21-.76-.32-.17-.08-.33-.17-.46-.25-.1-.06-.19-.12-.26-.18-.06-.04-.1-.08-.14-.12-.06-.05-.09-.1-.11-.13,0,0,0-.01,0-.01h0s0,0,0,0l-.1.04h.1s0-.04,0-.04l-.1.04h.1-.18l.18.05s0-.03,0-.05h-.18l.18.05-.18-.05.16.1s.02-.03.02-.05l-.18-.05.16.1-.23-.14.19.19s.02-.03.04-.05l-.23-.14.19.19-.12-.11.1.13s0,0,.02-.02l-.12-.11.1.13-.04-.05.04.05h0s-.04-.05-.04-.05l.04.05h0s0,0,0,0h0s0-.01,0-.01h0s.01,0,.03,0c.04-.02.1-.04.18-.07.14-.05.33-.1.56-.15.34-.08.76-.17,1.22-.27.46-.1.96-.21,1.46-.33.37-.09.68-.2.92-.29.12-.04.23-.07.32-.1.09-.02.16-.03.22-.03.04,0,.08,0,.11.02.03.01.07.03.11.05l.22-.33"/>
  <path class="cls-2" d="M41.84,65.68c3.37,2.19,11.89,1.84,15.36-1.62,5.79-5.78,1.62-11.09-2.67-10.66-4.16.41-2.09,1.09-11.84,4.11-4.33,1.34-2.81,6.9-.85,8.17"/>
  <path class="cls-8" d="M47.92,66.66h0c-1.19,0-2.33-.12-3.34-.34-.5-.11-.97-.25-1.4-.41-.42-.16-.8-.35-1.12-.56l-.22.34h0l.22-.34c-.21-.14-.43-.35-.64-.61-.31-.4-.6-.93-.8-1.52-.2-.59-.32-1.23-.32-1.86,0-.21.01-.41.04-.61.36.92.91,1.69,1.5,2.07,1.39.9,3.65,1.38,6.07,1.38,3.46,0,7.24-.96,9.28-3,1.2-1.19,1.97-2.37,2.4-3.47.03.21.04.42.04.64,0,.78-.19,1.64-.62,2.55-.43.91-1.12,1.88-2.11,2.87-.48.48-1.06.9-1.73,1.26-1,.54-2.18.95-3.43,1.22-1.25.27-2.56.4-3.83.4"/>
  <path class="cls-11" d="M41.84,65.68l-.22.34c.38.24.8.45,1.27.63.7.27,1.49.47,2.34.6.85.13,1.75.2,2.68.2,1.77,0,3.61-.24,5.29-.75.84-.25,1.64-.57,2.36-.97s1.37-.85,1.92-1.4c1.05-1.04,1.79-2.08,2.26-3.09.48-1.01.7-1.98.7-2.89,0-.79-.16-1.52-.45-2.18-.22-.49-.51-.94-.85-1.33-.51-.59-1.15-1.06-1.85-1.38-.7-.32-1.48-.5-2.27-.5-.17,0-.35,0-.53.03-.53.05-.96.11-1.33.18-.33.06-.61.12-.87.2-.23.07-.44.14-.64.22-.18.07-.35.15-.53.23-.31.15-.65.32-1.06.51-.62.3-1.42.66-2.6,1.12-1.18.46-2.74,1-4.88,1.67-.55.17-1.02.41-1.42.7-.3.22-.55.47-.76.74-.32.41-.54.86-.68,1.33-.14.47-.2.97-.2,1.46,0,.48.06.97.17,1.43.16.7.43,1.35.76,1.91.17.28.35.53.55.76.2.22.41.41.64.56l.22-.34.22-.34c-.21-.14-.43-.35-.64-.61-.31-.4-.6-.93-.8-1.52-.2-.59-.32-1.23-.32-1.86,0-.38.04-.75.13-1.1.07-.26.16-.51.29-.75.19-.35.44-.67.78-.95.34-.27.76-.5,1.3-.67,2.44-.76,4.15-1.37,5.4-1.87.94-.37,1.62-.69,2.17-.95.41-.19.73-.36,1.02-.5.22-.1.42-.19.62-.27.3-.12.61-.21,1.01-.29.4-.08.89-.15,1.54-.22.15-.01.3-.02.45-.02.6,0,1.19.12,1.73.34.82.33,1.54.89,2.06,1.62.26.36.47.77.61,1.21.14.44.22.92.22,1.42,0,.78-.19,1.64-.62,2.55-.43.91-1.12,1.88-2.11,2.87-.48.48-1.06.9-1.73,1.26-1,.54-2.18.95-3.43,1.22-1.25.27-2.56.4-3.83.4-1.19,0-2.33-.12-3.34-.34-.5-.11-.97-.25-1.4-.41-.42-.16-.8-.35-1.12-.56l-.22.34"/>
  <path class="cls-2" d="M31.51,36.76l-.45,1.43-.86,2.73-1.4,4.44s-1.55,5.02-5.15,7.85c-1.17.92-2.55,1.6-4.16,1.81-10.93,1.42-7.34-6.78-7.34-6.78,0,0,5.36-.7,7.16-1.32,2.45-.84,3.54-4.62,7.14-7.53.43-.35.9-.69,1.41-1,.11-.07.22-.13.33-.2.95-.56,2.04-1.05,3.32-1.43"/>
  <path class="cls-8" d="M16.83,54.79c-.07,0-.14,0-.2-.01-.27-.02-.55-.02-.81-.07-.13-.02-.27-.03-.4-.05l-.39-.08s-.1-.02-.14-.04c.31-.06.52-.19.69-.37,1.06-1.07.29-2.95-.71-3,.05-.24.05-.47,0-.67,0,0,0,0,0,0,0,0,0,0,0,0-.04-.17-.12-.31-.24-.41,0,0,0,0,0,0-.03-.03-.06-.05-.09-.08,0,0,0,0,0,0-.55-.52-.8-1.07-.93-1.56.17-.02.34-.05.51-.08.52.23.94.53,1.24.79.06.05.12.1.17.15.11.1.26.16.4.16.15,0,.31-.06.42-.18,0,0,.02-.02.03-.03.18-.18.38-.38.53-.5.3-.23.56-.41.78-.54.19-.12.29-.32.29-.52.03,0,.06-.01.08-.02.15-.03.3-.07.45-.1.28,1.33-1.8,1.97-1.8,3.21,0,1.34.62,1.82,1.76,2.06.47.1.94.15,1.42.15,1.53,0,3.04-.52,4.27-1.47.01,0,.02-.02.03-.03,1.01-.79,1.81-1.61,2.44-2.37-.4.68-.86,1.33-1.35,1.93-.35.43-.72.83-1.12,1.21-.4.38-.82.72-1.27,1.03-.45.31-.92.57-1.42.78-.49.22-1.01.37-1.54.48l-.4.07c-.13.02-.27.03-.41.05l-.41.04-.21.02h-.21s-.41.04-.41.04c-.12,0-.24.02-.37.02-.02,0-.03,0-.05,0h-.41s-.21,0-.21,0"/>
  <path class="cls-11" d="M31.55,36.89c-.87.47-1.73.87-2.57,1.34-.83.47-1.62.99-2.36,1.58-.19.14-.36.31-.55.46-.17.16-.35.32-.52.49-.34.33-.66.69-.97,1.05-.62.73-1.19,1.52-1.76,2.31-.29.4-.58.8-.9,1.19-.31.39-.65.78-1.04,1.12-.39.35-.85.66-1.37.84-.5.17-.98.28-1.47.39-1.94.41-3.88.7-5.83.97l.31-.24c-.05.11-.09.24-.14.37-.04.13-.08.26-.12.39-.07.26-.13.52-.18.79-.09.53-.13,1.06-.07,1.58.06.52.2,1.01.46,1.44.26.43.63.78,1.07,1.04.44.27.94.44,1.46.56l.39.08c.13.02.27.04.4.05.27.04.54.05.81.07.07,0,.14,0,.2.01h.21s.41,0,.41,0c.14,0,.28,0,.41-.02l.41-.02h.21s.21-.03.21-.03l.41-.04c.14-.02.28-.03.41-.05l.4-.07c.52-.11,1.05-.26,1.54-.48.49-.21.97-.47,1.42-.78.45-.31.88-.65,1.27-1.03.4-.38.77-.78,1.12-1.21.7-.85,1.31-1.78,1.81-2.78l.76-1.49c.13-.25.26-.49.4-.74.14-.24.28-.49.45-.73h0c.04-.07.13-.08.19-.04.04.03.06.07.06.12,0,.3-.06.59-.13.87-.07.28-.15.56-.25.83-.2.54-.45,1.07-.74,1.57-.58,1-1.2,1.98-1.94,2.88-.37.45-.77.88-1.19,1.28-.42.4-.88.77-1.37,1.11-.97.67-2.08,1.16-3.25,1.38l-.44.08c-.15.03-.29.03-.43.05l-.43.05-.22.02h-.22s-.43.04-.43.04c-.14,0-.29.02-.44.02h-.44s-.22,0-.22,0c-.07,0-.15,0-.22-.01-.29-.02-.59-.03-.88-.07-.15-.02-.29-.04-.44-.06l-.44-.09c-.58-.14-1.16-.33-1.7-.66-.53-.32-1.01-.77-1.34-1.31-.33-.55-.51-1.16-.57-1.77-.07-.61-.03-1.22.07-1.8.05-.29.12-.58.2-.87.04-.14.08-.28.13-.43.05-.14.1-.28.16-.43l.09-.21.23-.03c1.93-.26,3.87-.55,5.76-.95.47-.11.94-.21,1.37-.36.4-.15.77-.39,1.11-.69.34-.3.65-.65.95-1.03.3-.37.59-.76.87-1.16.57-.79,1.16-1.59,1.8-2.36.65-.76,1.34-1.49,2.11-2.14.77-.65,1.61-1.22,2.52-1.66.9-.45,1.87-.76,2.87-.87.07,0,.14.05.15.12,0,.06-.02.11-.07.13h0"/>
  <path class="cls-4" d="M16.33,49.28c-.22.23-.59.24-.83.02-.56-.51-1.66-1.31-3.16-1.33-1.19-.02.86-1.97,2.74-1.82,1.25.1,2.13.65,2.67,1.1.31.26.27.75-.08.96-.22.13-.48.31-.78.54-.16.13-.38.33-.56.53"/>
  <path class="cls-5" d="M15.91,49.46c-.14,0-.29-.05-.4-.16-.05-.05-.11-.1-.17-.15.06.05.11.1.17.15.11.1.26.16.4.16.15,0,.31-.06.42-.18,0,0,.02-.02.03-.03,0,0-.02.02-.03.03-.12.12-.27.18-.42.18"/>
  <path class="cls-12" d="M12.14,47.42c.12-.17.32-.35.57-.53h0c-.25.18-.45.36-.57.53,0,0,0,0,0,0"/>
  <path class="cls-11" d="M17.91,47.49c-.03-.08-.09-.16-.17-.23,0,0-.01-.01-.02-.02,0,0,.02.01.02.02.08.07.13.14.17.23"/>
  <path class="cls-9" d="M15.91,49.46c-.14,0-.29-.05-.4-.16-.05-.05-.11-.1-.17-.15-.41-.35-1.03-.76-1.81-1-.1-.55-.07-.99-.19-1.19,1.11.22,1.93.83,2.39,1.25.11.1.26.16.4.16.15,0,.31-.06.42-.18.19-.19.4-.4.56-.53.22-.17.43-.32.61-.43,0,0,0,0,0,0,0,0,.02.01.02.02.08.06.13.14.17.23.1.26.01.57-.25.73-.22.13-.48.31-.78.54-.16.12-.36.32-.53.5,0,0-.02.02-.03.03-.12.12-.27.18-.42.18M12.14,47.42c.13-.17.32-.35.57-.53.06,0,.12,0,.18.01-.22.08-.49.25-.75.51"/>
  <path class="cls-11" d="M16.29,49.32l-.29-.28s-.03.02-.04.03c-.02,0-.03.01-.05.01-.02,0-.03,0-.05,0-.01,0-.03-.01-.04-.02-.29-.27-.74-.63-1.32-.93-.29-.15-.62-.28-.98-.38-.36-.1-.75-.16-1.17-.17-.04,0-.06,0-.07,0h0s0,0,0,0l-.03.09.05-.08s-.02-.01-.02-.01l-.03.09.05-.08-.1.16.14-.13s-.03-.02-.03-.03l-.1.16.14-.13-.16.15.21-.08s-.03-.06-.05-.08l-.16.15.21-.08-.18.07h.2s0-.04-.01-.07l-.18.07h.2-.12l.12.02s0-.01,0-.02h-.12l.12.02h-.04s.04,0,.04,0h0s-.04-.01-.04-.01h.04s0,.01,0,.01h0s0,0,0,0h0s0-.01.01-.03c.02-.03.05-.08.1-.14.09-.1.22-.23.38-.35.25-.18.57-.36.91-.5.17-.07.35-.12.53-.16.18-.04.36-.06.54-.06.06,0,.12,0,.18,0h0c.6.05,1.11.21,1.53.41.42.2.75.44.99.65.02.01.02.03.03.04,0,.01.01.03.01.05,0,.02,0,.05-.02.06-.01.02-.03.04-.05.05-.25.14-.55.34-.89.61-.05.04-.11.09-.16.13-.08.07-.16.15-.25.23-.08.08-.16.16-.24.24l.29.28.29.28c.09-.1.2-.2.29-.3.05-.05.1-.09.14-.13.04-.04.09-.07.12-.1.32-.25.59-.42.81-.55.15-.09.27-.21.34-.35.08-.14.12-.3.12-.45,0-.12-.03-.25-.08-.37-.05-.12-.13-.23-.23-.32-.28-.25-.67-.54-1.17-.78-.5-.24-1.1-.43-1.81-.49h0c-.08,0-.17-.01-.25-.01-.41,0-.81.08-1.18.2-.28.09-.54.21-.78.34-.18.1-.34.2-.49.31-.11.08-.22.17-.31.25-.07.06-.13.13-.19.2-.09.1-.16.2-.22.31-.03.06-.05.11-.07.18-.02.06-.03.13-.03.21,0,.04,0,.09.02.14,0,.04.02.08.04.12.03.07.08.13.14.18.04.04.09.07.13.09.07.04.14.06.21.07.07.01.14.02.21.02.35,0,.67.06.97.14.45.12.85.31,1.18.52.33.21.6.43.79.6.09.08.19.15.3.19.11.04.22.06.33.06.12,0,.24-.02.36-.07.11-.05.22-.12.31-.21l-.29-.28h0Z"/>
  <path class="cls-4" d="M13.89,52.72s-1.8.51-2.46-1.62c-.9-2.93,1.31-4.39,1.79-4.23.48.16-.19,1.82,1.39,3.22.58.52.23,1.87-.72,2.63"/>
  <path class="cls-5" d="M14.86,51.17h0c.05-.24.05-.47,0-.67.05.2.05.43,0,.67M14.85,50.5s0,0,0,0c0,0,0,0,0,0M14.6,50.08s-.06-.05-.09-.08c0,0,0,0,0,0,.03.03.06.05.09.08"/>
  <path class="cls-9" d="M12.4,51.47c-.17,0-.34,0-.54-.01-.11,0-.21-.01-.31-.02-.04-.1-.09-.22-.12-.34-.28-.91-.26-1.68-.08-2.3.02.1.05.2.08.31.45,1.44,1.41,1.68,2,1.68.28,0,.47-.05.47-.05.26-.21.47-.45.63-.72.03.03.06.05.09.08,0,0,0,0,0,0,.12.11.2.25.24.42,0,0,0,0,0,0,0,0,0,0,0,0,.05.2.05.43,0,.67-.01,0-.03,0-.04,0-.42,0-.88.3-2.41.3"/>
  <path class="cls-11" d="M13.89,52.72l-.11-.38.06.21-.06-.21h0s.06.21.06.21l-.06-.21h0s-.15.04-.36.04c-.12,0-.26-.01-.4-.05-.11-.03-.22-.07-.33-.12-.16-.09-.33-.21-.48-.4-.15-.19-.3-.46-.41-.82-.14-.45-.2-.86-.2-1.22,0-.43.08-.8.2-1.11.09-.24.21-.45.34-.62.1-.13.2-.25.31-.35.16-.15.31-.26.44-.33.06-.03.12-.06.16-.07.02,0,.04-.01.05-.01,0,0,.01,0,.01,0h0s0,0,0,0h0s0,0,0,0h0,0s0,0,0,0v-.14l-.04.13s.04,0,.04,0v-.14l-.04.13h0s0,0,0,0l.06-.19-.1.17s.03.01.04.02l.06-.19-.1.17.1-.17-.14.14s.02.02.03.03l.1-.17-.14.14.09-.09-.11.06s0,.02.03.03l.09-.09-.11.06h.01s-.01,0-.01,0h0s.01,0,.01,0h-.01s0,.02,0,.03c0,.03.02.1.03.18,0,.07.02.15.02.25.02.16.03.36.07.57.06.32.15.69.34,1.07.19.38.47.77.88,1.13.02.02.04.04.06.07.03.04.05.09.06.15.02.06.03.14.03.22,0,.11-.02.24-.05.38-.05.21-.15.43-.29.64-.14.21-.31.41-.51.57l.25.31-.11-.38.11.38.25.31c.37-.29.65-.66.85-1.04.1-.19.17-.39.23-.58.05-.2.08-.39.08-.59s-.03-.38-.09-.56c-.03-.09-.08-.18-.13-.26-.05-.08-.12-.16-.19-.22-.18-.16-.32-.32-.44-.47-.21-.28-.33-.55-.42-.81-.06-.2-.1-.39-.13-.58-.02-.14-.03-.27-.04-.4,0-.09-.02-.19-.03-.27,0-.07-.02-.13-.03-.2-.01-.05-.02-.1-.04-.15-.01-.04-.03-.08-.05-.12-.03-.06-.08-.12-.14-.18-.03-.03-.06-.05-.1-.08-.04-.02-.08-.04-.12-.05h0s0,0,0,0c-.07-.02-.14-.03-.21-.03s-.12,0-.18.02c-.11.02-.22.06-.33.11-.19.09-.4.22-.6.4-.15.13-.3.29-.44.47-.21.27-.4.6-.54.99-.14.38-.22.82-.22,1.31,0,.45.07.94.23,1.46.12.4.28.72.48.99.14.2.3.36.47.49.25.2.51.32.76.39.25.07.48.09.67.09.33,0,.55-.06.58-.07l.08-.02.06-.05-.25-.31h0Z"/>
  <path class="cls-4" d="M15.56,54.17c-.36.36-.88.53-2.17.3-2.63-.48-4.6-2.31-3.96-2.98.43-.46,1.31-.08,2.43-.03,1.97.08,2.49-.29,2.95-.29,1.02,0,1.83,1.91.75,3"/>
  <polyline class="cls-11" points="12.89 54.36 12.88 54.36 12.89 54.36"/>
  <path class="cls-12" d="M12.55,54.27c-1.42-.43-2.54-1.21-3.01-1.88.47.66,1.59,1.45,3.01,1.88,0,0,0,0,0,0"/>
  <path class="cls-11" d="M12.88,54.36c-.11-.03-.22-.06-.33-.09,0,0,0,0,0,0,.11.03.22.06.33.09"/>
  <path class="cls-9" d="M14.4,54.58c-.27,0-.6-.03-1.01-.11-.17-.03-.34-.07-.51-.11,0,0,0,0,0,0,0,0,0,0,0,0-.11-.03-.22-.06-.33-.09-1.42-.43-2.54-1.21-3.01-1.88-.23-.33-.3-.64-.15-.85.7.7,2.01,1.44,3.55,1.72.41.07.73.11,1.01.11.59,0,.91-.16,1.16-.41.39-.39.53-.89.51-1.37.53.63.71,1.8-.05,2.57-.25.25-.57.41-1.16.41"/>
  <path class="cls-11" d="M15.56,54.17l-.28-.28s-.09.09-.14.12c-.07.05-.16.09-.27.12-.12.03-.27.05-.46.05-.24,0-.55-.03-.93-.1-.54-.1-1.06-.26-1.52-.45-.35-.15-.67-.31-.95-.49-.21-.13-.4-.27-.57-.4-.12-.1-.23-.2-.33-.3-.14-.15-.24-.28-.31-.4-.03-.06-.05-.11-.06-.15-.01-.04-.02-.07-.02-.09,0-.02,0-.02,0-.03,0,0,0,0,0-.01h0s.03-.03.05-.04c.03-.02.06-.03.11-.04.05-.01.12-.02.2-.02.09,0,.2,0,.33.02.19.02.41.06.65.09.24.03.51.06.79.08.2,0,.38.01.55.01.4,0,.73-.02,1.01-.05.21-.02.39-.05.55-.08.24-.04.42-.09.56-.12.07-.02.13-.03.18-.04.05,0,.09-.01.12-.01.04,0,.09,0,.13.02.04.01.08.03.12.05.07.04.15.11.22.19.11.12.21.29.28.47.07.19.11.39.11.6,0,.18-.03.36-.09.52-.06.17-.16.32-.3.46l.28.28.28.28c.22-.22.38-.48.48-.74.1-.27.15-.54.15-.81,0-.27-.04-.52-.12-.77-.06-.18-.14-.35-.23-.51-.07-.12-.15-.23-.24-.33-.14-.15-.29-.28-.47-.37-.09-.05-.19-.08-.29-.11-.1-.03-.2-.04-.31-.04-.08,0-.15,0-.22.02-.12.02-.24.05-.36.08-.19.04-.4.09-.69.13-.29.04-.66.07-1.15.07-.16,0-.33,0-.52-.01-.33-.01-.64-.06-.94-.1-.15-.02-.29-.04-.44-.06-.14-.02-.28-.03-.42-.03-.08,0-.16,0-.24.01-.12.02-.25.05-.37.1-.12.05-.23.13-.33.24h0c-.07.08-.13.17-.17.28-.04.1-.06.21-.06.31,0,.09.01.17.03.26.04.15.11.3.19.44.08.12.17.25.27.37.18.21.41.42.68.62.4.3.88.59,1.43.83.55.24,1.16.44,1.81.55.42.08.77.11,1.08.11.17,0,.32-.01.46-.03.11-.02.21-.04.3-.07.14-.05.27-.11.38-.18.11-.07.21-.16.3-.24l-.28-.28h0Z"/>
  <path class="cls-2" d="M47.86,36.76l.45,1.43.86,2.73,1.4,4.44s1.55,5.02,5.15,7.85c1.17.92,2.55,1.6,4.16,1.81,10.93,1.42,7.34-6.78,7.34-6.78,0,0-5.36-.7-7.16-1.32-2.45-.84-3.54-4.62-7.14-7.53-.43-.35-.9-.69-1.41-1-.11-.07-.22-.13-.33-.2-.95-.56-2.04-1.05-3.32-1.43"/>
  <path class="cls-8" d="M62.54,54.79h-.21s-.41,0-.41,0c-.02,0-.03,0-.05,0-.12,0-.24,0-.37-.02l-.41-.02h-.21s-.21-.03-.21-.03l-.41-.04c-.14-.02-.28-.03-.41-.05l-.4-.07c-.52-.11-1.05-.26-1.54-.48-.49-.21-.97-.47-1.42-.78-.45-.31-.88-.65-1.27-1.03-.4-.38-.77-.78-1.12-1.21-.5-.61-.95-1.25-1.35-1.93.63.77,1.44,1.58,2.44,2.37.01,0,.02.02.03.03,1.23.96,2.74,1.47,4.27,1.47.47,0,.95-.05,1.42-.15,1.14-.24,1.76-.72,1.76-2.06,0-1.25-2.08-1.88-1.8-3.21.15.04.3.07.45.1.03,0,.06.01.08.02,0,.2.1.41.29.52.22.13.48.31.78.54.15.12.34.3.51.47.02.02.03.03.05.05.12.12.27.18.42.18.14,0,.29-.05.4-.16.06-.06.13-.11.2-.18.3-.25.71-.53,1.2-.76.17.03.34.05.51.08-.13.49-.38,1.04-.93,1.56,0,0,0,0,0,0-.03.03-.06.05-.08.08,0,0,0,0,0,0-.14.12-.22.29-.26.48h0s0,0,0,0c-.03.18-.03.38.01.6-1,.05-1.77,1.93-.71,3,.17.17.38.3.69.37-.05.01-.1.02-.14.04l-.39.08c-.13.02-.27.04-.4.05-.27.04-.54.05-.81.07-.07,0-.14,0-.2.01"/>
  <path class="cls-11" d="M47.9,36.64c1,.1,1.97.42,2.87.87.91.44,1.75,1.01,2.52,1.66.77.65,1.47,1.38,2.11,2.14.64.76,1.23,1.57,1.8,2.36.29.4.57.79.87,1.16.3.37.61.72.95,1.03.34.3.71.54,1.11.69.42.15.9.26,1.37.36,1.89.4,3.83.69,5.76.95l.23.03.09.21c.07.15.11.29.16.43.05.14.09.28.13.43.08.29.15.58.2.87.1.59.14,1.19.07,1.8-.07.61-.24,1.22-.57,1.77-.33.54-.81.99-1.34,1.31-.53.33-1.12.52-1.7.66l-.44.09c-.15.02-.29.04-.44.06-.29.05-.59.05-.88.07-.07,0-.15.01-.22.01h-.22s-.44,0-.44,0c-.15,0-.29,0-.44-.02l-.43-.03h-.22s-.22-.04-.22-.04l-.43-.05c-.14-.02-.29-.03-.43-.05l-.44-.08c-1.17-.23-2.28-.72-3.25-1.38-.49-.33-.95-.7-1.37-1.11-.43-.4-.83-.83-1.19-1.28-.74-.9-1.36-1.88-1.94-2.88-.29-.5-.53-1.03-.74-1.57-.1-.27-.19-.55-.25-.83-.07-.28-.12-.57-.13-.87,0-.08.06-.14.13-.14.05,0,.09.02.12.06h0c.16.24.31.49.45.73.14.24.27.49.4.74l.76,1.49c.5.99,1.11,1.92,1.81,2.78.35.43.72.83,1.12,1.21.4.38.82.72,1.27,1.03.45.31.92.57,1.42.78.49.22,1.01.37,1.54.48l.4.07c.13.02.27.03.41.05l.41.04.21.02h.21s.41.04.41.04c.14,0,.28.02.41.02h.41s.21,0,.21,0c.07,0,.14,0,.2-.01.27-.02.55-.02.81-.07.13-.02.27-.03.4-.05l.39-.08c.52-.12,1.02-.29,1.46-.56.44-.27.81-.62,1.07-1.04.26-.43.4-.92.46-1.44.06-.52.02-1.05-.07-1.58-.05-.26-.1-.53-.18-.79-.04-.13-.08-.26-.12-.39-.04-.12-.09-.26-.14-.37l.31.24c-1.95-.27-3.89-.56-5.83-.97-.49-.11-.97-.22-1.47-.39-.52-.19-.98-.5-1.37-.84-.39-.35-.73-.73-1.04-1.12-.31-.39-.61-.79-.9-1.19-.58-.79-1.14-1.58-1.76-2.31-.31-.36-.63-.72-.97-1.05-.17-.17-.35-.33-.52-.49-.18-.15-.36-.31-.55-.46-.74-.59-1.54-1.12-2.36-1.58-.83-.46-1.69-.87-2.57-1.34h0c-.07-.04-.09-.12-.06-.18.03-.05.08-.08.13-.07"/>
  <path class="cls-4" d="M63.04,49.28c.22.23.59.24.83.02.56-.51,1.66-1.31,3.16-1.33,1.19-.02-.86-1.97-2.74-1.82-1.25.1-2.13.65-2.67,1.1-.31.26-.27.75.08.96.22.13.48.31.78.54.16.13.38.33.56.53"/>
  <path class="cls-5" d="M63.47,49.46c-.15,0-.31-.06-.42-.18-.02-.02-.03-.03-.05-.05.02.02.03.03.05.05.12.12.27.18.42.18.14,0,.29-.05.4-.16.06-.06.13-.11.2-.17-.07.06-.14.12-.2.18-.11.1-.26.16-.4.16"/>
  <path class="cls-12" d="M67.23,47.42s0,0,0,0c-.13-.17-.32-.35-.57-.53h0c.25.18.45.36.57.53"/>
  <path class="cls-11" d="M61.46,47.49c.03-.09.09-.17.17-.23,0,0,.02-.01.02-.02,0,0-.02.01-.02.02-.08.07-.13.15-.17.23"/>
  <path class="cls-9" d="M63.47,49.46c-.15,0-.31-.06-.42-.18-.02-.02-.03-.03-.05-.05-.17-.18-.36-.36-.51-.47-.3-.23-.56-.41-.78-.54-.26-.16-.35-.47-.25-.73.03-.09.09-.17.17-.23,0,0,.02-.01.02-.02,0,0,0,0,0,0,.18.12.38.26.61.43.16.13.38.34.56.53.12.12.27.18.42.18.14,0,.29-.05.4-.16.46-.42,1.28-1.03,2.39-1.25-.12.2-.09.65-.19,1.19-.76.23-1.37.63-1.78.97-.07.06-.14.12-.2.17-.11.1-.26.16-.4.16M67.23,47.42c-.26-.26-.54-.43-.75-.51.06,0,.12-.01.18-.01.25.18.45.36.57.53"/>
  <path class="cls-11" d="M63.08,49.32l-.29.28c.09.09.2.17.31.21.12.05.24.07.36.07.11,0,.23-.02.33-.06.11-.04.21-.1.3-.19h0c.25-.24.64-.55,1.14-.8.25-.13.52-.24.83-.32.3-.08.62-.13.97-.14.08,0,.16,0,.25-.03.06-.01.12-.04.18-.07.04-.02.09-.05.13-.09.03-.03.06-.06.08-.09.04-.05.07-.11.08-.17.02-.06.02-.12.02-.17,0-.08-.01-.15-.04-.22-.02-.06-.04-.12-.07-.17-.05-.1-.12-.19-.2-.29-.14-.16-.31-.32-.52-.47-.31-.23-.68-.44-1.1-.59-.21-.08-.43-.14-.65-.19-.23-.05-.46-.07-.69-.07-.08,0-.17,0-.25.01h0c-.71.06-1.31.25-1.81.49-.5.24-.88.53-1.17.78-.1.09-.18.2-.23.32-.05.12-.08.24-.08.37,0,.16.04.31.12.45.08.14.2.26.34.35.22.13.49.31.81.55.03.03.08.06.12.1.07.06.14.13.22.2.07.07.15.15.22.22l.29-.28.29-.28c-.1-.1-.21-.21-.32-.32-.05-.05-.11-.1-.16-.15-.05-.05-.11-.09-.16-.13-.34-.27-.65-.47-.89-.61-.02-.01-.04-.03-.05-.05-.01-.02-.02-.04-.02-.06,0-.02,0-.03.01-.05,0-.01.02-.03.03-.04.24-.21.57-.45.99-.65.42-.2.93-.36,1.53-.41h0c.06,0,.12,0,.18,0,.3,0,.62.06.92.16.23.08.45.17.64.28.15.08.29.17.41.26.09.07.17.13.24.2.05.05.1.09.13.14.06.06.09.12.11.16,0,.02.01.03.01.03h0s.02,0,.02,0h-.02s0,0,0,0h.02s-.02,0-.02,0l.1-.02h-.11s0,.02,0,.02l.1-.02h-.11.19l-.18-.04s0,.03,0,.04h.19l-.18-.04.22.05-.2-.1s-.01.03-.02.05l.22.05-.2-.1.2.1-.15-.17s-.04.04-.05.07l.2.1-.15-.17.11.12-.08-.15s-.02.01-.03.02l.11.12-.08-.15.03.06-.02-.06s0,0,0,0l.03.06-.02-.06h0s-.03,0-.07,0c-.42,0-.81.07-1.17.17-.54.15-1,.37-1.39.61-.39.24-.69.49-.91.7h0s-.03.02-.04.02c-.01,0-.03,0-.05,0-.02,0-.04,0-.05-.01-.02,0-.03-.02-.04-.03l-.29.28h0Z"/>
  <path class="cls-4" d="M65.48,52.72s1.8.51,2.46-1.62c.9-2.93-1.31-4.39-1.79-4.23-.48.16.19,1.82-1.39,3.22-.58.52-.23,1.87.72,2.63"/>
  <path class="cls-5" d="M64.52,51.17c-.04-.21-.05-.42-.01-.6-.03.18-.03.38.01.6h0M64.5,50.57h0s0,0,0,0M64.77,50.08s.06-.05.08-.08c0,0,0,0,0,0-.03.03-.06.05-.08.08"/>
  <path class="cls-9" d="M66.97,51.47c-1.54,0-2-.3-2.41-.3-.01,0-.03,0-.04,0-.04-.21-.05-.42-.01-.6,0,0,0,0,0,0h0c.04-.2.12-.36.26-.48,0,0,0,0,0,0,.03-.03.06-.05.08-.08.16.26.38.51.63.72,0,0,.19.05.47.05.58,0,1.55-.23,2-1.68.03-.11.06-.21.08-.31.18.62.2,1.39-.08,2.3-.04.12-.08.23-.12.34-.1,0-.21.02-.31.02-.19,0-.37.01-.54.01"/>
  <path class="cls-11" d="M65.48,52.72l-.11.39s.25.07.58.07c.17,0,.37-.02.59-.07.16-.04.33-.1.5-.19.26-.13.51-.33.73-.61.22-.28.41-.64.55-1.08.16-.52.23-1.01.23-1.46,0-.53-.1-1-.26-1.41-.12-.3-.27-.57-.44-.8-.13-.17-.26-.33-.4-.46-.21-.2-.42-.35-.62-.46-.1-.05-.2-.1-.3-.13-.05-.02-.1-.03-.15-.04-.05,0-.1-.01-.16-.01-.06,0-.13,0-.21.03h0s-.09.03-.12.06c-.04.02-.07.05-.1.08-.06.06-.1.12-.13.18-.03.06-.05.11-.06.16-.03.1-.04.2-.06.29-.01.09-.02.18-.03.27-.01.16-.03.33-.06.51-.05.27-.12.56-.27.85-.07.15-.16.3-.28.45-.11.15-.25.3-.42.45-.07.07-.14.14-.19.22-.08.12-.14.25-.17.39-.04.14-.05.28-.05.42,0,.19.03.39.08.59.08.29.21.59.39.87.18.28.41.54.68.76l.06.05.08.02.11-.39.25-.31c-.27-.22-.49-.5-.64-.78-.07-.14-.13-.29-.17-.42-.04-.14-.05-.27-.05-.38,0-.11.02-.21.04-.28.01-.04.03-.07.05-.09.02-.03.04-.05.06-.07.22-.19.4-.39.55-.6.26-.35.43-.71.54-1.05.08-.25.13-.49.16-.7.02-.16.04-.31.05-.43,0-.1.02-.18.03-.25,0-.05.01-.1.02-.13,0-.02.01-.04.01-.05,0,0,0,0,0,0h0s-.03-.01-.03-.01l.03.02h0s-.03-.02-.03-.02l.03.02-.13-.07.1.11s.03-.03.03-.04l-.13-.07.1.11-.13-.15.06.19s.05-.02.07-.04l-.13-.15.06.19h0l-.04-.13v.14s.01,0,.04,0l-.04-.13v.14h0s0,0,0,0h0s0,0,0,0c0,0,.01,0,.03,0,.03,0,.09.03.16.06.12.06.26.15.41.28.11.1.23.22.33.36.16.21.31.46.41.76.11.3.17.64.17,1.03,0,.36-.06.77-.2,1.22-.1.33-.23.57-.36.76-.1.14-.21.25-.31.33-.16.13-.33.2-.49.25-.16.05-.32.06-.45.06-.11,0-.21-.01-.27-.02-.03,0-.06-.01-.07-.01,0,0-.01,0-.01,0h0s-.07.25-.07.25l.07-.25h0s-.07.25-.07.25l.07-.25-.11.38.25-.31-.25.31h0Z"/>
  <path class="cls-4" d="M63.81,54.17c.36.36.88.53,2.17.3,2.63-.48,4.6-2.31,3.96-2.98-.43-.46-1.31-.08-2.43-.03-1.97.08-2.49-.29-2.95-.29-1.02,0-1.83,1.91-.75,3"/>
  <path class="cls-12" d="M66.82,54.27s0,0,0,0c1.41-.43,2.54-1.21,3-1.87-.47.66-1.59,1.44-3,1.87"/>
  <path class="cls-11" d="M66.47,54.36c.12-.03.23-.06.35-.1,0,0,0,0,0,0-.11.03-.23.07-.35.1"/>
  <path class="cls-9" d="M64.97,54.58c-.59,0-.91-.16-1.16-.41-.76-.77-.58-1.94-.05-2.57-.02.48.12.98.51,1.37.25.25.57.41,1.16.41.27,0,.6-.03,1.01-.11,1.54-.28,2.85-1.02,3.55-1.72.15.21.08.52-.16.85-.47.66-1.59,1.44-3,1.87-.11.03-.23.07-.35.1-.16.04-.33.08-.49.11-.41.07-.73.11-1.01.11"/>
  <path class="cls-11" d="M63.81,54.17l-.28.28c.08.08.16.15.26.22.15.1.32.18.52.23.2.05.42.08.66.08.3,0,.66-.04,1.08-.11.6-.11,1.17-.29,1.69-.5.39-.16.74-.35,1.06-.55.24-.15.46-.3.65-.46.15-.12.28-.24.4-.36.18-.18.32-.37.43-.57.05-.1.1-.2.13-.3.03-.1.05-.21.05-.32,0-.1-.02-.21-.06-.31-.04-.1-.1-.2-.17-.28-.06-.07-.14-.13-.21-.17-.12-.07-.24-.12-.36-.14-.12-.03-.24-.04-.37-.04-.14,0-.28.01-.42.03-.21.03-.43.06-.66.09-.23.03-.47.06-.71.07-.19,0-.36.01-.52.01-.37,0-.67-.02-.92-.04-.19-.02-.35-.04-.49-.07-.21-.04-.37-.08-.53-.12-.08-.02-.15-.03-.23-.05-.08-.01-.16-.02-.24-.02-.13,0-.25.02-.37.06-.1.03-.2.07-.29.13-.16.09-.3.21-.42.35-.18.21-.33.45-.43.73-.1.27-.16.57-.16.87,0,.27.04.54.15.81.1.27.26.52.48.74l.28-.28.28-.28c-.14-.14-.24-.3-.3-.46-.06-.17-.09-.34-.09-.52s.03-.36.08-.52c.04-.12.09-.24.15-.34.05-.08.1-.15.15-.21.08-.09.17-.16.25-.2.04-.02.08-.04.12-.05.04,0,.07-.01.11-.01.03,0,.06,0,.1,0,.07.01.17.03.29.06.19.04.44.1.76.15.33.05.74.08,1.26.08.17,0,.35,0,.55-.01.38-.02.72-.07,1.02-.11.15-.02.29-.04.41-.06.12-.01.24-.02.33-.02.05,0,.1,0,.14,0,.06,0,.11.02.14.04.03.01.05.03.08.05,0,0,0,0,0,.01,0,0,0,0,0,.03,0,.01,0,.03,0,.06-.01.05-.04.13-.1.22-.05.08-.11.16-.19.26-.14.16-.33.34-.56.51-.34.26-.78.52-1.27.73-.49.22-1.04.39-1.63.5-.39.07-.7.1-.93.1-.13,0-.24,0-.33-.02-.07-.01-.13-.03-.18-.04-.08-.03-.14-.06-.2-.09-.06-.04-.11-.08-.16-.13l-.28.28h0Z"/>
  <path class="cls-8" d="M39.99,42.25c-3.55,0-6.88-.44-9.78-1.32h0l.6-1.92c2.76.77,5.88,1.14,9.18,1.14.04,0,.08,0,.12,0,3.04,0,5.92-.33,8.5-.98l.55,1.76.06.18c-2.74.76-5.84,1.14-9.11,1.14-.04,0-.08,0-.12,0"/>
  <path class="cls-8" d="M30.21,40.93c-1.06-.32-2.06-.7-2.99-1.15-.12-.05-.23-.11-.34-.17.61-.46,1.25-.89,1.91-1.27.32.12.65.23.98.34.34.11.69.22,1.05.32l-.6,1.92"/>
  <path class="cls-11" d="M26.88,39.61c-.14-.07-.28-.14-.42-.21.43-.35.9-.69,1.41-1,.06-.13.1-.2.1-.2h.23s.06-.03.09-.05c.16.07.33.13.5.19-.66.38-1.3.81-1.91,1.27"/>
  <path class="cls-8" d="M49.22,41.1l-.06-.18-.55-1.76c.77-.19,1.52-.42,2.23-.67.66.4,1.3.84,1.91,1.32,0,0,0,0,0,0-.07.03-.15.07-.22.1-.95.43-1.97.8-3.05,1.11-.09.03-.18.05-.27.08"/>
  <path class="cls-11" d="M52.76,39.82s0,0,0,0c-.61-.48-1.24-.92-1.91-1.32.27-.1.54-.19.8-.3h.08s.04.08.11.22c.56.35,1.06.72,1.53,1.11-.2.1-.4.2-.6.29"/>
  <path class="cls-2" d="M60.47,26.5c.02,9.23-9.1,13.62-20.37,13.65-11.27.03-20.42-4.31-20.44-13.54-.02-8.84,5.69-18.96,18.63-19.82,1.56-.8,3.68-2.19,4.87-4.24.37-.64,1.32-.55,1.56.15.31.94.6,2.16-.02,3.75,1.73-.85,3.45-1.81,4.01-2.32.61-.55,1.57-.1,1.54.71-.03.79-.31,2.46-.63,3.86,7.43,3.49,10.83,11,10.85,17.79"/>
  <path class="cls-12" d="M27.68,37.89c-3.12-1.38-5.53-3.41-6.86-6.12,1.33,2.7,3.74,4.73,6.86,6.12h0"/>
  <path class="cls-11" d="M27.79,37.94s-.08-.03-.12-.05h0s.08.03.12.05h0"/>
  <path class="cls-11" d="M28.29,38.15c-.17-.07-.33-.14-.49-.21h0c.16.07.33.14.49.21h0"/>
  <path class="cls-5" d="M29.76,38.69c-.33-.11-.66-.22-.98-.34h0c.32.12.65.24.98.34"/>
  <path class="cls-11" d="M28.79,38.34c-.17-.06-.33-.13-.5-.19h0c.16.07.33.13.5.19h0"/>
  <path class="cls-12" d="M54.2,36.96c3.37-1.96,5.63-4.83,6.15-8.67,0,0,0,0,0,0,0,0,0,0,0-.01,0,0,0,0,0,0,0,0,0,0,0,0,0,0,0,0,0-.01,0,0,0,0,0,0,0,0,0,0,0-.01,0,0,0,0,0,0,.06-.44.09-.88.1-1.35h0s0-.04,0-.05h0s0-.01,0-.01h0s0-.02,0-.02h0s0-.01,0-.01h0s0-.01,0-.02h0s0-.02,0-.02c0,0,0,0,0,0h0s0-.01,0-.02h0s0-.02,0-.02h0s0-.01,0-.02h0v-.02s0,0,0,0h0v-.02s0,0,0,0h0v-.02h0v-.02s0,0,0,0h0v-.02h0v-.03h0v-.02h0v-.02c0-.31,0-.62-.02-.94.02.31.02.63.02.94.01,4.75-2.4,8.21-6.27,10.47M20.82,31.77s0,0,0,0c0,0,0,0,0,0M20.81,31.76s0,0,0,0c0,0,0,0,0,0M20.81,31.74s0,0,0,0c0,0,0,0,0,0M20.8,31.73s0,0,0,0c0,0,0,0,0,0M19.84,28.7s0,0,0,0c0,0,0,0,0,0M19.84,28.69s0,0,0,0c0,0,0,0,0,0M19.84,28.68s0,0,0,0c0,0,0,0,0,0M19.83,28.67s0,0,0,0c0,0,0,0,0,0M19.83,28.66s0,0,0,0c0,0,0,0,0,0M19.83,28.65c-.11-.65-.16-1.33-.16-2.04,0-.29,0-.59.02-.88-.01.29-.02.59-.02.88,0,.71.06,1.39.16,2.04"/>
  <path class="cls-8" d="M39.99,40.15c-3.73,0-7.22-.48-10.23-1.46-.33-.11-.66-.22-.98-.34-.17-.06-.33-.13-.5-.19-.17-.07-.33-.14-.49-.21-.04-.02-.08-.03-.12-.05-3.12-1.38-5.53-3.41-6.86-6.12h0s0,0,0-.01c0,0,0,0,0,0,0,0,0,0,0,0,0,0,0,0,0,0,0,0,0,0,0,0,0,0,0,0,0,0,0,0,0,0,0,0-.45-.93-.78-1.94-.96-3.03,0,0,0,0,0,0,0,0,0,0,0,0,0,0,0,0,0,0,0,0,0,0,0,0,0,0,0,0,0,0,0,0,0,0,0,0,0,0,0,0,0,0,0,0,0,0,0,0,0,0,0,0,0,0h0c-.11-.65-.16-1.33-.16-2.04,0-.29,0-.59.02-.88,0-.08,0-.16.01-.25.55,8.63,9.42,12.71,20.3,12.71.04,0,.08,0,.12,0,9.8-.03,17.97-3.35,19.92-10.28,0,.02,0,.05,0,.07,0,.98-.1,1.9-.29,2.78.29-.77.5-1.59.62-2.46-.52,3.84-2.79,6.71-6.15,8.67-3.66,2.12-8.62,3.17-14.09,3.18-.04,0-.08,0-.12,0M60.36,28.29s0,0,0-.01c0,0,0,0,0,.01M60.36,28.28s0,0,0,0c0,0,0,0,0,0M60.36,28.25s0,0,0,0c0,0,0,0,0,0M60.36,28.24s0,0,0,0c0,0,0,0,0,0M60.47,26.89h0s0,0,0,0M60.47,26.84h0s0,0,0,0M60.47,26.82h0s0,0,0,0M60.47,26.8h0s0,0,0,0M60.47,26.78h0s0,0,0,0M60.47,26.77h0s0,0,0,0M60.47,26.75s0,0,0,0c0,0,0,0,0,0M60.47,26.73s0,0,0,0c0,0,0,0,0,0M60.47,26.71s0,0,0-.01c0,0,0,0,0,.01M60.47,26.69s0,0,0,0c0,0,0,0,0,0M60.47,26.68h0s0,0,0,0M60.47,26.66h0s0,0,0,0M60.47,26.64s0,0,0,0c0,0,0,0,0,0M60.47,26.62h0s0,0,0,0M60.47,26.61v-.02.02M60.47,26.59h0s0,0,0,0M60.47,26.57h0s0,0,0,0M60.47,26.55v-.02.02M60.47,26.53h0s0,0,0,0M60.47,26.52v-.02c0-.31,0-.62-.02-.94h0c.02.31.02.63.02.94v.02"/>
  <path class="cls-13" d="M20.68,20.1s0,0,0,0c0,0,0,0,0,0M20.69,20.09c2.1-6.51,7.5-12.32,16.8-13.23-9.3.91-14.71,6.73-16.8,13.23M37.49,6.86s.01,0,.02,0c0,0-.01,0-.02,0M37.51,6.86s.04,0,.05,0c-.02,0-.04,0-.05,0M37.57,6.85s.01,0,.02,0c0,0-.01,0-.02,0M37.58,6.85s.04,0,.05,0c-.02,0-.04,0-.05,0M37.64,6.84s.01,0,.02,0c0,0-.01,0-.02,0M37.66,6.84s.01,0,.02,0c0,0-.01,0-.02,0M37.68,6.84h.04s-.02,0-.04,0M37.72,6.84s0,0,.01,0c0,0,0,0-.01,0M37.73,6.84s.01,0,.02,0c0,0-.01,0-.02,0M37.75,6.83s.01,0,.02,0c0,0-.01,0-.02,0M37.77,6.83s.01,0,.02,0c0,0-.01,0-.02,0M37.79,6.83s0,0,.01,0c0,0,0,0-.01,0M37.81,6.83s0,0,.01,0c0,0,0,0-.01,0M37.83,6.83s.01,0,.02,0c0,0-.01,0-.02,0M37.85,6.83s.01,0,.02,0c0,0-.01,0-.02,0M37.87,6.82s0,0,.01,0c0,0,0,0-.01,0M37.88,6.82s0,0,.01,0c0,0,0,0-.01,0M37.9,6.82s.01,0,.02,0c0,0-.01,0-.02,0M37.92,6.82s.01,0,.02,0c0,0-.01,0-.02,0M37.94,6.82s0,0,.01,0c0,0,0,0-.01,0M37.96,6.82s0,0,.01,0c0,0,0,0-.01,0M37.98,6.81s.01,0,.02,0c0,0-.01,0-.02,0M37.99,6.81s.01,0,.02,0c0,0-.01,0-.02,0M38.02,6.81s0,0,.01,0c0,0,0,0-.01,0M38.03,6.81s0,0,.01,0c0,0,0,0-.01,0M38.05,6.81s.01,0,.02,0c0,0-.01,0-.02,0M38.07,6.81s.01,0,.02,0c0,0-.01,0-.02,0M38.09,6.81s0,0,.01,0c0,0,0,0-.01,0M38.11,6.8s0,0,.01,0c0,0,0,0-.01,0M38.13,6.8s.01,0,.02,0c0,0-.01,0-.02,0M38.14,6.8s.01,0,.02,0c0,0-.01,0-.02,0M38.17,6.8s0,0,.01,0c0,0,0,0-.01,0M38.19,6.8s0,0,.01,0c0,0,0,0-.01,0M38.2,6.8s.02,0,.03,0c-.01,0-.02,0-.03,0M38.24,6.8s0,0,.01,0c0,0,0,0-.01,0M38.26,6.79s0,0,.01,0c0,0,0,0-.01,0M38.28,6.79s.01,0,.02,0c0,0-.01,0-.02,0"/>
  <path class="cls-3" d="M60.03,27.91c-.04-6.37-3.54-13.73-10.11-17.47-.75-.43-1.14-1.29-.96-2.13.21-.95.38-1.84.4-2.37.01-.46-.15-.68-.4-.68-.19,0-.44.12-.7.36-.44.4-1.59,1.07-2.89,1.75-.08.04-.17.06-.26.06-.32,0-.61-.28-.55-.63.16-1.06-.06-1.92-.29-2.62-.12-.36-.29-.58-.49-.58s-.43.2-.71.68c-.79,1.37-2.15,2.33-3.44,3.06-1.03.58-2.17.94-3.34,1.09-8.71,1.13-13.86,6.65-15.97,12.86.1-.4.22-.79.34-1.19,0,0,0,0,0,0,0,0,0,0,0,0,2.1-6.51,7.5-12.32,16.8-13.23,0,0,0,0,0,0,0,0,.01,0,.02,0h0s.04,0,.05,0c0,0,0,0,0,0,0,0,.01,0,.02,0,0,0,0,0,0,0,.02,0,.04,0,.05,0,0,0,0,0,0,0,0,0,.01,0,.02,0,0,0,0,0,0,0,0,0,.01,0,.02,0h0s.02,0,.04,0c0,0,0,0,0,0,0,0,0,0,.01,0,0,0,0,0,0,0,0,0,.01,0,.02,0,0,0,0,0,0,0,0,0,.01,0,.02,0h0s.01,0,.02,0c0,0,0,0,0,0,0,0,0,0,.01,0,0,0,0,0,0,0,0,0,0,0,.01,0,0,0,0,0,0,0,0,0,.01,0,.02,0h0s.01,0,.02,0c0,0,0,0,0,0,0,0,0,0,.01,0,0,0,0,0,0,0,0,0,0,0,.01,0,0,0,0,0,0,0,0,0,.01,0,.02,0,0,0,0,0,0,0,0,0,.01,0,.02,0,0,0,0,0,0,0,0,0,0,0,.01,0,0,0,0,0,0,0,0,0,0,0,.01,0,0,0,0,0,0,0,0,0,.01,0,.02,0,0,0,0,0,0,0,0,0,.01,0,.02,0,0,0,0,0,0,0,0,0,0,0,.01,0,0,0,0,0,0,0,0,0,0,0,.01,0,0,0,0,0,0,0,0,0,.01,0,.02,0,0,0,0,0,0,0,0,0,.01,0,.02,0,0,0,0,0,0,0,0,0,0,0,.01,0,0,0,0,0,0,0,0,0,0,0,.01,0,0,0,0,0,0,0,0,0,.01,0,.02,0h0s.01,0,.02,0c0,0,0,0,0,0,0,0,0,0,.01,0,0,0,0,0,0,0,0,0,0,0,.01,0,0,0,0,0,0,0,.01,0,.02,0,.03,0,0,0,0,0,0,0,0,0,0,0,.01,0,0,0,0,0,0,0,0,0,0,0,.01,0,0,0,0,0,0,0,0,0,.01,0,.02,0h0c1.56-.8,3.68-2.19,4.87-4.24.17-.29.46-.43.74-.43.34,0,.68.2.81.59.18.53.35,1.15.35,1.88,0,.56-.1,1.18-.37,1.87h0c1.73-.85,3.45-1.81,4.01-2.32.18-.17.4-.24.62-.24.48,0,.93.37.93.92,0,.01,0,.02,0,.03-.03.79-.31,2.46-.63,3.86h0c7.09,3.33,10.51,10.32,10.82,16.85,0-.03,0-.06,0-.09-.06.86-.2,1.67-.41,2.44"/>
  <path class="cls-7" d="M60.36,28.3s0,0,0,0c0,0,0,0,0,0M60.36,28.28s0,0,0,0c0,0,0,0,0,0M60.36,28.27s0,0,0-.01c0,0,0,0,0,.01M60.36,28.25s0,0,0-.01c0,0,0,0,0,.01M60.36,28.23c.06-.44.09-.88.1-1.35-.01.46-.05.91-.1,1.35M60.47,26.89s0-.03,0-.05c0,.02,0,.03,0,.05M60.47,26.83s0,0,0-.01c0,0,0,0,0,.01M60.47,26.82s0-.02,0-.02c0,0,0,.02,0,.02M60.47,26.79s0,0,0-.01c0,0,0,0,0,.01M60.47,26.78s0,0,0-.01c0,0,0,0,0,.01M60.47,26.76s0-.01,0-.02c0,0,0,.01,0,.02M60.47,26.74h0s0,0,0,0M60.47,26.72h0s0,0,0,0M60.47,26.7h0s0,0,0,0M60.47,26.68h0s0,0,0,0M60.47,26.67s0,0,0,0c0,0,0,0,0,0M60.47,26.65h0s0,0,0,0M60.47,26.63h0s0,0,0,0M60.47,26.61h0s0,0,0,0M60.47,26.59s0,0,0,0c0,0,0,0,0,0M60.47,26.58h0s0,0,0,0M60.47,26.55h0s0,0,0,0M60.47,26.54h0s0,0,0,0M60.47,26.52h0s0,0,0,0"/>
  <path class="cls-15" d="M59.74,30.76c.2-.87.3-1.8.29-2.78,0-.02,0-.05,0-.07.22-.77.36-1.58.41-2.44,0,.03,0,.06,0,.09.02.31.02.63.02.94v.02h0v.02h0v.02h0v.02h0v.02s0,0,0,0v.02h0v.02h0s0,.01,0,.02h0v.02s0,0,0,0h0v.02s0,0,0,0h0s0,.02,0,.02h0s0,.01,0,.02h0s0,.01,0,.02c0,0,0,.01,0,.02h0s0,.01,0,.02h0s0,.01,0,.02h0s0,.02,0,.03h0s0,0,0,.01h0s0,.04,0,.05h0c-.01.46-.05.91-.1,1.35,0,0,0,0,0,0,0,0,0,0,0,.01,0,0,0,0,0,0,0,0,0,0,0,.01,0,0,0,0,0,0,0,0,0,0,0,0,0,0,0,0,0,.01,0,0,0,0,0,0-.12.87-.33,1.69-.62,2.46"/>
  <path class="cls-1" d="M56.44,25.26c0,2.69-.8,5.58-3.24,7.83-2.49,2.29-6.68,3.91-13.44,3.92h0c-6.69.02-10.87-1.54-13.38-3.78-2.51-2.24-3.35-5.16-3.36-7.88,0-.55.04-1.1.13-1.62.76-4.67,4.8-8.23,9.69-8.25,2.67,0,5.1,1.05,6.87,2.77,1.77-1.73,4.19-2.8,6.86-2.81,4.82-.01,8.84,3.44,9.7,8.02h0c.11.58.17,1.18.17,1.8"/>
  <path class="cls-11" d="M42.23,25.9c0,.84-1.11,1.85-2.49,1.85-1.38,0-2.49-1-2.5-1.84,0-.84,1.11-1.19,2.49-1.2,1.38,0,2.49.34,2.5,1.18"/>
  <path class="cls-6" d="M39.8,25.88c-.56,0-1.01-.23-1.01-.43,0-.2.45-.28,1.01-.28h.02c.55,0,1,.08,1,.28,0,.2-.45.43-1.01.43,0,0,0,0,0,0"/>
  <path class="cls-11" d="M28.17,37.67c-1.24-.52-2.36-1.14-3.35-1.86-.74-.54-1.41-1.13-1.99-1.78-.87-.98-1.56-2.07-2.03-3.31-.47-1.23-.72-2.6-.73-4.11v-.05c0-2.09.33-4.26,1-6.35.51-1.57,1.21-3.09,2.11-4.52,1.36-2.13,3.17-4.03,5.47-5.5,2.3-1.46,5.09-2.5,8.42-2.89.22-.03.38-.22.35-.44-.03-.22-.22-.38-.44-.35-3.05.36-5.69,1.25-7.93,2.51-1.68.95-3.13,2.12-4.36,3.43-1.85,1.97-3.2,4.27-4.09,6.69-.89,2.42-1.32,4.96-1.32,7.41v.06c0,1.42.22,2.74.62,3.94.3.9.71,1.75,1.21,2.53.75,1.17,1.72,2.2,2.86,3.08,1.14.89,2.45,1.63,3.9,2.24.2.09.44,0,.52-.21.09-.2,0-.44-.21-.52h0Z"/>
  <path class="cls-11" d="M30.63,39.01c-.23,0-.46,0-.69-.03-.23-.02-.45-.06-.67-.1-.22-.04-.44-.09-.66-.16-.21-.07-.42-.16-.61-.28-.18-.11-.23-.35-.12-.53.09-.14.25-.2.4-.17h0c.21.05.42.13.62.21.2.08.39.19.59.29.2.1.39.21.58.31.19.11.39.22.58.35.03.02.03.05.02.08-.01.02-.03.02-.05.03h0Z"/>
  <path class="cls-14" d="M36.3,25.45c-.41,2.91-2.75,3.61-5.82,4.85-1.92.78-3.24,1.93-4.1,2.93-2.51-2.24-3.35-5.16-3.36-7.88,0-.55.04-1.1.13-1.62,1.8-1.88,4.65-3.69,8.75-3.21,3.01.35,4.69,2.84,4.39,4.93h0Z"/>
  <path class="cls-14" d="M56.44,25.26c0,2.69-.8,5.58-3.24,7.83-.87-.99-2.18-2.09-4.06-2.84-3.07-1.22-5.41-1.9-5.84-4.81-.31-2.09,1.36-4.58,4.37-4.96,3.98-.49,6.78,1.18,8.6,2.98h0c.11.58.17,1.18.17,1.8h0Z"/>
  <path class="cls-11" d="M44.56,7.34c.35-.37.58-.79.73-1.23.15-.44.2-.89.2-1.33,0-.39-.05-.78-.12-1.15-.07-.37-.17-.73-.28-1.05-.05-.14-.11-.26-.19-.37-.12-.16-.28-.29-.45-.37-.17-.08-.36-.12-.55-.12-.21,0-.42.05-.61.16-.1.05-.19.12-.27.2-.08.08-.15.17-.21.28-.48.84-1.09,1.51-1.73,2.06-.96.82-2,1.35-2.8,1.67-.4.16-.74.27-.97.34-.12.03-.21.06-.27.07-.03,0-.05.01-.07.02,0,0-.01,0-.02,0h0s0,0,0,0h0s0,0,0,0c-.22.04-.36.26-.31.47.04.22.26.36.47.31.02,0,1.08-.22,2.41-.89.66-.34,1.39-.79,2.09-1.39.7-.6,1.37-1.34,1.91-2.27.02-.04.05-.08.08-.11.04-.04.09-.07.15-.1.05-.02.11-.03.17-.03.09,0,.19.03.26.08.04.03.07.06.1.09.03.04.05.08.07.14.1.3.19.62.26.95.06.33.1.67.1,1,0,.37-.05.74-.16,1.08-.11.34-.29.65-.56.94-.15.16-.14.42.02.57.16.15.41.14.57-.02h0Z"/>
  <path class="cls-11" d="M51.86,38.54c1.35-.54,2.58-1.19,3.68-1.96.82-.57,1.57-1.21,2.22-1.92.98-1.06,1.76-2.27,2.29-3.63.53-1.36.81-2.86.81-4.5v-.04h0c0-1.74-.23-3.52-.67-5.27-.67-2.63-1.86-5.19-3.59-7.43-1.73-2.24-4.02-4.16-6.88-5.49l-.17.36.36.17.04-.07h0c.13-.28.23-.58.32-.9.13-.48.21-.99.27-1.5.06-.51.09-1.03.11-1.5,0-.02,0-.03,0-.05,0-.19-.04-.38-.11-.54-.05-.12-.13-.23-.21-.33-.13-.14-.28-.26-.45-.33-.17-.08-.36-.12-.55-.12-.15,0-.31.03-.46.08-.15.06-.3.14-.42.26-.54.49-1.19,1.01-1.86,1.44-.33.21-.67.4-1.01.54-.33.14-.66.24-.96.29-.22.03-.37.24-.33.46.03.22.24.37.46.33.39-.06.78-.18,1.16-.35.57-.25,1.13-.59,1.65-.96.52-.37,1.01-.78,1.43-1.16.06-.05.11-.08.17-.11.06-.02.12-.03.18-.03.07,0,.13.01.2.04.1.04.18.1.24.18.03.04.05.08.07.13.02.05.03.1.03.16,0,0,0,.01,0,.02-.02.61-.07,1.28-.17,1.92-.05.32-.11.62-.19.91-.08.28-.17.55-.27.77l.36.17-.36-.17-.04.07c-.05.1-.05.21-.02.31.04.1.11.18.21.23,1.83.85,3.41,1.95,4.75,3.22,2.01,1.91,3.49,4.21,4.47,6.67.98,2.46,1.46,5.06,1.46,7.57h0v.04c0,1.38-.21,2.64-.6,3.78-.29.86-.69,1.66-1.18,2.4-.74,1.11-1.69,2.08-2.82,2.93-1.13.85-2.44,1.56-3.91,2.15-.21.08-.31.32-.22.52.08.21.32.31.52.22h0Z"/>
  <path class="cls-11" d="M48.83,39.05c.21-.13.43-.24.64-.35.22-.11.43-.22.64-.32.21-.1.43-.21.65-.29.22-.09.44-.17.67-.22h0c.21-.04.41.09.45.29.04.16-.04.33-.18.41-.21.12-.44.21-.67.29-.23.07-.47.12-.71.17-.24.04-.48.08-.73.1-.24.02-.49.04-.74.03-.03,0-.06-.03-.05-.06,0-.02.01-.04.03-.05h0Z"/>
  <path class="cls-11" d="M28.14,25.41c.05-.07.09-.11.14-.16.05-.05.09-.09.14-.14.09-.09.19-.17.29-.26.2-.16.42-.3.65-.43.46-.25.97-.41,1.51-.49.27-.04.54-.05.81-.04.27.02.54.05.8.12.52.13,1.01.37,1.41.7.19.15.21.43.06.62-.11.13-.27.18-.42.15h-.02c-.44-.09-.84-.16-1.25-.19-.2-.01-.4-.02-.6-.01-.2,0-.4.02-.59.05-.4.05-.79.15-1.19.27-.2.06-.4.14-.59.21-.1.04-.2.08-.3.12l-.15.06s-.1.05-.14.06l-.12.03c-.23.06-.46-.07-.52-.29-.04-.14,0-.28.08-.38h0Z"/>
  <path class="cls-11" d="M51.2,26s-.09-.04-.14-.06l-.15-.06c-.1-.04-.2-.08-.3-.12-.2-.08-.4-.15-.6-.21-.4-.13-.79-.22-1.19-.27-.2-.02-.4-.04-.59-.04-.2,0-.4,0-.6.02-.4.03-.81.11-1.25.2h-.02c-.24.05-.47-.1-.51-.34-.03-.16.03-.32.15-.42.4-.33.88-.57,1.4-.71.26-.07.53-.11.8-.12.27-.01.54,0,.81.03.53.07,1.04.24,1.51.48.23.12.45.26.66.42.1.08.2.16.3.25.05.05.09.09.14.14.05.05.09.09.14.16.15.18.12.45-.06.6-.11.09-.25.12-.38.08l-.12-.03h0Z"/>
  <path class="cls-11" d="M42.58,29.84c-.11.1-.2.17-.31.25-.1.08-.21.14-.32.21-.22.13-.45.24-.69.33-.48.18-1,.29-1.54.28-.55-.01-1.07-.14-1.55-.35-.24-.1-.46-.23-.67-.37-.1-.07-.21-.14-.31-.22-.1-.08-.19-.16-.29-.26-.16-.16-.15-.41,0-.57.11-.11.26-.14.4-.1l.06.02c.09.03.2.07.29.1.1.04.2.07.3.1.2.07.4.13.6.18.4.1.79.16,1.17.17.19,0,.39,0,.59-.03.2-.02.4-.05.6-.09.2-.04.41-.09.61-.14.1-.03.21-.06.31-.09.1-.03.21-.07.3-.09l.06-.02c.22-.05.43.08.49.3.04.15-.01.29-.12.39h0Z"/>
</svg>