<?xml version="1.0" encoding="UTF-8"?>
<svg id="Vrstva_1" data-name="Vrstva 1" xmlns="http://www.w3.org/2000/svg" viewBox="0 0 283.51 155.3">
  <defs>
    <style>
      .cls-1 {
        fill: #e0bda6;
      }

      .cls-2 {
        fill: #fefbfc;
      }

      .cls-3 {
        fill: #ead1c0;
      }

      .cls-4 {
        fill: #f4dabb;
      }

      .cls-5 {
        fill: #ecc18e;
      }

      .cls-6 {
        fill: #fff;
      }

      .cls-7 {
        fill: #b9e2f8;
      }

      .cls-8 {
        fill: #68a930;
      }

      .cls-9 {
        fill: #d0b2b2;
      }

      .cls-10 {
        fill: #b27059;
      }

      .cls-11 {
        fill: #b27d7e;
      }

      .cls-12 {
        fill: #e59147;
      }

      .cls-13 {
        fill: #b75c27;
      }

      .cls-14 {
        fill: #381b15;
      }

      .cls-15 {
        fill: #edc18e;
      }

      .cls-16 {
        fill: #c58863;
      }

      .cls-17 {
        fill: #bad27a;
      }

      .cls-18 {
        fill: #64140e;
      }

      .cls-19 {
        fill: #954e4e;
      }

      .cls-20 {
        fill: #967660;
      }
    </style>
  </defs>
  <g>
    <path class="cls-5" d="M181.68,106.07c5.42-11.53,2.65-24.65,3.73-29.7.91-4.26,6.22-5.75,8.77-2.81,2.38,2.74,7.67,16.63,4.42,27.6l-16.92,4.91"/>
    <path class="cls-18" d="M181.83,106.6c-.12.03-.26.03-.38-.03-.28-.13-.39-.46-.26-.73,3.67-7.8,3.53-16.38,3.42-22.64-.05-2.96-.09-5.3.26-6.94.48-2.25,2.17-4.01,4.4-4.59,2.04-.53,4.04.04,5.33,1.53,2.46,2.83,7.85,16.9,4.54,28.12-.09.29-.39.46-.69.37-.29-.09-.46-.39-.37-.68,1.74-5.89.9-12.28-.11-16.61-1.17-5.02-3.04-9.14-4.2-10.48-1.01-1.16-2.59-1.61-4.22-1.19-1.82.47-3.2,1.91-3.6,3.75-.32,1.52-.28,3.92-.24,6.69.11,6.37.25,15.09-3.53,23.13-.07.15-.2.26-.35.3"/>
    <path class="cls-18" d="M200.04,96.55c-.28.01-.58.03-.88.05.63-2.47.56-5.02-.36-7.59-.02-.2-.05-.39-.08-.59.05-1.99.02-3.87,0-5.59,1.09,4.1,1.78,8.98,1.33,13.71"/>
  </g>
  <g>
    <g>
      <path class="cls-14" d="M37.19,72.09l-.15-3.63c-.05-1.29.68-2.32,1.9-2.84,5.16-2.2,11.72-.24,11.66,2.06l-.11,4.47c.56.23,1.04.55,1.35,1.07,1.03-.11,1.92.29,2.47,1.16h3.2v6.15l-3.52-.02c-1.34,2.04-2.85.7-3.92,1.79l-.25,5.78c-.59.88-1.43,1.3-2.4,1.68-2.95,1.21-9.4.14-9.51-1.73l-.37-6.08c-1.91-.94-2.45-3.17-1.52-5.03-.98-1.73-.71-4.01,1.17-4.86Z"/>
      <path class="cls-8" d="M57.5,76.45v2.7h-3.34v-2.68"/>
      <path class="cls-17" d="M54.16,75.74h3.34v1.04h-3.34v-1.04Z"/>
      <path class="cls-13" d="M45.5,88.76l.3-.17v-3.71c.34-.42,1.03-1.26.35-1.57-2.49.03-4.85,0-7.27-.78l.24,5.17c1.9,1.2,4.2,1.39,6.38,1.06Z"/>
      <path class="cls-12" d="M38.44,68.72c.49,1.2,2.63,1.57,3.85,1.72,1.85.23,4.59.08,6.16-.98.49-.33.7-.52.83-1.14.14-2.38-7.06-2.95-9.95-1.44-.82.41-1.16,1.03-.9,1.84Z"/>
      <path class="cls-13" d="M38.44,68.72l.16,4.47c2.26,1.02,4.72,1.15,7.11.92l.29-.28c.09-.78.19-1.55.3-2.31.78-.07,1.53-.29,2.25-.66.36-.12.53-.33.62-.69l.11-1.85c-1.85,2.54-8.39,2.44-10.84.4Z"/>
      <path class="cls-8" d="M50.97,74.33l-.36-.07c-2.53,1.76-6.34,2.12-9.29,1.5,0-.25-.02-.4-.31-.5-1.44-.28-2.79-.68-3.84-1.69-.5.79-.45,1.58-.14,2.43.18.5.87.93,1.58,1.23,3.43,1.43,7.36,1.37,10.78-.06,1.2-.51,1.8-1.6,1.58-2.84Z"/>
      <path class="cls-8" d="M46.4,79.26c.1.25.15.37.15.37-1.39.47-3.07.39-4.53.21-.74-.09-1.39-.2-1.8-.81-1.11-.32-2.07-.7-3.1-1.25-.59,1.29-.09,2.62,1.17,3.15,3.84,1.61,8.06,1.56,11.86-.19.34-.87.19-1.72.03-2.66-1.27.59-2.44.99-3.79,1.18Z"/>
      <path class="cls-12" d="M45.5,88.76h.03c1.07-.17,2.11-.43,2.98-1.16l.17-4.79c-1.06.28-2.08.48-3.13.51l-.05,5.44Z"/>
      <path class="cls-12" d="M45.72,74.11c1.12-.11,2.27-.34,3.31-.87l.15-3.07c-.93.62-2.33.92-3.45,1.16,0,1.11,0,1.88,0,2.78Z"/>
      <path class="cls-17" d="M41,75.27c.02.23-.03.46.04.62.36.78,7.74.73,9.92-1.56-.06-.36-.21-.63-.62-.72-.25.53-.69.85-1.25,1.04-2.6.9-5.39,1.14-8.1.61Z"/>
      <path class="cls-8" d="M51.86,76.17c-.72,2.1-.14,2.48-.27,4.25.44.08.77-.07,1.01-.3.66-.61-.07-2.14.34-3.67.03-.5-.83-.76-1.08-.28Z"/>
      <path class="cls-17" d="M40.66,79.13c1.89.38,3.79.41,5.74.13.28.04.47.18.46.4-.02.9-6.32.77-6.61-.16-.04-.13-.02-.29-.03-.46l.44.1Z"/>
      <path class="cls-17" d="M51.86,76.17c.4-.03.7.18,1.08.28.1-.39.25-.79.18-1.19-.06-.36-.32-.7-.89-.75-.06.56-.18,1.1-.37,1.67Z"/>
    </g>
    <g>
      <path class="cls-14" d="M246.32,72.09l.15-3.63c.05-1.29-.68-2.32-1.9-2.84-5.16-2.2-11.72-.24-11.66,2.06l.11,4.47c-.56.23-1.04.55-1.35,1.07-1.03-.11-1.92.29-2.47,1.16h-3.7v6.15l4.02-.02c1.34,2.04,2.85.7,3.92,1.79l.25,5.78c.59.88,1.43,1.3,2.4,1.68,2.95,1.21,9.4.14,9.51-1.73l.37-6.08c1.91-.94,2.45-3.17,1.52-5.03.98-1.73.71-4.01-1.17-4.86Z"/>
      <path class="cls-8" d="M225.51,76.45v2.7h3.84v-2.68"/>
      <path class="cls-17" d="M229.35,75.74h-3.84v1.04h3.84v-1.04Z"/>
      <path class="cls-13" d="M238.01,88.76l-.3-.17v-3.71c-.34-.42-1.03-1.26-.35-1.57,2.49.03,4.85,0,7.27-.78l-.24,5.17c-1.9,1.2-4.2,1.39-6.38,1.06Z"/>
      <path class="cls-12" d="M245.07,68.72c-.49,1.2-2.63,1.57-3.85,1.72-1.84.23-4.59.08-6.16-.98-.49-.33-.7-.52-.83-1.14-.14-2.38,7.06-2.95,9.95-1.44.82.41,1.16,1.03.9,1.84Z"/>
      <path class="cls-13" d="M245.07,68.72l-.16,4.47c-2.26,1.02-4.72,1.15-7.11.92l-.29-.28c-.09-.78-.19-1.55-.3-2.31-.78-.07-1.53-.29-2.25-.66-.36-.12-.53-.33-.62-.69l-.11-1.85c1.85,2.54,8.39,2.44,10.84.4Z"/>
      <path class="cls-8" d="M232.54,74.33l.36-.07c2.53,1.76,6.34,2.12,9.29,1.5,0-.25.02-.4.31-.5,1.44-.28,2.79-.68,3.84-1.69.5.79.45,1.58.14,2.43-.18.5-.87.93-1.58,1.23-3.43,1.43-7.36,1.37-10.78-.06-1.2-.51-1.8-1.6-1.58-2.84Z"/>
      <path class="cls-8" d="M237.11,79.26c-.1.25-.15.37-.15.37,1.39.47,3.07.39,4.53.21.74-.09,1.39-.2,1.8-.81,1.11-.32,2.07-.7,3.1-1.25.59,1.29.09,2.62-1.17,3.15-3.84,1.61-8.06,1.56-11.86-.19-.34-.87-.19-1.72-.03-2.66,1.27.59,2.44.99,3.79,1.18Z"/>
      <path class="cls-12" d="M238.01,88.76h-.03c-1.07-.17-2.11-.43-2.98-1.16l-.17-4.79c1.06.28,2.08.48,3.13.51l.05,5.44Z"/>
      <path class="cls-12" d="M237.79,74.11c-1.12-.11-2.27-.34-3.31-.87l-.15-3.07c.93.62,2.33.92,3.45,1.16,0,1.11,0,1.88,0,2.78Z"/>
      <path class="cls-17" d="M242.51,75.27c-.02.23.03.46-.04.62-.36.78-7.74.73-9.92-1.56.06-.36.21-.63.62-.72.25.53.69.85,1.25,1.04,2.6.9,5.39,1.14,8.1.61Z"/>
      <path class="cls-8" d="M231.65,76.17c.72,2.1.14,2.48.27,4.25-.44.08-.77-.07-1.01-.3-.66-.61.07-2.14-.34-3.67-.03-.5.83-.76,1.08-.28Z"/>
      <path class="cls-17" d="M242.85,79.13c-1.89.38-3.79.41-5.74.13-.28.04-.47.18-.46.4.02.9,6.32.77,6.61-.16.04-.13.02-.29.03-.46l-.44.1Z"/>
      <path class="cls-17" d="M231.65,76.17c-.41-.03-.7.18-1.08.28-.1-.39-.25-.79-.18-1.19.06-.36.32-.7.89-.75.06.56.18,1.1.37,1.67Z"/>
    </g>
    <g>
      <rect class="cls-14" x="57.5" y="74.39" width="168.01" height="1.35"/>
      <rect class="cls-17" x="57.5" y="75.74" width="168.01" height="1.04"/>
      <rect class="cls-8" x="57.5" y="76.78" width="168.01" height="2.37"/>
      <rect class="cls-14" x="57.5" y="79.15" width="168.01" height="1.4"/>
    </g>
  </g>
  <g>
    <g>
      <path class="cls-6" d="M194.95,74.67s-1.2.24-2.26,1.16c-1.29,1.12-1.77,2.86-3.75,3.08-1.2.13-3.59.14-4.19-2.05-1.13-4.13,3.26-6.32,5.48-6.2,4.06.2,4.72,4.02,4.72,4.02"/>
      <path class="cls-18" d="M188.9,71.37c-1.05.29-2.2.93-2.95,1.86-.8,1-1.03,2.17-.67,3.48.45,1.64,2.21,1.8,3.6,1.65,1.11-.12,1.63-.8,2.3-1.65.34-.44.69-.9,1.16-1.3.7-.61,1.45-.95,1.95-1.12-.31-.94-1.3-2.95-4.07-3.09-.38-.02-.83.04-1.3.17M189.59,79.35c-.18.05-.38.09-.59.11-2.57.28-4.27-.59-4.78-2.46-.45-1.64-.15-3.18.88-4.46,1.35-1.69,3.67-2.52,5.16-2.44,4.45.22,5.23,4.43,5.23,4.47.05.29-.14.58-.43.63-.02,0-1.08.24-2,1.04-.38.33-.69.72-1.01,1.14-.6.77-1.27,1.63-2.46,1.96"/>
      <path class="cls-18" d="M189.64,79.36c-.26.07-.53-.05-.65-.3-.67-1.46-.55-3.76.3-5.74.63-1.46,1.54-2.46,2.56-2.8.29-.1.6.06.7.35.1.29-.06.6-.35.7-.71.24-1.41,1.04-1.9,2.19-.72,1.68-.85,3.67-.31,4.84.13.28,0,.6-.27.73-.03.01-.06.02-.08.03"/>
      <path class="cls-18" d="M187.97,79.48c-.2.06-.43,0-.57-.18-1.48-1.79-1.76-4.15-1.53-5.77.18-1.24.65-2.21,1.3-2.64.25-.17.6-.1.77.15.17.25.1.6-.15.77-.28.19-.67.8-.83,1.89-.2,1.39.03,3.4,1.29,4.91.19.23.16.58-.07.78-.06.05-.13.09-.21.11"/>
    </g>
    <path class="cls-9" d="M189.82,78.07c-.11-.44-.16-.94-.15-1.48,1.06-.94,1.64-2.21,2.68-2.88.16-.1.33-.18.51-.23.34-.09.71-.09,1.06-.04.18.32.29.61.37.84-.5.18-1.25.51-1.95,1.12-.46.4-.82.86-1.16,1.3-.44.57-.83,1.06-1.36,1.36M188.59,77.44s-.09-.05-.13-.07c.04-.02.08-.04.12-.05,0,.04,0,.08.01.13"/>
  </g>
  <path class="cls-5" d="M198.59,107.5c5.42-11.52,2.65-24.65,3.73-29.7.91-4.26,6.22-5.75,8.77-2.81,2.38,2.74,7.67,16.63,4.42,27.6l-16.92,4.91"/>
  <path class="cls-18" d="M198.73,108.04c-.12.03-.26.03-.38-.03-.28-.13-.39-.46-.26-.73,3.67-7.81,3.53-16.38,3.42-22.64-.05-2.96-.09-5.3.26-6.94.48-2.25,2.17-4.01,4.4-4.59,2.04-.53,4.04.04,5.33,1.53,2.46,2.83,7.85,16.9,4.54,28.12-.09.29-.39.46-.68.37-.29-.09-.46-.39-.37-.68,1.74-5.89.9-12.28-.11-16.61-1.17-5.02-3.04-9.14-4.2-10.48-1.01-1.16-2.59-1.61-4.22-1.19-1.83.47-3.2,1.91-3.6,3.75-.32,1.52-.28,3.92-.24,6.69.11,6.37.25,15.1-3.53,23.13-.07.15-.2.26-.35.3"/>
  <path class="cls-10" d="M198.8,89.01c-.03-.08-.06-.16-.09-.24,0-.12,0-.24,0-.35.03.19.05.39.08.59"/>
  <path class="cls-10" d="M203.66,96.64c-.3-.03-.8-.07-1.47-.1.55-4.35.48-8.49.42-11.94,0-.25,0-.5-.01-.75.08.34.16.69.24,1.04,1.01,4.43,2.27,9.91.82,11.75"/>
  <path class="cls-18" d="M202.19,96.55c-.33-.01-.71-.02-1.11-.02.56-4.32.49-8.46.43-11.9-.01-.89-.03-1.73-.03-2.51.26.05.51.1.77.15.11.51.23,1.04.35,1.59,0,.25,0,.5.01.75.06,3.45.13,7.59-.42,11.94"/>
  <path class="cls-6" d="M202.26,79.02s-2.05-3.82-.35-6.41c1.99-3.03,6.74-1.43,9.2,2.83l-8.85,3.58"/>
  <path class="cls-18" d="M202.41,79.55c-.24.07-.51-.04-.63-.27-.09-.17-2.18-4.15-.32-6.98.79-1.21,2.04-1.85,3.52-1.81,2.42.07,5.02,1.9,6.61,4.67.15.26.06.6-.2.75-.26.15-.6.06-.75-.2-1.39-2.4-3.67-4.06-5.69-4.12-.76-.02-1.83.19-2.57,1.31-1.5,2.28.36,5.81.37,5.85.14.27.04.6-.23.75-.04.02-.08.04-.11.05"/>
  <path class="cls-5" d="M207.76,73.25c-.97-.18-4.54.09-5.46,3.99-.84,3.52,4.76,16.93,1.57,19.98,0,0-10.55-1.38-16.44,4.67l-12.59,13.88c9.35,15.78,25.93,18.85,38.75,10.53,8.7-5.65,9.19-14.82,9.22-19.49.06-9.56-8.52-32.38-15.05-33.57Z"/>
  <path class="cls-5" d="M213.56,78.68c-1.94-3.02-3.95-5.1-5.8-5.43-.97-.18-4.54.09-5.46,3.99-.19.8-.05,2.1.24,3.67,1,5.38,3.79,13.95,1.33,16.31,0,0-1.73-.23-4.17-.09-3.6.19-8.76,1.16-12.27,4.77l-9.89,10.91-1.34,1.47-1.36,1.5c.13.22.27.45.4.66.22.35.44.7.67,1.04,3.81,5.73,8.65,9.57,13.86,11.6,7.78,3.03,16.42,2.02,23.81-2.78,8.7-5.65,9.19-14.82,9.22-19.49.04-6.85-4.35-20.51-9.25-28.14Z"/>
  <path class="cls-3" d="M202.84,79.25c-.09-.79-.11-1.44,0-1.88.53-2.23,1.95-3.09,3.11-3.41.93-.26,1.7-.17,1.71-.17,1.03.19,2.18,1.02,3.39,2.4-1.33-1-2.69-1.6-4.26-1.16-.24.07-.49.16-.74.28-1.74.81-2.66,2.37-3.21,3.95"/>
  <path class="cls-10" d="M213.91,122.7c-2.44,1.58-4.98,2.73-7.57,3.44-5.66,1.56-11.99.97-17.71-1.51.16.99.06,2.12.07,2.13.24.65.12.83.3,1.47,1.18.66,3.26,1.14,4.31,1.38,4.05.95,8.23.84,12.26-.27,2.66-.73,5.26-1.9,7.71-3.49,7.97-5.17,8.93-13.34,8.97-19.03,0-.21,0-.42,0-.65.09,5.17-1.07,11.81-8.34,16.53Z"/>
  <path class="cls-18" d="M218.26,86.68c-1.65-3.93-5.96-13.17-10.4-13.98-1.02-.19-5.05.01-6.1,4.41-.36,1.51.31,4.42,1.08,7.78,1.01,4.43,2.27,9.91.82,11.75-1.79-.18-11.08-.82-16.62,4.87-.21.22-.21.57.01.78.22.21.57.21.78-.01,5.63-5.79,15.87-4.52,15.98-4.51.17.02.33-.03.45-.15,2.15-2.07.89-7.61-.34-12.98-.71-3.09-1.38-6.02-1.08-7.28.96-4.02,4.79-3.59,4.83-3.58,2.71.5,6.3,5.47,9.58,13.32,3.02,7.22,5.04,15.14,5.01,19.71-.03,5.69-1,13.86-8.97,19.03-6.16,4-13.25,5.34-19.97,3.77-7.32-1.71-13.55-6.59-18.01-14.11-.16-.26-.49-.35-.76-.19-.26.16-.35.49-.19.76,4.55,7.68,11.19,12.87,18.7,14.63,4.23.99,8.6.88,12.8-.28,2.77-.76,5.47-1.98,8.02-3.63,8.41-5.46,9.43-14,9.47-19.95.03-4.7-2.02-12.8-5.1-20.14Z"/>
  <path class="cls-5" d="M188.69,125.68c-.14-.52-.26-1.11-.26-1.64l-10.89-11.23-.08-.08c-.5.49-.91,1.01-1.26,1.56-.42.68-.74,1.4-.95,2.16-.1.34-.18.68-.24,1.04-.39,2.23-.12,4.76.37,7.48,3.15,1.12,6.27,2.35,9.32,3.6.92-1.24,3.26-1.52,4-2.89Z"/>
  <path class="cls-18" d="M175.55,117.58c.06-.34.14-.67.23-.98.21-.73.51-1.41.89-2.02.27-.43.58-.84.94-1.22.11-.02.22-.07.31-.15.22-.21.22-.56.01-.78l-.47-.48-.4.39c-.52.51-.97,1.07-1.34,1.66-.44.7-.78,1.47-1.02,2.3-.1.35-.19.72-.25,1.1-.39,2.23-.14,4.72.32,7.37.4.14.8.28,1.2.42-.51-2.78-.82-5.37-.43-7.6Z"/>
  <path class="cls-18" d="M188.91,124.01c0-.3-.19-.52-.49-.52-.31,0-.55.25-.54.56,0,.45.09.94.19,1.39.32-.2.52-.31.87-.49-.02-.45-.02-.68-.02-.95Z"/>
  <path class="cls-10" d="M182.85,116.5c-.47.13-.93.24-1.4.35l-2.19-2.26c1.75-.67,3.51-1.49,5.27-2.45,7.06-3.82,12.39-8.87,14.29-14.38.32-.03.62-.05.92-.07.3,7.71-5.16,14.56-14.43,18.01-.82.3-1.64.57-2.46.79"/>
  <path class="cls-18" d="M199.73,97.69c-.3.02-.6.04-.92.07.07-.19.13-.38.19-.58.24-.02.47-.03.7-.05.01.19.02.37.03.56"/>
  <path class="cls-10" d="M181.45,116.84h0c-1.87.42-3.72.63-5.53.64-.12,0-.23,0-.35,0,.06-.31.13-.61.21-.89.09-.33.21-.65.34-.95,1.04-.3,2.09-.65,3.14-1.06l2.19,2.26"/>
  <path class="cls-18" d="M175.57,117.49c-.19,0-.37,0-.56,0,.06-.35.14-.7.24-1.04-.1-.16-.2-.32-.3-.49.28-.07.57-.14.85-.22.1-.03.21-.06.31-.09-.13.31-.24.62-.34.95-.08.29-.15.59-.21.89"/>
  <path class="cls-5" d="M197.86,86.94c5.11,9.44-1.81,18.96-13.34,25.2-11.52,6.24-23.28,6.84-28.39-2.6-4.9-9.04-4.62-22.55,8.16-30.56,1.16-1.68,2.56-4.27,2.65-7.03.03-.86,1.05-1.29,1.68-.7.84.78,1.81,1.88,2.05,3.86,1.3-1.82,2.53-3.75,2.83-4.58.32-.89,1.55-.97,1.97-.12.41.82,1.04,2.68,1.48,4.3,9.53-.52,17.16,5.3,20.91,12.24"/>
  <path class="cls-7" d="M153.62,102.49s0,0,0,0c0,0,0,0,0,0M153.62,102.48c-1.07-5.59-.22-11.77,3.64-17.07,0,0,0,0,0,0-3.86,5.3-4.71,11.48-3.64,17.07M160.38,81.93h0c.96-.87,2.02-1.71,3.19-2.49-1.17.78-2.24,1.62-3.19,2.49"/>
  <path class="cls-19" d="M157.26,85.41c.88-1.21,1.92-2.37,3.12-3.48h0c-1.21,1.1-2.24,2.26-3.12,3.47,0,0,0,0,0,0"/>
  <path class="cls-1" d="M198.69,88.73h0s0,0,0,0M198.68,88.71s0,0,0,0c0,0,0,0,0,0M198.68,88.69s0,0,0,0c0,0,0,0,0,0M198.67,88.68s0,0,0,0c0,0,0,0,0,0M198.66,88.66s0-.02-.01-.03c0,.01,0,.02.01.03M198.65,88.62s0,0,0-.01c0,0,0,0,0,.01M198.64,88.61c-.16-.41-.34-.81-.54-1.21.2.4.38.81.54,1.21M198.1,87.39s0,0,0-.01c0,0,0,0,0,.01M198.09,87.38s0-.02-.01-.03c0,0,0,.02.01.03M198.08,87.35s0,0,0-.01c0,0,0,0,0,.01M198.07,87.34s0,0,0-.01c0,0,0,0,0,.01M198.06,87.32s0-.01-.01-.02c0,0,0,.01.01.02M198.05,87.3s0,0,0,0c0,0,0,0,0,0M198.04,87.28s0,0,0,0c0,0,0,0,0,0M198.03,87.26s0-.01,0-.02c0,0,0,.01,0,.02M198.02,87.24s0,0,0,0c0,0,0,0,0,0M198.01,87.22s0,0,0,0c0,0,0,0,0,0M198,87.2s0,0,0,0c0,0,0,0,0,0M197.99,87.18s0,0,0,0c0,0,0,0,0,0M197.99,87.17s0,0,0,0c0,0,0,0,0,0M197.97,87.14s0,0,0,0c0,0,0,0,0,0M197.96,87.13s0,0,0,0c0,0,0,0,0,0M197.96,87.11s0,0,0,0c0,0,0,0,0,0M197.94,87.09s0,0,0,0c0,0,0,0,0,0M197.94,87.07s0,0,0,0c0,0,0,0,0,0M197.92,87.05s0,0,0,0c0,0,0,0,0,0M197.91,87.03s0,0,0,0c0,0,0,0,0,0M197.91,87.01s0,0,0,0c0,0,0,0,0,0M197.89,86.99s0,0,0,0c0,0,0,0,0,0M197.88,86.98s0,0,0,0c0,0,0,0,0,0M197.88,86.96s0,0,0,0c0,0,0,0,0,0"/>
  <path class="cls-7" d="M163.57,79.44s.05-.03.07-.05c-.02.02-.05.03-.07.05M163.65,79.39s.01,0,.02-.01c0,0-.01,0-.02.01M163.67,79.38s.04-.02.05-.04c-.02.01-.04.02-.05.04M163.72,79.34s.01,0,.02-.01c0,0-.01,0-.02.01M163.74,79.33s.04-.02.05-.03c-.02.01-.04.02-.05.03M163.79,79.3s0,0,.01,0c0,0,0,0-.01,0M163.81,79.28s0,0,.01,0c0,0,0,0-.01,0M163.83,79.27s.02-.02.03-.02c-.01,0-.02.02-.03.02M163.87,79.25s0,0,.01,0c0,0,0,0-.01,0M163.89,79.24s0,0,.01,0c0,0-.01,0-.01,0M163.9,79.23s.02-.01.03-.02c-.01,0-.02.02-.03.02M163.94,79.2s0,0,.01,0c0,0,0,0-.01,0M163.96,79.19s0,0,.02,0c0,0-.01,0-.02,0M163.98,79.18s.02-.02.04-.02c-.01,0-.02.01-.04.02M164.01,79.15s0,0,.01,0c0,0,0,0-.01,0M164.03,79.14s0,0,.01,0c0,0,0,0-.01,0M164.05,79.13s.02-.01.03-.02c-.01,0-.02.01-.03.02M164.09,79.1s0,0,.01,0c0,0,0,0-.01,0M164.11,79.09s0,0,.01,0c0,0,0,0-.01,0M164.12,79.08s.02-.01.03-.02c-.01,0-.02.01-.03.02M164.16,79.06s0,0,.01,0c0,0,0,0-.01,0M164.18,79.05s0,0,.01,0c0,0,0,0-.01,0M164.2,79.04s.02-.01.03-.02c-.01,0-.02.01-.03.02M164.24,79.01s0,0,.01,0c0,0,0,0-.01,0M164.26,79s0,0,.01,0c0,0,0,0-.01,0M164.27,78.99s.01,0,.02-.01c0,0-.01,0-.02.01"/>
  <path class="cls-1" d="M199.46,91.7c-.28-1-.69-2-1.23-3-3.53-6.53-11.2-12.18-20.02-12.39-1-.02-1.88-.69-2.15-1.65-.31-1.09-.63-2.1-.9-2.64-.21-.42-.46-.58-.69-.51s-.45.34-.61.79c-.23.65-1.03,1.97-2,3.39-.09.14-.22.22-.36.26-.31.08-.66-.06-.78-.4-.41-1.17-1.12-1.94-1.74-2.52-.29-.27-.55-.41-.76-.35-.24.07-.4.4-.42,1.11-.05,1.84-.92,3.57-1.84,5.03-.73,1.16-1.7,2.15-2.82,2.95-8.3,5.96-10.53,14.45-9.26,21.97-.1-.41-.19-.82-.27-1.23,0,0,0,0,0,0,0,0,0,0,0,0-1.07-5.59-.22-11.77,3.64-17.07.88-1.21,1.92-2.37,3.12-3.47.96-.87,2.02-1.71,3.19-2.49h0s.05-.03.07-.05h0s.01,0,.02-.01h0s.04-.02.05-.04h0s.01,0,.02-.01h0s.04-.02.05-.04c0,0,0,0,0,0,0,0,0,0,.01,0,0,0,0,0,0,0,0,0,.01,0,.01,0,0,0,0,0,0,0,.01,0,.02-.02.03-.02,0,0,0,0,0,0,0,0,0,0,.01,0,0,0,0,0,0,0,0,0,0,0,.01,0,0,0,0,0,0,0,.01,0,.02-.02.03-.02,0,0,0,0,0,0,0,0,0,0,.01,0,0,0,0,0,0,0,0,0,.01,0,.02,0,0,0,0,0,0,0,.01,0,.02-.01.04-.02,0,0,0,0,0,0,0,0,0,0,.01,0,0,0,0,0,0,0,0,0,0,0,.01,0,0,0,0,0,0,0,.01,0,.02-.01.03-.02,0,0,0,0,0,0,0,0,0,0,.01,0,0,0,0,0,0,0,0,0,0,0,.01,0,0,0,0,0,0,0,.01,0,.02-.01.03-.02,0,0,0,0,0,0,0,0,0,0,.01,0,0,0,0,0,0,0,0,0,0,0,.01,0,0,0,0,0,0,0,.01,0,.02-.01.03-.02,0,0,0,0,0,0,0,0,0,0,.01,0,0,0,0,0,0,0,0,0,0,0,.01,0,0,0,0,0,0,0,0,0,.01,0,.02-.01h0c1.16-1.68,2.56-4.27,2.65-7.03.02-.48.34-.83.74-.94.31-.09.66-.02.94.24.69.65,1.48,1.52,1.87,2.91.05.2.1.4.14.62.02.1.03.21.05.32h0c1.3-1.82,2.53-3.75,2.83-4.58.13-.36.41-.59.72-.68.46-.13,1,.05,1.25.55.4.8,1.01,2.6,1.45,4.18l.03.11h0c9.53-.52,17.16,5.3,20.91,12.24,0,0,0,.01,0,.02,0,0,0,0,0,0,0,0,0,0,0,.01,0,0,0,0,0,0,0,0,0,.01,0,.02t0,0s0,.01,0,.02c0,0,0,0,0,0,0,0,0,0,0,.01,0,0,0,0,0,0,0,0,0,.01,0,.02,0,0,0,0,0,0,0,0,0,0,0,.01,0,0,0,0,0,0,0,0,0,0,0,.01,0,0,0,0,0,0,0,0,0,.01,0,.02,0,0,0,0,0,0,0,0,0,0,0,.01,0,0,0,0,0,0,0,0,0,0,0,.01,0,0,0,0,0,0,0,0,0,.01,0,.02,0,0,0,0,0,0,0,0,0,0,0,0,0,0,0,0,0,0,0,0,0,0,0,0,0,0,0,0,0,0,0,0,0,0,0,.01,0,0,0,0,0,0,0,0,0,0,0,0,0,0,0,0,0,0,0,0,0,0,0,0,0,0,0,.01,0,.02,0,0,0,0,0,0,0,0,0,0,0,0,0,0,0,0,0,0,0,0,0,0,0,0,0,0,0,0,0,0,0,0,0,.01.01.02,0,0,0,0,0,0,0,0,0,0,0,.01,0,0,0,0,0,0,0,0,0,0,0,.01h0s0,.02.01.03c0,0,0,0,0,0,0,0,0,0,0,.01,0,0,0,0,0,0,.2.41.38.81.54,1.21,0,0,0,0,0,0,0,0,0,0,0,.01,0,0,0,0,0,0,0,.01,0,.02.01.03,0,0,0,0,0,0,0,0,0,0,0,0,0,0,0,0,0,.01,0,0,0,0,0,0,0,0,0,.01,0,.02,0,0,0,0,0,0,0,0,0,.01,0,.02h0c.38,1,.63,1.99.77,2.98"/>
  <path class="cls-2" d="M193.05,87.89c1.49,2.75,2.26,6.16,1,9.8-1.28,3.72-4.69,7.68-11.6,11.43h0c-6.84,3.71-11.98,4.42-15.79,3.5-3.8-.91-6.28-3.44-7.78-6.22-.31-.56-.56-1.15-.76-1.73-1.79-5.2.38-11.08,5.38-13.78,2.73-1.48,5.8-1.73,8.57-.95.86-2.75,2.74-5.18,5.48-6.66,4.93-2.67,10.95-1.35,14.35,2.87h0c.43.54.82,1.12,1.16,1.75"/>
  <path class="cls-18" d="M178.85,96.39c.46.86-.12,2.5-1.53,3.27-1.41.76-3.11.35-3.57-.51-.46-.86.48-1.83,1.89-2.6,1.41-.76,2.74-1.02,3.21-.16"/>
  <path class="cls-11" d="M175.88,97.89c-.39.11-.73.07-.8-.07-.11-.2.31-.54.88-.85.28-.15.54-.27.75-.33.22-.06.39-.06.44.05.11.2-.23.69-.8,1-.16.09-.32.15-.47.19"/>
  <path class="cls-20" d="M172.53,99.19c1.19,3.21-.83,5.21-3.28,8.17-1.54,1.85-2.26,3.76-2.58,5.27-3.8-.91-6.28-3.44-7.78-6.22-.31-.56-.56-1.15-.76-1.73.81-2.92,2.73-6.34,7.2-8.11,3.27-1.29,6.37.32,7.22,2.63h0Z"/>
  <path class="cls-20" d="M193.05,87.89c1.49,2.75,2.26,6.16,1,9.8-1.43-.53-3.38-.94-5.72-.67-3.82.44-6.59,1.04-8.63-1.71-1.47-1.97-1.13-5.45,1.74-7.48,3.8-2.69,7.59-2.53,10.45-1.68h0c.43.54.82,1.12,1.16,1.75h0Z"/>
  <path class="cls-18" d="M197.99,99.29c.25-.76.48-1.52.66-2.28.17-.77.28-1.54.35-2.31.05-.77.04-1.54-.03-2.31-.07-.77-.23-1.52-.43-2.26l-.17-.55c-.06-.18-.13-.36-.2-.54l-.1-.27c-.04-.09-.08-.18-.11-.27l-.23-.53c-.18-.34-.34-.69-.54-1.03-.19-.34-.39-.68-.59-1.02-.83-1.33-1.78-2.59-2.86-3.74-2.15-2.29-4.76-4.15-7.65-5.36-2.89-1.22-6.05-1.75-9.18-1.57-.3.02-.56-.21-.58-.52h0s0-.01,0-.01c-.02-.45-.12-.94-.26-1.41-.14-.48-.31-.95-.51-1.42-.1-.23-.2-.47-.31-.7l-.16-.35-.08-.17s-.02-.04-.03-.06c0-.01-.02-.03-.02-.04-.07-.11-.18-.17-.3-.2-.12-.02-.27,0-.38.05-.11.06-.19.15-.24.29-.09.25-.19.5-.29.75-.2.5-.42.99-.67,1.48-.25.48-.53.96-.86,1.41-.33.45-.72.88-1.19,1.25-.24.18-.58.14-.77-.1-.07-.09-.1-.19-.11-.29v-.02s-.02-.13-.03-.2c-.01-.07-.02-.14-.04-.22-.03-.15-.07-.29-.11-.44-.09-.29-.19-.57-.31-.85-.25-.55-.59-1.05-1-1.48-.1-.11-.22-.2-.32-.31-.06-.06-.09-.07-.12-.1-.04-.02-.07-.04-.11-.05-.14-.05-.31-.03-.43.06-.06.04-.1.1-.13.16-.02.03-.02.07-.03.1l-.02.18-.04.52-.02.26c0,.09-.03.17-.04.26-.06.34-.11.69-.21,1.02-.05.17-.08.34-.14.5l-.17.49-.09.25-.1.24-.2.48-.23.46-.12.23-.13.22c-.34.6-.73,1.16-1.16,1.7-.11.13-.21.27-.33.4-.11.13-.23.26-.34.38-.24.25-.47.49-.76.74l.19-.53h0c.05.22-.05.44-.22.56h0c-2.17,1.54-4.15,3.37-5.69,5.53-1.55,2.15-2.69,4.58-3.32,7.16-.63,2.57-.76,5.26-.44,7.9.33,2.63,1.1,5.22,2.26,7.6l.46.88c.16.28.32.57.5.85.35.55.73,1.08,1.16,1.58.43.49.88.96,1.38,1.38.5.42,1.03.8,1.58,1.14,1.11.67,2.34,1.16,3.61,1.47.64.15,1.28.27,1.94.35.65.08,1.31.11,1.97.12,1.32,0,2.65-.11,3.96-.34.33-.06.66-.12.98-.19.16-.04.33-.07.48-.11.16-.04.32-.08.48-.13.65-.18,1.29-.37,1.93-.57,1.28-.41,2.55-.84,3.81-1.3,1.26-.46,2.51-.95,3.77-1.45h0c.1-.04.2,0,.24.1.03.08,0,.16-.06.21-1.08.87-2.3,1.54-3.55,2.12-1.26.57-2.55,1.04-3.87,1.44-.66.2-1.32.38-1.99.54l-.5.12c-.17.04-.35.07-.51.11-.34.07-.68.13-1.02.19-1.37.22-2.76.36-4.15.35-.7,0-1.4-.04-2.09-.12-.7-.08-1.39-.2-2.07-.37-1.37-.34-2.7-.86-3.91-1.6-.61-.37-1.18-.78-1.73-1.24-.54-.46-1.04-.97-1.5-1.5-.46-.53-.88-1.11-1.25-1.7-.19-.29-.36-.6-.54-.91-.16-.31-.32-.62-.48-.93-1.22-2.5-2.03-5.19-2.37-7.95-.34-2.76-.21-5.58.46-8.29.66-2.71,1.86-5.28,3.5-7.54,1.62-2.27,3.69-4.18,5.95-5.78l-.22.56h0c-.04-.2.03-.4.18-.53h0c.21-.19.45-.42.66-.65.11-.11.21-.23.32-.35.1-.12.2-.24.3-.36.39-.49.76-1.01,1.06-1.56l.12-.2.11-.21.21-.42.18-.43.09-.22.08-.22.15-.44c.05-.15.08-.3.12-.45.09-.3.13-.61.19-.91.01-.08.03-.15.04-.23l.02-.23.04-.46v-.13s.03-.19.03-.19c.02-.12.05-.25.11-.37.1-.24.27-.45.48-.6.41-.31.97-.39,1.45-.22.12.04.23.1.34.16.1.07.21.15.26.21.13.13.27.24.39.37.5.52.91,1.13,1.2,1.78.15.32.27.66.37,1,.05.17.09.35.13.52.02.09.03.18.05.27.01.09.03.18.04.29l-.88-.4c.71-.55,1.28-1.4,1.74-2.29.23-.45.44-.91.63-1.38.1-.24.18-.48.27-.71.12-.36.4-.7.75-.89.35-.19.76-.24,1.14-.16.39.09.75.33.97.65l.08.12s.05.09.06.11l.09.18.17.36c.11.24.22.49.33.74.21.5.4,1.01.55,1.54.15.53.27,1.08.3,1.67l-.58-.53c1.65-.09,3.3-.01,4.93.27.41.06.81.16,1.21.24.4.1.8.19,1.2.32.79.23,1.57.51,2.33.83,3.05,1.27,5.78,3.23,8.04,5.62,1.13,1.19,2.15,2.49,3.04,3.88.44.69.84,1.41,1.21,2.17.35.76.66,1.54.87,2.35.21.81.36,1.64.42,2.48.02.21.02.42.02.63v.31s0,.31,0,.31c-.01.21-.01.42-.04.63-.02.21-.05.42-.07.62-.12.83-.33,1.64-.6,2.42-.29.78-.64,1.52-1.06,2.22-.05.09-.17.12-.25.06-.08-.05-.11-.14-.08-.22h0Z"/>
  <path class="cls-18" d="M164.06,103.62c.03-.19.06-.32.11-.48.04-.15.1-.29.15-.44.06-.14.13-.28.2-.42.07-.14.15-.27.23-.4.34-.52.78-.99,1.29-1.36.25-.2.54-.35.82-.5.3-.12.59-.25.91-.31.62-.16,1.27-.15,1.86-.03.32.07.53.38.47.71-.04.19-.17.35-.34.42l-.1.04c-.12.05-.24.1-.36.14-.12.04-.23.07-.34.13-.11.05-.22.09-.33.13-.11.04-.21.1-.31.14-.21.08-.4.21-.6.31-.19.12-.38.23-.56.37-.36.26-.71.56-1.05.89l-.25.26c-.08.09-.17.18-.25.27l-.12.14s-.08.09-.12.14c-.08.09-.16.2-.23.26l-.12.11c-.24.22-.61.21-.83-.03-.13-.14-.18-.33-.15-.5h0Z"/>
  <path class="cls-18" d="M188.07,91.62c-.09.02-.23.03-.35.05-.06.01-.12.02-.18.02l-.18.03c-.12.02-.24.04-.36.06l-.35.07c-.46.1-.9.23-1.32.39-.21.07-.41.18-.61.27-.19.11-.4.2-.59.33-.09.06-.2.11-.29.18-.09.07-.19.14-.29.2-.11.06-.19.14-.29.22-.1.08-.2.15-.31.22l-.09.06c-.28.18-.65.1-.83-.18-.11-.17-.12-.37-.05-.54.22-.57.57-1.12,1.04-1.55.22-.23.49-.41.76-.59.28-.15.56-.32.87-.42.6-.23,1.23-.34,1.85-.34.16,0,.31,0,.46.02.15.02.31.03.46.07.15.03.3.06.45.11.15.05.29.09.46.17.3.13.43.48.3.77-.08.17-.23.29-.4.34l-.16.04h0Z"/>
  <path class="cls-18" d="M181.46,100.26c-.05.17-.1.3-.17.44-.06.14-.13.27-.2.4-.15.26-.32.51-.52.74-.39.46-.88.87-1.45,1.17-.59.3-1.21.46-1.82.5-.31.02-.61.02-.91-.02-.15-.02-.3-.04-.44-.07-.15-.03-.28-.07-.45-.12-.29-.1-.45-.41-.35-.7.06-.18.21-.31.38-.36l.11-.03c.1-.03.23-.05.35-.07.12-.02.24-.05.36-.07.24-.05.47-.11.7-.17.45-.12.87-.27,1.24-.47.38-.2.75-.46,1.12-.75.18-.15.37-.3.55-.46.09-.08.18-.16.27-.25.09-.08.19-.18.27-.24l.1-.07c.24-.19.59-.14.78.1.11.15.14.34.09.5h0Z"/>
  <path class="cls-18" d="M203.63,74.02c-.08.02-.16.07-.23.14.13-.13.31-.18.48-.15-.08-.01-.16-.01-.25,0h0ZM203.92,75.09c-.12.03-.24.03-.36-.02-.4-.16-1.42-1.73-1.47-3.26,0-.3.23-.56.53-.57.3,0,.56.23.57.53.03,1.12.75,2.15.92,2.35.02.02.04.03.06.05.21.22.2.57-.02.78-.07.06-.15.11-.24.13h0Z"/>
  <path class="cls-18" d="M206.8,73.78c-.24.07-.51-.04-.63-.27-.01-.02-.7-1.28-1.9-1.97-.26-.15-.36-.49-.21-.75.15-.26.49-.36.75-.21,1.5.85,2.3,2.35,2.33,2.41.14.27.04.6-.23.74-.04.02-.07.03-.11.04h0Z"/>
  <path class="cls-6" d="M177.27,145.21s.04,7.02.77,6.07c.73-.95,1.19-3.1,1.32-3.06s.66,4.1,1.38,3.49c.72-.61,1.86-3.26,1.86-3.26,0,0,.87,3.74,1.47,2.9.6-.84.8-4.16.8-4.16l-7.6-1.99"/>
  <path class="cls-15" d="M176.5,134.97c.31,5.74-.73,11.42,3.45,13.08,4.18,1.66,6.68-1.34,7.91-9.03.77-4.81.7-10.71.54-14.47-4.13.67-9.02-1.88-13.12-.31.22,2.21,1.08,8.14,1.22,10.72Z"/>
  <path class="cls-16" d="M185.01,140.2c-.08.31-.16.61-.25.89-1.42,4.68-3.97,5.91-5.21,6.23.18.1.37.19.57.27,1.38.55,2.51.55,3.48,0,1.19-.67,2.15-2.24,2.89-4.66.35-1.14.64-2.47.88-3.99.75-4.72.69-10.56.54-14.31,0,0-.01,0-.02,0-.96.15-1.67.98-1.66,1.96.04,4.55-.26,9.75-1.23,13.61Z"/>
  <path class="cls-4" d="M176.99,134.94c.06,1.19.07,2.37.08,3.51.02,3.59.04,6.76,1.84,8.39-.18-.73-1.44-4.19-1.15-6.53.76-6.16-2.54-20.19-1.24-22.81-.28.09-.67-.11-.95-.01-.8,4.32,1.28,14.83,1.43,17.45Z"/>
  <path class="cls-18" d="M176.99,134.94c.06,1.19.07,2.37.08,3.51.02,4.26.04,7.95,3.06,9.14,1.38.55,2.51.55,3.48,0,1.74-.99,3.01-3.9,3.77-8.65.75-4.72.67-10.84.52-14.58.33-.05.7.16,1.02.11.16,3.79.2,9.78-.57,14.63-.82,5.13-2.21,8.19-4.26,9.35-1.22.69-2.68.71-4.32.06-3.63-1.44-3.66-5.62-3.68-10.05,0-1.13-.01-2.3-.08-3.46l-1.28-10.63.88-.24"/>
  <path class="cls-18" d="M187.91,124.63c.33-.05.65-.11.97-.16"/>
  <path class="cls-18" d="M184.82,150.83c-.1.33-.22.61-.35.8-.26.36-.59.34-.72.32-.18-.04-.68-.13-1.28-2.07-.41.82-.96,1.81-1.42,2.2-.2.17-.45.22-.69.14-.5-.17-.78-.87-1.11-2.31-.22.59-.49,1.23-.83,1.67-.28.36-.61.28-.7.25-.4-.13-.69-.47-.86-3.59-.08-1.51-.09-3.01-.09-3.03,0-.27.22-.49.49-.49.27,0,.49.22.49.49.01,1.87.11,4,.27,5.1.23-.51.43-1.11.58-1.55.07-.21.13-.4.18-.53.2-.51.49-.54.71-.48.32.1.35.28.54,1.15.1.5.35,1.69.59,2.22.48-.61,1.16-2,1.52-2.85.08-.19.28-.31.49-.29.21.02.39.17.43.38.22.93.52,1.88.76,2.37.27-.8.48-2.44.55-3.54.02-.27.25-.48.52-.46.27.02.48.25.46.52-.03.46-.17,2.37-.54,3.61h0Z"/>
</svg>