<?xml version="1.0" encoding="UTF-8"?>
<svg id="Vrstva_1" data-name="Vrstva 1" xmlns="http://www.w3.org/2000/svg" viewBox="0 0 602.21 93.43">
  <defs>
    <style>
      .cls-1 {
        fill: #abc7e9;
      }

      .cls-2 {
        fill: #cca7a7;
      }

      .cls-3 {
        fill: #fff;
      }

      .cls-4 {
        fill: #68a930;
      }

      .cls-5 {
        fill: #9d4f3e;
      }

      .cls-6 {
        fill: #e59147;
      }

      .cls-7 {
        fill: #b75c27;
      }

      .cls-8 {
        fill: #b37e7f;
      }

      .cls-9 {
        fill: #d1b3b3;
      }

      .cls-10 {
        fill: #e1bea7;
      }

      .cls-11 {
        fill: #381b15;
      }

      .cls-12 {
        fill: #b37059;
      }

      .cls-13 {
        fill: #7a7db3;
      }

      .cls-14 {
        fill: #bad27a;
      }

      .cls-15 {
        fill: #64140e;
      }

      .cls-16 {
        fill: #fffbfc;
      }

      .cls-17 {
        fill: #c99c8c;
      }

      .cls-18 {
        fill: #edc28e;
      }

      .cls-19 {
        fill: #977761;
      }
    </style>
  </defs>
  <g>
    <g>
      <path class="cls-11" d="M19.37,41.32l-.15-3.63c-.05-1.29.68-2.32,1.9-2.84,5.16-2.2,11.72-.24,11.66,2.06l-.11,4.47c.56.23,1.04.55,1.35,1.07,1.03-.11,1.92.29,2.47,1.16h6.27v6.15l-6.59-.02c-1.34,2.04-2.85.7-3.92,1.79l-.25,5.78c-.59.88-1.43,1.3-2.4,1.68-2.95,1.21-9.4.14-9.51-1.73l-.37-6.08c-1.91-.94-2.45-3.17-1.52-5.03-.98-1.73-.71-4.01,1.17-4.86Z"/>
      <path class="cls-4" d="M42.76,45.69v2.7h-6.41v-2.68"/>
      <path class="cls-14" d="M36.35,44.97h6.41v1.04h-6.41v-1.04Z"/>
      <path class="cls-7" d="M27.68,58l.3-.17v-3.71c.34-.42,1.03-1.26.35-1.57-2.49.03-4.85,0-7.27-.78l.24,5.17c1.9,1.2,4.2,1.39,6.38,1.06Z"/>
      <path class="cls-6" d="M20.63,37.96c.49,1.2,2.63,1.57,3.85,1.72,1.85.23,4.59.08,6.16-.98.49-.33.7-.52.83-1.14.14-2.38-7.06-2.95-9.95-1.44-.82.41-1.16,1.03-.9,1.84Z"/>
      <path class="cls-7" d="M20.63,37.96l.16,4.47c2.26,1.02,4.72,1.15,7.11.92l.29-.28c.09-.78.19-1.55.3-2.31.78-.07,1.53-.29,2.25-.66.36-.12.53-.33.62-.69l.11-1.85c-1.85,2.54-8.39,2.44-10.84.4Z"/>
      <path class="cls-4" d="M33.15,43.57l-.36-.07c-2.53,1.76-6.34,2.12-9.29,1.5,0-.25-.02-.4-.31-.5-1.44-.28-2.79-.68-3.84-1.69-.5.79-.45,1.58-.14,2.43.18.5.87.93,1.58,1.23,3.43,1.43,7.36,1.37,10.78-.06,1.2-.51,1.8-1.6,1.58-2.84Z"/>
      <path class="cls-4" d="M28.58,48.5c.1.25.15.37.15.37-1.39.47-3.07.39-4.53.21-.74-.09-1.39-.2-1.8-.81-1.11-.32-2.07-.7-3.1-1.25-.59,1.29-.09,2.62,1.17,3.15,3.84,1.61,8.06,1.56,11.86-.19.34-.87.19-1.72.03-2.66-1.27.59-2.44.99-3.79,1.18Z"/>
      <path class="cls-6" d="M27.68,58h.03c1.07-.17,2.11-.43,2.98-1.16l.17-4.79c-1.06.28-2.08.48-3.13.51l-.05,5.44Z"/>
      <path class="cls-6" d="M27.9,43.35c1.12-.11,2.27-.34,3.31-.87l.15-3.07c-.93.62-2.33.92-3.45,1.16,0,1.11,0,1.88,0,2.78Z"/>
      <path class="cls-14" d="M23.18,44.51c.02.23-.03.46.04.62.36.78,7.74.73,9.92-1.56-.06-.36-.21-.63-.62-.72-.25.53-.69.85-1.25,1.04-2.6.9-5.39,1.14-8.1.61Z"/>
      <path class="cls-4" d="M34.04,45.41c-.72,2.1-.14,2.48-.27,4.25.44.08.77-.07,1.01-.3.66-.61-.07-2.14.34-3.67.03-.5-.83-.76-1.08-.28Z"/>
      <path class="cls-14" d="M22.84,48.37c1.89.38,3.79.41,5.74.13.28.04.47.18.46.4-.02.9-6.32.77-6.61-.16-.04-.13-.02-.29-.03-.46l.44.1Z"/>
      <path class="cls-14" d="M34.04,45.41c.4-.03.7.18,1.08.28.1-.39.25-.79.18-1.19-.06-.36-.32-.7-.89-.75-.06.56-.18,1.1-.37,1.67Z"/>
    </g>
    <g>
      <path class="cls-11" d="M582.84,41.32l.15-3.63c.05-1.29-.68-2.32-1.9-2.84-5.16-2.2-11.72-.24-11.66,2.06l.11,4.47c-.56.23-1.04.55-1.35,1.07-1.03-.11-1.92.29-2.47,1.16h-8.97v6.15l9.29-.02c1.34,2.04,2.85.7,3.92,1.79l.25,5.78c.59.88,1.43,1.3,2.4,1.68,2.95,1.21,9.4.14,9.51-1.73l.37-6.08c1.91-.94,2.45-3.17,1.52-5.03.98-1.73.71-4.01-1.17-4.86Z"/>
      <path class="cls-4" d="M556.75,45.69v2.7h9.11v-2.68"/>
      <path class="cls-14" d="M565.86,44.97h-9.11v1.04h9.11v-1.04Z"/>
      <path class="cls-7" d="M574.52,58l-.3-.17v-3.71c-.34-.42-1.03-1.26-.35-1.57,2.49.03,4.85,0,7.27-.78l-.24,5.17c-1.9,1.2-4.2,1.39-6.38,1.06Z"/>
      <path class="cls-6" d="M581.58,37.96c-.49,1.2-2.63,1.57-3.85,1.72-1.85.23-4.59.08-6.16-.98-.49-.33-.7-.52-.83-1.14-.14-2.38,7.06-2.95,9.95-1.44.82.41,1.16,1.03.9,1.84Z"/>
      <path class="cls-7" d="M581.58,37.96l-.16,4.47c-2.26,1.02-4.72,1.15-7.11.92l-.29-.28c-.09-.78-.19-1.55-.3-2.31-.78-.07-1.53-.29-2.25-.66-.36-.12-.53-.33-.62-.69l-.11-1.85c1.85,2.54,8.39,2.44,10.84.4Z"/>
      <path class="cls-4" d="M569.06,43.57l.36-.07c2.53,1.76,6.34,2.12,9.29,1.5,0-.25.02-.4.31-.5,1.44-.28,2.79-.68,3.84-1.69.5.79.45,1.58.14,2.43-.18.5-.87.93-1.58,1.23-3.43,1.43-7.36,1.37-10.78-.06-1.2-.51-1.8-1.6-1.58-2.84Z"/>
      <path class="cls-4" d="M573.63,48.5c-.1.25-.15.37-.15.37,1.39.47,3.07.39,4.53.21.74-.09,1.39-.2,1.8-.81,1.11-.32,2.07-.7,3.1-1.25.59,1.29.09,2.62-1.17,3.15-3.84,1.61-8.06,1.56-11.86-.19-.34-.87-.19-1.72-.03-2.66,1.27.59,2.44.99,3.79,1.18Z"/>
      <path class="cls-6" d="M574.52,58h-.03c-1.07-.17-2.11-.43-2.98-1.16l-.17-4.79c1.06.28,2.08.48,3.13.51l.05,5.44Z"/>
      <path class="cls-6" d="M574.31,43.35c-1.12-.11-2.27-.34-3.31-.87l-.15-3.07c.93.62,2.33.92,3.45,1.16,0,1.11,0,1.88,0,2.78Z"/>
      <path class="cls-14" d="M579.02,44.51c-.02.23.03.46-.04.62-.36.78-7.74.73-9.92-1.56.06-.36.21-.63.62-.72.25.53.69.85,1.25,1.04,2.6.9,5.39,1.14,8.1.61Z"/>
      <path class="cls-4" d="M568.16,45.41c.72,2.1.14,2.48.27,4.25-.44.08-.77-.07-1.01-.3-.66-.61.07-2.14-.34-3.67-.03-.5.83-.76,1.08-.28Z"/>
      <path class="cls-14" d="M579.36,48.37c-1.89.38-3.79.41-5.74.13-.28.04-.47.18-.46.4.02.9,6.32.77,6.61-.16.04-.13.02-.29.03-.46l-.44.1Z"/>
      <path class="cls-14" d="M568.16,45.41c-.4-.03-.7.18-1.08.28-.1-.39-.25-.79-.18-1.19.06-.36.32-.7.89-.75.06.56.18,1.1.37,1.67Z"/>
    </g>
    <g>
      <rect class="cls-11" x="42.76" y="43.62" width="514" height="1.35"/>
      <rect class="cls-14" x="42.76" y="44.97" width="514" height="1.04"/>
      <rect class="cls-4" x="42.76" y="46.01" width="514" height="2.37"/>
      <rect class="cls-11" x="42.76" y="48.38" width="514" height="1.4"/>
    </g>
  </g>
  <g>
    <path class="cls-3" d="M341.68,46.21s7.71.3,8.83-5.85c.13-.74-1.06-.71-2.68-.69-1.73.03-3.94.06-5.56-.85-3.06-1.71-.59,7.39-.59,7.39"/>
    <path class="cls-9" d="M346.23,44.9c-.11-.1.11-.35.19-1.03.06-.49,0-.91-.05-1.19.33-.04.71-.11,1.1-.2.37-.08.78-.2,1.23-.38.23-.09.43-.19.62-.29.13-.07.25-.14.37-.21-.12.27-.3.66-.58,1.08-1.02,1.51-2.62,2.47-2.87,2.23Z"/>
    <path class="cls-15" d="M345.15,42.77c-.2,0-.35-.16-.35-.35,0-.2.16-.35.35-.35.04,0,3.74-.03,5.07-1.9.11-.16.34-.2.49-.08.16.11.2.33.08.49-1.55,2.17-5.48,2.2-5.65,2.2h0"/>
    <path class="cls-15" d="M341.61,39.06s-.09,0-.12.03c-.1.08-.57.62-.08,3.68.2,1.24.48,2.42.62,2.98.63-.01,2.05-.1,3.53-.6,2.56-.87,4.08-2.51,4.51-4.88,0,0,0,0,0-.01-.23-.18-1.36-.16-2.18-.14-1.82.03-4.1.07-5.83-.9-.1-.05-.3-.16-.45-.16M341.87,46.66c-.12,0-.19,0-.2,0-.2,0-.37-.14-.42-.33-.02-.07-.45-1.66-.73-3.41-.54-3.36-.02-4.2.42-4.54.28-.22.78-.39,1.56.05,1.52.85,3.66.82,5.37.79,1.48-.02,2.46-.04,2.9.48.12.14.25.38.18.75-.49,2.69-2.26,4.62-5.14,5.58-1.75.59-3.39.64-3.95.64"/>
    <path class="cls-12" d="M335.72,46.03c-.45,0-.9,0-1.34,0,0-.02,0-.05,0-.07-.05-.51-.4-1.32-.94-2.11.72.01,1.47.02,2.23.02,4.29,0,8.84-.22,9.79-1.1.15.95.01,1.85-.27,2.26-.12.17-1.11.99-9.2,1.01-.09,0-.18,0-.27,0"/>
    <path class="cls-18" d="M307.26,27.57s10.83-8.97,20.17-5.54c10.17,3.74,7.83,14.58,7.83,14.58,0,0,6.24.37,9.44,3.57,1.54,1.54,1.49,4.21.86,5.11-1.33,1.89-18.13.99-18.13.99,0,0-17.94.82-23.54-5.07-5.6-5.89,3.37-13.64,3.37-13.64"/>
    <path class="cls-10" d="M334.98,32.55c-.79-3.33-2.92-7.07-8.21-9.01-1.61-.59-3.25-.84-4.89-.84-4.24,0-8.39,1.67-11.49,3.35-.02-.03-.04-.06-.05-.09,2.9-1.82,7.68-4.25,12.55-4.25,1.47,0,2.95.22,4.39.75,4.05,1.49,6.55,4.29,7.43,8.33.13.61.22,1.21.27,1.77"/>
    <path class="cls-15" d="M335.67,46.94c-4.22,0-8.23-.21-8.27-.21-.25-.01-.44-.23-.43-.48.01-.25.23-.44.48-.43.04,0,4.24.22,8.54.21,8.09-.02,9.08-.85,9.2-1.01.53-.75.55-3.17-.81-4.53-3.04-3.04-9.09-3.43-9.15-3.44-.13,0-.25-.07-.33-.18-.08-.11-.11-.24-.08-.37,0-.03.56-2.68-.11-5.73-.88-4.04-3.38-6.84-7.43-8.33-8.99-3.3-19.62,5.37-19.73,5.46-.19.16-.48.13-.64-.06-.16-.19-.13-.48.06-.64.11-.09,2.8-2.3,6.68-4.12,5.18-2.43,10-2.94,13.94-1.5,5.45,2,7.36,6.01,8.01,9.02.53,2.46.33,4.63.19,5.57,1.58.16,6.45.88,9.23,3.66,1.67,1.67,1.7,4.56.91,5.69-.26.37-.97,1.37-9.94,1.39-.11,0-.21,0-.32,0"/>
    <path class="cls-12" d="M312.26,38.83h-.09c.03-.08.05-.15.08-.23,0,.07,0,.15,0,.23"/>
    <path class="cls-5" d="M286.41,46.39h0c-5.41-1.47-9.24-4.69-9.75-9.82h0c.51,5.13,4.33,8.35,9.75,9.82"/>
    <path class="cls-13" d="M276.62,35.9h0c0-.07,0-.14,0-.21-.01-.5,0-1.01.03-1.52,0,0,0,0,0,0-.03.51-.04,1.01-.03,1.51,0,.07,0,.14,0,.21"/>
    <path class="cls-15" d="M292.2,47.27c-2.06-.11-4.01-.4-5.79-.89h0c1.78.48,3.73.78,5.79.89M276.67,36.57h0c-.02-.22-.04-.44-.05-.67h0c0,.23.02.45.05.67"/>
    <path class="cls-12" d="M312.26,38.61s0,0,0,0c.26-.75.44-1.54.52-2.38h0s0-.01,0-.02h0s0,0,0-.01c0,0,0,0,0,0,0,0,0,0,0,0,0,0,0,0,0,0,0,0,0,0,0,0,0,0,0,0,0,0,0,0,0,0,0,0,0,0,0,0,0,0,0,0,0,0,0,0,0,0,0,0,0,0,0,0,0,0,0,0,0,0,0-.01,0-.02,0,0,0,0,0,0,0,0,0,0,0,0h0c.02-.21.03-.41.04-.62h0s0-.03,0-.05t0,0s0-.02,0-.03h0s0-.01,0-.01c0-.01,0-.02,0-.03h0s0,0,0-.01h0s0-.02,0-.03h0s0-.01,0-.01h0s0-.01,0-.02h0v-.02s0,0,0,0h0s0-.02,0-.02h0v-.02h0s0-.01,0-.01h0v-.03h0v-.02h0s0-.01,0-.02h0v-.02h0v-.02h0v-.02s0,0,0-.01h0v-.02h0v-.02h0v-.02s0,0,0-.01h0v-.02h0s0-.01,0-.01h0s0-.01,0-.02h0v-.02h0s0-.01,0-.02h0s0-.02,0-.03h0s0-.01,0-.01h0s0-.02,0-.03c0,0,0,0,0,0h0s0-.01,0-.02c0,0,0,0,0-.01,0-.27-.02-.53-.04-.8h0c.02.27.03.54.04.8.03,1.38-.17,2.65-.57,3.8"/>
    <path class="cls-5" d="M312.18,38.83h0c.03-.07.05-.15.08-.22,0,0,0,0,0,0-.03.07-.05.15-.08.22"/>
    <path class="cls-5" d="M302.06,46.4c4.91-1.24,8.66-3.75,10.11-7.58h0c-1.45,3.83-5.21,6.33-10.11,7.58h0"/>
    <path class="cls-15" d="M296.73,47.23c1.88-.13,3.67-.41,5.33-.83h0c-1.66.42-3.45.7-5.33.83"/>
    <path class="cls-1" d="M277.46,29.66s0,0,0,0c0,0,0,0,0,0M277.46,29.65c1.81-5.77,6.54-10.94,14.79-11.86-8.25.92-12.98,6.09-14.79,11.86M292.25,17.79s.01,0,.02,0c0,0,0,0-.02,0M292.27,17.79s.03,0,.05,0c-.02,0-.03,0-.05,0M292.32,17.79s0,0,.01,0c0,0,0,0-.01,0M292.34,17.79s0,0,.01,0c0,0,0,0-.01,0M292.35,17.78s.02,0,.03,0c-.01,0-.02,0-.03,0M292.39,17.78s0,0,.01,0c0,0,0,0-.01,0M292.4,17.78s0,0,.01,0c0,0,0,0-.01,0M292.42,17.78s.02,0,.03,0c-.01,0-.02,0-.03,0M292.46,17.77s0,0,.01,0c0,0,0,0-.01,0M292.47,17.77s0,0,.01,0c0,0,0,0-.01,0M292.49,17.77s.02,0,.03,0c-.01,0-.02,0-.03,0M292.52,17.77s0,0,.01,0c0,0,0,0-.01,0M292.54,17.76s0,0,.01,0c0,0,0,0-.01,0M292.55,17.76s.01,0,.02,0c0,0-.01,0-.02,0M292.57,17.76s.01,0,.02,0c0,0-.01,0-.02,0M292.59,17.76s0,0,.01,0c0,0,0,0-.01,0M292.6,17.76s0,0,.01,0c0,0,0,0-.01,0M292.62,17.76s.02,0,.03,0c-.01,0-.02,0-.03,0M292.66,17.75s0,0,.01,0c0,0,0,0-.01,0M292.67,17.75s0,0,.01,0c0,0,0,0-.01,0M292.69,17.75s.02,0,.03,0c0,0-.02,0-.03,0M292.72,17.75s0,0,.01,0c0,0,0,0-.01,0M292.74,17.75s0,0,.01,0c0,0,0,0-.01,0M292.75,17.74s.01,0,.02,0c0,0-.01,0-.02,0"/>
    <path class="cls-17" d="M312.78,36.23h0s0,0,0,0M312.78,36.21h0s0,0,0,0M312.78,36.2s0,0,0,0c0,0,0,0,0,0M312.78,36.18s0,0,0,0c0,0,0,0,0,0M312.78,36.17s0,0,0,0c0,0,0,0,0,0M312.79,36.15s0,0,0,0c0,0,0,0,0,0M312.79,36.14s0,0,0,0c0,0,0,0,0,0M312.79,36.13s0-.01,0-.02c0,0,0,.01,0,.02M312.79,36.11s0,0,0,0c0,0,0,0,0,0M312.79,36.09c.02-.2.03-.41.04-.62,0,.21-.02.42-.04.62M312.83,35.47s0-.03,0-.05c0,.02,0,.03,0,.05M312.83,35.43s0-.02,0-.03c0,.01,0,.02,0,.03M312.83,35.39h0s0,0,0,0M312.83,35.38s0-.02,0-.03c0,.01,0,.02,0,.03M312.83,35.34s0,0,0,0c0,0,0,0,0,0M312.83,35.33s0-.02,0-.03c0,0,0,.02,0,.03M312.83,35.3s0,0,0,0c0,0,0,0,0,0M312.83,35.28s0,0,0,0c0,0,0,0,0,0M312.83,35.26h0s0,0,0,0M312.83,35.25h0s0,0,0,0M312.83,35.23s0,0,0,0c0,0,0,0,0,0M312.83,35.21h0s0,0,0,0M312.83,35.2s0,0,0,0c0,0,0,0,0,0M312.83,35.18h0s0,0,0,0M312.83,35.17h0s0,0,0,0M312.83,35.15h0s0,0,0,0M312.83,35.13h0s0,0,0,0M312.83,35.12h0s0,0,0,0M312.83,35.1h0s0,0,0,0M312.83,35.08h0s0,0,0,0M312.83,35.07h0s0,0,0,0M312.83,35.05h0s0,0,0,0M312.83,35.04h0s0,0,0,0M312.83,35.02h0s0,0,0,0M312.83,35.01h0s0,0,0,0M312.83,34.99h0s0,0,0,0M312.83,34.97h0s0,0,0,0M312.83,34.96h0s0,0,0,0M312.83,34.94h0s0,0,0,0M312.83,34.93h0s0,0,0,0M312.83,34.89h0s0,0,0,0M312.83,34.88h0s0,0,0,0M312.83,34.84s0,0,0,0c0,0,0,0,0,0M312.83,34.83s0,0,0,0c0,0,0,0,0,0"/>
    <path class="cls-17" d="M312.26,38.61c.16-.78.23-1.6.21-2.47,0-.08,0-.16,0-.24.17-.6.28-1.23.33-1.89.02.27.03.54.04.8,0,0,0,0,0,.01,0,0,0,0,0,0h0s0,.01,0,.02c0,0,0,.02,0,.03h0s0,.01,0,.02h0s0,.02,0,.03h0s0,.01,0,.02h0v.02h0s0,0,0,.01h0s0,.01,0,.02h0v.02h0s0,.01,0,.01h0v.02h0v.02h0v.02s0,0,0,.01h0v.02h0v.02h0v.02h0s0,0,0,.01h0v.02h0v.02h0s0,.01,0,.02h0v.03s0,0,0,0h0s0,.02,0,.02h0v.02s0,0,0,0h0s0,.01,0,.01h0s0,.02,0,.03h0s0,.01,0,.01h0s0,.02,0,.03c0,0,0,0,0,0h0s0,.03,0,.04c0,0,0,0,0,0,0,.02,0,.03,0,.05h0c0,.21-.02.42-.04.62h0s0,0,0,.01c0,0,0,0,0,0,0,0,0,.01,0,.02,0,0,0,0,0,0,0,0,0,0,0,0,0,0,0,0,0,0,0,0,0,0,0,0,0,0,0,0,0,0,0,0,0,0,0,0,0,0,0,0,0,0,0,0,0,0,0,0,0,0,0,0,0,0,0,0,0,0,0,0,0,0,0,0,0,.01h0s0,0,0,.01h0c-.08.84-.26,1.64-.52,2.38"/>
    <path class="cls-5" d="M334.38,46.03s0,0,0,0c0-.02,0-.05,0-.07,0,.03,0,.05,0,.07"/>
    <path class="cls-15" d="M334.01,46.51h0c-.44,0-1.45,0-2.61,0-.57,0-1.18,0-1.77,0,0,0,0,0,0,0,.59,0,1.19,0,1.77,0,1.16,0,2.18,0,2.61,0h0c.27,0,.38-.18.37-.49,0,0,0,0,0,0,.01.3-.1.49-.37.49"/>
    <path class="cls-12" d="M326.81,44.1c.06-.16.12-.31.19-.47-.07.16-.13.31-.19.47h0"/>
    <path class="cls-5" d="M326.26,46.05c.09-.46.26-1.19.55-1.96h0c-.29.76-.46,1.5-.55,1.96h0"/>
    <path class="cls-15" d="M326.18,46.51s.02-.17.08-.46h0c-.06.28-.08.46-.08.46,0,0,1.64,0,3.45,0,0,0,0,0,0,0-1.8,0-3.45,0-3.45,0"/>
    <path class="cls-15" d="M312.62,15.15c-.11,0-.21-.06-.27-.15-.07-.11-.06-.25.02-.35l1.03-1.4-.99.14c-.17.03-.33-.09-.36-.27-.03-.17.09-.33.27-.36l1.74-.26c.13-.02.25.04.32.15.07.11.06.25-.02.35l-1.03,1.4.99-.14c.17-.03.33.09.36.27.03.17-.09.33-.27.36l-1.74.25s-.03,0-.05,0h0Z"/>
    <path class="cls-15" d="M307.37,12.63c-.11,0-.21-.06-.27-.15-.07-.11-.06-.25.02-.35l2.02-2.75-2.15.32c-.17.03-.33-.09-.36-.27-.03-.17.09-.33.27-.36l2.91-.43c.13-.02.25.04.32.15.07.11.06.25-.02.35l-2.02,2.75,2.15-.32c.17-.03.33.09.36.27.03.17-.09.33-.27.36l-2.91.43s-.03,0-.05,0h0Z"/>
    <path class="cls-15" d="M311.78,8.08c-.12,0-.23-.06-.29-.16-.07-.12-.06-.26.02-.37l2.99-4.07-3.28.48c-.19.03-.36-.1-.38-.29-.03-.19.1-.36.29-.38l4.08-.6c.14-.02.27.04.34.16.07.12.06.26-.02.37l-2.99,4.07,3.28-.48c.19-.03.36.1.38.29.03.19-.1.36-.29.38l-4.08.6s-.03,0-.05,0h0Z"/>
    <g>
      <path class="cls-18" d="M329.75,40.64c-6.48-3.57-16.15-1.7-16.15-1.7l-.49-.04-.85-.06-33.02-2.49c-1.03-.02-2.01-.07-2.94-.13-3.26-.2-5.96-.56-8.31-.63-.05.18-.1.36-.15.54l-2.13-.12c-1.24-.07-2.41-.27-3.56-.66-.91-.31-1.66-.87-2.13-1.63-.17.19-.36.35-.58.49-.45.28-.96.35-1.47.4-.53.05-1.07-.07-1.53-.32-.08-.04-.16-.09-.23-.15,0,.35.03.71.12,1.07,1.52.78,3.06,2.46,1.9,3.75.51.31.83.72.92,1.16.1.55-.13,1.05-.55,1.43-.4.35-.85.69-1.33.83,1.92,1.23,4.58,1.63,6.93,1.77.16,0,.32.01.49.02-.22.44-.44.87-.66,1.31-.15.3-.32.55-.49.79.11.02.22.05.33.07,1.25.23,8.34.39,17.39.46,8.13.07,17.86.08,26.38.02,10.65-.07,19.41-.23,20.81-.49,3.7-.68,5.71-3.29,1.34-5.7Z"/>
      <path class="cls-15" d="M253.86,41.88c-.67-.09-1.08-.55-1.31-1.07-.27-.61-.25-1.31.31-1.75-.05-.38-.57-.63-.58-1.26,0-.21.01-.43,0-.64,0-.05,0-.1.02-.17.02-.09.05-.12.11-.24.04-.09.05-.13.07-.18.07-.13.15-.26.25-.37.19-.21.43-.37.7-.47.21-.08.44-.11.67-.1,1.67.03,3.51,1.5,3.45,2.3-.04.5-1.22.79-2.06.9l-1.8.28.32.12,2.3.2c.87.07,1.86.4,1.81,1.02-.07.84-2.51,1.67-4.24,1.42Z"/>
      <path class="cls-15" d="M278.9,35.79c-1.16-.06-2.83-.14-4.85-.27-1.89-.12-1.66-.1-2.37-.15-2.77-.22-7.3-.3-9.13-.92-.9-.31-1.36-.81-1.47-.94-.23-.27-.4-.57-.52-.91-.05.28-.16.56-.28.75-.09.13-.19.26-.29.37.48.76,1.22,1.32,2.13,1.63,1.16.39,2.32.59,3.57.66,1.93.14,3.9.25,5.92.35,2.5.12,4.95.19,7.33.22-.01-.26-.03-.52-.04-.78Z"/>
      <g>
        <path class="cls-12" d="M277.7,40.18c-.72-1.32-.96-2.62-1.04-3.61-.13,0-.26,0-.39,0-.03.5-.04,1-.02,1.49.06,2.53.87,4.64,2.26,6.34-1.79-.01-4.14-.02-5.97-.04-2.73-.03-4.85-.05-7.33-.15-.35-.02-.7-.03-1.05-.05-2.35-.14-5.01-.54-6.93-1.77l-1.78.5c1.23,1.96,4.87,2.94,7.01,3.08l4.78.3c.83.01,2.06.03,3.55.04,4.62.04,5.24-.02,7.13.03,5.55.13,8.37.59,8.49.07.18-.77-6.16-1.5-8.71-6.21Z"/>
        <path class="cls-12" d="M310.33,44.43c1.27-1.63,1.95-3.6,1.93-5.59h-.09c-1.45,3.82-5.21,6.33-10.11,7.57,2.1,0,4.2-.02,6.3-.03,2.54-.02,5.07-.04,7.61-.07,2.54-.03,5.07-.07,7.6-.15.9-.03,1.8-.05,2.69-.1.09-.46.26-1.19.55-1.96-2.91.16-9.08.27-16.48.33Z"/>
      </g>
    </g>
    <path class="cls-15" d="M332.59,42.88c-.11-.38-.31-.7-.53-.98-.45-.56-1-.97-1.56-1.33-.28-.18-.57-.34-.86-.49-.29-.16-.59-.29-.89-.42-.6-.25-1.21-.49-1.84-.67-.31-.1-.63-.18-.94-.26-.32-.07-.63-.15-.95-.21-1.27-.26-2.55-.42-3.84-.5-.64-.03-1.29-.06-1.93-.04-.32,0-.64.02-.96.03-.32.01-.64.04-.96.07-.32.03-.64.06-.96.11-.32.04-.64.09-.95.15-.63.12-1.26.26-1.87.46-.06.02-.11.08-.1.15,0,.08.07.15.16.15h0c2.53-.1,5.03-.23,7.53-.11.62.03,1.25.08,1.87.14.62.08,1.24.16,1.84.28.15.03.3.06.46.1l.45.1c.3.08.6.15.89.25.59.17,1.17.39,1.74.63.28.13.56.25.83.4.27.14.54.29.79.45.51.32.98.69,1.33,1.12.17.22.3.45.37.68.07.23.08.47.01.69-.13.45-.52.87-1,1.18-.24.16-.5.29-.77.41-.27.12-.55.22-.84.3-.29.08-.59.15-.88.2-.15.02-.29.04-.44.05l-.47.03c-1.25.08-2.52.12-3.78.16-2.53.07-5.07.11-7.6.15-4.02.05-6.03.07-7.61.07-6.71.03-10.17-.12-13.66-.16-6.58-.06-28.13.14-33.36-.46-.89-.1-2.3-.34-3.79-1.2-.97-.56-1.66-1.21-2.09-1.67l1.78-.5c.48-.13.93-.47,1.33-.83.42-.38.65-.88.55-1.43-.08-.44-.41-.85-.91-1.16,1.16-1.29-.39-2.97-1.9-3.75-.09-.36-.11-.72-.12-1.07-.24-.17-.43-.39-.61-.62l-.02-.02c-.19-.17-.32-.38-.42-.61l.03,1.84c-1.02-.26-2.12-.14-2.94.57-1.06.91-1.3,2.45-.6,3.67-.4.96-.32,1.92.27,2.77.48.71,1.35,1.19,2.38,1.17.26.42.68,1.03,1.34,1.62.27.24.83.7,1.79,1.17,1.76.85,3.36.98,5.15,1.12,0,0,0,0,0,0,0,0,0,0,0,0,0,0,.49.03,1,.05,3.37.17,6.78.25,6.78.25,1.45.04,3.51.06,7.57.1,3.13.03,5.45.05,8.67.07,1.95.01,4.1.02,6.56.02,5.07,0,10.15,0,15.22-.04,2.54-.02,5.08-.04,7.61-.07,2.54-.03,5.08-.07,7.62-.15,1.27-.04,2.54-.08,3.82-.16l.48-.04c.16-.02.34-.04.51-.06.33-.05.65-.13.98-.22.32-.09.64-.2.95-.34.31-.13.62-.29.91-.48.29-.19.57-.42.81-.7.24-.28.45-.61.56-1,.11-.39.09-.81-.02-1.19Z"/>
    <path class="cls-18" d="M312.83,34.81c.2,8.19-7.82,12.26-17.82,12.5-10,.24-18.2-3.44-18.4-11.63-.19-7.85,4.69-16.93,16.16-17.94,1.37-.74,3.22-2.01,4.24-3.86.32-.58,1.16-.51,1.38.11.3.82.58,1.91.05,3.33,1.52-.78,3.02-1.67,3.52-2.13.53-.5,1.39-.12,1.38.6,0,.7-.22,2.19-.49,3.44,6.66,2.95,9.82,9.56,9.97,15.58"/>
    <path class="cls-12" d="M294.09,47.32c-.64,0-1.27-.02-1.9-.05-2.06-.11-4.01-.4-5.79-.89-5.41-1.47-9.24-4.69-9.75-9.82-.02-.22-.04-.44-.05-.67,0-.07,0-.14,0-.21-.01-.5,0-1.01.03-1.51.54,7.55,8.11,11.07,17.46,11.07.3,0,.61,0,.91-.01,8.62-.21,15.76-3.26,17.44-9.34,0,.08,0,.16,0,.24.02.87-.05,1.69-.21,2.47.26-.74.44-1.54.52-2.38-.08.84-.26,1.64-.52,2.38-.03.07-.05.15-.08.22-1.45,3.83-5.21,6.33-10.11,7.58-1.66.42-3.45.7-5.33.83-.56.04-1.14.07-1.72.08-.31,0-.61.01-.92.01M312.78,36.22s0,0,0-.01c0,0,0,0,0,.01M312.78,36.21s0,0,0-.01c0,0,0,0,0,.01M312.78,36.19s0,0,0,0c0,0,0,0,0,0M312.78,36.18s0,0,0,0c0,0,0,0,0,0M312.78,36.16s0,0,0,0c0,0,0,0,0,0M312.79,36.14s0,0,0,0c0,0,0,0,0,0M312.79,36.13s0,0,0,0c0,0,0,0,0,0M312.79,36.11s0,0,0,0c0,0,0,0,0,0M312.79,36.1h0s0,0,0,0M312.83,35.47h0s0,0,0,0M312.83,35.43s0,0,0,0t0,0M312.83,35.39h0s0,0,0,0M312.83,35.38s0,0,0,0c0,0,0,0,0,0M312.83,35.35h0s0,0,0,0M312.83,35.33h0s0,0,0,0M312.83,35.3h0s0,0,0,0M312.83,35.29h0s0,0,0,0M312.83,35.27h0s0,0,0,0M312.83,35.25s0,0,0,0c0,0,0,0,0,0M312.83,35.24h0s0,0,0,0M312.83,35.23h0s0,0,0,0M312.83,35.21h0s0,0,0,0M312.83,35.19h0s0,0,0,0M312.83,35.18h0s0,0,0,0M312.83,35.16h0s0,0,0,0M312.83,35.15s0,0,0-.01c0,0,0,0,0,.01M312.83,35.13h0s0,0,0,0M312.83,35.11h0s0,0,0,0M312.83,35.1h0s0,0,0,0M312.83,35.08s0,0,0-.01c0,0,0,0,0,.01M312.83,35.07h0s0,0,0,0M312.83,35.05h0s0,0,0,0M312.83,35.04h0s0,0,0,0M312.83,35.02s0,0,0-.01c0,0,0,0,0,.01M312.83,35v-.02.02M312.83,34.99s0,0,0-.01c0,0,0,0,0,.01M312.83,34.97s0,0,0-.01c0,0,0,0,0,.01M312.83,34.96v-.02.02M312.83,34.94s0,0,0-.01c0,0,0,0,0,.01M312.83,34.92s0-.02,0-.03c0,.01,0,.02,0,.03M312.83,34.89s0,0,0-.01c0,0,0,0,0,.01M312.83,34.87s0-.02,0-.03c0,0,0,.02,0,.03M312.83,34.84h0s0,0,0,0M312.83,34.83s0,0,0-.01c0-.27-.02-.53-.04-.8h0c.02.27.03.54.04.8,0,0,0,0,0,.01"/>
    <path class="cls-10" d="M312.46,35.89c-.22-5.61-3.46-11.97-9.3-15.13-.67-.36-1.04-1.12-.89-1.87.17-.85.3-1.64.31-2.11,0-.41-.14-.6-.36-.6-.17,0-.39.12-.62.33-.38.36-1.39.98-2.53,1.61-.08.04-.16.06-.24.06-.28,0-.53-.24-.49-.55.13-.94-.09-1.7-.31-2.32-.11-.31-.26-.51-.44-.51s-.38.18-.62.61c-.67,1.23-1.87,2.11-2.99,2.78-.9.54-1.9.87-2.94,1.03-7.71,1.17-12.18,6.16-13.92,11.72.1-.43.22-.86.35-1.29,0,0,0,0,0,0,0,0,0,0,0,0,1.81-5.77,6.54-10.94,14.79-11.86h0s0,0,.02,0c0,0,0,0,0,0,.02,0,.03,0,.05,0,0,0,0,0,0,0,0,0,0,0,.01,0,0,0,0,0,0,0,0,0,0,0,.01,0,0,0,0,0,0,0,.01,0,.02,0,.03,0,0,0,0,0,0,0,0,0,0,0,.01,0,0,0,0,0,0,0,0,0,0,0,.01,0,0,0,0,0,0,0,.01,0,.02,0,.03,0,0,0,0,0,0,0,0,0,0,0,.01,0,0,0,0,0,0,0,0,0,0,0,.01,0t0,0s.02,0,.03,0c0,0,0,0,0,0,0,0,0,0,.01,0,0,0,0,0,0,0,0,0,0,0,.01,0,0,0,0,0,0,0,0,0,.01,0,.02,0h0s.01,0,.02,0c0,0,0,0,0,0,0,0,0,0,.01,0,0,0,0,0,0,0,0,0,0,0,.01,0,0,0,0,0,0,0,.01,0,.02,0,.03,0,0,0,0,0,0,0,0,0,0,0,.01,0,0,0,0,0,0,0,0,0,0,0,.01,0,0,0,0,0,0,0,0,0,.02,0,.03,0,0,0,0,0,0,0,0,0,0,0,.01,0,0,0,0,0,0,0,0,0,0,0,.01,0,0,0,0,0,0,0,0,0,.01,0,.02,0h0c1.37-.74,3.22-2.01,4.24-3.86.15-.27.41-.4.67-.4.3,0,.6.17.72.5.18.49.35,1.07.35,1.76,0,.47-.08.99-.29,1.57h0c1.52-.78,3.02-1.67,3.52-2.13.17-.16.36-.23.56-.23.42,0,.82.33.82.82h0c0,.71-.22,2.2-.49,3.44h0c6.36,2.82,9.54,8.98,9.93,14.78-.06.66-.17,1.29-.33,1.89"/>
    <path class="cls-16" d="M309.23,33.79c.06,2.39-.6,4.97-2.72,7.01-2.17,2.08-5.85,3.59-11.85,3.74h0c-5.94.14-9.68-1.16-11.95-3.1-2.27-1.94-3.07-4.52-3.13-6.93-.01-.49.02-.97.08-1.44.59-4.16,4.11-7.4,8.44-7.5,2.37-.06,4.54.83,6.15,2.33,1.54-1.57,3.66-2.57,6.03-2.62,4.28-.1,7.91,2.89,8.76,6.93h0c.11.52.17,1.05.18,1.59"/>
    <path class="cls-15" d="M296.62,34.63c.02.74-.95,1.66-2.17,1.69-1.22.03-2.23-.84-2.25-1.58-.02-.74.96-1.08,2.19-1.11,1.22-.03,2.22.26,2.24,1"/>
    <path class="cls-8" d="M294.43,34.66c-.48,0-.86-.19-.87-.36,0-.17.4-.26.89-.27.04,0,.08,0,.12,0,.44,0,.79.07.79.23,0,.17-.39.39-.89.4-.01,0-.03,0-.04,0"/>
    <path class="cls-19" d="M291.35,34.34c-.31,2.59-2.38,3.25-5.07,4.41-1.69.73-2.84,1.77-3.59,2.68-2.27-1.94-3.07-4.52-3.13-6.93-.01-.49.02-.97.08-1.44,1.56-1.7,4.05-3.36,7.71-3.01,2.67.26,4.21,2.43,3.99,4.29h0Z"/>
    <path class="cls-19" d="M309.23,33.79c.06,2.39-.6,4.97-2.72,7.01-.79-.86-1.97-1.81-3.66-2.44-2.75-1.03-4.84-1.59-5.28-4.16-.31-1.85,1.12-4.1,3.78-4.48,3.52-.51,6.04.92,7.69,2.49h0c.11.52.17,1.05.18,1.59h0Z"/>
    <path class="cls-15" d="M304.9,33.65c-.09.12-.16.2-.24.29-.08.09-.17.17-.26.25-.09.08-.18.15-.28.22-.1.07-.2.13-.3.19-.41.24-.88.41-1.37.49-.24.05-.49.05-.74.05-.25-.02-.5-.04-.73-.11-.48-.11-.92-.35-1.28-.65-.21-.17-.24-.48-.06-.69.1-.12.24-.18.39-.18h.09c.1,0,.2.01.29.02.09,0,.18.03.27.03.09,0,.18.01.27.02.09.01.17,0,.26,0,.17.01.34,0,.51,0,.17-.02.33-.02.5-.06.33-.05.67-.13,1.01-.23l.26-.08c.08-.03.17-.06.26-.09.09-.03.17-.07.26-.1.08-.03.18-.07.25-.09l.15-.04c.26-.06.52.1.58.35.03.14,0,.29-.08.4h0Z"/>
    <path class="cls-15" d="M284.41,33.42c.07.01.17.05.26.08.09.03.18.06.27.08.09.03.18.05.26.08l.26.07c.35.09.69.15,1.02.19.17.02.33.02.5.03.17,0,.34,0,.51-.02.08-.01.17,0,.26-.02.09-.01.17-.02.26-.03.09,0,.18-.03.27-.04.09-.01.19-.03.29-.04h.09c.27-.03.51.18.53.45.01.16-.05.3-.16.4-.35.32-.77.58-1.25.71-.23.08-.48.11-.73.14-.25,0-.5.02-.74-.02-.49-.05-.96-.2-1.39-.42-.1-.06-.21-.12-.31-.18-.1-.07-.2-.13-.29-.21-.09-.08-.18-.15-.27-.24-.09-.09-.16-.17-.25-.28-.17-.21-.13-.51.07-.68.11-.09.26-.12.39-.1l.15.03h0Z"/>
    <path class="cls-15" d="M297.01,38.11c-.18.17-.35.3-.54.42-.19.12-.39.22-.6.3-.42.17-.88.27-1.36.28-.49,0-.95-.1-1.38-.28-.21-.09-.41-.19-.6-.31-.19-.12-.36-.25-.54-.42-.14-.14-.14-.36,0-.5.1-.1.23-.13.36-.09h.04c.17.07.36.14.54.19.18.06.36.1.54.15.36.08.71.13,1.04.13.34,0,.7-.05,1.05-.14.18-.04.36-.09.54-.14.18-.05.37-.12.54-.17h.05c.19-.07.38.04.44.23.04.13,0,.26-.09.35h0Z"/>
    <path class="cls-15" d="M297.68,13.94c-.07,0-.19.02-.27.16-1.07,1.94-2.99,3.26-4.42,4.04-.05.03-.11.05-.18.05-11.08.97-15.93,9.74-15.74,17.48.21,8.56,9.4,11.39,17.94,11.18,8.54-.21,17.58-3.48,17.37-12.04-.13-5.32-2.74-12.1-9.7-15.18-.2-.09-.3-.3-.26-.51.26-1.26.47-2.7.48-3.35,0-.22-.15-.31-.22-.34-.05-.02-.24-.09-.4.07-.59.55-2.25,1.5-3.62,2.21-.17.09-.37.06-.51-.06-.14-.12-.19-.32-.13-.5.46-1.25.25-2.19-.05-3.02-.06-.17-.21-.2-.26-.2,0,0-.02,0-.03,0h0ZM294.06,47.77c-10.89,0-17.72-4.58-17.9-12.08-.2-8.12,4.88-17.33,16.47-18.4,1.31-.72,3.04-1.92,3.98-3.63.23-.43.68-.67,1.16-.63.48.04.88.34,1.04.8.26.72.48,1.57.32,2.61,1.21-.66,2.17-1.26,2.51-1.58.38-.36.91-.45,1.39-.24.47.21.77.66.76,1.18,0,.65-.18,1.94-.42,3.17,3.04,1.43,5.56,3.73,7.3,6.67,1.63,2.75,2.53,5.91,2.6,9.16.19,7.72-6.81,12.69-18.26,12.96-.32,0-.65.01-.96.01h0Z"/>
    <path class="cls-3" d="M326.18,46.51s6.51-.02,7.83,0c1.32.02-1.04-4.39-3.41-5.17-3.53-1.16-4.41,5.17-4.41,5.17"/>
    <g>
      <path class="cls-3" d="M257.54,37.94c-1.72.41-3.55.36-5.26-.13,0-.08,0-.2,0-.34,0-.19.01-.38.07-.59.02-.07.11-.35.35-.63.08-.09.32-.35.72-.5.22-.08.45-.11.68-.11,1.67.03,3.51,1.5,3.45,2.3Z"/>
      <path class="cls-3" d="M253.67,39.12c.16.04.43.1.76.15,1.46.24,2.03.05,2.83.44.29.14.86.42.84.75-.04.59-2.1,1.16-3.93.86-.69-.11-1.25-.33-1.62-.51-.27-.61-.25-1.31.31-1.75l.81.06Z"/>
      <path class="cls-2" d="M258.1,40.46c-.07.84-2.51,1.67-4.24,1.42-.67-.09-1.08-.55-1.31-1.07,1.87.55,3.84.46,5.55-.36Z"/>
      <path class="cls-2" d="M257.54,37.94c-.04.5-1.22.79-2.06.9l-1.8.28-.81-.06c-.05-.38-.57-.63-.58-1.26,1.71.49,3.54.55,5.26.13Z"/>
    </g>
    <path class="cls-3" d="M259.54,32.75c0,.05,0,.11-.03.17-.01.05-.04.11-.07.16-.06.1-.14.2-.25.3-.16.14-.38.28-.63.36-.24.09-.52.14-.78.14-.24,0-.47-.04-.69-.12-.22-.08-.43-.21-.62-.4-.06-.06-.11-.12-.16-.19-.06-.1-.12-.21-.16-.36-.04-.15-.07-.35-.07-.61,0-.32.04-.72.13-1.23.13-.72.35-1.4.6-2.01.2-.46.41-.88.65-1.26.18-.28.36-.53.54-.75.13-.17.27-.31.39-.43.19-.19.37-.32.52-.4.07-.04.14-.07.19-.08.05-.01.09-.02.12-.02.02,0,.03,0,.03,0,0,0,0,0,.01,0,.02.02.03.04.05.06.02.03.04.08.05.15.01.07.02.16.02.26,0,.12-.01.27-.03.43-.02.25-.07.54-.12.85-.04.32-.08.67-.1,1.05,0,.26-.01.5-.01.73,0,.52.02.96.06,1.33.03.28.06.52.1.72.06.32.12.56.16.74.02.09.04.17.05.23,0,.06.01.11.01.16Z"/>
    <path class="cls-2" d="M259.2,30.49c.01.15.07,1.45-.95,2.34-.78.67-1.68.68-1.91.67.19.17.55.42,1.05.52.96.18,2.11-.29,2.33-1.02.07-.22-.04-.68-.26-1.58-.1-.39-.18-.7-.25-.93Z"/>
    <path class="cls-9" d="M334.01,46.51h0c-.44,0-1.45,0-2.61,0-.57,0-1.18,0-1.77,0-1.8,0-3.45,0-3.45,0,0,0,.02-.17.08-.46.09-.46.26-1.19.55-1.96.06-.16.12-.31.19-.47,0,0,0,0,0,0h0c.44-.99,1.07-1.93,1.98-2.28-.15.24-.28.49-.39.75-.65,1.43.32,3.06,1.88,3.21,1.22.11,2.65.25,3.86.39.02.09.04.18.04.26,0,.03,0,.05,0,.07,0,.3-.1.49-.37.49"/>
    <path class="cls-15" d="M332.45,46.86c-.12,0-.25-.07-.31-.18-1.86-3.34-4.62-3.68-4.65-3.68-.19-.02-.33-.2-.31-.39.02-.19.2-.33.39-.31.13.01,3.16.39,5.19,4.04.1.17.03.39-.14.48-.05.03-.11.04-.17.04h0Z"/>
    <path class="cls-15" d="M331.39,46.05c1.1,0,2.07,0,2.54,0,0-.15-.06-.49-.34-1.05-.62-1.27-1.93-2.84-3.14-3.23-.61-.2-1.14-.15-1.62.15-1.29.8-1.89,3.1-2.11,4.13.95,0,2.96,0,4.67,0h0ZM334.01,46.96s-.01,0-.02,0c-1.3-.02-7.75,0-7.82,0-.13,0-.26-.06-.34-.15-.09-.1-.13-.23-.11-.36.02-.16.58-4.02,2.62-5.29.72-.45,1.52-.53,2.39-.25,2.17.71,4.3,4.07,4.09,5.36-.07.43-.38.69-.81.69h0Z"/>
    <path class="cls-15" d="M260.58,32.46c-.02-.16-.06-.31-.1-.47-.06-.25-.13-.53-.18-.91-.05-.38-.09-.87-.09-1.51,0-.21,0-.44.01-.69.02-.43.08-.84.13-1.24.03-.2.06-.39.08-.58.02-.19.04-.37.04-.56,0-.1,0-.21-.02-.32-.02-.16-.06-.33-.13-.48-.07-.16-.18-.31-.32-.43-.1-.1-.23-.18-.36-.23-.13-.05-.28-.07-.41-.07-.12,0-.23.02-.34.04-.2.05-.39.14-.58.25-.16.1-.33.22-.48.36-.28.24-.56.54-.82.9-.4.52-.77,1.16-1.09,1.88-.32.72-.58,1.53-.73,2.39-.1.56-.15,1.02-.15,1.43,0,.22.01.42.04.61.02.14.05.28.09.4.06.19.14.36.24.51.09.15.21.28.32.4.3.29.63.5.98.63.35.14.72.2,1.07.19.35,0,.69-.05,1.01-.16.24-.08.47-.18.68-.31.16-.09.31-.2.44-.32.2-.18.37-.38.49-.62.06-.12.11-.25.14-.38.03-.13.05-.27.05-.41,0-.1,0-.2-.02-.29ZM256.09,32.21c0-.32.04-.72.13-1.23.13-.72.35-1.4.6-2.01.2-.46.41-.88.65-1.26.25-.41.48-.67.54-.75.27-.33.95-1.15,1.24-1.01.18.09.15.51.13.99-.02.29-.04.3-.12.85-.04.32-.08.67-.1,1.05,0,.26-.01.5-.01.73,0,.52.02.96.06,1.33.03.28.06.52.1.72.09.44.33.96.16,1.39-.57,1.08-2.39,1.16-3.1.24-.23-.3-.28-.67-.28-1.04Z"/>
  </g>
</svg>