<?xml version="1.0" encoding="UTF-8"?>
<svg id="Vrstva_1" data-name="Vrstva 1" xmlns="http://www.w3.org/2000/svg" viewBox="0 0 29.2 29.39">
  <defs>
    <style>
      .cls-1 {
        fill: #1d1d1b;
      }
    </style>
  </defs>
  <path class="cls-1" d="M4.09,28.78c-1.58-.17-2.86-1.37-3.13-2.94C.44,22.86.06,19.41,0,15.59-.06,10.95.37,6.83.97,3.38,1.24,1.82,2.51.63,4.08.44,8.7-.12,12.31-.06,14.9.14c1.69.13,4.43.42,8.68.58.75.03,1.45.05,2.11.06,1.94.04,3.49,1.63,3.51,3.57,0,1.28,0,2.37-.02,3.21-.14,6.73-.78,9.57-.55,15.21.03.81.08,1.57.13,2.26.15,1.95-1.27,3.66-3.21,3.85-4.19.42-8.85.62-13.9.44-2.65-.09-5.18-.28-7.56-.54Z"/>
</svg>