<?xml version="1.0" encoding="UTF-8"?>
<svg id="Vrstva_1" data-name="Vrstva 1" xmlns="http://www.w3.org/2000/svg" viewBox="0 0 79.37 79.37">
  <defs>
    <style>
      .cls-1 {
        fill: #bd5e2a;
      }

      .cls-2 {
        fill: #76b83f;
      }

      .cls-3 {
        fill: #d79e7f;
      }

      .cls-4 {
        fill: #f4dabb;
      }

      .cls-5 {
        fill: #fae8f3;
      }

      .cls-6 {
        fill: #fff;
      }

      .cls-7 {
        fill: #9c5959;
      }

      .cls-8 {
        fill: #8ba865;
      }

      .cls-9 {
        fill: #d0b2b2;
      }

      .cls-10 {
        fill: #957560;
      }

      .cls-11 {
        fill: #705948;
      }

      .cls-12 {
        fill: #a46666;
      }

      .cls-13 {
        fill: #d097b2;
      }

      .cls-14 {
        fill: #edc18e;
      }

      .cls-15 {
        fill: #c58863;
      }

      .cls-16 {
        fill: #e7216a;
      }

      .cls-17 {
        fill: #67131c;
      }

      .cls-18 {
        fill: #d3baca;
      }

      .cls-19 {
        fill: #64140e;
      }

      .cls-20 {
        fill: #a54936;
      }

      .cls-21 {
        fill: #5ba232;
      }

      .cls-22 {
        fill: #a3421d;
      }

      .cls-23 {
        fill: #a4ce89;
      }

      .cls-24 {
        fill: #5eaa4b;
      }
    </style>
  </defs>
  <path class="cls-1" d="M74.84,32.86s-12.73-.37-24.39-4.1c-11.66-3.73-26.28-8.97-36.99-9.77,0,0-1.16.56-.8,1.86,0,0,7.26.47,15.47,3.86,8.21,3.39,19.66,9.81,30.66,13.12,11,3.31,15.19,2.91,15.19,2.91,0,0,2.53-3.24.86-7.87"/>
  <path class="cls-3" d="M74.71,33.96c-1.29,0-5.16-.05-9.76-.61.03-.38.03-.73.02-1.06,4.91.68,8.66.87,9.62.91.09.26.16.51.22.76-.03,0-.06,0-.1,0M24.63,21.52c-2.7-.72-4.94-1.27-5.82-1.49,1.92.34,3.92.77,5.96,1.27-.04.07-.09.15-.14.22"/>
  <path class="cls-22" d="M73.19,40.39c-1.3-.03-4.34-.28-9.63-1.61.26-.7.49-1.35.68-1.97,2.69.51,4.93.65,6.56.65,1.89,0,2.96-.19,2.96-.19,0,0,.13,1.61-.57,3.12M23.49,22.67c-1.58-.48-3.07-.86-4.41-1.16-.25-.1-.54-.18-.88-.19-2.64-.54-4.57-.75-5.25-.81h0s0,0,0,0c0,0,0,0,0,0,0,0,0,0,0,0,0,0,0,0,0,0,0,0,0,0,0,0,0,0,0,0,0,0,0,0,0,0,0,0,0,0,0,0,0,0,0,0,0,0,0,0,0,0,0,0,0,0,0,0,0,0,0,0,0,0,0,0,0,0,0,0,0,0,0,0,0,0,0,0,0,0,0,0,0,0,0,0,0,0,0,0,0,0,0,0,0,0,0,0,0,0,0,0,0,0,0,0,0,0,0,0,0,0,0,0,0,0,0,0,0,0,0-.01,0,0,0,0,0,0,0,0,0,0,0,0,0,0,0,0,0,0,0,0,0,0,0,0t0,0c-.01-.19.02-.36.07-.5.78.08,5.74.6,11.28,2-.23.27-.5.51-.81.72"/>
  <path class="cls-19" d="M12.95,20.52c1.39.12,8.02.85,15.31,3.86,2.79,1.15,5.98,2.67,9.35,4.27,6.58,3.12,14.03,6.66,21.27,8.84,9.64,2.9,14.05,2.93,14.9,2.9.41-.61,2.06-3.41.8-7.19-1.82-.08-13.55-.69-24.24-4.11-1.72-.55-3.48-1.12-5.34-1.73-10.5-3.43-22.4-7.32-31.47-8.02-.2.12-.67.49-.59,1.17M73.45,41.09c-1.46,0-5.91-.28-14.76-2.94-7.29-2.19-14.77-5.74-21.37-8.88-3.37-1.6-6.54-3.11-9.32-4.25-8.06-3.33-15.29-3.83-15.36-3.83-.15,0-.27-.11-.31-.25-.35-1.25.49-2.03.98-2.27.06-.03.12-.04.18-.03,9.17.69,21.16,4.6,31.74,8.06,1.86.61,3.61,1.18,5.33,1.73,11.48,3.67,24.17,4.08,24.29,4.08.14,0,.27.1.32.23,1.71,4.76-.81,8.07-.92,8.2-.06.08-.15.12-.24.13-.03,0-.21.02-.56.02"/>
  <path class="cls-6" d="M8.02,54.34s-4.77,1.48-3.98,1.78c.8.3,2.36.17,2.36.27s-2.66,1.3-2.09,1.66c.57.37,2.6.59,2.6.59,0,0-2.37,1.37-1.67,1.6.7.23,3-.31,3-.31l-.22-5.59"/>
  <path class="cls-14" d="M22.9,48.44s-4.21,1.86-8.06,3.26c-3.85,1.4-7.94,1.86-8.2,5.05-.27,3.19,2.29,4.28,7.79,3.52,5.5-.75,12.47-3.55,12.47-3.55,0,0,4.51,5.81,13.95,5.48,9.44-.33,14.63-7.95,18.82-15.91,4.19-7.96,5.39-12.44,4.81-14.92-.58-2.48-3.81-2.3-5.19-.93-.49.71-.8,1.55-.8,1.55,0,0-5.63,8.96-8.6,10.24-2.97,1.29-4.28-.98-4.28-.98,0,0,1.27-12.76-3.92-17.24-1.33-1.64-3.81.49-3.01,3.72.8,3.24,1.36,9.84-.62,12.57-1.98,2.73-15.16,8.14-15.16,8.14"/>
  <path class="cls-6" d="M59.64,31.35s1.67-.98,2.94-.51c1.26.47,1.72,2.02,1.72,2.02l.23-.48s.53-1.31-.97-2.43c-1.5-1.13-3.37-.26-3.84,0-.47.26-.78,1.09-.78,1.09,0,0-.21.44-.14.5.07.06.16.08.16.08l.69-.25"/>
  <path class="cls-6" d="M39.15,27.01s.71-1.02,1.29-1.26c.57-.25.93-.09,1.25-.43.32-.34.39-.78.23-1.12-.17-.34-1.08-.74-1.46-.92-.37-.19-.47-.72-1.3-.58-.83.14-.94.33-1.09.17-.15-.15-.95-.45-1.52-.27-.57.18-.9.54-.97,1.73-.06,1.19.74,2.3.74,2.3l.4-.84s.32-.41.32-.42c0-.01.19.04.19.04,0,0,.23.8.81,1.41.58.61.9.45,1.11.18"/>
  <path class="cls-15" d="M40.1,61.87c-4.39,0-7.59-1.37-9.54-2.56-2.24-1.36-3.36-2.78-3.37-2.8-.07-.09-.17-.14-.28-.14-.04,0-.09,0-.13.02-.07.03-7,2.79-12.39,3.53-1.09.15-2.05.22-2.9.22-1.8,0-3.07-.34-3.77-1-.57-.54-.81-1.32-.72-2.37.01-.15.04-.3.07-.44.48.78,1.84,2.26,5.32,2.26.21,0,.43,0,.66-.02,5.31-.27,13.35-3.09,15.61-4.32,1.77-.96,2.62-1.44,2.96-1.44.09,0,.15.04.17.11.09.3,3.38,4.59,9.38,4.59.72,0,1.49-.06,2.29-.2,7.45-1.3,12.15-7.18,15.05-12.15,2.13-3.65,4.35-7.78,5.38-9.72-.66,2.67-2.16,6.21-4.51,10.68-4.2,7.98-9.35,15.4-18.52,15.73-.25,0-.5.01-.75.01"/>
  <path class="cls-18" d="M36.94,24.7c-.15-.11-.31-.21-.47-.32.1-.3.23-.57.4-.76.29-.31.54-.46.73-.53-.31.32-.53.75-.62,1.26-.02.12-.04.23-.05.35"/>
  <path class="cls-18" d="M38.24,25.71c-.12-.11-.25-.21-.37-.31.07-.47.22-.99.49-1.34.37-.48.88-.6,1.22-.63-.64.43-1.16,1.23-1.34,2.28"/>
  <path class="cls-18" d="M39.23,26.14c.24-.55.64-1.31,1.14-1.63.19-.12.38-.17.55-.17.32,0,.6.17.77.31-.02.11-.06.23-.15.33-.12.14-.3.22-.56.24-.24.02-.48.1-.7.22-.39.15-.74.4-1.06.71"/>
  <path class="cls-15" d="M41.96,42.59c-.29-.14-.57-.3-.84-.45.17-.27.33-.55.48-.84.07.46.19.9.36,1.29M42.73,35.89c-.02-1.11-.17-2.3-.43-3.55-.06-.27-.13-.54-.21-.81.79.37,1.61.74,2.43,1.12.05.35.1.71.14,1.08-.13.08-.26.18-.39.27-.56.41-1.1,1.09-1.54,1.9M42.22,26.08c-.25-.08-.51-.17-.77-.25.17-.05.32-.13.44-.23.09.12.2.28.32.48"/>
  <path class="cls-4" d="M7.25,55.79c.74-1.56,2.9-2.23,5.34-2.99.78-.24,1.58-.49,2.37-.78,2.7-.98,5.6-2.2,7.09-2.84.39.05.77.09,1.15.11-.04.02-.09.04-.13.07-3.59,1.83-9.84,3.62-11.6,4.29-1.57.59-3.75,1.86-4.21,2.13"/>
  <path class="cls-4" d="M43.56,44.53c-1.14-.42-2.14-1.05-2.94-1.67.03-.04.07-.09.1-.13.58.34,1.22.67,1.9.94.03.03.06.07.09.1.26.29.55.54.85.76M56.76,36.39c-.12-.22-.24-.43-.37-.64,1.23-1.72,2.16-3.18,2.37-3.52.3-.2,1.74-1.11,3.06-1.11.31,0,.62.05.9.18.24.11.46.27.64.48-.34-.14-.74-.21-1.17-.21-.98,0-2.08.37-2.88,1.07-.55.48-1.41,1.97-2.55,3.75"/>
  <path class="cls-19" d="M26.91,56.38c.11,0,.21.05.28.14.01.01,1.13,1.43,3.37,2.8,2.06,1.25,5.52,2.71,10.29,2.54,9.18-.32,14.32-7.75,18.52-15.73,3.82-7.26,5.39-12.07,4.78-14.68-.23-1-.92-1.39-1.46-1.55-1.03-.3-2.37.03-3.12.76-.45.66-.74,1.44-.74,1.45,0,.02-.02.04-.03.07-.23.37-5.72,9.06-8.76,10.38-3.22,1.39-4.71-1.1-4.73-1.13-.04-.06-.05-.14-.05-.21.01-.13,1.19-12.63-3.8-16.94-.02-.01-.03-.03-.04-.04-.36-.44-.82-.55-1.3-.32-.88.44-1.56,1.89-1.11,3.74.72,2.9,1.49,9.86-.68,12.86-2.01,2.77-14.71,8.01-15.31,8.25-.16.07-4.32,1.9-8.08,3.27-.8.29-1.6.54-2.37.78-2.9.9-5.41,1.67-5.6,3.98-.09,1.05.15,1.83.72,2.37,1.04.98,3.28,1.25,6.68.78,5.39-.74,12.32-3.5,12.39-3.53.04-.02.09-.02.13-.02M40.09,62.57c-4.57,0-7.9-1.44-9.93-2.68-1.85-1.13-2.96-2.29-3.36-2.74-1.27.49-7.41,2.8-12.32,3.48-3.66.5-6.04.19-7.25-.97-.73-.69-1.04-1.68-.94-2.93.23-2.77,3.08-3.65,6.09-4.59.77-.24,1.56-.48,2.34-.77,3.79-1.38,7.99-3.23,8.04-3.25,0,0,0,0,0,0,.13-.05,13.12-5.4,15.01-8.02,1.83-2.52,1.42-8.82.56-12.28-.55-2.22.33-3.96,1.47-4.53.76-.38,1.57-.19,2.13.48,2.21,1.92,3.55,5.46,4,10.51.29,3.33.08,6.25.02,6.88.26.38,1.44,1.77,3.79.75,2.75-1.19,8.07-9.51,8.43-10.08.07-.17.37-.93.82-1.59.01-.02.03-.03.04-.05.93-.93,2.54-1.33,3.83-.96,1.02.29,1.71,1.02,1.95,2.06.66,2.82-.88,7.64-4.84,15.16-4.3,8.16-9.59,15.76-19.12,16.1-.26,0-.52.01-.78.01"/>
  <path class="cls-19" d="M45.96,44.35c-4.22,0-7.98-3.64-8.14-3.8-.14-.14-.14-.36,0-.49.14-.14.36-.14.49,0,.04.04,3.94,3.81,8.01,3.59,1.8-.1,3.39-.97,4.72-2.6.12-.15.34-.17.49-.05.15.12.17.34.05.49-1.46,1.78-3.22,2.74-5.22,2.85-.13,0-.26.01-.39.01"/>
  <path class="cls-19" d="M26.74,56.43c.45-.28,1.14-.67,1.6-.94.56-.31,1.02-.69,1.65-.9.02,0,.05.02.04.04-.28.62-.85.97-1.35,1.38-.51.38-1.04.73-1.61,1.04-.4.2-.72-.37-.34-.61h0Z"/>
  <path class="cls-19" d="M64.53,34.31c-.17,0-.32-.13-.35-.31-.18-1.43-.67-2.34-1.46-2.69-1.6-.71-3.99.95-4.02.97-.16.11-.38.07-.49-.08-.11-.16-.07-.38.08-.49.11-.08,2.74-1.9,4.7-1.04,1.03.46,1.66,1.55,1.87,3.24.02.19-.11.37-.3.39-.01,0-.03,0-.04,0"/>
  <path class="cls-19" d="M63.48,31.76c-.17,0-.32-.12-.34-.29-.05-.31-.24-1.22-.49-1.66-.1-.17-.04-.38.13-.48.17-.1.38-.04.48.13.37.65.57,1.85.57,1.9.03.19-.1.37-.29.4-.02,0-.04,0-.06,0h0Z"/>
  <path class="cls-19" d="M61.51,31.14c-.18,0-.33-.13-.35-.32-.02-.22-.11-.88-.23-1.2-.07-.18.03-.38.21-.45.18-.07.38.03.45.21.18.48.26,1.34.27,1.38.02.19-.12.36-.31.38-.01,0-.02,0-.03,0h0Z"/>
  <path class="cls-19" d="M5.75,60.65c-.24,0-.46-.02-.62-.07-.3-.1-.36-.33-.37-.42-.01-.13-.05-.49,1.15-1.3-.65-.11-1.43-.28-1.79-.51-.16-.1-.24-.26-.24-.44.01-.38.43-.71,1.35-1.24-.45-.02-.94-.08-1.31-.22-.3-.11-.32-.36-.32-.43,0-.3.18-.57,2.27-1.33,1.01-.37,2.03-.69,2.04-.69.18-.06.38.05.44.23.06.18-.05.38-.23.44-1.27.39-2.7.91-3.42,1.24.39.05.84.06,1.18.07.16,0,.3,0,.4.01.39.03.47.22.47.38,0,.23-.12.3-.67.6-.32.17-1.08.59-1.39.86.51.2,1.6.37,2.26.45.15.02.27.13.3.28.03.15-.04.3-.17.37-.59.34-1.17.75-1.46,1.01.6.02,1.76-.18,2.53-.36.19-.04.38.07.42.26.04.19-.07.38-.26.42-.32.07-1.65.38-2.57.38h0Z"/>
  <path class="cls-19" d="M38.62,27.8c-.06,0-.13-.02-.19-.06-.08-.05-1.83-1.21-1.44-3.39.19-1.03.88-1.74,1.87-1.9.85-.14,1.68.21,2.02.83.09.17.03.38-.14.47-.17.09-.38.03-.47-.14-.19-.36-.74-.56-1.29-.47-.33.05-1.1.28-1.29,1.33-.31,1.71,1.08,2.64,1.14,2.68.16.11.21.32.1.48-.07.1-.18.16-.29.16"/>
  <path class="cls-19" d="M36.42,27.27c-.11,0-.22-.06-.29-.15-.06-.09-1.48-2.18-.65-3.96.24-.52.6-.84,1.07-.97.95-.25,1.96.47,2,.5.16.11.19.33.08.49-.11.16-.33.19-.49.08-.22-.15-.9-.53-1.42-.39-.26.07-.46.26-.61.58-.4.86-.1,1.88.2,2.55.27-.66.67-1.16.69-1.18.12-.15.34-.17.49-.05.15.12.17.34.05.49,0,0-.67.85-.79,1.71-.02.14-.12.26-.27.29-.03,0-.05,0-.08,0"/>
  <path class="cls-19" d="M38.68,28.09c-.06,0-.12-.01-.17-.04-.17-.09-.23-.31-.14-.48.13-.23,1.28-2.25,2.61-2.35.26-.02.44-.1.56-.24.2-.24.17-.59.17-.6-.02-.19.12-.36.31-.38.19-.02.36.12.38.31,0,.07.06.65-.32,1.12-.24.29-.59.46-1.05.49-.8.06-1.77,1.5-2.05,1.99-.06.12-.18.18-.31.18"/>
  <path class="cls-2" d="M20.62,20.01s1.65-.87.79-3.16c-.86-2.29-2.73-2.36-3.96-3.46,0,0,.4,1.56.23,2.76-.17,1.2.13,3.7,2.94,3.86"/>
  <path class="cls-5" d="M21.35,16.7c-.38-.93-.94-1.47-1.55-1.88.32.2,1.09.69,1.55,1.88M19.12,14.43c-.49-.26-.98-.5-1.41-.82,0,0,0,0,0,0,0,0,.8.46,1.41.82"/>
  <path class="cls-23" d="M21.42,18.83s-.24-1.65-.98-2.59c-.73-.94-2.62-2.15-2.62-2.15h0l-.05-.04c-.17-.17-.07-.43-.06-.43,0,0,0,0,0,0,.43.32.93.56,1.41.82.31.18.57.33.67.4,0,0,0,0,0,0,.6.4,1.16.95,1.55,1.88,0,0,0,0,0,0,.45,1.19.07,2.12.07,2.12"/>
  <path class="cls-19" d="M20.31,19.99c-.16,0-.36-.04-.59-.12.18.05.38.1.59.12"/>
  <path class="cls-13" d="M18.2,18.76c-.82-.97-.66-1.91-.53-2.49-.07.68,0,1.69.53,2.49"/>
  <path class="cls-21" d="M20.33,19.99s-.02,0-.02,0c-.21-.03-.41-.07-.59-.12-.27-.1-.6-.28-.97-.58-.22-.17-.4-.35-.55-.52-.53-.81-.6-1.82-.53-2.49,0,0,0,0,0,0,.16-.69.14-1.4.12-1.46-.01-.06-.14-.86-.14-.86l.12.1s.03.03.05.04h0s.52.98.59,2.05c.07,1.08,1.01,2.03,1.01,2.03l-.18-1.46s.51.33,1.06,1.19c.55.86.57,1.94.57,1.94,0,0-.18.15-.54.15"/>
  <path class="cls-8" d="M17.83,14.08s-.04-.03-.05-.04l.05.04"/>
  <path class="cls-19" d="M17.96,14.19c.09.58.16,1.34.07,2.01-.1.75,0,1.82.61,2.56.43.52,1.07.82,1.89.89.28-.19,1.19-.97.55-2.68-.53-1.41-1.45-1.89-2.42-2.4-.23-.12-.47-.24-.7-.38h0ZM20.62,20.36s-.01,0-.02,0c-1.08-.06-1.93-.45-2.5-1.16-.75-.92-.89-2.2-.76-3.1.15-1.11-.22-2.61-.23-2.63-.04-.15.03-.31.16-.39.13-.08.3-.06.41.04.38.33.82.57,1.3.82,1,.52,2.13,1.12,2.75,2.78.96,2.55-.93,3.58-.95,3.59-.05.03-.11.04-.16.04h0Z"/>
  <path class="cls-19" d="M20.44,20.31c-.88-.64-1.19-1.79-1.31-2.82-.03-.34-.02-.68.09-1.01,0-.02.02-.03.04-.02.19.28.26.62.35.94.14.52.32,1.03.58,1.5.16.29.37.59.62.81.38.25.03.83-.37.59h0Z"/>
  <path class="cls-2" d="M57.54,30.49s1.86.17,2.38-2.23c.52-2.4-1.01-3.46-1.45-5.05,0,0-.51,1.53-1.3,2.44-.79.91-1.9,3.17.37,4.84"/>
  <path class="cls-23" d="M59.07,29.37c.19-.55.44-1.42.37-2.16-.08-.87-.59-2.2-.86-2.84.09.16.18.32.27.48.54.96,1.05,1.86.73,3.33-.11.52-.3.91-.5,1.19"/>
  <path class="cls-24" d="M57.81,30.13c-.05-.26-.05-.54-.03-.81.04-.54.16-1.06.33-1.58.06-.18.12-.36.17-.54.07.25.17.7.16,1.33,0,.61-.21,1.18-.37,1.54-.09.03-.18.04-.25.05M57.06,29.56c-.29-.36-.46-.76-.51-1.2-.11-.95.38-1.91.88-2.48.38-.44.69-1,.92-1.48-.07.41-.23,1.05-.56,1.63-.35.63-.35,1.42-.3,1.88-.22.52-.4,1.08-.43,1.65"/>
  <path class="cls-19" d="M58.47,24.15c-.24.53-.59,1.21-1.04,1.72-.5.57-.99,1.53-.88,2.48.08.67.45,1.27,1.11,1.78.34,0,1.53-.17,1.91-1.96.32-1.47-.19-2.38-.73-3.33-.13-.23-.26-.46-.38-.7M57.59,30.84c-.05,0-.08,0-.08,0-.06,0-.12-.03-.18-.07-.88-.64-1.37-1.42-1.47-2.33-.13-1.18.45-2.33,1.04-3.02.73-.85,1.23-2.31,1.24-2.33.05-.15.19-.24.34-.24.15,0,.29.11.33.26.13.48.38.93.65,1.4.55.98,1.18,2.09.8,3.82-.51,2.37-2.26,2.51-2.67,2.51"/>
  <path class="cls-19" d="M57.22,30.64c-.39-1.02-.03-2.15.43-3.08.16-.3.35-.58.62-.79.01-.01.03,0,.04,0,0,.34-.12.66-.22.98-.16.52-.29,1.04-.33,1.58-.02.33-.01.7.08,1.02.19.42-.43.71-.63.3"/>
  <path class="cls-2" d="M19.73,22.37s-1.16-1.46-3.25-.17c-2.09,1.28-1.8,3.12-2.65,4.54,0,0,1.46-.69,2.67-.75,1.21-.06,3.61-.82,3.23-3.62"/>
  <path class="cls-23" d="M14.59,25.86c.06-.18.11-.35.16-.52.32-1.05.62-2.04,1.9-2.83.46-.28.86-.41,1.21-.46-.53.24-1.33.67-1.82,1.22-.58.66-1.17,1.95-1.45,2.59"/>
  <path class="cls-21" d="M14.77,26c.34-.23.92-.56,1.56-.72,1.04-.27,1.8-1.37,1.8-1.37l-1.4.45s.22-.56.97-1.27c.44-.42,1-.67,1.37-.8.15.09.26.18.32.24.09.83-.09,1.51-.52,2.03-.61.74-1.64,1.04-2.4,1.08-.58.03-1.2.19-1.71.36"/>
  <path class="cls-19" d="M18.13,22.02c-.4,0-.89.12-1.47.47-1.28.79-1.58,1.78-1.9,2.83-.08.25-.15.5-.24.76.55-.2,1.29-.41,1.96-.45.76-.04,1.79-.35,2.4-1.08.43-.52.61-1.2.52-2.03-.15-.15-.58-.5-1.27-.5M13.83,27.09c-.1,0-.19-.04-.26-.11-.1-.11-.12-.28-.04-.41.26-.43.4-.92.56-1.43.33-1.08.69-2.3,2.2-3.23,2.33-1.43,3.7.24,3.71.25.04.05.06.11.07.17.14,1.08-.08,1.98-.66,2.68-.76.91-2,1.29-2.9,1.34-1.12.06-2.52.71-2.54.72-.05.02-.1.03-.15.03"/>
  <path class="cls-19" d="M20.05,22.5c-.46.99-1.53,1.51-2.52,1.82-.33.1-.66.15-1,.1-.02,0-.03-.02-.03-.04.24-.24.56-.37.86-.52.49-.24.95-.51,1.36-.86.25-.22.51-.48.68-.76.18-.43.81-.19.65.25h0Z"/>
  <path class="cls-19" d="M73.97,41.08c-.08,0-.15-.02-.21-.07-.15-.12-.18-.34-.06-.49.03-.04,2.38-3.16.81-7.54-.07-.18.03-.38.21-.45.18-.07.38.03.45.21,1.71,4.76-.81,8.07-.92,8.2-.07.09-.17.13-.28.13h0Z"/>
  <path class="cls-1" d="M39.86,26.33c-.4.32-.73.66-1.01.99,5.58,2.36,11.55,4.94,17.53,7.18.62-.93,1.25-1.71,1.8-2.34-.35-.08-.7-.17-1.05-.26-5.61-1.45-11.88-3.67-17.26-5.57"/>
  <path class="cls-1" d="M51.51,29.09c-.35-.11-.71-.22-1.06-.33-3.02-.97-6.25-2.04-9.55-3.1-.03.02-.06.03-.09.05,2.58.88,6.52,2.17,10.7,3.38"/>
  <path class="cls-1" d="M54.6,36.43c-3.78-1.43-8.61-3.53-12.97-5.5,4.17,1.95,8.57,3.91,12.97,5.5"/>
  <path class="cls-1" d="M56.16,30.32c-.72-.17-1.45-.35-2.18-.54,0,0,.02,0,.03,0,.69.19,1.41.36,2.15.53"/>
  <path class="cls-12" d="M58.64,30.86c-.16-.03-.32-.06-.47-.09.02,0,.03,0,.05-.01.14.03.29.06.43.08,0,0,0,.02-.01.02M57.02,30.52c-.28-.06-.57-.13-.86-.19.28.06.56.12.84.18,0,0,0,0,.01.01"/>
  <path class="cls-12" d="M59.29,30.99c-.1-.02-.21-.04-.31-.06,0,0,0,0,0,0h0c-.12-.02-.23-.05-.35-.07,0,0,0-.02.01-.02.22.04.45.08.67.12-.01.01-.02.02-.03.03"/>
  <path class="cls-12" d="M58.17,30.76c-.11-.02-.22-.05-.33-.07,0,0-.01,0-.02,0,0,0,0-.01.01-.02.13.03.26.05.38.08-.02,0-.03,0-.05.01M57.19,30.56c-.06-.01-.12-.03-.18-.04,0,0,0,0-.01-.01.06.01.12.03.19.04,0,0,0,0,0,.01"/>
  <path class="cls-12" d="M57.82,30.69c-.21-.04-.42-.09-.63-.14,0,0,0,0,0-.01.21.04.43.09.64.13,0,0,0,.01-.01.02"/>
  <path class="cls-12" d="M53.98,29.78c-.83-.22-1.65-.45-2.47-.7.82.24,1.65.47,2.47.7"/>
  <path class="cls-1" d="M39.86,26.33c5.38,1.9,11.65,4.12,17.26,5.57.35.09.7.18,1.05.26.44-.5.52-.96.81-1.24-1.03-.2-1.77-.36-2.83-.61-.74-.17-1.47-.35-2.15-.53,0,0-.02,0-.03,0-.83-.22-1.65-.45-2.47-.7-4.18-1.21-8.12-2.5-10.7-3.38-.35.19-.67.41-.95.63"/>
  <path class="cls-3" d="M57.85,32.09c-.24-.06-.49-.12-.73-.18-5.56-1.44-11.77-3.63-17.11-5.52.28-.22.59-.36.91-.38.12,0,.21-.07.27-.17,2.58.87,6.34,2.1,10.31,3.25.82.25,1.65.48,2.47.7,0,0,.02,0,.03,0,.69.19,1.41.36,2.15.53,1.06.25,1.8.41,2.83.61,0,0,0,0,0,0-.11.1-.19.23-.26.38-.03,0-.05,0-.08,0-.09,0-.19.04-.26.11-.01.01-.23.25-.53.67"/>
  <path class="cls-1" d="M37.78,29.11c1.26.6,2.54,1.21,3.85,1.82,4.36,1.97,9.19,4.07,12.97,5.5.18.07.37.13.55.19.38-.77.8-1.48,1.23-2.12-5.98-2.23-11.95-4.82-17.53-7.18-.56.68-.9,1.35-1.07,1.79"/>
  <path class="cls-20" d="M55.85,35.03c-.38-.46-.78-.85-1.14-1.16.52.2,1.03.39,1.55.59-.14.19-.27.39-.41.58M46.58,32.8c-1.65-.73-3.26-1.47-4.8-2.19-.37-.94-.86-1.83-1.48-2.67,3.06,1.3,6.23,2.65,9.44,3.96-.17.12-.35.23-.57.29-.31.1-.66.16-1.03.23-.47.09-1,.19-1.57.37"/>
  <path class="cls-19" d="M58.64,32c-.05,0-.1-.01-.15-.03-.17-.08-.25-.29-.17-.47l.15-.32c-2.94-.59-5.53-1.26-8.14-2.09-1.72-.55-3.48-1.12-5.34-1.73-1.4-.46-2.84-.93-4.29-1.4-.18-.06-.28-.26-.23-.44.06-.18.26-.28.44-.23,1.45.47,2.89.94,4.29,1.4,1.86.61,3.61,1.18,5.33,1.73,2.7.86,5.4,1.55,8.5,2.16.11.02.2.09.24.19.05.1.05.21,0,.31l-.35.73c-.06.13-.19.2-.32.2h0Z"/>
  <path class="cls-19" d="M55.15,36.97s-.08,0-.12-.02c-6.1-2.16-12.35-5.13-17.37-7.51-.16-.08-.24-.26-.18-.43.05-.14,1.28-3.53,3.39-3.7.19-.02.36.13.38.32.02.19-.13.36-.32.38-1.25.1-2.26,1.95-2.67,2.95,4.89,2.32,10.9,5.16,16.76,7.26.47-.65,1.88-2.63,2.32-3.34.56-.9,1.03-1.42,1.05-1.44.13-.14.35-.15.49-.02.14.13.15.35.02.49,0,0-.45.5-.97,1.34-.55.88-2.42,3.49-2.5,3.6-.07.09-.17.15-.28.15"/>
  <path class="cls-19" d="M28.13,25.05s-.09,0-.13-.03c-8.06-3.33-15.29-3.83-15.36-3.83-.15,0-.27-.11-.31-.25-.35-1.25.49-2.03.98-2.27.17-.08.38-.01.47.16.08.17.01.38-.16.47-.08.04-.76.41-.66,1.22,1.39.12,8.02.85,15.31,3.86.18.07.26.28.19.46-.06.13-.19.22-.32.22"/>
  <path class="cls-14" d="M49.9,45.78s-4.57.34-6.93-2.25c-2.38-2.61-.4-7.84,1.51-9.25,2-1.47,3.58-1.37,4.8-1.75,1.22-.38,1.71-1.72,1.71-1.72,0,0,.44.85.39,1.57,0,0,1.23-.27,1.84-.74,0,0,.29,1.02-.03,1.57,0,0,4.11,2.31,3.92,6.31-.17,3.78-2.13,6.19-7.22,6.26"/>
  <path class="cls-4" d="M55.71,36.03c-1.08-1.21-2.33-2.03-2.57-2.17-.35-.21-.6-.29-.45-.61.15-.32.27-.86.15-.89-.47.26-1.16.44-1.57.44-.17,0-.29-.03-.32-.1.05-.36.02-.84-.07-.85,0,0,0,0,0,0-.1,0-.42.66-.97.94-.56.29-1.28.33-2.63.61-.35.07-.71.17-1.05.27.75-.32,1.43-.44,2.06-.56.39-.07.76-.14,1.1-.25.75-.23,1.25-.77,1.56-1.22.07.23.11.49.1.72,0,.11.04.22.12.29.06.06.15.08.23.08.03,0,.05,0,.08,0,.04,0,.85-.19,1.52-.53.04.31.03.64-.08.83-.05.08-.06.18-.04.27.02.09.08.17.17.21.02.01,1.59.92,2.69,2.52"/>
  <path class="cls-6" d="M50.85,39.78c-.02-.65.3-1.96,2-1.74,1.43.2,2.26.72,2.73,1.15-.12-1.4-.82-2.53-2.27-2.97-2.27-.69-4.09.77-4.09.77-1.16-1.26-3.79-1.93-5.17-.33-.49.57-.9,1.46-1.04,2.43.36-.38.92-.81,1.8-1.07,1.92-.57,2.9.87,2.74,1.83-.16.95-.87,1.54-1.97,1.81-.66.16-1.03.77-1.22,1.22.44.38,1,.71,1.69.98,3.55,1.33,7.22.62,8.67-1.17-.23-.33-.75-.81-1.91-1.11-1.79-.47-1.94-1.14-1.96-1.79"/>
  <path class="cls-10" d="M55.57,39.19c-.47-.44-1.3-.96-2.73-1.15-1.69-.21-2.01,1.09-2,1.74.02.65.17,1.32,1.96,1.79,1.16.31,1.68.78,1.91,1.11.23-.29.41-.6.52-.94.28-.89.41-1.76.34-2.55"/>
  <path class="cls-10" d="M45.58,41.66c1.1-.27,1.81-.85,1.97-1.81.16-.95-.82-2.39-2.74-1.83-.88.26-1.44.68-1.8,1.07-.18,1.29.12,2.72,1.35,3.79.19-.46.56-1.06,1.22-1.22"/>
  <path class="cls-19" d="M50.94,31.64c-.3.45-.81.99-1.56,1.22-.35.11-.71.18-1.1.25-1.03.2-2.2.42-3.59,1.45-1.02.75-2.2,2.86-2.42,5.1-.1,1.06-.02,2.55.96,3.63,2.21,2.43,6.6,2.14,6.64,2.13,0,0,.01,0,.02,0,4.51-.06,6.7-1.94,6.88-5.92.17-3.74-3.71-5.97-3.75-5.99-.08-.05-.14-.12-.17-.21-.02-.09-.01-.19.04-.27.11-.19.12-.53.08-.83-.66.33-1.47.52-1.52.53-.11.02-.22,0-.3-.08-.08-.07-.13-.18-.12-.29.02-.23-.03-.48-.1-.72M49.33,46.14c-1.35,0-4.66-.23-6.62-2.38-.92-1.01-1.31-2.45-1.14-4.17.22-2.21,1.38-4.62,2.7-5.59,1.52-1.12,2.83-1.37,3.88-1.57.37-.07.72-.14,1.03-.23,1.03-.32,1.48-1.5,1.49-1.51.05-.13.17-.22.31-.23.14,0,.27.06.33.19.02.03.32.63.41,1.29.41-.12.98-.33,1.3-.57.09-.07.21-.09.32-.05.11.04.19.12.23.24.03.1.24.88.07,1.52.94.6,4,2.86,3.84,6.47-.09,2.1-.71,3.66-1.88,4.76-1.27,1.2-3.13,1.8-5.68,1.83-.06,0-.27.02-.58.02"/>
  <path class="cls-19" d="M49.12,40.8s-.99-.45-.9-.76c.09-.31,1.49-.27,1.66-.08.17.2-.77.84-.77.84"/>
  <path class="cls-19" d="M47.94,41.23c.91.3,1.55.32,2.45,0,.09-.03.17.08.1.15-.58.69-1.71.85-2.41.27-.08-.08-.38-.3-.23-.41.03-.02.06-.02.09,0"/>
  <path class="cls-19" d="M49.26,42c-.09,0-.17-.04-.22-.12-.22-.32-.2-.97-.19-1.1,0-.15.13-.26.28-.26.15,0,.26.13.26.28-.01.24.02.65.1.77.08.12.05.29-.07.37-.05.03-.1.05-.15.05"/>
  <path class="cls-15" d="M49.38,45.44c-1.21,0-4.38-.2-6.16-2.15-.99-1.08-1.07-2.57-.96-3.63,0-.03,0-.05,0-.08.15-.52.27-1.07.34-1.64.22-.71.52-1.37.85-1.92-.13.59-.27,1.37-.27,2.23-.08.27-.15.55-.19.84.06-.07.13-.14.21-.2h0c-.08.07-.14.14-.21.2-.18,1.29.12,2.72,1.35,3.79h0c.44.38,1,.71,1.69.98.72.27,1.44.46,2.15.57.82.24,1.67.36,2.51.36,2.29,0,4.48-.94,5.71-3.13-.8,2.52-2.92,3.73-6.52,3.77,0,0-.01,0-.02,0,0,0-.19.01-.48.01"/>
  <path class="cls-9" d="M48.2,44.42c-.71-.11-1.43-.3-2.15-.57-.7-.26-1.25-.6-1.69-.98.06-.15.15-.32.25-.48.26.28.57.55.93.79.81.54,1.72.96,2.66,1.23M43,39.09c.04-.29.1-.57.19-.84,0,.21,0,.42.02.64-.08.07-.14.14-.21.2"/>
  <path class="cls-11" d="M44.35,42.88c-1.23-1.06-1.53-2.5-1.35-3.79.06-.07.13-.14.21-.2.08,1.2.45,2.48,1.4,3.51-.11.16-.19.33-.25.48h0"/>
  <path class="cls-19" d="M49.6,45.84c-2.79,0-5.61-.91-6.93-2.68-.54-.73-.75-1.61-.77-2.54.14-.34.26-.69.37-1.04,0,.03,0,.05,0,.08-.1,1.06-.02,2.55.96,3.63,1.78,1.95,4.95,2.15,6.16,2.15.3,0,.48-.01.48-.01,0,0,.01,0,.02,0,3.61-.05,5.73-1.26,6.52-3.77.28-.49.5-1.04.67-1.66,0,0,0,3.79-3.54,5.17-1.18.46-2.56.68-3.94.68M42.62,37.94c.05-.36.08-.73.1-1.1.38-.93.81-1.63,1.05-1.87,0,0-.15.4-.3,1.05-.33.56-.63,1.21-.85,1.92"/>
  <path class="cls-18" d="M49.43,41.45c-.02-.08-.04-.19-.04-.3.04.06.09.11.16.15.08.05.19.07.3.09-.14.03-.28.05-.41.06M48.88,41.44c-.2-.02-.41-.06-.64-.13.14.02.3.04.42.04.06,0,.11,0,.13-.02.02-.02.05-.05.07-.1,0,.07.01.14.03.21"/>
  <path class="cls-17" d="M48.95,41.7s-.01,0-.02,0c-.75-.09-.99-.42-.99-.42,0,0,.14.03.3.05.22.06.43.1.64.13.02.09.04.17.06.25M49.53,41.68s-.02-.07-.04-.09c-.02-.03-.04-.07-.05-.13.13-.01.27-.03.41-.06.11.02.23.02.31.02.08,0,.13,0,.13,0,0,0-.31.19-.76.27"/>
  <path class="cls-17" d="M49.16,41.71c-.07,0-.14,0-.21-.01-.03-.08-.05-.16-.06-.25-.01-.07-.02-.14-.03-.21.07-.17.1-.49.13-.5.02,0,.09,0,.15,0,.05,0,.09,0,.09,0,0,0,.04.24.17.42,0,.11.02.22.04.3.01.06.03.1.05.13.02.03.03.06.04.09-.11.02-.23.03-.36.03"/>
  <path class="cls-6" d="M48.22,40.04s0-.02.02-.03c0,.01-.01.02-.02.03M49.43,39.83c-.11-.01-.24-.02-.36-.02h0c.14,0,.26,0,.35.02"/>
  <path class="cls-12" d="M48.91,40.13c-.45,0-.7-.04-.69-.09h0s0-.02.02-.03c.05-.07.26-.19.8-.2h.03c.12,0,.25,0,.36.02.34.04.45.13.45.13,0,0-.19.15-.78.17-.07,0-.13,0-.19,0"/>
  <path class="cls-19" d="M48.53,40.13c.1.1.32.24.55.36.18-.13.34-.27.45-.38-.28-.05-.77-.05-1,.02h0ZM49.12,41.07s-.08,0-.11-.02c-.55-.25-1.18-.64-1.05-1.08.08-.27.41-.34.52-.37.36-.08,1.34-.11,1.6.19.07.08.1.18.08.28-.04.3-.51.68-.9.95-.05.03-.1.05-.15.05h0Z"/>
  <path class="cls-19" d="M47.08,39.81c0,.68-.47,1.23-1.05,1.23s-1.05-.55-1.05-1.23.47-1.23,1.05-1.23,1.05.55,1.05,1.23"/>
  <path class="cls-6" d="M46.68,39.59c0,.28-.17.52-.39.52s-.39-.23-.39-.52.17-.51.39-.51.39.23.39.51h0Z"/>
  <path class="cls-7" d="M45.74,40.69c-.11,0-.23-.1-.29-.26-.07-.19-.04-.37.08-.42.02,0,.04-.01.06-.01.11,0,.23.1.29.26.07.19.04.37-.08.42-.02,0-.04.01-.06.01"/>
  <path class="cls-19" d="M51.34,39.81c0,.68.47,1.23,1.05,1.23s1.05-.55,1.05-1.23-.47-1.23-1.05-1.23-1.05.55-1.05,1.23"/>
  <path class="cls-6" d="M51.74,39.59c0,.28.17.52.39.52s.39-.23.39-.52-.17-.51-.39-.51-.39.23-.39.51h0Z"/>
  <path class="cls-7" d="M52.68,40.69s-.04,0-.06-.01c-.12-.05-.15-.24-.08-.42.06-.16.18-.26.29-.26.02,0,.04,0,.06.01.12.05.15.24.08.42-.06.16-.18.26-.29.26"/>
  <path class="cls-14" d="M31.35,47.91s-8.51,2.93-14.28-.82c-5.82-3.78-4.67-14.71-1.75-18.34,3.06-3.79,6.12-4.39,8.25-5.72,2.13-1.33,2.39-4.12,2.39-4.12,0,0,1.26,1.4,1.53,2.79,0,0,2.19-1.13,3.13-2.33,0,0,1.06,1.8.73,2.99,0,0,8.95,2.34,10.61,10.04,1.56,7.28-.96,12.83-10.61,15.49"/>
  <path class="cls-4" d="M39.46,27.97c-3.03-2.73-7.22-4.13-7.88-4.32-.76-.22-1.28-.25-1.16-.93.12-.68.08-1.76-.17-1.76-.91.88-2.49,1.67-3.15,1.67-.13,0-.22-.03-.27-.09-.08-.71-.38-1.58-.56-1.58,0,0,0,0,0,0-.18.02-.47,1.45-1.38,2.28-.91.83-2.26,1.26-4.69,2.48-1.35.67-2.7,1.54-3.64,2.18,1.85-1.92,3.65-2.78,5.27-3.55.69-.33,1.35-.64,1.94-1.01,1.55-.97,2.17-2.62,2.41-3.6.37.51.84,1.28.98,2.04.02.11.09.2.19.25.05.02.1.04.15.04s.11-.01.16-.04c.08-.04,1.83-.95,2.89-2.03.3.63.65,1.62.47,2.29-.02.09-.01.19.03.27.05.08.12.14.21.16.02,0,2.23.6,4.6,2.1,1.46.93,2.67,1.98,3.6,3.16"/>
  <path class="cls-6" d="M30.17,36.04c-.35-1.23-.4-3.87,2.93-4.31,2.81-.34,4.65.24,5.76.83-.92-2.6-2.83-4.4-5.8-4.51-4.66-.18-7.39,3.5-7.39,3.5-2.83-1.82-8.17-1.77-9.99,1.95-.65,1.33-.99,3.23-.76,5.14.48-.91,1.35-1.99,2.89-2.93,3.37-2.04,5.94.22,6.12,2.1.18,1.89-.89,3.35-2.84,4.41-1.17.64-1.57,1.97-1.71,2.93,1.02.51,2.25.86,3.71,1.01,7.41.76,14.03-2.42,15.89-6.55-.61-.51-1.83-1.16-4.19-1.16-3.64,0-4.26-1.2-4.61-2.43"/>
  <path class="cls-10" d="M38.86,32.56c-1.1-.6-2.95-1.17-5.76-.83-3.33.44-3.28,3.08-2.93,4.31.35,1.23.98,2.43,4.61,2.43,2.36,0,3.58.65,4.19,1.16.3-.66.47-1.35.51-2.05.1-1.82-.11-3.55-.63-5.02h0Z"/>
  <path class="cls-10" d="M21.08,42.23c1.95-1.06,3.01-2.53,2.84-4.41-.18-1.89-2.75-4.14-6.12-2.1-1.54.93-2.4,2.02-2.89,2.93.3,2.53,1.59,5.11,4.46,6.52.14-.96.54-2.3,1.71-2.93"/>
  <path class="cls-19" d="M26.16,19.74c-.24.98-.87,2.63-2.41,3.6-.59.37-1.24.68-1.94,1.01-1.89.9-4.04,1.92-6.22,4.63-1.61,1.99-2.84,6.71-2.13,11.17.34,2.13,1.27,5.02,3.79,6.66,5.56,3.61,13.89.81,13.98.78,0,0,.01,0,.02,0,8.64-2.38,12.03-7.32,10.36-15.08-.66-3.09-2.6-5.67-5.75-7.67-2.37-1.51-4.58-2.1-4.6-2.1-.09-.02-.17-.08-.21-.16-.05-.08-.06-.18-.03-.27.19-.67-.17-1.66-.47-2.29-1.06,1.08-2.81,1.99-2.89,2.03-.1.05-.21.05-.31,0-.1-.05-.17-.14-.19-.25-.14-.76-.62-1.53-.98-2.04M24.43,49.35c-2.38,0-5.19-.42-7.56-1.96-2.16-1.4-3.58-3.87-4.1-7.13-.68-4.23.3-9.27,2.28-11.72,2.29-2.83,4.6-3.94,6.47-4.82.67-.32,1.31-.62,1.87-.97,1.95-1.22,2.23-3.83,2.23-3.86.01-.14.11-.25.24-.3s.28,0,.37.1c.05.05,1.08,1.2,1.5,2.5.66-.37,1.98-1.19,2.62-2.02.07-.09.18-.14.3-.13.12,0,.22.07.28.17.04.07.96,1.64.83,2.92.71.22,2.51.85,4.47,2.09,3.28,2.08,5.38,4.89,6.08,8.13,1.76,8.2-1.79,13.4-10.85,15.9-.19.06-2.26.75-5.05,1.01-.6.06-1.27.09-1.97.09"/>
  <path class="cls-19" d="M27.38,38.84s-2.11-.35-2.09-1c.02-.64,2.7-1.26,3.13-.98.42.29-1.04,1.97-1.04,1.97"/>
  <path class="cls-19" d="M25.35,40.29c1.87.33,3.27-.03,4.74-1.24.1-.08.24.04.18.15-.84,1.48-2.77,2.27-4.38,1.64-.22-.09-.44-.19-.64-.34-.05-.04-.06-.11-.02-.17.03-.04.08-.05.12-.04"/>
  <path class="cls-19" d="M28.13,40.89c-.08,0-.16-.03-.23-.09-.54-.47-.83-1.75-.86-1.89-.04-.19.08-.37.27-.41.19-.04.37.08.41.27.1.46.36,1.27.63,1.51.15.13.16.35.04.49-.07.08-.17.12-.26.12"/>
  <path class="cls-15" d="M24.39,48.64c-2.36,0-4.96-.43-7.14-1.84-2.52-1.63-3.45-4.52-3.79-6.66-.49-3.08-.05-6.28.79-8.63-.02,1.2.04,3.25.6,5.44-.03.55,0,1.12.06,1.69.08-.16.18-.32.29-.49h0c-.11.17-.21.33-.29.49.3,2.53,1.59,5.11,4.46,6.52h0c1.02.51,2.25.86,3.71,1.01.75.08,1.48.11,2.21.11s1.46-.04,2.16-.11c.15,0,.3,0,.44,0,6.64,0,13.1-3.51,14.1-10.98.38,6.21-3.16,10.27-10.74,12.36,0,0-.01,0-.02,0-.05.02-3.16,1.06-6.84,1.06"/>
  <path class="cls-9" d="M25.29,46.29c-.73,0-1.46-.04-2.21-.11-1.45-.15-2.68-.51-3.71-1.01.05-.32.12-.68.24-1.04.64.41,1.36.76,2.16,1.04,1.81.63,3.75.97,5.68,1.01-.71.07-1.43.11-2.16.11M14.92,38.65c-.07-.57-.09-1.14-.06-1.69.1.4.22.8.35,1.2-.11.17-.21.33-.29.49"/>
  <path class="cls-11" d="M19.37,45.17c-2.86-1.41-4.16-3.99-4.46-6.52.08-.16.18-.32.29-.49.76,2.25,2.09,4.49,4.41,5.98-.12.36-.2.72-.24,1.04h0"/>
  <path class="cls-19" d="M24.76,48.99c-3.28,0-6.33-.76-8.43-2.45-5.06-4.05-3.02-14.41-2.01-16.1,0,0-.04.4-.05,1.07-.85,2.34-1.29,5.55-.79,8.63.34,2.13,1.27,5.02,3.79,6.66,2.17,1.41,4.77,1.84,7.14,1.84,3.68,0,6.79-1.04,6.84-1.06,0,0,.01,0,.02,0,7.58-2.09,11.12-6.15,10.74-12.36.08-.6.13-1.23.13-1.88,0,0,1.91,7.2-4.15,11.59-3.54,2.56-8.61,4.07-13.22,4.07"/>
  <path class="cls-18" d="M26.59,40.41c-.32,0-.65-.03-1-.08.35-.03,1.39-.13,1.53-.28.07-.08.09-.31.08-.55.08.26.19.56.34.83-.3.06-.62.08-.95.08M28.24,40.14c-.2-.29-.38-.84-.48-1.23.15.24.42.59.77.69.1.03.22.04.34.04.16,0,.33-.02.49-.05-.37.24-.74.42-1.12.55"/>
  <path class="cls-17" d="M26.89,40.7c-.99,0-1.42-.36-1.42-.36,0,0,.04,0,.11,0,.35.05.68.08,1,.08s.64-.03.95-.08c.06.11.12.21.19.3-.06.01-.11.02-.17.03-.25.04-.47.05-.67.05M28.46,40.42c-.02-.05-.05-.1-.1-.14-.04-.04-.08-.08-.12-.14.38-.13.75-.32,1.12-.55.34-.06.63-.16.63-.16,0,0-.58.61-1.53.98"/>
  <path class="cls-17" d="M27.73,40.62c-.07-.09-.13-.19-.19-.3-.15-.27-.26-.57-.34-.83,0-.32-.05-.66-.01-.68.06-.03.45-.13.45-.13,0,0,.04.09.13.22.1.39.28.94.48,1.23.04.06.08.1.12.14.04.04.08.09.1.14-.22.09-.46.16-.73.21"/>
  <path class="cls-6" d="M25.3,37.85s0-.04.01-.07c0,.02-.01.05-.01.07h0M26.78,36.99c.28-.07.52-.12.72-.15-.23.03-.47.08-.72.15"/>
  <path class="cls-12" d="M25.46,37.89c-.1,0-.16-.02-.17-.05h0s0-.05.01-.07c.07-.16.4-.49,1.43-.77.01,0,.02,0,.04,0,.24-.06.49-.11.72-.15.19-.03.34-.03.46-.03.33,0,.46.06.46.06,0,0-.29.38-1.4.7-.77.22-1.3.32-1.56.32"/>
  <path class="cls-19" d="M28.24,37.17h0ZM25.66,37.86c.12.18.84.45,1.59.6.42-.51.79-1.06.88-1.32-.56-.06-2.23.37-2.47.72h0ZM27.38,39.19s-.04,0-.06,0c-.73-.12-2.41-.5-2.38-1.35.01-.31.24-.57.71-.81.73-.37,2.44-.8,2.96-.44.12.08.2.22.22.37.08.58-.81,1.67-1.19,2.12-.07.08-.16.12-.26.12h0Z"/>
  <path class="cls-6" d="M44.31,20.38c-.49-.8-.73-1.76-.63-2.77.25-2.44,2.43-4.22,4.88-3.97,2.44.25,4.22,2.43,3.97,4.88-.25,2.44-2.43,4.22-4.88,3.97-.68-.07-1.31-.29-1.85-.62l-2.06.46.57-1.95"/>
  <path class="cls-6" d="M52.1,17.15c-.62-1.43-1.97-2.49-3.63-2.66-.15-.02-.31-.02-.46-.02-1.48,0-2.82.73-3.63,1.89.66-1.43,2.1-2.39,3.72-2.39.14,0,.28,0,.42.02,1.09.11,2.07.64,2.76,1.49.4.5.68,1.07.82,1.68"/>
  <path class="cls-19" d="M45.8,21.51c.06,0,.13.02.18.05.52.32,1.1.51,1.71.57,2.25.23,4.26-1.41,4.49-3.66.11-1.09-.21-2.16-.9-3-.69-.85-1.67-1.38-2.76-1.49-2.25-.23-4.26,1.41-4.49,3.66-.09.9.11,1.78.58,2.55.05.08.06.19.04.28l-.4,1.38,1.48-.33s.05,0,.08,0M48.11,22.86c-.16,0-.33,0-.49-.03-.67-.07-1.3-.27-1.88-.6l-1.92.43c-.12.03-.25-.01-.33-.1-.08-.09-.12-.22-.08-.34l.53-1.8c-.49-.87-.7-1.85-.6-2.85.27-2.63,2.63-4.55,5.26-4.28,1.27.13,2.42.75,3.23,1.74.81.99,1.18,2.24,1.05,3.52-.25,2.46-2.34,4.31-4.77,4.31"/>
  <path class="cls-18" d="M48.11,22.16c-.14,0-.28,0-.42-.02-.61-.06-1.19-.26-1.71-.57-.06-.03-.12-.05-.18-.05-.03,0-.05,0-.08,0l-1.48.33.37-1.26c.86.62,1.9.96,2.99.96.41,0,.83-.05,1.24-.15,1.46-.36,2.61-1.32,3.28-2.54-.38,1.91-2.07,3.3-4.02,3.3"/>
  <path class="cls-17" d="M48.11,22.51c-.15,0-.3,0-.46-.02-.68-.07-1.31-.29-1.85-.62l-2.06.46.57-1.95s-.02-.03-.02-.04c.11.09.21.17.33.25l-.37,1.26,1.48-.33s.05,0,.08,0c.06,0,.13.02.18.05.52.32,1.1.51,1.71.57.14.01.28.02.42.02,1.95,0,3.64-1.39,4.02-3.3.18-.33.32-.67.42-1.03.01.23,0,.46-.02.69-.23,2.29-2.17,3.99-4.42,3.99"/>
  <path class="cls-16" d="M46.69,16.81h0c.38-.38,1.01-.32,1.39.07l.06.06.06-.06c.38-.38,1.01-.45,1.39-.07h0c.38.38.38,1.01,0,1.39l-.06.06-1.21,1.21c-.1.1-.27.1-.37,0l-1.21-1.21-.06-.06c-.38-.38-.38-1.01,0-1.39h0Z"/>
  <path class="cls-19" d="M18.47,38.48c.03-.05.06-.09.08-.13.03-.04.06-.08.09-.12.06-.08.12-.15.19-.22.13-.14.28-.26.43-.37.31-.22.67-.4,1.04-.5.19-.05.39-.09.58-.1.2-.01.4,0,.59.02.39.05.76.18,1.08.39.16.11.21.33.1.49-.07.11-.19.16-.31.16h-.02c-.32-.01-.61-.02-.9,0-.14.01-.28.03-.42.05-.14.02-.27.05-.41.09-.27.07-.54.17-.81.3-.14.06-.27.13-.4.2l-.2.11-.1.06s-.07.04-.09.05l-.12.04c-.18.06-.37-.04-.43-.22-.03-.1-.02-.2.03-.28h0Z"/>
  <path class="cls-19" d="M35.4,35.33s-.07,0-.1,0h-.11s-.23-.03-.23-.03c-.15-.01-.3-.02-.45-.02-.3,0-.58,0-.86.05-.14.02-.28.05-.41.08-.14.03-.27.08-.41.12-.27.09-.54.22-.83.35h-.02c-.18.09-.39.01-.47-.16-.05-.12-.04-.25.03-.34.21-.32.5-.58.84-.79.17-.1.35-.18.54-.25.19-.06.38-.11.58-.13.39-.05.78-.03,1.16.05.19.04.37.1.54.18.09.04.17.08.26.13.04.02.08.05.12.07.04.03.08.05.13.09.15.11.19.32.08.47-.06.08-.15.13-.25.14h-.13Z"/>
</svg>