<?xml version="1.0" encoding="UTF-8"?>
<svg id="Vrstva_1" data-name="Vrstva 1" xmlns="http://www.w3.org/2000/svg" viewBox="0 0 35.47 36.85">
  <defs>
    <style>
      .cls-1 {
        fill: #1d1d1b;
      }
    </style>
  </defs>
  <path class="cls-1" d="M34.84,18.43c2.94,19.36-5.78,12.38-17.29,17.29S2.23,27.97.27,18.43C-1.69,8.88,9.97-3.76,17.56,1.14c7.58,4.91,14.34-2.07,17.29,17.29Z"/>
  <path class="cls-1" d="M12.77,36.85c-1.36,0-2.62-.3-3.77-.91C3.86,33.25,1.61,25.17.22,18.44-1.03,12.36,3.18,5.33,7.97,2.06,9.59.95,11.27.26,12.85.06c1.74-.22,3.33.13,4.73,1.04,2.29,1.48,4.46,1.87,6.56,2.24,2.34.42,4.55.81,6.39,2.79,2.03,2.18,3.41,6.09,4.35,12.29.98,6.45.72,10.26-.85,12.35-1.5,2-4.07,2.34-7.33,2.78-2.71.36-5.78.78-9.14,2.21-1.71.73-3.31,1.09-4.8,1.09ZM13.83.11c-1.84,0-3.84.68-5.8,2.03C3.26,5.4-.92,12.38.32,18.42c1.38,6.71,3.62,14.76,8.73,17.44,2.4,1.25,5.25,1.19,8.49-.19,3.37-1.44,6.44-1.85,9.16-2.21,3.24-.43,5.8-.78,7.27-2.74,1.55-2.07,1.81-5.86.83-12.28-.94-6.18-2.32-10.07-4.33-12.24-1.82-1.95-4.01-2.35-6.34-2.76-2.11-.38-4.29-.76-6.6-2.26C16.42.47,15.16.11,13.83.11Z"/>
</svg>