<?xml version="1.0" encoding="UTF-8"?>
<svg id="Vrstva_1" data-name="Vrstva 1" xmlns="http://www.w3.org/2000/svg" viewBox="0 0 79.69 88.62">
  <defs>
    <style>
      .cls-1 {
        fill: #ecc18e;
      }

      .cls-2 {
        fill: #fff;
      }

      .cls-3 {
        fill: #efcea9;
      }

      .cls-4 {
        fill: #c68e7b;
      }

      .cls-5 {
        fill: #bf8678;
      }

      .cls-6 {
        fill: #9d9d9c;
      }

      .cls-7 {
        fill: #fcf8f7;
      }

      .cls-8 {
        fill: #d1b9ca;
      }

      .cls-9, .cls-10 {
        fill: #64140e;
      }

      .cls-10 {
        font-family: KabouterDEMO-Regular, 'Kabouter DEMO';
        font-size: 9.48px;
      }

      .cls-11 {
        fill: #977761;
      }
    </style>
  </defs>
  <g>
    <g>
      <path class="cls-6" d="M29.09,86.65c-2.27-.09-13.92-.6-13.98-1.74-.02-.41,1.76-.79,2.61-.87l7.05-.59c.07.77.49,1.38,1.24,1.61.52.16,1.07.18,1.63.09.76.46,1.66.55,2.57.23.9.37,1.84.27,2.83.09l1.72-.32c1.43-.14,2.6-.92,3.19-2.23l.14-.17c1.6,0,3.21.02,4.81.05l.16.18c.71,1.51,2.24,2.28,3.93,2.23,1.24.46,2.57.64,3.8.17.92.29,1.79.21,2.58-.23.73.11,1.47.03,2.1-.34.5-.29.73-.86.76-1.42,2.45.15,4.89.33,7.36.7l2.02.49c.11.03.29.23.28.33-.02,1.13-11.59,1.65-13.8,1.74"/>
      <g>
        <path class="cls-9" d="M56.24,83.39c.13.05.15.11.16.22.09,1.28-1.94,2.04-2.99,1.72-.77.47-1.75.53-2.6.24-1.23.49-2.62.29-3.83-.17-1.01.03-2.04-.24-2.86-.85-.44-.33-1.18-1-1.04-1.56-.06-.03-.12-.06-.17-.11s-.09-.08-.11-.13c-.22-.6-.34-1.23-.46-1.85l-.29-4.2c-1.01.09-2.03.11-3.05.05l-.26,3.91c-.1.72-.27,1.42-.51,2.11l-.26.16c.15.55-.57,1.23-1,1.57-.9.7-3,1.08-4.2,1.21-.98.1-1.34.09-2.3-.05-.08-.01-.17-.06-.24-.1-.83.33-1.83.26-2.6-.23-.96.17-2.15,0-2.71-.89-.16-.26-.44-.8-.13-.99-.06-.74.18-1.43.54-2.11l-1.34-8.57c-.42.49-1.03.63-1.6.28-1.03.37-1.98-.12-2.73-.9-1.06-1.1-1.45-2.56-1.8-4.04-.61-2.62-.67-5.17-.14-7.84,1.14-5.67,3.96-12.21,8.2-16.34-5.15-2.34-8.8-6.59-9.09-12.28-.23-4.4.79-8.8,2.85-12.65,3.46-6.47,9.75-10.57,17-11.48,2.83-.36,5.46-2.23,6.98-4.54.42-.63.74-1.04,1.48-1,.65.03,1.18.46,1.39,1.13.37,1.18.56,2.35.26,3.66,1.33-.53,2.37-1.41,3.42-2.32.46-.4,1.05-.53,1.61-.32.5.19.96.67.98,1.32.04,1.45-.17,2.9-.6,4.3,8.4,3.94,13.2,13.56,12.34,22.58-.53,5.53-4.35,9.51-9.32,11.7,3.46,3.45,5.79,8.25,7.26,12.84.76,2.54,1.26,5.09,1.21,7.71-.02.96-.21,1.84-.38,2.77-.25,1.35-.53,2.65-1.22,3.83-.75,1.26-1.99,2.36-3.39,1.88-.56.34-1.22.25-1.64-.28l-1.34,8.57c.34.65.57,1.31.53,2.05Z"/>
        <g>
          <g>
            <g>
              <path class="cls-7" d="M50.19,84.53c-.94.34-1.86.1-2.73-.2-.11-1.28.74-3.13,1.64-3.27.76-.11,1.49,2.16,1.09,3.47Z"/>
              <path class="cls-7" d="M52.79,84.32c-.51.37-1.11.33-1.6.15.16-1.19-.02-2.25-.51-3.27.18-.18.44-.33.67-.35.94-.06,1.82,2.07,1.44,3.47Z"/>
              <path class="cls-7" d="M55.2,83.76c-.37.42-.86.49-1.39.44.13-1.1-.1-2.14-.62-3.18.34-.15.73-.09,1.03.14.79.58,1.18,1.6.98,2.61Z"/>
            </g>
            <path class="cls-5" d="M63.37,33.32c-.45,2.39-1.61,4.53-3.34,6.31-1.78,1.75-3.9,3.02-6.23,3.93-1.07.42-2.1.79-3.14,1.49,1.23.18,2.32-.18,3.47-.56l1.31,1.24c.17.21-.08.36-.27.19-2.49,1.09-5.09,1.82-7.84,2.24-3.75.57-7.45.64-11.24.28-3.56-.33-6.93-1.2-10.16-2.58-.18.2-.4,0-.29-.23.4-.44.87-.85,1.36-1.22.98.35,1.94.62,3.06.51-.98-.75-2.03-1.12-3.09-1.59-4.36-1.91-8.06-5.12-8.88-9.92.12.01.22.16.3.34,2.37,5.46,8.22,8.34,13.89,9.43,5.76,1.11,11.73,1.08,17.46-.16,5.75-1.24,11.34-4.24,13.63-9.7Z"/>
            <path class="cls-5" d="M46.73,82.62c-.16.51-.23,1.04-.23,1.6-1.45-.06-2.56-1.05-2.85-2.52-.36-1.8-.42-3.65-.45-5.48.59-.35,1.24-.49,1.59-1.13-2.92.72-5.65.67-8.55.02.38.6.95.79,1.57,1.09-.04,1.83-.09,3.69-.46,5.48-.3,1.48-1.38,2.48-2.85,2.54-.01-.56-.08-1.1-.23-1.6,2.13-.46,2.63-3.28,2.2-5.32-.13-.59-.59-1.01-.96-1.47-1.04-1.06-1.97-2.16-2.85-3.31l-.07-.08.1-.06.04.03c4.97,2.35,10.66,2.3,15.71-.07-.9,1.3-1.9,2.38-2.95,3.5-.43.46-.85.94-.96,1.57-.38,2.06.11,4.69,2.2,5.22Z"/>
            <path class="cls-5" d="M25.02,60.12l-.7,5.93c-.08.66-.31,1.25-.73,1.74-1.51.67-3.31.66-4.75-.2-.39-1.1-.48-2.22-.49-3.32l.59,1.32c.35.86,1.12,1.42,1.93,1.5,2.07.22,2.74-1.58,3.24-3.5l.76-3.37.16-.1Z"/>
            <g>
              <path class="cls-1" d="M56.25,70.18l.12.4-1.51,9.84c-.76-.56-1.58-.64-2.32-.13-.75-.57-1.72-.57-2.43.08-.6-.39-1.34-.39-1.92.04-.74.54-1.19,1.35-1.46,2.19-.28.24-.74-.08-1.01-.27-1.69-1.21-2.07-4.9-.57-6.4.97-1,1.88-2.04,2.74-3.15-3.21,1.34-6.73,1.84-10.18,1.31-1.3-.2-3.47-.68-4.58-1.33-.16-.09-.28-.22-.39-.37l-.07.11c.18.09.36.19.49.35.83.95,1.65,1.9,2.48,2.84.89,1,1.13,1.49,1.15,2.88s-.34,2.93-1.46,3.75c-.28.2-.78.55-1.06.29-.21-.72-.61-1.41-1.16-1.95-.63-.62-1.47-.76-2.21-.29-.72-.62-1.66-.65-2.44-.12-.77-.44-1.58-.41-2.32.16l-1.5-9.75v-.11s-.01-.18-.01-.18l.05-.24c1.1-.76,1.33-2.28,1.35-3.54-.06-2.82-.09-5.72.36-8.53.35-1.72.78-3.73,1.08-5.47,0-.55-.14-.66-.4-.03-2.03,4.28-1.85,8.72-3.42,12.91-1.33,3.04-5,1.97-5.3-1.16.12-5.85,3.11-13.72,7.02-18.11.84-.88,2.26.23,3.22.4,2.17.71,4.31,1.27,6.59,1.54,6.53.79,13.33.22,19.45-2.15.22-.08.42-.11.61-.04,4.1,4.14,7.5,12.78,7.39,18.6-.17,2.07-2.85,3.67-4.49,2.13-1.05-1.11-1.33-2.8-1.69-4.24-.65-3.42-1.1-6.98-2.68-10.15-.17-.5-.24.05-.24.3.3,1.69.79,4.01,1.13,5.77.35,2.81.37,5.67.34,8.51,0,1.23.32,2.45,1.24,3.3Z"/>
              <g>
                <path class="cls-5" d="M56.37,70.58l-.42-.46c-.86-.84-1.12-2.1-1.13-3.35-.01-2.84.03-5.6-.15-8.37l.87,6.55c.14,1.2.28,2.36.98,3.35l-.15,2.28Z"/>
                <path class="cls-5" d="M24.63,70.37c-.14-.71-.16-1.49-.08-2.22.61-.89.75-1.9.87-2.94.27-2.33.48-4.63.91-6.89-.13,2.61-.2,5.23-.13,7.91.04,1.53-.28,3.46-1.58,4.14Z"/>
                <path class="cls-3" d="M25.99,45.88c-2.21,2.42-3.9,5.42-5.24,8.59-.9,2.12-1.56,4.24-1.92,6.52,0,.06-.01.16-.05.17l-.12.02c.78-5.2,3.57-11.78,6.99-15.56l.35.26Z"/>
                <path class="cls-3" d="M62.25,60.58c-.48-1.88-.91-3.79-1.73-5.62-1.36-3.28-3.06-6.39-5.36-9.03l.27-.19c3.44,3.96,5.92,9.69,6.81,14.84Z"/>
                <path class="cls-5" d="M24.65,70.67v-.11s0,.11,0,.11Z"/>
                <path class="cls-5" d="M26.4,57.98l.04-.12-.04.12Z"/>
              </g>
            </g>
            <path class="cls-5" d="M62.65,64.45c-.03,1.04-.12,2.09-.5,3.12-1.44.9-3.27.88-4.8.2-.42-.61-.58-1.23-.72-1.94l-.57-5.14s.21.05.17.03c.36,1.63.71,3.16,1.27,4.67.4.95,1.1,1.63,2.03,1.7,1.04.08,1.94-.39,2.45-1.34l.66-1.32Z"/>
            <g>
              <path class="cls-7" d="M33.54,84.29c-.84.37-1.8.55-2.72.25-.32-1.08-.04-2.21.49-3.17.16-.14.36-.29.5-.3.81-.05,1.81,1.85,1.72,3.22Z"/>
              <path class="cls-7" d="M29.82,84.44c-.49.25-1.17.24-1.62-.13-.33-1.28.38-3.43,1.37-3.45.25,0,.54.16.73.34-.47,1-.65,2.01-.49,3.24Z"/>
              <path class="cls-7" d="M27.21,84.18c-.57.11-1.09,0-1.42-.44-.17-.98.2-1.99,1-2.59.31-.23.67-.28,1.05-.12-.51.97-.76,2-.62,3.15Z"/>
            </g>
          </g>
          <g>
            <path class="cls-3" d="M63.63,30.89c-.73-7.89-4.93-14.98-11.91-19.05-.76-.44-.98-1.48-.84-2.28.2-1.14.7-3.11.2-3.43-.1-.06-.4-.06-.5.02-1.27.98-2.58,1.8-4.04,2.44l-.64-.11c.19-.53.62-.59,1.11-.77,2.53-.91,3.84-2.99,4.51-2.66.2.1.32.39.31.63-.08,1.32-.15,2.57-.6,3.82-.07.2-.35.69,0,.85,8.08,3.72,12.48,11.82,12.4,20.53Z"/>
            <path class="cls-3" d="M45.82,6.35c0-.68-.21-1.43-.63-2.01-.18-.25-.7.05-.84.29-.8,1.43-1.92,2.47-3.27,3.37-1.6,1.07-3.24,1.54-5.14,1.82-3.66.54-7.12,1.79-10.11,4-1.61,1.19-3.14,2.57-4.31,4.17,3.47-5.55,9.11-8.77,15.64-9.51,3.1-.74,5.8-2.45,7.46-5.21.1-.16.32-.3.5-.29.64.03.93,2.32.69,3.38Z"/>
            <g>
              <path class="cls-1" d="M45.82,6.35c-.01,1.09-1.19,1.63-.63,2.18.17.16.51.1.71-.04.13-.17.33-.19.6-.06,1.44-.63,2.78-1.51,4.04-2.45.98-.27.95.59.91,1.28-.13.94-.29,1.87-.5,2.79.02.48.32,1.24.71,1.54,6.86,3.95,11.68,11.32,11.97,19.31l-.17,1.85-.08.16-.02.42c-.76,2.68-2.9,4.86-5.16,6.41-7.06,4.85-17.76,5.06-25.97,3.63-5.75-1-12-4.27-14.15-9.94-.21-1.22-.37-2.39-.29-3.72.25-4.14,1.31-8.38,3.73-11.72,3.41-5.06,9.27-7.75,15.2-8.48,3.08-.63,5.09-1.82,7.04-4.29,1.16-2.28,2.25-.67,2.04,1.14Z"/>
              <path class="cls-5" d="M63.39,32.9s.03-.12.08-.16c0,.03-.07.16-.08.16Z"/>
              <g>
                <path class="cls-11" d="M59.32,26.96c.73,4.13-.44,8.37-3.56,11.22-2.66-3.23-6.16-3.52-8.99-5.27-1.82-1.13-2.8-3.26-2.21-5.35.55-1.96,2.17-3.39,4.16-3.84,3.89-.88,7.81.47,10.6,3.24Z"/>
                <path class="cls-9" d="M54.13,29.9c-.53.67-2.51-1.53-6.08-.53-.28.08-.63-.09-.7-.33-.31-1.27,4.26-2.83,6.82.22.12.14.04.52-.05.64Z"/>
              </g>
              <g>
                <path class="cls-11" d="M25.05,38.3c-.96-.86-1.78-1.8-2.41-2.97-1.35-2.5-1.77-5.36-1.31-8.17,2.51-2.49,5.89-3.92,9.49-3.61,1.52.13,2.93.6,4.03,1.65,1.21,1.14,1.83,2.69,1.55,4.37-.5,3.05-3.3,4.04-5.99,5.08-2.07.81-3.92,1.92-5.37,3.65Z"/>
                <path class="cls-9" d="M33.83,28.96c-.1,1.17-2.21-.84-6.06,1.08-.23.12-.65.03-.77-.16-.13-.21-.07-.53.14-.76,2.59-2.8,6.79-1.32,6.69-.16Z"/>
              </g>
              <g>
                <path class="cls-7" d="M59.32,26.96l-.38-.12c-3.16-3.38-11.33-5.01-13.82-.2-1.66,3.22.61,6.06,3.7,7.1l2.85,1.2c.94.38,3.87,2.14,4.07,3.03.02.07.02.14.02.21-3.03,2.77-7.22,3.9-11.3,4.3-4.98.48-10.84.22-15.45-1.7-1.49-.62-2.78-1.42-3.95-2.47,0-.08.01-.15.03-.22s.04-.13.08-.18c1.73-2.08,4.42-3.13,6.86-4.07,3.03-1.01,5.43-3.94,3.75-7.14-2.57-4.89-10.87-3.1-14.05.35l-.39.13c.74-4.13,3.66-7.5,7.62-8.79,3.96-1.29,8.31-.3,11.37,2.58,3.03-2.88,7.34-3.9,11.3-2.65s6.9,4.56,7.7,8.66Z"/>
                <path class="cls-9" d="M37.75,33.48c3.32,1.45,5.32-.24,5.83.15.16.12.27.56.11.72-1.82,1.77-4.63,1.71-6.49.02-.2-.18-.26-.43-.16-.69.07-.19.46-.31.71-.2Z"/>
                <g>
                  <path class="cls-9" d="M43.08,30.49c-.51.96-1.6,1.53-2.63,1.54-1.75.02-3.31-1.35-2.91-2.51s3.28-1.31,4.86-.73c.72.26,1.07.97.68,1.7Z"/>
                  <path class="cls-5" d="M41.58,29.31c.03.74-2.48.6-2.31,0,.14-.48,2.29-.41,2.31,0Z"/>
                </g>
              </g>
            </g>
          </g>
        </g>
      </g>
    </g>
    <g>
      <rect class="cls-2" x="14.46" y="48.66" width="50.95" height="24.21"/>
      <path class="cls-9" d="M65.41,73.37H14.46c-.28,0-.5-.22-.5-.5v-24.21c0-.28.22-.5.5-.5h50.95c.28,0,.5.22.5.5v24.21c0,.28-.22.5-.5.5ZM14.96,72.37h49.95v-23.21H14.96v23.21Z"/>
    </g>
    <g>
      <path class="cls-1" d="M65.34,62.07s2.93.03,4.25-2.45c2.12-4.02.25-6.68-1.85-6.77-2.21-.09-4.6,2.11-2.93,6.59.3.81.73,1.39.53,2.64"/>
      <path class="cls-4" d="M65.77,61.65c.04-.83-.19-1.38-.42-1.91-.06-.14-.12-.29-.18-.44-.08-.23-.16-.45-.22-.66.02.01.03.02.05.03.22.16.46.34.71.55.05.04.1.08.15.13.03.03.06.05.09.07.09.06.19.11.29.15.39.13.82.05,1.13-.22.17.12.36.22.55.29.38.13.79.14,1.19.03-.94,1.53-2.57,1.9-3.34,1.99"/>
      <path class="cls-9" d="M68.33,53.34c-.2-.07-.4-.11-.61-.11-.95-.04-1.86.4-2.43,1.18-.83,1.14-.87,2.88-.12,4.89.06.15.12.3.18.44.23.53.46,1.08.42,1.91.81-.09,2.56-.5,3.47-2.22,1-1.89,1.16-3.69.45-4.94-.32-.56-.81-.97-1.36-1.15M64.89,62.45l.07-.44c.14-.89-.07-1.39-.32-1.97-.06-.15-.13-.31-.19-.48-.84-2.27-.76-4.26.22-5.62.72-.99,1.87-1.55,3.09-1.49,1.07.05,2.04.67,2.61,1.66.85,1.48.69,3.55-.44,5.69-1.41,2.66-4.46,2.66-4.59,2.66h-.45"/>
      <path class="cls-2" d="M66.33,55.22c.55.36,1.3.16,1.6-.43.15-.3.23-.67.16-1.12-.19-1.1-2.48-1.32-4.13-.56-.44.2-.4.85.07.99.58.18,1.37.51,2.31,1.12"/>
      <path class="cls-8" d="M65.37,54.22c-.35-.17-.7-.32-1.04-.43-.06-.02-.13-.04-.19-.06h0c-.07-.03-.09-.09-.1-.13,0-.04,0-.1.08-.14.18-.08.36-.15.54-.2.06.1.15.18.28.22,0,0,0,0,.01,0,.06.02.11.04.17.06.41.14.9.35,1.47.67-.39-.04-.81-.03-1.23.02"/>
      <path class="cls-9" d="M66.54,54.89c.17.11.39.15.59.09.2-.05.36-.19.45-.37.13-.27.18-.57.12-.88-.03-.17-.16-.32-.38-.43-.65-.34-2.03-.38-3.2.16-.07.03-.08.1-.08.14,0,.04.02.11.1.13.77.24,1.58.63,2.41,1.17h0M66.46,55.71c-.12-.04-.23-.09-.34-.16h0c-.77-.5-1.52-.87-2.21-1.08-.37-.11-.62-.44-.65-.82-.03-.38.18-.73.53-.89,1.27-.58,2.94-.64,3.89-.14.44.23.72.58.79.99.08.48.02.94-.19,1.36-.19.38-.53.66-.94.77-.29.08-.6.07-.88-.03"/>
      <path class="cls-2" d="M66.38,57.35c.6.39,1.41.18,1.74-.47.16-.32.25-.73.17-1.22-.21-1.2-2.69-1.44-4.5-.61-.48.22-.43.92.07,1.08.64.2,1.49.56,2.51,1.22"/>
      <path class="cls-8" d="M67.31,57.11c-.17-.11-.38-.21-.6-.28s-.45-.13-.7-.17c-.62-.36-1.23-.64-1.82-.84-.07-.02-.14-.05-.21-.07,0,0,0,0-.01,0-.1-.03-.12-.13-.12-.17,0-.05,0-.14.11-.18.27-.12.56-.22.86-.3.01.22.15.43.39.51h.02c.06.02.13.05.19.07.6.2,1.38.55,2.29,1.14-.1.14-.23.24-.39.29"/>
      <path class="cls-9" d="M64.19,55.82c.77.26,1.58.66,2.41,1.2h0c.2.13.44.17.66.1.23-.06.41-.21.51-.42.15-.3.2-.63.13-.98-.03-.2-.18-.36-.44-.5-.82-.43-2.36-.36-3.52.17-.1.05-.11.13-.11.18,0,.04.02.14.13.17.07.02.14.04.21.07M66.53,57.85c-.13-.04-.25-.1-.36-.17-.84-.55-1.66-.94-2.42-1.18-.39-.12-.65-.46-.68-.86-.03-.4.19-.77.56-.94,1.37-.63,3.18-.69,4.2-.15.47.25.76.61.84,1.05.09.52.02,1.01-.21,1.46-.2.4-.57.7-1,.82-.31.08-.63.07-.93-.03"/>
      <path class="cls-2" d="M65.85,59.34c.52.45,1.32.35,1.71-.22.2-.29.34-.66.32-1.14-.04-1.17-2.38-1.71-4.2-1.16-.49.15-.53.82-.07,1.03.58.27,1.35.72,2.24,1.49"/>
      <path class="cls-8" d="M66.24,59.56c-.1-.03-.2-.08-.29-.15-.03-.02-.06-.05-.09-.07-.05-.04-.1-.09-.15-.13-.25-.21-.48-.39-.71-.55-.02-.01-.03-.02-.05-.03-.34-.24-.66-.43-.94-.58-.02-.01-.04-.02-.06-.03-.12-.06-.23-.12-.33-.16-.46-.21-.42-.89.07-1.03.06-.02.12-.04.18-.05.14-.04.27-.07.41-.09.16-.03.33-.05.5-.06-.26.25-.22.73.15.91.58.27,1.35.72,2.24,1.49.1.09.21.15.33.2-.31.37-.82.5-1.26.35"/>
      <path class="cls-9" d="M66.58,57.19c-.78-.26-1.88-.28-2.78,0-.09.03-.11.1-.11.15,0,.04,0,.12.1.16.76.35,1.54.87,2.33,1.54.17.14.39.21.61.18.22-.03.41-.15.53-.33.18-.26.26-.57.25-.91,0-.19-.12-.36-.34-.52-.16-.11-.35-.21-.57-.28h0ZM66.11,59.93c-.19-.06-.36-.16-.51-.29-.73-.63-1.45-1.11-2.15-1.43-.36-.17-.57-.53-.55-.92.03-.39.29-.72.66-.84,1.39-.42,3.12-.26,4.03.39.42.3.65.69.67,1.12.02.51-.11.97-.38,1.37-.25.36-.64.6-1.07.66-.24.03-.48,0-.7-.07h0Z"/>
    </g>
    <g>
      <path class="cls-1" d="M14.35,62.07s-2.93.03-4.25-2.45c-2.12-4.02-.25-6.68,1.85-6.77,2.21-.09,4.6,2.11,2.93,6.59-.3.81-.73,1.39-.53,2.64"/>
      <path class="cls-4" d="M13.92,61.65c-.04-.83.19-1.38.42-1.91.06-.14.12-.29.18-.44.08-.23.16-.45.22-.66-.02.01-.03.02-.05.03-.22.16-.46.34-.71.55-.05.04-.1.08-.15.13-.03.03-.06.05-.09.07-.09.06-.19.11-.29.15-.39.13-.82.05-1.13-.22-.17.12-.36.22-.55.29-.38.13-.79.14-1.19.03.94,1.53,2.57,1.9,3.34,1.99"/>
      <path class="cls-9" d="M11.36,53.34c.2-.07.4-.11.61-.11.95-.04,1.86.4,2.43,1.18.83,1.14.87,2.88.12,4.89-.06.15-.12.3-.18.44-.23.53-.46,1.08-.42,1.91-.81-.09-2.56-.5-3.47-2.22-1-1.89-1.16-3.69-.45-4.94.32-.56.81-.97,1.36-1.15M14.8,62.45l-.07-.44c-.14-.89.07-1.39.32-1.97.06-.15.13-.31.19-.48.84-2.27.76-4.26-.22-5.62-.72-.99-1.87-1.55-3.09-1.49-1.07.05-2.04.67-2.61,1.66-.85,1.48-.69,3.55.44,5.69,1.41,2.66,4.46,2.66,4.59,2.66h.45"/>
      <path class="cls-2" d="M13.36,55.22c-.55.36-1.3.16-1.6-.43-.15-.3-.23-.67-.16-1.12.19-1.1,2.48-1.32,4.13-.56.44.2.4.85-.07.99-.58.18-1.37.51-2.31,1.12"/>
      <path class="cls-8" d="M14.32,54.22c.35-.17.7-.32,1.04-.43.06-.02.13-.04.19-.06h0c.07-.03.09-.09.1-.13,0-.04,0-.1-.08-.14-.18-.08-.36-.15-.54-.2-.06.1-.15.18-.28.22,0,0,0,0-.01,0-.06.02-.11.04-.17.06-.41.14-.9.35-1.47.67.39-.04.81-.03,1.23.02"/>
      <path class="cls-9" d="M13.15,54.89c-.17.11-.39.15-.59.09-.2-.05-.36-.19-.45-.37-.13-.27-.18-.57-.12-.88.03-.17.16-.32.38-.43.65-.34,2.03-.38,3.2.16.07.03.08.1.08.14,0,.04-.02.11-.1.13-.77.24-1.58.63-2.41,1.17h0M13.23,55.71c.12-.04.23-.09.34-.16h0c.77-.5,1.52-.87,2.21-1.08.37-.11.62-.44.65-.82.03-.38-.18-.73-.53-.89-1.27-.58-2.94-.64-3.89-.14-.44.23-.72.58-.79.99-.08.48-.02.94.19,1.36.19.38.53.66.94.77.29.08.6.07.88-.03"/>
      <path class="cls-2" d="M13.31,57.35c-.6.39-1.41.18-1.74-.47-.16-.32-.25-.73-.17-1.22.21-1.2,2.69-1.44,4.5-.61.48.22.43.92-.07,1.08-.64.2-1.49.56-2.51,1.22"/>
      <path class="cls-8" d="M12.38,57.11c.17-.11.38-.21.6-.28s.45-.13.7-.17c.62-.36,1.23-.64,1.82-.84.07-.02.14-.05.21-.07,0,0,0,0,.01,0,.1-.03.12-.13.12-.17,0-.05,0-.14-.11-.18-.27-.12-.56-.22-.86-.3-.01.22-.15.43-.39.51h-.02c-.06.02-.13.05-.19.07-.6.2-1.38.55-2.29,1.14.1.14.23.24.39.29"/>
      <path class="cls-9" d="M15.5,55.82c-.77.26-1.58.66-2.41,1.2h0c-.2.13-.44.17-.66.1-.23-.06-.41-.21-.51-.42-.15-.3-.2-.63-.13-.98.03-.2.18-.36.44-.5.82-.43,2.36-.36,3.52.17.1.05.11.13.11.18,0,.04-.02.14-.13.17-.07.02-.14.04-.21.07M13.16,57.85c.13-.04.25-.1.36-.17.84-.55,1.66-.94,2.42-1.18.39-.12.65-.46.68-.86.03-.4-.19-.77-.56-.94-1.37-.63-3.18-.69-4.2-.15-.47.25-.76.61-.84,1.05-.09.52-.02,1.01.21,1.46.2.4.57.7,1,.82.31.08.63.07.93-.03"/>
      <path class="cls-2" d="M13.84,59.34c-.52.45-1.32.35-1.71-.22-.2-.29-.34-.66-.32-1.14.04-1.17,2.38-1.71,4.2-1.16.49.15.53.82.07,1.03-.58.27-1.35.72-2.24,1.49"/>
      <path class="cls-8" d="M13.45,59.56c.1-.03.2-.08.29-.15.03-.02.06-.05.09-.07.05-.04.1-.09.15-.13.25-.21.48-.39.71-.55.02-.01.03-.02.05-.03.34-.24.66-.43.94-.58.02-.01.04-.02.06-.03.12-.06.23-.12.33-.16.46-.21.42-.89-.07-1.03-.06-.02-.12-.04-.18-.05-.14-.04-.27-.07-.41-.09-.16-.03-.33-.05-.5-.06.26.25.22.73-.15.91-.58.27-1.35.72-2.24,1.49-.1.09-.21.15-.33.2.31.37.82.5,1.26.35"/>
      <path class="cls-9" d="M13.11,57.19c.78-.26,1.88-.28,2.78,0,.09.03.11.1.11.15,0,.04,0,.12-.1.16-.76.35-1.54.87-2.33,1.54-.17.14-.39.21-.61.18-.22-.03-.41-.15-.53-.33-.18-.26-.26-.57-.25-.91,0-.19.12-.36.34-.52.16-.11.35-.21.57-.28h0ZM13.57,59.93c.19-.06.36-.16.51-.29.73-.63,1.45-1.11,2.15-1.43.36-.17.57-.53.55-.92-.03-.39-.29-.72-.66-.84-1.39-.42-3.12-.26-4.03.39-.42.3-.65.69-.67,1.12-.02.51.11.97.38,1.37.25.36.64.6,1.07.66.24.03.48,0,.7-.07h0Z"/>
    </g>
  </g>
  <text class="cls-10" transform="translate(27.19 59.57)"><tspan x="0" y="0">RÁDA TĚ</tspan><tspan x="-4.86" y="9.89">POZNÁVÁM</tspan></text>
</svg>