<?xml version="1.0" encoding="UTF-8"?>
<svg id="Vrstva_1" data-name="Vrstva 1" xmlns="http://www.w3.org/2000/svg" viewBox="0 0 156.97 137.29">
  <defs>
    <style>
      .cls-1 {
        fill: #1d1d1b;
      }
    </style>
  </defs>
  <g>
    <path class="cls-1" d="M60.8,27.88c-1.96,9.55-10.68,17.29-17.29,17.29s-15.32-2.83-17.29-17.29-.11-22.19,17.29-17.29,19.25,7.74,17.29,17.29Z"/>
    <path class="cls-1" d="M43.52,45.21c-6.83,0-15.39-3.01-17.33-17.33-.61-4.5-.77-7.8-.5-10.39.32-3.02,1.23-5.16,2.81-6.52,1.36-1.18,3.2-1.8,5.62-1.89,2.51-.09,5.6.39,9.42,1.46,9.19,2.59,13.65,4.53,15.92,6.92,2.43,2.56,2.36,5.76,1.4,10.43-.92,4.5-3.38,8.85-6.92,12.25-3.35,3.23-7.15,5.08-10.42,5.08ZM34.73,9.17c-.21,0-.42,0-.62.01-2.4.09-4.21.7-5.56,1.87-2.9,2.52-3.56,7.39-2.27,16.83,1.93,14.25,10.44,17.24,17.24,17.24,3.24,0,7.01-1.84,10.35-5.05,3.52-3.39,5.97-7.72,6.89-12.2h.05s-.05,0-.05,0c1.92-9.32.47-12.23-17.25-17.23-3.51-.99-6.38-1.47-8.77-1.47Z"/>
  </g>
  <g>
    <path class="cls-1" d="M60.51,108.55c-1.96,14.45-5.78,12.38-17.29,17.29-11.51,4.91-15.32-7.74-17.29-17.29-1.96-9.55,4.8-27.1,17.29-17.29,12.49,9.81,19.25,2.83,17.29,17.29Z"/>
    <path class="cls-1" d="M38.44,126.98c-1.36,0-2.62-.3-3.77-.91-5.15-2.7-7.4-10.77-8.78-17.5-.63-3.09-.35-7.07.75-10.65,1.21-3.93,3.23-6.93,5.68-8.45,3.18-1.97,6.97-1.36,10.94,1.76,4.73,3.72,8.68,5.03,11.56,6,4.78,1.6,6.97,2.32,5.74,11.33-.78,5.72-1.83,8.89-3.64,10.95-1.76,2.01-4.25,2.88-7.68,4.09-1.74.61-3.71,1.31-6,2.28-1.71.73-3.31,1.09-4.8,1.09ZM36.22,88.44c-1.36,0-2.65.37-3.85,1.11-2.43,1.5-4.43,4.48-5.63,8.39-1.1,3.57-1.38,7.53-.75,10.6,1.38,6.71,3.62,14.76,8.73,17.44,2.4,1.25,5.25,1.19,8.49-.19,2.29-.98,4.26-1.67,6-2.28,3.42-1.21,5.89-2.08,7.64-4.06,1.79-2.04,2.84-5.2,3.61-10.9h.05s-.05,0-.05,0c.59-4.33.41-6.84-.6-8.37-.97-1.49-2.7-2.06-5.08-2.86-2.89-.96-6.85-2.28-11.59-6.01-2.43-1.91-4.79-2.87-6.97-2.87Z"/>
  </g>
  <g>
    <path class="cls-1" d="M38.25,67.13c2.94,19.36-5.78,12.38-17.29,17.29s-15.32-7.74-17.29-17.29c-1.96-9.55,9.7-22.19,17.29-17.29,7.58,4.91,14.34-2.07,17.29,17.29Z"/>
    <path class="cls-1" d="M16.18,85.55c-1.36,0-2.62-.3-3.77-.91-5.15-2.7-7.4-10.77-8.78-17.5-1.25-6.08,2.96-13.11,7.75-16.38,1.61-1.1,3.3-1.79,4.87-1.99,1.74-.22,3.33.13,4.73,1.04,2.29,1.48,4.46,1.87,6.56,2.24,2.34.42,4.55.81,6.39,2.79,2.03,2.18,3.41,6.09,4.35,12.29.98,6.45.72,10.26-.85,12.35-1.5,2-4.07,2.34-7.33,2.78-2.71.36-5.78.78-9.14,2.21-1.71.73-3.31,1.09-4.8,1.09ZM17.24,48.81c-1.84,0-3.84.68-5.8,2.03-4.77,3.26-8.95,10.24-7.71,16.28,1.38,6.71,3.62,14.76,8.73,17.44,2.4,1.25,5.25,1.19,8.49-.19,3.37-1.44,6.44-1.85,9.16-2.21,3.24-.43,5.8-.78,7.27-2.74,1.55-2.07,1.81-5.86.83-12.28-.94-6.18-2.32-10.07-4.33-12.24-1.82-1.95-4.01-2.35-6.34-2.76-2.11-.38-4.29-.76-6.6-2.26-1.11-.72-2.36-1.07-3.7-1.07Z"/>
  </g>
  <path class="cls-1" d="M73.36,57.79c-2.18-2.47-5.37-4.03-8.93-4.02-6.53.01-11.91,5.47-11.84,12,0,.63.06,1.25.17,1.86.3,1.78.21,3.61-.36,5.32-.29.88-.45,1.81-.47,2.78-.07,5.13,4.11,9.36,9.23,9.36,1.14,0,2.24-.21,3.25-.59,1.98-.74,4.08-1.11,6.19-1.09.04,0,.08,0,.12,0,6.57,0,12-5.44,11.98-12.01,0-4.02-2-7.58-5.05-9.75-1.58-1.12-3.03-2.41-4.31-3.86Z"/>
  <path class="cls-1" d="M89.41,94.96c-5.52,1.84-4.58,7.71-10.26,8.87-6.25,1.28-8.64,6.37-6.1,11.11s10.98,1.29,14.63,6.09c5.61,7.38,15.96,2.62,15.96-3.79,0-9.2,5.03-6.76,4.12-14.28-.69-5.73-10.16-10.74-18.36-8Z"/>
  <path class="cls-1" d="M101.19,35.78c-2.84,6.42-9.8,10.87-16.81,10.47-7.01-.4-13.52-5.8-14.94-12.67-1.43-6.88,2.42-14.99,9.11-17.1s8.94.14,12.2,1.15c4.68,1.45,9.48,4.14,11.14,8.75,1.09,3.03.61,6.46-.7,9.41Z"/>
  <path class="cls-1" d="M146.8,42.85c-.88,2.44-2.12,5.05-4.5,6.08-3.51,1.53-7.42-1.09-11.25-1.06-4.06.03-7.78,3.08-11.81,2.59-2.43-.3-4.59-1.91-5.89-3.98-1.3-2.08-1.81-4.57-1.83-7.02-.05-7.23,4.38-14.31,10.91-17.43,2.23-1.07,4.81-1.69,7.18-.99,1.5.45,3.19,1.97,4.62,3.55,2.14,2.36,4.87,4.11,7.92,5.01,2.05.61,3.83,1.67,4.9,3.51,1.69,2.9.87,6.57-.26,9.73Z"/>
  <path class="cls-1" d="M119.04,84.86c-1.91,1.8-4.49,2.73-7.05,3.3-3.96.88-8.08,1.02-12.09.41-2.43-.37-4.89-1.05-6.85-2.53-1.96-1.49-3.34-3.92-3.05-6.36.24-1.94,1.44-3.59,2.47-5.25,1.02-1.66,1.92-3.61,1.45-5.5-.57-2.3-3-3.81-3.49-6.14-.44-2.11.9-4.22,2.59-5.58.56-.45,1.17-.84,1.8-1.17,1.57-.8,3.44-.82,5.02-.03,0,0,.02,0,.03.01,2.02,1.03,3.63,2.97,5.86,3.34,3.33.56,6.28-2.6,9.65-2.59,1.63,0,3.25.82,4.22,2.13.98,1.31,1.29,3.09.83,4.66-.69,2.33-2.95,4.12-3.01,6.55-.08,2.88,2.92,4.88,3.82,7.62.82,2.5-.29,5.33-2.21,7.13Z"/>
  <path class="cls-1" d="M149.86,123.92c-2.52,2.35-6.4,2.87-9.4,1.27-4.06-2.17-6.28-7.67-10.73-8.65-3.15-.7-6.43,1.16-9.57.43-3-.7-5.19-3.84-5.38-7.08-.18-3.25,1.43-6.44,3.83-8.47,2.4-2.03,5.48-3,8.54-3.19,3.32-.21,6.97.35,9.69-1.68,1.78-1.34,2.77-3.54,4.18-5.3,1.41-1.76,3.78-3.15,5.72-2.09,1.94,1.06,2.27,3.85,2.15,6.16-.21,3.79-2.6,5.87-1.22,10.31.98,3.13,3.54,5.48,4.58,8.59,1.11,3.35.13,7.37-2.39,9.72Z"/>
</svg>