<?xml version="1.0" encoding="utf-8"?>
<!-- Generator: Adobe Illustrator 15.1.0, SVG Export Plug-In . SVG Version: 6.00 Build 0)  -->
<!DOCTYPE svg PUBLIC "-//W3C//DTD SVG 1.1//EN" "http://www.w3.org/Graphics/SVG/1.1/DTD/svg11.dtd">
<svg version="1.1" id="Vrstva_1" xmlns="http://www.w3.org/2000/svg" xmlns:xlink="http://www.w3.org/1999/xlink" x="0px" y="0px"
	 width="360px" height="402.52px" viewBox="0 0 360 402.52" enable-background="new 0 0 360 402.52" xml:space="preserve">
<g>
	
		<path fill-rule="evenodd" clip-rule="evenodd" fill="#E30613" stroke="#000000" stroke-width="8.5039" stroke-linecap="round" stroke-linejoin="round" stroke-miterlimit="22.9256" d="
		M180.144,5.81H4.657l9.985,223.43c4.848,108.488,88.184,168.692,165.502,168.692c77.318,0,160.654-60.204,165.501-168.692
		l9.984-223.43H180.144L180.144,5.81z"/>
	<path fill-rule="evenodd" clip-rule="evenodd" fill="#FFFFFF" d="M226.815,173.369L226.815,173.369L226.815,173.369
		L226.815,173.369z M210.269,90.818c1.294,0.986,1.359,3.151-2.316,6.978c-1.731,1.803-3.347,2.433-4.781,2.869
		c-1.826,0.554-2.27,0.891-3.295,2.5c-0.806,1.266-1.846,2.652-4.049,3.835c-4.674,2.511-6.742,1.866-7.344,0.354L210.269,90.818
		L210.269,90.818z M207.267,49.274c1.363-0.889,3.425-0.223,5.795,4.524c1.117,2.237,1.167,3.97,1.096,5.468
		c-0.091,1.906,0.077,2.437,1.249,3.943c0.921,1.184,1.877,2.63,2.252,5.102c0.795,5.246-0.507,6.977-2.133,7.036L207.267,49.274
		L207.267,49.274z M180.268,36.624c0.585,0,1.224-0.166,2.12-0.496c1.406-0.521,3.073-0.996,5.543-0.606
		c5.241,0.826,6.499,2.59,6.063,4.158L180.268,36.624L180.268,36.624z M180.144,356.549h32.329H180.144L180.144,356.549z
		 M180.144,348.167h27.81H180.144L180.144,348.167z M180.144,206.729h38.619H180.144L180.144,206.729z M247.56,110.923
		c-1.465-0.708-3.425,0.215-5.172,5.226c-0.823,2.361-0.652,4.085-0.391,5.563c0.332,1.878,0.233,2.427-0.737,4.069
		c-0.764,1.292-1.527,2.847-1.585,5.347c-0.121,5.304,1.391,6.855,3.011,6.707L247.56,110.923L247.56,110.923z M275.24,165.396
		c-0.292,1.601-2.192,2.639-7.27,1.097c-2.393-0.727-3.686-1.882-4.724-2.964c-1.321-1.376-1.823-1.619-3.722-1.804
		c-1.493-0.145-3.2-0.445-5.253-1.873c-4.356-3.029-4.719-5.165-3.643-6.386L275.24,165.396L275.24,165.396z M286.203,95.263
		c0.175-1.618-1.354-3.153-6.658-3.116c-2.501,0.018-4.068,0.757-5.371,1.5c-1.658,0.944-2.208,1.035-4.081,0.673
		c-1.473-0.285-3.194-0.482-5.568,0.303c-5.037,1.668-5.99,3.613-5.307,5.089L286.203,95.263L286.203,95.263z M310.917,143.9
		c1.409,0.813,1.749,2.952-1.409,7.215c-1.488,2.009-3.01,2.839-4.378,3.454c-1.741,0.782-2.138,1.173-2.949,2.899
		c-0.639,1.358-1.494,2.865-3.528,4.319c-4.316,3.085-6.45,2.709-7.239,1.286L310.917,143.9L310.917,143.9z M301.069,103.337
		c1.201-1.098,3.343-0.776,6.453,3.522c1.466,2.025,1.798,3.727,1.971,5.217c0.221,1.895,0.473,2.392,1.874,3.687
		c1.102,1.018,2.28,2.289,3.052,4.667c1.638,5.047,0.635,6.967-0.96,7.289L301.069,103.337L301.069,103.337z M216.54,148.317
		c2.26-0.544,4.06-1.703,5.794-2.949L216.54,148.317L216.54,148.317z M213.718,142.348c0.159,1.574,0.086,3.147,1.177,4.721
		c0.572,0.825,0.767,2.03,0.982,3.213L213.718,142.348L213.718,142.348z M210.583,147.794c0.315,1.804,1.154,4.132,2.519,6.986
		c3.591-0.597,6.99-1.692,9.707-4.564L210.583,147.794L210.583,147.794z M188.625,131.515c-0.119,2.66-0.206,5.314,0.731,7.798
		c2.103,0.593,4.685,0.584,7.486,0.302L188.625,131.515L188.625,131.515z M193.494,134.425c2.639,0.129,5.167,0.105,6.93-0.995
		L193.494,134.425L193.494,134.425z M192.69,129.16c0.067,1.948-0.127,4.158-0.584,6.63L192.69,129.16L192.69,129.16z
		 M199.31,123.594c-1.474,5.272-3.934,9.251-7.204,12.196c-2.204,1.984-3.574,4.584-4.257,7.737L199.31,123.594L199.31,123.594z
		 M222.391,135.865c-2.536,4.378-4.744,8.888-6.514,14.417c-1.152,3.604-3.57,5.137-5.566,7.147L222.391,135.865L222.391,135.865z
		 M219.28,173.777c-3.085-2.684-4.407-5.783-4.524-9.167L219.28,173.777L219.28,173.777z M191.394,197.823
		c-0.988-3.585-0.936-7.17-0.513-10.739c0.435-3.672,2.121-5.721,4.19-6.81c0.186-0.098,0.373-0.186,0.561-0.266
		c1.871-0.796,3.821-0.711,5.726,0.004c-0.113-2.456-0.032-4.519,0.504-5.995c0.293-0.808,0.722-1.439,1.329-1.863
		c3.534-2.462,7.423-1.838,10.478-0.262c4.473,2.307,8.84,2.582,13.146,1.476l0.296-0.079c1.286-0.349,2.567-0.821,3.844-1.397
		c3.037-1.371,5.566-3.514,8.12-5.5c-4.061-0.261-7.465-0.959-9.43-2.619l0.085-0.051c5.077-3.063,9.364-6.104,12.354-8.732
		c0.34-0.047,0.68-0.117,1.019-0.209l1.577-0.782c-0.939,3.117,0.238,6.143,4.765,8.833c3.146,1.869,6.708,4.917,8.447,7.205
		c2.874,0,7.456,0.995,10.847,2.369c4.415,1.79,7.391,1.228,9.335-0.846l0.26,1.781c1.05,2.989,3.678,4.9,7.023,6.322
		c2.846-2.262,4.869-4.804,5.084-7.965l-0.323-2.571c2.699,2.051,6.013,1.986,10.113-1.55c2.771-2.39,6.791-4.802,9.513-5.725
		c0.912-2.726,3.31-6.755,5.688-9.535c3.306-3.862,3.553-7.02,1.864-9.619l2.343,0.35c3.165-0.142,5.754-2.105,8.081-4.898
		c-1.343-3.378-3.192-6.05-6.157-7.168l-2.621-0.444c2.525-1.945,3.335-5.054,1.342-9.842c-1.407-3.378-2.444-7.95-2.473-10.824
		c-2.305-1.717-5.386-5.251-7.285-8.378c-2.771-4.562-5.854-5.683-9.006-4.642l1.338-2.682c0.843-3.054-0.224-6.123-2.16-9.199
		c-3.628,0.233-6.741,1.167-8.721,3.64l-1.156,2.208c-1.182-2.689-3.86-4.21-8.731-3.833c-3.647,0.283-8.315-0.157-11.056-1.026
		c-2.351,1.655-6.668,3.48-10.232,4.309c-5.15,1.199-7.187,3.743-7.217,7.019l-1.831-1.725c-2.68-1.689-5.926-1.554-9.431-0.589
		c-0.824,3.541-0.83,6.79,0.965,9.4l1.354,1.327c-3.11,0.186-5.509,2.268-6.634,7.246c-0.806,3.569-2.604,7.899-4.243,10.26
		c0.887,2.734,1.356,7.398,1.097,11.048c-0.36,5.072,1.319,7.757,4.224,8.843l-1.518,0.789c-0.538,0.429-1.003,0.912-1.404,1.441
		c-4.468,1.177-9.054,3.507-13.328,6.135c-0.022-3.624-0.527-6.625-1.048-8.906c-0.599-2.625,0.13-5.021,0.786-7.333
		c-5.91,2.332-9.804,7.354-12.572,13.882c-1.743,4.111-3.053,6.561-5.5,7.594c-2.575,1.087-4.628,0.089-6.024-1.046
		c-0.087,2.707-0.465,5.91-2.619,8.12c-1.292,1.326-2.639,2.071-3.929,3.143c-1.76,1.462-2.779,3.506-3.667,5.762
		c1.009-3.492,1.444-6.964,1.571-10.477c0.015-0.407,0.063-0.793,0.141-1.161c0.057-0.271,0.129-0.532,0.215-0.783
		c0.642-1.874,2.034-3.216,3.312-4.343c-2.467-1.725-4.192-3.341-4.191-4.715c0.009-6.033,5.072-8.508,8.644-12.834
		c4.139-5.015,2.882-10.936,1.572-15.715c-1.921,3.013-5.238,5.937-9.954,8.25c-0.389-4.634-0.329-11.289-1.117-16.611
		c2.049,0.794,4.617,0.405,7.844-1.638c3.092-1.958,7.423-3.753,10.251-4.267c1.302-2.563,4.265-6.197,7.025-8.597
		c3.587-3.118,4.464-6.017,3.548-8.681l1.633,0.551c3.141,0.418,6.034-1.059,8.817-3.397c-0.728-3.562-2.077-6.518-4.798-8.141
		l-2.416-0.868c3.038-1.482,4.473-4.469,3.177-9.726c-0.875-3.553-1.204-8.229-0.794-11.075c-2.017-2.048-4.522-6.01-5.923-9.391
		c-1.952-4.711-4.657-6.354-7.738-6.009l1.381-1.94c1.308-2.886,0.729-6.083-0.705-9.423c-3.62-0.333-6.84,0.106-9.181,2.242
		l-1.554,2.096c-0.622-3.11-3.042-5.224-8.196-5.615c-3.648-0.276-7.953-1.305-10.526-2.582v36.16v3.899l-0.032,13.489
		l-0.084,26.887l-0.039-0.021v12.272l-0.004,1.351l0.004-0.002v75.957v4.716v164.486h43.478c-1.097-4.855-2.831-8.949-6.549-10.477
		h-4.452c-0.403-4.664-2.128-7.042-4.453-8.382c19.88-30.692,30.981-55.062,12.049-96.649c-4.942-10.854-9.731-24.756-6.093-36.597
		c1.025,1.443,2.554,2.384,5.29,2.114c-1.693,2.32-2.791,5.903-1.244,10.819c2.371,7.536,14.416,6.825,15.063-1.901
		c0.376-5.079-5.982-7.982-8.317-2.492c-0.233,0.551-0.785,0.314-0.851-0.655c0.624-1.948,1-3.96,2.278-4.993
		c5.335-4.313,12.558-5.544,18.517-1.193c7.113,5.193,9.627,18.832,3.37,34.382c-5.079,10.548-10.603,20.74-15.564,31.344
		c-1.889,4.037-2.955,9.454-2.225,16.216c0.878,8.128,5.332,15.903,18.846,16.544c11.387,0.539,21.041-7.356,16.954-20.348
		c-2.37-7.535-14.415-6.825-15.062,1.901c-0.377,5.079,5.982,7.981,8.316,2.492c0.234-0.551,0.785-0.315,0.852,0.655
		c-6.522,18.813-32.789,4.073-20.892-15.494c9.984-16.847,34.392-52.128,16.174-70.293c-10.477-10.446-22.547-10.7-34.381-1.442
		c-1.22-2.536-3.204-3.448-4.645-3.249c0.529-0.885,1.12-1.752,1.779-2.598c3.919,0.131,6.036-3.775,7.334-8.906H191.394
		L191.394,197.823z"/>
	
		<path fill="none" stroke="#000000" stroke-width="4.252" stroke-linecap="round" stroke-linejoin="round" stroke-miterlimit="22.9256" d="
		M226.815,173.369L226.815,173.369 M210.269,90.818c1.294,0.986,1.359,3.151-2.316,6.978c-1.731,1.803-3.347,2.433-4.781,2.869
		c-1.826,0.554-2.27,0.891-3.295,2.5c-0.806,1.266-1.846,2.652-4.049,3.835c-4.674,2.511-6.742,1.866-7.344,0.354 M207.267,49.274
		c1.363-0.889,3.425-0.223,5.795,4.524c1.117,2.237,1.167,3.97,1.096,5.468c-0.091,1.906,0.077,2.437,1.249,3.943
		c0.921,1.184,1.877,2.63,2.252,5.102c0.795,5.246-0.507,6.977-2.133,7.036 M180.268,36.624c0.585,0,1.224-0.166,2.12-0.496
		c1.406-0.521,3.073-0.996,5.543-0.606c5.241,0.826,6.499,2.59,6.063,4.158 M180.144,356.549h32.329 M180.144,348.167h27.81
		 M180.144,206.729h38.619 M247.56,110.923c-1.465-0.708-3.425,0.215-5.172,5.226c-0.823,2.361-0.652,4.085-0.391,5.563
		c0.332,1.878,0.233,2.427-0.737,4.069c-0.764,1.292-1.527,2.847-1.585,5.347c-0.121,5.304,1.391,6.855,3.011,6.707 M275.24,165.396
		c-0.292,1.601-2.192,2.639-7.27,1.097c-2.393-0.727-3.686-1.882-4.724-2.964c-1.321-1.376-1.823-1.619-3.722-1.804
		c-1.493-0.145-3.2-0.445-5.253-1.873c-4.356-3.029-4.719-5.165-3.643-6.386 M286.203,95.263c0.175-1.618-1.354-3.153-6.658-3.116
		c-2.501,0.018-4.068,0.757-5.371,1.5c-1.658,0.944-2.208,1.035-4.081,0.673c-1.473-0.285-3.194-0.482-5.568,0.303
		c-5.037,1.668-5.99,3.613-5.307,5.089 M310.917,143.9c1.409,0.813,1.749,2.952-1.409,7.215c-1.488,2.009-3.01,2.839-4.378,3.454
		c-1.741,0.782-2.138,1.173-2.949,2.899c-0.639,1.358-1.494,2.865-3.528,4.319c-4.316,3.085-6.45,2.709-7.239,1.286
		 M301.069,103.337c1.201-1.098,3.343-0.776,6.453,3.522c1.466,2.025,1.798,3.727,1.971,5.217c0.221,1.895,0.473,2.392,1.874,3.687
		c1.102,1.018,2.28,2.289,3.052,4.667c1.638,5.047,0.635,6.967-0.96,7.289 M216.54,148.317c2.26-0.544,4.06-1.703,5.794-2.949
		 M213.718,142.348c0.159,1.574,0.086,3.147,1.177,4.721c0.572,0.825,0.767,2.03,0.982,3.213 M210.583,147.794
		c0.315,1.804,1.154,4.132,2.519,6.986c3.591-0.597,6.99-1.692,9.707-4.564 M188.625,131.515c-0.119,2.66-0.206,5.314,0.731,7.798
		c2.103,0.593,4.685,0.584,7.486,0.302 M193.494,134.425c2.639,0.129,5.167,0.105,6.93-0.995 M192.69,129.16
		c0.067,1.948-0.127,4.158-0.584,6.63 M199.31,123.594c-1.474,5.272-3.934,9.251-7.204,12.196c-2.204,1.984-3.574,4.584-4.257,7.737
		 M222.391,135.865c-2.536,4.378-4.744,8.888-6.514,14.417c-1.152,3.604-3.57,5.137-5.566,7.147 M219.28,173.777
		c-3.085-2.684-4.407-5.783-4.524-9.167 M191.394,197.823c-0.988-3.585-0.936-7.17-0.513-10.739c0.435-3.672,2.121-5.721,4.19-6.81
		c0.186-0.098,0.373-0.186,0.561-0.266c1.871-0.796,3.821-0.711,5.726,0.004c-0.113-2.456-0.032-4.519,0.504-5.995
		c0.293-0.808,0.722-1.439,1.329-1.863c3.534-2.462,7.423-1.838,10.478-0.262c4.473,2.307,8.84,2.582,13.146,1.476l0.296-0.079
		c1.286-0.349,2.567-0.821,3.844-1.397c3.037-1.371,5.566-3.514,8.12-5.5c-4.061-0.261-7.465-0.959-9.43-2.619l0.085-0.051
		c5.077-3.063,9.364-6.104,12.354-8.732c0.34-0.047,0.68-0.117,1.019-0.209l1.577-0.782c-0.939,3.117,0.238,6.143,4.765,8.833
		c3.146,1.869,6.708,4.917,8.447,7.205c2.874,0,7.456,0.995,10.847,2.369c4.415,1.79,7.391,1.228,9.335-0.846l0.26,1.781
		c1.05,2.989,3.678,4.9,7.023,6.322c2.846-2.262,4.869-4.804,5.084-7.965l-0.323-2.571c2.699,2.051,6.013,1.986,10.113-1.55
		c2.771-2.39,6.791-4.802,9.513-5.725c0.912-2.726,3.31-6.755,5.688-9.535c3.306-3.862,3.553-7.02,1.864-9.619l2.343,0.35
		c3.165-0.142,5.754-2.105,8.081-4.898c-1.343-3.378-3.192-6.05-6.157-7.168l-2.621-0.444c2.525-1.945,3.335-5.054,1.342-9.842
		c-1.407-3.378-2.444-7.95-2.473-10.824c-2.305-1.717-5.386-5.251-7.285-8.378c-2.771-4.562-5.854-5.683-9.006-4.642l1.338-2.682
		c0.843-3.054-0.224-6.123-2.16-9.199c-3.628,0.233-6.741,1.167-8.721,3.64l-1.156,2.208c-1.182-2.689-3.86-4.21-8.731-3.833
		c-3.647,0.283-8.315-0.157-11.056-1.026c-2.351,1.655-6.668,3.48-10.232,4.309c-5.15,1.199-7.187,3.743-7.217,7.019l-1.831-1.725
		c-2.68-1.689-5.926-1.554-9.431-0.589c-0.824,3.541-0.83,6.79,0.965,9.4l1.354,1.327c-3.11,0.186-5.509,2.268-6.634,7.246
		c-0.806,3.569-2.604,7.899-4.243,10.26c0.887,2.734,1.356,7.398,1.097,11.048c-0.36,5.072,1.319,7.757,4.224,8.843l-1.518,0.789
		c-0.538,0.429-1.003,0.912-1.404,1.441c-4.468,1.177-9.054,3.507-13.328,6.135c-0.022-3.624-0.527-6.625-1.048-8.906
		c-0.599-2.625,0.13-5.021,0.786-7.333c-5.91,2.332-9.804,7.354-12.572,13.882c-1.743,4.111-3.053,6.561-5.5,7.594
		c-2.575,1.087-4.628,0.089-6.024-1.046c-0.087,2.707-0.465,5.91-2.619,8.12c-1.292,1.326-2.639,2.071-3.929,3.143
		c-1.76,1.462-2.779,3.506-3.667,5.762c1.009-3.492,1.444-6.964,1.571-10.477c0.015-0.407,0.063-0.793,0.141-1.161
		c0.057-0.271,0.129-0.532,0.215-0.783c0.642-1.874,2.034-3.216,3.312-4.343c-2.467-1.725-4.192-3.341-4.191-4.715
		c0.009-6.033,5.072-8.508,8.644-12.834c4.139-5.015,2.882-10.936,1.572-15.715c-1.921,3.013-5.238,5.937-9.954,8.25
		c-0.389-4.634-0.329-11.289-1.117-16.611c2.049,0.794,4.617,0.405,7.844-1.638c3.092-1.958,7.423-3.753,10.251-4.267
		c1.302-2.563,4.265-6.197,7.025-8.597c3.587-3.118,4.464-6.017,3.548-8.681l1.633,0.551c3.141,0.418,6.034-1.059,8.817-3.397
		c-0.728-3.562-2.077-6.518-4.798-8.141l-2.416-0.868c3.038-1.482,4.473-4.469,3.177-9.726c-0.875-3.553-1.204-8.229-0.794-11.075
		c-2.017-2.048-4.522-6.01-5.923-9.391c-1.952-4.711-4.657-6.354-7.738-6.009l1.381-1.94c1.308-2.886,0.729-6.083-0.705-9.423
		c-3.62-0.333-6.84,0.106-9.181,2.242l-1.554,2.096c-0.622-3.11-3.042-5.224-8.196-5.615c-3.648-0.276-7.953-1.305-10.526-2.582
		v36.16v3.899l-0.032,13.489l-0.084,26.887l-0.039-0.021v12.272l-0.004,1.351l0.004-0.002v75.957v4.716v164.486h43.478
		c-1.097-4.855-2.831-8.949-6.549-10.477h-4.452c-0.403-4.664-2.128-7.042-4.453-8.382c19.88-30.692,30.981-55.062,12.049-96.649
		c-4.942-10.854-9.731-24.756-6.093-36.597c1.025,1.443,2.554,2.384,5.29,2.114c-1.693,2.32-2.791,5.903-1.244,10.819
		c2.371,7.536,14.416,6.825,15.063-1.901c0.376-5.079-5.982-7.982-8.317-2.492c-0.233,0.551-0.785,0.314-0.851-0.655
		c0.624-1.948,1-3.96,2.278-4.993c5.335-4.313,12.558-5.544,18.517-1.193c7.113,5.193,9.627,18.832,3.37,34.382
		c-5.079,10.548-10.603,20.74-15.564,31.344c-1.889,4.037-2.955,9.454-2.225,16.216c0.878,8.128,5.332,15.903,18.846,16.544
		c11.387,0.539,21.041-7.356,16.954-20.348c-2.37-7.535-14.415-6.825-15.062,1.901c-0.377,5.079,5.982,7.981,8.316,2.492
		c0.234-0.551,0.785-0.315,0.852,0.655c-6.522,18.813-32.789,4.073-20.892-15.494c9.984-16.847,34.392-52.128,16.174-70.293
		c-10.477-10.446-22.547-10.7-34.381-1.442c-1.22-2.536-3.204-3.448-4.645-3.249c0.529-0.885,1.12-1.752,1.779-2.598
		c3.919,0.131,6.036-3.775,7.334-8.906H191.394L191.394,197.823z"/>
	
		<path fill-rule="evenodd" clip-rule="evenodd" fill="#FFFFFF" stroke="#000000" stroke-width="1.8425" stroke-linecap="round" stroke-linejoin="round" stroke-miterlimit="22.9256" d="
		M180.144,5.81H4.657l9.985,223.43c4.848,108.488,88.184,168.692,165.502,168.692V5.81L180.144,5.81z"/>
	
		<path fill-rule="evenodd" clip-rule="evenodd" fill="#FFFFFF" stroke="#000000" stroke-width="1.8425" stroke-linecap="round" stroke-linejoin="round" stroke-miterlimit="22.9256" d="
		M180.144,202.539c4.452,0.087,8.904,0.175,13.357,0.262c-3.064-5.239-3.238-10.496-2.619-15.716c0.435-3.672,2.121-5.721,4.19-6.81
		c2.04-1.074,4.19-1.049,6.286-0.262c-0.175-3.8,0.115-6.661,1.833-7.858c3.534-2.462,7.423-1.838,10.478-0.262
		c5.912,3.05,11.64,2.549,17.286,0c3.037-1.371,5.566-3.514,8.12-5.5c-4.061-0.261-7.465-0.959-9.43-2.619
		c7.614-4.586,13.466-9.127,15.847-12.312c-0.873-1.746-2.531-5.197-3.404-6.944c-6.199-0.051-13.053,3.134-19.252,6.945
		c-0.022-3.624-0.527-6.625-1.048-8.906c-0.599-2.625,0.13-5.021,0.786-7.333c-5.91,2.332-9.804,7.354-12.572,13.882
		c-1.743,4.111-3.053,6.561-5.5,7.594c-2.575,1.087-4.628,0.089-6.024-1.046c-0.087,2.707-0.465,5.91-2.619,8.12
		c-1.292,1.326-2.639,2.071-3.929,3.143c-1.76,1.462-2.779,3.506-3.667,5.762c1.009-3.492,1.444-6.964,1.571-10.477
		c0.106-2.949,1.986-4.803,3.667-6.286c-2.467-1.725-4.192-3.341-4.191-4.715c0.009-6.033,5.072-8.508,8.644-12.834
		c4.139-5.015,2.882-10.936,1.572-15.715c-1.921,3.013-5.238,5.937-9.954,8.25c-0.596-7.088-0.14-18.901-3.273-23.448
		c-2.008-1.135-4.147,1.927-6.154,0.792V202.539L180.144,202.539z"/>
	
		<path fill="none" stroke="#000000" stroke-width="1.8425" stroke-linecap="round" stroke-linejoin="round" stroke-miterlimit="22.9256" d="
		M189.571,130.902c-3.761,2.22-5.599,5.664-5.519,10.331 M189.974,161.042c-2.176-3.112-2.344-6.137-0.503-9.075 M197.461,161.319
		c3.045,0.209,5.392-1.331,7.04-4.619 M195.072,180.274c0.985-3.508,2.658-6.25,6.79-6.256 M229.645,163.773
		c-5.665-4.489-9.388-5.719-16.518-4.312 M222.835,151.463c-0.476,2.692-1.372,5.465-3.849,7.471 M238.406,166.609
		c-5.42,1.049-11.065,1.875-16.503,0.197c-4.793-1.48-8.404-2.853-11.919-3.017 M214.433,164.526
		c3.006-2.543,6.422-3.582,9.952-4.199 M226.815,173.369c-2.84-2.203-4.808-4.493-5.901-6.871c1.852-1.636,4.658-2.451,7.734-3.036
		 M219.28,173.777c-3.085-2.684-4.407-5.783-4.524-9.167 M222.391,135.865c-2.536,4.378-4.744,8.888-6.514,14.417
		c-1.152,3.604-3.57,5.137-5.566,7.147 M199.31,123.594c-1.474,5.272-3.934,9.251-7.204,12.196
		c-2.204,1.984-3.574,4.584-4.257,7.737 M192.69,129.16c0.067,1.948-0.127,4.158-0.584,6.63 M193.494,134.425
		c2.639,0.129,5.167,0.105,6.93-0.995"/>
	
		<path fill-rule="evenodd" clip-rule="evenodd" fill="#FFFFFF" stroke="#000000" stroke-width="4.252" stroke-linecap="round" stroke-linejoin="round" stroke-miterlimit="22.9256" d="
		M300.698,84.972c-3.628,0.233-6.741,1.167-8.721,3.64l-1.156,2.208c-1.182-2.689-3.86-4.21-8.731-3.833
		c-3.647,0.283-8.315-0.157-11.056-1.026c-2.351,1.655-6.668,3.48-10.232,4.309c-5.15,1.199-7.187,3.743-7.217,7.019l-1.831-1.725
		c-2.68-1.689-5.926-1.554-9.431-0.589c-0.824,3.541-0.83,6.79,0.965,9.4l1.354,1.327c-3.11,0.186-5.509,2.268-6.634,7.246
		c-0.806,3.569-2.604,7.899-4.243,10.26c0.887,2.734,1.356,7.398,1.097,11.048c-0.36,5.072,1.319,7.757,4.224,8.843l-1.518,0.789
		c-2.478,1.975-3.418,5.085-3.659,8.713c3.072,1.943,6.139,3.017,9.194,2.181l1.577-0.782c-0.939,3.117,0.238,6.143,4.765,8.833
		c3.146,1.869,6.708,4.917,8.447,7.205c2.874,0,7.456,0.995,10.847,2.369c4.415,1.79,7.391,1.228,9.335-0.846l0.26,1.781
		c1.05,2.989,3.678,4.9,7.023,6.322c2.846-2.262,4.869-4.804,5.084-7.965l-0.323-2.571c2.699,2.051,6.013,1.986,10.113-1.55
		c2.771-2.39,6.791-4.802,9.513-5.725c0.912-2.726,3.31-6.755,5.688-9.535c3.306-3.862,3.553-7.02,1.864-9.619l2.343,0.35
		c3.165-0.142,5.754-2.105,8.081-4.898c-1.343-3.378-3.192-6.05-6.157-7.168l-2.621-0.444c2.525-1.945,3.335-5.054,1.342-9.842
		c-1.407-3.378-2.444-7.95-2.473-10.824c-2.305-1.717-5.386-5.251-7.285-8.378c-2.771-4.562-5.854-5.683-9.006-4.642l1.338-2.682
		C303.701,91.117,302.634,88.048,300.698,84.972L300.698,84.972z"/>
	
		<path fill="none" stroke="#000000" stroke-width="1.8425" stroke-linecap="round" stroke-linejoin="round" stroke-miterlimit="22.9256" d="
		M188.625,131.515c-0.119,2.66-0.206,5.314,0.731,7.798c2.103,0.593,4.685,0.584,7.486,0.302 M210.583,147.794
		c0.315,1.804,1.154,4.132,2.519,6.986c3.591-0.597,6.99-1.692,9.707-4.564 M213.718,142.348c0.159,1.574,0.086,3.147,1.177,4.721
		c0.572,0.825,0.767,2.03,0.982,3.213 M216.54,148.317c2.26-0.544,4.06-1.703,5.794-2.949"/>
	
		<path fill-rule="evenodd" clip-rule="evenodd" fill="#FFFFFF" stroke="#000000" stroke-width="1.8425" stroke-linecap="round" stroke-linejoin="round" stroke-miterlimit="22.9256" d="
		M300.698,84.972c-3.628,0.233-6.741,1.167-8.721,3.64l-11.954,22.843l-1.238,18.108l12.565-12.32l11.508-23.071
		C303.701,91.117,302.634,88.048,300.698,84.972L300.698,84.972z"/>
	
		<path fill-rule="evenodd" clip-rule="evenodd" fill="#FFFFFF" stroke="#000000" stroke-width="1.8425" stroke-linecap="round" stroke-linejoin="round" stroke-miterlimit="22.9256" d="
		M327.72,138.152c-2.327,2.792-4.916,4.756-8.081,4.898l-25.498-3.812l-15.356-9.676l17.359-2.886l25.419,4.307
		C324.528,132.102,326.377,134.773,327.72,138.152L327.72,138.152z"/>
	
		<path fill-rule="evenodd" clip-rule="evenodd" fill="#FFFFFF" stroke="#000000" stroke-width="1.8425" stroke-linecap="round" stroke-linejoin="round" stroke-miterlimit="22.9256" d="
		M242.323,94.975c-0.824,3.541-0.83,6.79,0.965,9.4l18.417,18.042l17.146,7.274l-8.334-16.447l-18.764-17.681
		C249.074,93.874,245.828,94.009,242.323,94.975L242.323,94.975z"/>
	
		<path fill-rule="evenodd" clip-rule="evenodd" fill="#FFFFFF" stroke="#000000" stroke-width="1.8425" stroke-linecap="round" stroke-linejoin="round" stroke-miterlimit="22.9256" d="
		M285.357,179.664c-3.346-1.421-5.974-3.333-7.023-6.322l-3.716-25.512l4.233-18.138l8.371,16.427l3.219,25.58
		C290.226,174.859,288.203,177.402,285.357,179.664L285.357,179.664z"/>
	
		<path fill-rule="evenodd" clip-rule="evenodd" fill="#FFFFFF" stroke="#000000" stroke-width="1.8425" stroke-linecap="round" stroke-linejoin="round" stroke-miterlimit="22.9256" d="
		M233.909,152.601c0.241-3.627,1.182-6.738,3.659-8.713l22.869-11.902l18.364-2.197L266.2,143.326l-23.097,11.455
		C240.047,155.618,236.981,154.544,233.909,152.601L233.909,152.601z"/>
	
		<path fill-rule="evenodd" clip-rule="evenodd" fill="#FFFFFF" stroke="#000000" stroke-width="1.8425" stroke-linecap="round" stroke-linejoin="round" stroke-miterlimit="22.9256" d="
		M277.848,130.18c5.573-10.29,21.617-46.899,32.678-28.685c1.899,3.127,4.98,6.661,7.285,8.378
		c0.028,2.875,1.065,7.446,2.473,10.824C328.474,140.368,289.446,131.745,277.848,130.18L277.848,130.18z"/>
	
		<path fill="none" stroke="#000000" stroke-width="1.8425" stroke-linecap="round" stroke-linejoin="round" stroke-miterlimit="22.9256" d="
		M301.069,103.337c1.201-1.098,3.343-0.776,6.453,3.522c1.466,2.025,1.798,3.727,1.971,5.217c0.221,1.895,0.473,2.392,1.874,3.687
		c1.102,1.018,2.28,2.289,3.052,4.667c1.638,5.047,0.635,6.967-0.96,7.289"/>
	
		<path fill-rule="evenodd" clip-rule="evenodd" fill="#FFFFFF" stroke="#000000" stroke-width="1.8425" stroke-linecap="round" stroke-linejoin="round" stroke-miterlimit="22.9256" d="
		M277.986,130.216c11.516,2.086,51.302,5.913,37.446,22.102c-2.379,2.78-4.776,6.809-5.688,9.535
		c-2.722,0.923-6.742,3.335-9.513,5.725C284.094,181.495,280.116,141.723,277.986,130.216L277.986,130.216z"/>
	
		<path fill-rule="evenodd" clip-rule="evenodd" fill="#FFFFFF" stroke="#000000" stroke-width="1.8425" stroke-linecap="round" stroke-linejoin="round" stroke-miterlimit="22.9256" d="
		M277.818,129.883c1.676,11.582,10.67,50.527-9.079,42.523c-3.391-1.374-7.973-2.369-10.847-2.369
		c-1.739-2.289-5.302-5.336-8.447-7.205C231.127,151.945,267.581,135.553,277.818,129.883L277.818,129.883z"/>
	
		<path fill-rule="evenodd" clip-rule="evenodd" fill="#FFFFFF" stroke="#000000" stroke-width="1.8425" stroke-linecap="round" stroke-linejoin="round" stroke-miterlimit="22.9256" d="
		M277.865,130.264c5.104-10.531,25.469-44.923,4.225-43.276c-3.647,0.283-8.315-0.157-11.056-1.026
		c-2.351,1.655-6.668,3.48-10.232,4.309C240.047,95.099,269.826,121.759,277.865,130.264L277.865,130.264z"/>
	
		<path fill-rule="evenodd" clip-rule="evenodd" fill="#FFFFFF" stroke="#000000" stroke-width="1.8425" stroke-linecap="round" stroke-linejoin="round" stroke-miterlimit="22.9256" d="
		M278.11,129.756c-8.555-7.984-35.405-37.593-40.102-16.808c-0.806,3.569-2.604,7.899-4.243,10.26
		c0.887,2.734,1.356,7.398,1.097,11.048C233.35,155.511,267.613,134.927,278.11,129.756L278.11,129.756z"/>
	
		<path fill="none" stroke="#000000" stroke-width="1.8425" stroke-linecap="round" stroke-linejoin="round" stroke-miterlimit="22.9256" d="
		M310.917,143.9c1.409,0.813,1.749,2.952-1.409,7.215c-1.488,2.009-3.01,2.839-4.378,3.454c-1.741,0.782-2.138,1.173-2.949,2.899
		c-0.639,1.358-1.494,2.865-3.528,4.319c-4.316,3.085-6.45,2.709-7.239,1.286 M286.203,95.263c0.175-1.618-1.354-3.153-6.658-3.116
		c-2.501,0.018-4.068,0.757-5.371,1.5c-1.658,0.944-2.208,1.035-4.081,0.673c-1.473-0.285-3.194-0.482-5.568,0.303
		c-5.037,1.668-5.99,3.613-5.307,5.089 M275.24,165.396c-0.292,1.601-2.192,2.639-7.27,1.097c-2.393-0.727-3.686-1.882-4.724-2.964
		c-1.321-1.376-1.823-1.619-3.722-1.804c-1.493-0.145-3.2-0.445-5.253-1.873c-4.356-3.029-4.719-5.165-3.643-6.386 M247.56,110.923
		c-1.465-0.708-3.425,0.215-5.172,5.226c-0.823,2.361-0.652,4.085-0.391,5.563c0.332,1.878,0.233,2.427-0.737,4.069
		c-0.764,1.292-1.527,2.847-1.585,5.347c-0.121,5.304,1.391,6.855,3.011,6.707"/>
	
		<path fill-rule="evenodd" clip-rule="evenodd" stroke="#000000" stroke-width="1.8425" stroke-linecap="round" stroke-linejoin="round" stroke-miterlimit="22.9256" d="
		M263.704,128.056c6.804-2.226,9.94-6.438,11.521-11.748c4.457,6.362,10.176,7.532,16.247,7.248
		c-3.81,4.737-6.236,10.045-3.725,17.396c-5.264-1.896-10.537-2.069-16.396,2.152C271.54,135.338,268.759,131.43,263.704,128.056
		L263.704,128.056z"/>
	
		<path fill-rule="evenodd" clip-rule="evenodd" fill="#FFFFFF" stroke="#000000" stroke-width="1.8425" stroke-linecap="round" stroke-linejoin="round" stroke-miterlimit="22.9256" d="
		M285.579,126.522c2.195,4.319,0.473,9.602-3.847,11.796c-4.319,2.195-9.602,0.472-11.797-3.847
		c-2.194-4.319-0.472-9.602,3.848-11.797C278.101,120.48,283.384,122.203,285.579,126.522L285.579,126.522z"/>
	
		<path fill="none" stroke="#000000" stroke-width="4.252" stroke-linecap="round" stroke-linejoin="round" stroke-miterlimit="22.9256" d="
		M133.471,173.369L133.471,173.369 M112.727,110.923c1.465-0.708,3.425,0.215,5.172,5.226c0.823,2.361,0.653,4.085,0.391,5.563
		c-0.333,1.878-0.234,2.427,0.737,4.069c0.763,1.292,1.528,2.847,1.584,5.347c0.121,5.304-1.39,6.855-3.011,6.707 M85.047,165.396
		c0.292,1.601,2.193,2.639,7.269,1.097c2.393-0.727,3.686-1.882,4.725-2.964c1.321-1.376,1.822-1.619,3.721-1.804
		c1.493-0.145,3.2-0.445,5.253-1.873c4.356-3.029,4.718-5.165,3.643-6.386 M74.083,95.263c-0.174-1.618,1.354-3.153,6.659-3.116
		c2.5,0.018,4.067,0.757,5.371,1.5c1.658,0.944,2.207,1.035,4.081,0.673c1.473-0.285,3.195-0.482,5.568,0.303
		c5.037,1.668,5.991,3.613,5.306,5.089 M49.369,143.9c-1.409,0.813-1.749,2.952,1.409,7.215c1.488,2.009,3.01,2.839,4.378,3.454
		c1.741,0.782,2.138,1.173,2.949,2.899c0.639,1.358,1.494,2.865,3.528,4.319c4.317,3.085,6.45,2.709,7.239,1.286 M59.218,103.337
		c-1.201-1.098-3.343-0.776-6.454,3.522c-1.466,2.025-1.797,3.727-1.971,5.217c-0.22,1.895-0.472,2.392-1.874,3.687
		c-1.102,1.018-2.28,2.289-3.052,4.667c-1.638,5.047-0.635,6.967,0.96,7.289 M143.747,148.317c-2.26-0.544-4.06-1.703-5.794-2.949
		 M146.569,142.348c-0.16,1.574-0.086,3.147-1.178,4.721c-0.572,0.825-0.766,2.03-0.982,3.213 M149.704,147.794
		c-0.315,1.804-1.155,4.132-2.519,6.986c-3.591-0.597-6.99-1.692-9.708-4.564 M171.661,131.515c0.119,2.66,0.206,5.314-0.732,7.798
		c-2.103,0.593-4.685,0.584-7.486,0.302 M166.793,134.425c-2.639,0.129-5.167,0.105-6.93-0.995 M167.596,129.16
		c-0.067,1.948,0.127,4.158,0.584,6.63 M160.977,123.594c1.473,5.272,3.933,9.251,7.204,12.196c2.204,1.984,3.574,4.584,4.257,7.737
		 M137.895,135.865c2.537,4.378,4.745,8.888,6.514,14.417c1.153,3.604,3.571,5.137,5.566,7.147 M141.007,173.777
		c3.085-2.684,4.407-5.783,4.524-9.167 M180.144,367.025h-43.478c1.096-4.855,2.831-8.949,6.548-10.477h4.453
		c0.404-4.664,2.127-7.042,4.453-8.382c-19.879-30.692-30.981-55.062-12.048-96.649c4.942-10.854,9.731-24.756,6.093-36.597
		c-1.025,1.443-2.554,2.384-5.291,2.114c1.694,2.32,2.791,5.903,1.244,10.819c-2.371,7.536-14.416,6.825-15.062-1.901
		c-0.376-5.079,5.982-7.982,8.317-2.492c0.234,0.551,0.785,0.314,0.851-0.655c-0.624-1.948-1-3.96-2.278-4.993
		c-5.335-4.313-12.558-5.544-18.517-1.193c-7.113,5.193-9.627,18.832-3.371,34.382c5.079,10.548,10.604,20.74,15.564,31.344
		c1.889,4.037,2.955,9.454,2.225,16.216c-0.878,8.128-5.332,15.903-18.845,16.544c-11.387,0.539-21.041-7.356-16.955-20.348
		c2.37-7.535,14.416-6.825,15.062,1.901c0.376,5.079-5.982,7.981-8.317,2.492c-0.234-0.551-0.785-0.315-0.851,0.655
		c6.522,18.813,32.789,4.073,20.892-15.494c-9.984-16.847-34.392-52.128-16.174-70.293c10.477-10.446,22.546-10.7,34.381-1.442
		c1.219-2.536,3.204-3.448,4.645-3.249c-0.529-0.885-1.12-1.752-1.78-2.598c-3.918,0.131-6.036-3.775-7.334-8.906h34.323
		c0.987-3.585,0.936-7.17,0.512-10.739c-0.435-3.672-2.121-5.721-4.19-6.81c-2.04-1.074-4.191-1.049-6.286-0.262
		c0.113-2.456,0.032-4.519-0.504-5.995c-0.292-0.808-0.722-1.439-1.33-1.863c-3.533-2.462-7.422-1.838-10.477-0.262
		c-4.473,2.307-8.84,2.582-13.146,1.476h0c-1.386-0.356-2.765-0.855-4.14-1.476c-3.037-1.371-5.566-3.514-8.12-5.5
		c4.06-0.261,7.465-0.959,9.429-2.619c-5.114-3.081-9.433-6.141-12.439-8.783c-0.34-0.047-0.679-0.117-1.019-0.209l-1.577-0.782
		c0.94,3.117-0.238,6.143-4.764,8.833c-3.145,1.869-6.708,4.917-8.447,7.205c-2.874,0-7.456,0.995-10.847,2.369
		c-4.415,1.79-7.39,1.228-9.335-0.846l-0.259,1.781c-1.049,2.989-3.678,4.9-7.023,6.322c-2.846-2.262-4.869-4.804-5.084-7.965
		l0.324-2.571c-2.7,2.051-6.013,1.986-10.113-1.55c-2.771-2.39-6.791-4.802-9.513-5.725c-0.913-2.726-3.31-6.755-5.688-9.535
		c-3.306-3.862-3.553-7.02-1.865-9.619l-2.342,0.35c-3.165-0.142-5.754-2.105-8.082-4.898c1.343-3.378,3.193-6.05,6.157-7.168
		l2.621-0.444c-2.525-1.945-3.335-5.054-1.341-9.842c1.407-3.378,2.445-7.95,2.473-10.824c2.305-1.717,5.386-5.251,7.285-8.378
		c2.77-4.562,5.853-5.683,9.006-4.642l-1.337-2.682c-0.844-3.054,0.224-6.123,2.16-9.199c3.628,0.233,6.741,1.167,8.721,3.64
		l1.155,2.208c1.182-2.689,3.861-4.21,8.732-3.833c3.648,0.283,8.315-0.157,11.055-1.026c2.351,1.655,6.669,3.48,10.232,4.309
		c5.151,1.199,7.187,3.743,7.217,7.019l1.831-1.725c2.68-1.689,5.927-1.554,9.431-0.589c0.825,3.541,0.83,6.79-0.965,9.4
		l-1.354,1.327c3.111,0.186,5.509,2.268,6.634,7.246c0.807,3.569,2.604,7.899,4.244,10.26c-0.887,2.734-1.356,7.398-1.097,11.048
		c0.36,5.072-1.319,7.757-4.223,8.843l1.517,0.789c0.538,0.429,1.003,0.912,1.405,1.441c4.468,1.177,9.053,3.507,13.328,6.135
		c0.022-3.624,0.527-6.625,1.047-8.906c0.599-2.625-0.129-5.021-0.786-7.333c5.91,2.332,9.804,7.354,12.572,13.882
		c1.743,4.111,3.052,6.561,5.5,7.594c2.575,1.087,4.627,0.089,6.024-1.046c0.056,1.735,0.231,3.674,0.917,5.425
		c0.032,0.081,0.065,0.161,0.099,0.241c0.377,0.891,0.894,1.726,1.604,2.454c1.292,1.326,2.638,2.071,3.929,3.143
		c1.759,1.462,2.778,3.506,3.667,5.762c-1.009-3.492-1.444-6.964-1.572-10.477c-0.107-2.949-1.986-4.803-3.667-6.286
		c2.466-1.725,4.192-3.341,4.191-4.715c-0.008-6.033-5.072-8.508-8.644-12.834c-4.139-5.015-2.882-10.936-1.571-15.715
		c1.92,3.013,5.238,5.937,9.953,8.25c0.39-4.636,0.33-11.291,1.118-16.614c-2.05,0.799-4.621,0.412-7.853-1.634
		c-3.091-1.958-7.422-3.753-10.25-4.267c-1.302-2.563-4.265-6.197-7.026-8.597c-3.586-3.118-4.464-6.017-3.548-8.681l-1.632,0.551
		c-3.141,0.418-6.035-1.059-8.818-3.397c0.728-3.562,2.078-6.518,4.798-8.141l2.416-0.868c-3.038-1.482-4.472-4.469-3.177-9.726
		c0.875-3.553,1.204-8.229,0.794-11.075c2.017-2.048,4.523-6.01,5.923-9.391c1.952-4.711,4.657-6.354,7.738-6.009l-1.381-1.94
		c-1.308-2.886-0.729-6.083,0.706-9.423c3.62-0.333,6.84,0.106,9.18,2.242l1.554,2.096c0.622-3.11,3.042-5.224,8.197-5.615
		c3.648-0.276,7.952-1.305,10.528-2.582"/>
	
		<path fill-rule="evenodd" clip-rule="evenodd" fill="#E30613" stroke="#000000" stroke-width="1.8425" stroke-linecap="round" stroke-linejoin="round" stroke-miterlimit="22.9256" d="
		M180.144,202.539c-4.452,0.087-8.905,0.175-13.357,0.262c3.064-5.239,3.238-10.496,2.619-15.716
		c-0.435-3.672-2.121-5.721-4.19-6.81c-2.04-1.074-4.191-1.049-6.286-0.262c0.175-3.8-0.116-6.661-1.833-7.858
		c-3.533-2.462-7.422-1.838-10.477-0.262c-5.913,3.05-11.64,2.549-17.287,0c-3.037-1.371-5.566-3.514-8.12-5.5
		c4.06-0.261,7.465-0.959,9.429-2.619c-7.614-4.586-13.466-9.127-15.846-12.312c0.873-1.746,2.532-5.197,3.405-6.944
		c6.199-0.051,13.052,3.134,19.251,6.945c0.022-3.624,0.527-6.625,1.047-8.906c0.599-2.625-0.129-5.021-0.786-7.333
		c5.91,2.332,9.804,7.354,12.572,13.882c1.743,4.111,3.052,6.561,5.5,7.594c2.575,1.087,4.627,0.089,6.024-1.046
		c0.087,2.707,0.464,5.91,2.62,8.12c1.292,1.326,2.638,2.071,3.929,3.143c1.759,1.462,2.778,3.506,3.667,5.762
		c-1.009-3.492-1.444-6.964-1.572-10.477c-0.107-2.949-1.986-4.803-3.667-6.286c2.466-1.725,4.192-3.341,4.191-4.715
		c-0.008-6.033-5.072-8.508-8.644-12.834c-4.139-5.015-2.882-10.936-1.571-15.715c1.92,3.013,5.238,5.937,9.953,8.25
		c0.596-7.088,0.14-18.901,3.274-23.448c2.008-1.135,4.147,1.927,6.154,0.792V202.539L180.144,202.539z"/>
	
		<path fill-rule="evenodd" clip-rule="evenodd" fill="#E30613" stroke="#000000" stroke-width="4.252" stroke-linecap="round" stroke-linejoin="round" stroke-miterlimit="22.9256" d="
		M59.589,84.972c3.628,0.233,6.741,1.167,8.721,3.64l1.155,2.208c1.182-2.689,3.861-4.21,8.732-3.833
		c3.648,0.283,8.315-0.157,11.055-1.026c2.351,1.655,6.669,3.48,10.232,4.309c5.151,1.199,7.187,3.743,7.217,7.019l1.831-1.725
		c2.68-1.689,5.927-1.554,9.431-0.589c0.825,3.541,0.83,6.79-0.965,9.4l-1.354,1.327c3.111,0.186,5.509,2.268,6.634,7.246
		c0.807,3.569,2.604,7.899,4.244,10.26c-0.887,2.734-1.356,7.398-1.097,11.048c0.36,5.072-1.319,7.757-4.223,8.843l1.517,0.789
		c2.477,1.975,3.417,5.085,3.659,8.713c-3.072,1.943-6.139,3.017-9.195,2.181l-1.577-0.782c0.94,3.117-0.238,6.143-4.764,8.833
		c-3.145,1.869-6.708,4.917-8.447,7.205c-2.874,0-7.456,0.995-10.847,2.369c-4.415,1.79-7.39,1.228-9.335-0.846l-0.259,1.781
		c-1.049,2.989-3.678,4.9-7.023,6.322c-2.846-2.262-4.869-4.804-5.084-7.965l0.324-2.571c-2.7,2.051-6.013,1.986-10.113-1.55
		c-2.771-2.39-6.791-4.802-9.513-5.725c-0.913-2.726-3.31-6.755-5.688-9.535c-3.306-3.862-3.553-7.02-1.865-9.619l-2.342,0.35
		c-3.165-0.142-5.754-2.105-8.082-4.898c1.343-3.378,3.193-6.05,6.157-7.168l2.621-0.444c-2.525-1.945-3.335-5.054-1.341-9.842
		c1.407-3.378,2.445-7.95,2.473-10.824c2.305-1.717,5.386-5.251,7.285-8.378c2.771-4.562,5.853-5.683,9.006-4.642l-1.337-2.682
		C56.585,91.117,57.653,88.048,59.589,84.972L59.589,84.972z"/>
	
		<path fill="none" stroke="#000000" stroke-width="1.8425" stroke-linecap="round" stroke-linejoin="round" stroke-miterlimit="22.9256" d="
		M170.715,130.902c3.761,2.22,5.599,5.664,5.52,10.331 M170.313,161.042c2.175-3.112,2.343-6.137,0.502-9.075 M162.825,161.319
		c-3.044,0.209-5.391-1.331-7.039-4.619 M165.215,180.274c-0.985-3.508-2.658-6.25-6.79-6.256 M130.641,163.773
		c5.665-4.489,9.388-5.719,16.518-4.312 M137.451,151.463c0.476,2.692,1.372,5.465,3.848,7.471 M121.881,166.609
		c5.419,1.049,11.064,1.875,16.502,0.197c4.793-1.48,8.404-2.853,11.919-3.017 M145.853,164.526
		c-3.005-2.543-6.421-3.582-9.952-4.199 M133.471,173.369c2.84-2.203,4.808-4.493,5.901-6.871c-1.851-1.636-4.658-2.451-7.733-3.036
		 M141.007,173.777c3.085-2.684,4.407-5.783,4.524-9.167"/>
	
		<path fill-rule="evenodd" clip-rule="evenodd" fill="#FFFFFF" stroke="#000000" stroke-width="4.252" stroke-linecap="round" stroke-linejoin="round" stroke-miterlimit="22.9256" d="
		M255.628,214.019c-10.477-10.446-22.547-10.7-34.381-1.442c-1.22-2.536-3.204-3.448-4.645-3.249
		c0.529-0.885,1.12-1.752,1.779-2.598c3.919,0.131,6.036-3.775,7.334-8.906h-45.573H134.57c1.298,5.131,3.416,9.037,7.334,8.906
		c0.66,0.846,1.25,1.713,1.78,2.598c-1.44-0.199-3.425,0.713-4.645,3.249c-11.834-9.258-23.904-9.004-34.381,1.442
		c-18.218,18.165,6.19,53.446,16.174,70.293c11.897,19.567-14.37,34.308-20.892,15.494c0.066-0.971,0.617-1.206,0.851-0.655
		c2.335,5.489,8.693,2.587,8.317-2.492c-0.646-8.727-12.692-9.437-15.062-1.901c-4.086,12.991,5.568,20.887,16.955,20.348
		c13.514-0.641,17.967-8.416,18.845-16.544c0.73-6.762-0.336-12.179-2.225-16.216c-4.961-10.604-10.485-20.796-15.564-31.344
		c-6.257-15.55-3.743-29.188,3.371-34.382c5.959-4.351,13.182-3.12,18.517,1.193c1.277,1.033,1.654,3.045,2.278,4.993
		c-0.066,0.97-0.617,1.206-0.851,0.655c-2.334-5.49-8.693-2.587-8.317,2.492c0.646,8.727,12.691,9.438,15.062,1.901
		c1.547-4.916,0.45-8.499-1.244-10.819c2.737,0.27,4.265-0.671,5.291-2.114c3.639,11.841-1.15,25.742-6.093,36.597
		c-18.933,41.588-7.831,65.957,12.048,96.649c-2.325,1.34-4.049,3.718-4.453,8.382h-4.453c-3.717,1.527-5.452,5.621-6.548,10.477
		h43.478h43.478c-1.097-4.855-2.831-8.949-6.549-10.477h-4.452c-0.403-4.664-2.128-7.042-4.453-8.382
		c19.88-30.692,30.981-55.062,12.049-96.649c-4.942-10.854-9.731-24.756-6.093-36.597c1.025,1.443,2.554,2.384,5.29,2.114
		c-1.693,2.32-2.791,5.903-1.244,10.819c2.371,7.536,14.416,6.825,15.063-1.901c0.376-5.079-5.982-7.982-8.317-2.492
		c-0.233,0.551-0.785,0.314-0.851-0.655c0.624-1.948,1-3.96,2.278-4.993c5.335-4.313,12.558-5.544,18.517-1.193
		c7.113,5.193,9.627,18.832,3.37,34.382c-5.079,10.548-10.603,20.74-15.564,31.344c-1.889,4.037-2.955,9.454-2.225,16.216
		c0.878,8.128,5.332,15.903,18.846,16.544c11.387,0.539,21.041-7.356,16.954-20.348c-2.37-7.535-14.415-6.825-15.062,1.901
		c-0.377,5.079,5.982,7.981,8.316,2.492c0.234-0.551,0.785-0.315,0.852,0.655c-6.522,18.813-32.789,4.073-20.892-15.494
		C249.439,267.465,273.846,232.184,255.628,214.019L255.628,214.019z"/>
	
		<path fill="none" stroke="#000000" stroke-width="4.252" stroke-linecap="round" stroke-linejoin="round" stroke-miterlimit="22.9256" d="
		M179.981,27.831c-2.576,1.277-6.879,2.306-10.528,2.582c-5.155,0.391-7.575,2.504-8.197,5.615l-1.554-2.096
		c-2.34-2.136-5.56-2.574-9.18-2.242c-1.435,3.34-2.013,6.538-0.706,9.423l1.381,1.94c-3.082-0.345-5.787,1.297-7.738,6.009
		c-1.4,3.38-3.907,7.343-5.923,9.391c0.41,2.845,0.081,7.522-0.794,11.075c-1.295,5.257,0.139,8.244,3.177,9.726l-2.416,0.868
		c-2.72,1.624-4.07,4.58-4.798,8.141c2.783,2.339,5.677,3.816,8.818,3.397l1.632-0.551c-0.917,2.664-0.039,5.563,3.548,8.681
		c2.761,2.4,5.724,6.035,7.026,8.597c2.828,0.513,7.159,2.309,10.25,4.267c4.498,2.848,7.721,2.495,10.032,0.181l0.018,1.826
		c0.639,3.104,2.985,5.35,6.109,7.209 M180.298,27.831c2.573,1.277,6.878,2.306,10.526,2.582c5.154,0.391,7.574,2.505,8.196,5.615
		l1.554-2.096c2.341-2.136,5.561-2.574,9.181-2.242c1.435,3.34,2.013,6.538,0.705,9.423l-1.381,1.94
		c3.081-0.345,5.786,1.297,7.738,6.009c1.4,3.38,3.906,7.343,5.923,9.391c-0.41,2.845-0.081,7.522,0.794,11.075
		c1.296,5.257-0.139,8.244-3.177,9.726l2.416,0.868c2.721,1.624,4.07,4.58,4.798,8.141c-2.783,2.339-5.677,3.816-8.817,3.397
		l-1.633-0.551c0.917,2.664,0.039,5.563-3.548,8.681c-2.761,2.4-5.724,6.035-7.025,8.597c-2.828,0.513-7.159,2.309-10.251,4.267
		c-4.498,2.848-7.721,2.495-10.032,0.181l-0.018,1.826c-0.639,3.104-2.985,5.35-6.108,7.209"/>
	
		<path fill="none" stroke="#000000" stroke-width="1.8425" stroke-linecap="round" stroke-linejoin="round" stroke-miterlimit="22.9256" d="
		M137.895,135.865c2.537,4.378,4.745,8.888,6.514,14.417c1.153,3.604,3.571,5.137,5.566,7.147 M160.977,123.594
		c1.473,5.272,3.933,9.251,7.204,12.196c2.204,1.984,3.574,4.584,4.257,7.737 M167.596,129.16c-0.067,1.948,0.127,4.158,0.584,6.63
		 M166.793,134.425c-2.639,0.129-5.167,0.105-6.93-0.995 M171.661,131.515c0.119,2.66,0.206,5.314-0.732,7.798
		c-2.103,0.593-4.685,0.584-7.486,0.302 M149.704,147.794c-0.315,1.804-1.155,4.132-2.519,6.986
		c-3.591-0.597-6.99-1.692-9.708-4.564 M146.569,142.348c-0.16,1.574-0.086,3.147-1.178,4.721c-0.572,0.825-0.766,2.03-0.982,3.213
		 M143.747,148.317c-2.26-0.544-4.06-1.703-5.794-2.949"/>
	
		<path fill-rule="evenodd" clip-rule="evenodd" fill="#E30613" stroke="#000000" stroke-width="1.8425" stroke-linecap="round" stroke-linejoin="round" stroke-miterlimit="22.9256" d="
		M59.589,84.972c3.628,0.233,6.741,1.167,8.721,3.64l11.953,22.843l1.238,18.108l-12.565-12.32L57.429,94.171
		C56.585,91.117,57.653,88.048,59.589,84.972L59.589,84.972z"/>
	
		<path fill-rule="evenodd" clip-rule="evenodd" fill="#E30613" stroke="#000000" stroke-width="1.8425" stroke-linecap="round" stroke-linejoin="round" stroke-miterlimit="22.9256" d="
		M32.566,138.152c2.327,2.792,4.917,4.756,8.082,4.898l25.498-3.812l15.356-9.676l-17.359-2.886l-25.419,4.307
		C35.759,132.102,33.909,134.773,32.566,138.152L32.566,138.152z"/>
	
		<path fill-rule="evenodd" clip-rule="evenodd" fill="#E30613" stroke="#000000" stroke-width="1.8425" stroke-linecap="round" stroke-linejoin="round" stroke-miterlimit="22.9256" d="
		M117.964,94.975c0.825,3.541,0.83,6.79-0.965,9.4l-18.416,18.042l-17.146,7.274l8.333-16.447l18.763-17.681
		C111.213,93.874,114.459,94.009,117.964,94.975L117.964,94.975z"/>
	
		<path fill-rule="evenodd" clip-rule="evenodd" fill="#E30613" stroke="#000000" stroke-width="1.8425" stroke-linecap="round" stroke-linejoin="round" stroke-miterlimit="22.9256" d="
		M74.93,179.664c3.346-1.421,5.974-3.333,7.023-6.322l3.716-25.512l-4.233-18.138l-8.372,16.427l-3.219,25.58
		C70.061,174.859,72.084,177.402,74.93,179.664L74.93,179.664z"/>
	
		<path fill-rule="evenodd" clip-rule="evenodd" fill="#E30613" stroke="#000000" stroke-width="1.8425" stroke-linecap="round" stroke-linejoin="round" stroke-miterlimit="22.9256" d="
		M126.378,152.601c-0.242-3.627-1.182-6.738-3.659-8.713l-22.87-11.902l-18.364-2.197l12.602,13.538l23.096,11.455
		C120.239,155.618,123.306,154.544,126.378,152.601L126.378,152.601z"/>
	
		<path fill-rule="evenodd" clip-rule="evenodd" fill="#E30613" stroke="#000000" stroke-width="1.8425" stroke-linecap="round" stroke-linejoin="round" stroke-miterlimit="22.9256" d="
		M82.438,130.18c-5.573-10.29-21.618-46.899-32.678-28.685c-1.899,3.127-4.98,6.661-7.285,8.378
		c-0.028,2.875-1.066,7.446-2.473,10.824C31.813,140.368,70.841,131.745,82.438,130.18L82.438,130.18z"/>
	
		<path fill="none" stroke="#000000" stroke-width="1.8425" stroke-linecap="round" stroke-linejoin="round" stroke-miterlimit="22.9256" d="
		M59.218,103.337c-1.201-1.098-3.343-0.776-6.454,3.522c-1.466,2.025-1.797,3.727-1.971,5.217c-0.22,1.895-0.472,2.392-1.874,3.687
		c-1.102,1.018-2.28,2.289-3.052,4.667c-1.638,5.047-0.635,6.967,0.96,7.289"/>
	
		<path fill-rule="evenodd" clip-rule="evenodd" fill="#E30613" stroke="#000000" stroke-width="1.8425" stroke-linecap="round" stroke-linejoin="round" stroke-miterlimit="22.9256" d="
		M82.3,130.216c-11.515,2.086-51.302,5.913-37.446,22.102c2.379,2.78,4.776,6.809,5.688,9.535c2.722,0.923,6.742,3.335,9.513,5.725
		C76.192,181.495,80.17,141.723,82.3,130.216L82.3,130.216z"/>
	
		<path fill-rule="evenodd" clip-rule="evenodd" fill="#E30613" stroke="#000000" stroke-width="1.8425" stroke-linecap="round" stroke-linejoin="round" stroke-miterlimit="22.9256" d="
		M82.469,129.883c-1.676,11.582-10.67,50.527,9.079,42.523c3.391-1.374,7.973-2.369,10.847-2.369
		c1.739-2.289,5.302-5.336,8.447-7.205C129.16,151.945,92.706,135.553,82.469,129.883L82.469,129.883z"/>
	
		<path fill-rule="evenodd" clip-rule="evenodd" fill="#E30613" stroke="#000000" stroke-width="1.8425" stroke-linecap="round" stroke-linejoin="round" stroke-miterlimit="22.9256" d="
		M82.421,130.264c-5.104-10.531-25.469-44.923-4.224-43.276c3.648,0.283,8.315-0.157,11.055-1.026
		c2.351,1.655,6.669,3.48,10.232,4.309C120.239,95.099,90.46,121.759,82.421,130.264L82.421,130.264z"/>
	
		<path fill-rule="evenodd" clip-rule="evenodd" fill="#E30613" stroke="#000000" stroke-width="1.8425" stroke-linecap="round" stroke-linejoin="round" stroke-miterlimit="22.9256" d="
		M82.176,129.756c8.555-7.984,35.405-37.593,40.102-16.808c0.807,3.569,2.604,7.899,4.244,10.26
		c-0.887,2.734-1.356,7.398-1.097,11.048C126.936,155.511,92.674,134.927,82.176,129.756L82.176,129.756z"/>
	
		<path fill="none" stroke="#000000" stroke-width="1.8425" stroke-linecap="round" stroke-linejoin="round" stroke-miterlimit="22.9256" d="
		M49.369,143.9c-1.409,0.813-1.749,2.952,1.409,7.215c1.488,2.009,3.01,2.839,4.378,3.454c1.741,0.782,2.138,1.173,2.949,2.899
		c0.639,1.358,1.494,2.865,3.528,4.319c4.317,3.085,6.45,2.709,7.239,1.286 M74.083,95.263c-0.174-1.618,1.354-3.153,6.659-3.116
		c2.5,0.018,4.067,0.757,5.371,1.5c1.658,0.944,2.207,1.035,4.081,0.673c1.473-0.285,3.195-0.482,5.568,0.303
		c5.037,1.668,5.991,3.613,5.306,5.089 M85.047,165.396c0.292,1.601,2.193,2.639,7.269,1.097c2.393-0.727,3.686-1.882,4.725-2.964
		c1.321-1.376,1.822-1.619,3.721-1.804c1.493-0.145,3.2-0.445,5.253-1.873c4.356-3.029,4.718-5.165,3.643-6.386 M112.727,110.923
		c1.465-0.708,3.425,0.215,5.172,5.226c0.823,2.361,0.653,4.085,0.391,5.563c-0.333,1.878-0.234,2.427,0.737,4.069
		c0.763,1.292,1.528,2.847,1.584,5.347c0.121,5.304-1.39,6.855-3.011,6.707"/>
	
		<path fill-rule="evenodd" clip-rule="evenodd" stroke="#000000" stroke-width="1.8425" stroke-linecap="round" stroke-linejoin="round" stroke-miterlimit="22.9256" d="
		M96.583,128.056c-6.804-2.226-9.94-6.438-11.521-11.748c-4.457,6.362-10.175,7.532-16.247,7.248
		c3.81,4.737,6.236,10.045,3.725,17.396c5.264-1.896,10.537-2.069,16.397,2.152C88.748,135.338,91.527,131.43,96.583,128.056
		L96.583,128.056z"/>
	
		<path fill-rule="evenodd" clip-rule="evenodd" fill="#E30613" stroke="#000000" stroke-width="1.8425" stroke-linecap="round" stroke-linejoin="round" stroke-miterlimit="22.9256" d="
		M74.708,126.522c-2.195,4.319-0.472,9.602,3.847,11.796c4.319,2.195,9.602,0.472,11.797-3.847
		c2.194-4.319,0.472-9.602-3.847-11.797C82.185,120.48,76.902,122.203,74.708,126.522L74.708,126.522z"/>
	
		<path fill-rule="evenodd" clip-rule="evenodd" fill="#FFFFFF" stroke="#000000" stroke-width="1.8425" stroke-linecap="round" stroke-linejoin="round" stroke-miterlimit="22.9256" d="
		M255.628,214.019c-10.477-10.446-22.547-10.7-34.381-1.442c-1.277-2.656-3.395-3.53-4.846-3.213
		c-1.288,0.809-1.79,0.765-3.078,1.573c0.131,1.115,0.262,2.229,0.393,3.345c1.024,1.793,2.574,3.062,5.697,2.754
		c-1.693,2.32-2.791,5.903-1.244,10.819c2.371,7.536,14.416,6.825,15.063-1.901c0.376-5.079-5.982-7.982-8.317-2.492
		c-0.233,0.551-0.785,0.314-0.851-0.655c0.624-1.948,1-3.96,2.278-4.993c5.335-4.313,12.558-5.544,18.517-1.193
		c7.113,5.193,9.627,18.832,3.37,34.382c-5.079,10.548-10.603,20.74-15.564,31.344c-1.889,4.037-2.955,9.454-2.225,16.216
		c0.878,8.128,5.332,15.903,18.846,16.544c11.387,0.539,21.041-7.356,16.954-20.348c-2.37-7.535-14.415-6.825-15.062,1.901
		c-0.377,5.079,5.982,7.981,8.316,2.492c0.234-0.551,0.785-0.315,0.852,0.655c-6.522,18.813-32.789,4.073-20.892-15.494
		C249.439,267.465,273.846,232.184,255.628,214.019L255.628,214.019z"/>
	
		<path fill-rule="evenodd" clip-rule="evenodd" fill="#FFFFFF" stroke="#000000" stroke-width="1.8425" stroke-linecap="round" stroke-linejoin="round" stroke-miterlimit="22.9256" d="
		M180.144,197.823h45.573c-1.298,5.131-3.415,9.037-7.334,8.906c-10.219,13.1-4.309,31.297,1.834,44.788
		c18.933,41.588,7.831,65.957-12.049,96.649c2.325,1.34,4.05,3.718,4.453,8.382h4.452c3.718,1.527,5.452,5.621,6.549,10.477h-43.478
		V197.823L180.144,197.823z"/>
	
		<path fill-rule="evenodd" clip-rule="evenodd" fill="#E30613" stroke="#000000" stroke-width="1.8425" stroke-linecap="round" stroke-linejoin="round" stroke-miterlimit="22.9256" d="
		M104.658,214.019c10.477-10.446,22.546-10.7,34.381-1.442c1.277-2.656,3.394-3.53,4.846-3.213c1.288,0.809,1.79,0.765,3.078,1.573
		c-0.131,1.115-0.262,2.229-0.393,3.345c-1.024,1.793-2.574,3.062-5.697,2.754c1.694,2.32,2.791,5.903,1.244,10.819
		c-2.371,7.536-14.416,6.825-15.062-1.901c-0.376-5.079,5.982-7.982,8.317-2.492c0.234,0.551,0.785,0.314,0.851-0.655
		c-0.624-1.948-1-3.96-2.278-4.993c-5.335-4.313-12.558-5.544-18.517-1.193c-7.113,5.193-9.627,18.832-3.371,34.382
		c5.079,10.548,10.604,20.74,15.564,31.344c1.889,4.037,2.955,9.454,2.225,16.216c-0.878,8.128-5.332,15.903-18.845,16.544
		c-11.387,0.539-21.041-7.356-16.955-20.348c2.37-7.535,14.416-6.825,15.062,1.901c0.376,5.079-5.982,7.981-8.317,2.492
		c-0.234-0.551-0.785-0.315-0.851,0.655c6.522,18.813,32.789,4.073,20.892-15.494C110.848,267.465,86.44,232.184,104.658,214.019
		L104.658,214.019z"/>
	
		<path fill="none" stroke="#000000" stroke-width="1.8425" stroke-linecap="round" stroke-linejoin="round" stroke-miterlimit="22.9256" d="
		M180.144,206.729h38.619 M180.144,348.167h27.81 M180.144,356.549h32.329"/>
	
		<path fill-rule="evenodd" clip-rule="evenodd" fill="#E30613" stroke="#000000" stroke-width="1.8425" stroke-linecap="round" stroke-linejoin="round" stroke-miterlimit="22.9256" d="
		M180.144,197.823H134.57c1.298,5.131,3.416,9.037,7.334,8.906c10.219,13.1,4.309,31.297-1.833,44.788
		c-18.933,41.588-7.831,65.957,12.048,96.649c-2.325,1.34-4.049,3.718-4.453,8.382h-4.453c-3.717,1.527-5.452,5.621-6.548,10.477
		h43.478V197.823L180.144,197.823z"/>
	
		<path fill="none" stroke="#000000" stroke-width="1.8425" stroke-linecap="round" stroke-linejoin="round" stroke-miterlimit="22.9256" d="
		M180.144,206.729h-38.619 M180.144,348.167h-27.811 M180.144,356.549h-32.329"/>
	
		<path fill-rule="evenodd" clip-rule="evenodd" fill="#FFFFFF" stroke="#000000" stroke-width="1.8425" stroke-linecap="round" stroke-linejoin="round" stroke-miterlimit="22.9256" d="
		M209.755,31.69c1.435,3.34,2.013,6.538,0.705,9.423l-14.949,21.004l-13.894,8.298l-0.924-1.413l4.526-14.362l15.354-20.71
		C202.916,31.796,206.135,31.357,209.755,31.69L209.755,31.69z"/>
	
		<path fill-rule="evenodd" clip-rule="evenodd" fill="#FFFFFF" stroke="#000000" stroke-width="1.8425" stroke-linecap="round" stroke-linejoin="round" stroke-miterlimit="22.9256" d="
		M227.572,88.263c-2.783,2.339-5.677,3.816-8.817,3.397l-24.428-8.244l-12.006-10.101l0.379-1.894l15.812-0.018l24.263,8.718
		C225.495,81.745,226.844,84.701,227.572,88.263L227.572,88.263z"/>
	
		<path fill-rule="evenodd" clip-rule="evenodd" fill="#FFFFFF" stroke="#000000" stroke-width="1.8425" stroke-linecap="round" stroke-linejoin="round" stroke-miterlimit="22.9256" d="
		M180.14,121.869l0.159-50.444l6.2,17.455l-0.251,25.78C185.609,117.764,183.262,120.01,180.14,121.869L180.14,121.869z"/>
	
		<path fill-rule="evenodd" clip-rule="evenodd" fill="#FFFFFF" stroke="#000000" stroke-width="1.8425" stroke-linecap="round" stroke-linejoin="round" stroke-miterlimit="22.9256" d="
		M180.298,72.482V27.831c2.573,1.277,6.878,2.306,10.526,2.582C212.073,32.022,186.946,62.853,180.298,72.482L180.298,72.482z"/>
	
		<path fill="none" stroke="#000000" stroke-width="1.8425" stroke-linecap="round" stroke-linejoin="round" stroke-miterlimit="22.9256" d="
		M180.268,36.624c0.585,0,1.224-0.166,2.12-0.496c1.406-0.521,3.073-0.996,5.543-0.606c5.241,0.826,6.499,2.59,6.063,4.158"/>
	
		<path fill-rule="evenodd" clip-rule="evenodd" fill="#FFFFFF" stroke="#000000" stroke-width="1.8425" stroke-linecap="round" stroke-linejoin="round" stroke-miterlimit="22.9256" d="
		M180.298,72.482c7.074-9.321,28.364-43.105,36.52-23.42c1.4,3.38,3.906,7.343,5.923,9.391c-0.41,2.845-0.081,7.522,0.794,11.075
		C228.632,90.218,191.52,75.796,180.298,72.482L180.298,72.482z"/>
	
		<path fill-rule="evenodd" clip-rule="evenodd" fill="#FFFFFF" stroke="#000000" stroke-width="1.8425" stroke-linecap="round" stroke-linejoin="round" stroke-miterlimit="22.9256" d="
		M180.298,72.482c11.082,3.753,49.356,13.327,33.275,27.308c-2.761,2.4-5.724,6.035-7.025,8.597
		c-2.828,0.513-7.159,2.309-10.251,4.267C178.296,124.052,180.715,84.177,180.298,72.482L180.298,72.482z"/>
	
		<path fill="none" stroke="#000000" stroke-width="1.8425" stroke-linecap="round" stroke-linejoin="round" stroke-miterlimit="22.9256" d="
		M207.267,49.274c1.363-0.889,3.425-0.223,5.795,4.524c1.117,2.237,1.167,3.97,1.096,5.468c-0.091,1.906,0.077,2.437,1.249,3.943
		c0.921,1.184,1.877,2.63,2.252,5.102c0.795,5.246-0.507,6.977-2.133,7.036 M210.269,90.818c1.294,0.986,1.359,3.151-2.316,6.978
		c-1.731,1.803-3.347,2.433-4.781,2.869c-1.826,0.554-2.27,0.891-3.295,2.5c-0.806,1.266-1.846,2.652-4.049,3.835
		c-4.674,2.511-6.742,1.866-7.344,0.354"/>
	
		<path fill-rule="evenodd" clip-rule="evenodd" stroke="#000000" stroke-width="1.8425" stroke-linecap="round" stroke-linejoin="round" stroke-miterlimit="22.9256" d="
		M180.323,57.394c2.495,5.542,6.129,10.111,13.819,11.202c-4.075,3.834-6.618,8.457-5.509,15.593
		c-3.099-1.671-5.884-2.441-8.367-2.505L180.323,57.394L180.323,57.394z"/>
	
		<path fill-rule="evenodd" clip-rule="evenodd" fill="#FFFFFF" stroke="#000000" stroke-width="1.8425" stroke-linecap="round" stroke-linejoin="round" stroke-miterlimit="22.9256" d="
		M180.298,63.991c4.843,0,8.772,3.929,8.772,8.773c0,4.845-3.93,8.774-8.772,8.774V63.991L180.298,63.991z"/>
	
		<path fill-rule="evenodd" clip-rule="evenodd" fill="#E30613" stroke="#000000" stroke-width="1.8425" stroke-linecap="round" stroke-linejoin="round" stroke-miterlimit="22.9256" d="
		M150.523,31.69c-1.435,3.34-2.013,6.538-0.706,9.423l14.95,21.004l13.893,8.298l0.925-1.413l-4.528-14.362l-15.354-20.71
		C157.363,31.796,154.143,31.357,150.523,31.69L150.523,31.69z"/>
	
		<path fill-rule="evenodd" clip-rule="evenodd" fill="#E30613" stroke="#000000" stroke-width="1.8425" stroke-linecap="round" stroke-linejoin="round" stroke-miterlimit="22.9256" d="
		M132.706,88.263c2.783,2.339,5.677,3.816,8.818,3.397l24.428-8.244l12.005-10.101l-0.378-1.894l-15.812-0.018l-24.263,8.718
		C134.784,81.745,133.434,84.701,132.706,88.263L132.706,88.263z"/>
	
		<path fill-rule="evenodd" clip-rule="evenodd" fill="#E30613" stroke="#000000" stroke-width="1.8425" stroke-linecap="round" stroke-linejoin="round" stroke-miterlimit="22.9256" d="
		M180.14,121.869l-0.158-50.444L173.78,88.88l0.25,25.78C174.669,117.764,177.016,120.01,180.14,121.869L180.14,121.869z"/>
	
		<path fill-rule="evenodd" clip-rule="evenodd" fill="#E30613" stroke="#000000" stroke-width="1.8425" stroke-linecap="round" stroke-linejoin="round" stroke-miterlimit="22.9256" d="
		M179.981,72.482V27.831c-2.576,1.277-6.879,2.306-10.528,2.582C148.206,32.022,173.332,62.853,179.981,72.482L179.981,72.482z"/>
	
		<path fill="none" stroke="#000000" stroke-width="1.8425" stroke-linecap="round" stroke-linejoin="round" stroke-miterlimit="22.9256" d="
		M180.012,36.624c-0.586,0-1.226-0.166-2.121-0.496c-1.407-0.521-3.074-0.996-5.543-0.606c-5.241,0.826-6.499,2.59-6.063,4.158"/>
	
		<path fill-rule="evenodd" clip-rule="evenodd" fill="#E30613" stroke="#000000" stroke-width="1.8425" stroke-linecap="round" stroke-linejoin="round" stroke-miterlimit="22.9256" d="
		M179.981,72.482c-7.076-9.321-28.366-43.105-36.521-23.42c-1.4,3.38-3.907,7.343-5.923,9.391c0.41,2.845,0.081,7.522-0.794,11.075
		C131.646,90.218,168.758,75.796,179.981,72.482L179.981,72.482z"/>
	
		<path fill-rule="evenodd" clip-rule="evenodd" fill="#E30613" stroke="#000000" stroke-width="1.8425" stroke-linecap="round" stroke-linejoin="round" stroke-miterlimit="22.9256" d="
		M179.981,72.482c-11.084,3.753-49.358,13.327-33.277,27.308c2.761,2.4,5.724,6.035,7.026,8.597
		c2.828,0.513,7.159,2.309,10.25,4.267C181.982,124.052,179.563,84.177,179.981,72.482L179.981,72.482z"/>
	
		<path fill="none" stroke="#000000" stroke-width="1.8425" stroke-linecap="round" stroke-linejoin="round" stroke-miterlimit="22.9256" d="
		M153.011,49.274c-1.363-0.889-3.424-0.223-5.794,4.524c-1.117,2.237-1.167,3.97-1.096,5.468c0.091,1.906-0.077,2.437-1.249,3.943
		c-0.921,1.184-1.877,2.63-2.252,5.102c-0.795,5.246,0.507,6.977,2.133,7.036 M150.009,90.818c-1.294,0.986-1.359,3.151,2.316,6.978
		c1.731,1.803,3.346,2.433,4.782,2.869c1.826,0.554,2.27,0.891,3.294,2.5c0.806,1.266,1.846,2.652,4.049,3.835
		c4.674,2.511,6.742,1.866,7.343,0.354"/>
	
		<path fill-rule="evenodd" clip-rule="evenodd" stroke="#000000" stroke-width="1.8425" stroke-linecap="round" stroke-linejoin="round" stroke-miterlimit="22.9256" d="
		M179.957,57.394c-2.497,5.542-6.13,10.111-13.821,11.202c4.075,3.834,6.618,8.457,5.509,15.593
		c3.098-1.671,5.884-2.441,8.368-2.505L179.957,57.394L179.957,57.394z"/>
	
		<path fill-rule="evenodd" clip-rule="evenodd" fill="#E30613" stroke="#000000" stroke-width="1.8425" stroke-linecap="round" stroke-linejoin="round" stroke-miterlimit="22.9256" d="
		M179.981,63.991c-4.845,0-8.774,3.929-8.774,8.773c0,4.845,3.929,8.774,8.774,8.774V63.991L179.981,63.991z"/>
	
		<path fill="none" stroke="#000000" stroke-width="2.8347" stroke-linecap="round" stroke-linejoin="round" stroke-miterlimit="22.9256" d="
		M180.144,5.81H4.657l9.985,223.43c4.848,108.488,88.184,168.692,165.502,168.692V5.81L180.144,5.81z"/>
	
		<path fill="none" stroke="#000000" stroke-width="8.5039" stroke-linecap="round" stroke-linejoin="round" stroke-miterlimit="22.9256" d="
		M180.144,5.81H4.657l9.985,223.43c4.848,108.488,88.184,168.692,165.502,168.692c77.318,0,160.654-60.204,165.501-168.692
		l9.984-223.43H180.144L180.144,5.81z"/>
	
		<path fill="none" stroke="#000000" stroke-width="1.1339" stroke-linecap="round" stroke-linejoin="round" stroke-miterlimit="22.9256" d="
		M207.873,215.955c-3.064,11.609,1.593,25.022,6.391,35.563c17.454,38.339,9.383,62.045-7.56,89.561"/>
</g>
</svg>
