<?xml version="1.0" encoding="UTF-8"?>
<svg id="Vrstva_1" data-name="Vrstva 1" xmlns="http://www.w3.org/2000/svg" viewBox="0 0 219.98 120.7">
  <defs>
    <style>
      .cls-1 {
        fill: #cd9262;
      }

      .cls-2 {
        fill: #ebbf92;
      }

      .cls-3 {
        fill: #9f795d;
      }

      .cls-4 {
        fill: #673a21;
      }

      .cls-5 {
        fill: #f0d3ae;
      }

      .cls-6 {
        fill: #3b72b6;
      }

      .cls-7 {
        fill: #bf8678;
      }

      .cls-8 {
        fill: #81522e;
      }

      .cls-9 {
        fill: #e35c54;
      }

      .cls-10 {
        fill: #64140e;
      }

      .cls-11 {
        fill: #c8c3c3;
      }

      .cls-12 {
        fill: #5598d2;
      }

      .cls-13 {
        fill: #e8b888;
      }

      .cls-14 {
        fill: #8f5f39;
      }

      .cls-15 {
        fill: #967660;
      }

      .cls-16 {
        fill: #fcf6f1;
      }

      .cls-17 {
        fill: #c6443d;
      }
    </style>
  </defs>
  <g>
    <path class="cls-10" d="M180.43,101.29c-3.26.21-6.56-.07-9.7-1-.81-.24-2.7.8-3.41,1.15-1.07.54-2.07,1.22-2.96,2.03-1.8,1.64-3.11,3.74-3.94,6.02-.79,2.16-1.43,3.59-3.84,4.19-1.98.5-4.05.3-6.07.38-.03,0-.07,0-.1,0-1.9.09-3.86.25-5.77.2-1.32-.04-3.41-.71-3.95-2.03-.87-2.15,1.02-4.8,2.84-5.81.17-.09,2.5-.81,2.45-.54,1.52-8.2,6.35-15.73,13.86-19.65l-.08-3.81c-3.44-.14-6.91-.77-10.04-2.25-1.51,1.01-4.03.77-4.95-.95-1.02-.14-1.66-1.1-1.79-2.08-.82-.37-1.38-.95-1.76-1.77-1.02-.25-1.76-1.01-2-2.03-.73-.31-1.22-.77-1.64-1.43-3.2,2.03-7.27-2.13-4.49-5.01l-19.64-22.87-.2-.02-26.98,22.32c1.95,3.3-1.93,6.61-5.03,4.7-.35.72-1.02,1.43-1.84,1.52-.15,1-1.15,1.93-2.14,2.08-.04.77-.79,1.44-1.54,1.65-.32,1.07-1.18,2.05-2.35,2.17-1.08,1.85-3.75,1.41-5.31.44-3.87,1.52-8.29,2.4-12.39,1.73.35,1.57.08,3.5-.33,5.06.07-.27,5.21,2.76,5.66,3.1,1.61,1.26,3.01,2.78,4.11,4.51,1.1,1.73,1.9,3.65,2.4,5.64.47,1.88,1.32,5,.58,6.85,1.63-1.03,4.26,2.33,4.6,3.61,1.16,4.45-3.34,5.24-6.6,4.67-.76.04-.97.15-1.71-.05-1.98-.35-4.03-.08-6.02-.3-1.64-.28-3.18-1.22-4.12-2.4-.41-.83-.36-1.83-.57-2.72-.35-1.51-.93-2.97-1.8-4.26-.84-1.23-1.93-2.26-3.21-3.03-.93-.56-3.36-1.94-4.49-1.62-2.94.84-6.04,1.09-9.08.81-3.9,2.94-7.98,5.86-11.88,8.93-1.51,1.3-2.1,3.39-3.99,4.28-2.93,1.03-6.52.43-8.94-1.68-.88-1.04-.89-2.89-.4-4.1.57-1.41.55-2.98,1.13-4.41.61-1.5,1.46-2.89,2.41-4.2,1.96-2.7,4.34-5.07,6.47-7.64-.46-3.26-.38-6.26.02-9.51.95-7.74,2.67-15.23,4.77-22.87-10.08-6.45-10.87-19.91-4.88-29.69,3.18-5.18,7.96-8.96,13.78-10.67,2.44-1.47,4.25-3.41,5.99-5.57.62-.6,1.34-.95,2.21-.8,1.46.26,1.89,2.5,1.74,4.48,2.09-1.25,5.34-2.97,6.69-1.77.95.84.48,2.68-.39,4.23,10.82,3.37,17.28,14.68,16.1,25.8-.7,6.57-4.51,12.08-10.25,15.3,5.99,2.2,12.06,3.01,18.3,2.19-.91-1.73-.48-3.03.72-4.11,1.22-1.09,2.79-1.39,4.19-.07l28.06-23.44-1.79-2.24c-1.34-2.54,0-4.95,2.07-6.58,1.76-1.38,4.1-2.21,6.01-.58l2.56,3.04c1.89.03,3.6.9,4.62,2.32,1.3,1.56,1.58,3.38,1.02,5.38l20.1,23.81c1.72-1.08,3.13-.56,4.13.77.79,1.05,1.09,2.14.32,3.51,5.36.18,10.39-.42,15.14-2.61-6.76-3.9-10.25-10.8-9.68-18.38.66-8.84,5.73-16.87,13.83-20.66-.61-1.76.47-3.33,2.15-4,1.71-.68,3.54-.03,5.08,1.07l4.93-4.57c.53-.49,1.37-.57,2.02-.33,1.43.53,1.35,3.25.59,5.17,13.22,1.56,22.27,13.58,20.53,26.68-.81,6.12-3.97,11.69-9.52,14.76,2.56,9.76,4.77,20.03,3.72,30.06,0,0,6.92,3.89,6.92,3.9,1.65.99,3.27,2.63,4.68,5.17.66,1.2,2.05,4.1,1.74,7.69-.1,1.14-.22,2.29-1.05,3.38-1.15,1.51-2.89,1.87-4.01,2.1-.92.19-3.83.8-5.8-.79-1.22-.98-.9-1.85-1.88-3.45-1.36-2.23-3.24-2.65-8.24-5.05-1.56-.75-3.88-1.91-6.69-3.5Z"/>
    <g>
      <g>
        <path class="cls-2" d="M197.09,94.8c1.72.66,3.37,1.71,4.89,2.86s2.64,2.72,3.33,4.38c.44,1.4.54,2.76.3,4.1l-1.1-.05-1.36.59c-1.09-.44-2.17-.18-3.01.62-1.06-.28-2.04-.15-2.88.41-.65-.03-.7-1.01-.61-1.51-2.61-1.16-5.19-2.42-7.63-3.9-1.85-1.12-3.11-2.35-2.99-4.62-6.91,1.56-14.18.78-20.66-2.01.12,1.28-.27,2.44-1.16,3.36-3.29,2.39-4.97,5.86-6.58,9.41-.64,1.11-1.36,2.08-2.65,2.47-.6.18-1.62.48-1.94-.15.03-1.54-.9-3.38-2.65-3.79-.65-.15-1.69-.38-2.12-.75l-.32-.24c1.59-6.68,5.42-12.93,11.21-16.88.18-.58,1.13-1.33,1.48-.76l1.48,1.39-.4-3.22c-.12-.96.1-1.8-.19-2.65l.66-.31c5.73.46,11.14-1.95,15.14-5.94-.14-.21-.07-.43.2-.66-8.33,2.24-18.07,4.51-26.48,1.46-.14-.05-.26-.15-.38-.26s-.24-.24-.34-.38c-.17-.5-.65-1.18-1.07-1.61l.48-.65-1.44-.15c.16-.7-.21-1.4-.33-2l.45-.53c-.07-.2-.25-.23-.37-.23h-.76s.11-1.64.11-1.64c.87-.86,2.56-.95,3.81-.94,7.52.64,15.67-.37,22.26-4.11l.03-.25.49-.45c2.67-.69,6.09-.49,8.76.1,1.77.17,3.52.07,5.27-.29,1.01-.12,1.93-.02,2.24,1.12,1.44,5.26,2.34,12.35,2.3,17.8-.02,2.82-.29,5.65-1.07,8.37,1.83.87,3.7,1.7,5.62,2.49Z"/>
        <path class="cls-1" d="M197.25,107.72l-1,1.14c-.98-1.31-2.25-2.01-3.63-2.77l-10.18-5.64c.8-.33,1.67-.22,2.06-1.12-6.01.69-11.72.37-17.52-1.9.08.94,1.01,1.2,1.69,1.67-5.07,1.59-8.58,5.47-10.06,10.45-.43,1.44-1.24,2.52-2.85,2.61l-2.78.16.03-1.59c5.77.25,3.66-6.2,10.52-11.65,1.28-1.02,1.69-2.46,1.33-4.09,6.75,3.15,14.29,3.91,21.58,2.2-.29,1.69.33,3.13,1.72,4.1,2.69,1.87,5.71,3.15,8.72,4.67.08.59.14,1.18.35,1.73Z"/>
        <path class="cls-1" d="M161.51,83.85c-.17-.5-.05-1.19.04-1.81,5.02-.05,11.75-1.2,15.74-4.57l-9.2,2.59c-5.66,1.07-11.48.99-16.85-1.05-.37-.14-.68-.28-.84-.46-.22-.25-.01-.6-.08-.79,9.47,3.39,18.5,1.16,28.18-1.48l-1.52,1.97c-3.89,4.14-9.89,6.24-15.46,5.6Z"/>
        <path class="cls-13" d="M158.91,68.43l-7.03.02c-1.36,0-2.59.06-3.89.45.32-.87.24-1.6-.02-2.34.16-.31.48-.46.96-.44,3.28.05,6.54-.46,9.66-1.54.72-.34,1.15.05,1.5.69.58,1.03,0,2.81-1.18,3.16Z"/>
        <path class="cls-5" d="M173.46,65.91c-.02.34-.36.56-.75.75-6.13,3.08-12.83,4.21-19.72,3.76-2-.13-3.78-.2-5.6.53,0-.12-.31-.3-.18-.36,1.34-.6,2.64-1.04,4.14-.89,7.68.77,15.14-.73,22.11-3.8Z"/>
        <path class="cls-5" d="M160.5,88.68c-.18.1-.43.25-.72.43-3.9,2.44-6.07,5.52-7.23,7.2-2.75,3.98-3.74,7.57-4,8.62-.14.53-.23.98-.3,1.3-.12-.1-.67,0-.57-.42,1.81-7.48,5.59-13.84,12.33-17.68.21-.12.65.07.6.21l-.11.34Z"/>
        <path class="cls-1" d="M158.91,68.43c.52-.98,1.26-1.2.94-2.75-.1-.49-.68-1.05-1.26-1.1-.13.06-.23.06-.29-.02l4.45-1.59-1.22,5.13-2.61.33Z"/>
        <path class="cls-16" d="M202.98,108.02c1.11,1.22,1.29,3.86.14,4.56-.42.26-.92.32-1.49.06.37-1.55.13-3.05-.8-4.35.53-.66,1.6-.86,2.15-.26Z"/>
        <path class="cls-16" d="M200.48,112.16c-1.48,1.35-2.72-1.07-3.22-2.31.11-1.03,1.58-1.9,2.4-1.28,1.08.82,1.21,2.51.83,3.6Z"/>
        <path class="cls-13" d="M169.68,66.22l-6.56,1.65.51-2.69c2.05.47,4.02.92,6.04,1.05Z"/>
        <path class="cls-16" d="M205.01,111.22c0-1.34-.33-2.45-1.07-3.53.57-.46,1.15-.48,1.67-.18.91.51,1.26,2.17.77,3.04-.18.32-.6.69-1.37.67Z"/>
        <path class="cls-5" d="M158.29,64.57c.07.06.22.01.29.02-2.91,1.32-5.98,1.8-9.24,1.7-.44-.01-.99.47-1.37.28-.07-.19-.37-.33-.37-.71,3.69.24,7.25-.29,10.69-1.29Z"/>
        <path class="cls-1" d="M204.51,106.1l.84-.14c.17-1.37-.02-2.6-.04-3.92.58,1.4.99,2.85.97,4.51-.56-.4-1.18-.39-1.77-.45Z"/>
        <path class="cls-11" d="M200.48,112.16c-.09.26-.16.51-.33.61-1.16.65-3.04-1.59-2.89-2.92,1.21.79.86,2.86,3.22,2.31Z"/>
        <g>
          <path class="cls-16" d="M151.76,110.55c-.13,1.29-1.16,1.9-3.08,1.85l-.46.27h-.49s-.45-.12-.45-.12c-.35-.1-.57-.37-.6-.83-.1-1.69,1.11-3.65,2.95-3.65,1.33,0,1.96,1.44,2.12,2.49Z"/>
          <path class="cls-16" d="M145.65,112.51c-1.13.28-2.48.16-3.2-.78-.26-1.48.49-2.81,1.5-3.57,1.16-.87,2.66-1.08,4.08-.66-1.72,1.13-2.99,2.76-2.38,5.02Z"/>
          <path class="cls-5" d="M148.22,112.67c-.02-1.13,2.45.03,3.54-2.12.17.62.17,1.24-.14,1.88l-3.39.24Z"/>
          <path class="cls-5" d="M147.73,112.67l-.45-.13h.36c.07,0,.15.01.08.13Z"/>
        </g>
        <g>
          <path class="cls-1" d="M198.94,48.23c-1.09,5.9-4.73,10.87-10.31,13.35l-6.42,2.56c2.63.23,5.13-.58,7.62-1.7,2.47,9.78,4.79,19.88,3.49,29.95l3.76,2.41-1.71-.35-4.38-1.87c2.4-7.73.62-18.41-1.12-26.35-.45-2.05-3.71.31-7.96-.7-2.93-.7-5.6-.3-8.44.12l-3.81.57c-.86.11-1.68.15-2.54.07-1.12-.11-2.69-.37-3.5-1.11.11-.55.11-1.22.45-1.77,1.13.26,2.08.71,3.29.64-3.96-2.67-6.65-3.04-10.04-6.83,2.86,2.33,6.08,3.91,9.74,4.86,9.31,2.43,18.29,1.7,25.7-4.67,2.74-2.36,4.62-5.25,5.69-8.65.1-.31.18-.51.49-.52Z"/>
          <g>
            <path class="cls-2" d="M179.09,18.67c-.2,1.05-.7,2.06-1.13,3.18.64.31,1.05-.22,1.46-.18l.26.43c10.76,1.73,19.98,11.48,19.49,22.62l.16.39c-.1.91-.2,1.82-.3,2.72-.03.13-.07.25-.1.38-.96,2.72-1.86,5.05-3.82,7.34-4.91,5.71-12.28,8.37-19.69,8.15-6.38-.19-13.42-1.96-18.09-6.5-2.72-3.04-4.39-6.9-4.53-11.03.36-4.39,1.14-8.46,3.58-12.49,2.34-3.86,5.69-6.99,9.72-9.04,0,0,.04-.18.12-.55l1.87-.5c-.21-.78-.87-.71-1.37-.82-.16-.13-.24-.33-.22-.53.23-3.13,4.67-1.46,6.34-.53,1.77-1.49,3.52-3.04,5.24-4.64.8-.13,1.13.4,1.01,1.59Z"/>
            <path class="cls-5" d="M199.34,45.12c-.18-.02-.36-.23-.34-.39.3-2.4-.33-4.44-1.06-6.68-2.22-6.75-7.39-11.94-14.04-14.43-1.63-.61-3.11-1.22-4.89-1.17-.03-.47.25-.54.41-.79,11.88,1.04,20.68,11.59,19.91,23.45Z"/>
            <path class="cls-5" d="M166.24,24.1c.1.34.45.33.75.54-7.03,3.3-11.7,9.54-13.37,16.96-.52,2.3-.25,4.66-.81,4.57-.3-9.16,4.97-18.62,13.43-22.08Z"/>
            <path class="cls-5" d="M179.09,18.67c-.1-.74-.34-.98-.53-1.06-.77-.35-2.19,1.08-4.54,3.47-.45.46-.82.85-1.05,1.1-.29-.21-.73-.51-1.31-.78-.92-.43-2.43-1.13-3.64-.47-.8.44-1.15,1.31-1.3,1.87-.4-.09-.42-.8-.25-1.18.67-1.49,2.4-1.97,3.81-1.26l2.57,1.3,5.2-4.97c.22-.21.8-.35.95-.08.38.67.19,1.46.07,2.08Z"/>
            <g>
              <path class="cls-15" d="M191.75,50.11c-.84,3.86-2.94,7.62-6.57,9.39-1.04-3.06-3.54-5.17-6.43-6.54-2.74-1.3-4.34-3.77-3.67-6.66s3.08-4.68,6.12-4.49c4.72.3,8.42,4.18,10.55,8.29Z"/>
              <path class="cls-10" d="M184.09,49.53c-.61,1.14-2.44-2.27-5.66-1.11-.42.15-.83.24-1.05-.18-.16-.32.05-.77.45-1.03,2.1-1.4,5.01-.54,6.31,1.64.14.24.02.55-.05.69Z"/>
            </g>
            <g>
              <path class="cls-15" d="M156.75,53.92c-2.23-3.15-3.19-7.23-2.31-11,1.56-1.78,3.36-3.31,5.73-3.65,1.7-.26,3.37.23,4.46,1.34s1.55,2.79,1.32,4.41c-.36,2.56-2,4.41-4.49,5-2.09.5-3.75,1.9-4.71,3.9Z"/>
              <path class="cls-10" d="M163.67,46.18c-.66.91-2-1.92-4.83-.27-.23.14-.53.08-.67,0-.21-.1-.38-.55-.17-.83.65-.9,1.8-1.34,2.87-1.37,1.76-.05,3.38,1.68,2.8,2.47Z"/>
            </g>
            <path class="cls-16" d="M191.75,50.11l-.56-.25c-1.94-4.91-10.89-11.18-14.89-5.43-2.02,2.9-.92,6.09,1.94,7.85,2.32.97,6.65,4.02,7.1,6.61.04.22-.07.43-.17.61l-2.74,1.33c-6.48,2.1-13.66,1.65-19.68-1.51-2.56-1.35-4.46-3.21-6.01-5.4-.3-.99.99-2.23,1.77-2.86,1.06-.86,2.24-1.27,3.55-1.6,3.01-1.23,4.65-4.93,2.9-7.81-2.32-3.79-7.77-1.75-9.97,1.21l-.56.07c.79-6.59,6.18-12.75,12.79-10.98,2.19.59,4.29,2.26,5.58,4.63,5.73-4.76,13.85-3.12,17.62,3.07,1.94,3.19,2.09,6.91,1.32,10.46Z"/>
          </g>
        </g>
      </g>
      <g>
        <g>
          <g>
            <path class="cls-12" d="M120.03,33.04l.04.41c-12.11,9.82-24.24,19.63-36.38,29.42l-.41-.14c-.96-1.27-2.11-2.3-3.36-3.29l34.34-28.51c1.12-.93,2.38-1,3.56-.3,1.01.59,1.74,1.36,2.2,2.41Z"/>
            <path class="cls-6" d="M83.28,62.73l36.75-29.69c1.27,2.89-.42,3.79-2.25,5.3l-32.66,26.83-1.84-2.43Z"/>
          </g>
          <g>
            <path class="cls-9" d="M136.7,64.13l-.39.12-18.19-21.24c-.5-1.91.92-3.15,2.47-3.92.31-.36.62-.49.93-.4l18.87,22.32-3.7,3.12Z"/>
            <path class="cls-17" d="M121.52,38.69c-.41.6-1,.87-1.56,1.2-1.08.65-1.78,1.65-1.51,2.97l14.98,17.47,3.27,3.81-2.38,2.01-19.89-23.53,6.07-5.13,1.02,1.21Z"/>
          </g>
          <path class="cls-9" d="M110.26,32.56c-.12.08-.32.18-.39.11-.59-.57-2.73-3.11-3.08-3.75l.12-.44c1.37-1.54,3.55-2.99,5.15-1.88,1.03.71,1.72,1.9,2.4,2.77l-4.2,3.2Z"/>
          <path class="cls-17" d="M110.26,32.56l-2.29,1.8c-.63-.72-1.54-1.44-1.88-2.32-.5-1.31.02-2.68.81-3.56l3.36,4.09Z"/>
          <path class="cls-16" d="M141.88,73.86c-.79-.03-1.21-.74-1.11-1.52.18-1.44,1.32-2.73,2.72-3.12.51-.14,1.04.1,1.15.46.37,1.26-2.07,1.27-2.76,4.17Z"/>
          <path class="cls-16" d="M79.04,71.04c-.54-3.14-2.97-3.16-2.2-4.5.5-.89,2.52.27,2.98,1.85.28.95.31,1.91-.78,2.65Z"/>
          <path class="cls-16" d="M76.36,65.01c-.35,1.36-2.17-.15-4.04,1.86-.39-.27-.47-.83-.25-1.31.61-1.33,2.18-1.96,3.56-1.5.45.15.81.63.73.95Z"/>
          <path class="cls-16" d="M76.97,72c-1.05-2.12-3.66-2.96-2.49-3.73,1.45-.96,3.4,1.28,3.41,3,0,.28-.57.52-.92.73Z"/>
          <path class="cls-16" d="M75.14,74.74c-.4-1.32-1.17-2.25-2.33-2.81-.12-.66-.15-1.28-.03-1.94,1.65.44,2.8,1.72,3.02,3.39.01.5.06.97-.66,1.36Z"/>
          <path class="cls-16" d="M140.17,70.61c-.26.24-.59.44-.79.4-.3-.06-.5-.42-.45-.84.17-1.53,1.47-2.74,3.02-2.74.28,0,.52.31.59.47s0,.53-.2.71l-2.17,2.01Z"/>
          <path class="cls-16" d="M73.13,76.88c-.35-1.07-.93-1.77-1.87-2.28.44-.59.54-1.18.75-1.91,1.31.42,2.19,1.62,2.15,2.98-.02.57-.3,1.03-1.02,1.21Z"/>
          <path class="cls-16" d="M145.39,77.74c-.58-.12-.9-.54-.92-1.11.05-1.39.98-2.57,2.37-2.82.52.61.6,1.45.2,2.08-.77.41-1.26.96-1.65,1.85Z"/>
          <path class="cls-16" d="M146.89,68.54c-1.71-1.69-3.04-.87-3.55-1.67-.17-.26-.33-.67.03-.97.77-.63,1.78-.46,2.55.05s1.42,1.4.96,2.58Z"/>
          <path class="cls-16" d="M144.17,74.45c-.16.39-1.12.51-1.11.16.02-1.8,1.48-3.15,3.15-3.48.36,2.51-1.48,1.94-2.04,3.32Z"/>
          <path class="cls-16" d="M149.08,78.55c-.85.66-1.98.76-2.77.1-.06-1,.71-1.83,1.66-2.11.75.36,1.22,1.11,1.11,2Z"/>
          <path class="cls-16" d="M71.98,77.69c-1.03.16-2.03.07-2.92-.44.31-.8.87-1.26,1.46-1.78.97.26,1.64,1.03,1.46,2.22Z"/>
          <g>
            <path class="cls-8" d="M144.27,62.3c-2.21,1.28-4.39,2.69-6.31,4.4-.51.44-1.67-.53-1.38-1.12l1.94-1.76c1.04-.34,2.05-.9,3.02-1.68.84-.63,2.59-1.29,2.74.16Z"/>
            <path class="cls-4" d="M136.58,65.58c.42.43.81.84,1.38,1.12-1.25,1.12-2.29,2.28-3.09,3.8-.36-.26-1.31-1.04-1.03-1.64.6-1.28,1.73-2.36,2.74-3.28Z"/>
            <path class="cls-3" d="M144.27,62.3c-.93-1.32-3.03.26-4.62,1.39-.35.25-.89.5-1.13.12l3.89-2.55c.41-.27.99-.34,1.44-.12.27.13.56.45.78.94-.08,0-.37-.03-.35.22Z"/>
          </g>
          <g>
            <path class="cls-14" d="M81.1,62.4c.76.29,1.15,1.17,1.65,1.76.24.36.22.45-.12.66-.67.4-1.26.03-1.75-.46-1.43-1.61-3.08-2.95-4.9-4.14.07-1.48,2.11-.54,2.86.17l2.25,2.01Z"/>
            <path class="cls-4" d="M80.88,64.36c.65.19,1.53.52,1.87-.2.93,1.09,1.67,2.34,2.36,3.66.21.73-.07,1.43-.84,1.62l-3.39-5.08Z"/>
            <path class="cls-3" d="M81.1,62.4c-1.61-.61-3.28-3.74-5.11-2.18-.07-.08-.28-.14-.44-.17-.46-.09.82-1.3,1.61-.96,1.58.69,2.91,2,3.95,3.31Z"/>
          </g>
        </g>
        <g>
          <path class="cls-13" d="M44.31,63.03c6.84,4.67,15.7,6.05,23.92,5.73.72.06,2.8.38,3.24.82.06.06.02,1.62-.21,1.76l-.52.15c-.2.06.23.44.24.61.04.61-.35,1.28-.51,1.88-.49.17-.83.14-1.41.19l.41.79-1.28,1.39-.77.63c-6,1.77-12.38,1.57-18.38-.11l-7.98-2.56c.3.24.36.48.2.73l.66.59c2.5,3.05,6.15,5.3,10.09,6.07,1.84.08.99.18,1.98.58l-.53,4.21c-.12,1.14-.49,2.17-.72,3.3.24.04.4-.16.51-.32.9-.61,2.95-1.38,3.79-.55.1-.06.19-.1.24-.07,5.62,2.92,8.99,9.44,9.01,15.66l.2.56c.17,1.6-1.33.35-2.56,1.75-2.25-.39-3.8,1.37-4.19,3.45-.12.59-.78.35-1.23.18-.93-.36-1.63-1.19-1.97-2.11-.6-2.55-1.55-4.95-2.85-7.2l-2.18-2.21c-1.63-.87-2.44-1.9-2.05-3.75-6.48,2.7-13.63,3.16-20.45,1.86.67,2.11-.55,3.64-2.05,5.03-1.83,1.65-3.74,3.19-5.73,4.63-.26.76-.63,1.17-1.11,1.21-.82-.44-1.75-.62-2.73-.26-.86-.86-1.99-1.1-3.17-.67-.74-.65-1.66-.86-2.59-.42l.19-1.17c.58-.61.65-1.02.77-1.81,1.56-2.45,3.22-4.82,4.99-7.12l.54-.69c1.74-1.36,3.4-2.84,4.99-4.45-1.29-5.41-.65-11.77.44-17.19.57-2.81,1.37-6.64,4.08-8.06l10.04-3.25c1.7-.3,4.51-.59,6.17-.22l.48.41Z"/>
          <path class="cls-1" d="M44.94,62.87l-.33.3-.31-.15c-2.43-.2-5.14-.36-7.6.45l-8.82,2.9c-3.96,1.3-4.76,12.81-5.14,17.49-.21,2.61.13,5.08.69,7.54-1,1.24-2.18,2.15-3.34,3.18-.61.55-1.17,1.24-1.99,1.19l3.18-3.71c-.49-3.29-.42-6.38,0-9.68.96-7.54,2.59-14.82,4.57-22.3,2.54,1.29,5.04,2.15,7.84,2.13l-5.28-2.35c-7.65-3.33-11.24-10.08-10.91-18.17,1.35,13.33,14.47,21.32,27.59,19.47.35.56.3,1.38-.15,1.7Z"/>
          <path class="cls-1" d="M59.73,110.28c-.11.6-.14,1.12-.03,1.87-1.32-.05-3.08-.09-3.78-1.39-1.15-2.13-.41-9.44-9.71-12.18.58-.57,1.5-.58,1.61-1.56-5.53,1.96-10.9,2.37-16.69,1.53.46,1.01,1.42.82,2.09,1.26l-7.87,5.81c-1.46,1.08-2.82,2.06-4.1,3.47l-1.15-1.16.84-1.5c2.39-1.81,4.79-3.48,6.77-5.67,1.14-1.26,1.48-2.71.61-4.36,7.19,1.78,14.7,1.17,21.62-1.85-.27,1.32-.42,2.63.65,3.3,2.47,1.55,4.23,3.65,5.09,6.46l1.16,3.8c.4,1.31,1.6,2.28,2.88,2.17Z"/>
          <path class="cls-1" d="M68.19,76.35l-.52.99c-8.77,3.36-16.84,1.78-25.19-2-.43-.19-.81-.37-1.23-.3-.4-.36-.84-.75-1.05-1.4l8.94,2.87c6.36,1.78,12.94,1.86,19.04-.16Z"/>
          <path class="cls-13" d="M58.91,63.02c.27.18.31.25.13.24,3.76,1.17,7.72,1.53,11.63,1.42.4.13.38.28.24.67-.4.74-.08,1.42.3,2.35-3.84-1.14-8.37-.26-12.25-1.07l-.3-.26c-2.03-.53-1.59-2.51-.11-3.39.09.03.2.11.36.04Z"/>
          <path class="cls-1" d="M47.28,80.43c-4.38-1.86-4.84-3.69-5.21-4.12-.18-.2-.18-.45-.15-.69,3.57,2.6,7.7,4.12,12.24,4.59-.06.69-.12,1.37-.18,2.06-2.89-.41-5.15-1.19-6.7-1.85Z"/>
          <path class="cls-5" d="M44.61,63.18c7.03,3.72,14.83,5.64,22.89,5.22,1.58-.08,2.99.31,4.32,1.03-.66.76.25,1.69-.56,1.92.04-.47.14-1.01,0-1.54-2.19-.85-4.37-.75-6.67-.72-6.56.1-12.79-1.44-18.47-4.63-.72-.41-1.46-.67-1.8-1.42.13-.04.36,0,.31.15Z"/>
          <path class="cls-1" d="M58.54,62.99c.02.5-.28.74-.63,1.1-.61.62-.13,1.75.64,2.01.32.11.43.31.39.54l-4.31-.9-.96-4.3,4.87,1.56Z"/>
          <path class="cls-5" d="M66.47,105.07c-.43-.29-.37-.77-.4-1.31-.34-5.87-3.49-11.09-8.43-14.22-.3-.19-.51-.37-.62-.61-.14-.39-.03-.45.35-.3,5.09,2.56,8.42,7.42,8.75,13.21l.34,3.23Z"/>
          <path class="cls-16" d="M15.54,112.65c.03.42-.94.34-1.25.12-1.29-.92-.92-3.41.17-4.46.63-.61,1.6-.32,2.15.24-.98,1.17-1.2,2.46-1.08,4.1Z"/>
          <path class="cls-16" d="M20.05,109.69c-.02,1.32-1.7,3.66-3.14,2.87-.49-1.02-.23-2.69.68-3.56.81-.78,2.07-.11,2.46.69Z"/>
          <path class="cls-5" d="M70.9,65.35c-.23-.42-.65-.46-1.13-.45-3.6.1-7.06-.23-10.43-1.45-.1-.04-.35.02-.41-.02-.1-.07-.17-.22-.02-.41,4.08,1.23,8.23,1.63,12.56,1.29l-.56,1.04Z"/>
          <path class="cls-16" d="M12.49,110.68c-.14.27-.4.68-.58.65s-.57-.24-.73-.48c-.61-.86-.24-2.19.48-2.94.6-.53,1.37-.49,1.87.12-.65.78-.9,1.6-1.03,2.65Z"/>
          <path class="cls-5" d="M11.8,105.41c.51-3.13,4-6.66,5.77-8.93-.9,2.42-2.89,3.93-4.53,7.19-.16.32-.05.88-.27,1.1-.28.29-.57.6-.97.63Z"/>
          <path class="cls-1" d="M57.38,88.62c-.08.18-.23.31-.35.3-2-.12-2.83.63-3.79.55l1.42-2.28c1.12.33,1.88,1,2.72,1.42Z"/>
          <path class="cls-5" d="M16.91,112.56c2.1-.21,2.22-1.46,3.14-2.87.21.44.34.61.06,1.09-1.16,2.01-2.63,2.96-3.2,1.78Z"/>
          <g>
            <path class="cls-16" d="M65.06,112.54l-2.3-.41c-1.02-.11-1.64-.53-1.86-1.27.1-1.19.9-2.92,2.37-2.83,1.75.11,2.77,2.26,2.54,3.79-.06.43-.4.67-.75.71Z"/>
            <path class="cls-16" d="M66.78,112.46c.48-1.92-.17-3.72-1.88-4.84.44-.51,1.17-.56,1.77-.18,2.09,1.33,2.65,4.2,1.84,4.83-.42.32-.94.42-1.73.19Z"/>
            <path class="cls-16" d="M71.19,110.57c.03.58-.04,1-.29,1.29-.27.31-.63.53-1.13.47.44-1.95-.35-3.63-1.76-5.04,1.7.28,2.89,1.66,3.18,3.28Z"/>
            <path class="cls-5" d="M65.06,112.54c-1.34.15-2.71-.16-4.09-.32-.17-.51-.11-.81-.07-1.35,1.51,1.23,3.24.97,4.16,1.67Z"/>
          </g>
          <g>
            <path class="cls-2" d="M42.1,17.04l-.63,2.4c.6.47.93-.11,1.36-.36,1.09-.29,2.13-.79,3.13-1.5.64-.29,2.12-.95,2.74-.71.24.09.59.64.45.92l-1.43,3.01c1.09-.14,1.75-.05,2.53.27.29.17.38.39.12.59,5.89,2.76,10.23,7.11,12.59,13.2.1.26.03.55-.06.81.14.56-1.15.69-1.34.19l-.58-.3c-1.62-2.95-4.39-5.19-7.78-5.55-3.68-.39-6.45,1.48-8.61,4.3-4.04-2.71-8.91-3.66-13.37-1.33l-.69-.05c-.74.33-1.01-.31-.8-.98.78-.98,1.04-2.28.46-3.42-1.57.4-3.05-.55-1.59-1.91,1.61-.4.86-2.06-.68-.84-.67.09-1.34.06-.85-.65l.12-.41c2.12-1.62,4.45-2.95,6.98-3.99,2.41-1.67,4.58-3.66,6.49-5.95.93-.44,1.05-.16,1.26.67l.2,1.57Z"/>
            <path class="cls-2" d="M30.52,32.94l-.26.59c-4.12,2.62-6.16,7.56-5.34,12.34l-.2.84.47.54c.64,3.49,2.49,6.65,5.37,8.74l.29.65h.69c8.33,4.84,20.85,4,27.56-3.31l.72-.28.08-.71c2.28-3.03,3.38-6.78,2.9-10.55l.28-.66c-.51-.95-.87-1.99-1.07-3.1-.39-.76-.54-1.48-.45-2.16l1.34-.19c.21.07.41.19.47.4.82,2.79,1.18,5.26,1.29,8.11-.33,4.27-2.02,8.68-5.05,11.59-2.27,2.11-4.9,3.69-7.87,4.57-1.04.48-2.01,1.09-2.9,1.83-.48,1-1.43,1.32-2.88.98-.19-.05-.38-.08-.63-.02-.16.04-.42.06-.38-.25-.04-.12-.12-.38-.06-.69.04-.19.11-.33.16-.43-1.45.26-10.3,1.72-18.34-4.31-7.73-5.79-9-14.22-9.21-15.75l.03-1.45c.08-.15.16-.25.24-.29.55-3.51,2.42-8.41,4.89-10.94.2-.21.5-.29.78-.36,1.16.21,1.55-.11,1.18-.95l.33-.65c-.25-.48.03-.81.56-.62.46-.1.62-.23.78-.68-.29-.47.38-.96.78-.61.33,1.15,1.78-.83,2.58.07.29.33.11,1.34-.24,1.57-.19.13-.68.11-.77.26-.14.23-.34.57-.27.85.62.51,1.24.4,2.06.22.6,1.11.59,2.51-.04,3.55-.26.19-.36.48-.37.7,0,.25.19.45.51.58Z"/>
            <path class="cls-5" d="M42.1,17.04l-.48-1.93c-1.18-1.08-3.42,4.12-7.81,6.22-2.38,1.14-4.72,2.2-6.76,3.8l-.78.61c-.06.41-.36.67-.78.68-.2.18-.37.48-.56.62-.16.67-.77,1.72-1.5,1.6-1.84,2.12-3.19,4.58-4.3,7.25-.55,1.31-1.14,2.51-1.17,4,0,.12-.09.28-.15.32s-.21.05-.29.02c1.28-9.37,7.31-17.27,16.59-20.01,2.56-1.52,4.52-3.6,6.42-5.85.23-.27.56-.45.88-.38.68.13.75,1.7.68,3.04Z"/>
            <path class="cls-5" d="M64.66,44.17c-.31-.21-.32-.56-.3-.94.16-2.7-.63-5.14-1.46-7.57-2.28-6.61-7.45-11.76-14.17-14.18.62-.48,1.5.43,1.53-.42,3.22,1.32,6.14,3.17,8.5,5.88,4.15,4.77,6.19,10.98,5.91,17.23Z"/>
            <path class="cls-1" d="M59.61,55.76c-1.6,1.93-3.66,3.38-5.94,4.42l-4.82,2.21c1.21.28,2.28-.2,3.47-.41.23,1.03.46,2.06.7,3.09-1.23-.1-2.17-.35-2.83-.58-.76-.26-1.33-.55-2.3-.82,0,0-.22-.06-.41-.11-1.41-.37-2.91-.42-3.36-.43-1.33-.03-3.79,0-6.98.22-.19-.64.05-1.6-.61-1.64,2.48.17,4.97.26,7.45.12,1.49-.08,2.98-.25,4.42-.6.93-.23,1.82-.6,2.68-1,1.37-.63,2.81-1.03,4.15-1.74,1.25-.66,2.43-1.44,3.61-2.22.25-.17.51-.34.76-.5Z"/>
            <path class="cls-5" d="M49.15,17.79c-.21-.08-.42-.27-.6-.62-1.49.13-2.88.58-4.01,1.56-.54.34-1.13.56-1.71.35,2.57-1.52,7.88-4.57,6.32-1.29Z"/>
            <path class="cls-2" d="M23.44,28.66c.47-.55.9-1.15,1.5-1.6-.04.5.16.98.16,1.49,0,.27-.55.49-.79.53-.29.05-.71-.05-.88-.41Z"/>
            <path class="cls-2" d="M25.5,26.44l.78-.68c.04.21.03.45-.06.58-.16.21-.47.2-.71.11Z"/>
            <g>
              <g>
                <path class="cls-15" d="M30.84,56.64c-3.43-2.28-5.52-5.85-6.12-9.94,2.48-4.29,7.49-8.07,12.47-6.99,2.42.52,4.14,2.37,4.52,4.6.42,2.47-.94,4.78-3.16,5.96-3.02,1.59-6.2,2.57-7.7,6.37Z"/>
                <path class="cls-10" d="M38.64,46.05c-3.92-1.36-5.54,1.61-6.41.99-.17-.12-.36-.52-.16-.82,2.06-3.1,6.56-2.68,7.25-.85.09.24-.24.83-.68.68Z"/>
              </g>
              <g>
                <path class="cls-15" d="M63.07,41.12c.73,4.34-.52,8.54-3.26,11.93-1.56-5.04-6.54-3.5-8.11-7.55-.79-2.03-.76-4.08.49-5.73,1.66-2.19,4.59-2.7,7.11-1.66,1.55.64,2.66,1.8,3.78,3.02Z"/>
                <path class="cls-10" d="M59.43,44.15c-.42,1.18-2.64-1.7-5.4.41-.23.18-.57.04-.7-.1-.6-.69.83-2.24,2.79-2.41s3.58,1.33,3.31,2.09Z"/>
              </g>
              <path class="cls-16" d="M61.55,35.86c.83,1.69,1.21,3.43,1.52,5.26l-.55-.05c-4.62-6.22-14.08-2.25-9.94,5.29,1.23,1.21,2.72,2.14,4.48,2.78,1.31.75,3.15,2.3,2.75,3.91-5.54,6.86-15.83,8.19-24,5.95-1.88-.52-3.42-1.33-4.97-2.36-.1-.18-.2-.38-.16-.58.28-1.46,2.75-3.55,4.06-4.25,3.54-1.58,8.27-3.95,6.24-8.63-2.68-6.21-12.14-2.47-14.84,2.06-.37.75-.85,1.23-1.42,1.46-1.28-5.32,1.02-11.03,5.8-13.77,4.47-2.57,9.88-2.09,14.02,1.08,2.75-4.52,8.43-5.75,12.85-2.91,1.83,1.17,3.17,2.79,4.16,4.74Z"/>
            </g>
          </g>
        </g>
      </g>
    </g>
  </g>
  <g>
    <path class="cls-10" d="M124.44,26.83c-.24.24-.44.1-.52,0-.12-.16-.17-.39.03-.58l4.73-4.71c.15-.15.41-.18.51-.11.15.1.2.47.03.65l-4.77,4.76Z"/>
    <path class="cls-10" d="M121.32,24.48c-.12.28-.38.29-.51.26-.22-.05-.34-.3-.23-.57l2.2-5.39c.14-.34.48-.47.66-.33.12.09.17.39.09.58l-2.23,5.45Z"/>
    <g>
      <path class="cls-10" d="M106.09,21.59c.08.3-.24.42-.38.41-.17-.02-.34-.1-.41-.35l-1.5-5.37c-.05-.18-.02-.41.05-.52.05-.09.18-.17.37-.14.14.02.28.15.35.41l1.52,5.57Z"/>
      <path class="cls-10" d="M102.36,23.7c.21.23.25.5.17.62-.14.2-.46.25-.69,0l-3.92-4.23c-.14-.15-.1-.4-.03-.5.08-.13.4-.26.59-.06l3.88,4.17Z"/>
    </g>
    <path class="cls-10" d="M126.12,30.16c-.27.1-.49,0-.56-.08-.1-.12-.1-.48.16-.58l4.61-1.78c.17-.07.41.17.45.29.05.14-.08.4-.31.49l-4.35,1.66Z"/>
    <path class="cls-4" d="M100.2,28.26l-4.29-1.35c-.25-.08-.29-.32-.26-.46.03-.19.24-.34.49-.25l3.89,1.26.37.27c.09.06-.07.59-.21.54Z"/>
  </g>
  <path class="cls-10" d="M43.99,51.1c4.09,1.31,6.24-.93,6.9-.53.2.13.39.63.22.84-1.93,2.31-5.25,2.58-7.65.81-.26-.19-.36-.48-.27-.8.06-.23.5-.42.81-.32Z"/>
  <g>
    <path class="cls-10" d="M49.91,46.94c-.49,1.2-1.7,2-2.91,2.13-2.06.23-4.07-1.19-3.73-2.61s3.71-1.94,5.64-1.45c.88.22,1.37,1.02,1.01,1.92Z"/>
    <path class="cls-7" d="M48,45.73c.13.86-2.86,1.01-2.72.28.11-.58,2.65-.76,2.72-.28Z"/>
  </g>
  <path class="cls-10" d="M166.27,53.21c3.67,2.24,6.28.57,6.83,1.12.17.17.23.7.01.86-2.42,1.78-5.71,1.27-7.63-1.03-.2-.24-.23-.55-.07-.84.11-.21.59-.29.86-.12Z"/>
  <g>
    <path class="cls-10" d="M173.01,50.56c-.76,1.05-2.12,1.54-3.34,1.38-2.06-.26-3.67-2.12-3.01-3.41s4.07-1.01,5.82-.08c.8.43,1.09,1.31.52,2.11Z"/>
    <path class="cls-7" d="M171.44,48.94c-.08.87-3.01.3-2.71-.37.25-.54,2.75-.12,2.71.37Z"/>
  </g>
</svg>