<?xml version="1.0" encoding="UTF-8"?>
<svg id="Vrstva_1" data-name="Vrstva 1" xmlns="http://www.w3.org/2000/svg" viewBox="0 0 602.21 261.38">
  <defs>
    <style>
      .cls-1 {
        fill: #cd9262;
      }

      .cls-2 {
        fill: #ebbf92;
      }

      .cls-3 {
        fill: #9f795d;
      }

      .cls-4 {
        fill: #673a21;
      }

      .cls-5 {
        fill: #f0d3ae;
      }

      .cls-6 {
        fill: #68a930;
      }

      .cls-7 {
        fill: #3b72b6;
      }

      .cls-8 {
        fill: #e59147;
      }

      .cls-9 {
        fill: #b75c27;
      }

      .cls-10 {
        fill: #bf8678;
      }

      .cls-11 {
        fill: #81522e;
      }

      .cls-12 {
        fill: #381b15;
      }

      .cls-13 {
        fill: #e35c54;
      }

      .cls-14 {
        fill: #bad27a;
      }

      .cls-15 {
        fill: #64140e;
      }

      .cls-16 {
        fill: #c8c3c3;
      }

      .cls-17 {
        fill: #5598d2;
      }

      .cls-18 {
        fill: #e8b888;
      }

      .cls-19 {
        fill: #8f5f39;
      }

      .cls-20 {
        fill: #967660;
      }

      .cls-21 {
        fill: #fcf6f1;
      }

      .cls-22 {
        fill: #c6443d;
      }
    </style>
  </defs>
  <g>
    <g>
      <path class="cls-12" d="M19.37,125.3l-.15-3.63c-.05-1.29.68-2.32,1.9-2.84,5.16-2.2,11.72-.24,11.66,2.06l-.11,4.47c.56.23,1.04.55,1.35,1.07,1.03-.11,1.92.29,2.47,1.16h6.27v6.15l-6.59-.02c-1.34,2.04-2.85.7-3.92,1.79l-.25,5.78c-.59.88-1.43,1.3-2.4,1.68-2.95,1.21-9.4.14-9.51-1.73l-.37-6.08c-1.91-.94-2.45-3.17-1.52-5.03-.98-1.73-.71-4.01,1.17-4.86Z"/>
      <path class="cls-6" d="M42.76,129.66v2.7h-6.41v-2.68"/>
      <path class="cls-14" d="M36.35,128.95h6.41v1.04h-6.41v-1.04Z"/>
      <path class="cls-9" d="M27.68,141.97l.3-.17v-3.71c.34-.42,1.03-1.26.35-1.57-2.49.03-4.85,0-7.27-.78l.24,5.17c1.9,1.2,4.2,1.39,6.38,1.06Z"/>
      <path class="cls-8" d="M20.63,121.93c.49,1.2,2.63,1.57,3.85,1.72,1.85.23,4.59.08,6.16-.98.49-.33.7-.52.83-1.14.14-2.38-7.06-2.95-9.95-1.44-.82.41-1.16,1.03-.9,1.84Z"/>
      <path class="cls-9" d="M20.63,121.93l.16,4.47c2.26,1.02,4.72,1.15,7.11.92l.29-.28c.09-.78.19-1.55.3-2.31.78-.07,1.53-.29,2.25-.66.36-.12.53-.33.62-.69l.11-1.85c-1.85,2.54-8.39,2.44-10.84.4Z"/>
      <path class="cls-6" d="M33.15,127.54l-.36-.07c-2.53,1.76-6.34,2.12-9.29,1.5,0-.25-.02-.4-.31-.5-1.44-.28-2.79-.68-3.84-1.69-.5.79-.45,1.58-.14,2.43.18.5.87.93,1.58,1.23,3.43,1.43,7.36,1.37,10.78-.06,1.2-.51,1.8-1.6,1.58-2.84Z"/>
      <path class="cls-6" d="M28.58,132.47c.1.25.15.37.15.37-1.39.47-3.07.39-4.53.21-.74-.09-1.39-.2-1.8-.81-1.11-.32-2.07-.7-3.1-1.25-.59,1.29-.09,2.62,1.17,3.15,3.84,1.61,8.06,1.56,11.86-.19.34-.87.19-1.72.03-2.66-1.27.59-2.44.99-3.79,1.18Z"/>
      <path class="cls-8" d="M27.68,141.97h.03c1.07-.17,2.11-.43,2.98-1.16l.17-4.79c-1.06.28-2.08.48-3.13.51l-.05,5.44Z"/>
      <path class="cls-8" d="M27.9,127.32c1.12-.11,2.27-.34,3.31-.87l.15-3.07c-.93.62-2.33.92-3.45,1.16,0,1.11,0,1.88,0,2.78Z"/>
      <path class="cls-14" d="M23.18,128.48c.02.23-.03.46.04.62.36.78,7.74.73,9.92-1.56-.06-.36-.21-.63-.62-.72-.25.53-.69.85-1.25,1.04-2.6.9-5.39,1.14-8.1.61Z"/>
      <path class="cls-6" d="M34.04,129.38c-.72,2.1-.14,2.48-.27,4.25.44.08.77-.07,1.01-.3.66-.61-.07-2.14.34-3.67.03-.5-.83-.76-1.08-.28Z"/>
      <path class="cls-14" d="M22.84,132.34c1.89.38,3.79.41,5.74.13.28.04.47.18.46.4-.02.9-6.32.77-6.61-.16-.04-.13-.02-.29-.03-.46l.44.1Z"/>
      <path class="cls-14" d="M34.04,129.38c.41-.03.7.18,1.08.28.1-.39.25-.79.18-1.19-.06-.36-.32-.7-.89-.75-.06.56-.18,1.1-.37,1.67Z"/>
    </g>
    <g>
      <path class="cls-12" d="M582.84,125.3l.15-3.63c.05-1.29-.68-2.32-1.9-2.84-5.16-2.2-11.72-.24-11.66,2.06l.11,4.47c-.56.23-1.04.55-1.35,1.07-1.03-.11-1.92.29-2.47,1.16h-8.97v6.15l9.29-.02c1.34,2.04,2.85.7,3.92,1.79l.25,5.78c.59.88,1.43,1.3,2.4,1.68,2.95,1.21,9.4.14,9.51-1.73l.37-6.08c1.91-.94,2.45-3.17,1.52-5.03.98-1.73.71-4.01-1.17-4.86Z"/>
      <path class="cls-6" d="M556.75,129.66v2.7h9.11v-2.68"/>
      <path class="cls-14" d="M565.86,128.95h-9.11v1.04h9.11v-1.04Z"/>
      <path class="cls-9" d="M574.52,141.97l-.3-.17v-3.71c-.34-.42-1.03-1.26-.35-1.57,2.49.03,4.85,0,7.27-.78l-.24,5.17c-1.9,1.2-4.2,1.39-6.38,1.06Z"/>
      <path class="cls-8" d="M581.58,121.93c-.49,1.2-2.63,1.57-3.85,1.72-1.84.23-4.59.08-6.16-.98-.49-.33-.7-.52-.83-1.14-.14-2.38,7.06-2.95,9.95-1.44.82.41,1.16,1.03.9,1.84Z"/>
      <path class="cls-9" d="M581.58,121.93l-.16,4.47c-2.26,1.02-4.72,1.15-7.11.92l-.29-.28c-.09-.78-.19-1.55-.3-2.31-.78-.07-1.53-.29-2.25-.66-.36-.12-.53-.33-.62-.69l-.11-1.85c1.85,2.54,8.39,2.44,10.84.4Z"/>
      <path class="cls-6" d="M569.06,127.54l.36-.07c2.53,1.76,6.34,2.12,9.29,1.5,0-.25.02-.4.31-.5,1.44-.28,2.79-.68,3.84-1.69.5.79.45,1.58.14,2.43-.18.5-.87.93-1.58,1.23-3.43,1.43-7.36,1.37-10.78-.06-1.2-.51-1.8-1.6-1.58-2.84Z"/>
      <path class="cls-6" d="M573.63,132.47c-.1.25-.15.37-.15.37,1.39.47,3.07.39,4.53.21.74-.09,1.39-.2,1.8-.81,1.11-.32,2.07-.7,3.1-1.25.59,1.29.09,2.62-1.17,3.15-3.84,1.61-8.06,1.56-11.86-.19-.34-.87-.19-1.72-.03-2.66,1.27.59,2.44.99,3.79,1.18Z"/>
      <path class="cls-8" d="M574.52,141.97h-.03c-1.07-.17-2.11-.43-2.98-1.16l-.17-4.79c1.06.28,2.08.48,3.13.51l.05,5.44Z"/>
      <path class="cls-8" d="M574.31,127.32c-1.12-.11-2.27-.34-3.31-.87l-.15-3.07c.93.62,2.33.92,3.45,1.16,0,1.11,0,1.88,0,2.78Z"/>
      <path class="cls-14" d="M579.02,128.48c-.02.23.03.46-.04.62-.36.78-7.74.73-9.92-1.56.06-.36.21-.63.62-.72.25.53.69.85,1.25,1.04,2.6.9,5.39,1.14,8.1.61Z"/>
      <path class="cls-6" d="M568.16,129.38c.72,2.1.14,2.48.27,4.25-.44.08-.77-.07-1.01-.3-.66-.61.07-2.14-.34-3.67-.03-.5.83-.76,1.08-.28Z"/>
      <path class="cls-14" d="M579.36,132.34c-1.89.38-3.79.41-5.74.13-.28.04-.47.18-.46.4.02.9,6.32.77,6.61-.16.04-.13.02-.29.03-.46l-.44.1Z"/>
      <path class="cls-14" d="M568.16,129.38c-.41-.03-.7.18-1.08.28-.1-.39-.25-.79-.18-1.19.06-.36.32-.7.89-.75.06.56.18,1.1.37,1.67Z"/>
    </g>
    <g>
      <rect class="cls-12" x="42.76" y="127.6" width="514" height="1.35"/>
      <rect class="cls-14" x="42.76" y="128.95" width="514" height="1.04"/>
      <rect class="cls-6" x="42.76" y="129.99" width="514" height="2.37"/>
      <rect class="cls-12" x="42.76" y="132.36" width="514" height="1.4"/>
    </g>
  </g>
  <g>
    <g>
      <path class="cls-15" d="M492.23,120.86c-2.71.17-5.46-.06-8.07-.83-.67-.2-2.24.66-2.84.96-.89.45-1.72,1.02-2.46,1.69-1.49,1.36-2.59,3.12-3.28,5.01-.65,1.8-1.19,2.98-3.2,3.49-1.65.41-3.37.25-5.05.32-.03,0-.06,0-.08,0-1.58.08-3.21.21-4.8.16-1.1-.03-2.84-.59-3.29-1.69-.72-1.79.85-3.99,2.36-4.83.14-.08,2.08-.68,2.04-.45,1.27-6.82,5.29-13.09,11.53-16.35l-.06-3.17c-2.86-.12-5.75-.64-8.35-1.88-1.26.84-3.35.64-4.12-.79-.85-.12-1.38-.92-1.49-1.73-.68-.31-1.15-.79-1.46-1.47-.85-.2-1.46-.84-1.66-1.69-.61-.26-1.01-.64-1.37-1.19-2.66,1.69-6.05-1.77-3.74-4.17l-16.34-19.03h-.16s-22.45,18.56-22.45,18.56c1.62,2.75-1.6,5.5-4.19,3.91-.29.6-.85,1.19-1.53,1.27-.13.83-.96,1.61-1.78,1.73-.03.64-.66,1.2-1.28,1.37-.26.89-.99,1.71-1.95,1.8-.9,1.54-3.12,1.18-4.42.37-3.22,1.26-6.9,1.99-10.31,1.44.29,1.3.07,2.91-.28,4.21.06-.22,4.34,2.29,4.71,2.58,1.34,1.05,2.5,2.32,3.42,3.75.92,1.44,1.58,3.04,2,4.69.39,1.56,1.09,4.16.48,5.7,1.36-.86,3.55,1.94,3.82,3,.96,3.7-2.78,4.36-5.49,3.89-.63.03-.81.12-1.42-.04-1.65-.29-3.36-.07-5.01-.25-1.37-.23-2.64-1.02-3.43-2-.34-.69-.3-1.52-.47-2.26-.29-1.26-.77-2.47-1.5-3.54-.7-1.02-1.61-1.88-2.67-2.52-.78-.47-2.8-1.62-3.73-1.35-2.45.7-5.03.9-7.56.68-3.25,2.44-6.64,4.88-9.89,7.43-1.25,1.08-1.75,2.82-3.32,3.56-2.44.85-5.43.36-7.44-1.4-.74-.87-.74-2.41-.33-3.41.48-1.17.46-2.48.94-3.67.5-1.25,1.22-2.4,2.01-3.49,1.63-2.25,3.61-4.22,5.38-6.35-.39-2.71-.31-5.21.02-7.92.79-6.44,2.22-12.68,3.97-19.03-8.39-5.37-9.04-16.57-4.06-24.71,2.65-4.31,6.63-7.46,11.47-8.88,2.03-1.22,3.53-2.84,4.98-4.64.52-.5,1.12-.79,1.84-.66,1.21.22,1.57,2.08,1.45,3.73,1.74-1.04,4.44-2.47,5.57-1.47.79.7.4,2.23-.32,3.52,9,2.8,14.38,12.21,13.4,21.46-.58,5.47-3.75,10.05-8.53,12.73,4.99,1.83,10.03,2.5,15.23,1.82-.76-1.44-.4-2.52.6-3.42,1.01-.91,2.32-1.15,3.48-.06l23.34-19.51-1.49-1.86c-1.11-2.11,0-4.12,1.72-5.47,1.46-1.15,3.41-1.84,5-.48l2.13,2.53c1.57.02,3,.75,3.85,1.93,1.08,1.3,1.31,2.81.85,4.48l16.73,19.81c1.43-.9,2.6-.47,3.44.64.66.87.9,1.78.27,2.92,4.46.15,8.65-.35,12.6-2.17-5.63-3.25-8.53-8.98-8.05-15.29.55-7.35,4.77-14.03,11.51-17.19-.51-1.46.39-2.77,1.79-3.32,1.42-.56,2.94-.03,4.23.89l4.1-3.8c.44-.41,1.14-.47,1.68-.27,1.19.44,1.12,2.7.49,4.3,11,1.3,18.53,11.3,17.08,22.2-.68,5.09-3.3,9.73-7.92,12.28,2.13,8.12,3.97,16.67,3.09,25.01,0,0,5.75,3.24,5.76,3.24,1.37.82,2.72,2.19,3.89,4.3.55.99,1.71,3.41,1.45,6.4-.08.95-.18,1.91-.87,2.81-.96,1.25-2.41,1.56-3.33,1.75-.77.16-3.19.67-4.83-.66-1.01-.82-.75-1.54-1.57-2.87-1.13-1.85-2.7-2.21-6.86-4.2-1.29-.62-3.23-1.59-5.57-2.92Z"/>
      <g>
        <g>
          <path class="cls-2" d="M506.09,115.46c1.43.55,2.8,1.42,4.07,2.38s2.2,2.26,2.77,3.64c.37,1.16.45,2.3.25,3.41l-.91-.04-1.13.49c-.9-.37-1.81-.15-2.51.52-.88-.23-1.7-.12-2.4.34-.54-.03-.58-.84-.51-1.26-2.17-.97-4.32-2.01-6.35-3.25-1.54-.93-2.59-1.95-2.49-3.84-5.75,1.3-11.8.65-17.19-1.68.1,1.06-.23,2.03-.97,2.79-2.74,1.99-4.14,4.88-5.48,7.83-.53.92-1.13,1.73-2.2,2.05-.5.15-1.35.4-1.62-.12.03-1.28-.75-2.81-2.2-3.16-.54-.13-1.4-.31-1.77-.62l-.27-.2c1.32-5.56,4.51-10.76,9.33-14.04.15-.48.94-1.11,1.23-.64l1.23,1.15-.33-2.68c-.1-.8.08-1.5-.16-2.21l.55-.26c4.77.38,9.27-1.63,12.6-4.94-.12-.17-.06-.36.17-.55-6.93,1.86-15.03,3.75-22.04,1.21-.11-.04-.22-.12-.32-.21s-.2-.2-.28-.32c-.14-.42-.54-.98-.89-1.34l.4-.54-1.2-.12c.13-.58-.17-1.17-.28-1.66l.37-.44c-.06-.17-.21-.19-.31-.19h-.63s.09-1.36.09-1.36c.72-.71,2.13-.79,3.17-.78,6.25.53,13.04-.31,18.52-3.42l.02-.21.41-.37c2.22-.58,5.07-.41,7.29.09,1.47.14,2.93.06,4.38-.24.84-.1,1.6-.02,1.86.93,1.19,4.37,1.95,10.28,1.91,14.81-.02,2.35-.24,4.7-.89,6.96,1.52.72,3.08,1.41,4.67,2.07Z"/>
          <path class="cls-1" d="M506.23,126.21l-.84.95c-.82-1.09-1.87-1.67-3.02-2.3l-8.47-4.69c.67-.28,1.39-.18,1.71-.93-5,.57-9.75.31-14.58-1.58.07.78.84,1,1.4,1.39-4.22,1.32-7.14,4.55-8.37,8.7-.36,1.2-1.03,2.09-2.37,2.17l-2.31.14.03-1.32c4.8.21,3.05-5.16,8.76-9.69,1.06-.84,1.41-2.05,1.11-3.41,5.61,2.62,11.89,3.26,17.96,1.83-.24,1.41.28,2.6,1.43,3.41,2.24,1.56,4.75,2.62,7.25,3.89.06.49.12.98.29,1.44Z"/>
          <path class="cls-1" d="M476.49,106.35c-.14-.42-.04-.99.03-1.51,4.18-.04,9.78-1,13.09-3.8l-7.66,2.15c-4.71.89-9.55.82-14.02-.87-.31-.12-.57-.24-.69-.38-.18-.21,0-.5-.06-.66,7.88,2.82,15.4.97,23.45-1.23l-1.27,1.64c-3.23,3.45-8.23,5.2-12.87,4.66Z"/>
          <path class="cls-18" d="M474.32,93.52l-5.85.02c-1.13,0-2.15.05-3.24.37.27-.73.2-1.33-.02-1.95.13-.26.4-.38.8-.36,2.73.04,5.44-.39,8.03-1.28.6-.28.95.05,1.25.57.48.86,0,2.34-.98,2.63Z"/>
          <path class="cls-5" d="M486.43,91.42c-.01.29-.3.47-.63.63-5.1,2.56-10.67,3.51-16.41,3.13-1.66-.11-3.14-.17-4.66.44,0-.1-.26-.25-.15-.3,1.11-.5,2.2-.86,3.44-.74,6.39.64,12.6-.6,18.4-3.16Z"/>
          <path class="cls-5" d="M475.65,110.36c-.15.08-.35.21-.6.36-3.25,2.03-5.05,4.59-6.02,5.99-2.29,3.32-3.11,6.3-3.33,7.17-.11.44-.19.82-.25,1.08-.1-.08-.56,0-.47-.35,1.51-6.23,4.65-11.51,10.26-14.71.17-.1.54.06.5.18l-.09.28Z"/>
          <path class="cls-1" d="M474.32,93.52c.44-.82,1.05-1,.78-2.28-.09-.41-.57-.87-1.05-.92-.11.05-.19.05-.24-.02l3.7-1.32-1.02,4.27-2.17.27Z"/>
          <path class="cls-21" d="M510.99,126.46c.92,1.02,1.07,3.21.12,3.79-.35.21-.76.27-1.24.05.31-1.29.1-2.54-.66-3.62.44-.55,1.33-.72,1.79-.21Z"/>
          <path class="cls-21" d="M508.91,129.9c-1.23,1.12-2.26-.89-2.68-1.93.09-.86,1.31-1.58,1.99-1.07.9.68,1.01,2.09.69,2.99Z"/>
          <path class="cls-18" d="M483.28,91.68l-5.45,1.37.42-2.24c1.7.39,3.35.77,5.03.87Z"/>
          <path class="cls-21" d="M512.69,129.12c0-1.12-.27-2.04-.89-2.94.47-.38.95-.4,1.39-.15.76.42,1.04,1.81.64,2.53-.15.27-.5.57-1.14.56Z"/>
          <path class="cls-5" d="M473.81,90.3c.06.05.18.01.24.02-2.42,1.1-4.98,1.5-7.69,1.41-.36-.01-.82.39-1.14.24-.06-.16-.31-.27-.3-.59,3.07.2,6.04-.24,8.9-1.07Z"/>
          <path class="cls-1" d="M512.27,124.86l.7-.11c.14-1.14-.02-2.16-.04-3.26.48,1.17.83,2.37.81,3.75-.47-.33-.98-.33-1.47-.38Z"/>
          <path class="cls-16" d="M508.91,129.9c-.08.22-.13.43-.27.51-.97.54-2.53-1.32-2.41-2.43,1.01.66.71,2.38,2.68,1.93Z"/>
          <g>
            <path class="cls-21" d="M468.37,128.57c-.11,1.07-.97,1.58-2.56,1.54l-.38.22h-.41s-.37-.1-.37-.1c-.29-.08-.47-.31-.5-.69-.08-1.4.92-3.03,2.45-3.04,1.1,0,1.63,1.2,1.77,2.07Z"/>
            <path class="cls-21" d="M463.29,130.2c-.94.23-2.06.13-2.67-.65-.21-1.23.4-2.34,1.25-2.97.97-.73,2.21-.9,3.4-.55-1.43.94-2.49,2.3-1.98,4.18Z"/>
            <path class="cls-5" d="M465.43,130.33c-.02-.94,2.04.02,2.94-1.76.14.51.14,1.03-.12,1.56l-2.82.2Z"/>
            <path class="cls-5" d="M465.02,130.33l-.37-.11h.3c.06,0,.12,0,.07.11Z"/>
          </g>
          <g>
            <path class="cls-1" d="M507.64,76.71c-.91,4.91-3.94,9.04-8.58,11.11l-5.34,2.13c2.19.19,4.27-.49,6.34-1.41,2.06,8.14,3.98,16.54,2.9,24.92l3.13,2-1.42-.29-3.64-1.55c2-6.43.52-15.32-.93-21.92-.38-1.71-3.09.26-6.62-.58-2.44-.58-4.66-.25-7.02.1l-3.17.47c-.72.09-1.4.13-2.12.06-.94-.09-2.24-.31-2.91-.93.09-.46.09-1.01.38-1.48.94.22,1.73.59,2.74.53-3.29-2.22-5.53-2.53-8.35-5.68,2.38,1.94,5.06,3.25,8.1,4.04,7.74,2.03,15.21,1.42,21.38-3.89,2.28-1.96,3.84-4.36,4.73-7.2.08-.26.15-.42.4-.43Z"/>
            <g>
              <path class="cls-2" d="M491.12,52.12c-.16.88-.58,1.72-.94,2.65.53.26.87-.18,1.22-.15l.22.36c8.96,1.44,16.63,9.55,16.22,18.83l.13.33c-.08.76-.16,1.51-.25,2.27-.03.11-.06.21-.08.32-.8,2.26-1.54,4.2-3.18,6.11-4.08,4.75-10.22,6.97-16.39,6.78-5.31-.16-11.17-1.63-15.06-5.41-2.26-2.53-3.65-5.74-3.77-9.18.3-3.66.95-7.04,2.98-10.39,1.95-3.22,4.74-5.82,8.09-7.52,0,0,.03-.15.1-.46l1.56-.41c-.17-.65-.72-.59-1.14-.68-.14-.1-.2-.28-.19-.44.19-2.61,3.89-1.21,5.27-.44,1.47-1.24,2.93-2.53,4.36-3.86.66-.11.94.33.84,1.32Z"/>
              <path class="cls-5" d="M507.97,74.12c-.15-.02-.3-.19-.28-.32.25-2-.27-3.7-.88-5.55-1.84-5.62-6.15-9.93-11.68-12.01-1.36-.51-2.59-1.01-4.07-.97-.02-.39.21-.45.34-.66,9.89.86,17.21,9.64,16.57,19.51Z"/>
              <path class="cls-5" d="M480.42,56.63c.08.28.38.27.63.45-5.85,2.74-9.73,7.94-11.13,14.11-.43,1.91-.21,3.88-.67,3.81-.25-7.62,4.14-15.49,11.17-18.37Z"/>
              <path class="cls-5" d="M491.12,52.12c-.08-.62-.28-.81-.44-.88-.64-.29-1.82.9-3.77,2.89-.38.38-.68.71-.87.91-.24-.18-.6-.43-1.09-.65-.77-.36-2.02-.94-3.03-.39-.67.37-.96,1.09-1.08,1.55-.33-.07-.35-.66-.21-.98.55-1.24,2-1.64,3.17-1.05l2.14,1.08,4.33-4.13c.18-.17.66-.29.79-.07.32.56.15,1.21.06,1.73Z"/>
              <g>
                <path class="cls-20" d="M501.65,78.27c-.7,3.21-2.45,6.34-5.47,7.81-.86-2.55-2.94-4.3-5.35-5.44-2.28-1.08-3.61-3.13-3.05-5.54s2.57-3.89,5.09-3.73c3.93.25,7.01,3.48,8.78,6.9Z"/>
                <path class="cls-15" d="M495.28,77.79c-.51.95-2.03-1.89-4.71-.93-.35.12-.69.2-.87-.15-.14-.27.04-.64.37-.86,1.75-1.17,4.17-.45,5.25,1.36.12.2.02.46-.04.57Z"/>
              </g>
              <g>
                <path class="cls-20" d="M472.53,81.44c-1.85-2.62-2.65-6.02-1.93-9.15,1.3-1.48,2.8-2.75,4.77-3.04,1.42-.22,2.8.19,3.72,1.11s1.29,2.33,1.1,3.67c-.3,2.13-1.67,3.67-3.74,4.16-1.74.41-3.12,1.58-3.92,3.24Z"/>
                <path class="cls-15" d="M478.29,75.01c-.55.76-1.67-1.6-4.02-.23-.19.11-.44.06-.56,0-.17-.09-.31-.46-.14-.69.54-.75,1.5-1.12,2.39-1.14,1.46-.04,2.81,1.4,2.33,2.06Z"/>
              </g>
              <path class="cls-21" d="M501.65,78.27l-.46-.21c-1.62-4.09-9.06-9.3-12.39-4.52-1.68,2.41-.76,5.07,1.62,6.53,1.93.81,5.53,3.34,5.91,5.5.03.18-.06.36-.14.51l-2.28,1.11c-5.39,1.75-11.37,1.38-16.38-1.26-2.13-1.12-3.71-2.67-5-4.49-.25-.83.82-1.86,1.48-2.38.89-.71,1.86-1.06,2.95-1.33,2.51-1.02,3.87-4.1,2.41-6.5-1.93-3.16-6.47-1.46-8.3,1l-.47.06c.66-5.48,5.14-10.61,10.64-9.14,1.83.49,3.57,1.88,4.65,3.85,4.77-3.96,11.52-2.6,14.66,2.56,1.61,2.65,1.74,5.75,1.1,8.7Z"/>
            </g>
          </g>
        </g>
        <g>
          <g>
            <g>
              <path class="cls-17" d="M441.97,64.07l.03.34c-10.08,8.17-20.17,16.34-30.27,24.48l-.34-.12c-.8-1.05-1.76-1.91-2.79-2.74l28.57-23.72c.93-.78,1.98-.83,2.97-.25.84.49,1.45,1.13,1.83,2Z"/>
              <path class="cls-7" d="M411.4,88.78l30.58-24.71c1.05,2.4-.35,3.16-1.87,4.41l-27.18,22.32-1.53-2.03Z"/>
            </g>
            <g>
              <path class="cls-13" d="M455.84,89.94l-.33.1-15.13-17.67c-.41-1.59.77-2.62,2.06-3.26.25-.3.51-.41.78-.33l15.7,18.57-3.07,2.6Z"/>
              <path class="cls-22" d="M443.22,68.77c-.34.5-.83.73-1.3,1-.9.54-1.48,1.37-1.26,2.47l12.47,14.53,2.72,3.17-1.98,1.67-16.55-19.58,5.05-4.27.85,1.01Z"/>
            </g>
            <path class="cls-13" d="M433.85,63.68c-.1.07-.26.15-.33.09-.49-.48-2.27-2.58-2.57-3.12l.1-.37c1.14-1.28,2.95-2.49,4.29-1.56.86.59,1.44,1.58,2,2.3l-3.49,2.66Z"/>
            <path class="cls-22" d="M433.85,63.68l-1.9,1.5c-.53-.6-1.28-1.2-1.56-1.93-.42-1.09.02-2.23.67-2.97l2.79,3.4Z"/>
            <path class="cls-21" d="M460.15,98.04c-.66-.02-1.01-.61-.93-1.26.15-1.2,1.1-2.27,2.26-2.59.43-.12.87.08.96.38.31,1.05-1.72,1.06-2.3,3.47Z"/>
            <path class="cls-21" d="M407.87,95.69c-.45-2.61-2.47-2.63-1.83-3.75.42-.74,2.09.22,2.48,1.54.23.79.26,1.59-.65,2.21Z"/>
            <path class="cls-21" d="M405.64,90.68c-.29,1.13-1.8-.13-3.36,1.55-.32-.22-.39-.69-.21-1.09.51-1.11,1.82-1.63,2.97-1.25.38.13.67.52.6.79Z"/>
            <path class="cls-21" d="M406.14,96.49c-.88-1.77-3.05-2.46-2.07-3.1,1.21-.8,2.83,1.07,2.84,2.5,0,.23-.48.43-.76.6Z"/>
            <path class="cls-21" d="M404.62,98.77c-.33-1.09-.97-1.87-1.94-2.34-.1-.55-.12-1.06-.02-1.62,1.37.37,2.33,1.43,2.52,2.82.01.41.05.81-.55,1.14Z"/>
            <path class="cls-21" d="M458.73,95.33c-.22.2-.49.37-.66.33-.25-.05-.42-.35-.38-.7.14-1.27,1.22-2.28,2.51-2.28.23,0,.43.26.49.39s0,.44-.17.59l-1.81,1.67Z"/>
            <path class="cls-21" d="M402.95,100.55c-.29-.89-.77-1.47-1.56-1.89.37-.49.45-.98.62-1.59,1.09.35,1.82,1.35,1.79,2.48-.01.48-.25.86-.85,1.01Z"/>
            <path class="cls-21" d="M463.08,101.27c-.48-.1-.75-.45-.77-.93.04-1.15.82-2.14,1.97-2.35.43.5.5,1.2.17,1.73-.64.34-1.05.8-1.38,1.54Z"/>
            <path class="cls-21" d="M464.32,93.61c-1.43-1.41-2.53-.72-2.95-1.39-.14-.22-.28-.56.02-.8.64-.52,1.48-.38,2.13.04s1.18,1.16.8,2.15Z"/>
            <path class="cls-21" d="M462.06,98.53c-.13.33-.93.43-.93.13.02-1.5,1.23-2.62,2.62-2.9.3,2.09-1.23,1.62-1.7,2.76Z"/>
            <path class="cls-21" d="M466.14,101.94c-.71.55-1.65.63-2.3.09-.05-.83.59-1.52,1.38-1.75.62.3,1.02.92.92,1.67Z"/>
            <path class="cls-21" d="M401.99,101.23c-.86.13-1.69.06-2.43-.37.26-.67.72-1.05,1.22-1.48.8.22,1.36.86,1.21,1.84Z"/>
            <g>
              <path class="cls-11" d="M462.15,88.42c-1.84,1.06-3.65,2.23-5.25,3.66-.43.37-1.39-.44-1.15-.93l1.61-1.47c.87-.28,1.7-.75,2.51-1.4.7-.52,2.15-1.07,2.28.14Z"/>
              <path class="cls-4" d="M455.75,91.15c.35.36.67.7,1.15.93-1.04.93-1.9,1.9-2.57,3.16-.3-.22-1.09-.86-.85-1.37.5-1.07,1.44-1.97,2.28-2.73Z"/>
              <path class="cls-3" d="M462.15,88.42c-.77-1.09-2.52.22-3.85,1.16-.29.21-.74.41-.94.1l3.24-2.13c.34-.22.83-.28,1.2-.1.22.11.47.38.65.78-.07,0-.31-.02-.29.18Z"/>
            </g>
            <g>
              <path class="cls-19" d="M409.58,88.5c.63.24.95.97,1.38,1.46.2.3.19.38-.1.55-.56.34-1.05.02-1.46-.38-1.19-1.34-2.56-2.46-4.08-3.45.06-1.23,1.76-.45,2.38.14l1.87,1.67Z"/>
              <path class="cls-4" d="M409.4,90.13c.54.16,1.27.44,1.56-.17.77.91,1.39,1.95,1.97,3.04.17.61-.06,1.19-.7,1.35l-2.82-4.22Z"/>
              <path class="cls-3" d="M409.58,88.5c-1.34-.51-2.73-3.11-4.26-1.82-.06-.06-.23-.12-.37-.14-.38-.07.69-1.08,1.34-.8,1.32.57,2.42,1.66,3.29,2.76Z"/>
            </g>
          </g>
          <g>
            <path class="cls-18" d="M378.97,89.03c5.69,3.89,13.06,5.04,19.91,4.77.6.05,2.33.31,2.7.68.05.05.02,1.35-.18,1.47l-.43.12c-.17.05.19.37.2.51.03.51-.29,1.07-.43,1.57-.41.14-.69.12-1.17.16l.34.66-1.07,1.16-.64.52c-4.99,1.48-10.3,1.31-15.29-.1l-6.64-2.13c.25.2.3.4.16.61l.55.49c2.08,2.54,5.12,4.41,8.39,5.05,1.53.07.82.15,1.64.48l-.44,3.51c-.1.95-.41,1.8-.6,2.75.2.04.34-.13.42-.27.74-.51,2.45-1.15,3.15-.46.08-.05.15-.08.2-.06,4.68,2.43,7.48,7.86,7.49,13.03l.17.47c.14,1.33-1.11.29-2.13,1.46-1.87-.32-3.16,1.14-3.48,2.87-.1.49-.65.29-1.02.15-.78-.3-1.36-.99-1.64-1.76-.5-2.12-1.29-4.12-2.37-5.99l-1.82-1.84c-1.36-.73-2.03-1.58-1.71-3.12-5.39,2.24-11.34,2.63-17.02,1.55.56,1.76-.46,3.03-1.71,4.19-1.52,1.37-3.11,2.66-4.77,3.86-.22.63-.53.97-.92,1.01-.69-.37-1.45-.52-2.27-.22-.72-.71-1.66-.91-2.64-.55-.62-.54-1.38-.72-2.16-.35l.16-.97c.48-.51.54-.85.64-1.5,1.3-2.04,2.68-4.01,4.15-5.93l.45-.57c1.45-1.13,2.83-2.36,4.15-3.7-1.07-4.5-.54-9.79.37-14.31.47-2.33,1.14-5.53,3.4-6.71l8.35-2.7c1.41-.25,3.75-.49,5.13-.18l.4.34Z"/>
            <path class="cls-1" d="M379.5,88.9l-.28.25-.26-.12c-2.02-.17-4.27-.3-6.32.38l-7.34,2.42c-3.29,1.08-3.96,10.66-4.27,14.55-.17,2.18.11,4.23.57,6.27-.84,1.03-1.81,1.79-2.78,2.65-.51.45-.97,1.03-1.66.99l2.64-3.09c-.41-2.74-.35-5.31,0-8.06.79-6.28,2.15-12.33,3.8-18.55,2.11,1.07,4.2,1.79,6.52,1.77l-4.39-1.96c-6.37-2.77-9.35-8.38-9.08-15.12,1.13,11.09,12.04,17.74,22.96,16.2.29.46.25,1.15-.12,1.41Z"/>
            <path class="cls-1" d="M391.8,128.34c-.09.5-.12.94-.02,1.55-1.1-.04-2.56-.07-3.15-1.16-.96-1.78-.34-7.85-8.08-10.13.48-.48,1.25-.48,1.34-1.3-4.6,1.63-9.07,1.97-13.89,1.27.38.84,1.18.68,1.74,1.05l-6.55,4.83c-1.22.9-2.35,1.72-3.42,2.89l-.96-.96.7-1.24c1.99-1.51,3.98-2.9,5.63-4.72.95-1.05,1.23-2.25.51-3.62,5.98,1.48,12.23.98,17.99-1.54-.22,1.09-.35,2.19.54,2.75,2.06,1.29,3.52,3.04,4.24,5.38l.97,3.16c.33,1.09,1.33,1.9,2.4,1.81Z"/>
            <path class="cls-1" d="M398.84,100.11l-.43.83c-7.3,2.8-14.01,1.48-20.96-1.67-.35-.16-.67-.31-1.02-.25-.33-.3-.7-.62-.87-1.16l7.44,2.39c5.29,1.48,10.76,1.55,15.85-.13Z"/>
            <path class="cls-18" d="M391.11,89.02c.22.15.26.21.1.2,3.12.97,6.42,1.27,9.68,1.18.33.1.31.23.2.56-.33.62-.07,1.18.25,1.96-3.19-.95-6.96-.22-10.19-.89l-.25-.21c-1.69-.44-1.32-2.09-.09-2.82.08.02.17.09.3.03Z"/>
            <path class="cls-1" d="M381.44,103.51c-3.65-1.55-4.03-3.07-4.34-3.43-.15-.17-.15-.37-.13-.57,2.97,2.17,6.41,3.42,10.19,3.82-.05.57-.1,1.14-.15,1.71-2.4-.34-4.29-.99-5.57-1.54Z"/>
            <path class="cls-5" d="M379.22,89.15c5.85,3.1,12.34,4.7,19.05,4.34,1.31-.07,2.49.26,3.59.85-.55.63.2,1.41-.47,1.6.03-.4.11-.84,0-1.28-1.82-.7-3.63-.63-5.55-.6-5.46.08-10.64-1.2-15.37-3.85-.6-.34-1.22-.56-1.5-1.18.11-.03.3,0,.26.12Z"/>
            <path class="cls-1" d="M390.81,88.99c.02.42-.23.62-.52.91-.51.51-.1,1.45.54,1.67.26.09.36.25.33.45l-3.59-.75-.8-3.58,4.05,1.3Z"/>
            <path class="cls-5" d="M397.41,124.01c-.36-.24-.31-.64-.33-1.09-.28-4.88-2.91-9.23-7.01-11.83-.25-.16-.42-.31-.52-.51-.12-.33-.02-.38.29-.25,4.23,2.13,7,6.17,7.28,10.99l.28,2.69Z"/>
            <path class="cls-21" d="M355.03,130.31c.03.35-.78.28-1.04.1-1.07-.76-.76-2.83.15-3.71.52-.51,1.33-.26,1.79.2-.81.97-1,2.05-.9,3.41Z"/>
            <path class="cls-21" d="M358.79,127.85c-.01,1.1-1.41,3.04-2.61,2.39-.41-.85-.19-2.24.57-2.96.68-.65,1.72-.09,2.04.57Z"/>
            <path class="cls-5" d="M401.1,90.96c-.19-.35-.54-.38-.94-.37-3,.09-5.88-.19-8.68-1.21-.08-.03-.29.02-.34-.02-.08-.06-.14-.18-.02-.34,3.4,1.02,6.85,1.35,10.45,1.07l-.47.86Z"/>
            <path class="cls-21" d="M352.5,128.67c-.11.22-.33.57-.49.54s-.47-.2-.61-.4c-.51-.71-.2-1.82.4-2.45.5-.44,1.14-.41,1.56.1-.54.64-.75,1.33-.86,2.2Z"/>
            <path class="cls-5" d="M351.92,124.29c.42-2.6,3.32-5.55,4.8-7.43-.75,2.02-2.41,3.27-3.77,5.98-.14.27-.04.73-.22.92-.23.24-.47.5-.81.53Z"/>
            <path class="cls-1" d="M389.84,110.32c-.07.15-.19.25-.29.25-1.67-.1-2.36.52-3.15.46l1.18-1.89c.93.28,1.56.83,2.26,1.18Z"/>
            <path class="cls-5" d="M356.17,130.24c1.75-.18,1.85-1.21,2.61-2.39.18.37.28.51.05.91-.97,1.68-2.19,2.46-2.66,1.48Z"/>
            <g>
              <path class="cls-21" d="M396.23,130.22l-1.91-.34c-.85-.09-1.37-.44-1.55-1.05.08-.99.75-2.43,1.97-2.36,1.45.09,2.3,1.88,2.11,3.16-.05.36-.34.56-.63.59Z"/>
              <path class="cls-21" d="M397.67,130.16c.4-1.59-.14-3.1-1.57-4.03.37-.42.98-.46,1.47-.15,1.74,1.11,2.2,3.49,1.53,4.02-.35.27-.78.35-1.44.16Z"/>
              <path class="cls-21" d="M401.33,128.59c.03.49-.03.83-.24,1.07-.23.26-.53.44-.94.39.36-1.62-.29-3.02-1.46-4.19,1.41.24,2.4,1.38,2.65,2.73Z"/>
              <path class="cls-5" d="M396.23,130.22c-1.11.13-2.25-.13-3.4-.27-.14-.42-.09-.67-.06-1.12,1.25,1.02,2.69.81,3.46,1.39Z"/>
            </g>
            <g>
              <path class="cls-2" d="M377.13,50.76l-.53,1.99c.5.39.78-.09,1.13-.3.91-.24,1.78-.66,2.6-1.25.53-.24,1.76-.79,2.28-.59.2.07.49.53.38.76l-1.19,2.51c.91-.12,1.46-.04,2.11.23.24.14.31.32.1.49,4.9,2.3,8.51,5.92,10.48,10.99.09.22.03.46-.05.67.11.47-.95.58-1.12.16l-.48-.25c-1.35-2.45-3.65-4.32-6.48-4.62-3.06-.32-5.37,1.23-7.16,3.58-3.37-2.25-7.41-3.05-11.12-1.1l-.57-.04c-.61.27-.84-.26-.67-.81.65-.82.87-1.9.38-2.85-1.31.33-2.54-.46-1.33-1.59,1.34-.33.71-1.71-.56-.7-.55.08-1.11.05-.71-.54l.1-.34c1.76-1.35,3.7-2.45,5.81-3.32,2.01-1.39,3.81-3.04,5.4-4.95.78-.36.87-.13,1.05.56l.16,1.31Z"/>
              <path class="cls-2" d="M367.49,63.99l-.21.49c-3.43,2.18-5.13,6.29-4.44,10.27l-.17.7.39.45c.53,2.9,2.07,5.53,4.47,7.28l.24.54h.57c6.93,4.03,17.35,3.33,22.93-2.76l.6-.23.07-.59c1.9-2.52,2.81-5.64,2.41-8.78l.23-.55c-.43-.79-.72-1.65-.89-2.58-.32-.63-.45-1.23-.38-1.8l1.12-.16c.18.06.34.16.39.33.68,2.32.98,4.38,1.07,6.74-.27,3.55-1.68,7.23-4.2,9.64-1.89,1.75-4.07,3.07-6.55,3.8-.87.4-1.67.91-2.42,1.52-.4.83-1.19,1.1-2.39.81-.16-.04-.31-.07-.52-.02-.13.03-.35.05-.32-.21-.04-.1-.1-.31-.05-.57.03-.16.09-.28.14-.36-1.21.22-8.57,1.43-15.26-3.59-6.43-4.82-7.49-11.83-7.66-13.1l.02-1.21c.07-.12.13-.2.2-.24.46-2.92,2.01-7,4.07-9.1.17-.17.42-.24.65-.3.96.17,1.29-.09.98-.79l.27-.54c-.21-.4.03-.68.46-.51.39-.08.52-.19.65-.57-.24-.39.31-.8.65-.51.28.96,1.48-.69,2.15.06.24.27.09,1.11-.2,1.3-.15.1-.56.09-.64.22-.12.19-.29.47-.23.71.52.42,1.03.33,1.71.19.5.92.49,2.09-.03,2.95-.22.16-.3.4-.3.58,0,.21.16.38.42.48Z"/>
              <path class="cls-5" d="M377.13,50.76l-.4-1.6c-.98-.9-2.85,3.43-6.5,5.18-1.98.95-3.93,1.83-5.63,3.16l-.65.51c-.05.34-.3.56-.65.57-.17.15-.31.4-.46.51-.13.56-.64,1.43-1.25,1.33-1.53,1.77-2.65,3.81-3.58,6.03-.46,1.09-.95,2.09-.97,3.33,0,.1-.07.24-.12.27s-.17.04-.24.02c1.07-7.8,6.08-14.37,13.81-16.65,2.13-1.27,3.76-2.99,5.34-4.87.19-.23.47-.37.74-.32.56.11.62,1.41.56,2.53Z"/>
              <path class="cls-5" d="M395.9,73.34c-.26-.17-.27-.47-.25-.78.13-2.25-.52-4.28-1.21-6.3-1.89-5.5-6.2-9.78-11.79-11.8.52-.4,1.25.36,1.27-.35,2.68,1.09,5.11,2.64,7.07,4.89,3.46,3.97,5.15,9.14,4.91,14.33Z"/>
              <path class="cls-1" d="M391.7,82.98c-1.33,1.6-3.04,2.81-4.94,3.68l-4.01,1.84c1.01.23,1.89-.16,2.89-.34.19.86.39,1.71.58,2.57-1.02-.08-1.81-.29-2.35-.48-.64-.22-1.1-.46-1.91-.68,0,0-.18-.05-.34-.09-1.17-.31-2.42-.35-2.8-.36-1.1-.03-3.16,0-5.8.18-.16-.53.04-1.33-.51-1.37,2.06.14,4.13.21,6.2.1,1.24-.07,2.48-.21,3.68-.5.78-.19,1.51-.5,2.23-.83,1.14-.52,2.34-.85,3.45-1.44,1.04-.55,2.03-1.2,3-1.85.21-.14.42-.28.63-.42Z"/>
              <path class="cls-5" d="M383,51.38c-.18-.07-.35-.22-.5-.52-1.24.1-2.4.49-3.34,1.3-.45.29-.94.47-1.43.29,2.14-1.27,6.56-3.8,5.26-1.07Z"/>
              <path class="cls-2" d="M361.6,60.43c.39-.46.75-.95,1.25-1.33-.04.42.13.81.13,1.24,0,.22-.46.4-.66.44-.24.04-.59-.04-.73-.34Z"/>
              <path class="cls-2" d="M363.32,58.58l.65-.57c.04.17.03.37-.05.48-.13.18-.39.17-.59.09Z"/>
              <g>
                <g>
                  <path class="cls-20" d="M367.77,83.71c-2.85-1.9-4.6-4.87-5.1-8.27,2.06-3.57,6.23-6.71,10.37-5.82,2.02.44,3.45,1.97,3.76,3.83.35,2.06-.78,3.98-2.63,4.96-2.51,1.33-5.16,2.14-6.41,5.3Z"/>
                  <path class="cls-15" d="M374.25,74.9c-3.26-1.13-4.61,1.34-5.33.82-.14-.1-.3-.43-.13-.68,1.72-2.58,5.45-2.23,6.03-.71.07.2-.2.69-.57.56Z"/>
                </g>
                <g>
                  <path class="cls-20" d="M394.58,70.79c.61,3.61-.44,7.11-2.71,9.93-1.3-4.19-5.44-2.91-6.75-6.28-.65-1.69-.63-3.39.41-4.77,1.38-1.82,3.82-2.25,5.91-1.38,1.29.53,2.21,1.5,3.14,2.51Z"/>
                  <path class="cls-15" d="M391.55,73.32c-.35.98-2.2-1.41-4.49.34-.2.15-.48.04-.58-.08-.5-.57.69-1.87,2.32-2s2.98,1.1,2.76,1.74Z"/>
                </g>
                <path class="cls-21" d="M393.32,66.42c.69,1.41,1.01,2.85,1.27,4.38l-.46-.04c-3.85-5.18-11.72-1.87-8.27,4.4,1.02,1.01,2.26,1.78,3.73,2.31,1.09.63,2.62,1.91,2.29,3.25-4.61,5.71-13.18,6.82-19.97,4.95-1.56-.43-2.85-1.1-4.14-1.96-.08-.15-.16-.31-.13-.48.23-1.22,2.29-2.95,3.38-3.54,2.94-1.31,6.88-3.28,5.19-7.18-2.23-5.17-10.11-2.05-12.35,1.71-.31.62-.71,1.03-1.19,1.22-1.06-4.43.85-9.17,4.82-11.46,3.72-2.14,8.22-1.74,11.66.9,2.29-3.76,7.01-4.78,10.69-2.42,1.52.98,2.63,2.32,3.46,3.95Z"/>
              </g>
            </g>
          </g>
        </g>
      </g>
    </g>
    <g>
      <path class="cls-15" d="M445.65,58.9c-.2.2-.37.09-.43,0-.1-.13-.14-.32.02-.48l3.94-3.92c.12-.12.34-.15.42-.09.12.08.17.39.02.54l-3.97,3.96Z"/>
      <path class="cls-15" d="M443.05,56.95c-.1.24-.32.24-.42.21-.18-.04-.28-.25-.19-.48l1.83-4.48c.11-.28.4-.39.55-.27.1.07.15.32.08.49l-1.85,4.54Z"/>
      <g>
        <path class="cls-15" d="M430.38,54.54c.07.25-.2.35-.32.34-.14-.01-.29-.08-.34-.29l-1.25-4.47c-.04-.15-.01-.34.04-.43.04-.07.15-.14.31-.11.11.02.23.13.29.34l1.27,4.63Z"/>
        <path class="cls-15" d="M427.27,56.3c.17.19.21.42.14.52-.12.17-.38.21-.57,0l-3.27-3.52c-.12-.13-.08-.34-.03-.42.07-.11.33-.22.49-.05l3.23,3.47Z"/>
      </g>
      <path class="cls-15" d="M447.04,61.67c-.23.09-.41,0-.47-.06-.09-.1-.08-.4.13-.48l3.84-1.48c.14-.05.34.14.38.24.04.12-.07.33-.26.41l-3.62,1.38Z"/>
      <path class="cls-4" d="M425.47,60.1l-3.57-1.13c-.21-.07-.24-.27-.22-.39.03-.15.2-.28.41-.21l3.24,1.05.31.22c.07.05-.06.49-.18.45Z"/>
    </g>
    <path class="cls-15" d="M378.7,79.1c3.4,1.09,5.19-.77,5.74-.44.17.1.32.52.18.7-1.6,1.92-4.37,2.15-6.37.67-.21-.16-.3-.4-.23-.66.05-.19.42-.35.67-.27Z"/>
    <g>
      <path class="cls-15" d="M383.63,75.63c-.4,1-1.41,1.66-2.42,1.78-1.72.19-3.39-.99-3.1-2.17s3.09-1.62,4.69-1.21c.73.19,1.14.85.84,1.6Z"/>
      <path class="cls-10" d="M382.04,74.63c.11.72-2.38.84-2.26.24.09-.49,2.2-.64,2.26-.24Z"/>
    </g>
    <path class="cls-15" d="M480.45,80.85c3.05,1.86,5.23.48,5.68.93.14.14.19.59,0,.72-2.01,1.49-4.75,1.05-6.35-.85-.17-.2-.19-.46-.06-.7.1-.18.49-.24.72-.1Z"/>
    <g>
      <path class="cls-15" d="M486.06,78.65c-.63.87-1.77,1.28-2.78,1.15-1.71-.22-3.06-1.76-2.5-2.84s3.38-.84,4.84-.06c.67.36.91,1.09.43,1.75Z"/>
      <path class="cls-10" d="M484.75,77.3c-.07.72-2.51.25-2.25-.31.2-.45,2.29-.1,2.25.31Z"/>
    </g>
  </g>
</svg>