<?xml version="1.0" encoding="UTF-8"?>
<svg id="Vrstva_1" data-name="Vrstva 1" xmlns="http://www.w3.org/2000/svg" viewBox="0 0 79.69 88.62">
  <defs>
    <style>
      .cls-1 {
        fill: #eecba5;
      }

      .cls-2 {
        fill: #c78a5e;
      }

      .cls-3 {
        fill: #e2a263;
      }

      .cls-4 {
        fill: #99765e;
      }

      .cls-5 {
        fill: #e3b084;
      }

      .cls-6 {
        fill: #bf8678;
      }

      .cls-7 {
        fill: #fcf6f2;
      }

      .cls-8 {
        fill: #c57939;
      }

      .cls-9 {
        fill: #64140e;
      }
    </style>
  </defs>
  <g>
    <path class="cls-9" d="M50.6,86.3c-1.03.42-2.17.55-3.28.33-.66-.04-1.33.1-1.97-.14-.63-.22-1.4-.24-2.03-.54-.84-.46-1.09-1.42-.92-2.35.12-.55.22-.96.15-1.15-.53-1.66-1.4-5.19-1.71-6.21-.08-.15-.15-.21-.34-.24-.43-.04-1.16-.02-1.75-.06-.67.04-1.38-.26-1.92-.02-.54,1.31-.55,3.22-1.01,4.64-.83,4-2.3,4.82-6.31,5.09-1.2.24-2.41.5-3.63.2-1.26.06-2.47-.27-3.68-.57-2.17-.88-.94-3.96.55-4.89.25-.18.36-.28.28-.61-.8-4.37-1.91-10.26-2.17-14.95-.31-.84-1.07-1.44-1.47-2.24-.51-.71-.63-1.72-1.23-2.34-1.24-.46-2.53-.42-3.66-1.46-2.04-1.61-2.53-4.63-1.9-7.05,1.43-5.17,6.39-8.64,10.95-11.12.49-.28.3-.59-.04-.91-4.39-4.16-5.77-10.52-3.94-16.23,2.63-9.53,11.58-14.21,20.92-14.99,1.11-.2,2.53-.64,3.54-1.11,2.11-.85,2.85-2.13,4.67-1.98,1.32.29,1.33,1.87,1.12,2.94-.02.27.1.37.37.34.64-.14,1.41-.38,2.09-.44,2.17-.37,4.14.61,2.65,3.03-.09.2-.2.43-.08.62,4.07,2.65,7.43,6.33,8.82,11.15,2.12,6.9.54,15.23-5.38,19.82-.27.28-.24.57-.04.87,1.71,2.41,2.99,5.17,3.45,8.12.47,2.94.07,6.23-1.86,8.62-.31.41-.45.88-.44,1.39.05,6.4-3,12.37-3.83,18.65-.34,3.31-1.16,5.28-4.81,5.75l-.13.04Z"/>
    <g>
      <g>
        <path class="cls-5" d="M57.4,45.29c.08.04.15.08.22.13s.13.1.17.16c1.62,2.45,2.81,5.42,2.97,8.31.09.58,0,1.21-.08,1.79-1.41,4.61-6.93,7.45-11.51,5.7-.04-.02-.08-.06-.12-.11s-.07-.1-.1-.16c.45-.51.6-1.22.27-1.91.99-.58,1.26-1.77.61-2.75.66-.51.74-1.31.48-2.04-.13-.23-.03-.31.2-.39,2.06-.15,3.32-1.78,2.75-3.78-.15,0-.28,0-.33.12l-.38.74c-.28.3-1.02.77-1.36.4-.13-.14-.94-3.24-.99-3.6-.06-.25-.07-.55.19-.69,2.06-.49,4.06-1.21,6.03-1.95.28-.09.81-.25.97.03Z"/>
        <path class="cls-2" d="M60.69,55.69c-.62,5.31-5.9,8.36-10.9,7.12-.75-.19-1.42-.46-2.05-1,.47-.15.91-.34,1.22-.69,4.41,1.82,9.63-.59,11.44-5,.09-.21.07-.4.28-.43Z"/>
        <path class="cls-1" d="M57.94,45.21c1.64,2.46,2.88,5.69,2.82,8.69l-.09-.59c-.46-2.88-1.69-5.58-3.27-8.02.16,0,.33-.09.54-.08Z"/>
        <path class="cls-1" d="M50.31,54.42l-.46-.63c.55-.06,1.02-.15,1.51-.31,1.38-.47,2.15-1.83,1.9-3.23.36.81.39,1.89-.21,2.67s-1.5,1.17-2.43,1.27c-.17.02-.26.11-.31.23Z"/>
        <g>
          <path class="cls-5" d="M57.9,64.02c.11.83.05,1.68-.17,2.55l-1.02,4.54-.78,2.58-.39,1.04c-.64,2.32-1.19,4.63-1.66,6.94-.36,1.05-1.09,2.25-2.31,2.42-.14.02-.23.03-.33-.1-.09-.67-.37-1.3-.87-1.79-.57-.56-1.29-.71-2.04-.4-.64-.7-1.59-.86-2.38-.36-.59-.41-1.26-.34-1.87-.09-.07-.07-.13-.15-.19-.23s-.1-.16-.13-.25c-.73-2.27-1.53-5.07-1.06-7.4.27-.18.24-.18-.07,0-3.75.51-7.57.22-11.23-.69l1.2,1.53c1.18,1.81,1.21,2.66.85,4.96-.28,1.77-.59,3.28-2.33,3.97-.35.14-1.05.41-1.3.11-.12-.81-.48-1.59-1.15-2.12-.52-.36-1.12-.45-1.7-.19-.58-.7-1.46-.91-2.26-.51-.19-.12-.33-.25-.57-.27-.19-2.61-.56-5.24-1.08-7.9-.23-1.28-.38-2.57-.44-3.87l.08-.4c.05-.17.16-.18.3-.09,2.68,2.04,5.96,3.41,9.38,3.41,3.57-.11,6.79-.22,10.09-2.21,1.95-1.17,3.53-2.75,4.99-4.37l.2-.12c3.25,1.3,6.82,1.04,9.86-.68l.41-.03Z"/>
          <path class="cls-2" d="M58.22,63.84c-.07.29-.18.34-.32.17-3.15,1.86-6.83,2.3-10.25.86l-1.19,1.27c-2.68,2.87-6.19,5-10.17,5.24l-3.14.19c-3.59.22-7.06-1.07-9.92-3.16-.21-.15-.31-.29-.56-.3-.24-.08-.46-.32-.57-.55l-.12-2.03.63.44c.47.57.93,1.06,1.58,1.46,1.95,1.21,4.1,2.05,6.38,2.42,1.26.17,2.43.19,3.66-.12,2.74.26,5.42-.5,7.81-1.85.96-.59,1.83-1.19,2.52-2.08,1.19-.7,2.1-1.69,2.87-2.9,3.34,2,7.81,1.38,10.87-.95l-.11,1.89Z"/>
          <path class="cls-2" d="M44.08,81.35l-.53.4-1.87-7.03c-2.84.23-5.56-.13-8.4-.69.63.79,1.5.97,2.31,1.32-.42,2.31-.83,4.57-1.47,6.81-.56,1.93-2.4,2.09-4.32,2.26.07-.39.07-.72.02-1.06,1.12-.08,2.41-.6,2.85-1.77.59-1.57.82-3.28.77-4.95-.02-.86-.58-1.53-.98-2.23l-1.5-1.92c3.93,1.03,7.94,1.35,11.99.76-.26.86-.31,1.65-.18,2.52.28,1.92.78,3.74,1.32,5.57Z"/>
          <path class="cls-2" d="M55.93,73.69c-.66,2.28-1.04,4.58-1.46,6.96-.45,2.59-.41,3.84-3.2,4.33l-.02-.99c1.3-.24,2.2-1.15,2.49-2.46l.86-3.88c.31-1.4.66-2.75,1.34-3.96Z"/>
          <path class="cls-7" d="M28.89,83.95l-.1.23c-.39.25-.79.46-1.21.65-.41.05-.81.09-1.21-.1-.21-.97.12-2.02.83-2.71.26-.25.7-.22.94,0,.54.5.8,1.2.75,1.93Z"/>
          <path class="cls-1" d="M22.68,68.12c.26,2.97.81,5.89,1.28,8.87.18,1.14.35,2.19.16,3.29l-.55-3.23c-.62-3.17-1.17-6.31-1.47-9.48.28.1.54.28.57.55Z"/>
          <path class="cls-7" d="M25.44,84.6c-.46.19-.99.16-1.4-.14-.35-1.26.6-3.26,1.56-3.17.25.02.56.17.68.41-.63.84-.97,1.78-.84,2.9Z"/>
          <path class="cls-7" d="M24.06,81.22c-1.36,1.45-.48,2.81-1.76,2.91-.43-1.02,0-2.23.86-2.87.27-.2.59-.2.9-.05Z"/>
          <path class="cls-1" d="M56.71,71.1s-.11-.12-.07-.23c.66-2.25,1.07-4.52,1.26-6.86l.32-.17c-.14,2.35-.82,5.02-1.51,7.26Z"/>
          <path class="cls-1" d="M28.89,83.95c-.01.15.08.5-.09.59-.36.2-.82.24-1.22.28.38-.37.83-.7,1.31-.88Z"/>
          <g>
            <path class="cls-7" d="M50.32,84.37c-.18.57-.93.94-1.47,1.16-.34.07-.66.11-.99-.08-.17-.9.06-1.85.63-2.56.31-.39.82-.4,1.17-.08.45.42.6.96.66,1.55Z"/>
            <path class="cls-7" d="M46.89,85.01l-.59.44c-.18.13-.78.02-.85-.23-.34-1.24.47-3.16,1.51-3.12.27,0,.56.16.72.38-.55.73-.79,1.57-.79,2.54Z"/>
            <path class="cls-7" d="M44.48,85.03c-.43.16-.59-.25-.94-.35-.19-.87.11-1.81.83-2.37.28-.22.64-.3.95-.15-.64.81-.91,1.78-.84,2.87Z"/>
            <path class="cls-1" d="M48.85,85.53l1.47-1.16c.02.19.1.6-.11.74-.4.26-.91.34-1.36.42Z"/>
          </g>
        </g>
        <g>
          <path class="cls-8" d="M43.36,58.86c-.13,1.38,1.62,2.18,2.97,2.71.11.23.18.42.38.66-.68,1.14-1.52,2.21-2.74,2.83-1.9,2.33-5.82,3.83-8.8,3.73-.75-.03-1.29.05-2.02.14-1.85.25-3.82-.16-5.5-.94-.39-.18-.62-.29-1.03-.41-1.28-.4-2.49-1.2-3.33-2.3-2.08-1.33-3.62-3.43-4.09-5.93-.11-.58-.47-1.08-.34-1.66,1.1-.2,2.15-.55,2.88-1.31.13.11.12.3,0,.45-.45,1.01-1.68,1.23-1.87,1.58-.37.67,1.06,3.98,2.67,4.48.31-.15.65-.13.91.07.38.12.31.52.39.87.35,1.54,2.74,2.8,4.26,2.24.61,1.01,1.69,1.39,2.83,1.49,1.01.09,1.97.09,2.84-.51.71.28,1.37.43,2.09.37.64-.09,1.23-.34,1.57-.9-.1-.16-.26-.36-.08-.55,1.72.81,3.92.17,4.87-1.46.21-.37.24-.61.7-.72.94-.23,1.71-.93,2.09-1.86-1.22-.64-2.35-2.02-1.63-3.06Z"/>
          <path class="cls-5" d="M21.67,43.61c-.7.66-1.12,1.55-1.71,2.35-.71.96-1.11,2.05-1.45,3.22-.73.05-1.37.4-1.75.91-.44.6-.48,1.29-.18,1.95-.87.74-.93,1.98-.16,2.79-.56.77-.39,1.67.16,2.33-.23.31-.85.08-1.19-.05-.93-.36-1.47-.98-1.85-1.87-.04-.23-.15-.47-.12-.72l-.05-.12v-.16s.02-.11.02-.11c.28-4.58,4.32-8.1,7.89-10.7.24-.08.41-.13.39.18Z"/>
          <path class="cls-8" d="M48.14,52.98c.76-1.58.06-4.29-1.61-4.84.84-1.24.04-2.23-.76-3.36-.68-.52-1.34-.77-2.21-.75l-.15-.18-.65-.49c-.64-.48-1.07-1.08-1.09-1.86v-.54c.98.55,1.71,1.4,2.31,2.39l1.68.67c1.14.87,2.08,2.14,2.5,3.52.15.5.18.83.49,1.28.81,1.16.95,2.63.99,4.07-.52.17-.99.16-1.49.1Z"/>
          <path class="cls-1" d="M21.67,43.61c-.23-.17-.36.02-.54.15-3.47,2.56-6.86,5.59-7.66,10.03l.05.38s-.07.09-.16.07c-.08-2.96,1.38-5.49,3.49-7.59,1.96-1.94,4.2-3.57,6.73-4.84l-1.92,1.8Z"/>
          <path class="cls-7" d="M21.32,54.09c-.84-.03-1.69-.09-2.54-.17-.59.01-1.16.09-1.73.22-.29-.32-.32-.74-.12-1.12.59-1.18,4.39-.64,4.63.65.04.21-.09.3-.24.42Z"/>
          <path class="cls-7" d="M20.92,51.91c-1.14-.48-2.31-.58-3.49-.26-.3-.52-.03-1.23.57-1.44,1.86-.64,3.96.91,3.52,1.57-.12.18-.34.24-.61.12Z"/>
          <path class="cls-2" d="M16.58,57.16c.35.32.74.54,1.25.63l.15,1.25c-2.29-.05-4.05-1.65-4.44-3.8.17.04.21.19.3.34.59.97,1.63,1.59,2.74,1.58Z"/>
          <path class="cls-7" d="M20.7,56.02c-.95.3-1.97.52-3.07.66l-.35-.12c-.29-.31-.51-1.07.03-1.31,1.48-.66,4.41-.16,3.39.77Z"/>
          <path class="cls-1" d="M20.7,56.02c-.55.5-1.39.53-2.1.77-.54.19-.91.21-1.32-.23,1.02-.16,2.01-.28,2.98-.6.17-.06.34-.15.43.05Z"/>
          <path class="cls-1" d="M21.32,54.09c-.71.56-1.68-.51-4.01.18-.13.04-.18-.05-.25-.13.02-.03.02-.08.04-.11.17-.3,3.12-.31,4.22.06Z"/>
          <g>
            <path class="cls-7" d="M46.66,57.85c-.53-.22-1.12-.3-1.77-.24-.18-.02-.35-.09-.51-.18-.85-.85,1.62-1.93,4.21-.8.4.18.66.48.67.86.05.41-.11.75-.51.95-.65-.44-1.36-.49-2.09-.59Z"/>
            <path class="cls-7" d="M49.16,55.87c-1.24-.61-2.59-.78-3.94-.52-.17.03-.4-.18-.41-.31-.11-1.05,4.23-1.94,4.69-.12.08.33,0,.69-.34.95Z"/>
            <path class="cls-7" d="M48.06,60.67l-.5.08c-1.02-.28-2-.66-2.92-1.15-.18-.17-.37-.31-.31-.57.14-.67,2.51-.44,3.92.37.25.14.26.49.23.72s-.21.4-.4.55Z"/>
            <path class="cls-1" d="M48.06,60.67c-.38.31-.78.32-1.21.12-.77-.36-1.59-.62-2.21-1.19.11-.08.2-.06.3,0,1.02.47,2.04.9,3.12,1.08Z"/>
            <path class="cls-1" d="M46.66,57.85c-.55-.07-1.08-.17-1.64-.09-.29.04-.47-.15-.64-.33l1.9.13c.21.02.4.12.38.29Z"/>
          </g>
          <path class="cls-1" d="M13.42,54.51s-.05-.08-.05-.12l.05.12Z"/>
          <g>
            <path class="cls-3" d="M41.66,41.5l.18.15c.19.85.71,1.51,1.57,1.99v.21c.19.18.48.28.85.29.56.1,1.06.32,1.5.64l.23.02c.69.93,1.47,2.06.81,3.22,1.62.94,2.2,3.16,1.56,4.89l-.22.08c-1.28-.15-2.69.06-3.68.91-.61.52-.82,1.24-.35,1.86-.34.29-.6.53-.82.82v.18s0,.06,0,.06c-.23.53-.04,1.09.18,1.59l-.09.33v.13c-.31,1.05.32,1.91,1.12,2.54.72.43.79.53.3,1.26-.52.77-1.25,1.13-2.11,1.41-.97,1.99-3.16,2.95-5.25,2.14.14.22.16.29.04.53-.49,1.04-2.85,1.04-3.71.47-1.64,1.03-4.58.7-5.76-.93-1.66.4-3.63-.61-4.28-2.19-.08-.8-.31-1.33-1.19-1.03-1.4-.47-2.51-2.39-2.82-3.77-.09-.38-.18-.86.16-1.14.93-.38,1.55-.98,1.86-1.77.14-.28.29-.62.17-.92l.02-.19c.24-.21.39-.5.47-.87.2-.59.18-1.2-.36-1.75.55-.36.68-1.02.39-1.61-.45-.9-1.35-1.52-2.3-1.73-.13-.07-.15-.14-.15-.26-.01-.7.84-1.66,1.42-2,.04-1.16,1.1-2.38,1.93-3.16.56-.53,2.08-1.65,2.8-1.72.26-.03.36.06.39.3,1.87-2.23,5.1-2.78,7.89-2.41,2.46-.5,4.87,0,7.08,1.18l.18.29Z"/>
            <g>
              <path class="cls-5" d="M41.67,40.96c.19.17.28.46-.01.54-1.99-1.04-4.3-1.8-6.58-1.36-.64.12-1,.08-1.66,0-1.98-.23-4.11.39-5.78,1.42l-1.33,1.35.02-.65c-1.96.64-3.5,2.06-4.51,3.82-.19.33-.31.61-.19,1.01-.84.49-1.47,1.29-1.51,2.2l-.55-.13.55-1.48c.16-.43.21-.91.64-1.19s.6-.71.86-1.14c1.11-1.83,2.82-3.22,4.92-3.75,2.15-1.63,4.87-2.37,7.6-1.97,2.61-.58,5.28.03,7.54,1.33Z"/>
              <path class="cls-8" d="M21.91,55.45l-.2-.46.68-.6c.19.37-.11.96-.49,1.06Z"/>
              <circle class="cls-9" cx="38.45" cy="59.41" r="1.93"/>
              <path class="cls-9" d="M32.09,45.07c.17.39-.52,1.2-.93,1.07-.96.4-2.14.27-2.71-.69-.46-.78-.2-1.74.43-2.29s1.58-.66,2.32-.24c.78.43,1.1,1.28.88,2.15Z"/>
              <path class="cls-9" d="M26.01,49.64c.29.18-.38.85-.57,1l-.19-.02-.91.21c-.81.09-1.56-.33-1.9-.98-.38-.73-.18-1.58.38-2.16.65-.66,1.61-.76,2.38-.32s1.1,1.4.81,2.27Z"/>
              <circle class="cls-9" cx="32.58" cy="53.45" r="1.9"/>
              <circle class="cls-9" cx="30.7" cy="63.94" r="1.74"/>
              <circle class="cls-9" cx="38.94" cy="44.66" r="1.73"/>
              <path class="cls-5" d="M31.17,46.14c.42-.27.71-.64.93-1.07l1.18-.4c.69-.29,1.95-.03,1.86.56-1.05-.28-1.75.52-1.94.3l-.27-.31c-.72.43-1.15,1.09-1.65,1.82l-.1-.89Z"/>
              <path class="cls-5" d="M34.2,49.03c.08-.24.33-.27.74-.08.17-.07.31-.07.43,0,.56.19,1.1.41,1.65.76-.34.29-.73.4-1.11.42-.63-1.03-1.64-.32-1.76-.72-.03-.1.06-.27.05-.38Z"/>
              <path class="cls-5" d="M25.25,50.63c.2-.35.63-.57.77-.99.42-.08.81-.13,1.31-.02-.83.5-1.44,1.2-2.14,1.95-.09-.26-.07-.7.07-.94Z"/>
              <path class="cls-5" d="M35.76,41.58c0,.06.14.12.19.15.06.03.02.12-.03.15l-.23.13c-1.11-.14-1.5.3-1.78-.16-.29.14-.57.25-.88.11.24-.37.63-.23.91-.35.05-.09.12-.19.2-.24.27-.14,1.44-.09,1.61.2Z"/>
              <path class="cls-8" d="M41.67,63.11c-.17.51-.75.87-1.15.55-.29-.23.26-1,.81-.94.15.01.42.15.34.39Z"/>
              <path class="cls-5" d="M45.76,44.78c-.77-.2-1.48-.55-2.31-.58-.1,0-.09-.28-.05-.34,1.17.06,1.76.08,2.36.92Z"/>
              <path class="cls-8" d="M35.76,41.58c-.63-.02-1.23-.23-1.81.03.05-.57.62-.7,1.14-.66.41.04.67.32.67.62Z"/>
              <path class="cls-5" d="M33.6,59.98c-.23.26-1.57.07-1.31-.49-.06-.07-.07-.17-.02-.25.06-.1.19-.12.29-.05,0-.05.17.09.08.33.29-.17.47-.23.64-.09.13.1.49.35.32.55Z"/>
              <path class="cls-8" d="M37.43,64.91c-.3.54-.91.8-1.42.45.24-.52.89-.9,1.42-.45Z"/>
              <path class="cls-2" d="M35.37,48.96c-.14.11-.32.2-.53.16-.21-.11-.43-.14-.63-.08-.02-.21-.02-.42.17-.56.18-.14.35-.11.6-.03.28.09.44.24.4.52Z"/>
              <path class="cls-5" d="M25.9,44.12c.09.04.21.03.31.2-.61.23-1.07.55-1.59.97-.07-.3.08-.5.18-.66-.04-.1-.01-.21.04-.3.1-.15.97-.51,1.05-.21Z"/>
              <path class="cls-8" d="M27.31,59.48c.06-.11.1-.23.14-.35.6-.41,1.24-.03,1.65.42,0,0,.04.02.06.03.1.07-.02.19-.09.08,0,0-.01-.03-.04-.01-.55-.23-1.09-.31-1.73-.16Z"/>
              <path class="cls-8" d="M25.9,44.12c-.4.09-.86.14-1.1.51-.24-.31,0-.7.35-.85.19-.08.37-.12.55-.03.12.06.19.21.2.37Z"/>
              <g>
                <path class="cls-9" d="M43.1,52.74c-1.17.62-2.56.18-3.31-.81-.45-1.14-.21-2.25.72-2.94s2.15-.59,2.99.19c.54.5.8,1.13.73,1.88-.06.66-.47,1.22-1.13,1.68Z"/>
                <path class="cls-4" d="M41.72,49.53c.02.3-.37.59-.71.55-.13-.01-.31-.15-.28-.37.03-.2.52-.49.78-.46.13.01.21.16.21.28Z"/>
              </g>
              <g>
                <path class="cls-9" d="M27.45,59.13c.18.14.13.26-.14.35-.19.38-.49.7-.85.93-.5.6-1.71.65-2.24.08-1.08-.56-1.53-1.86-1.04-2.97s1.77-1.64,2.9-1.21,1.74,1.67,1.38,2.83Z"/>
                <path class="cls-8" d="M24.21,60.49c.71.37,1.56.34,2.24-.08-.12.82-2.21.77-2.24.08Z"/>
                <path class="cls-4" d="M25.11,57.21c-.02.24-.44.56-.77.46-.11-.03-.24-.17-.22-.35.01-.16.47-.44.78-.41.11.01.23.12.22.29Z"/>
              </g>
              <g>
                <path class="cls-8" d="M43.37,58.73c.03-.3-.66-1.04-.08-1.92-.1.49.04,1.01.51,1.36l-.43.56Z"/>
                <path class="cls-8" d="M43.29,56.74v-.18s.06.07.05.11c0,.03-.03.05-.05.07Z"/>
              </g>
            </g>
          </g>
        </g>
      </g>
      <g>
        <path class="cls-5" d="M48.52,8.91l-.61,1.14c-.07.13-.1.27-.04.37.2.33.64.03.88.07l2.94-.75c2.1-.46,2.85-.08,2.27,1.16-.62.92-1.28,1.26-1.13,1.57.12.25.85-.07,1.51.56-.06.17-.25.22-.55.16,5.71,3.56,9.51,9.77,9.69,16.57-.05,1.38-.27,2.73-.59,4.06-.23.4-.43.86-.58,1.38-2.75,5.29-8.27,8.62-14.06,9.63-.08.01-.16,0-.24-.01s-.17-.04-.26-.07l-1.11-1.23.42-.28c1.2-.32,2.37-.74,3.48-1.29l.49-.06.23-.32c2.58-1.46,4.52-3.86,5.35-6.7l.26-.29-.04-.6c1.42-6.23-2.12-12.71-8.59-13.88-2.98-.54-5.73.24-8.24,1.87-1.29-1.94-2.89-3.4-5.15-4.07-6.45-1.91-12.11,3.82-12.86,9.98l-.21.58.15.36c-.14,2.93.99,5.8,2.9,7.99l.1.37c.5.27.96.64,1.37,1.11.57.42,1.05.9,1.44,1.43l-.93.58c-.07,0-.15.01-.22,0s-.13-.02-.19-.05c-2.18-1.2-3.74-3.04-4.98-5.1-.97-1.94-1.58-4.1-1.54-6.27.32-5.26,3.12-10.67,7.31-13.97,4.02-3.16,8.84-4.25,13.81-4.9,2.36-.51,4.58-1.56,6.53-2.93,1.47-.66,1.29.87,1,1.82Z"/>
        <path class="cls-2" d="M62.88,33.81c-.91,3.83-3.29,7.12-6.67,9.2-1.28.79-2.56,1.39-3.97,2.16,1.72.05,3.2-.69,4.65-1.41.41.45.72.98,1.04,1.46-.05.26-.39.28-.54.08-.37.01-.78.07-1.19.23-1.9.73-3.76,1.38-5.75,1.85-.18.04-.11.49-.05.6l.92,3.47c.53.12.81-.33,1.22-.34-.4.77-.99,1.45-1.93,1.6-.07-1.65-.3-3.25-1.31-4.56-.19-1.28-.79-2.38-1.57-3.41,4.52-.84,8.59-2.57,11.77-5.95,1.33-1.42,2.41-2.96,3.12-4.76.06-.14.09-.22.25-.22Z"/>
        <path class="cls-1" d="M48.52,8.91c-.26-.19.55-1.3-.26-1.78-.27-.16-.67.12-.91.29-2.42,1.67-5.07,2.7-8,3.07-7.55.94-13.91,4.12-17.31,11.18-.91,1.9-1.6,3.85-2.01,5.92l-.17,1.31c.01-4.76,1.9-9.46,5.25-12.9,3.76-3.86,8.99-5.63,14.27-6.24,2.58-.3,4.94-1.09,7.13-2.48l1.51-.82c.18-.1.41-.06.57.02.49.26.28,1.77-.08,2.43Z"/>
        <path class="cls-1" d="M54.34,13.02c6.01,3.3,9.37,9.88,9.13,16.72-.25-3-1.1-5.97-2.52-8.71-1.85-3.56-4.42-5.87-7.74-8.06l1.13.04Z"/>
        <path class="cls-1" d="M53.95,10.89c.1-.33.2-1.05-.29-1.11-1.77-.22-4.07.82-4.91.7,1.22-.79,5.39-1.88,5.64-.84.12.48-.21.91-.44,1.25Z"/>
        <path class="cls-2" d="M26.8,40.3c-.15.09-.53.37-.7.26-2.01-1.38-3.62-3.26-4.69-5.4.35.24.5.65.75,1.01,1.21,1.76,2.85,3.06,4.63,4.13Z"/>
        <g>
          <g>
            <path class="cls-4" d="M56.86,34.57c-.81,3.16-2.95,5.79-5.84,7.32-.23-1.32-.89-2.47-1.77-3.48-1.77-2.06-3.67-2.63-5.08-3.91s-1.97-3.2-1.29-5.06c.62-1.69,2.21-2.88,4.14-2.96,1.4-.06,2.72.34,3.98,1.02,2.81,1.53,4.8,4.09,5.86,7.08Z"/>
            <path class="cls-9" d="M49.32,33.2c-.87-1.31-2.43-1.78-3.87-1.2-.28.12-.65-.06-.73-.33-.06-.21.03-.57.3-.76,1.79-1.25,4.38-.4,5.26,1.6.12.28-.02.63-.21.76s-.58.19-.76-.08Z"/>
          </g>
          <g>
            <path class="cls-4" d="M24.92,37.18c-2.17-2.35-3.42-5.52-3.15-8.72,1.86-3.08,5.64-5.51,9.27-4.8,1.41.27,2.61,1.11,3.19,2.44.61,1.42.45,2.97-.38,4.39-1.58,2.74-4.71,1.81-7.14,4.03-.82.75-1.49,1.57-1.78,2.66Z"/>
            <path class="cls-9" d="M31.4,29.56c-1-.97-2.49-.93-3.57-.13-.25.19-.6.21-.82.02-.73-.63.85-2.13,2.65-2.1,1.92.03,3.2,1.57,2.68,2.23-.24.3-.64.27-.94-.02Z"/>
          </g>
          <path class="cls-7" d="M56.86,34.57l-.29-.29c-1.23-4.08-7.18-9.45-11.54-7.08-3.19,1.74-2.88,6.16.18,7.88,2.46,1.46,5.33,3.5,5.93,6.5,0,.04,0,.1-.03.15-.02.06-.05.11-.09.16-1.37.72-2.85,1.25-4.39,1.63-.59-.4-1.2-.71-1.99-.85-.86-1.49-2.15-2.5-3.73-3.18-2.17-.93-4.49-1.34-6.82-.81-2.23-.33-4.37.14-6.37,1.05-1.01-.78-1.96-1.62-2.81-2.54l-.1-.27c.72-1.99,2.51-3.42,4.5-4,2.66-.59,4.97-1.76,5.09-4.85.08-1.99-1.17-3.68-3.1-4.16-3.61-.89-7.34,1.46-9.26,4.42l-.29.14c.25-2.93,1.43-5.68,3.45-7.87,1.37-1.43,3.01-2.45,4.93-2.94,3.86-.99,7.89.66,9.88,4.18,5.14-3.75,12.3-2.28,15.6,3.16,1.75,2.88,2.08,6.33,1.24,9.58Z"/>
        </g>
      </g>
    </g>
  </g>
  <path class="cls-9" d="M35.09,34.73c2.84,1.87,4.95.62,5.37,1.07.13.14.16.56-.01.68-1.96,1.35-4.55.85-6-1.02-.15-.2-.17-.44-.04-.67.1-.16.47-.21.69-.07Z"/>
  <g>
    <path class="cls-9" d="M40.49,32.82c-.63.81-1.72,1.16-2.67,1.01-1.62-.26-2.85-1.77-2.29-2.78s3.24-.69,4.6.09c.62.36.83,1.07.36,1.68Z"/>
    <path class="cls-6" d="M39.29,31.5c-.09.69-2.39.16-2.13-.36.21-.42,2.18-.02,2.13.36Z"/>
  </g>
</svg>