<?xml version="1.0" encoding="UTF-8"?>
<svg id="Vrstva_1" data-name="Vrstva 1" xmlns="http://www.w3.org/2000/svg" viewBox="0 0 32.97 44.59">
  <defs>
    <style>
      .cls-1 {
        fill: #373d3a;
      }

      .cls-2 {
        fill: #68aa31;
      }

      .cls-3 {
        opacity: .5;
      }
    </style>
  </defs>
  <g class="cls-3">
    <path class="cls-2" d="M19.28,43.05c-6.64,3.38-14.2,1.37-17.73-7.85-.91-2.37-.77-5.09-.01-7.51.83-2.65,2.72-4.83,4.83-6.63,2.11-1.8,4.47-3.29,6.6-5.06,2.13-1.77,4.07-3.91,5-6.52.92-2.61.64-5.78-1.24-7.81,6.88,2.46,12.54,8.11,15,14.98,1.39,3.87,1.78,8.21.4,12.08-1.15,3.23-3.42,5.91-5.72,8.45-2.08,2.3-4.34,4.49-7.11,5.9Z"/>
  </g>
  <path class="cls-1" d="M26.74,34.71c1.97-2.78,3.97-5.78,4.74-9.2.86-3.76.19-8.09-1.86-12.2-1.6-3.2-3.97-6.1-6.85-8.4-.05-.04-.1-.08-.15-.12C19.67,2.47,16.24.82,12.69,0c-.17-.04-.35.04-.43.2-.08.16-.04.35.09.46.94.8,1.63,1.93,1.98,3.27.33,1.25.35,2.66.06,3.97-.51,2.26-1.84,4.51-4.09,6.89-.9.95-1.88,1.87-2.83,2.76-1.05.98-2.13,1.98-3.12,3.06-2.31,2.5-3.65,4.91-4.11,7.35-.52,2.82-.19,5.56.94,7.71.98,1.86,2.14,3.43,3.43,4.69-.88.62-1.77,1.2-2.68,1.75-.18.11-.24.34-.13.53.02.04.05.07.09.1.12.1.3.11.44.03.97-.58,1.93-1.21,2.86-1.87.15.13.31.26.46.39,1.38,1.1,2.89,1.86,4.5,2.27,3.3.84,6.9.11,10.12-2.05,2.74-1.83,4.8-4.46,6.46-6.8ZM19.85,40.87c-3.04,2.03-6.42,2.72-9.51,1.94-1.63-.41-3.14-1.22-4.52-2.38.95-.7,1.87-1.44,2.77-2.21,2,.16,4.05-.32,5.78-1.35,1.79-1.08,3.22-2.73,4.01-4.67.08-.2-.01-.42-.21-.5-.2-.08-.42.01-.5.21-.73,1.79-2.04,3.31-3.69,4.3-1.36.82-2.95,1.26-4.55,1.27,2.25-2.04,4.33-4.31,6.15-6.75.72-.96,1.4-1.95,2.04-2.96,1.76-.78,3.41-1.95,4.77-3.38,1.36-1.44,2.45-3.16,3.13-4.97.07-.2-.03-.42-.22-.49-.2-.07-.42.03-.49.22-.65,1.72-1.67,3.35-2.97,4.71-1.01,1.07-2.19,1.98-3.46,2.68,2.23-3.76,3.93-7.81,5-11.93.05-.2-.07-.41-.27-.47-.2-.05-.41.07-.47.27-1.04,4.01-2.69,7.94-4.84,11.6-.49-.89-.7-2.1-.64-3.67.08-2.23.51-4.42,1.28-6.52.07-.2-.03-.42-.23-.49-.2-.07-.42.03-.49.23-.8,2.17-1.24,4.44-1.33,6.75-.07,1.93.24,3.39.96,4.44-.74,1.21-1.54,2.38-2.38,3.51-1.55,2.08-3.29,4.03-5.16,5.81-.09-3.51,1.05-7.05,3.2-9.82.13-.17.1-.4-.06-.53,0,0,0,0,0,0-.17-.13-.41-.1-.54.07-2.39,3.08-3.6,7.07-3.33,10.97-1.23,1.12-2.51,2.17-3.83,3.14-1.27-1.21-2.41-2.75-3.38-4.59-1.05-2-1.36-4.56-.87-7.21.43-2.3,1.71-4.58,3.92-6.97.97-1.05,2.04-2.05,3.08-3.02.96-.89,1.95-1.82,2.87-2.79,2.35-2.48,3.75-4.85,4.28-7.25.57-2.57.05-5.17-1.34-6.99,2.98.86,5.85,2.34,8.35,4.3,2.86,2.25,5.21,5.1,6.78,8.26,1.98,3.95,2.61,8.1,1.8,11.69-.75,3.28-2.69,6.21-4.62,8.93-1.62,2.28-3.63,4.84-6.26,6.6Z"/>
</svg>