<?xml version="1.0" encoding="UTF-8"?>
<svg id="Vrstva_1" data-name="Vrstva 1" xmlns="http://www.w3.org/2000/svg" viewBox="0 0 202.95 137.29">
  <defs>
    <style>
      .cls-1 {
        fill: #68aa31;
      }

      .cls-2 {
        fill: #fff;
      }
    </style>
  </defs>
  <path class="cls-1" d="M185.09,47.65h-7.8c.82-1.08,1.45-2.5,1.73-4.34.49-3.19-.11-5.57-1.23-7.23,2.35-.36,5.87-2.1,5.87-9.22,0-2.74-1.05-9.1-10.72-9.1h-.28c-1.26,0-3.28.05-5.26.11-1.06.03-2.1.06-3.01.08-.14-.2-.29-.4-.45-.59-2.43-2.85-5.27-3.18-7.19-3.18-.2,0-.41,0-.63,0-.13,0-.25,0-.37,0-3.36,0-6.09,1.68-7.49,4.62-.07.15-.14.31-.2.47-1.63-.97-3.6-1.5-5.65-1.5-1.57,0-3.02.32-4.28.89-1.34-.58-2.87-.89-4.52-.89-2.35,0-4.04.78-5.27,1.96-1.06-2.78-3.69-5.57-9.2-5.57-2.27,0-4.76.79-6.48,2.74-1.13-.39-2.28-.59-3.32-.59-.11,0-.45.01-.82.04h-.2c-1.37.06-2.67.53-3.75,1.34-1.79-2.31-5.02-3.5-8.22-3.5-2.2,0-4.79.91-6.45,3.25-1.69-.72-3.58-1.12-5.57-1.12-4.93,0-8.77,2.26-11.59,5.79-3.15-4.78-7.58-5.79-10.76-5.79-5.17,0-9.4,2.41-12.28,6.67v-.05c0-3.25-2.07-8.75-9.8-8.75-2.75,0-5.82,1.16-7.44,4.13-1.38-.36-2.88-.55-4.49-.55-8.73,0-15.57,6.57-15.57,14.97,0,4.2,1.54,7.47,3.37,10.11-2.76,1.48-5.12,4.14-5.12,7.59,0,2.23.87,4.2,1.76,6.02l.16.34c2.64,5.63,7.56,8.86,13.49,8.86,3,0,5.73-.81,8.03-2.23.46.45.88.8,1.2,1.04.82.62,1.77,1.03,2.78,1.21.91.17,3.92.46,4.93.46.13,0,10.06-.06,16.32-.68.44,4.52,1.09,5.21,2.24,6.43,1.7,1.78,3.96,2.76,6.36,2.76,1.44,0,2.89-.35,4.33-1.05,2.82-.9,4.34-3.66,4.54-8.25.02-.55.05-1.17.07-1.84,1.86.88,3.92,1.35,6.15,1.35,1.8,0,3.44-.3,4.93-.83v4.62h18.28l.76,1.69c.12.27.26.54.42.79.82,1.31,2.73,3.5,6.35,3.5h.1c3.9,0,8.05-2.24,9.4-5.99h22.74v-3.17c3.99-.18,4.52-.35,5.47-.82.05-.03.11-.05.16-.08.86.4,1.86.63,3.01.63h3.01c.43,0,.85-.04,1.27-.12.36-.07.7-.17,1.03-.29,1.05.69,2.28,1.06,3.54,1.08,1.06.01,2.96.02,5.28.02,5.09,0,17.33-.05,20.96-.45,3.34-.31,7.25-2.97,7.25-9.48,0-8.3-8.95-8.3-11.89-8.3ZM85.34,38.28s0-.03,0-.05l.04.02s-.03.02-.04.03Z"/>
  <path class="cls-2" d="M185.09,54.24c3.56,0,5.3.15,5.3,1.7,0,1.1-.15,2.81-1.25,2.91-4.06.45-21.4.45-25.56.4-1.1-.85-1.65-2.31-1.65-3.66v-28.99c0-.25.2-1.75.85-2.06,2.26,0,7.47-.2,9.87-.2s4.41-.05,4.41,2.51c0,.3-.15,2.71-.4,2.71l-9.82.05v9.17c1.7.2,3.51.45,5.26.8.8.25.55,4.26-.4,4.26h-4.86v10.4M20.54,48.1c1.7,0,3.21,5.86,5.31,5.86,1.55,0,3.46-.7,3.46-2.51,0-1.6-1.1-3.91-2.21-5.01-3.01-4.66-8.12-7.77-8.12-13.73,0-5.01,4.21-8.37,8.97-8.37,3.66,0,6.92,1.4,6.92,5.41,0,1.25-.1,2.15-1.8,2.15-2.56,0-2.41-2.56-4.86-2.56-2.1,0-4.11,1.6-4.11,3.71,0,5.51,10.32,10.17,10.32,17.34,0,4.76-3.31,8.62-8.37,8.62-3.56,0-6.01-1.85-7.52-5.06-.4-.85-1.3-2.51-1.3-3.56s2.36-2.31,3.31-2.31ZM37.89,57.4V23.38c0-1.65.3-2.61,2-2.61,1.55,0,3.21.25,3.21,2.15v31.32h17.59c.75.2,1.4.75,1.4,1.85s-.35,2.26-1.1,2.56c-.5.25-15.99.85-17.99.85-.6,0-3.21-.25-3.76-.35-.4-.3-1.35-1.25-1.35-1.75ZM61.97,22.9c7.57,0,8.02,11.08,8.02,16.34.3,4.51.45,11.23.45,11.78,0,2-.1,16.28-.45,16.28-1.3.8-2.61,1.1-3.66,0-.8-.85-1.1-18.28-1.15-19.99l-7.77.65c0,2.36.09.67.09,2.92,0,.5-.15,1.5-.85,1.5h-3.21c-1.7,0-1.34-7.69-1.34-12.45v-.65c0-6.36,2-16.39,9.87-16.39ZM57.41,42.49l7.77-.45c-.15-4.26,0-13.33-3.26-13.38-4.91-.1-5.11,6.42-4.51,13.83ZM84.32,22.9c4.01,0,7.12,2.96,7.12,6.92,0,1.15-.05,2.86-1.6,2.86-4.06,0-1.7-5.11-5.51-4.91-5.01,0-5.81,10.68-5.81,14.28,0,3.16.85,11.28,5.31,11.28,2.96.25,3.86-8.87,5.51-9.77.15-.05,2.06.1,2.66,1.2,0,.2.05,1.1.05,1.3,0,5.41-2.66,12.18-9.02,12.18-7.72,0-9.72-9.57-9.72-15.69s2.36-19.65,11.03-19.65ZM99.25,45.1c-.25,5.66-.65,13.93-1.2,13.93-.92,0-1.84,0-2.76.01-.09,0-.32.05-.55-.06-.22-.11-.39-.32-.54-.68-.29-.71-.27-1.33-.27-1.33s.06-1.61.3-9.83c0,0,.02-.82.07-2.45.02-.85.05-1.69.07-2.54.02-.86.05-1.72.07-2.58.02-.86.05-1.71.07-2.57.02-.84.04-1.67.07-2.51.02-.8.04-1.6.06-2.4.02-.75.04-1.5.06-2.25.02-.68.04-1.36.05-2.04.02-.6.03-1.19.05-1.79.01-.49.03-.99.04-1.48.01-.38.02-.75.03-1.13,0-.24.01-.49.02-.73,0-.09,0-.19,0-.28.15-.95.4-1.6,1.45-1.6.45,0,3.06.4,3.06,1.2l-.4,16.31c4.01-3.91,6.17-10.57,9.53-15.34.15,0,.7-.05.8-.05,1.1,0,3.31.95,3.31,2.41,0,1-4.12,7.87-6.87,11.33l-.45.75c-.05.05,1.65,5.46,2.05,6.31,1.9,4.16,6.7,14.8,8.51,19.06.35.85,1.25,2.11,1.25,3.26,0,1.3-2.31,2-3.26,2h-.1c-.35,0-.5,0-.75-.4l-11.36-25.32c-.05,0-1.75,2-2.41,2.81ZM117.12,57.4V23.35c0-1.65.3-2.61,2-2.61,1.55,0,3.21.25,3.21,2.15v31.35h26.04c.75.2,1.4.75,1.4,1.85s-.35,2.26-1.1,2.56c-.5.25-24.43.85-26.44.85-.6,0-3.21-.25-3.76-.35-.4-.3-1.35-1.25-1.35-1.75ZM136.91,26.15c0,9.82-.2,14.77-.8,25.04-.4.95-1,1.2-2.01,1.2h-.1c-.7,0-2.76,0-2.76-.75l.45-20.98c.05-2.81.15-6.32,1.9-6.32,1.35,0,2.86.45,3.31,1.8ZM139.91,25.81c0-1.7,3.71-1.95,5.21-.55,3.31,3.11,7.52,16.38,9.12,20.24v-1.45c0-.55-.05-1.15-.05-1.75-.1-5.71-.2-16.51,0-20.67.33-.7.77-.91,1.84-.85,1.5-.04,2.11-.04,2.87.85,0,9.12-.5,22.73-.5,31.85,0,1.15.05,2.36.05,3.51,0,.65-.55,1.55-.8,1.6h-3.01c-1.1,0-2.61-5.36-3.06-6.42-2.06-4.61-4.86-15.38-7.06-19.09-.3,4.51.6,16.45-.25,18.75-1.25.9-3.76.6-4.36,0v-26.02Z"/>
  <g>
    <path class="cls-2" d="M166.04,78.55c-.07-2.44-.17-4.32-.3-5.74-.73-7.9-5.32-9.08-7.99-9.08h-2.83c-3.72,0-6.94,2.34-8.18,5.69-1.67-.93-3.67-1.47-5.82-1.47-.69,0-1.28.06-1.82.12-1.82.16-3.51.96-4.82,2.3-.67.68-1.2,1.41-1.61,2.32-1.47-.49-3-.74-4.5-.74-2.94,0-6.76.67-10.1,3.39-2.9-2.81-6.97-4.48-11.67-4.48-3.5,0-6.14.52-8.15,1.32-1.62-1.03-3.64-1.59-5.99-1.59-.59,0-1.16.05-1.71.14-2.29-4.89-6.71-5.38-8.38-5.38-4.81,0-9.67,3.59-9.67,10.44,0,1.37-.01,4.02-.02,6.81-.01,3.1-.02,6.35-.02,8.21,0,5.1.06,11.75.57,17.85.38,4.98,4.31,8.6,9.33,8.6.58,0,1.17-.05,1.75-.15,1.05,3.33,4.18,6.13,9.26,6.13h.41c5.21,0,7.9-3.54,8.63-6.58.07-.31.12-.63.15-.95,1.55-.11,2.85-.42,3.91-.88,3.09,4.3,5.55,6.18,9.04,6.18,2.21,0,4.63-.89,6.53-2.47,1.48.45,3,.66,4.5.66,3.92,0,7.43-1.45,10.16-4.18.37-.37.71-.75,1.03-1.15,3.7,3.75,8.13,4.33,10.42,4.33,3.74,0,12.83-1.35,16.4-13.86,1.6-5.61,1.6-11.65,1.6-15.25,0-1.92,0-6.42-.12-10.53Z"/>
    <path class="cls-1" d="M154.92,63.72h2.83c2.67,0,7.26,1.18,7.99,9.09.13,1.42.23,3.3.3,5.74.12,4.11.12,8.61.12,10.53,0,3.6,0,9.64-1.6,15.25-3.56,12.51-12.65,13.86-16.4,13.86-2.3,0-6.72-.58-10.42-4.33-.33.4-.67.78-1.03,1.15-2.73,2.73-6.24,4.18-10.16,4.18-1.5,0-3.02-.21-4.5-.66-1.91,1.58-4.33,2.47-6.53,2.47-3.49,0-5.95-1.88-9.04-6.18-1.06.45-2.36.76-3.91.88-.03.32-.08.63-.15.95-.72,3.04-3.42,6.59-8.63,6.59h-.41c-5.08,0-8.22-2.81-9.26-6.14-.58.1-1.17.15-1.75.15-5.02,0-8.95-3.62-9.33-8.6-.5-6.1-.57-12.75-.57-17.85,0-1.86.01-5.11.02-8.21.01-2.78.02-5.44.02-6.81,0-6.85,4.87-10.44,9.67-10.44,1.67,0,6.08.49,8.38,5.38.55-.09,1.12-.14,1.71-.14,2.35,0,4.37.56,5.99,1.59,2.01-.8,4.65-1.32,8.15-1.32,4.71,0,8.77,1.67,11.67,4.48,3.34-2.72,7.16-3.39,10.1-3.39,1.51,0,3.03.24,4.5.74.41-.92.94-1.64,1.61-2.32,1.31-1.33,3-2.13,4.82-2.3.54-.06,1.14-.12,1.82-.12,2.15,0,4.15.54,5.82,1.47,1.24-3.35,4.46-5.69,8.18-5.69M154.93,59.84h0c-3.89,0-7.5,1.81-9.85,4.75-1.34-.35-2.73-.53-4.14-.53-.87,0-1.6.07-2.21.14-2.72.25-5.27,1.47-7.2,3.44-.21.21-.4.42-.59.64-.91-.14-1.83-.21-2.76-.21-3.62,0-6.98.84-9.88,2.46-3.36-2.3-7.48-3.54-11.89-3.54-2.92,0-5.54.33-7.81.99-1.77-.79-3.75-1.21-5.91-1.25-3.52-4.83-8.79-5.25-10.5-5.25-6.57,0-13.55,5.02-13.55,14.32,0,1.19,0,3.37-.02,5.75v1.04s0,.74,0,.74c-.01,2.87-.02,5.77-.02,7.48,0,5.18.07,11.92.58,18.17.52,6.82,5.76,11.85,12.55,12.15,2.33,3.76,6.56,5.99,11.66,5.99h.35c5.95,0,9.92-3.41,11.69-7.34,2.52,2.88,5.62,5.11,10.09,5.11,2.5,0,5.09-.77,7.33-2.16,1.21.23,2.45.35,3.7.35,4.3,0,8.22-1.38,11.45-4,3.89,2.56,7.87,3.01,10.17,3.01,3.61,0,15.72-1.2,20.13-16.68,1.75-6.13,1.75-12.51,1.75-16.31,0-1.94,0-6.48-.12-10.64-.07-2.53-.17-4.49-.31-5.99-1.08-11.7-9.34-12.61-11.85-12.61h-2.83Z"/>
  </g>
  <g>
    <path class="cls-1" d="M79.97,90.85c0-3.53.05-12.12.05-15.02s1.76-2.94,2.17-2.94c2.31,0,2.31,3.89,2.31,5.52,0,1.99.09,11.94.36,15.15l3.26-.36c.18,0,2.44-.27,2.53-.36v-12.84c0-1.36.45-1.85,1.63-1.85,1.81,0,2.58.41,2.8,2.22.05,1.4.36,7.78.36,9.18,0,6.87.09,20.45-.32,25.42-.23.95-1.18.81-1.76.81s-2.13-.09-2.13-1.18l-.05-16.65s-.36-.27-.54-.36c-1.31,0-5.56.77-5.97.77h-.05l.09,9.94c0,.37-.17.73-.49.92-.55.35-1.24.58-1.86.58-.95,0-1.76-.5-1.85-1.67-.45-5.52-.54-11.62-.54-17.27Z"/>
    <path class="cls-1" d="M99.26,86.1c0-2.08,0-3.26.36-5.56.27-1.94,5.38-2.13,6.78-2.13,5.11,0,8.86,3.3,8.86,8.55,0,5.65-3.89,6.6-7.78,7.15,2.13,3.57,8.57,13.97,10.47,17.64-.14.95-1.58,1.81-2.44,1.81-1.76,0-10.52-14.73-11.86-18.7,0,0,0,0,0,0,.18,9.47.32,12.13.36,12.72,0,0,0,0,0,0-.32.68-2.03.72-2.71.72-.81,0-1.04-.27-1.36-1.09-.59-7.05-.68-14.06-.68-21.12ZM103.78,82.93v7.68s0,0,0,0c1.54,0,7.05-.5,7.32-3.3.27-2.94-2.31-4.75-5.11-4.75-.41,0-2.22.18-2.22.36Z"/>
    <path class="cls-1" d="M128.17,79.5c6.29,0,7.37,7.19,7.37,12.26,0,4.52.27,19.99-9,19.99-7.42,0-8.59-8.28-8.59-13.7,0-6.47.72-18.54,10.22-18.54ZM122.29,97.04c0,5.38,1.36,10.4,4.25,10.4,3.21,0,4.93-7.01,4.93-13.39,0-5.29-1.18-10.17-3.71-10.22-3.57,0-5.47,6.87-5.47,13.2Z"/>
    <path class="cls-1" d="M139.8,75.58c.41-.05.77-.09,1.13-.09,2.26,0,3.12,1.27,3.12,1.49-.14,2.76-.23,11.19-.23,15.45,0,5.7.9,13.84,4.66,13.84,4.75,0,5.34-11.21,5.34-17.68,0-1.98-.03-3.97-.06-5.95s-.11-7.27-.07-9.25c0-.37,0-.72.04-1.06.07-.6.59-1.05,1.2-1.05.94,0,1.88,0,2.83,0,.9,0,.9,14.15.9,17.86,0,6.38,0,21.61-10.49,21.61-9.27,0-9.18-14.47-9.18-20.26,0-1.27-.45-14.9.81-14.9Z"/>
  </g>
</svg>