<?xml version="1.0" encoding="UTF-8"?>
<svg id="Vrstva_1" data-name="Vrstva 1" xmlns="http://www.w3.org/2000/svg" viewBox="0 0 79.37 79.37">
  <defs>
    <style>
      .cls-1 {
        fill: #e0bda6;
      }

      .cls-2 {
        fill: #ead1c0;
      }

      .cls-3 {
        fill: #e3bba1;
      }

      .cls-4 {
        fill: #eccfbc;
      }

      .cls-5 {
        fill: #621410;
      }

      .cls-6 {
        fill: #ecc18e;
      }

      .cls-7 {
        fill: #fff;
      }

      .cls-8 {
        fill: #bd8560;
      }

      .cls-9 {
        fill: #957560;
      }

      .cls-10 {
        fill: #b17b7e;
      }

      .cls-11 {
        fill: #9d9d9c;
      }

      .cls-12 {
        fill: #8080b9;
      }

      .cls-13 {
        fill: #dfc2b0;
      }

      .cls-14 {
        fill: #b6dbc2;
      }

      .cls-15 {
        fill: #feede5;
      }
    </style>
  </defs>
  <path class="cls-11" d="M64.94,71.91c0-2.22-12.21-4.03-27.26-4.03s-27.26,1.8-27.26,4.03,12.21,4.03,27.26,4.03,27.26-1.8,27.26-4.03"/>
  <path class="cls-7" d="M61.96,66.38c3.51,2.55,4.24,4.81,2.72,5.3-2.26.72-8.16.34-10.18-.04,0,0,3.53-8.11,7.46-5.25"/>
  <path class="cls-5" d="M55.07,71.33c2.28.33,7.47.62,9.49-.03.37-.12.45-.33.47-.48.12-.77-.85-2.34-3.3-4.12-.69-.5-1.39-.65-2.12-.45-2.14.58-3.93,3.86-4.54,5.08M60.56,72.46c-2.39,0-4.96-.23-6.14-.45-.12-.02-.22-.1-.27-.2-.06-.11-.06-.23-.01-.34.09-.21,2.28-5.17,5.26-5.98.97-.26,1.91-.07,2.79.57,2.47,1.79,3.82,3.61,3.61,4.88-.09.53-.44.92-1,1.1-.97.31-2.56.42-4.23.42"/>
  <path class="cls-7" d="M61.96,66.38c3.51,2.55,4.24,4.81,2.72,5.3-2.26.72-8.16.34-10.18-.04,0,0,3.53-8.11,7.46-5.25"/>
  <path class="cls-5" d="M55.07,71.33c2.28.33,7.47.62,9.49-.03.37-.12.45-.33.47-.48.12-.77-.85-2.34-3.3-4.12-.69-.5-1.39-.65-2.12-.45-2.14.58-3.93,3.86-4.54,5.08M60.56,72.46c-2.39,0-4.96-.23-6.14-.45-.12-.02-.22-.1-.27-.2-.06-.11-.06-.23-.01-.34.09-.21,2.28-5.17,5.26-5.98.97-.26,1.91-.07,2.79.57,2.47,1.79,3.82,3.61,3.61,4.88-.09.53-.44.92-1,1.1-.97.31-2.56.42-4.23.42"/>
  <path class="cls-7" d="M61.96,66.38c3.51,2.55,4.24,4.81,2.72,5.3-2.26.72-8.16.34-10.18-.04,0,0,3.53-8.11,7.46-5.25"/>
  <path class="cls-5" d="M55.07,71.33c2.28.33,7.47.62,9.49-.03.37-.12.45-.33.47-.48.12-.77-.85-2.34-3.3-4.12-.69-.5-1.39-.65-2.12-.45-2.14.58-3.93,3.86-4.54,5.08M60.56,72.46c-2.39,0-4.96-.23-6.14-.45-.12-.02-.22-.1-.27-.2-.06-.11-.06-.23-.01-.34.09-.21,2.28-5.17,5.26-5.98.97-.26,1.91-.07,2.79.57,2.47,1.79,3.82,3.61,3.61,4.88-.09.53-.44.92-1,1.1-.97.31-2.56.42-4.23.42"/>
  <path class="cls-6" d="M47.16,45.7c-3.03,11.99-3.04,21.73,2.65,24.76,2.98,1.59,11.24,2.89,12.72.56.94-1.49.5-5.5-4.01-7.17-2.81-1.04-3.68-2.33-4.06-3.14-.75-1.6-1.98-7.49-2.87-14.15l-4.43-.86"/>
  <path class="cls-14" d="M61.15,65.44s0,0,0,0c0,0,0,0,0,0M61.15,65.43c-.66-.62-1.52-1.18-2.63-1.59-2.48-.92-3.45-2.04-3.9-2.84.45.8,1.42,1.92,3.9,2.84,1.11.41,1.97.97,2.63,1.59M54.31,60.35c-.59-1.56-1.41-5.28-2.14-9.81h0c.73,4.52,1.55,8.25,2.13,9.81"/>
  <path class="cls-2" d="M62.5,71.06c.41-1.81-.48-4.94-4.33-6.37-2.81-1.04-3.68-2.33-4.06-3.14-.63-1.35-1.59-5.71-2.42-11h.09c.13,0,.26,0,.39,0,.73,4.52,1.55,8.25,2.14,9.81.05.13.1.25.15.35.04.09.09.19.15.3.45.8,1.42,1.92,3.9,2.84,1.11.41,1.97.96,2.63,1.59,0,0,0,0,0,0,0,0,0,0,0,0,2.01,1.91,2.09,4.46,1.37,5.58,0,.01-.02.03-.03.04"/>
  <path class="cls-8" d="M62.53,71.02c-1.48,2.33-9.73,1.03-12.72-.56-5.69-3.03-5.68-12.77-2.65-24.76l.27.05c-2.23,10.49-1.77,18.78,3.4,21.53,2.66,1.42,9.52,2.61,12.02,1.19.2,1.03.04,1.97-.32,2.54"/>
  <path class="cls-5" d="M58.39,72.67c-.62,0-1.2-.04-1.69-.08-2.66-.24-5.5-.96-7.07-1.8-2.83-1.5-4.44-4.64-4.8-9.33-.32-4.14.34-9.47,1.95-15.86.05-.21.27-.34.47-.28.21.05.34.27.28.47-2.34,9.25-3.81,20.98,2.46,24.32,3.12,1.66,10.97,2.65,12.21.7.35-.55.52-1.66.1-2.9-.32-.95-1.26-2.7-3.92-3.69-2.21-.82-3.6-1.91-4.27-3.34-.8-1.71-2.02-7.71-2.9-14.26-.03-.21.12-.41.34-.44.21-.03.41.12.44.33.86,6.38,2.08,12.41,2.84,14.03.21.45.86,1.84,3.84,2.94,2.97,1.1,4.02,3.09,4.39,4.17.44,1.31.37,2.71-.18,3.57-.74,1.17-2.73,1.45-4.47,1.45h0Z"/>
  <path class="cls-5" d="M56.38,66.35c-.2,0-.36-.15-.39-.35-.33-2.8-2.56-4.47-4.49-4.61-2.05-.15-3.66,1.23-4.33,3.7-.06.21-.27.33-.48.28-.21-.06-.33-.27-.28-.48.77-2.86,2.69-4.46,5.14-4.28,2.64.2,4.88,2.47,5.21,5.3.02.21-.13.41-.34.43-.02,0-.03,0-.05,0h0Z"/>
  <path class="cls-7" d="M58.29,67.36c-.22-2.92-.73-7.09-1.98-7.67-1.66-.77-4.61,2.86-4.67,6.25-.03,1.92,6.84,3.91,6.65,1.41"/>
  <path class="cls-7" d="M58.29,67.36c.11,1.43-2.11,1.39-4.01.73-1.41-.49-2.65-1.32-2.64-2.14,0-.27.03-.54.07-.8.45-3.13,3.07-6.16,4.61-5.45,1.24.58,1.76,4.74,1.98,7.67"/>
  <path class="cls-5" d="M54.38,68.2c-.2,0-.36-.15-.39-.35-.54-4.71,1.11-8.25,1.18-8.39.09-.19.33-.28.52-.19.19.09.28.33.19.52-.02.04-1.62,3.49-1.11,7.97.02.21-.13.41-.34.43-.01,0-.03,0-.04,0h0Z"/>
  <path class="cls-5" d="M56.08,69.28s-.06,0-.09-.01c-.21-.05-.34-.26-.29-.47,1.03-4.41.43-8.88.43-8.92-.03-.21.12-.41.33-.44.21-.03.41.12.44.33.03.19.62,4.65-.44,9.2-.04.18-.2.3-.38.3h0Z"/>
  <path class="cls-5" d="M55.82,59.98c-.31,0-.63.15-.87.3-1.38.86-2.88,3.35-2.92,5.67,0,.35.45.83,1.19,1.24,1.53.85,3.68,1.21,4.43.73.19-.12.27-.29.25-.54-.48-6.28-1.46-7.21-1.75-7.34-.1-.05-.21-.07-.33-.07h0ZM56.61,68.92c-1.19,0-2.68-.43-3.77-1.04-1.05-.59-1.6-1.26-1.59-1.94.05-2.66,1.74-5.35,3.29-6.32.71-.44,1.38-.54,1.94-.28.41.19,1.66.77,2.2,7.99.04.53-.17.98-.61,1.25-.36.23-.88.33-1.46.33h0Z"/>
  <path class="cls-6" d="M58.25,68.32c-.22,1.38-.84,2.6-1.51,3.42-1.27,1.45-4.05,1.27-7.07,1.09-3.02-.18-8.15-1.05-10.88-4.84l2.41-.5,10.61-2.2c.84-1.52,2.05-1.91,3.78-1.67,1.32.18,2.34,1.06,2.59,2.16.2.87.2,1.73.07,2.54"/>
  <path class="cls-8" d="M58.25,68.32c-.22,1.38-.84,2.6-1.51,3.42-1.27,1.45-4.05,1.27-7.07,1.09-3.02-.18-8.15-1.05-10.88-4.84l2.41-.5c6.38,5.29,10.52-.73,10.52-.73,0,0,.17,4.07,3.34,3.71,1.71-.19,2.71-1.37,3.19-2.15"/>
  <path class="cls-5" d="M39.1,67.76c.92,1.25,2.17,2.22,3.57,2.92,1.4.7,2.93,1.14,4.49,1.41.78.13,1.57.23,2.36.28.8.05,1.61.1,2.4.12.79.02,1.59.01,2.35-.1.75-.11,1.48-.33,1.98-.79.07-.06.12-.11.17-.18l.17-.22.16-.23c.05-.08.1-.16.15-.24.2-.32.37-.67.51-1.02.14-.35.25-.72.34-1.09.08-.37.13-.75.16-1.13,0-.09,0-.19,0-.28v-.14s0-.14,0-.14c0-.09,0-.19-.01-.28l-.03-.28c0-.09-.03-.19-.05-.28-.02-.09-.03-.19-.05-.27-.04-.16-.1-.32-.18-.47-.31-.6-.93-1.05-1.61-1.24-.09-.02-.17-.05-.26-.06-.09-.01-.17-.03-.27-.04-.19-.03-.38-.04-.57-.05-.37-.01-.74.02-1.08.11-.68.17-1.21.67-1.59,1.31-.05.08-.09.16-.13.24-.04.08-.08.17-.11.25-.03.09-.07.17-.1.26-.03.09-.06.18-.09.27-.11.37-.2.75-.27,1.13-.07.38-.13.77-.18,1.16-.05.39-.08.78-.11,1.17h0c0,.11-.1.2-.21.19-.08,0-.15-.06-.18-.14-.12-.41-.17-.83-.18-1.25-.01-.42.02-.84.09-1.25.07-.41.16-.82.28-1.23.03-.1.07-.2.1-.3.03-.1.08-.2.11-.3.04-.1.08-.2.13-.3.05-.1.1-.2.16-.29.22-.38.49-.74.84-1.04.17-.15.37-.28.57-.4.1-.05.21-.1.31-.15.11-.04.22-.08.33-.11.44-.13.89-.16,1.32-.15.22,0,.43.02.64.05.1,0,.22.03.33.05.11.02.22.05.33.08.43.13.85.32,1.22.6.19.13.35.3.51.47.15.18.29.37.4.58.11.21.2.43.26.66.03.11.04.21.07.32.02.11.04.21.05.32l.04.32c0,.11.01.21.02.32v.16s0,.16,0,.16c0,.11,0,.21,0,.32-.02.43-.08.85-.17,1.27-.1.42-.22.83-.37,1.22-.16.4-.35.78-.57,1.15-.06.09-.11.18-.17.27l-.19.27-.2.26c-.08.09-.16.18-.25.26-.17.16-.36.3-.56.41-.2.11-.41.21-.62.29-.42.16-.84.25-1.27.31-.84.12-1.67.12-2.49.1-.82-.02-1.63-.07-2.44-.12-.82-.06-1.64-.15-2.45-.29-1.62-.29-3.23-.77-4.72-1.53-.37-.19-.73-.4-1.09-.63-.35-.23-.69-.48-1.02-.74-.33-.26-.63-.56-.92-.86-.29-.31-.55-.64-.8-.98-.13-.17-.09-.42.08-.55.17-.13.42-.09.55.08h0Z"/>
  <path class="cls-7" d="M56.27,69.03c-.13.99-.85,1.69-1.61,1.56-.75-.13-1.25-1.03-1.12-2.03.13-.99.85-1.69,1.61-1.56.75.13,1.25,1.03,1.12,2.03"/>
  <path class="cls-7" d="M54.07,66.43c-.09.38-.39.63-.68.54-.29-.08-.45-.46-.36-.84.09-.38.39-.63.68-.54.29.08.45.46.36.84"/>
  <path class="cls-7" d="M55.81,65.82c-.09.38-.39.63-.68.54-.29-.08-.45-.46-.36-.84.09-.38.39-.63.68-.54.29.08.45.46.36.84"/>
  <path class="cls-7" d="M57.26,66.95c-.09.38-.38.61-.66.53-.28-.08-.44-.45-.35-.83.08-.38.38-.61.66-.53.28.08.44.45.35.83"/>
  <path class="cls-6" d="M25.22,57.19s-.98.77-2.58.19c-1.3-.47-3.16-2.49-3.85.07-1.15,4.27,3.23,7.65,6.32,7.9,3.09.26.12-8.17.12-8.17"/>
  <path class="cls-2" d="M22.88,58.58c-.11-.03-.22-.06-.33-.1-.82-.29-1.86-1.2-2.69-1.2-.26,0-.51.09-.71.32,0-.02,0-.03.01-.05.14-.53.34-.85.58-.94.06-.03.14-.04.21-.04.41,0,.97.33,1.48.63.37.22.73.43,1.07.55.19.07.38.12.55.16-.06.23-.12.45-.18.68"/>
  <path class="cls-8" d="M25.1,65.36c-2.79-.23-6.64-3.02-6.5-6.7,1.31,1.92,3.62,3.19,5.47,3.35,1.74.15,1.56-2.46,1.07-4.76.05-.03.08-.05.08-.05,0,0,2.97,8.43-.12,8.17"/>
  <path class="cls-5" d="M19.95,56.57c-.08,0-.15.01-.21.04-.24.1-.43.42-.58.94-.5,1.86.18,3.37.84,4.3,1.18,1.68,3.29,2.96,5.14,3.11.39.03.56-.13.66-.25.78-1.01-.03-4.64-.8-6.97-.49.21-1.36.4-2.5,0-.35-.12-.7-.33-1.07-.55-.51-.3-1.07-.63-1.48-.63M25.23,65.75c-.05,0-.11,0-.17,0-2.06-.17-4.41-1.59-5.71-3.44-1.08-1.54-1.41-3.25-.95-4.96.21-.79.55-1.27,1.03-1.46.76-.31,1.62.19,2.38.64.34.2.67.39.94.49,1.37.49,2.18-.11,2.21-.13.1-.08.23-.1.35-.06.12.04.22.13.26.24.23.65,2.19,6.37.82,8.14-.28.37-.69.56-1.18.56"/>
  <path class="cls-6" d="M51.54,69.23c-4.53,7.06-21.47,4.64-25.8.6-6.03-5.63-2.08-15.08,3.85-24.37.86-1.35,1.77-2.7,2.69-4.04l19.19,6.76c-.19.91-.23,1.91-.18,2.93.18,3.62,1.56,7.55,1.93,9.17.89,3.92-.15,6.57-1.68,8.94"/>
  <path class="cls-8" d="M52.58,67.35c-.3.65-.66,1.27-1.04,1.88-4.53,7.06-21.47,4.64-25.8.6-1.66-1.55-2.56-3.38-2.88-5.42.14.14.27.27.42.41,3.21,2.99,12.54,2.46,20.34,2.09,1.46-.07,2.04,1.88,3.55,2.34,3.19.96,3.92-.56,5.41-1.9"/>
  <path class="cls-8" d="M51.29,51.11c-2.22.37-4.63.47-7.13.26-6.14-.51-11.43-2.81-14.57-5.92.86-1.35,1.77-2.7,2.69-4.04l19.19,6.76c-.19.91-.23,1.91-.18,2.93"/>
  <path class="cls-5" d="M39.87,74.1c-5.68,0-11.86-1.63-14.4-3.99-1.71-1.6-2.73-3.59-3.03-5.92-.27-2.08.03-4.49.89-7.17,1.78-5.57,5.78-11.7,8.64-15.83.12-.18.37-.22.54-.1.18.12.22.37.1.54-2.83,4.08-6.79,10.15-8.54,15.62-1.73,5.43-1.1,9.45,1.94,12.28,2.55,2.38,10.37,4.43,17,3.6,2.76-.35,6.43-1.34,8.21-4.12,1.38-2.15,2.53-4.68,1.63-8.65-.09-.39-.24-.93-.42-1.55-.76-2.71-2.04-7.25-1.33-10.71.04-.21.25-.35.46-.3.21.04.35.25.3.46-.68,3.27.57,7.7,1.32,10.34.18.64.33,1.18.43,1.59.97,4.26-.33,7.06-1.73,9.24-1.54,2.4-4.57,3.95-8.77,4.48-1.04.13-2.13.19-3.23.19"/>
  <path class="cls-6" d="M67.68,40.41c-2.75,9.99-13.94,11.99-26.14,8.64-12.2-3.36-20.79-10.81-18.04-20.8,2.64-9.58,11.86-18.8,26.12-15.83,1.93-.4,4.64-1.26,6.54-3.12.6-.58,1.59-.2,1.64.63.06,1.11,0,2.52-1.15,4.06,2.13-.39,4.27-.92,5.04-1.3.82-.41,1.73.36,1.46,1.23-.26.84-1.07,2.57-1.84,3.98,6.99,6.01,8.41,15.16,6.39,22.51"/>
  <path class="cls-8" d="M41.54,49.04c-12.2-3.36-20.79-10.81-18.04-20.8.26-.93.57-1.85.95-2.77-2.75,9.99,5.84,17.44,18.04,20.79,11.23,3.09,21.6,1.64,25.33-6.4-.04.18-.09.36-.14.54-2.75,9.99-13.94,11.99-26.14,8.64"/>
  <path class="cls-14" d="M26.49,21.61s0,0,0,0h0M26.49,21.61c3.59-5.51,9.67-9.76,17.83-9.76,1.68,0,3.44.18,5.3.56,1.93-.4,4.64-1.26,6.54-3.12.2-.19.44-.28.67-.28.07,0,.14,0,.21.02-.07-.01-.14-.02-.21-.02-.24,0-.48.09-.67.28-1.9,1.86-4.61,2.73-6.54,3.12-1.85-.38-3.62-.56-5.29-.56-8.16,0-14.23,4.25-17.83,9.76M62.98,19.52c-.52-.56-1.08-1.1-1.68-1.62,0,0,0,0,0,0,.6.52,1.16,1.06,1.68,1.62M56.64,13.98s0,0,0,0c2.13-.39,4.27-.92,5.04-1.3.16-.08.31-.11.47-.11.32,0,.61.15.8.38-.19-.23-.49-.38-.8-.38-.15,0-.31.04-.47.11-.76.38-2.91.9-5.04,1.3M57.8,10.01s0-.06,0-.09c0-.08-.02-.16-.04-.23.02.07.03.15.04.23,0,.03,0,.06,0,.09"/>
  <path class="cls-4" d="M66.82,41.66c1.81-6.88.22-15.81-5.72-21.8-.68-.69-.85-1.74-.39-2.59.51-.97.97-1.88,1.14-2.44.18-.59,0-.88-.39-.88-.19,0-.43.07-.69.2-.6.3-2.04.68-3.66,1.03-.04,0-.09.01-.13.01-.43,0-.76-.45-.57-.87.5-1.09.52-2.1.47-2.92-.03-.48-.17-.79-.45-.79-.21,0-.49.16-.87.53-1.26,1.24-3.03,1.87-4.64,2.27-.78.19-1.58.28-2.38.28-.52,0-1.04-.04-1.56-.11-1.23-.18-2.42-.26-3.57-.26-7.97,0-13.95,4.05-17.57,9.38.21-.36.43-.73.66-1.08h0s0,0,0,0c3.6-5.51,9.67-9.76,17.83-9.76,1.68,0,3.44.18,5.29.56,1.93-.4,4.64-1.26,6.54-3.12.2-.19.44-.28.67-.28.07,0,.14,0,.21.02.33.07.61.31.72.66.02.07.03.15.04.23,0,.03,0,.06,0,.09.05,1.09-.03,2.47-1.16,3.96h0s0,0,0,0c2.13-.39,4.27-.92,5.04-1.3.16-.08.31-.11.47-.11.32,0,.61.15.8.38.21.25.3.6.18.96-.26.84-1.07,2.57-1.84,3.98h0c.6.52,1.16,1.06,1.68,1.62,5.38,5.79,6.49,13.74,4.84,20.36-.29.63-.63,1.23-1.01,1.78"/>
  <path class="cls-13" d="M65.6,44.79c.47-.88.86-1.85,1.15-2.91.02-.07.04-.15.06-.22.37-.55.71-1.15,1.01-1.78-.04.18-.09.36-.14.53-.46,1.69-1.17,3.14-2.08,4.39"/>
  <path class="cls-15" d="M63.69,37.85c-.8,2.91-2.55,5.8-5.86,7.5-3.38,1.73-8.4,2.22-15.72.2h0c-7.24-1.99-11.3-4.94-13.34-8.12-2.04-3.18-2.07-6.6-1.26-9.54.16-.6.38-1.17.63-1.72,2.23-4.82,7.68-7.46,12.96-6.01,2.89.8,5.2,2.67,6.6,5.07,2.43-1.34,5.38-1.77,8.27-.98,5.22,1.44,8.53,6.39,8.08,11.59h0c-.06.66-.17,1.33-.36,2"/>
  <path class="cls-5" d="M48.12,34.27c-.25.91-1.76,1.66-3.25,1.25-1.49-.41-2.4-1.83-2.15-2.74.25-.91,1.56-.95,3.05-.54,1.49.41,2.59,1.12,2.34,2.03"/>
  <path class="cls-10" d="M46.07,33.6c-.17,0-.37-.02-.57-.08-.61-.17-1.03-.56-.97-.77.03-.1.16-.14.35-.14.22,0,.51.05.84.14.61.17,1.07.39,1.02.6-.04.14-.31.24-.66.24"/>
  <path class="cls-5" d="M36.27,47.45c-2.3-.77-4.49-1.89-6.48-3.31-.99-.71-1.94-1.5-2.81-2.36-.87-.87-1.66-1.82-2.32-2.87-.66-1.04-1.21-2.17-1.56-3.37-.36-1.19-.55-2.44-.54-3.68,0-1.24.18-2.48.5-3.68.32-1.18.73-2.34,1.23-3.46,1-2.24,2.34-4.32,3.97-6.15,1.63-1.83,3.57-3.4,5.72-4.58,2.16-1.18,4.53-1.96,6.96-2.31,1.21-.17,2.44-.25,3.66-.24,1.22.02,2.44.15,3.65.33.21.03.36.23.33.44-.03.21-.23.36-.44.33h0c-1.17-.17-2.36-.27-3.54-.28-1.18,0-2.36.07-3.53.25-2.33.35-4.6,1.12-6.66,2.25-2.07,1.13-3.92,2.64-5.49,4.4-1.57,1.76-2.86,3.77-3.82,5.93-.48,1.08-.89,2.19-1.2,3.33-.31,1.13-.48,2.29-.49,3.45-.02,1.16.16,2.32.49,3.44.32,1.12.83,2.18,1.45,3.17.62.99,1.37,1.9,2.2,2.74.83.84,1.74,1.6,2.7,2.29.96.69,1.97,1.32,3.01,1.91,1.03.59,2.09,1.14,3.16,1.68h0c.1.05.13.17.09.26-.04.09-.15.13-.24.1"/>
  <path class="cls-5" d="M61.49,17.54c.79.67,1.53,1.39,2.21,2.16.68.78,1.31,1.6,1.86,2.47,1.12,1.74,1.97,3.65,2.53,5.63.56,1.99.85,4.05.86,6.11.02,2.06-.23,4.13-.73,6.13-.25,1-.59,2-1.05,2.94-.45.94-1.02,1.83-1.69,2.64-.67.81-1.44,1.53-2.28,2.14-.84.62-1.76,1.13-2.71,1.55-1.91.84-3.95,1.29-5.99,1.49-2.05.2-4.12.15-6.12-.25-.11-.02-.18-.12-.15-.23.02-.09.1-.16.19-.16h0c2.02.01,4.02.05,6-.15,1.98-.2,3.94-.65,5.74-1.45,1.8-.8,3.44-1.96,4.67-3.48.62-.76,1.14-1.59,1.56-2.47.11-.22.2-.45.3-.67.1-.22.18-.46.26-.69.09-.23.15-.47.22-.7.08-.23.13-.48.2-.72.97-3.85.96-7.96-.12-11.79-.54-1.91-1.34-3.75-2.4-5.42-1.06-1.68-2.38-3.19-3.88-4.49h0c-.16-.14-.18-.39-.04-.55.14-.16.38-.18.55-.04"/>
  <path class="cls-9" d="M41.84,32c-1.32,3.03-4.07,3.07-7.75,3.49-2.31.26-4.09,1.11-5.32,1.94-2.04-3.18-2.07-6.6-1.26-9.54.16-.6.38-1.17.63-1.72,2.51-1.49,6.14-2.59,10.44-.84,3.15,1.29,4.22,4.48,3.27,6.66"/>
  <path class="cls-9" d="M63.69,37.85c-.8,2.91-2.55,5.8-5.86,7.5-.64-1.33-1.73-2.92-3.54-4.29-2.95-2.25-5.29-3.69-4.87-6.97.3-2.35,2.85-4.55,6.21-4.05,4.45.67,6.98,3.32,8.4,5.82h0c-.06.66-.17,1.33-.36,2"/>
  <path class="cls-5" d="M55.9,14.34c.23-.23.44-.45.62-.69.17-.25.32-.51.44-.79.12-.28.22-.57.29-.88.07-.3.11-.62.13-.93.02-.32.02-.64,0-.96v-.12s0-.03,0-.03v-.02s0-.04,0-.04c0-.01,0-.02,0-.04v-.03s-.02-.05-.03-.07c-.04-.08-.09-.16-.17-.21-.15-.11-.37-.13-.53-.06h-.03s-.03.03-.03.03c-.02.01-.04.02-.06.04l-.03.02h-.01s0,.02,0,.02h-.01s-.1.1-.1.1l-.19.18c-.06.06-.13.11-.2.17-.26.23-.55.44-.84.64-.29.19-.59.38-.9.54-.62.33-1.27.59-1.93.8-.66.21-1.34.35-2.03.44-.34.04-.69.08-1.03.09-.17,0-.35.01-.52.01-.09,0-.17,0-.26,0-.09,0-.17,0-.27-.01-.21-.02-.38-.2-.36-.42.02-.21.19-.37.4-.36h.01c.07,0,.15,0,.23,0,.08,0,.16,0,.24,0,.16,0,.32-.02.48-.03.32-.02.64-.06.97-.11.64-.09,1.27-.25,1.89-.43,1.23-.39,2.39-.98,3.36-1.81.06-.05.12-.1.18-.15l.18-.16.09-.08.03-.02.03-.03.07-.06s.1-.07.15-.1l.08-.05.08-.04c.45-.2.99-.13,1.37.16.19.14.35.34.44.57.03.05.04.11.06.17l.02.09s0,.06.01.09v.09s.01.04.01.04v.03s0,.13,0,.13c0,.35,0,.7-.03,1.05-.06.7-.21,1.41-.54,2.07-.17.33-.39.63-.65.89-.27.26-.58.46-.91.6-.1.04-.22,0-.26-.11-.03-.08-.01-.16.04-.22h0Z"/>
  <path class="cls-5" d="M60.94,17.58c.15-.18.28-.37.41-.57.13-.2.24-.41.35-.63.22-.43.41-.88.59-1.34.09-.23.17-.46.25-.7l.12-.35.06-.18s.01-.05.02-.07c0-.02,0-.04.01-.06.03-.15,0-.29-.09-.42-.08-.12-.22-.23-.36-.27-.15-.04-.3-.03-.45.04-.23.11-.47.22-.7.32-.47.21-.96.39-1.45.55-.5.15-1.01.28-1.53.34-.52.06-1.06.07-1.59-.03-.11-.02-.17-.12-.15-.23.02-.09.1-.16.19-.16h0c.96,0,1.92-.27,2.83-.61.46-.17.91-.37,1.36-.58.22-.1.45-.22.67-.33.3-.16.68-.21,1.03-.12.34.09.64.31.84.6.2.29.29.67.23,1.03l-.03.13s-.02.09-.03.11l-.06.18-.12.37c-.08.24-.17.49-.26.73-.19.48-.4.96-.65,1.42-.13.23-.26.46-.41.68-.15.22-.32.44-.5.64-.15.16-.39.17-.55.03-.15-.14-.17-.38-.04-.54h0Z"/>
  <path class="cls-5" d="M58.71,35.96c-.08.05-.13.09-.2.12-.06.04-.13.07-.19.1-.13.07-.26.12-.39.18-.27.11-.54.19-.83.25-.57.12-1.16.14-1.75.07-.29-.04-.59-.11-.87-.2-.28-.1-.56-.21-.82-.36-.51-.29-.97-.68-1.31-1.14-.14-.19-.1-.45.09-.59.14-.1.31-.11.46-.03h.01c.44.25.86.46,1.29.63.22.08.43.15.66.21.22.06.44.1.67.13.45.06.92.08,1.39.05.24-.01.48-.04.72-.07.12-.01.24-.03.36-.05.06,0,.12-.02.18-.03.06,0,.12-.02.17-.03h.09c.23-.03.43.14.45.37.01.16-.06.3-.18.38"/>
  <path class="cls-5" d="M33.91,28.48s.08.07.13.11c.05.04.09.08.14.12.09.08.19.16.28.23.19.15.38.29.58.42.39.27.8.49,1.22.67.21.09.43.16.64.23.22.06.44.11.67.16.46.08.93.11,1.43.13h.02c.23,0,.42.21.41.44,0,.17-.11.31-.26.38-.53.22-1.12.32-1.71.31-.3,0-.59-.05-.88-.11-.29-.07-.57-.16-.85-.28-.54-.24-1.04-.56-1.47-.95-.21-.2-.41-.41-.58-.64-.09-.12-.17-.23-.25-.35-.04-.06-.08-.12-.11-.19-.04-.07-.07-.12-.11-.21-.1-.21,0-.46.2-.55.14-.07.3-.05.42.04l.07.05h0Z"/>
  <path class="cls-5" d="M45.59,37.66c-.19.71-.86,1.15-1.48.98-.63-.17-.98-.88-.78-1.59.19-.71.86-1.15,1.48-.98.63.17.98.88.78,1.59"/>
  <path class="cls-6" d="M42.72,66.42c-.66-5.67-8.36-7.89-10.2-1.03l10.2,1.03"/>
  <path class="cls-3" d="M42.72,66.42h-.03s.03,0,.03,0c-.37-3.15-2.91-5.24-5.42-5.29,2.51.05,5.05,2.13,5.42,5.29"/>
  <path class="cls-1" d="M42.72,66.42h-.03s-.2-.02-.2-.02c-.89-2.56-3.23-4.17-5.51-4.17-.83,0-1.66.21-2.4.67.07-.33.13-.66.19-1.01.75-.52,1.6-.76,2.45-.76.03,0,.06,0,.09,0,2.5.05,5.05,2.13,5.42,5.29"/>
  <path class="cls-5" d="M42.72,66.81c-.2,0-.36-.15-.39-.35-.35-3-2.73-4.78-4.8-4.93-2.19-.16-3.92,1.32-4.64,3.96-.06.21-.27.33-.48.28-.21-.06-.33-.27-.28-.48.82-3.03,2.85-4.73,5.45-4.54,2.8.21,5.17,2.62,5.52,5.62.02.21-.13.41-.34.43-.02,0-.03,0-.05,0h0Z"/>
  <path class="cls-7" d="M44.75,67.91c-.24-3.11-.78-7.55-2.11-8.16-1.77-.82-4.91,3.05-4.97,6.66-.04,2.05,7.28,4.16,7.08,1.5"/>
  <path class="cls-7" d="M44.75,67.91c.12,1.53-2.25,1.48-4.27.78-1.5-.52-2.82-1.41-2.81-2.28,0-.28.03-.57.07-.85.48-3.34,3.27-6.56,4.9-5.8,1.33.61,1.87,5.05,2.11,8.16"/>
  <path class="cls-5" d="M40.59,68.77c-.2,0-.36-.15-.39-.35-.57-5.01,1.18-8.77,1.26-8.92.09-.19.33-.28.52-.19.19.09.28.33.19.52-.02.05-1.73,3.73-1.18,8.5.02.21-.13.41-.34.43-.02,0-.03,0-.04,0h0Z"/>
  <path class="cls-5" d="M42.4,69.92s-.06,0-.09-.01c-.21-.05-.34-.26-.29-.47,1.09-4.7.46-9.46.45-9.51-.03-.21.12-.41.33-.44.21-.03.41.12.44.33.03.2.66,4.95-.47,9.79-.04.18-.2.3-.38.3h0Z"/>
  <path class="cls-5" d="M42.13,60.03c-.33,0-.68.16-.94.33-1.47.92-3.08,3.58-3.12,6.06,0,.39.47.89,1.28,1.34,1.63.91,3.94,1.29,4.74.78.21-.13.3-.32.28-.59-.49-6.52-1.48-7.65-1.88-7.84-.11-.05-.24-.08-.36-.08h0ZM42.97,69.54c-1.26,0-2.84-.45-4-1.11-1.11-.62-1.69-1.33-1.68-2.04.05-2.82,1.85-5.68,3.49-6.71.75-.47,1.45-.57,2.04-.3.43.2,1.75.81,2.33,8.49.04.57-.18,1.02-.63,1.31-.38.24-.93.35-1.54.35h0Z"/>
  <path class="cls-6" d="M44.72,68.92c-.24,1.47-.89,2.77-1.61,3.64-1.35,1.54-4.31,1.35-7.53,1.16-3.22-.19-8.67-1.12-11.59-5.15l2.56-.53,11.3-2.34c.9-1.62,2.18-2.04,4.03-1.78,1.41.19,2.49,1.12,2.76,2.29.21.93.22,1.85.08,2.71"/>
  <path class="cls-8" d="M44.72,68.92c-.24,1.47-.89,2.77-1.61,3.64-1.35,1.54-4.31,1.35-7.53,1.16-3.22-.19-8.67-1.12-11.59-5.15l2.56-.53c6.79,5.63,11.21-.78,11.21-.78,0,0,.18,4.33,3.56,3.95,1.82-.21,2.88-1.46,3.4-2.29"/>
  <path class="cls-5" d="M24.31,68.35c.98,1.33,2.32,2.38,3.81,3.12,1.49.75,3.13,1.22,4.79,1.51.83.14,1.67.24,2.52.3.85.05,1.71.11,2.56.13.85.02,1.69.01,2.5-.1.4-.06.8-.15,1.16-.28.36-.14.7-.32.96-.57.07-.06.12-.12.19-.19l.18-.23.17-.25c.06-.08.11-.17.16-.26.21-.35.39-.71.55-1.09.15-.38.27-.77.36-1.16.09-.4.14-.8.17-1.2,0-.1,0-.2,0-.3v-.15s0-.15,0-.15c0-.1,0-.2-.02-.3l-.04-.3c0-.1-.03-.2-.05-.3-.02-.1-.04-.2-.06-.29-.04-.18-.11-.34-.19-.51-.09-.16-.19-.31-.31-.45-.12-.14-.26-.27-.41-.38-.3-.23-.65-.39-1.01-.5-.09-.02-.19-.05-.28-.07-.1-.02-.19-.04-.29-.05-.2-.03-.4-.04-.6-.05-.4-.01-.79.02-1.15.12-.73.19-1.3.72-1.71,1.41-.05.08-.1.17-.14.26-.04.09-.08.18-.12.27-.04.09-.07.19-.11.28-.03.1-.07.19-.1.29-.12.39-.21.8-.28,1.21-.15.82-.25,1.64-.29,2.48h0c0,.11-.1.2-.21.19-.09,0-.16-.06-.18-.14-.13-.43-.17-.88-.18-1.33-.01-.45.03-.89.09-1.33.07-.44.17-.88.3-1.31.03-.11.07-.22.1-.32.04-.11.08-.21.12-.32.05-.11.09-.21.14-.32.05-.11.11-.21.17-.31.23-.4.52-.78.89-1.1.18-.16.39-.3.6-.42.11-.05.22-.11.33-.15.11-.04.23-.09.35-.12.47-.13.94-.17,1.4-.16.23,0,.46.03.68.05.11,0,.23.03.35.05.12.02.23.05.35.08.46.13.9.34,1.29.63.2.14.37.32.54.5.16.19.3.39.42.61.11.22.21.45.27.7.03.12.05.23.07.34.02.11.05.22.06.34l.04.34c.01.11.01.23.02.34v.17s0,.17,0,.17c0,.11,0,.23,0,.34-.02.46-.08.91-.18,1.35-.1.44-.23.88-.4,1.3-.17.42-.37.83-.6,1.22-.06.1-.12.19-.18.29l-.2.28-.22.28c-.08.09-.17.19-.26.27-.18.17-.38.31-.6.44-.21.12-.43.22-.65.3-.44.16-.89.26-1.34.33-.9.13-1.78.13-2.65.11-.87-.02-1.73-.08-2.6-.13-.87-.06-1.74-.16-2.61-.31-1.73-.31-3.43-.81-5.01-1.62-.4-.2-.78-.42-1.15-.67-.38-.24-.73-.51-1.08-.79-.35-.28-.67-.59-.98-.92-.31-.32-.59-.68-.85-1.04-.13-.17-.09-.42.08-.55.17-.13.42-.09.55.08h0Z"/>
  <path class="cls-7" d="M42.6,69.68c-.14,1.06-.91,1.8-1.71,1.66-.8-.14-1.33-1.1-1.19-2.16.14-1.06.91-1.8,1.71-1.66.8.14,1.33,1.1,1.19,2.16"/>
  <path class="cls-7" d="M40.26,66.92c-.09.41-.41.67-.72.58-.3-.09-.48-.49-.38-.9.09-.41.41-.67.72-.58.3.09.48.49.38.9"/>
  <path class="cls-7" d="M42.11,66.27c-.09.41-.41.67-.72.58-.3-.09-.48-.49-.38-.9.09-.41.41-.67.72-.58.3.09.48.49.38.9"/>
  <path class="cls-7" d="M43.66,67.46c-.09.4-.41.65-.71.57-.3-.09-.47-.48-.38-.88.09-.4.41-.65.71-.57.3.09.47.48.38.88"/>
  <path class="cls-6" d="M26.96,73.01c-3.29.79-9.28.53-10.89-1.85-.49-.72-.32-1.84.51-3,.85-1.2,2.4-2.46,4.64-3.4,2.36-.99,3.63-2.78,4.03-3.58,1.11-2.22,1.83-4.63,2.8-7.92.27-.92.56-1.92.89-2.99l6.84,1.15c-.1,1.05-.22,2.44-.34,4.42-.67,11.06-3.46,15.95-8.48,17.16"/>
  <path class="cls-14" d="M16.58,68.16s0,0,0,0c.85-1.2,2.4-2.46,4.64-3.4.17-.07.34-.15.5-.23h0c-.16.08-.33.16-.5.23-2.25.94-3.79,2.2-4.64,3.4,0,0,0,0,0,0"/>
  <path class="cls-12" d="M21.73,64.53h0c.25-.12.48-.25.7-.39h0c-.22.14-.45.27-.7.39"/>
  <path class="cls-12" d="M22.43,64.14h0s.06-.04.09-.06c-.03.02-.06.04-.09.06"/>
  <path class="cls-4" d="M24.62,62.18c.31-.39.52-.74.64-.99.54-1.09.99-2.22,1.42-3.47-.43,1.26-.88,2.39-1.42,3.47-.13.25-.34.6-.64.99"/>
  <path class="cls-2" d="M22.75,69.92c-1.42-1.37-4.24-1.7-6.16-1.75,0,0,0,0,0,0,.85-1.2,2.4-2.46,4.64-3.4.17-.07.34-.15.5-.23.25-.12.48-.25.7-.39.03-.02.06-.04.09-.06.94-.6,1.63-1.3,2.1-1.91.31-.39.52-.74.64-.99.54-1.09.99-2.22,1.42-3.47.45-1.31.88-2.76,1.37-4.44-.04,5.23-2.48,9.57-4.48,11.2-.1.08-.2.16-.31.24-1.3.95-1.72,2.71-.96,4.14.32.6.43,1.04.44,1.07"/>
  <path class="cls-8" d="M26.96,73.01c-3.29.79-9.28.53-10.89-1.85-.36-.53-.36-1.27-.01-2.09,2.16,1.78,7.33,1.93,10.29,1.21,5.02-1.22,7.81-6.1,8.48-17.16.02-.35.04-.68.06-.99.03-.45.44-.77.89-.7-.1,1.05-.22,2.44-.34,4.42-.67,11.06-3.46,15.95-8.48,17.16"/>
  <path class="cls-5" d="M35.98,51.45c0,1.31-.06,2.6-.12,3.9-.07,1.3-.17,2.61-.31,3.92-.15,1.3-.34,2.61-.62,3.9-.28,1.29-.63,2.57-1.12,3.81-.25.62-.52,1.23-.86,1.82-.33.59-.71,1.15-1.15,1.67-.43.52-.93,1-1.47,1.42-.55.42-1.14.76-1.77,1.03-.63.27-1.29.47-1.95.6-.66.13-1.32.21-1.99.26-.66.05-1.33.06-2,.04-.67-.02-1.33-.07-1.99-.16-.66-.09-1.32-.22-1.97-.42-.16-.05-.32-.11-.49-.16-.16-.06-.32-.12-.48-.19-.32-.14-.63-.3-.92-.5-.29-.2-.58-.43-.82-.71-.12-.14-.23-.29-.33-.48-.09-.18-.15-.38-.19-.58-.06-.39-.03-.78.07-1.14.09-.36.24-.69.41-1,.34-.62.79-1.15,1.28-1.62.49-.48,1.03-.89,1.59-1.26.56-.37,1.16-.69,1.76-.97.15-.07.31-.14.46-.2l.43-.19c.14-.07.28-.14.42-.21.13-.08.27-.16.4-.24.53-.33,1.01-.72,1.45-1.16.22-.22.42-.45.62-.7.19-.24.36-.5.51-.76.04-.07.07-.13.1-.2l.1-.22c.07-.14.14-.29.2-.43.06-.15.13-.29.19-.44l.19-.44c.24-.6.46-1.2.67-1.81.21-.61.4-1.23.6-1.85l.58-1.86.3-.93c.1-.31.2-.62.31-.93.21-.62.44-1.23.69-1.84.04-.1.16-.15.26-.11.09.04.13.13.12.22-.12.64-.27,1.28-.43,1.91-.08.32-.16.63-.24.95l-.26.94-.27.94-.28.94c-.19.63-.4,1.25-.61,1.87-.22.62-.45,1.24-.71,1.85l-.19.46c-.07.15-.14.3-.2.45-.07.15-.14.3-.21.45l-.11.22c-.04.07-.08.16-.12.23-.35.61-.77,1.14-1.25,1.63-.48.48-1.01.91-1.59,1.28-.15.09-.29.18-.44.26-.15.08-.3.16-.46.23l-.9.4c-.57.27-1.13.57-1.66.92-.52.35-1.02.73-1.47,1.17-.45.43-.84.91-1.13,1.44-.14.26-.26.53-.33.81-.07.27-.09.55-.05.8.03.12.06.24.11.35.01.03.03.05.04.08l.02.04.03.04c.04.05.08.11.13.16.18.21.41.4.65.56.25.16.51.31.8.43.14.06.29.11.43.17.15.05.29.1.44.14.6.18,1.22.3,1.85.39.63.09,1.26.14,1.9.15.64.02,1.28,0,1.91-.04.63-.05,1.27-.12,1.89-.25.62-.12,1.21-.3,1.78-.54.57-.25,1.1-.56,1.6-.93.49-.37.94-.81,1.34-1.29.4-.48.75-1,1.06-1.55.31-.55.58-1.13.81-1.71.48-1.18.82-2.42,1.1-3.67.27-1.26.47-2.53.62-3.82.04-.32.07-.64.11-.96.03-.32.06-.64.09-.97.06-.65.09-1.29.14-1.94.1-1.3.24-2.6.5-3.89.02-.11.12-.18.23-.15.09.02.16.1.16.19"/>
  <path class="cls-7" d="M24.82,73.39c-2.06.15-8.02.36-10.13-.71-.98-.5-1.01-1.37-.55-2.26.59-1.12,1.96-2.28,3.23-2.74,2.23-.82,4.06.52,5.35,2.12,1.35,1.67,2.11,3.6,2.11,3.6"/>
  <path class="cls-5" d="M17.37,67.67h0,0ZM18.69,67.82c-.38,0-.78.07-1.19.22-1.58.58-3.2,2.24-3.26,3.34-.02.42.17.73.62.96,1.75.89,6.61.87,9.38.71-.64-1.39-2.68-5.22-5.55-5.22h0ZM21.13,73.9c-2.37,0-5.22-.17-6.62-.88-.72-.37-1.09-.97-1.05-1.7.09-1.54,2.07-3.4,3.77-4.02,2.04-.75,4.07.06,5.88,2.36,1.31,1.67,2.04,3.51,2.07,3.59.05.12.03.25-.03.35-.07.1-.18.17-.3.18-.35.02-1.89.12-3.72.12h0Z"/>
  <path class="cls-5" d="M17.62,73.72c-.05,0-.11-.01-.16-.04-.25-.12-.38-.36-.35-.67.12-1.1,2.44-3.26,5.29-3.89.21-.05.42.09.47.3.05.21-.09.42-.3.47-2.77.61-4.54,2.62-4.67,3.16.11.11.15.29.08.44-.07.14-.21.23-.35.23h0Z"/>
  <path class="cls-5" d="M14.97,73.2s-.09,0-.13-.02c-.13-.05-.43-.21-.45-.72-.03-1.08,1.43-3.73,5.08-5.28.2-.08.43,0,.51.21.08.2,0,.43-.21.51-3.57,1.51-4.69,4.09-4.6,4.57.16.09.23.29.17.47-.06.16-.21.26-.37.26h0Z"/>
  <polygon class="cls-5" points="19.22 15.34 14.32 16.41 14.11 15.43 16.03 10.85 13.31 11.45 13.01 10.08 17.81 9.03 18.02 10.01 16.07 14.6 18.92 13.98 19.22 15.34 19.22 15.34"/>
  <polygon class="cls-5" points="23.44 7.91 19.97 8.28 19.89 7.58 21.57 4.56 19.64 4.77 19.54 3.8 22.94 3.44 23.01 4.12 21.32 7.16 23.33 6.94 23.44 7.91 23.44 7.91"/>
  <polygon class="cls-5" points="30.34 9.77 26.35 10.2 26.26 9.4 28.19 5.92 25.97 6.16 25.85 5.05 29.77 4.62 29.85 5.42 27.9 8.91 30.22 8.66 30.34 9.77 30.34 9.77"/>
  <polygon class="cls-5" points="24.32 15.41 22.24 15.64 22.2 15.22 23.2 13.41 22.05 13.54 21.99 12.96 24.02 12.74 24.06 13.15 23.05 14.97 24.26 14.84 24.32 15.41 24.32 15.41"/>
</svg>