<?xml version="1.0" encoding="UTF-8"?>
<svg id="Vrstva_1" data-name="Vrstva 1" xmlns="http://www.w3.org/2000/svg" xmlns:xlink="http://www.w3.org/1999/xlink" viewBox="0 0 79.37 79.37">
  <defs>
    <style>
      .cls-1 {
        fill: #8a2314;
      }

      .cls-2 {
        fill: #abc7e9;
      }

      .cls-3 {
        fill: #eccfbc;
      }

      .cls-4 {
        fill: url(#Nepojmenovaný_přechod_149-2);
      }

      .cls-4, .cls-5 {
        opacity: .22;
      }

      .cls-6 {
        fill: #9d4f3e;
      }

      .cls-5 {
        fill: url(#Nepojmenovaný_přechod_149);
      }

      .cls-7 {
        fill: #b37e7f;
      }

      .cls-8 {
        fill: #b37059;
      }

      .cls-9 {
        fill: #7a7db3;
      }

      .cls-10 {
        fill: #64140e;
      }

      .cls-11 {
        fill: #b62c1f;
      }

      .cls-12 {
        fill: #fffbfc;
      }

      .cls-13 {
        fill: #c99c8c;
      }

      .cls-14 {
        fill: #edc28e;
      }

      .cls-15 {
        fill: #977761;
      }
    </style>
    <radialGradient id="Nepojmenovaný_přechod_149" data-name="Nepojmenovaný přechod 149" cx="23.63" cy="52.64" fx="23.63" fy="52.64" r="9.3" gradientUnits="userSpaceOnUse">
      <stop offset="0" stop-color="#b62c1f"/>
      <stop offset="0" stop-color="#b62c1f"/>
      <stop offset=".5" stop-color="#ae3324" stop-opacity=".5"/>
      <stop offset=".64" stop-color="#6f261c" stop-opacity=".29"/>
      <stop offset=".78" stop-color="#3e1c16" stop-opacity=".13"/>
      <stop offset=".91" stop-color="#201613" stop-opacity=".03"/>
      <stop offset="1" stop-color="#161412" stop-opacity="0"/>
    </radialGradient>
    <radialGradient id="Nepojmenovaný_přechod_149-2" data-name="Nepojmenovaný přechod 149" cx="66.42" fx="66.42" gradientTransform="translate(117.69) scale(-1 1)" xlink:href="#Nepojmenovaný_přechod_149"/>
  </defs>
  <path class="cls-14" d="M68.17,47.27c.34,13.68-13.03,20.49-29.73,20.91-16.7.42-30.41-5.71-30.75-19.39-.33-13.11,7.8-28.29,26.95-30,2.29-1.24,5.38-3.37,7.07-6.45.53-.96,1.94-.86,2.31.18.5,1.38.97,3.19.1,5.57,2.54-1.31,5.05-2.79,5.87-3.57.88-.83,2.32-.21,2.31,1-.01,1.17-.37,3.65-.81,5.74,11.13,4.92,16.42,15.95,16.68,26.01"/>
  <path class="cls-8" d="M36.9,68.2c-1.07,0-2.13-.03-3.17-.08-3.44-.18-6.7-.67-9.67-1.47-9.05-2.44-15.44-7.81-16.29-16.38-.04-.37-.06-.74-.08-1.12,0-.12,0-.24-.01-.35-.02-.84,0-1.68.04-2.53.91,12.61,13.56,18.48,29.18,18.47.51,0,1.01,0,1.53-.02,14.39-.36,26.32-5.47,29.12-15.63,0,.13.01.27.01.4.04,1.45-.08,2.83-.34,4.12.44-1.24.73-2.57.87-3.98-.14,1.41-.43,2.73-.87,3.98-.04.12-.09.25-.13.37-2.42,6.39-8.69,10.59-16.88,12.67-2.77.7-5.77,1.17-8.91,1.39-.94.07-1.9.11-2.86.14-.51.01-1.03.02-1.53.02M68.09,49.63s0-.02,0-.02c0,0,0,.02,0,.02M68.09,49.6s0-.02,0-.02c0,0,0,.02,0,.02M68.09,49.57s0-.01,0-.02c0,0,0,.01,0,.02M68.1,49.55s0,0,0-.02c0,0,0,0,0,.02M68.1,49.52s0-.01,0-.02c0,0,0,.01,0,.02M68.1,49.49s0,0,0,0c0,0,0,0,0,0M68.1,49.47s0,0,0,0c0,0,0,0,0,0M68.11,49.43s0,0,0,0c0,0,0,0,0,0M68.11,49.41h0s0,0,0,0M68.17,48.37h0s0,0,0,0M68.17,48.3s0,0,0,0t0,0M68.17,48.24h0s0,0,0,0M68.17,48.22s0,0,0,0c0,0,0,0,0,0M68.17,48.16h0s0,0,0,0M68.17,48.14h0s0,0,0,0M68.17,48.09h0s0,0,0,0M68.18,48.06h0s0,0,0,0M68.18,48.04v-.02s0,.01,0,.02M68.18,48.01s0,0,0-.01c0,0,0,0,0,.01M68.18,47.99h0s0,0,0,0M68.18,47.96v-.02s0,.01,0,.02M68.18,47.93h0s0,0,0,0M68.18,47.91v-.02s0,.01,0,.02M68.18,47.88v-.02s0,.01,0,.02M68.18,47.85v-.02s0,.01,0,.02M68.18,47.83s0-.02,0-.02c0,0,0,.02,0,.02M68.18,47.8v-.02s0,.02,0,.02M68.18,47.77v-.02s0,.01,0,.02M68.18,47.75v-.02s0,.02,0,.02M68.18,47.72s0-.01,0-.02c0,0,0,.02,0,.02M68.18,47.69v-.02s0,.01,0,.02M68.18,47.67v-.02s0,.02,0,.02M68.18,47.64v-.02s0,.02,0,.02M68.18,47.61s0-.01,0-.02c0,0,0,.01,0,.02M68.18,47.59v-.03s0,.02,0,.03M68.18,47.56s0-.01,0-.02c0,0,0,.01,0,.02M68.18,47.53s0-.02,0-.02c0,0,0,.02,0,.02M68.18,47.51v-.03s0,.02,0,.03M68.18,47.48s0-.01,0-.02c0,0,0,.02,0,.02M68.17,47.45s0-.03,0-.05c0,.02,0,.03,0,.05M68.17,47.4s0-.01,0-.02c0,0,0,.01,0,.02M68.17,47.37s0-.03,0-.05c0,.02,0,.03,0,.05M68.17,47.32v-.02s0,.01,0,.02M68.17,47.29s0-.02,0-.02c-.01-.45-.03-.89-.06-1.34h0c.03.45.05.9.06,1.34,0,0,0,.02,0,.02"/>
  <path class="cls-12" d="M62.15,45.57c.1,3.99-1,8.31-4.54,11.71-3.61,3.48-9.77,6.01-19.79,6.27h0c-9.92.25-16.17-1.92-19.96-5.16-3.8-3.24-5.14-7.54-5.24-11.57-.02-.82.03-1.62.14-2.41.97-6.94,6.85-12.36,14.08-12.55,3.96-.1,7.59,1.39,10.28,3.88,2.56-2.63,6.12-4.29,10.07-4.39,7.15-.18,13.22,4.81,14.64,11.56h0c.18.86.29,1.75.31,2.66"/>
  <path class="cls-15" d="M32.3,46.53c-.51,4.33-3.96,5.44-8.46,7.38-2.82,1.22-4.74,2.96-5.98,4.49-3.8-3.24-5.14-7.54-5.24-11.57-.02-.82.03-1.62.14-2.41,2.61-2.85,6.76-5.62,12.87-5.05,4.47.43,7.04,4.05,6.68,7.16h0Z"/>
  <circle class="cls-5" cx="23.63" cy="52.64" r="9.3"/>
  <path class="cls-8" d="M67.23,53.99h-.14c.05-.13.09-.25.13-.38,0,.12,0,.25,0,.38"/>
  <path class="cls-6" d="M24.07,66.65h0c-9.05-2.44-15.44-7.81-16.29-16.38h0c.86,8.57,7.25,13.94,16.29,16.38"/>
  <path class="cls-9" d="M7.7,49.15h0c0-.12,0-.24-.01-.35-.02-.84,0-1.68.04-2.54,0,0,0,0,0,0-.05.85-.06,1.69-.04,2.53,0,.12,0,.24.01.35"/>
  <path class="cls-10" d="M33.74,68.12c-3.44-.18-6.7-.67-9.67-1.47h0c2.97.8,6.23,1.29,9.67,1.47M7.78,50.26h0c-.04-.37-.06-.74-.08-1.12h0c.02.38.04.75.08,1.12"/>
  <path class="cls-8" d="M67.22,53.61s0,0,0,0c.44-1.25.73-2.57.87-3.98h0s0-.02,0-.03h0s0-.02,0-.02c0,0,0,0,0,0,0,0,0-.01,0-.02,0,0,0,0,0,0,0,0,0,0,0-.02,0,0,0,0,0-.01,0,0,0-.01,0-.02,0,0,0,0,0-.01,0,0,0,0,0,0,0,0,0,0,0-.01,0,0,0,0,0,0,0-.01,0-.02,0-.03,0,0,0,0,0,0,0,0,0-.01,0-.02h0c.03-.34.05-.69.06-1.04h0s0-.05,0-.08t0,0s0-.04,0-.06h0s0-.01,0-.02c0,0,0,0,0,0,0-.02,0-.03,0-.05h0s0-.02,0-.02h0s0-.04,0-.06h0s0-.02,0-.02h0s0-.02,0-.03v-.02s0,0,0-.01c0,0,0,0,0-.01h0s0-.02,0-.02,0,0,0-.01v-.02s0,0,0-.01h0s0-.02,0-.02v-.02s0,0,0,0v-.02s0,0,0,0v-.02s0,0,0,0c0,0,0-.02,0-.02h0s0-.02,0-.02h0s0-.02,0-.03h0s0-.02,0-.03h0s0-.02,0-.02h0s0-.02,0-.03h0s0-.02,0-.03h0s0-.02,0-.02h0s0-.02,0-.03h0s0-.02,0-.03h0s0-.02,0-.02h0s0-.02,0-.03h0s0-.02,0-.03h0s0-.02,0-.03h0s0-.04,0-.06h0s0-.02,0-.02h0s0-.04,0-.06c0,0,0,0,0,0v-.02s0,0,0,0c0,0,0-.02,0-.02-.01-.45-.03-.89-.06-1.34h0c.03.45.05.9.06,1.34.06,2.31-.27,4.42-.95,6.34"/>
  <path class="cls-6" d="M67.09,53.98h0c.05-.12.09-.24.13-.37,0,0,0,0,0,0-.04.12-.09.24-.13.37"/>
  <path class="cls-6" d="M50.21,66.65c8.19-2.08,14.46-6.28,16.88-12.67h0c-2.42,6.39-8.69,10.59-16.88,12.67h0"/>
  <path class="cls-10" d="M41.3,68.04c3.14-.22,6.13-.69,8.91-1.39h0c-2.77.7-5.77,1.17-8.91,1.39"/>
  <path class="cls-2" d="M9.09,38.73s0,0,0,0c0,0,0,0,0,0M9.09,38.71c3.01-9.64,10.9-18.29,24.68-19.83-13.78,1.54-21.67,10.19-24.68,19.83M33.78,18.88s.02,0,.03,0c0,0-.02,0-.03,0M33.8,18.88s.05,0,.08,0c-.03,0-.05,0-.08,0M33.89,18.87s.01,0,.02,0c0,0-.01,0-.02,0M33.92,18.87s.02,0,.02,0c0,0-.02,0-.02,0M33.94,18.86s.04,0,.05,0c-.02,0-.04,0-.05,0M34,18.86s.01,0,.02,0c0,0-.01,0-.02,0M34.03,18.85s.01,0,.02,0c0,0-.02,0-.02,0M34.05,18.85s.03,0,.05,0c-.02,0-.04,0-.05,0M34.11,18.85s.01,0,.02,0c0,0-.01,0-.02,0M34.14,18.84s.02,0,.02,0c0,0-.02,0-.02,0M34.16,18.84s.04,0,.05,0c-.02,0-.04,0-.05,0M34.22,18.83s.01,0,.02,0c0,0-.01,0-.02,0M34.25,18.83s.01,0,.02,0c0,0-.01,0-.02,0M34.28,18.83s.02,0,.03,0c0,0-.02,0-.03,0M34.3,18.83s.02,0,.03,0c0,0-.02,0-.03,0M34.34,18.82s.01,0,.02,0c0,0-.01,0-.02,0M34.36,18.82s.01,0,.02,0c0,0-.01,0-.02,0M34.39,18.82s.04,0,.05,0c-.02,0-.03,0-.05,0M34.45,18.81s.01,0,.02,0c0,0-.01,0-.02,0M34.47,18.81s.01,0,.02,0c0,0-.01,0-.02,0M34.5,18.81s.03,0,.05,0c-.02,0-.04,0-.05,0M34.56,18.8s.01,0,.02,0c0,0-.01,0-.02,0M34.59,18.8s.01,0,.02,0c0,0-.01,0-.02,0M34.61,18.8s.02,0,.03,0c0,0-.02,0-.03,0"/>
  <path class="cls-3" d="M67.55,49.08c-.38-9.36-5.8-19.99-15.56-25.26-1.13-.61-1.73-1.87-1.49-3.13.28-1.42.5-2.75.51-3.52,0-.68-.23-.99-.6-.99-.29,0-.65.19-1.03.56-.64.61-2.32,1.64-4.23,2.69-.13.07-.26.1-.4.1-.47,0-.89-.4-.82-.92.21-1.57-.15-2.85-.52-3.88-.19-.53-.44-.85-.74-.85s-.64.31-1.03,1.03c-1.12,2.06-3.11,3.53-4.99,4.65-1.5.9-3.18,1.46-4.91,1.72-12.88,1.96-20.32,10.32-23.24,19.6.17-.72.37-1.44.59-2.16,0,0,0,0,0,0,0,0,0,0,0,0,3.01-9.64,10.9-18.29,24.68-19.83h0s.02,0,.03,0c0,0,0,0,0,0,.03,0,.05,0,.08,0,0,0,0,0,0,0,0,0,.01,0,.02,0,0,0,0,0,0,0,0,0,.02,0,.02,0,0,0,0,0,0,0,.02,0,.04,0,.05,0,0,0,0,0,0,0,0,0,.01,0,.02,0,0,0,0,0,0,0,0,0,.02,0,.02,0,0,0,0,0,0,0,.02,0,.04,0,.05,0,0,0,0,0,0,0,0,0,.01,0,.02,0,0,0,0,0,0,0,0,0,.02,0,.02,0t0,0s.04,0,.05,0c0,0,0,0,0,0,0,0,.01,0,.02,0,0,0,0,0,0,0,0,0,.01,0,.02,0,0,0,0,0,0,0,0,0,.02,0,.03,0h0s.02,0,.03,0c0,0,0,0,0,0,0,0,.01,0,.02,0,0,0,0,0,0,0,0,0,.01,0,.02,0,0,0,0,0,0,0,.02,0,.03,0,.05,0,0,0,0,0,0,0,0,0,.01,0,.02,0,0,0,0,0,0,0,0,0,.01,0,.02,0,0,0,0,0,0,0,.02,0,.04,0,.05,0,0,0,0,0,0,0,0,0,.01,0,.02,0,0,0,0,0,0,0,0,0,.01,0,.02,0,0,0,0,0,0,0,0,0,.02,0,.03,0h0c2.29-1.24,5.38-3.37,7.07-6.45.25-.45.68-.66,1.12-.67.5,0,.99.29,1.2.84.3.82.58,1.79.58,2.94,0,.79-.13,1.66-.49,2.63h0c2.54-1.31,5.05-2.79,5.87-3.57.28-.26.61-.38.93-.38.7,0,1.38.55,1.38,1.37h0c-.01,1.18-.37,3.67-.81,5.75h0c10.64,4.7,15.94,14.98,16.61,24.67-.09,1.1-.28,2.15-.56,3.15"/>
  <path class="cls-13" d="M68.09,49.63h0s0,0,0,0M68.09,49.6h0s0,0,0,0M68.09,49.58s0,0,0,0c0,0,0,0,0,0M68.1,49.56s0,0,0,0c0,0,0,0,0,0M68.1,49.53s0,0,0-.01c0,0,0,0,0,.01M68.1,49.51s0,0,0-.01c0,0,0,0,0,.01M68.1,49.48s0,0,0-.01c0,0,0,0,0,.01M68.1,49.46s0-.02,0-.03c0,.01,0,.02,0,.03M68.11,49.43s0-.01,0-.02c0,0,0,.01,0,.02M68.11,49.41c.03-.34.05-.69.06-1.04-.01.35-.03.7-.06,1.04M68.17,48.37s0-.05,0-.08c0,.03,0,.05,0,.08M68.17,48.29s0-.04,0-.06c0,.02,0,.04,0,.06M68.17,48.24v-.02s0,.01,0,.02M68.17,48.21s0-.03,0-.05c0,.02,0,.03,0,.05M68.17,48.16s0-.01,0-.02c0,0,0,.01,0,.02M68.17,48.14s0-.03,0-.05c0,.02,0,.03,0,.05M68.17,48.08s0,0,0-.01c0,0,0,0,0,.01M68.18,48.05s0-.01,0-.02c0,0,0,.01,0,.02M68.18,48.02h0s0,0,0,0M68.18,48h0s0,0,0,0M68.18,47.97s0,0,0-.01c0,0,0,0,0,.01M68.18,47.94h0s0,0,0,0M68.18,47.92s0,0,0,0c0,0,0,0,0,0M68.18,47.89h0s0,0,0,0M68.18,47.86h0s0,0,0,0M68.18,47.84h0s0,0,0,0M68.18,47.8h0s0,0,0,0M68.18,47.78h0s0,0,0,0M68.18,47.76h0s0,0,0,0M68.18,47.72h0s0,0,0,0M68.18,47.7h0s0,0,0,0M68.18,47.67h0s0,0,0,0M68.18,47.64h0s0,0,0,0M68.18,47.62h0s0,0,0,0M68.18,47.59h0s0,0,0,0M68.18,47.56h0s0,0,0,0M68.18,47.54h0s0,0,0,0M68.18,47.51h0s0,0,0,0M68.18,47.48h0s0,0,0,0M68.17,47.46h0s0,0,0,0M68.17,47.4h0s0,0,0,0M68.17,47.38h0s0,0,0,0M68.17,47.32s0,0,0,0c0,0,0,0,0,0M68.17,47.3s0,0,0,0c0,0,0,0,0,0"/>
  <path class="cls-13" d="M67.22,53.61c.26-1.3.38-2.67.34-4.12,0-.13,0-.27-.01-.4.28-1,.46-2.05.56-3.15.03.45.05.9.06,1.34,0,0,0,.02,0,.02,0,0,0,0,0,0v.02s0,0,0,0c0,.02,0,.03,0,.05h0s0,.02,0,.03h0s0,.04,0,.05h0s0,.02,0,.03h0s0,.02,0,.03h0s0,.02,0,.02h0s0,.02,0,.03h0s0,.02,0,.03h0s0,.02,0,.02h0s0,.02,0,.03h0s0,.02,0,.03h0s0,.02,0,.02h0s0,.02,0,.03h0s0,.02,0,.03h0s0,.02,0,.03h0s0,.02,0,.03h0s0,.02,0,.02h0s0,.02,0,.02h0s0,.02,0,.03h0s0,.02,0,.02c0,0,0,0,0,0h0s0,.02,0,.02v.02s0,0,0,.01h0s0,.02,0,.02c0,0,0,0,0,.01h0s0,.02,0,.03c0,0,0,.01,0,.02h0s0,.02,0,.02h0s0,.04,0,.06h0s0,.02,0,.02h0s0,.04,0,.06c0,0,0,0,0,0v.02s0,0,0,0c0,.02,0,.04,0,.06,0,0,0,0,0,0,0,.03,0,.05,0,.08h0c-.01.35-.03.7-.06,1.04h0s0,.02,0,.02c0,0,0,0,0,0,0,0,0,.02,0,.03,0,0,0,0,0,0,0,0,0,0,0,.01,0,0,0,0,0,0,0,0,0,0,0,.01,0,0,0,.01,0,.02,0,0,0,0,0,.01,0,0,0,.01,0,.02,0,0,0,0,0,0,0,0,0,.01,0,.02,0,0,0,0,0,0,0,0,0,.02,0,.02h0s0,.02,0,.02h0c-.14,1.41-.43,2.73-.87,3.98"/>
  <path class="cls-10" d="M41.1,47c.03,1.24-1.59,2.78-3.63,2.83-2.04.05-3.73-1.4-3.76-2.64-.03-1.24,1.61-1.8,3.65-1.86,2.04-.05,3.71.43,3.74,1.67"/>
  <path class="cls-7" d="M37.44,47.04c-.8,0-1.44-.32-1.45-.6,0-.29.66-.43,1.49-.45.06,0,.13,0,.19,0,.74,0,1.32.11,1.32.38,0,.29-.66.66-1.49.68-.02,0-.05,0-.07,0"/>
  <path class="cls-15" d="M62.15,45.57c.1,3.99-1,8.31-4.54,11.71-1.32-1.43-3.3-3.03-6.11-4.07-4.59-1.71-8.09-2.64-8.82-6.94-.52-3.09,1.87-6.84,6.31-7.49,5.88-.86,10.09,1.52,12.85,4.14h0c.18.86.29,1.75.31,2.66h0Z"/>
  <path class="cls-10" d="M20.71,44.99c.12.02.28.09.43.13.15.05.29.1.44.14.15.05.3.08.44.13l.44.12c.58.15,1.14.25,1.7.31.28.04.56.03.84.05.28-.02.56,0,.84-.03.14-.02.29,0,.43-.03.14-.02.29-.04.44-.06.16,0,.3-.05.46-.07.16-.02.31-.05.48-.06h.15c.45-.04.85.3.88.75.02.26-.09.5-.26.66-.58.53-1.29.97-2.09,1.19-.39.14-.8.18-1.22.24-.41.01-.83.03-1.24-.03-.82-.09-1.61-.33-2.32-.7-.17-.1-.35-.19-.52-.3-.16-.11-.33-.22-.48-.35-.15-.13-.31-.25-.45-.39-.15-.14-.27-.28-.42-.47-.28-.34-.22-.85.12-1.13.19-.15.43-.2.65-.16l.25.05h0Z"/>
  <path class="cls-10" d="M20.31,38.15c-.11,0-.2-.07-.23-.18-.02-.06,0-.14.04-.19.13-.18.23-.3.35-.44.12-.13.24-.24.36-.35.14-.13.25-.21.36-.29l.11-.08c.1-.07.21-.14.33-.21l.13-.08c.61-.36,1.34-.61,2.07-.73.35-.07.7-.07,1.07-.08h.2c.33.04.65.07.93.16.7.16,1.36.5,1.95.98.11.09.12.25.03.36-.05.06-.12.09-.2.09h-.16c-.15,0-.29-.02-.43-.04l-.13-.02c-.12-.02-.24-.03-.36-.03-.15,0-.29-.02-.42-.03-.05,0-.14-.01-.22-.01h-.17c-.14,0-.22,0-.31,0-.11,0-.7.02-.7.02-.1.01-.2.02-.3.03-.19.02-.38.03-.58.07-.56.08-1.16.22-1.75.41l-.43.14-1.04.38c-.08.03-.15.06-.21.08l-.25.06h-.05Z"/>
  <path class="cls-10" d="M54.23,37.32l-.25-.05c-.06-.01-.13-.04-.2-.06l-.33-.11c-.1-.03-.19-.06-.29-.09-.05-.02-.41-.12-.41-.12l-.47-.13c-.61-.16-1.21-.27-1.8-.33-.17-.03-.36-.03-.56-.04-.1,0-.2,0-.29-.01-.17,0-.27,0-.38,0-.19,0-.39,0-.58.03-.04,0-.09,0-.13,0-.11,0-.23,0-.34.03-.11.02-.25.04-.39.05h0c-.09,0-.22.02-.35.05l-.13.02c-.15.02-.29.04-.44.06h-.15c-.15.01-.26-.09-.27-.23,0-.08.03-.16.09-.21.55-.51,1.2-.88,1.85-1.06.32-.11.64-.16.97-.2l.17-.02c.17,0,.34,0,.5,0,.19,0,.38,0,.57.04.76.09,1.49.31,2.14.64l.12.07c.12.07.24.13.35.21l.08.05c.12.08.24.16.35.25.15.13.29.23.41.35.14.14.25.26.39.43.08.1.06.25-.04.33-.05.04-.11.05-.15.05h-.04Z"/>
  <g>
    <path class="cls-1" d="M43.64,53.63c.06.17-.03.35-.23.47-.4.25-.82.44-1.26.61-.45.17-.91.33-1.41.46-.98.25-2.05.4-3.17.4-1.13.01-2.22-.15-3.2-.4-.5-.13-.96-.28-1.41-.46-.44-.17-.84-.36-1.26-.61-.22-.14-.3-.33-.22-.51,2.3.77,4.23.95,5.48.96,1.14.01,2.1-.09,2.68-.15,1.62-.18,2.99-.5,3.99-.77Z"/>
    <path class="cls-11" d="M43.64,53.63c-1,.28-2.38.59-3.99.77-.58.06-1.54.16-2.68.15-1.26-.01-3.19-.18-5.48-.96.03-.08.1-.16.21-.23.22-.15.54-.2.83-.14l.1.02c.18.03.39.08.61.13.31.07.58.12.62.13.92.18,1.57-.14,2.63.1.58.13.7.3,1.21.28.42-.01.57-.13,1.02-.25.95-.26,1.25,0,2.53-.14.3-.03.73-.1,1.26-.24l.1-.02c.34.13.68.27,1.03.4Z"/>
  </g>
  <path class="cls-10" d="M42.83,12.44c-.12,0-.33.04-.46.27-1.78,3.24-4.99,5.46-7.37,6.75-.09.05-.19.08-.29.09-18.51,1.65-26.59,16.3-26.27,29.22.36,14.3,15.72,19.01,29.98,18.65,14.26-.36,29.36-5.84,29-20.14-.22-8.88-4.6-20.2-16.23-25.34-.33-.14-.51-.5-.43-.84.44-2.11.78-4.51.79-5.59,0-.36-.25-.51-.37-.56-.09-.04-.4-.14-.67.12-.98.92-3.76,2.51-6.04,3.69-.28.14-.61.1-.85-.1-.23-.21-.32-.53-.21-.83.77-2.09.41-3.66-.1-5.05-.1-.28-.34-.33-.44-.34-.01,0-.03,0-.04,0h0ZM36.85,68.95c-18.19.02-29.6-7.61-29.92-20.14-.34-13.57,8.11-28.95,27.48-30.75,2.19-1.21,5.07-3.22,6.64-6.08.39-.71,1.13-1.11,1.94-1.05.8.06,1.47.57,1.74,1.33.43,1.2.8,2.62.54,4.35,2.02-1.11,3.63-2.11,4.19-2.65.63-.6,1.52-.75,2.32-.4.79.35,1.28,1.1,1.27,1.96-.01,1.08-.3,3.24-.7,5.29,5.08,2.38,9.29,6.22,12.21,11.13,2.72,4.58,4.23,9.87,4.37,15.3.32,12.89-11.35,21.2-30.47,21.68-.54.01-1.08.02-1.61.02h0Z"/>
  <circle class="cls-4" cx="51.27" cy="52.64" r="9.3"/>
  <path class="cls-10" d="M54.19,44.99c-.12.02-.28.09-.43.13-.15.05-.29.1-.44.14-.15.05-.3.08-.44.13l-.44.12c-.58.15-1.14.25-1.7.31-.28.04-.56.03-.84.05-.28-.02-.56,0-.84-.03-.14-.02-.29,0-.43-.03-.14-.02-.29-.04-.44-.06-.16,0-.3-.05-.46-.07-.16-.02-.31-.05-.48-.06h-.15c-.45-.04-.85.3-.88.75-.02.26.09.5.26.66.58.53,1.29.97,2.09,1.19.39.14.8.18,1.22.24.41.01.83.03,1.24-.03.82-.09,1.61-.33,2.32-.7.17-.1.35-.19.52-.3.16-.11.33-.22.48-.35.15-.13.31-.25.45-.39.15-.14.27-.28.42-.47.28-.34.22-.85-.12-1.13-.19-.15-.43-.2-.65-.16l-.25.05h0Z"/>
</svg>