<?xml version="1.0" encoding="UTF-8"?>
<svg id="Vrstva_1" data-name="Vrstva 1" xmlns="http://www.w3.org/2000/svg" xmlns:xlink="http://www.w3.org/1999/xlink" viewBox="0 0 318.7 168.64">
  <defs>
    <style>
      .cls-1 {
        fill: #fcf7f6;
      }

      .cls-2 {
        fill: #ccb3c9;
      }

      .cls-3 {
        fill: #68a930;
      }

      .cls-4 {
        fill: none;
      }

      .cls-5 {
        fill: #edcba9;
      }

      .cls-6 {
        fill: #97745d;
      }

      .cls-7 {
        fill: #e59147;
      }

      .cls-8 {
        fill: #b75c27;
      }

      .cls-9 {
        fill: #381b15;
      }

      .cls-10 {
        fill: #bad27a;
      }

      .cls-11 {
        fill: #c1866e;
      }

      .cls-12 {
        fill: #64140e;
      }

      .cls-13 {
        clip-path: url(#clippath);
      }

      .cls-14 {
        fill: #e8b886;
      }
    </style>
    <clipPath id="clippath">
      <path class="cls-4" d="M13.58,68.09v32.45h291.53v-32.45H13.58ZM266.42,84.31c-.05.5-.15.92-.23,1.2,0,.01-.2,1.05-.91,1.59-.19.15-.36.21-.41.23-.37.14-.77.12-1.19-.02-.71.78-1.84.73-2.58.03-.19.12-.52.27-.91.23-.69-.06-1.12-.63-1.28-.85-.12-.16-.2-.31-.26-.44-.71-1.49-.28-2.85-.28-2.85.14-.44.35-1.13,1.05-1.56.71-.44,1.47-.33,1.69-.28.73-.65,1.93-.54,2.74,0,.24-.03.59-.04.98.04.25.06.61.14.96.42.12.1.41.36.58.79.14.36.11.72.04,1.43Z"/>
    </clipPath>
  </defs>
  <g>
    <path class="cls-12" d="M267.9,85.34c2.9,6.07,3.36,13.74,2.7,20.34-.57,5.71-2.17,11.21-4.94,16.24,4.85,2.3,8.72,1.7,13.64.32,3.51-.89,6.35-1.78,9.62.16,1.25.04,2.47.43,3.39,1.22.74.67,1.11,1.63.55,2.45.18.68-.21,1.22-.77,1.61-.02.76-.45,1.35-1.08,1.74-.8.64-1.71,1.04-2.75,1.33-1.53,1.73-3.53,2.91-5.71,3.78l-6.3,2.01c-2.1.67-3.98,1.82-5.07,3.7-1.23,2.11-1.3,4.46-.12,6.61l.98,1.56c.66.79.72,1.69.72,2.67-.01,1.49-.01,2.97-.63,4.35.26.67.3,1.29.1,1.96-.11,1.46-.61,3.47-1.95,3.5-.24.74-.85,1.11-1.62,1.02-.29-.08-.6-.11-.9-.13-.44-.02-.87-.18-1.2-.48-.92-.84-1.46-1.95-1.82-3.19-5.59-2.93-7.33-10.22-11.83-14.89l1,4.07c.74,3,1.47,5.95,1.58,9.03.06,1.79-.14,3.65-1.46,4.99-.21.99-.55,1.95-1.26,2.74-.33.38-.79.64-1.28.74-1.31.27-1.58-.18-2.53-.62-.29-.13-.55-.32-.76-.56-.82-.92-1.36-2-1.56-3.24-.96-1.55-1.42-3.19-1.68-5.03-.9-6.34-1.32-12.66-1.48-19.05l-.11-4.6-3.23.19c-4.15-.04-7.82-1.87-10.16-5.32-4.99-7.38-4.13-18.3,3.54-23.69,1.59-1.12,2.75-2.75,3.22-4.61l.1-2.19c1.58-1.04,3.21.58,3.9,2.5,1.23-1.51,2.89-4.2,4.16-2.8.41.84.7,1.78.58,2.75,4.69-.13,9.02,1.56,12.48,4.88.43-4.91.25-9.55-.13-14.27-.11-1.17-.14-2.18.07-3.44l.46-2.2c.3-1.28,1.39-2.13,2.66-1.83.86-.68,1.95-.69,2.81-.02,1.25-.22,2.28.51,2.84,1.63l1.21,2.06Z"/>
    <path class="cls-14" d="M264.67,122.15c.95.7,2.1.99,3.16,1.47,2.84,1.04,5.92,1.02,8.85.4,2.28-.58,4.56-1.12,6.85-1.6,1.42-.15,2.83-.08,4.22.2.5.26-2.36,1.54-1.75,5.47l-.02.6c-1.91,2.19-4.83,3.09-7.54,3.87-3.82.84-6.8,1.62-8.98,5.15-2.37,3.84-2.33,8.62-2.08,12.98,0,2.14-.37,4.71-2.68,5.46-.54.18-.99.27-1.5-.05-.98-.8-1.85-1.71-2.55-2.82l-2.8-4.45c-1.83-2.9-3.84-6.47-6.86-8.14l-.12.11c.97,4.24,1.7,8.63,2.03,12.92.17,2.16-.03,5.34-2.47,6.12-1.21.39-2.94-.08-3.75-1.05-.6-1.38-.84-2.88-1.06-4.38-.61-7.31-1.02-14.86-1.28-22.16,0-.1.06-.16.18-.18l.51-.28c3.04-.3,6.03-1.22,8.62-2.87,2.69-1.72,4.42-3.99,6.1-6.66.66-.76,1.2-1.61,1.72-2.53,3.06-5.39,1.14-11.03-2.67-15.47.34-3.29.45-6.59.35-9.9l-.41-6.72.18-.15.21-.03c2.08,1.51,4.45,1.19,6.62.07,1.26,1.64,1.67,4.06,2,6.11,1.43,9.06-.25,19.05-4.35,27.24.39.33.82.65,1.27.96v.3Z"/>
    <path class="cls-11" d="M263.2,156.1c1.62.08,2.92-.7,3.49-2.28.48-1.32.49-2.72.41-4.17-.29-4.78.09-10,3.35-13.68,1.39-1.58,3.21-2.46,5.25-2.96,3.13-.77,7.53-1.81,9.72-4.06.27-.28.55-.49.57-.85.15.96.48,1.84,1.19,2.64-2.54,2.65-6.7,3.81-10.18,4.78-1.64.46-3.12,1.05-4.45,2.06-3.43,2.62-4.07,7.32-1.46,10.79.55.73.99,1.46.98,2.44.09,1.43-.14,2.8-.55,4.19-1.52,1.84-3.9,2.92-6.28,2.39-.81-.18-1.47-.82-2.04-1.29Z"/>
    <path class="cls-11" d="M264.67,122.15c-.5-.37-1.07-.67-1.49-1.26,4.36-9.33,6.2-19.95,3.76-29.99-.28-1.16-.63-2.19-1.25-3.18-2.09,1.33-4.96,1.45-6.78-.23-.28.11-.29-.49-.12-.6.62.71,1.46,1.06,2.32.58.75.74,1.88.72,2.58-.04,2.27.62,2.32-1.91,2.78-1.99.4-.07.59.05.76.4.89,1.79,1.46,3.62,1.9,5.59,2.25,10,.61,21.77-4.47,30.72Z"/>
    <path class="cls-11" d="M250.99,140.69l.86,1.4c1.06,4.21,2.18,8.28,2.81,12.55.29,2.07.25,4.06-.85,5.86-1.69,1.07-3.82.96-5.53-.06-.77-.37-1.29-.93-1.6-1.65l1.45.7c.95.29,1.89.39,2.81-.13,2.04-1.15,1.87-4.65,1.61-7.1-.42-3.97-1.11-7.82-1.9-11.72.19-.09.26.1.35.15Z"/>
    <path class="cls-5" d="M287.75,122.63l-.74.15c-1.91-.41-3.67-.18-5.53.31-4.71,1.22-9.05,2.64-13.64.54,3.1.87,6.3.71,9.46-.07l5.8-1.42c1.62-.25,3.27-.22,4.65.5Z"/>
    <path class="cls-1" d="M263.26,86.72c-.35.69-1.26.68-1.72.17-.46-1.51-.52-3.07-.03-4.56.47-.56,1.39-.54,1.84,0-.34,1.47-.43,2.87-.09,4.4Z"/>
    <path class="cls-5" d="M244.52,132.08l.13,3.81.99,17.4c.02.42.25.8-.02,1.13-.97-7.41-1.3-14.89-1.46-22.36l.36.02Z"/>
    <path class="cls-1" d="M291.68,127.02c-1.56-.72-3.18-.73-4.88-.25-.13-.67.08-1.37.47-1.95,1.69-.64,4.75.28,4.87,1.36.04.32-.09.63-.46.83Z"/>
    <path class="cls-5" d="M258.8,86.89l.12.6.42,6.46c.23,3.48-.07,6.91-.54,10.32-.23-.27-.06-.68-.03-1.04.34-4.31.27-8.57-.07-12.89-.11-1.36-.22-2.58-.09-3.95.14.15.17.34.2.5Z"/>
    <path class="cls-1" d="M290.95,127.55c.35.46-.46,1.02-.85,1.24-.79.45-2.59.99-3.13.03-.15-.39-.31-.79-.16-1.23,1.32-.57,2.83-.57,4.14-.04Z"/>
    <path class="cls-1" d="M260.75,86.73c-.43.35-.99.16-1.25-.33-.51-.97-.62-2.25-.15-3.25.28-.59.89-.89,1.46-.79-.34,1.45-.4,2.83-.06,4.37Z"/>
    <path class="cls-1" d="M265.09,82.6c.6.84.46,3.38-.43,3.95-.22.14-.46.24-.66.04-.34-1.3-.39-2.78.09-4.1.13-.37.76-.03,1.01.11Z"/>
    <path class="cls-1" d="M269.58,160.28c.2.39-.41,1.09-.82.85-1.01-.61-1.41-1.77-1.62-2.87l1.6-.34c.12.87.41,1.53.84,2.36Z"/>
    <path class="cls-1" d="M270.16,159.81c-.52-.6-.61-1.4-.75-2.19l1.4-.85c.4.05.38.7.37,1.06-.02.58-.33,2.05-1.01,1.98Z"/>
    <path class="cls-2" d="M286.97,128.82c1.1.74,3.62-.08,3.98-1.27,1.18.48-1.51,2.26-3.23,2.55-.41-.36-.62-.8-.75-1.28Z"/>
    <path class="cls-1" d="M292.26,124.88c-1.39-.63-2.83-1.05-4.45-.91.27-.34.57-.5.94-.78,1.28-.05,2.77.35,3.51,1.7Z"/>
    <path class="cls-1" d="M250.85,164.05c-1.05.22-1.82-1.28-2.03-2.51l1.43.41c.08.75.22,1.42.6,2.09Z"/>
    <path class="cls-1" d="M248.77,163.03c-.92-.34-.93-.86-1.22-1.85l.78.26c.14.55.2,1.08.45,1.59Z"/>
    <path class="cls-1" d="M252.54,161.87c.57.3-.53,1.88-.87,1.89-.06,0-.11-.03-.17-.08-.39-.44-.48-1.03-.52-1.67l1.57-.15Z"/>
    <path class="cls-2" d="M270.16,159.81c.78-.76.91-2.04.64-3.04.25-.15.37-.48.74-.6.08,1.4-.43,3.84-1.11,3.84-.07,0-.21-.07-.27-.2Z"/>
    <path class="cls-2" d="M264,86.59c1.42-.09,1.36-2.38,1.09-3.99.41.23.66.79.56,1.42-.13.87.02,1.83-.68,2.48-.16.15-.31.33-.53.34-.14.01-.38,0-.44-.25Z"/>
    <path class="cls-1" d="M266.4,158.28l.7,2.28c-1.11-.55-1.16-1.47-1.53-2.3l.83.02Z"/>
    <path class="cls-2" d="M251.5,163.68c.64-.4.95-1.07,1.04-1.81l.68-.17c-.32,1.03-1.28,2.48-1.54,2.18l-.18-.2Z"/>
    <g>
      <path class="cls-11" d="M262.18,113.8c.37,4.85-3.36,8.85-6.87,12.16,1.7-.93,3.19-2.27,4.43-3.7-2.75,6.05-8.67,9.33-15.22,9.81-.03.34-.3.31-.36-.02-.35-.95,1.88-.71,3.29-1.92-2.4.5-4.58.93-6.94.94-6.11.03-10.16-3.68-11.8-9.31l1.43,2.23c1.37,2.14,3.35,3.63,5.72,4.51,2.94,1.09,5.92.93,8.97.3,5.48-1.14,10.58-3.88,14.09-8.26,1.64-2.05,2.84-4.24,3.26-6.73Z"/>
      <g>
        <path class="cls-14" d="M258.39,105.05c1.4,1.44,2.37,3.26,3.13,5.17.48,1.21.57,2.37.66,3.59-.33,4.6-4.21,8.79-7.88,11.3-8.08,5.52-21.28,7.31-25.6-3.33-1.03-2.23-1.16-4.95-.92-7.4.76-3.56,2.24-7.12,5.26-9.53,2.31-1.55,4.15-3.52,4.64-6.34.05-.72.14-1.78.7-1.64.59.12,1.02.74,1.28,1.24.18.34.32.76.41,1.15.17.7.02,1.18.31,1.17.33-.15.5-.6.74-.88.81-.99,1.64-1.97,2.47-2.96.49-.59.67-.15.86.45.07.23.13.46.18.69.09.38.13.8.18,1.19.04.36.31.54.62.62,4.9-.13,9.63,1.99,12.94,5.5Z"/>
        <path class="cls-5" d="M239.11,97.32c-.35-.16-.72-.37-1.1-.04-.06,2.74-1.4,5.25-3.69,6.87-2.42,1.71-4.25,3.91-5.27,6.74l-1.27,3.48c.43-4.45,2.7-8.42,6.36-10.99,2.07-1.45,3.84-4.32,3.36-6.89.71-.09,1.21.37,1.6.83Z"/>
        <g>
          <path class="cls-6" d="M238.48,128.17c.32.08.29.24-.04.29-3.27-.71-5.89-3.29-7.04-6.35.91-3.13,3.17-5.72,6.34-6.56,1.51-.4,2.99,0,4.01,1.05s1.51,2.54.93,3.99c-.79,2-3.94,4.49-4.21,7.59Z"/>
          <path class="cls-12" d="M240.84,118.96c.4.93-2.12-.07-4.05,2.74-.1.14-.29.22-.4.22-.13,0-.37-.23-.34-.47.19-2.02,2.39-3.59,4.29-2.85.24.09.45.24.5.37Z"/>
        </g>
        <g>
          <path class="cls-6" d="M257.56,108.4c2.03,2.51,2.87,6.21,1.53,9.29-.97-.51-2.01-.87-3.14-.83l-3.8.12c-1.84.17-3.45-.6-4.24-2.19-.77-1.55-.51-3.44.79-4.78,2.25-2.3,5.82-2.71,8.85-1.61Z"/>
          <path class="cls-12" d="M254.77,112.62c-3.11-.14-4.05,2.09-4.53,1.79-.18-.11-.26-.38-.2-.66.38-1.99,2.61-2.88,4.46-2.1.2.08.35.21.44.31.1.12.05.66-.17.65Z"/>
        </g>
        <g>
          <path class="cls-1" d="M257.56,108.4l-.41.11c-3.17-1.23-8.7.02-9.37,3.79-.44,2.47,1.32,4.27,3.71,4.46l4.46-.14c.62-.04,2.63.31,2.99.73.09.1.14.21.15.34-.6,1.38-1.46,2.62-2.43,3.77l-.12.14s-.09.09-.16.05c-.09.21-.26.37-.42.53-3.74,3.65-12.04,7.55-17.29,6.16-.08-.02-.14-.1-.2-.18-.23-.43-.19-.95.12-1.56.92-1.86,2.06-3.6,3.4-5.24,1.06-1.7.91-3.54-.68-4.87-3.42-2.84-8.75,1.77-9.58,5.32l-.33.28c-1.57-4.17-.15-8.67,3.84-10.9,2.15-1.2,4.64-1.56,7.05-.58.94-3.26,3.68-5.42,6.77-5.92,3.38-.55,6.62.9,8.5,3.7Z"/>
          <path class="cls-2" d="M256.39,121.66c-.02.28-.18.47-.41.69-3.55,3.49-8.13,5.69-13.08,6.4-1.56.22-3.01.02-4.46-.3l.04-.29c6.11,1.09,13.41-2.43,17.91-6.51Z"/>
          <path class="cls-2" d="M256.55,121.61l.12-.14-.12.14Z"/>
          <path class="cls-12" d="M249.89,118.65c-1.29,3.37-5.69,3.24-5.84,2.3-.03-.16.14-.56.41-.54,1.72.16,3.42-.62,4.48-2.04.18-.24.19-.53.56-.46.25.05.55.36.4.74Z"/>
          <g>
            <path class="cls-12" d="M244.3,118.58c-.37-.2-.58-.5-.64-.79-.28-1.42,3.26-2.97,3.86-1.91.46.82.07,1.85-.51,2.46-.67.7-1.85.71-2.71.24Z"/>
            <path class="cls-11" d="M246.52,116.46c-.76.25-1.41.77-2.27.87.95-1.3,2.98-1.5,2.49-1.06l-.22.19Z"/>
          </g>
        </g>
      </g>
    </g>
  </g>
  <g class="cls-13">
    <g>
      <g>
        <path class="cls-9" d="M19.62,80.45l-.15-3.63c-.05-1.29.68-2.32,1.9-2.84,5.16-2.2,11.72-.24,11.66,2.06l-.11,4.47c.56.23,1.04.55,1.35,1.07,1.03-.11,1.92.29,2.47,1.16h3.81v6.15l-4.14-.02c-1.34,2.04-2.85.7-3.92,1.79l-.25,5.78c-.59.88-1.43,1.3-2.4,1.68-2.95,1.21-9.4.14-9.51-1.73l-.37-6.08c-1.91-.94-2.45-3.17-1.52-5.03-.98-1.73-.71-4.01,1.17-4.86Z"/>
        <path class="cls-3" d="M40.55,84.81v2.7h-3.95v-2.68"/>
        <path class="cls-10" d="M36.6,84.1h3.95v1.04h-3.95v-1.04Z"/>
        <path class="cls-8" d="M27.94,97.13l.3-.17v-3.71c.34-.42,1.03-1.26.35-1.57-2.49.03-4.85,0-7.27-.78l.24,5.17c1.9,1.2,4.2,1.39,6.38,1.06Z"/>
        <path class="cls-7" d="M20.88,77.08c.49,1.2,2.63,1.57,3.85,1.72,1.85.23,4.59.08,6.16-.98.49-.33.7-.52.83-1.14.14-2.38-7.06-2.95-9.95-1.44-.82.41-1.16,1.03-.9,1.84Z"/>
        <path class="cls-8" d="M20.88,77.08l.16,4.47c2.26,1.02,4.72,1.15,7.11.92l.29-.28c.09-.78.19-1.55.3-2.31.78-.07,1.53-.29,2.25-.66.36-.12.53-.33.62-.69l.11-1.85c-1.85,2.54-8.39,2.44-10.84.4Z"/>
        <path class="cls-3" d="M33.4,82.7l-.36-.07c-2.53,1.76-6.34,2.12-9.29,1.5,0-.25-.02-.4-.31-.5-1.44-.28-2.79-.68-3.84-1.69-.5.79-.45,1.58-.14,2.43.18.5.87.93,1.58,1.23,3.43,1.43,7.36,1.37,10.78-.06,1.2-.51,1.8-1.6,1.58-2.84Z"/>
        <path class="cls-3" d="M28.83,87.63c.1.25.15.37.15.37-1.39.47-3.07.39-4.53.21-.74-.09-1.39-.2-1.8-.81-1.11-.32-2.07-.7-3.1-1.25-.59,1.29-.09,2.62,1.17,3.15,3.84,1.61,8.06,1.56,11.86-.19.34-.87.19-1.72.03-2.66-1.27.59-2.44.99-3.79,1.18Z"/>
        <path class="cls-7" d="M27.94,97.13h.03c1.07-.17,2.11-.43,2.98-1.16l.17-4.79c-1.06.28-2.08.48-3.13.51l-.05,5.44Z"/>
        <path class="cls-7" d="M28.15,82.47c1.12-.11,2.27-.34,3.31-.87l.15-3.07c-.93.62-2.33.92-3.45,1.16,0,1.11,0,1.88,0,2.78Z"/>
        <path class="cls-10" d="M23.44,83.63c.02.23-.03.46.04.62.36.78,7.74.73,9.92-1.56-.06-.36-.21-.63-.62-.72-.25.53-.69.85-1.25,1.04-2.6.9-5.39,1.14-8.1.61Z"/>
        <path class="cls-3" d="M34.3,84.53c-.72,2.1-.14,2.48-.27,4.25.44.08.77-.07,1.01-.3.66-.61-.07-2.14.34-3.67.03-.5-.83-.76-1.08-.28Z"/>
        <path class="cls-10" d="M23.1,87.49c1.89.38,3.79.41,5.74.13.28.04.47.18.46.4-.02.9-6.32.77-6.61-.16-.04-.13-.02-.29-.03-.46l.44.1Z"/>
        <path class="cls-10" d="M34.3,84.53c.4-.03.7.18,1.08.28.1-.39.25-.79.18-1.19-.06-.36-.32-.7-.89-.75-.06.56-.18,1.1-.37,1.67Z"/>
      </g>
      <g>
        <path class="cls-9" d="M299.63,80.45l.15-3.63c.05-1.29-.68-2.32-1.9-2.84-5.16-2.2-11.72-.24-11.66,2.06l.11,4.47c-.56.23-1.04.55-1.35,1.07-1.03-.11-1.92.29-2.47,1.16h-4.75v6.15l5.07-.02c1.34,2.04,2.85.7,3.92,1.79l.25,5.78c.59.88,1.43,1.3,2.4,1.68,2.95,1.21,9.4.14,9.51-1.73l.37-6.08c1.91-.94,2.45-3.17,1.52-5.03.98-1.73.7-4.01-1.17-4.86Z"/>
        <path class="cls-3" d="M277.76,84.81v2.7h4.89v-2.68"/>
        <path class="cls-10" d="M282.65,84.1h-4.89v1.04h4.89v-1.04Z"/>
        <path class="cls-8" d="M291.31,97.13l-.3-.17v-3.71c-.34-.42-1.03-1.26-.35-1.57,2.49.03,4.85,0,7.27-.78l-.24,5.17c-1.9,1.2-4.2,1.39-6.38,1.06Z"/>
        <path class="cls-7" d="M298.37,77.08c-.49,1.2-2.63,1.57-3.85,1.72-1.85.23-4.59.08-6.16-.98-.49-.33-.7-.52-.83-1.14-.14-2.38,7.06-2.95,9.95-1.44.82.41,1.16,1.03.9,1.84Z"/>
        <path class="cls-8" d="M298.37,77.08l-.16,4.47c-2.26,1.02-4.72,1.15-7.11.92l-.29-.28c-.09-.78-.19-1.55-.3-2.31-.78-.07-1.53-.29-2.25-.66-.36-.12-.53-.33-.62-.69l-.11-1.85c1.85,2.54,8.39,2.44,10.84.4Z"/>
        <path class="cls-3" d="M285.85,82.7l.36-.07c2.53,1.76,6.34,2.12,9.29,1.5,0-.25.02-.4.31-.5,1.44-.28,2.79-.68,3.84-1.69.5.79.45,1.58.14,2.43-.18.5-.87.93-1.58,1.23-3.43,1.43-7.36,1.37-10.78-.06-1.2-.51-1.8-1.6-1.58-2.84Z"/>
        <path class="cls-3" d="M290.42,87.63c-.1.25-.15.37-.15.37,1.39.47,3.07.39,4.53.21.74-.09,1.39-.2,1.8-.81,1.11-.32,2.07-.7,3.1-1.25.59,1.29.09,2.62-1.17,3.15-3.84,1.61-8.06,1.56-11.86-.19-.34-.87-.19-1.72-.03-2.66,1.27.59,2.44.99,3.79,1.18Z"/>
        <path class="cls-7" d="M291.31,97.13h-.03c-1.07-.17-2.11-.43-2.98-1.16l-.17-4.79c1.06.28,2.08.48,3.13.51l.05,5.44Z"/>
        <path class="cls-7" d="M291.1,82.47c-1.12-.11-2.27-.34-3.31-.87l-.15-3.07c.93.62,2.33.92,3.45,1.16,0,1.11,0,1.88,0,2.78Z"/>
        <path class="cls-10" d="M295.81,83.63c-.02.23.03.46-.04.62-.36.78-7.74.73-9.92-1.56.06-.36.21-.63.62-.72.25.53.69.85,1.25,1.04,2.6.9,5.39,1.14,8.1.61Z"/>
        <path class="cls-3" d="M284.95,84.53c.72,2.1.14,2.48.27,4.25-.44.08-.77-.07-1.01-.3-.66-.61.07-2.14-.34-3.67-.03-.5.83-.76,1.08-.28Z"/>
        <path class="cls-10" d="M296.15,87.49c-1.89.38-3.79.41-5.74.13-.28.04-.47.18-.46.4.02.9,6.32.77,6.61-.16.04-.13.02-.29.03-.46l-.44.1Z"/>
        <path class="cls-10" d="M284.95,84.53c-.4-.03-.7.18-1.08.28-.1-.39-.25-.79-.18-1.19.06-.36.32-.7.89-.75.06.56.18,1.1.37,1.67Z"/>
      </g>
      <g>
        <rect class="cls-9" x="40.55" y="82.75" width="237.21" height="1.35"/>
        <rect class="cls-10" x="40.55" y="84.1" width="237.21" height="1.04"/>
        <rect class="cls-3" x="40.55" y="85.14" width="237.21" height="2.37"/>
        <rect class="cls-9" x="40.55" y="87.51" width="237.21" height="1.4"/>
      </g>
    </g>
  </g>
</svg>