<?xml version="1.0" encoding="UTF-8"?>
<svg id="Vrstva_1" data-name="Vrstva 1" xmlns="http://www.w3.org/2000/svg" viewBox="0 0 29.18 29.5">
  <defs>
    <style>
      .cls-1 {
        fill: #1d1d1b;
      }
    </style>
  </defs>
  <path class="cls-1" d="M28.91,25.68c-.18,1.65-1.47,2.96-3.12,3.16-.51.06-1.02.12-1.53.17-7.29.75-14.07.57-20.2-.12-1.81-.2-3.18-1.71-3.21-3.53-.03-2.4-.13-4.41-.22-5.94C.29,13.97-.22,11.2.1,6.56c.07-1.07.18-2.06.29-2.94C.61,1.97,1.94.69,3.6.53,8.49.06,13.9-.14,19.76.11c1.81.08,3.57.2,5.27.35,1.9.17,3.36,1.77,3.3,3.68-.06,2.03-.03,3.71.02,4.96.21,5.23.89,7.49.83,12.16-.02,1.67-.13,3.16-.27,4.43Z"/>
</svg>