<?xml version="1.0" encoding="UTF-8"?>
<svg id="Vrstva_1" data-name="Vrstva 1" xmlns="http://www.w3.org/2000/svg" viewBox="0 0 37.94 37.33">
  <defs>
    <style>
      .cls-1 {
        fill: #1d1d1b;
      }
    </style>
  </defs>
  <path class="cls-1" d="M35.09,35.14c-2.52,2.35-6.4,2.87-9.4,1.27-4.06-2.17-6.28-7.67-10.73-8.65-3.15-.7-6.43,1.16-9.57.43C2.39,27.49.2,24.35.01,21.11c-.18-3.25,1.43-6.44,3.83-8.47,2.4-2.03,5.48-3,8.54-3.19,3.32-.21,6.97.35,9.69-1.68,1.78-1.34,2.77-3.54,4.18-5.3,1.41-1.76,3.78-3.15,5.72-2.09,1.94,1.06,2.27,3.85,2.15,6.16-.21,3.79-2.6,5.87-1.22,10.31.98,3.13,3.54,5.48,4.58,8.59,1.11,3.35.13,7.37-2.39,9.72Z"/>
</svg>