<?xml version="1.0" encoding="UTF-8"?>
<svg id="Vrstva_1" data-name="Vrstva 1" xmlns="http://www.w3.org/2000/svg" viewBox="0 0 79.37 79.37">
  <defs>
    <style>
      .cls-1 {
        fill: #fefbfc;
      }

      .cls-2 {
        fill: #f4dabb;
      }

      .cls-3 {
        fill: #ecc18e;
      }

      .cls-4 {
        fill: #f2d5b0;
      }

      .cls-5 {
        fill: #fff;
      }

      .cls-6 {
        fill: #a3d9ec;
      }

      .cls-7 {
        fill: #b589a6;
      }

      .cls-8 {
        fill: #c68e7b;
      }

      .cls-9 {
        fill: #96c4da;
      }

      .cls-10 {
        fill: #aa6a6d;
      }

      .cls-11 {
        fill: #d6b0a3;
      }

      .cls-12 {
        fill: #edc18e;
      }

      .cls-13 {
        fill: #c58863;
      }

      .cls-14 {
        fill: #d1b9ca;
      }

      .cls-15 {
        fill: #64140e;
      }

      .cls-16 {
        fill: #b388a5;
      }

      .cls-17 {
        fill: #69aaca;
      }

      .cls-18 {
        fill: #4c64ac;
      }

      .cls-19 {
        fill: #967660;
      }
    </style>
  </defs>
  <g>
    <path class="cls-5" d="M62.39,49.26s4.99,1.24,4.19,1.59c-.8.36-2.42.31-2.41.41s2.81,1.17,2.25,1.58c-.56.41-2.64.77-2.64.77,0,0,2.52,1.26,1.81,1.54-.7.28-3.1-.14-3.1-.14l-.11-5.76"/>
    <path class="cls-12" d="M55.22,46.96c4.04,1.2,8.27,1.44,8.73,4.7.46,3.26-2.1,4.53-7.8,4.09-3.56-.28-12.04-2.34-14.69-3.1,1.18-2.83,2.4-5.75,4.22-8.4,1.54.53,7.72,2.17,9.54,2.71Z"/>
    <path class="cls-13" d="M57.49,53.92c.23,0,.46,0,.68-.02,3.58-.21,4.89-1.81,5.34-2.64.04.14.08.29.1.45.15,1.08-.04,1.89-.6,2.48-.68.73-1.96,1.15-3.82,1.26-.87.05-1.87.03-3-.06-3.49-.27-11.94-2.32-14.58-3.08.16-.39.33-.78.49-1.17,3.47.94,12.11,2.8,15.39,2.78Z"/>
    <path class="cls-2" d="M55.12,47.3c.83.25,1.67.46,2.49.66,2.55.63,4.81,1.19,5.67,2.75-.49-.25-2.81-1.42-4.46-1.94-1.45-.45-10.05-2.46-13.69-3.67.12-.18.24-.37.36-.55,1.56.54,7.79,2.2,9.64,2.75Z"/>
    <path class="cls-15" d="M45.48,44.56q.13-.19,0,0c1.56.54,7.79,2.2,9.64,2.75.83.25,1.67.46,2.49.66,3.04.75,5.66,1.4,5.99,3.75.15,1.08-.04,1.89-.6,2.48-1.01,1.07-3.3,1.48-6.81,1.2-3.49-.27-11.94-2.32-14.58-3.08-.09.22-.19.44-.28.67,2.67.76,11.22,2.85,14.81,3.13,3.8.3,6.22-.17,7.39-1.43.7-.75.97-1.78.79-3.07-.4-2.84-3.38-3.57-6.53-4.35-.8-.2-1.63-.4-2.45-.65l-9.46-2.74-.38.68Z"/>
    <path class="cls-15" d="M41.6,52.31c-.09.22-.19.44-.28.67"/>
    <path class="cls-15" d="M65.1,55.61c.25-.01.47-.05.63-.11.3-.12.35-.36.35-.46,0-.14.02-.51-1.25-1.27.66-.15,1.46-.37,1.81-.63.16-.11.24-.28.22-.47-.04-.39-.49-.71-1.46-1.19.46-.05.96-.14,1.33-.3.3-.13.31-.39.3-.46-.03-.3-.22-.57-2.41-1.23-1.06-.32-2.13-.58-2.14-.59-.19-.05-.39.07-.44.26-.05.19.07.39.26.44,1.33.33,2.83.77,3.59,1.07-.4.08-.86.12-1.21.14-.16.01-.31.02-.41.04-.4.05-.47.26-.46.42.01.24.14.3.73.58.34.16,1.15.54,1.48.8-.52.23-1.63.48-2.3.6-.15.03-.27.15-.3.3-.02.15.06.3.19.37.63.32,1.25.7,1.56.95-.62.06-1.82-.08-2.62-.22-.2-.03-.38.1-.42.29-.03.2.1.38.29.42.33.06,1.72.29,2.67.23h0Z"/>
  </g>
  <g>
    <path class="cls-5" d="M14.2,64.14c.17-.74.95-1.14,1.68-.86.37.14.74.4,1.05.86.74,1.1-.99,3.06-2.99,3.68-.53.16-1.02-.43-.75-.91.34-.61.72-1.5,1.01-2.76"/>
    <path class="cls-14" d="M13.75,67.41c-.08,0-.13-.06-.15-.08-.02-.03-.07-.1-.04-.19.35-.11.68-.25.98-.41.02.11.07.22.14.31-.28.15-.57.28-.86.37-.02,0-.05,0-.07,0"/>
    <path class="cls-15" d="M14.2,64.14h0s0,0,0,0M15.48,63.63c-.16-.01-.32.02-.46.09-.2.11-.35.29-.4.52-.25,1.11-.61,2.08-1.06,2.88-.05.09,0,.18.03.21.02.03.1.11.22.08,1.24-.38,2.47-1.39,2.79-2.3.11-.3.1-.54-.03-.73-.22-.33-.5-.56-.85-.69-.08-.03-.17-.05-.25-.06M13.67,68.27c-.28-.02-.55-.17-.75-.4-.28-.34-.32-.8-.11-1.18.41-.73.73-1.62.97-2.65.11-.47.41-.87.83-1.09.44-.23.96-.26,1.43-.07.51.2.93.54,1.25,1.02.28.42.33.94.13,1.5-.41,1.17-1.82,2.36-3.35,2.83-.13.04-.27.05-.4.04"/>
    <path class="cls-5" d="M13.13,63.53c.36-.67,1.23-.84,1.85-.37.32.24.61.59.78,1.11.41,1.26-1.78,2.68-3.88,2.73-.56.01-.87-.69-.47-1.08.49-.49,1.11-1.25,1.72-2.38"/>
    <path class="cls-14" d="M11.85,66.57c-.11,0-.15-.1-.17-.13-.01-.03-.04-.12,0-.19.36-.03.72-.08,1.07-.16-.02.12,0,.25.05.36-.31.07-.62.11-.93.12,0,0-.01,0-.02,0"/>
    <path class="cls-15" d="M13.13,63.53h0s0,0,0,0M14.27,63.33c-.08,0-.16,0-.24.01-.23.05-.41.19-.52.39-.55,1-1.15,1.84-1.8,2.48-.08.08-.05.17-.03.21.01.03.07.14.19.13,1.3-.03,2.75-.67,3.31-1.45.18-.26.24-.5.17-.71-.12-.37-.33-.68-.63-.9-.13-.1-.29-.16-.45-.18M11.78,67.43c-.39-.03-.73-.28-.89-.65-.17-.4-.09-.86.21-1.16.59-.59,1.14-1.36,1.65-2.29.23-.42.63-.72,1.1-.82.48-.1.99.01,1.39.32.44.33.75.77.92,1.32.16.48.06.99-.29,1.48-.72,1.01-2.39,1.78-3.99,1.82-.04,0-.08,0-.12,0"/>
    <path class="cls-5" d="M12.41,62.34c.49-.64,1.43-.69,2.01-.09.29.3.54.72.64,1.29.23,1.4-2.3,2.53-4.51,2.25-.59-.07-.8-.87-.33-1.21.6-.44,1.36-1.14,2.19-2.23"/>
    <path class="cls-14" d="M10.79,65.38c-.06,0-.13-.01-.19-.02-.14-.02-.19-.15-.2-.19-.01-.05-.03-.17.08-.25.52-.38,1.04-.86,1.54-1.42.02.31.1.59.22.84-.14.12-.28.22-.4.32-.24.18-.31.47-.23.73-.28.02-.55.02-.82,0"/>
    <path class="cls-15" d="M12.41,62.34l.34.26c-.73.96-1.5,1.75-2.28,2.32-.11.08-.09.2-.08.25.01.04.06.17.2.19,1.38.17,3.02-.27,3.73-1.01.24-.25.34-.5.3-.74-.07-.42-.25-.78-.52-1.06-.19-.2-.46-.3-.72-.29-.25.02-.48.14-.63.34l-.34-.26M10.73,66.24c-.08,0-.16-.01-.23-.02-.45-.06-.81-.38-.93-.83-.11-.44.04-.9.4-1.16.72-.53,1.42-1.25,2.11-2.15.31-.4.77-.65,1.27-.68.52-.03,1.02.17,1.39.55.4.41.66.92.75,1.52.09.52-.1,1.03-.53,1.48-.87.9-2.62,1.43-4.23,1.29"/>
    <path class="cls-5" d="M44.66,73.84c-.76.11-1.45-.47-1.47-1.23-.01-.39.08-.82.38-1.26.74-1.07,3.26-.18,4.63,1.43.37.43,0,1.09-.56,1.01-.7-.1-1.69-.13-2.99.05"/>
    <path class="cls-14" d="M47.89,73.28c-.24-.26-.51-.5-.79-.72.05-.04.09-.09.12-.14.24.2.46.41.66.64.07.08.04.16.02.2,0,0,0,0,0,.02"/>
    <path class="cls-15" d="M44.83,71.32c-.09,0-.18,0-.27,0-.3.02-.52.11-.63.28-.21.31-.32.65-.31,1,0,.24.11.47.3.62.19.16.43.23.68.19,1.14-.16,2.18-.18,3.11-.06.11.02.17-.06.19-.1.02-.04.05-.12-.02-.2-.8-.94-2.08-1.65-3.04-1.74M44.33,74.28c-.35-.03-.69-.17-.97-.4-.37-.31-.6-.77-.61-1.26-.02-.54.14-1.05.46-1.52.27-.4.72-.62,1.3-.65,1.24-.06,2.97.82,4.01,2.04.28.33.33.79.12,1.18-.21.39-.63.6-1.06.54-.84-.12-1.81-.1-2.87.05-.13.02-.26.02-.39.01"/>
    <path class="cls-3" d="M26.39,51.43c-3.12,6.15-5.79,4.94-8.36,4.66-1.78-.19-7.27,6.39-5.09,8.49,1.97,1.9,7.39-.91,7.39-.91,0,0,6.5,3.75,10.67-.7l-4.61-11.55"/>
    <path class="cls-8" d="M14.59,64.8c-.54-.05-1.01-.21-1.34-.52-.69-.66-.28-1.96.08-2.76.01.5.17.93.5,1.26.41.4.98.59,1.61.64,2.39.2,5.78-1.55,5.78-1.55,0,0,.52.21,1.18.26s1.47-.03,2.07-.61c1.22,1.1,2.65,1.96,4.27,2.59-1.21.56-2.49.67-3.67.57-2.46-.21-4.49-1.35-4.52-1.37l-.2-.12-.21.11c-1.1.57-3.74,1.66-5.55,1.5"/>
    <path class="cls-15" d="M14.51,65.65c-.72-.06-1.38-.28-1.86-.75-.84-.81-.85-2.16-.04-3.89,1.16-2.48,3.95-5.47,5.45-5.34,0,0,.02,0,.02,0,.29.03.59.07.87.12,2.27.33,4.42.65,7.06-4.55.11-.21.37-.3.58-.19.21.11.3.37.19.58-2.92,5.75-5.59,5.36-7.95,5.01-.29-.04-.56-.08-.84-.11h0c-.82-.07-3.39,2.28-4.59,4.85-.37.78-.87,2.2-.14,2.9,1.43,1.38,5.46-.24,6.89-.98l.21-.11.2.12c.06.04,6.25,3.52,10.14-.62.16-.17.44-.18.61-.02.17.16.18.44.02.61-1.81,1.93-4.33,2.67-7.29,2.15-1.77-.31-3.19-.99-3.7-1.26-.79.39-3.63,1.67-5.82,1.49"/>
    <path class="cls-3" d="M49.31,56.89c-.92,3.3-4.48,6.09-6.79,6.84-5.97,1.93-16.63,2.18-20.8-6.68-2.22-4.71-1.03-10.24,4.98-19.09,2.23-3.29,5.13-7.03,8.76-11.36l10.63,12.13c-.26,1.83.04,3.52.57,5.16,1.33,4.14,4.06,7.98,2.66,13.02"/>
    <path class="cls-8" d="M32.01,64.09c-3.21-.56-6.36-2.01-8.56-4.97.11-.06.22-.12.33-.18,1.97,2.2,4.52,3.46,7.19,4.08.16.19.32.36.49.53.18.19.36.37.55.54M45.69,61.36s-.05-.08-.07-.13c-.06-.11-.13-.23-.2-.33-.02-.03-.04-.06-.06-.09,1.51-1.14,2.96-2.75,3.67-4.55-.04.17-.08.34-.13.51-.49,1.77-1.79,3.38-3.21,4.58"/>
    <path class="cls-8" d="M48.63,47.78c-.14-.34-.27-.67-.41-1.01-.29-.7-.57-1.39-.83-2.08,0,0,0,0,0,0,.41,1.02.85,2.04,1.24,3.08"/>
    <path class="cls-15" d="M47.4,44.7s0,0,0,0c-.01-.03-.02-.06-.03-.09.01.03.03.06.04.1"/>
    <path class="cls-15" d="M33.55,65.17c-.76-.06-1.49-.17-2.2-.31-4.66-.95-8.13-3.59-10.03-7.63-1.63-3.47-1.41-7.28.69-12.01,2.12-4.76,6.28-10.77,13.11-18.91.15-.18.42-.21.61-.05.18.15.21.43.05.61-12.98,15.48-16.68,23.61-13.68,30,4.2,8.93,15.1,8.13,20.28,6.46,2.16-.7,5.62-3.36,6.51-6.54,1.02-3.64-.19-6.57-1.47-9.67-1.08-2.63-2.21-5.35-1.76-8.44.03-.24.25-.4.49-.37.24.03.4.25.37.49-.41,2.86.62,5.35,1.71,7.99,1.28,3.1,2.6,6.31,1.51,10.23-1.01,3.63-4.82,6.4-7.08,7.13-2.87.93-6.13,1.28-9.1,1.03"/>
    <path class="cls-8" d="M40.98,43.81c-5.91-.5-10.99-2.33-13.98-5.53.26-.39.53-.78.81-1.18,3.01,3.09,8.01,4.87,13.82,5.36.55.05,1.1.08,1.66.11.87.04,1.72.05,2.56.03.1.44.22.88.36,1.31-1.16.06-2.35.07-3.57.01-.56-.02-1.11-.06-1.66-.11"/>
    <path class="cls-15" d="M46.21,43.9c-.14-.43-.26-.87-.36-1.31.06,0,.12,0,.19,0,0,0,0,0,0,0,0,.21.16.37.35.41.08.3.16.59.26.88-.15,0-.3.02-.44.03M27,38.28c-.1-.11-.2-.22-.3-.33.26-.38.53-.78.81-1.17.1.11.2.22.3.32-.28.4-.55.79-.81,1.18"/>
    <path class="cls-3" d="M24.81,29.08c-.37,8.61,7.98,13.04,18.49,13.49,10.51.45,19.21-3.26,19.57-11.87.35-8.25-4.6-17.9-16.64-19.18-1.43-.81-3.35-2.18-4.38-4.14-.32-.61-1.21-.56-1.46.08-.33.86-.64,2-.12,3.5-1.58-.85-3.15-1.81-3.66-2.31-.54-.53-1.46-.15-1.47.61,0,.74.19,2.3.44,3.62-7.06,2.97-10.51,9.86-10.78,16.19"/>
    <path class="cls-17" d="M27.22,36.44c-1.65-1.97-2.54-4.43-2.41-7.37.04-.86.13-1.72.29-2.59-.11.59-.18,1.18-.23,1.77-.02.27-.04.55-.05.82h0s0,.01,0,.02c0,0,0,0,0,0,0,0,0,0,0,.01,0,0,0,0,0,0,0,0,0,0,0,.02,0,0,0,0,0,0,0,0,0,0,0,.01,0,0,0,0,0,0,0,0,0,0,0,.02h0s0,.01,0,.02c0,0,0,0,0,0,0,0,0,0,0,.01h0s0,.01,0,.02c0,0,0,0,0,0,0,0,0,0,0,0,0,0,0,0,0,0,0,0,0,0,0,.01,0,0,0,0,0,0,0,0,0,0,0,0,0,0,0,0,0,0,0,0,0,0,0,0,0,0,0,0,0,.01,0,0,0,0,0,0,0,0,0,0,0,0,0,0,0,0,0,0,0,0,0,.01,0,.02,0,0,0,0,0,0,0,0,0,0,0,0,0,0,0,0,0,0,0,.01,0,.02,0,.03,0,0,0,0,0,0-.01.64.02,1.27.11,1.86,0,0,0,0,0,0,0,0,0,0,0,0,0,0,0,0,0,0,0,0,0,0,0,0,0,0,0,0,0,.01,0,0,0,0,0,0,.29,1.99,1.09,3.71,2.31,5.17h0"/>
    <path class="cls-15" d="M27.51,36.78c-.1-.11-.2-.22-.29-.33h0c.09.11.19.22.29.33h0"/>
    <path class="cls-10" d="M41.63,42.46c-5.81-.49-10.81-2.27-13.82-5.36h0c3.01,3.09,8.01,4.87,13.82,5.36.55.05,1.1.08,1.66.11.87.04,1.72.05,2.56.03h0c-.84.02-1.69.01-2.56-.03-.56-.02-1.12-.06-1.66-.11"/>
    <path class="cls-15" d="M45.86,42.59h0c.06,0,.12,0,.19,0h0c-.06,0-.12,0-.19,0M27.81,37.1c-.1-.11-.2-.21-.3-.32h0c.1.11.2.22.3.32h0"/>
    <path class="cls-8" d="M41.63,42.46c-5.81-.5-10.81-2.27-13.82-5.36-.1-.11-.2-.21-.3-.32-.1-.11-.2-.22-.29-.33-1.22-1.46-2.02-3.18-2.31-5.17.09.63.23,1.23.42,1.8-.15-.82-.21-1.69-.17-2.6.03-.63.09-1.27.19-1.91.72,7.03,7.78,10.87,16.78,11.64.55.05,1.1.08,1.66.11,8.21.35,15.31-1.84,18.2-6.91-.68,2.29-2.12,4.17-4.3,5.63-.87.58-1.77,1.43-2.84,1.85-.47.05-.81.36-1.2.43-.7.13-.8-.08-.91.28-1.65.38-4.36.47-6.29.55-.24,0-.42.21-.41.45-.06,0-.12,0-.19,0-.84.02-1.69.01-2.56-.03-.56-.02-1.12-.06-1.66-.11M24.91,31.27s0,0,0-.01c0,0,0,0,0,.01M24.91,31.26s0,0,0,0c0,0,0,0,0,0M24.9,31.24s0,0,0,0c0,0,0,0,0,0M24.8,29.37s0,0,0,0c0,0,0,0,0,0M24.8,29.34s0,0,0,0c0,0,0,0,0,0M24.8,29.33s0,0,0,0c0,0,0,0,0,0M24.8,29.31s0,0,0,0c0,0,0,0,0,0M24.8,29.29s0,0,0,0c0,0,0,0,0,0M24.8,29.27s0,0,0,0c0,0,0,0,0,0M24.8,29.26s0,0,0,0c0,0,0,0,0,0M24.8,29.24s0,0,0-.01c0,0,0,0,0,.01M24.8,29.23s0,0,0,0c0,0,0,0,0,0M24.8,29.21s0,0,0-.01c0,0,0,0,0,.01M24.8,29.19s0,0,0-.01c0,0,0,0,0,.01M24.8,29.18s0,0,0-.01c0,0,0,0,0,.01M24.8,29.16s0,0,0-.02c0,0,0,.01,0,.02M24.8,29.14s0,0,0-.01c0,0,0,0,0,.01M24.8,29.13s0,0,0-.02c0,0,0,.01,0,.02M24.8,29.11s0,0,0-.01c0,0,0,0,0,.01M24.8,29.09s0-.01,0-.02c0,0,0,.01,0,.02"/>
    <path class="cls-6" d="M46.98,11.61c-.15-.02-.29-.04-.44-.06.15.02.29.04.44.06h0M46.54,11.56s-.03,0-.05,0c.02,0,.04,0,.05,0M46.49,11.55s-.01,0-.02,0c0,0,.01,0,.02,0M46.47,11.55s-.01,0-.02,0c0,0,.01,0,.02,0M46.46,11.55s-.02,0-.03,0c.01,0,.02,0,.03,0M46.42,11.54s-.01,0-.01,0c0,0,0,0,.01,0M46.4,11.54s-.01,0-.02,0c0,0,0,0,.02,0M46.39,11.54s-.02,0-.03,0c.01,0,.02,0,.03,0M46.35,11.53s0,0-.01,0c0,0,0,0,.01,0M46.33,11.53s0,0-.01,0c0,0,0,0,.01,0M46.32,11.53s-.02,0-.03,0c.01,0,.02,0,.03,0M46.28,11.52s0,0-.01,0c0,0,0,0,.01,0M46.26,11.52s0,0-.01,0c0,0,0,0,.01,0M46.24,11.52s-.01,0-.02,0c0,0,.01,0,.02,0"/>
    <path class="cls-4" d="M25.35,28.57c-.06-.56-.07-1.14-.05-1.75.03-.75.11-1.5.23-2.25-.18.63-.33,1.27-.44,1.92.99-5.53,4.39-11.03,10.5-13.6h0c-.25-1.32-.45-2.89-.44-3.62,0-.02,0-.05,0-.07.04-.5.49-.82.94-.78.19.02.37.09.53.25.51.5,2.08,1.46,3.66,2.31h0c-.26-.74-.31-1.38-.26-1.95.05-.6.22-1.11.38-1.55.14-.37.48-.54.82-.51.25.02.5.16.64.43,1.03,1.96,2.95,3.33,4.38,4.14h0s.01,0,.02,0c0,0,0,0,0,0,0,0,0,0,.01,0,0,0,0,0,0,0,0,0,0,0,.01,0,0,0,0,0,0,0,.01,0,.02,0,.03,0,0,0,0,0,0,0,0,0,0,0,.01,0,0,0,0,0,0,0,0,0,0,0,.01,0,0,0,0,0,0,0,.01,0,.02,0,.03,0h0s.01,0,.02,0c0,0,0,0,0,0,0,0,.01,0,.01,0,0,0,0,0,0,0,.01,0,.02,0,.03,0t0,0s.01,0,.02,0c0,0,0,0,0,0,0,0,.01,0,.02,0h0s.03,0,.05,0c0,0,0,0,0,0,.15.02.29.04.44.06-.03.23.13.45.36.49,6.01.95,10.1,4.18,12.49,8.19-2.47-3.5-6.34-6.24-11.81-7.17-1.09-.18-2.14-.56-3.07-1.14-1.17-.73-2.41-1.67-3.09-2.98-.23-.44-.44-.64-.62-.66-.2-.02-.36.19-.49.52-.25.64-.48,1.44-.37,2.43.04.34-.25.59-.56.57-.07,0-.14-.03-.21-.07-1.19-.68-2.24-1.35-2.63-1.74-.23-.22-.44-.35-.62-.36-.25-.02-.41.17-.42.62,0,.49.12,1.33.28,2.22.14.79-.26,1.58-.97,1.95-5.63,2.92-9.05,8.64-9.9,14.08"/>
    <path class="cls-9" d="M24.91,31.28s0,0,0,0c0,0,0,0,0,0M24.91,31.26s0,0,0,0c0,0,0,0,0,0M24.91,31.25s0,0,0,0c0,0,0,0,0,0M24.9,31.24c-.08-.6-.12-1.22-.11-1.86-.01.64.02,1.27.11,1.86M24.8,29.37s0-.02,0-.03c0,.01,0,.02,0,.03M24.8,29.34s0,0,0,0c0,0,0,0,0,0M24.8,29.32s0-.01,0-.02c0,0,0,.01,0,.02M24.8,29.3s0,0,0,0c0,0,0,0,0,0M24.8,29.29s0,0,0-.01c0,0,0,0,0,.01M24.8,29.27s0,0,0,0c0,0,0,0,0,0M24.8,29.25s0,0,0,0c0,0,0,0,0,0M24.8,29.23s0,0,0,0c0,0,0,0,0,0M24.8,29.22s0,0,0,0c0,0,0,0,0,0M24.8,29.2h0s0,0,0,0M24.8,29.18s0,0,0,0c0,0,0,0,0,0M24.8,29.16h0s0,0,0,0M24.8,29.15s0,0,0,0c0,0,0,0,0,0M24.8,29.13s0,0,0,0c0,0,0,0,0,0M24.8,29.11s0,0,0,0c0,0,0,0,0,0M24.8,29.1s0,0,0,0c0,0,0,0,0,0"/>
    <path class="cls-11" d="M25.33,33.08c-.19-.57-.33-1.17-.42-1.8,0,0,0,0,0,0,0,0,0,0,0-.01,0,0,0,0,0,0,0,0,0,0,0,0,0,0,0,0,0,0,0,0,0,0,0,0-.08-.6-.12-1.22-.11-1.86,0,0,0,0,0,0,0-.01,0-.02,0-.03,0,0,0,0,0,0,0,0,0,0,0,0,0,0,0,0,0,0,0,0,0-.01,0-.02,0,0,0,0,0,0,0,0,0,0,0,0,0,0,0,0,0,0,0,0,0,0,0-.01,0,0,0,0,0,0,0,0,0,0,0,0,0,0,0,0,0,0,0,0,0,0,0,0,0,0,0,0,0-.01,0,0,0,0,0,0,0,0,0,0,0,0,0,0,0,0,0,0,0,0,0,0,0-.01h0s0-.01,0-.02c0,0,0,0,0,0,0,0,0,0,0-.01h0s0-.01,0-.02c0,0,0,0,0,0,0,0,0,0,0-.01,0,0,0,0,0,0,0,0,0-.01,0-.02,0,0,0,0,0,0,0,0,0,0,0-.01,0,0,0,0,0,0,0,0,0-.01,0-.02h0c.01-.27.03-.54.05-.82.05-.59.13-1.18.23-1.77.11-.64.26-1.28.44-1.92-.12.75-.2,1.51-.23,2.25-.03.6,0,1.18.05,1.75-.1.64-.16,1.28-.19,1.91-.04.91.02,1.78.17,2.6"/>
    <path class="cls-1" d="M28.61,28.07c-.11,2.51.54,5.24,2.73,7.42,2.24,2.23,6.09,3.89,12.39,4.16h0c6.24.27,10.2-1.03,12.63-3.03,2.42-2,3.32-4.69,3.43-7.23.02-.52,0-1.02-.06-1.52-.54-4.38-4.17-7.86-8.73-8.05-2.49-.11-4.79.79-6.52,2.33-1.59-1.68-3.8-2.77-6.29-2.88-4.5-.19-8.38,2.88-9.35,7.12h0c-.12.54-.2,1.1-.23,1.67"/>
    <path class="cls-15" d="M41.85,29.2c-.03.78.97,1.76,2.25,1.82,1.28.05,2.36-.84,2.4-1.62.03-.78-.99-1.15-2.28-1.21-1.28-.05-2.34.23-2.37,1.01"/>
    <path class="cls-7" d="M44.03,29.27c-.48-.04-.86-.26-.85-.44,0-.18.43-.24.96-.22.07,0,.14,0,.2.01.43.04.74.13.73.29,0,.18-.44.38-.96.36-.03,0-.05,0-.08,0"/>
    <path class="cls-15" d="M41.67,33.28c-1-.09-1.5-.82-1.63-1.57-.04-.23.12-.46.35-.5.23-.04.46.12.5.35.08.47.38.99,1.33.83,1.35-.24,1.47-1.84,1.47-1.91l.86.04c0,.07-.02,1.67,1.31,2.02.93.25,1.27-.25,1.39-.71.06-.23.3-.37.53-.31.23.06.37.3.31.53-.24.89-1,1.71-2.45,1.32-.8-.21-1.29-.73-1.58-1.3-.34.54-.87,1.02-1.69,1.16-.26.04-.49.06-.7.04h0Z"/>
    <path class="cls-15" d="M46.44,43c-.21-.02-.38-.19-.39-.41,0-.24.18-.44.41-.45,4.59-.19,8.48-1.26,11.24-3.11,3-2,4.59-4.81,4.74-8.35.33-7.75-4.25-16.87-15.09-18.58-.24-.04-.4-.26-.36-.49.04-.24.26-.4.49-.36,5.24.83,9.51,3.37,12.33,7.36,2.44,3.43,3.67,7.73,3.49,12.11-.16,3.78-1.93,6.9-5.13,9.03-2.89,1.93-6.93,3.06-11.68,3.25-.02,0-.04,0-.05,0"/>
    <path class="cls-15" d="M43.3,42.57c.12-.06.24-.1.37-.14.12-.04.24-.07.36-.1.24-.05.48-.08.72-.11.24-.03.48-.05.71-.06.24-.01.48-.02.71,0h0c.24.01.42.22.41.46-.01.21-.18.38-.38.4-.24.03-.49.03-.73.03-.24,0-.49-.03-.73-.06-.24-.03-.49-.07-.73-.13-.12-.03-.24-.07-.36-.12-.12-.05-.24-.1-.36-.17h0Z"/>
    <path class="cls-15" d="M27.82,36.48c.15.14.29.29.43.44.14.15.27.31.4.47.13.16.27.32.39.49.06.09.12.18.18.28.06.1.11.2.16.31-.12-.01-.24-.04-.35-.07-.11-.03-.22-.07-.32-.12-.2-.09-.39-.21-.57-.33-.18-.12-.36-.26-.52-.41-.16-.15-.32-.31-.45-.48-.14-.19-.1-.46.09-.61.17-.12.39-.11.54.03h0Z"/>
    <path class="cls-15" d="M27.34,37.06c-.11,0-.21-.06-.29-.15-1.91-2.19-2.81-4.83-2.68-7.85.15-3.42,1.16-6.73,2.92-9.59,1.96-3.17,4.79-5.6,8.19-7.01.22-.09.47.01.56.23.09.22-.01.47-.23.56-7.44,3.1-10.34,10.21-10.58,15.84-.12,2.8.71,5.24,2.47,7.25.16.18.14.45-.04.61-.09.08-.21.11-.32.1h0Z"/>
    <path class="cls-19" d="M47.4,29c.27,2.73,2.44,3.47,5.24,4.74,1.76.8,2.95,1.92,3.72,2.89,2.42-2,3.32-4.69,3.43-7.23.02-.52,0-1.02-.06-1.52-1.61-1.82-4.2-3.62-8.05-3.32-2.82.22-4.48,2.47-4.28,4.44h0Z"/>
    <path class="cls-19" d="M28.61,28.07c-.11,2.51.54,5.24,2.73,7.42.85-.89,2.11-1.87,3.89-2.5,2.91-1.03,5.12-1.57,5.63-4.27.36-1.94-1.1-4.33-3.89-4.79-3.69-.61-6.37.85-8.13,2.46h0c-.12.54-.2,1.1-.23,1.67h0Z"/>
    <path class="cls-15" d="M40.61,11.98c-.11,0-.21-.06-.29-.15-.93-1.09-1.05-2.65-.33-4.52.18-.46.59-.76,1.07-.79.49-.03.94.22,1.17.66,1.66,3.14,5.25,4.07,5.29,4.08.23.06.37.29.31.52-.06.23-.29.37-.52.32-.16-.04-4-1.02-5.84-4.51-.11-.2-.3-.2-.35-.2-.07,0-.24.04-.32.24-.42,1.09-.72,2.6.18,3.65.16.18.13.45-.05.61-.09.08-.21.11-.32.1h0Z"/>
    <path class="cls-15" d="M35.61,13.29c-.15-.01-.29-.11-.36-.26-.37-.84-.56-2.11-.54-3.77,0-.53.31-.98.79-1.18.49-.2,1.03-.1,1.41.27,1.31,1.28,2.51,2.06,3.45,2.24.23.05.39.27.34.51-.05.23-.27.39-.51.34-1.13-.22-2.44-1.05-3.89-2.47-.19-.19-.41-.12-.47-.09-.06.03-.26.13-.26.39-.01,1.51.15,2.7.47,3.42.1.22,0,.47-.22.57-.07.03-.14.04-.21.04h0Z"/>
    <path class="cls-15" d="M54.42,29.89c-.07-.02-.17-.07-.26-.11-.05-.02-.09-.04-.14-.06l-.14-.06c-.09-.04-.18-.07-.27-.11l-.27-.1c-.36-.13-.72-.22-1.07-.28-.18-.04-.36-.04-.54-.07-.18,0-.36-.02-.54-.01-.09,0-.19,0-.28,0-.09,0-.19.02-.28.02-.1,0-.19.02-.29.03-.1.01-.2.02-.31.03h-.08c-.26.01-.48-.19-.48-.45,0-.16.07-.3.18-.39.39-.3.85-.53,1.35-.63.25-.07.51-.08.76-.1.26,0,.52.01.77.07.5.09.98.27,1.41.53.1.07.21.13.31.21.1.08.2.15.29.23.09.08.18.17.27.26.09.09.16.18.25.3.15.21.1.49-.1.64-.12.09-.27.11-.41.07l-.12-.04h0Z"/>
    <path class="cls-15" d="M32.94,28.28c.1-.11.18-.2.27-.28.09-.09.19-.16.29-.24.1-.08.2-.14.31-.21.11-.06.22-.12.33-.18.45-.22.94-.36,1.45-.4.25-.03.51-.02.77,0,.25.04.51.07.75.16.49.14.93.41,1.29.74.19.17.21.47.03.66-.11.12-.26.17-.4.15h-.08c-.11-.02-.2-.04-.3-.06-.1-.02-.19-.05-.29-.06-.1-.01-.19-.03-.28-.05-.09-.02-.19-.02-.28-.03-.18-.03-.36-.02-.54-.04-.18,0-.36,0-.54.02-.36.03-.72.09-1.09.19l-.28.08c-.09.03-.19.05-.28.08l-.14.04s-.09.03-.14.05c-.09.03-.19.07-.27.09l-.12.03c-.25.06-.49-.1-.55-.34-.03-.15,0-.3.1-.4h0Z"/>
    <path class="cls-3" d="M30.94,62.75c7.21,5.12,3.2,7.78,3.79,10.4.43,1.91,9.56,3.15,10.64.75,1.16-2.59-2.2-3.92-2.2-3.92,0,0,5.82-4.94.76-10.29l-12.98,3.06"/>
    <path class="cls-8" d="M40.08,74.74h-.03c-.58-.05-1.17-.14-1.74-.25-.57-.11-1.14-.26-1.68-.45-.27-.1-.53-.21-.77-.34-.24-.13-.46-.28-.6-.44-.07-.08-.11-.15-.12-.2l-.03-.18c0-.06,0-.13-.02-.19-.01-.25.02-.52.07-.8.1-.55.29-1.13.42-1.74.06-.31.11-.63.14-.95.02-.32.01-.66-.02-.98-.09-.66-.3-1.29-.6-1.86-.3-.57-.68-1.09-1.1-1.56-.42-.46-.88-.89-1.38-1.26-.45-.33-.93-.62-1.45-.84.41-.07.82-.09,1.21-.06,2.7.23,4.77,2.87,4.03,5.72-.22.87-.47,1.66-.29,2.45.22.99,2.77,1.8,5.32,2.01.08,0,.16.01.25.02-.29.43-.37.85-.36,1.23,0,.27.1.52.25.72-.5,0-1-.01-1.51-.06"/>
    <path class="cls-15" d="M31.02,62.63c.58.22,1.12.54,1.61.9.5.37.96.79,1.38,1.26.42.47.8.99,1.1,1.56.3.57.52,1.21.6,1.86.04.33.04.66.02.98-.03.32-.08.64-.14.95-.13.61-.32,1.19-.42,1.74-.05.28-.08.54-.07.8,0,.06,0,.13.02.19l.03.18c.01.05.05.13.12.2.14.16.36.31.6.44.24.13.5.24.77.34.54.19,1.1.34,1.68.45.57.11,1.16.2,1.74.25.58.05,1.17.07,1.75.05.58-.02,1.16-.08,1.7-.21.27-.06.53-.15.77-.26.23-.11.44-.25.57-.41.03-.04.06-.08.09-.12l.03-.06.04-.09c.05-.12.09-.24.12-.36.06-.24.07-.49.03-.72-.08-.47-.37-.92-.77-1.28-.2-.18-.42-.35-.65-.5-.12-.07-.24-.14-.36-.21-.12-.06-.26-.13-.36-.17l-.65-.27.53-.46c.07-.06.16-.15.24-.23.08-.08.16-.16.24-.25.16-.17.31-.35.46-.53.29-.36.56-.75.79-1.15.46-.8.8-1.68.9-2.58.05-.45.04-.9-.02-1.35-.06-.45-.2-.88-.38-1.3-.1-.2-.19-.41-.31-.61-.06-.1-.1-.2-.16-.3-.06-.1-.12-.2-.17-.3l-.08-.15s-.06-.1-.09-.15c-.06-.1-.12-.2-.17-.31-.11-.21-.23-.42-.32-.67h0c-.03-.09.01-.18.09-.21.04-.01.08-.01.12,0,.23.12.45.27.64.43.1.09.19.18.28.27.04.05.09.09.13.14.04.05.08.1.12.15.08.1.16.21.23.31.07.11.14.22.2.33.14.22.23.47.33.71.18.49.33,1,.4,1.52.07.52.08,1.05.02,1.57-.11,1.04-.5,2.03-1.01,2.91-.26.44-.55.86-.87,1.26-.16.2-.33.39-.5.58-.09.09-.18.18-.27.27-.09.09-.18.18-.29.27l-.12-.73c.17.07.31.14.45.21.14.08.28.16.42.24.27.17.54.37.78.59.24.22.47.48.65.78.19.29.32.63.38.99.06.36.04.72-.04,1.07-.04.17-.09.34-.16.49l-.05.12-.07.14c-.05.09-.11.17-.17.25-.25.3-.56.5-.87.64-.31.14-.62.24-.94.32-.63.15-1.25.21-1.87.23-.62.02-1.24,0-1.85-.06-.61-.05-1.23-.14-1.83-.26-.61-.12-1.21-.27-1.8-.49-.3-.11-.59-.23-.88-.39-.29-.16-.58-.34-.84-.63-.13-.15-.25-.34-.31-.58l-.05-.26c-.01-.09-.01-.17-.02-.26-.01-.35.03-.68.08-1,.12-.63.31-1.2.43-1.76.06-.28.1-.56.12-.83.02-.28.01-.55-.02-.82-.07-.54-.25-1.06-.52-1.55-.27-.49-.63-.93-1.01-1.36-.09-.11-.2-.21-.29-.32-.1-.1-.2-.21-.3-.31l-.31-.31-.32-.3c-.21-.21-.43-.41-.63-.63-.21-.22-.42-.43-.61-.68h0c-.05-.07-.04-.16.03-.21.04-.03.1-.04.14-.02"/>
    <path class="cls-5" d="M16.63,57.37c.67-.3,1.46.05,1.67.75.11.35.14.78-.03,1.26-.4,1.17-2.95,1.01-4.63-.12-.45-.3-.28-1,.25-1.07.67-.09,1.59-.32,2.74-.82"/>
    <path class="cls-14" d="M14.43,59.23c-.19-.09-.38-.2-.55-.32-.02-.01-.04-.03-.05-.05.12.02.25.03.37.04.57.05,1.11,0,1.55-.14.09-.03.17-.06.25-.1.03.03.06.05.1.08-.5.15-.94.24-1.3.29-.15.02-.28.1-.36.2"/>
    <path class="cls-15" d="M16.63,57.37h0s0,0,0,0M17.2,57.7c-.13-.01-.27.01-.39.07h0c-1.01.44-1.97.73-2.85.85-.09.01-.12.08-.13.12,0,.04-.01.11.06.16,1.19.8,2.71,1.01,3.49.75.27-.09.44-.23.5-.41.12-.34.12-.67.02-.99-.07-.22-.22-.39-.43-.49-.08-.04-.17-.06-.26-.07M16.2,60.61c-.94-.08-1.98-.43-2.8-.98-.35-.24-.52-.66-.42-1.07.1-.42.43-.73.86-.78.8-.11,1.69-.38,2.62-.79.43-.19.93-.19,1.36,0,.43.19.76.56.9,1.01.16.5.15,1.01-.03,1.53-.15.44-.51.77-1.04.95-.41.14-.91.18-1.44.13"/>
    <path class="cls-5" d="M14.66,55.43c.73-.32,1.58.06,1.82.82.12.39.15.85-.03,1.37-.44,1.28-3.21,1.1-5.04-.13-.49-.33-.31-1.09.27-1.17.73-.1,1.73-.35,2.98-.89"/>
    <path class="cls-14" d="M12.54,57.61c-.32-.13-.62-.29-.89-.48-.1-.07-.1-.17-.08-.22,0-.04.04-.12.14-.15.37.1.76.16,1.13.2.4.03.79.03,1.15-.01-.34.08-.64.14-.91.18-.29.04-.48.25-.54.49"/>
    <path class="cls-15" d="M14.84,55.82c-1.09.48-2.14.79-3.09.93-.13.02-.17.12-.18.16-.01.05-.02.15.08.22,1.17.79,2.85,1.14,3.83.82.3-.1.5-.26.57-.47.13-.38.14-.75.03-1.1-.08-.25-.25-.44-.49-.55-.24-.11-.51-.11-.75,0M14.2,58.91c-1.02-.09-2.14-.46-3.03-1.06-.37-.25-.55-.69-.45-1.13.1-.44.45-.76.9-.82.88-.12,1.84-.41,2.86-.86.46-.2.99-.2,1.45,0,.46.21.81.6.95,1.08.17.54.16,1.09-.03,1.64-.16.47-.54.82-1.11,1-.44.15-.98.19-1.55.14"/>
    <path class="cls-5" d="M13.62,53.58c.65-.4,1.52-.15,1.84.55.16.35.25.79.15,1.31-.26,1.27-2.92,1.45-4.82.52-.51-.25-.43-1,.11-1.15.68-.19,1.61-.55,2.72-1.23"/>
    <path class="cls-14" d="M11.84,55.9c-.3-.09-.59-.19-.86-.33-.1-.05-.1-.13-.1-.18,0-.04.02-.13.14-.16.9-.25,1.85-.68,2.83-1.28.09-.06.2-.09.3-.11-.11.3-.19.61-.21.93-.65.32-1.2.52-1.65.64-.25.07-.41.27-.44.49"/>
    <path class="cls-15" d="M13.62,53.58h0s0,0,0,0M14.37,53.83c-.18-.02-.37.03-.52.12-.98.6-1.93,1.03-2.83,1.28-.11.03-.13.12-.14.16,0,.05,0,.13.1.18,1.21.6,2.85.72,3.73.29.27-.13.43-.3.47-.51.07-.37.04-.72-.11-1.04-.1-.22-.29-.38-.52-.45-.06-.02-.12-.03-.18-.03M12.84,56.96c-.76-.07-1.56-.27-2.24-.61-.39-.19-.62-.6-.58-1.03.04-.44.34-.8.76-.91.82-.23,1.7-.63,2.61-1.18.42-.26.93-.32,1.4-.18.47.14.85.47,1.06.91.23.49.29,1.02.18,1.58-.09.47-.42.86-.94,1.11-.59.29-1.4.39-2.25.32"/>
    <path class="cls-5" d="M44.15,74.77c-.76.11-1.45-.47-1.47-1.23-.01-.39.08-.82.38-1.26.74-1.07,3.26-.18,4.63,1.43.37.43,0,1.09-.56,1.01-.7-.1-1.69-.13-2.99.05"/>
    <path class="cls-14" d="M47.21,74.29s0,0-.02,0c-.14-.02-.29-.04-.44-.05s-.29-.02-.43-.03c-.2-.23-.42-.44-.66-.64h.03c.15.01.28.03.41.05.01,0,.02,0,.03,0,.25.02.45-.1.57-.28.24.2.46.41.66.64.07.08.04.16.02.2-.02.03-.07.11-.17.1"/>
    <path class="cls-15" d="M44.32,72.25c-.09,0-.18,0-.27,0-.3.02-.52.11-.63.28-.21.31-.32.65-.31,1,0,.24.11.47.3.62.19.16.43.23.68.19,1.14-.16,2.18-.18,3.11-.06.11.02.17-.06.19-.1.02-.04.05-.12-.02-.2-.8-.94-2.08-1.65-3.04-1.74M43.82,75.21c-.35-.03-.69-.17-.97-.4-.37-.31-.59-.77-.61-1.26-.02-.54.14-1.05.46-1.52.27-.4.72-.62,1.3-.65,1.24-.06,2.97.82,4.01,2.04.28.33.33.79.12,1.18-.21.39-.63.6-1.06.54-.84-.12-1.81-.1-2.87.05-.13.02-.26.02-.39.01"/>
    <path class="cls-5" d="M42.81,75.31c-.76.11-1.45-.47-1.47-1.23-.01-.39.08-.82.38-1.26.74-1.07,3.26-.18,4.63,1.43.37.43,0,1.09-.56,1.01-.7-.1-1.69-.13-2.99.05"/>
    <path class="cls-15" d="M42.67,75.32s.09,0,.13-.01c.09-.01.17-.02.26-.03-.08.01-.17.02-.26.03-.04,0-.09.01-.13.01"/>
    <path class="cls-18" d="M44.48,75.17h0c.33,0,.63,0,.9.03.15.01.28.03.41.04.01,0,.02,0,.03,0,.2.02.37-.06.49-.18h0c-.12.12-.29.2-.49.18-.01,0-.02,0-.03,0-.13-.02-.26-.03-.41-.05-.27-.02-.57-.04-.9-.03"/>
    <path class="cls-15" d="M44.38,75.18s0,0,0,0c.03,0,.07,0,.1,0h0s-.07,0-.1,0"/>
    <path class="cls-14" d="M45.67,73.58c-.07-.06-.15-.12-.22-.18h0c.08.06.15.12.22.18h0"/>
    <path class="cls-16" d="M46.32,74.22c-.2-.23-.42-.44-.66-.64h0c.24.2.46.41.66.64h0"/>
    <path class="cls-15" d="M44.01,75.19c.13,0,.25-.01.37-.01,0,0,0,0,0,0-.12,0-.24,0-.37.01M46.31,75.08c.21-.21.26-.57.04-.83,0,0-.02-.02-.02-.03h0s.02.02.02.03c.23.27.17.62-.04.83h0"/>
    <path class="cls-14" d="M42.51,75.32c-.59-.05-1.09-.51-1.17-1.11.04,0,.09.01.13.02.1,0,.19,0,.29,0,1.06-.15,1.92-.16,2.58-.1.15.01.28.03.41.05.01,0,.02,0,.03,0,.44.04.75-.38.65-.76.08.06.15.12.22.18.24.2.46.41.66.64,0,0,.02.02.02.03.23.27.17.62-.04.83-.12.12-.29.19-.49.18-.01,0-.02,0-.03,0-.13-.02-.26-.03-.41-.04-.27-.02-.57-.04-.9-.03-.03,0-.07,0-.1,0-.12,0-.24,0-.37.01-.29.01-.61.04-.94.08-.08.01-.17.02-.26.03-.04,0-.09.01-.13.01-.05,0-.11,0-.16,0"/>
    <path class="cls-15" d="M42.98,72.79c-.09,0-.18,0-.27,0-.3.02-.52.11-.63.28-.21.31-.32.65-.31,1,0,.24.11.47.3.62.19.16.43.23.68.19,1.14-.16,2.18-.18,3.11-.05.11.02.17-.06.19-.1.02-.04.05-.12-.02-.2-.8-.94-2.08-1.65-3.04-1.74h0ZM42.48,75.74c-.35-.03-.69-.17-.97-.4-.37-.31-.59-.77-.61-1.26-.02-.54.14-1.05.46-1.52.27-.4.72-.62,1.3-.65,1.24-.06,2.97.82,4.01,2.04.28.33.33.79.12,1.18-.21.39-.63.6-1.06.54-.84-.12-1.81-.1-2.87.05-.13.02-.26.02-.39.01h0Z"/>
    <path class="cls-3" d="M27.6,40.37c-2.35,2-2.33,2.43-5.57,6.98-1.7,2.38-4.19,3.09-5.85,4.13-2.01,1.26-3.83,4.24-.07,7.27,2.44,1.97,6.82,1.39,8.91-.74,2.9-2.96,5.54-8.87,7.56-9.83l-4.97-7.81"/>
    <path class="cls-8" d="M23.78,58.94h0c.46-.27.88-.58,1.23-.94.87-.89,1.72-2.04,2.53-3.24-.81,1.2-1.66,2.36-2.53,3.24-.35.36-.77.67-1.23.94"/>
    <path class="cls-10" d="M23.45,59.12h0c.11-.06.22-.12.33-.18h0c-.11.06-.22.12-.33.18"/>
    <path class="cls-15" d="M22.84,59.39c.21-.08.41-.17.61-.27h0c-.2.1-.4.19-.61.27"/>
    <polyline class="cls-15" points="15.58 58.29 15.58 58.29 15.58 58.29"/>
    <path class="cls-14" d="M15.29,58c-.37-.38-.65-.76-.86-1.14h0c.21.37.49.75.86,1.14h0"/>
    <path class="cls-15" d="M15.57,58.29c-.1-.09-.2-.19-.29-.28h0c.09.09.18.19.29.28"/>
    <path class="cls-14" d="M14.07,56.06c-.13-.42-.17-.83-.15-1.22-.03.39.02.8.15,1.22h0"/>
    <path class="cls-15" d="M14.43,56.87c-.15-.27-.27-.54-.35-.8h0c.08.26.2.53.35.8h0"/>
    <polyline class="cls-14" points="13.93 54.84 13.93 54.84 13.93 54.84"/>
    <path class="cls-8" d="M19.25,59.92c-1.17-.1-2.28-.48-3.15-1.18-.19-.15-.36-.3-.53-.46,0,0,0,0,0,0,0,0,0,0,0,0-.1-.09-.2-.19-.29-.28-.37-.38-.65-.76-.86-1.14-.15-.27-.27-.54-.35-.8-.13-.42-.17-.83-.15-1.22h0s0,0,0,0c.06-.84.43-1.6.95-2.23-.02,1.15.57,2.44,2.18,3.74.87.7,1.98,1.08,3.15,1.18,2.11.18,4.41-.55,5.76-1.92,2.02-2.05,1.84-5.15,5.02-7.69.23-.18.5-.25.76-.23.32.03.63.2.82.49-1.41.67-3.13,3.77-5.03,6.58-.81,1.2-1.66,2.36-2.53,3.24-.35.36-.77.67-1.23.94-.11.06-.22.12-.33.18-.2.1-.4.19-.61.27-1.12.44-2.38.63-3.59.53"/>
    <path class="cls-15" d="M27.69,40.48c-.3.41-.62.77-.93,1.14-.31.37-.62.73-.9,1.1-.29.38-.57.77-.85,1.17l-.85,1.2-1.71,2.41c-.07.1-.15.2-.23.31-.08.1-.15.21-.24.3l-.26.29c-.08.1-.18.19-.27.28-.09.09-.18.18-.28.27-.1.08-.19.17-.29.26-.2.16-.4.32-.61.47-.83.6-1.74,1.05-2.61,1.49-.44.22-.86.44-1.26.69-.38.24-.74.53-1.04.87-.61.66-1.01,1.5-1,2.36,0,.43.11.85.29,1.25.18.4.44.78.74,1.12.3.35.64.67,1.01.96.35.28.74.5,1.16.67.84.34,1.78.46,2.71.42.93-.04,1.85-.26,2.7-.63.42-.19.82-.42,1.19-.69.18-.14.35-.28.51-.44.16-.16.33-.34.48-.52.63-.72,1.21-1.5,1.76-2.3.55-.8,1.08-1.62,1.62-2.45l.81-1.24c.27-.41.54-.83.82-1.25.29-.41.61-.81.98-1.16.19-.18.39-.34.62-.48.23-.14.48-.26.76-.3.08-.01.16.04.17.13,0,.05,0,.09-.04.12h0c-.17.18-.31.36-.46.54-.14.19-.28.37-.42.55-.29.37-.57.76-.86,1.14-.29.38-.58.78-.85,1.18-.27.41-.54.82-.8,1.23-.53.83-1.07,1.66-1.63,2.47-.56.82-1.16,1.62-1.82,2.38-.17.19-.34.37-.52.56-.19.19-.39.36-.6.52-.42.32-.88.58-1.36.79-.95.42-1.97.66-3.01.71-1.03.05-2.09-.09-3.07-.48-.49-.2-.96-.47-1.38-.8-.4-.32-.78-.68-1.12-1.07-.34-.4-.65-.84-.87-1.33-.22-.5-.36-1.04-.36-1.6,0-.28.03-.56.08-.83.06-.27.14-.53.25-.78.11-.25.24-.49.39-.71.15-.22.31-.44.5-.63.36-.39.77-.73,1.22-1.02.44-.28.89-.5,1.33-.73.88-.45,1.74-.88,2.51-1.42.19-.13.38-.28.56-.43.09-.07.18-.15.26-.23.09-.08.17-.16.25-.24.08-.08.17-.16.24-.25l.23-.26c.08-.09.14-.18.22-.27.07-.09.14-.18.21-.28.57-.8,1.13-1.6,1.68-2.42.55-.82,1.08-1.65,1.74-2.42.33-.39.69-.75,1.09-1.07.4-.31.81-.6,1.26-.83.07-.04.16,0,.2.06.03.05.02.11-.01.15h0Z"/>
  </g>
</svg>