<?xml version="1.0" encoding="UTF-8"?>
<svg id="Vrstva_1" data-name="Vrstva 1" xmlns="http://www.w3.org/2000/svg" viewBox="0 0 43.93 40.09">
  <defs>
    <style>
      .cls-1 {
        fill: #373d3a;
      }

      .cls-2 {
        fill: #68aa31;
      }

      .cls-3 {
        opacity: .5;
      }
    </style>
  </defs>
  <g class="cls-3">
    <path class="cls-2" d="M41.92,12.9c1.6,2.96,1.72,6.68.31,9.74-1.34,2.89-4.02,5.12-7.09,5.94.18,3.18-1.1,6.42-3.43,8.59-2.46,2.3-6.03,3.35-9.35,2.75-5.23-.95-9.04-5.55-11.37-10.32-2.47-5.04-3.83-10.53-5.69-15.83C3.98,10.06,2.35,6.35.04,3.18c3.73,1.21,7.76,1.59,11.71,1.67,5.61.12,11.25-.31,16.81.46,5.26.73,10.82,2.91,13.36,7.58Z"/>
  </g>
  <path class="cls-1" d="M17.37,1.68c-1.73.02-3.51.03-5.27,0C7.37,1.57,3.69,1.05.5.02c-.16-.05-.33,0-.43.14-.1.13-.1.32,0,.45,1.97,2.7,3.62,6.04,5.2,10.5.58,1.65,1.13,3.35,1.65,5,1.16,3.63,2.35,7.38,4.06,10.87,1.69,3.45,5.45,9.41,11.65,10.53,3.2.58,6.64-.33,9.15-2.39.18-.15.36-.3.52-.46,2.34-2.18,3.66-5.37,3.56-8.59,3.08-.92,5.7-3.17,7.04-6.07,1.46-3.16,1.34-7.02-.32-10.08-3-5.54-9.83-7.25-13.64-7.78-3.85-.53-7.78-.5-11.59-.46ZM41.92,10.28c1.54,2.85,1.66,6.45.3,9.39-1.29,2.79-3.85,4.94-6.84,5.73-.18.05-.29.21-.28.39.18,3.09-1.06,6.19-3.31,8.29-2.37,2.21-5.82,3.23-9.02,2.65-5.87-1.06-9.47-6.79-11.1-10.11-1.68-3.44-2.87-7.16-4.02-10.76-.53-1.65-1.07-3.36-1.66-5.02C4.57,6.81,3.07,3.66,1.33,1.07c3.01.84,6.46,1.28,10.76,1.37,1.76.04,3.56.02,5.29,0,3.78-.03,7.69-.07,11.48.46,3.66.51,10.23,2.14,13.07,7.38Z"/>
  <path class="cls-1" d="M28.33,13.78c-.2.07-.31.29-.24.49,1.03,3,.65,5.11.43,5.89-.12-.09-.24-.19-.36-.29-.01-.01-.03-.02-.04-.03-1.33-1.07-2.89-2.3-4.54-3.59.17-.67.47-2.86-1.47-6.21-.11-.18-.34-.25-.52-.14-.18.11-.25.34-.14.52,1.53,2.64,1.55,4.48,1.45,5.3-1.4-1.09-2.85-2.21-4.29-3.3,0-.7-.16-3.11-1.77-5.47-.12-.17-.36-.22-.53-.1-.17.12-.22.36-.1.53,1.16,1.7,1.5,3.45,1.6,4.43-.47-.35-.93-.7-1.39-1.04-.02-.02-.04-.03-.06-.05-2.24-1.66-4.35-3.17-6.03-4.25-.18-.11-.41-.06-.53.11-.11.18-.06.41.11.53,1.54,1,3.45,2.35,5.49,3.86-.89.36-2.63.88-4.71.63-.21-.03-.4.12-.43.33-.03.21.12.4.33.43,2.62.32,4.69-.47,5.52-.86,1.86,1.38,3.8,2.87,5.66,4.32-2.71,1.76-5.96.7-6,.69-.2-.07-.42.04-.49.24-.07.2.04.42.24.49.16.05,3.81,1.25,6.88-.92,1.77,1.38,3.45,2.71,4.9,3.86-2.29,1.85-5.17,1.92-5.21,1.92-.21,0-.38.18-.38.39,0,.21.18.38.39.38.14,0,3.2-.06,5.7-2.11.04-.03.07-.06.11-.09,2.42,1.93,4.05,3.27,4.1,3.31.14.12.35.11.48,0,.02-.02.04-.03.05-.05.13-.16.11-.4-.05-.54-.04-.04-1.34-1.1-3.34-2.69.21-.57.92-2.98-.35-6.65-.07-.2-.29-.31-.49-.24Z"/>
</svg>