<?xml version="1.0" encoding="UTF-8"?>
<svg id="Vrstva_1" data-name="Vrstva 1" xmlns="http://www.w3.org/2000/svg" viewBox="0 0 79.37 79.37">
  <defs>
    <style>
      .cls-1 {
        fill: #a77595;
      }

      .cls-2 {
        fill: #68aa31;
      }

      .cls-3 {
        fill: #f4dabb;
      }

      .cls-4 {
        fill: #fff;
      }

      .cls-5 {
        fill: #ddf0f4;
      }

      .cls-6 {
        fill: #cce2b7;
      }

      .cls-7 {
        fill: #b489a6;
      }

      .cls-8 {
        fill: #fdda01;
      }

      .cls-9 {
        fill: #705948;
      }

      .cls-10 {
        fill: #edc18e;
      }

      .cls-11 {
        fill: #caa09a;
      }

      .cls-12 {
        fill: #e7216a;
      }

      .cls-13 {
        fill: #d3baca;
      }

      .cls-14 {
        fill: #64140e;
      }

      .cls-15 {
        fill: #a7bac8;
      }

      .cls-16 {
        fill: #ac6b6d;
      }

      .cls-17 {
        fill: #967660;
      }

      .cls-18 {
        fill: #c78e7b;
      }

      .cls-19 {
        fill: #a4ce89;
      }

      .cls-20 {
        fill: #d1a018;
      }
    </style>
  </defs>
  <path class="cls-10" d="M45.84,45.48s6.07,5.83,7.67,10.63c.53,1.96-.3,4.09-.3,4.09,0,0,2.22-2.76,4.27-2.85v.33l.62-.18v.42l.47.03s.77.09,0,5.64c0,0-.89,7.62-4.18,9.46-1.12.63-2.79.23-4.22-.18-.91-.26-1.73-.52-2.25-.51-1.33.03-4.89,1.28-6.91.03,0,0-1.48.53-4.27.53,0,0-3,.92-4.21.71-1.22-.21-2.31-1.01-2.31-1.01,0,0-3.89,1.39-9.17-1.28-5.28-2.67-6.45-8.72-3.13-17.14,3.31-8.42,4.62-11.09,4.62-11.09,0,0,18.29-3.44,23.3,2.36"/>
  <path class="cls-3" d="M51.24,52.49c-1.47-1.46-4.5-4.51-6.57-6.6.29-.07.57-.14.85-.22.01.02.03.03.04.05,0,0,.02.02.02.02.04.04,3.32,3.21,5.65,6.75"/>
  <path class="cls-3" d="M45.52,56.09c-.68-3.43-2.78-7.66-3.82-9.62.16-.02.32-.05.48-.08,2.72,3.84,3.79,8.19,3.98,9.07l-.36.47c-.09.05-.19.11-.29.16"/>
  <path class="cls-3" d="M36.92,58.44c-.17-.05-4.14-1.19-4.55-1.51-.42-.32-1.91-3.91-2.61-5.49-.69-1.58-.7-2.63-.7-2.63l1.56,2.75,2.21,4.22.38.44,4.09,1.4.16.04-.53.74s-.01.01-.02.02"/>
  <path class="cls-3" d="M32.68,64.42s-.62-2.07-3.02-2.33c-.33-.04-.66-.05-.98-.05-2.03,0-3.8.6-3.8.6l.54-.8s.86-.4.92-.42c.05,0,.68-.17,1.96-.17.43,0,.92.02,1.5.07.08,0,.17.02.25.03.07.02.15.04.22.06,2.08.61,2.5,2.08,2.7,2.08h0c.19-.01.53-.34.53-.34l.15-.29c.09-.07.2-.14.31-.22.06-.01.15-.04.27-.1.47-.23,1.44-.78,2.48-.78.3,0,.61.05.91.16.04.02.08.03.12.05.05.02.1.05.15.07.19.1.36.2.52.31.63.45,1,.97,1,.97,0,0-.75-.81-2.3-.81-.17,0-.35.01-.54.03-1.91.22-3.91,1.88-3.91,1.88"/>
  <path class="cls-3" d="M58.25,63.35c-.35-.3-.94-.73-1.8-1.05-.59-.22-1.33-.29-2.01-.29-1,0-1.86.15-1.87.15.03-.1.07-.21.1-.32.14-.32.35-.46.67-.51l.02.03s.23-.02.59-.02c.49,0,1.21.03,1.93.17.79.21,1.57.53,2.01.84,0,0,0,0,0,0,.09.07.16.13.22.19.08.08.14.16.2.25-.02.18-.05.37-.07.56"/>
  <path class="cls-4" d="M39.77,57.94s1.16-.15,3-.57c1.83-.42,3.21-1.01,3.21-1.01,0,0-.93,1.76-1.5,3.42-.57,1.67-.8,2.74-.85,3.6-.05.86-.09,2.12.06,3.39.15,1.27.4,2.27.46,2.46.07.2.02.54.07.66.06.12-1.68,1.61-2.51,2.08-.83.47-1.64.66-1.64.66,0,0-2.38.27-2.45.28-.07,0-.33,0-.33,0v-.28s1.55-2.66,1.57-2.7c.02-.04.54-1.06.54-1.06l.36-.04.29,1.6.29-.12s.86-2.04,1.07-3.55c.21-1.51.22-1.59.22-1.59,0,0-.02-.52.1-.7.12-.19.3-.63.18-1.26-.12-.64-.28-1.48-.28-1.48,0,0-.35-.98-.95-1.9-.59-.92-.95-1.43-.92-1.9"/>
  <path class="cls-4" d="M22.24,57.8s-2.46-.84-3.37-1.47c-.92-.63-1.45-.74-1.6-.29-.15.45-1.36,3.68-1.15,7.75.2,4.07,3.28,7.52,7.23,8.52l.16-.48s-2.37-2.98-1.33-6.01c1.05-3.03,3.47-4.14,3.44-4.12-.03.03-1.79-2.21-1.79-2.21,0,0-1.23-1.72-1.58-1.69"/>
  <path class="cls-4" d="M33.89,62.34s1.22-2.18,2.7-3.6c1.48-1.42,1.92-1.33,1.92-1.33l.04.4.8-.22.18.5.23.04s.27.47.51,2.98c.24,2.51-.1,3.47-.1,3.47l-.39-.83s-.44-.96-1.86-1.69c-1.42-.73-3,.19-3.66.5-.65.31-.36-.2-.36-.2"/>
  <path class="cls-4" d="M41.62,65.5s-.3,3.22-1.53,5.08l-.31-2.36.07-.58s.2-1.38.24-1.84c.04-.46.24-.63.24-.63l1.02-.33.28.21v.45"/>
  <path class="cls-4" d="M43.57,64.32s-.17,3.17.65,5.11l.19.14.36-.36.8,1.12.67-.79h.33s.58.38.58.38c0,0,1.02-1,2.02-2.08,1-1.08,1.04-1.55,1.04-1.55l-.31-.19s-1.5.82-3.66.03c-2.16-.79-2.56-2.91-2.56-2.91l-.12,1.1"/>
  <path class="cls-4" d="M53.75,59.62s.64-.83,1.74-1.49c1.11-.66,1.77-.79,1.77-.79l.19.15s.44.04.48.07c.04.03.41.38.41.38l.44.1s.19-.1.14,2.15c-.05,2.25-.24,2.73-.24,2.73h-.21s-.55-.87-1.99-1.28c-1.44-.41-3.12-.29-3.12-.29l-.25-.27.23-1.03.4-.44"/>
  <path class="cls-18" d="M32.97,73.31c-.13,0-.26,0-.36-.03-1.11-.19-2.15-.94-2.16-.94-.06-.05-.14-.07-.22-.07-.04,0-.08,0-.12.02-.02,0-.98.34-2.58.34-1.09,0-2.48-.15-4.06-.67l.04-.13s-2.37-2.98-1.33-6.01c.87-2.53,2.71-3.72,3.27-4.03v.06h-.01l-1.22,1.1s-1.67,1.98.08,3.79c1.54,1.6,6.54,4.45,9.65,4.45.41,0,.79-.05,1.12-.16,2.85-.93,4.53-7.43,4.53-7.43,0,0,.46.46.46,1.57,0,1.09-.23,2.54-.68,3.79l-1.09,1.95c-.53.78-1.08,1.48-1.23,1.67-.1,0-.2,0-.3,0-.04,0-.07,0-.11.02-.72.22-2.62.73-3.68.73M33.11,63.34l-.32-.12s-.62-1.59-2.72-1.87c-.57-.14-1.14-.2-1.66-.2-1.31,0-2.3.33-2.3.33l-.58-.05-.03.15c-.4-.47-1.67-2.08-1.67-2.08,0,0-1.21-1.69-1.57-1.69,0,0,0,0,0,0,0,0-2.46-.84-3.37-1.47-.17-.11-.32-.21-.46-.29,1.23-4.28,3.01-8.37,3.01-8.37.43-1.08.86-1.83,1.26-2.35.6.19,1.21.35,1.81.5-.37,3.34-.85,10.91,2.04,12.66,3.73,2.27,7.85,3.02,7.87,3.03-.32.5-.51.84-.51.84,0,0-.08.14-.06.23l-.15.29c-.36.27-.57.48-.57.48"/>
  <path class="cls-11" d="M32.99,63.49c-.19,0-.62-1.47-2.7-2.08-.07-.02-.15-.04-.22-.06,2.1.29,2.72,1.87,2.72,1.87l.32.12s.21-.21.57-.48l-.15.29s-.34.33-.53.34h0M25.44,61.85h0"/>
  <path class="cls-13" d="M23.46,71.97c-.71-.23-1.45-.53-2.23-.93-1.12-.56-2.04-1.29-2.77-2.16-1.27-1.99-1.68-5.01-.9-9.32.21-1.13.5-2.33.84-3.52.14.08.29.18.46.29.92.63,3.37,1.47,3.37,1.47,0,0,0,0,0,0,.37,0,1.57,1.69,1.57,1.69,0,0,1.27,1.61,1.67,2.08l-.05.21c-.56.31-2.4,1.5-3.27,4.03-1.05,3.03,1.33,6.01,1.33,6.01l-.04.13"/>
  <path class="cls-13" d="M33.83,62.57c-.02-.09.06-.23.06-.23,0,0,.19-.34.51-.84h0l-.57,1.07"/>
  <path class="cls-13" d="M35.38,61.89s1.13-1.63,1.71-2.4c.58-.77,1.15-1.23,1.15-1.23,0,0-1.37,2.94-1.36,2.99.02.05-.28.36-.28.36,0,0-.55.07-.59.09-.04.02-.64.2-.64.2"/>
  <path class="cls-13" d="M38.78,62.32h-.38l-.38-.35,1.35-3.47s-.65,3.34-.59,3.53c.07.19,0,.3,0,.3"/>
  <path class="cls-18" d="M40.69,64.97l-.51-.13.03-.5c.06-.29.15-.89.13-1.86v-.04s.55.6,1.25.6c.05,0,.1,0,.16-.01,0,0,.21.5.19.91-.02.12-.05.23-.08.31,0,0,0,.01-.01.02-.26.39-1.15.7-1.15.7"/>
  <path class="cls-13" d="M41.86,64.25c.03-.09.06-.19.08-.31,0,.12-.03.23-.08.31"/>
  <path class="cls-13" d="M40.22,64.34l.13-1.86c.02.98-.07,1.57-.13,1.86"/>
  <path class="cls-18" d="M40.2,70.39c.1-.17.2-.36.29-.55,0,.07,0,.13-.02.18-.03.07-.05.13-.07.17-.02.06-.04.1-.06.13l-.15.06M39.84,67.64l.18-1.33c-.07.58-.18,1.32-.18,1.33"/>
  <path class="cls-13" d="M40.18,70.5v-.06s.01-.03.02-.05l.15-.06s-.03.06-.03.06l-.14.11M40.41,70.19s.04-.11.07-.17c0,0,0,.01,0,.02-.02.06-.05.11-.07.16"/>
  <path class="cls-13" d="M40.17,70.44l-.27-2.07-.06-.73s.11-.75.18-1.33l.08-.62.21-.53.17.16s.04,3.79,0,4.51h0c-.09.19-.19.37-.29.55-.01.02-.02.03-.03.05"/>
  <path class="cls-18" d="M37.62,72.1l.67-1.2c.07-.11.15-.22.22-.33-.27.47-.64,1.09-.89,1.54M40,70.08l-.23-1.24-.36.04.36-.14.23,1.34M39.37,68.98s0-.02,0-.03l.04-.07s-.02.04-.05.1M41.64,65.2s0-.01,0-.01c0,0,0,0,0,.01M41.76,62.34c-.09-.34-.19-.69-.27-.98.1.24.16.39.16.39,0,0,.05.26.12.6M45,58.44s0,0,0,0c0,0,0,0,0,0,0,0,0,0,0,0"/>
  <path class="cls-13" d="M38.09,72.12c-.29,0-.47-.02-.47-.02h0c.26-.44.62-1.07.89-1.54.35-.54.68-1.1.83-1.53,0-.02.01-.04.02-.06.03-.06.05-.1.05-.1h0l.36-.04.23,1.24.08.5.1-.08v.08s.22-.01.3-.54c.24-.56.68-1.69.84-2.55.05-.27.09-.53.13-.78.13-.71.18-1.21.18-1.21v-.08c.01-.12.02-.19.03-.22,0,0,0-.01,0-.01h0s.18-.79.19-.85c.01-.06.27-.58.27-.68,0-.05-.16-.66-.34-1.32-.07-.34-.12-.6-.12-.6,0,0-.05-.15-.16-.39-.12-.43-.22-.75-.24-.78-.08-.11-.55-.72-.55-.72h0s2.68-.15,4.31-1.4c0,0,0,0,0,0-.05.08-1.46,2.62-1.43,5.88,0,0-.12,2.34.36,4.23.06.3.11.45.11.45,0,0-2.13,2.18-3.53,2.71-.92.35-1.87.41-2.42.41"/>
  <path class="cls-13" d="M41.44,66.71c.08-.55.15-1.02.18-1.29v.08s-.05.49-.18,1.21"/>
  <path class="cls-13" d="M43.94,68.55c-.49-1.89-.36-4.23-.36-4.23h0c.02,2.24.23,3.6.36,4.23"/>
  <path class="cls-16" d="M38.29,70.9l1.09-1.95s0,.02,0,.03c-.13.26-.47.93-.49.96,0,.01-.16.27-.37.63-.07.11-.15.22-.22.33"/>
  <path class="cls-7" d="M38.51,70.57c.21-.36.36-.62.37-.63.02-.03.36-.7.49-.96,0,.02-.01.04-.02.06-.16.43-.48.99-.83,1.53"/>
  <path class="cls-16" d="M40.35,70.33s.03-.08.06-.13c-.03.08-.05.13-.05.13h0"/>
  <path class="cls-7" d="M40.19,70.58v-.08s.13-.11.13-.11c0,0,.01-.02.03-.06h0s.02-.05.05-.13c.02-.05.04-.1.07-.16-.07.53-.29.54-.29.54"/>
  <path class="cls-18" d="M48.12,66.48c-.49,0-1.07-.07-1.71-.29-1.02-.41-1.73-1.12-2.15-1.65,0,0,0,0,0,0-.14-.22-.25-.43-.33-.61-.14-.39-.22-.85-.2-1.32.06-.39.16-.83.3-1.35.08-.18.19-.36.31-.51,0,0,.35,2.92,2.99,3.34.11.02.22.03.33.03,2.49,0,4.56-4.45,4.73-6.97.1-1.54-.43-3.17-.9-4.26.71,1.12,1.31,2.26,1.67,3.35.49,1.81-.28,3.83-.29,3.86-.07.17,0,.36.16.45,0,0,.01,0,.02.01-.12.47-.26.92-.38,1.3-.04.09-.07.19-.1.32h0c-.23.69-.41,1.14-.41,1.14,0,0-.83,2.08-2.45,2.89-.28.11-.84.29-1.6.29"/>
  <path class="cls-11" d="M52.57,62.16c.03-.12.06-.23.1-.32-.04.11-.07.22-.1.32h0"/>
  <path class="cls-13" d="M43.72,62.6c.01-.46.11-.93.3-1.35-.14.51-.24.95-.3,1.35"/>
  <path class="cls-13" d="M48.16,66.52c-.66,0-1.24-.13-1.75-.33.64.21,1.21.29,1.71.29.76,0,1.32-.18,1.6-.29-.32.16-.66.27-1.04.31-.18.02-.35.03-.52.03M44.26,64.53c-.13-.17-.24-.38-.33-.61.08.18.19.39.33.61"/>
  <path class="cls-18" d="M52.95,73.02c-.95,0-2.06-.32-3.01-.59-.78-.23-1.46-.42-1.97-.42-.01,0-.03,0-.04,0-.39,0-.92.11-1.54.22-.9.17-1.98.36-2.99.36-.69,0-1.35-.09-1.91-.35v-.02s2.32-1.78,2.45-1.89c.13-.12.96-.73,1.06-.76,0,0,0,0,0,0,0,0,.02,0,.04.01l.54.75.08-.1h0s.45-.49.67-.7h.24s.58.39.58.39c0,0,.02-.02.05-.05.05.03.08.04.08.04,0,0,1.05-1.05,1.81-1.98.03-.03.06-.06.08-.09.73-.78.95-1.25,1.01-1.44.31-.48.55-.83.65-.83.01,0,.03,0,.03.02.11.19-.03,1.01-.03,1.01,0,0,.45,3.52,2.59,4.11.13.04.25.05.38.05,1.31,0,2.68-1.73,3.49-2.96-.62,1.99-1.59,4.11-3.07,4.94-.36.2-.8.28-1.27.28"/>
  <path class="cls-13" d="M45.58,70.33l-.54-.75c.16.09.62.65.62.65l-.08.1M47.16,69.92l-.58-.4h-.24c.06-.05.11-.08.12-.08,0,0,0,0,0,0,.04.03.55.31.74.42-.03.03-.05.05-.05.05M49.1,67.93c.13-.16.25-.31.35-.45.27-.37.53-.76.74-1.08-.07.2-.29.66-1.01,1.44-.03.03-.06.06-.08.09"/>
  <path class="cls-13" d="M55.02,61.35l-1.14-.05s1.3-1.69,2.19-2.42c.89-.73,1.2-.83,1.2-.83,0,0-1.59,2.75-1.69,2.81-.1.06-.55.49-.55.49"/>
  <path class="cls-18" d="M57.09,61.87s-.09-.03-.17-.07c.06.02.12.05.17.07,0,0,0,0,0,0h0"/>
  <path class="cls-13" d="M57.1,61.87c-.06-.02-.11-.05-.17-.07-.14-.07-.32-.16-.32-.16,0,0,1.13-2.97,1.38-3.37.02,0,.03.01.05.01.02.42-.57,3.34-.58,3.41-.01.08-.31.17-.36.17"/>
  <path class="cls-13" d="M58.27,62.68h0l-.23-.34c-.01-.08.3-1.8.53-2.64,0,.66-.06,1.6-.22,2.95l-.08.03"/>
  <path class="cls-18" d="M38.65,57.78l-.11-.15-.02-.22s0,0-.02,0c-.06,0-.27.03-.73.34h0s-.3-.07-.3-.07l.03-.05-4.29-1.39-.73-1.38-1.86-3.29-.86-1.64s4.95,4.76,9.61,6.01c2.01.54,3.47.69,4.49.69.09,0,.18,0,.26,0-2.06.64-4.68.99-4.71,1-.01,0-.03,0-.04,0l-.02-.05-.71.19"/>
  <polyline class="cls-11" points="37.47 57.68 37.3 57.64 33.21 56.24 32.84 55.79 30.62 51.57 32.48 54.86 33.21 56.24 37.5 57.63 37.47 57.68"/>
  <path class="cls-13" d="M38.69,57.84l-.05-.06.71-.19.02.05s-.06.02-.09.03c-.02-.02-.04-.03-.06-.03,0,0,0,0-.01,0-.08.03-.52.2-.52.2M37.77,57.75c.46-.32.67-.34.73-.34.01,0,.02,0,.02,0l.02.22-.12-.17-.64.29"/>
  <path class="cls-14" d="M30.23,72.27c.08,0,.15.02.22.07.01,0,1.05.75,2.16.94.93.16,3.23-.45,4.04-.7.03-.01.07-.02.11-.02,2.68,0,4.13-.51,4.15-.51.1-.04.22-.03.32.03,1.36.84,3.56.43,5.18.14.62-.11,1.15-.21,1.54-.22.01,0,.03,0,.04,0,.5,0,1.18.2,1.97.42,1.43.41,3.2.92,4.28.31,3.09-1.73,3.99-9.11,4-9.19.55-3.93.29-4.99.19-5.24l-.33-.02c-.17-.01-.31-.14-.34-.3l-.16.05c-.11.03-.23,0-.32-.06-.07-.05-.12-.12-.13-.21-1.76.37-3.61,2.64-3.63,2.66-.11.14-.31.18-.47.09-.16-.09-.22-.28-.16-.45,0-.02.78-2.04.29-3.86-1.56-4.66-7.51-10.42-7.58-10.48,0,0-.02-.02-.02-.02-4.55-5.26-20.86-2.6-22.77-2.27-.33.7-1.7,3.72-4.53,10.9-3.21,8.17-2.16,14.1,2.96,16.69,5.08,2.57,8.84,1.27,8.88,1.26.04-.01.08-.02.12-.02M32.95,74.04c-.17,0-.33-.01-.47-.03-1.02-.17-1.95-.73-2.31-.97-.85.25-4.49,1.06-9.27-1.35-5.5-2.78-6.68-9.03-3.31-17.6,3.28-8.34,4.62-11.09,4.63-11.12.05-.1.15-.18.26-.2.05,0,4.66-.87,9.83-1,7-.18,11.64.98,13.8,3.46.39.37,6.16,6,7.75,10.77,0,0,0,.01,0,.02.28,1.02.21,2.08.07,2.89.88-.83,2.22-1.86,3.54-1.92.1,0,.2.03.27.1.03.03.06.07.08.11l.19-.05c.11-.03.23,0,.32.06.09.07.15.18.15.29v.07h.13s.01,0,.02.01c.07,0,.21.05.33.21.45.58.45,2.55-.01,5.84-.04.31-.95,7.82-4.37,9.73-1.35.76-3.29.2-4.84-.24-.72-.21-1.39-.4-1.79-.39-.33,0-.83.1-1.42.21-1.68.31-3.95.73-5.54-.15-.46.14-1.88.5-4.17.5-.38.11-2.53.74-3.86.74"/>
  <path class="cls-14" d="M24.19,72.37h0ZM24.42,73c-.06,0-.13-.01-.21-.05-.6-.27-2.88-2.65-2.75-5.64.12-2.62,2.78-4.98,3.79-5.78-1.24-1.1-2.55-2.86-2.88-3.31-1.99-.54-4.97-2.28-5.1-2.35-.17-.1-.23-.33-.13-.5.1-.17.33-.23.5-.13.03.02,3.16,1.84,5.04,2.31.08.02.16.07.21.14.02.02,1.77,2.46,3.18,3.57.09.07.14.18.14.3,0,.12-.06.22-.15.29-.04.03-3.73,2.69-3.85,5.5-.11,2.46,1.78,4.61,2.27,4.91.09,0,.18.04.24.11.14.14.14.37,0,.52-.03.03-.13.11-.28.11h0Z"/>
  <path class="cls-14" d="M36.76,73.3c-.08,0-.17-.03-.24-.09-.15-.13-.17-.36-.04-.52.02-.03,2.5-2.9,3-5.14.61-2.69,0-4.4-1.84-5.24-2.09-.94-4.36,1.49-4.39,1.52-.08.09-.21.13-.33.11-.12-.02-.23-.1-.27-.22-.03-.07-.72-1.65-2.62-2.01-2.02-.38-4.09.17-4.11.17-.02,0-.04,0-.06.01-.22.02-5.47.48-9.63-2.44-.17-.12-.21-.34-.09-.51.12-.16.34-.21.51-.09,3.78,2.66,8.7,2.34,9.11,2.31.3-.08,2.33-.56,4.4-.18,1.63.31,2.52,1.37,2.91,1.99.8-.73,2.83-2.26,4.87-1.34,2.18.99,2.94,3.03,2.25,6.06-.55,2.42-3.06,5.33-3.17,5.45-.07.08-.17.13-.28.13h0Z"/>
  <path class="cls-14" d="M33.32,63.74c-.19.49-.4,1.06-.56,1.57-.2.55-.24,1.1-.56,1.62-.01.02-.05.02-.06,0-.13-.3-.15-.6-.12-.9.04-.59.15-1.18.32-1.74.08-.29.18-.56.31-.84.09-.18.3-.26.49-.18.18.08.26.29.18.47h0Z"/>
  <path class="cls-14" d="M30.06,72.96c-.48-.24-.93-.51-1.37-.82-.44-.33-.92-.58-1.19-1.1-.01-.02,0-.05.03-.05.3.03.54.13.78.24.68.34,1.44.7,2.09,1.08.4.24.08.84-.34.65h0Z"/>
  <path class="cls-14" d="M37.62,58.12s-.08,0-.12-.02l-4.63-1.63c-.19-.07-.29-.28-.22-.47.07-.19.28-.29.47-.22l4.63,1.63c.19.07.29.28.22.47-.05.15-.19.24-.34.24h0Z"/>
  <path class="cls-14" d="M22.23,58.02c-.38-1.04-.69-2.1-.96-3.18-.24-1.09-.57-2.17-.46-3.3,0-.03.05-.04.06,0,.45,1.03.66,2.08,1.02,3.13.29.91.72,2.2,1.03,3.11.14.45-.51.68-.69.24h0Z"/>
  <path class="cls-14" d="M32.66,56.27c-.91-1.85-1.9-3.96-2.86-5.77-.34-.63-.66-1.26-.95-1.93-.01-.03.03-.06.05-.04.54.5.96,1.1,1.34,1.71,1.15,1.84,2.17,3.75,3.08,5.71.19.44-.44.73-.66.31h0Z"/>
  <path class="cls-14" d="M39.46,58.35c-.18,0-.34-.13-.36-.32-.03-.2.11-.38.31-.41.05,0,4.58-.61,6.4-1.7l.36-.47c-.21-.95-1.44-5.98-4.7-10.01-.13-.16-.1-.39.06-.51.16-.13.39-.1.51.06,3.71,4.6,4.83,10.25,4.88,10.49.02.1,0,.21-.07.29l-.5.66s-.06.07-.1.09c-1.91,1.18-6.55,1.81-6.74,1.83-.02,0-.03,0-.05,0"/>
  <path class="cls-14" d="M46.28,55.31c.23-.29.49-.53.78-.75.31-.22.57-.5,1.01-.48.02,0,.04.03.03.05-.1.41-.37.59-.59.89-.22.26-.44.53-.68.78-.33.32-.82-.12-.55-.48h0Z"/>
  <path class="cls-14" d="M48.3,66.87c-1.61,0-3-.57-3.94-1.61-.78-.87-1.15-2-.99-3.03.3-1.99,2.28-6.02,2.36-6.19.09-.18.31-.25.49-.17.18.09.26.31.17.49-.02.04-2.01,4.1-2.3,5.98-.12.82.18,1.72.81,2.43.85.95,2.15,1.43,3.67,1.36,3.03-.13,4.27-5.94,4.29-6,.04-.2.23-.32.43-.28.2.04.32.23.28.43-.05.26-1.37,6.42-4.97,6.58-.1,0-.21,0-.31,0h0Z"/>
  <path class="cls-14" d="M51.52,65.05c-.11.49-.32,1.48-.41,1.97-.16.68-.17,1.35-.49,2-.01.03-.05.02-.06,0-.13-.35-.16-.7-.14-1.05.01-.69.07-1.39.18-2.08.06-.35.12-.68.22-1.03.05-.19.26-.31.45-.25.19.05.3.25.26.44h0Z"/>
  <path class="cls-14" d="M40.13,65.63c-.18,0-.34-.14-.36-.32-.02-.2.12-.38.32-.41.01,0,1.57-.21,1.52-1.14-.14-2.57-1.97-4.84-1.99-4.86-.13-.16-.11-.39.05-.51.16-.13.39-.11.51.05.08.1,2,2.47,2.16,5.28.07,1.28-1.33,1.8-2.16,1.9-.02,0-.03,0-.05,0h0Z"/>
  <path class="cls-14" d="M41.03,72.77c-.13,0-.25-.07-.32-.18-.1-.18-.04-.4.14-.5.03-.02,2.65-1.52,3.72-2.93.12-.16.35-.19.51-.07.16.12.19.35.07.51-1.16,1.52-3.82,3.06-3.94,3.12-.06.03-.12.05-.18.05h0Z"/>
  <path class="cls-14" d="M41.68,61.56c-.2,0-.36-.16-.37-.36,0-.2.16-.37.36-.37.02,0,1-.02,2.36-.43.19-.06.4.05.46.24.06.19-.05.4-.24.46-1.48.45-2.52.47-2.56.47h0Z"/>
  <path class="cls-14" d="M40.08,65.9s-.04,0-.06,0c-.17-.03-.27-.19-.24-.35,0-.04.64-3.56-.22-6.98h-.03c-.14,0-.26-.09-.29-.23l-.09-.34-.48.19c-.09.04-.2.02-.28-.03-.08-.06-.13-.15-.13-.25v-.02c-.77.42-2.6,1.73-4.53,5.42-.08.15-.26.21-.41.13-.15-.08-.21-.26-.13-.41,2.67-5.12,5.18-5.87,5.29-5.9.09-.03.19,0,.27.05.08.06.12.15.12.24v.04l.39-.15c.08-.03.17-.03.25.01.08.04.13.11.16.19l.12.44h.03c.14,0,.26.09.29.22.99,3.63.32,7.32.29,7.48-.03.15-.16.25-.3.25h0Z"/>
  <path class="cls-14" d="M36.68,62.04s-.09,0-.13-.03c-.15-.07-.21-.26-.14-.41l1.87-3.84c.07-.15.26-.21.41-.14.15.07.21.26.14.41l-1.87,3.84c-.05.11-.16.17-.27.17h0Z"/>
  <path class="cls-14" d="M38.78,62.9s-.03,0-.05,0c-.17-.03-.28-.19-.25-.35l.75-4.35c.03-.17.19-.28.35-.25.17.03.28.19.25.35l-.75,4.35c-.03.15-.15.25-.3.25h0Z"/>
  <path class="cls-14" d="M45.66,70.75h0c-.1,0-.2-.06-.25-.15l-.6-.98-.26.26c-.07.07-.18.1-.28.08-.1-.02-.18-.09-.22-.18-1.17-2.89-.66-6.9-.64-7.07.02-.17.17-.28.34-.26.17.02.28.17.26.34,0,.04-.46,3.62.44,6.32l.2-.2c.07-.07.16-.1.25-.09.09.01.17.06.22.14l.55.9.45-.67c.05-.07.12-.11.2-.13.08-.02.16,0,.23.05l.66.46c.54-.5,2.18-2.15,3.11-4.12.07-.15.25-.22.41-.15.15.07.22.25.15.41-1.17,2.48-3.34,4.39-3.43,4.47-.1.09-.26.1-.37.02l-.61-.42-.54.81c-.06.08-.15.14-.25.14h0Z"/>
  <path class="cls-14" d="M44.85,69.44s-.02,0-.03,0c-.17-.01-.29-.16-.28-.33l.3-3.64c.01-.17.16-.29.33-.28.17.01.29.16.28.33l-.3,3.64c-.01.16-.15.28-.3.28h0Z"/>
  <path class="cls-14" d="M46.37,69.68s-.07,0-.11-.02c-.16-.06-.24-.23-.18-.39l1.09-2.93c.06-.16.23-.24.39-.18.16.06.24.23.18.39l-1.09,2.93c-.05.12-.16.2-.29.2h0Z"/>
  <path class="cls-14" d="M40.08,71.14s-.04,0-.06,0c-.13-.03-.22-.13-.24-.27l-.31-2.92c-.02-.17.1-.32.27-.33.17-.02.32.1.33.27l.2,1.89c1.05-2.4,1.1-5.18,1.1-5.21,0-.17.14-.3.3-.3h0c.17,0,.3.14.3.31,0,.15-.07,3.73-1.64,6.41-.06.09-.16.15-.26.15h0Z"/>
  <path class="cls-14" d="M58.63,63.6c-.11,0-.22-.06-.27-.16-1.21-2.3-5.37-1.78-5.41-1.78-.17.02-.32-.1-.34-.26-.02-.17.09-.32.26-.34.19-.03,4.62-.58,6.03,2.1.08.15.02.33-.13.41-.05.02-.09.03-.14.03h0Z"/>
  <path class="cls-14" d="M57.39,62.35s-.04,0-.05,0c-.17-.03-.28-.19-.25-.35l.72-4.12c.03-.17.19-.28.35-.25.17.03.28.19.25.35l-.72,4.12c-.03.15-.15.25-.3.25h0Z"/>
  <path class="cls-14" d="M55.24,61.6c-.06,0-.11-.01-.16-.05-.14-.09-.19-.28-.1-.42l2.25-3.61c.09-.14.28-.19.42-.1.14.09.19.28.1.42l-2.25,3.61c-.06.09-.16.14-.26.14h0Z"/>
  <path class="cls-10" d="M35.58,46.96c-.19,0-.38,0-.57,0-2.23.02-16.59-.11-20.47-7.27-4.21-7.77-.83-18.57,3.86-23.2,4.69-4.63,10.26-4.75,13.53-6.23,3.26-1.48,5.34-4.57,5.75-4.57s1.6,2.67.89,4.81c0,0,3.03-1.07,4.09-2.79,0,0,1.13.77,0,3.56,0,0,5.46,1.42,9.25,8.42,3.8,7,5.9,18.98-.5,23.26-5.77,3.84-14.2,4.01-15.83,4.01"/>
  <path class="cls-4" d="M46.78,36.94c-3.65-2.45-8.36-3.74-8.14-8.05.22-4.18,6.7-7.07,13.02.5-1.05-4.63-3.76-8.8-7.64-9.81-6.35-1.66-9.11,2.88-9.11,2.88l-.11.3-.11-.3s-2.76-4.54-9.11-2.88c-3.88,1.02-6.59,5.18-7.64,9.81,6.32-7.57,12.8-4.68,13.02-.5.22,4.32-4.49,5.61-8.14,8.05-2.25,1.51-2.49,3.25-2.34,4.37,4.78,3.5,14.32,3.42,14.32,3.42,0,0,9.54.08,14.32-3.42.15-1.11-.08-2.86-2.34-4.37"/>
  <path class="cls-17" d="M51.55,38.08c.78-2.63.78-5.75.11-8.7-6.31-7.57-12.8-4.68-13.02-.5-.22,4.32,4.49,5.61,8.14,8.05,2.25,1.51,2.49,3.25,2.34,4.37,1.16-.85,2.04-1.9,2.43-3.22"/>
  <path class="cls-17" d="M22.81,36.94c3.65-2.45,8.36-3.74,8.14-8.05-.22-4.18-6.7-7.07-13.02.5-.67,2.94-.67,6.07.11,8.7.39,1.32,1.27,2.38,2.43,3.22-.15-1.11.08-2.86,2.34-4.37"/>
  <path class="cls-14" d="M34.86,34.47s-3.16-1.42-2.34-2.62c.47-.71,4.09-.76,4.52-.02.3.51-.4,1.89-2.18,2.65"/>
  <path class="cls-1" d="M34.81,32.25c-1.31,0-2.29-.41-2.29-.41,0,0,.5-.5,2.28-.5s2.15.5,2.15.5c-.74.3-1.48.41-2.14.41"/>
  <path class="cls-14" d="M34.87,31.66c-1.19,0-1.94.25-2.04.39-.08.11-.09.21-.06.34.16.58,1.31,1.31,2.09,1.69,1.09-.5,1.67-1.24,1.83-1.72.07-.2.05-.31.03-.34-.07-.12-.67-.34-1.76-.35-.03,0-.06,0-.09,0h0ZM34.86,34.84c-.05,0-.1-.01-.15-.03-.24-.11-2.32-1.08-2.64-2.22-.09-.33-.04-.66.16-.94.5-.75,2.64-.72,2.89-.71.85.02,1.93.17,2.25.71.14.25.15.57.03.94-.23.68-.97,1.63-2.39,2.23-.05.02-.09.03-.14.03h0Z"/>
  <path class="cls-18" d="M39.24,46.76c.75-.08,1.57-.18,2.44-.32,0,0,0,.02.01.03-.8.12-1.62.22-2.46.3"/>
  <path class="cls-11" d="M41.7,46.47s0-.02-.01-.03c.16-.03.32-.05.48-.08,0,.01.02.02.02.03-.16.03-.32.05-.48.08"/>
  <path class="cls-18" d="M42.98,46.25s-.02-.03-.03-.04c.55-.11,1.1-.24,1.66-.38.02.02.04.04.06.06-.55.13-1.12.25-1.7.36"/>
  <path class="cls-11" d="M44.67,45.89s-.04-.04-.06-.06c.28-.07.56-.15.84-.23.02.02.05.05.07.07-.28.08-.56.15-.85.22"/>
  <path class="cls-15" d="M46.32,45.44s-.06-.06-.08-.08c1.79-.57,3.58-1.35,5.17-2.41.53-.35,1-.76,1.41-1.2-1.39,1.61-3.69,2.84-6.5,3.7"/>
  <path class="cls-14" d="M45.52,45.67s-.04-.05-.07-.07c.26-.08.52-.15.78-.24.03.02.05.05.08.08-.26.08-.53.16-.8.23"/>
  <path class="cls-15" d="M21.36,44.87c-2.5-.91-4.51-2.11-5.7-3.6,1.43,1.61,3.47,2.77,5.7,3.6,0,0,0,0,0,0"/>
  <path class="cls-14" d="M21.67,44.98c-.1-.04-.21-.07-.31-.11,0,0,0,0,0,0,.1.04.21.08.31.11"/>
  <path class="cls-15" d="M13.79,38.08c-.42-1.03-.71-2.1-.89-3.19.19,1.09.48,2.16.89,3.19M55,37.6c.7-2.63.63-5.73.07-8.8.54,2.79.73,5.95-.07,8.8M13.88,24.16c.66-2.06,1.45-3.68,2.08-4.52-.81,1.35-1.52,2.88-2.08,4.52"/>
  <path class="cls-14" d="M42.18,46.39s-.02-.02-.02-.03c.26-.05.52-.1.79-.15,0,.01.02.03.03.04-.26.05-.53.1-.79.14"/>
  <path class="cls-18" d="M34.89,46.96c-4.72,0-9.48-.67-13.22-1.98-.1-.04-.21-.07-.31-.11-2.23-.83-4.27-1.99-5.7-3.6,0,0,0,0,0,0-.8-.99-1.41-2.06-1.86-3.18-.41-1.03-.7-2.1-.89-3.19-.63-3.77.02-7.72.98-10.74.55-1.64,1.26-3.17,2.08-4.52,0,0,0,0,0,0,0,0-1.31,7.81,1.48,14.47.03,1.39.23,2.73.6,3.97.39,1.32,1.27,2.38,2.43,3.22-.02-.17-.04-.35-.04-.54,0,.19.01.37.04.54,4.58,3.35,13.54,3.42,14.27,3.42h.1c.74,0,9.69-.07,14.27-3.42.02-.17.04-.34.04-.53,0,.19-.01.37-.04.53,1.16-.85,2.04-1.9,2.43-3.22.57-1.93.73-4.12.5-6.32,1.06-3.8.85-7.83.49-10.85,0,0,1.7,3.49,2.54,7.88.56,3.07.63,6.17-.07,8.8-.42,1.49-1.11,2.91-2.17,4.14,0,0,0,0,0,0-.42.45-.89.85-1.41,1.2-1.59,1.06-3.38,1.84-5.17,2.41-.26.08-.52.16-.78.24-.28.08-.56.16-.84.23-.56.14-1.12.27-1.66.38-.27.05-.53.1-.79.15-.16.03-.32.06-.48.08-.87.14-1.69.25-2.44.32-1.43.13-2.89.19-4.35.19"/>
  <path class="cls-13" d="M34.84,44.73h-.1c-.74,0-9.69-.07-14.27-3.42-.02-.17-.04-.35-.04-.54,0-.48.09-1.03.35-1.61,2.48,2.44,6.11,4.12,11.4,4.22.61.77,1.55,1.26,2.61,1.26,1.19,0,2.24-.63,2.83-1.58,4.97-.69,8.37-2.43,10.68-4.72.65.87.84,1.72.84,2.43,0,.19-.01.37-.04.53-4.58,3.35-13.54,3.42-14.27,3.42"/>
  <path class="cls-9" d="M49.11,41.31c.02-.17.04-.34.04-.53,0-.7-.19-1.56-.84-2.43,1.92-1.91,3.08-4.2,3.74-6.58.22,2.19.07,4.39-.5,6.32-.39,1.32-1.27,2.38-2.43,3.22"/>
  <path class="cls-9" d="M20.47,41.31c-1.16-.85-2.04-1.9-2.43-3.22-.37-1.24-.56-2.58-.6-3.97.77,1.83,1.84,3.58,3.34,5.05-.26.58-.35,1.13-.35,1.61,0,.19.01.37.04.54"/>
  <path class="cls-5" d="M52.53,20.91c-.2-.42-.41-.83-.62-1.22-1.81-3.34-4-5.41-5.79-6.66,4.63,3.15,6.34,7.68,6.41,7.87M19.47,15.52c3.21-2.78,6.65-3.6,9.52-4.28-2.83.78-6.32,1.63-9.52,4.28M43.4,11.53c-.46-.19-.74-.26-.74-.26.01-.03.02-.06.04-.09,0,0,.26.12.7.35M38.57,10.5c.05-.14.09-.28.12-.43l.03.34c.08-.02.16-.04.23-.06-.24.1-.38.15-.38.15M38.76,8.43c-.08-.8-.31-1.53-.54-2.04.36.64.5,1.38.54,2.04M43.05,8.34c-.15-.46-.39-.63-.39-.63.2.14.33.36.39.63"/>
  <path class="cls-3" d="M52.53,20.92c-5.3-7.29-11.43-8.71-11.51-8.91-.09-.2.56-1.31.58-1.58,0-.02-.01-.03-.05-.03-.19,0-.89.32-1.64.64-.75.32-1.54.64-1.89.64-.02,0-.03,0-.05,0-.69-.07-1.07-.18-.6-1.22.47-1.05.29-2.56.11-2.96-.01-.03-.03-.05-.06-.05-.32,0-1.53,2.06-3.74,3.25-2.4,1.29-5.05,1.69-9.12,3.09-4.07,1.4-8.47,5.65-8.47,5.65,1.07-1.63,2.21-2.9,3.38-3.92,3.2-2.65,6.69-3.5,9.52-4.28.72-.17,1.41-.33,2.04-.52,4.08-1.17,6.64-5.03,6.64-5.03.22.21.4.44.54.7.24.51.46,1.24.54,2.04.06.91-.08,1.64-.08,1.64h0c-.03.14-.07.29-.12.43,0,0,.14-.05.38-.15,2.67-.73,3.71-2.64,3.71-2.64,0,0,0,0,0,0,0,0,.25.17.39.63.26,1.06-.36,2.84-.36,2.84h0s-.02.06-.04.09c0,0,.27.07.74.26.6.31,1.55.81,2.71,1.49,0,0,.01,0,.02.01,1.79,1.25,3.98,3.32,5.79,6.66.21.39.42.8.62,1.22,0,0,0,0,0,0"/>
  <path class="cls-19" d="M37.67,35.33c-1.54.39-2.87.45-2.87.45,0,0-1.33-.06-2.87-.45-1.54-.39-3.86.53-3.35,3.2.5,2.67,2.39,3.92,6.22,3.92s5.72-1.25,6.22-3.92c.5-2.67-1.81-3.59-3.35-3.2"/>
  <path class="cls-6" d="M40.55,36.89c-.42-.34-1.14-.84-1.78-.94-.09-.01-.18-.02-.28-.02-.47,0-1.02.14-1.61.28-.59.14-1.21.28-1.82.28-.03,0-.06,0-.09,0-1.37-.03-2.19-.45-3.66-.47-.01,0-.03,0-.04,0-.87,0-1.67.42-2.17.76.1-.2.24-.39.4-.54.48-.46,1.14-.64,1.72-.64.22,0,.43.03.62.07,1.56.39,2.89.45,2.94.46,0,0,.01,0,.02,0s.01,0,.02,0c.06,0,1.38-.07,2.94-.46.19-.05.4-.07.62-.07.58,0,1.24.18,1.72.64.2.18.35.4.45.65"/>
  <path class="cls-2" d="M34.8,42.02c-.39,0-.7-.31-.7-.7,0-.08.01-.15.04-.22h0c.18.14.4.22.65.22.26,0,.49-.09.67-.25.03.08.04.16.04.25,0,.39-.31.7-.7.7M38.12,41.61c0-.1.01-.19.01-.29,0-1.33-.79-2.48-1.92-3.02,1.21-.13,2.49-.46,3.78-1.11,0,0,.49,1.69-.08,3.12-.43.57-1.01,1-1.79,1.29M31.48,41.61c-1-.37-1.7-.98-2.12-1.84-.1-.72-.14-1.73.18-2.57,0,0,1.59.81,3.9,1.08-1.16.52-1.97,1.69-1.97,3.04,0,.1,0,.19.01.29"/>
  <path class="cls-14" d="M31.22,35.61c-.58,0-1.24.18-1.72.64-.54.51-.74,1.28-.56,2.22.48,2.54,2.23,3.62,5.86,3.62s5.39-1.08,5.86-3.62c.18-.94-.02-1.7-.56-2.22-.67-.63-1.66-.74-2.34-.56-1.56.39-2.89.45-2.94.46-.01,0-.02,0-.03,0-.06,0-1.38-.07-2.94-.46-.19-.05-.4-.07-.62-.07M34.8,42.81c-3.95,0-6.04-1.34-6.58-4.21-.28-1.51.27-2.4.78-2.88.75-.71,1.96-1.01,3.02-.74,1.4.35,2.63.42,2.78.43.16,0,1.39-.08,2.78-.43,1.06-.26,2.27.03,3.02.74.51.48,1.06,1.38.78,2.88-.54,2.87-2.63,4.21-6.58,4.21"/>
  <path class="cls-8" d="M34.8,42.38c-.59,0-1.07-.48-1.07-1.07s.48-1.07,1.07-1.07,1.07.48,1.07,1.07-.48,1.07-1.07,1.07M34.8,38.35c-1.64,0-2.97,1.33-2.97,2.97s1.33,2.97,2.97,2.97,2.97-1.33,2.97-2.97-1.33-2.97-2.97-2.97"/>
  <path class="cls-14" d="M34.8,38.72c-1.43,0-2.6,1.17-2.6,2.6s1.17,2.6,2.6,2.6,2.6-1.17,2.6-2.6-1.17-2.6-2.6-2.6M34.8,44.65c-1.84,0-3.33-1.49-3.33-3.33s1.49-3.33,3.33-3.33,3.33,1.49,3.33,3.33-1.49,3.33-3.33,3.33"/>
  <path class="cls-14" d="M34.8,40.62c-.39,0-.7.31-.7.7s.31.7.7.7.7-.31.7-.7-.31-.7-.7-.7M34.8,42.75c-.79,0-1.43-.64-1.43-1.43s.64-1.43,1.43-1.43,1.43.64,1.43,1.43-.64,1.43-1.43,1.43"/>
  <path class="cls-4" d="M34.78,41.32c-.58,0-1.05-.47-1.05-1.05v-1.64c0-.58.47-1.05,1.05-1.05s1.05.47,1.05,1.05v1.64c0,.58-.47,1.05-1.05,1.05"/>
  <path class="cls-20" d="M33.74,40.36c-.03-.3-.02-.6,0-.87v.77s0,.06,0,.09c0,0,0,0,0,0"/>
  <path class="cls-14" d="M34.14,41.09c-.21-.1-.36-.31-.4-.69,0-.01,0-.03,0-.04,0,0,0,0,0,0,.03.3.18.56.4.73h0"/>
  <path class="cls-20" d="M35.84,40.33s0,0,0,0c0-.02,0-.04,0-.05v-.13c0,.06,0,.13,0,.19"/>
  <path class="cls-14" d="M35.72,40.74c.06-.13.1-.27.11-.42,0,0,0,0,0,0,0,.15-.04.29-.12.41"/>
  <path class="cls-13" d="M34.51,41.17c-.14,0-.26-.02-.37-.07h0c-.22-.17-.37-.44-.4-.73,0-.03,0-.06,0-.09v-.77c.05-.58.18-1.02.18-1.02,0,0,.42,1.11,1.02,1.2.13.02.25.03.34.03.33,0,.44-.09.44-.09,0,0,.09.24.12.53v.13s0,.04,0,.05c0,.15-.05.29-.11.42-.07.11-.18.2-.34.25-.3.1-.61.18-.87.18"/>
  <path class="cls-20" d="M34.8,43.92c-1.43,0-2.6-1.17-2.6-2.6,0-.61.21-1.17.56-1.61-.07.96-.06,3.45,2.12,3.52.03,0,.06,0,.09,0,1.82,0,2.19-1.78,2.25-2.86.12.29.18.61.18.95,0,1.43-1.17,2.6-2.6,2.6"/>
  <path class="cls-14" d="M34.99,44.22c-3.15-.59-3.75-2.48-2.19-4.88,0,0-.02.14-.04.38-.35.44-.56,1-.56,1.61,0,1.43,1.17,2.6,2.6,2.6s2.6-1.17,2.6-2.6c0-.34-.06-.66-.18-.95.03-.47,0-.8,0-.8,0,0,1.93,4.14-2.23,4.65"/>
  <path class="cls-14" d="M34.78,37.94c-.38,0-.68.31-.68.68v1.64c0,.38.31.68.68.68s.68-.31.68-.68v-1.64c0-.38-.31-.68-.68-.68h0ZM34.78,41.68c-.78,0-1.41-.63-1.41-1.41v-1.64c0-.78.63-1.41,1.41-1.41s1.41.63,1.41,1.41v1.64c0,.78-.63,1.41-1.41,1.41h0Z"/>
  <path class="cls-14" d="M34.86,36.14c-.2,0-.37-.16-.37-.37v-1.3c0-.2.16-.37.37-.37s.37.16.37.37v1.3c0,.2-.16.37-.37.37h0Z"/>
  <path class="cls-14" d="M37.65,6.13c-.15.13-.39.39-.61.62-1.01,1.05-2.69,2.81-4.97,3.85-.99.45-2.2.78-3.48,1.13-2.99.82-6.71,1.84-9.94,5.03-2.37,2.34-4.3,6.16-5.16,10.24-.99,4.63-.5,9.08,1.37,12.53,1.58,2.92,5.15,4.99,10.61,6.15,4.3.91,8.39.95,9.54.93.19,0,.38,0,.57,0,.02,0,.04,0,.06,0,1.75,0,9.96-.21,15.56-3.95,3.52-2.34,4.07-6.89,3.92-10.28-.19-4.09-1.51-8.76-3.53-12.49-3.67-6.76-8.97-8.23-9.03-8.24-.1-.03-.19-.1-.23-.19-.05-.09-.05-.2-.01-.3.63-1.55.51-2.39.34-2.8-1.29,1.55-3.85,2.47-3.97,2.51-.13.05-.28.01-.38-.08-.1-.1-.13-.24-.09-.38.57-1.71-.21-3.75-.57-4.25h0ZM34.65,47.32c-3.47,0-16.64-.47-20.43-7.47-1.95-3.6-2.47-8.23-1.44-13.03.9-4.21,2.9-8.17,5.37-10.6,3.37-3.33,7.19-4.37,10.27-5.21,1.25-.34,2.43-.66,3.37-1.09,2.15-.98,3.77-2.67,4.74-3.69.64-.67.88-.92,1.17-.92.27,0,.45.22.57.38.47.65,1.11,2.47.84,4.18.92-.4,2.56-1.25,3.26-2.37.05-.08.14-.14.24-.16.1-.02.2,0,.28.06.13.09,1.24.95.27,3.63,1.34.47,5.81,2.42,9.1,8.48,2.07,3.83,3.43,8.61,3.62,12.81.16,3.59-.44,8.39-4.24,10.92-5.85,3.9-14.38,4.07-16.03,4.07h0c-.19,0-.38,0-.56,0-.11,0-.23,0-.36,0h0Z"/>
  <path class="cls-4" d="M57.35,17.93c-.56-.91-.83-2.01-.72-3.16.29-2.79,2.78-4.81,5.56-4.53,2.79.29,4.81,2.78,4.53,5.56-.29,2.79-2.78,4.81-5.56,4.53-.77-.08-1.49-.33-2.11-.71l-2.35.53.65-2.22"/>
  <path class="cls-4" d="M66.3,14.42c-.67-1.72-2.25-3-4.21-3.21-.18-.02-.35-.03-.52-.03-1.75,0-3.34.91-4.25,2.31.29-.72.77-1.36,1.38-1.86.85-.69,1.88-1.06,2.96-1.06.16,0,.33,0,.49.03,1.25.13,2.38.74,3.17,1.71.5.62.84,1.34.98,2.1"/>
  <path class="cls-14" d="M59.04,19.26c.07,0,.13.02.19.05.6.36,1.26.59,1.96.66,1.25.13,2.48-.24,3.45-1.03.97-.79,1.58-1.92,1.71-3.17.13-1.25-.24-2.48-1.03-3.45-.79-.97-1.92-1.58-3.17-1.71-1.25-.13-2.48.24-3.45,1.03-.97.79-1.58,1.92-1.71,3.17-.11,1.03.12,2.05.66,2.93.05.09.07.19.04.29l-.48,1.62,1.74-.39s.05,0,.08,0M61.68,20.73c-.19,0-.38,0-.57-.03-.76-.08-1.48-.31-2.14-.68l-2.21.49c-.13.03-.26-.01-.35-.11-.09-.09-.12-.23-.08-.35l.61-2.07c-.57-.99-.8-2.11-.68-3.25.15-1.44.85-2.74,1.98-3.66,1.13-.92,2.54-1.34,3.99-1.19,1.44.15,2.74.85,3.66,1.98.92,1.13,1.34,2.54,1.19,3.99-.15,1.44-.85,2.74-1.98,3.66-.98.8-2.18,1.22-3.42,1.22"/>
  <path class="cls-13" d="M61.68,19.99c-.16,0-.33,0-.49-.03-.7-.07-1.36-.29-1.96-.66-.06-.04-.12-.05-.19-.05-.03,0-.05,0-.08,0l-1.74.39.44-1.51c.98.71,2.18,1.12,3.44,1.12.47,0,.94-.06,1.42-.17,1.7-.42,3.04-1.55,3.79-3-.19,1.12-.78,2.12-1.67,2.84-.85.69-1.88,1.06-2.96,1.06"/>
  <path class="cls-14" d="M61.68,20.36c-.17,0-.35,0-.52-.03-.77-.08-1.49-.33-2.11-.71l-2.35.53.65-2.22s-.02-.03-.03-.05c.11.09.23.18.34.27l-.44,1.51,1.74-.39s.05,0,.08,0c.07,0,.13.02.19.05.6.36,1.26.59,1.96.66.16.02.33.03.49.03,1.08,0,2.11-.37,2.96-1.06.89-.72,1.47-1.72,1.67-2.84.18-.34.32-.71.43-1.08.01.26,0,.52-.02.79-.27,2.61-2.47,4.55-5.04,4.55"/>
  <path class="cls-12" d="M60.05,13.87h0c.44-.44,1.15-.36,1.59.08l.07.07.07-.07c.44-.44,1.15-.52,1.59-.08h0c.44.44.44,1.15,0,1.59l-.07.07-1.38,1.38c-.12.12-.3.12-.42,0l-1.38-1.38-.07-.07c-.44-.44-.44-1.15,0-1.59h0Z"/>
  <path class="cls-14" d="M22.57,30.76c.06-.07.1-.12.14-.17.05-.05.09-.1.14-.15.1-.1.2-.19.3-.27.21-.17.44-.32.68-.45.48-.26,1.01-.44,1.57-.52.28-.04.56-.05.84-.04.28.02.56.06.83.13.54.14,1.05.4,1.45.75.21.18.23.5.05.71-.12.14-.29.19-.46.17h-.03c-.45-.08-.86-.14-1.27-.17-.2,0-.4-.01-.6,0-.2,0-.4.02-.6.05-.4.05-.8.14-1.2.27-.2.06-.4.13-.61.21l-.31.12-.15.06s-.11.04-.14.05l-.18.03c-.26.05-.52-.12-.57-.38-.03-.14.01-.29.1-.39h0Z"/>
  <path class="cls-14" d="M46.26,31.44s-.09-.03-.14-.05l-.15-.06-.31-.11c-.2-.07-.41-.14-.61-.2-.4-.12-.8-.21-1.2-.26-.2-.02-.4-.04-.6-.04-.2,0-.4,0-.6.01-.41.03-.82.09-1.27.17h-.03c-.28.05-.54-.14-.58-.41-.03-.18.04-.35.17-.46.41-.36.91-.61,1.45-.76.27-.07.55-.12.83-.13.28-.01.56,0,.84.03.56.08,1.09.25,1.57.51.24.13.47.28.68.45.11.08.21.17.3.27.05.05.1.1.14.15.05.05.09.1.14.17.17.21.13.51-.07.68-.11.09-.26.12-.39.1l-.18-.03h0Z"/>
</svg>