<?xml version="1.0" encoding="UTF-8"?>
<svg id="Vrstva_1" data-name="Vrstva 1" xmlns="http://www.w3.org/2000/svg" viewBox="0 0 36.5 29.78">
  <defs>
    <style>
      .cls-1 {
        fill: #1d1d1b;
      }
    </style>
  </defs>
  <path class="cls-1" d="M35.28,22.11c-.88,2.44-2.12,5.05-4.5,6.08-3.51,1.53-7.42-1.09-11.25-1.06-4.06.03-7.78,3.08-11.81,2.59-2.43-.3-4.59-1.91-5.89-3.98C.53,23.66.02,21.17,0,18.72-.05,11.48,4.38,4.4,10.91,1.29,13.14.22,15.72-.41,18.09.3c1.5.45,3.19,1.97,4.62,3.55,2.14,2.36,4.87,4.11,7.92,5.01,2.05.61,3.83,1.67,4.9,3.51,1.69,2.9.87,6.57-.26,9.73Z"/>
</svg>