<?xml version="1.0" encoding="UTF-8"?>
<svg id="Vrstva_1" data-name="Vrstva 1" xmlns="http://www.w3.org/2000/svg" viewBox="0 0 47.1 39.44">
  <defs>
    <style>
      .cls-1 {
        fill: #373d3a;
      }

      .cls-2 {
        fill: #68aa31;
      }

      .cls-3 {
        opacity: .5;
      }
    </style>
  </defs>
  <g class="cls-3">
    <path class="cls-2" d="M47.1,4.68c-1.05,13.7-8.63,25.84-19.88,31.85-3.63,1.94-7.75,3.29-12.07,2.8-4.12-.47-8.15-2.6-11.55-5.47-.82-.69-1.61-1.43-2.37-2.2-.22-12.33,7.03-23.59,17.84-27.3,8.64-2.97,18.52-1.38,28.02.31Z"/>
  </g>
  <path class="cls-1" d="M44.43.92C39.48.39,34.65-.08,29.95.01c-5.37.1-9.85.94-13.69,2.56-2.62,1.11-5.04,2.68-7.19,4.67-2.09,1.93-3.87,4.22-5.3,6.79-1.43,2.56-2.47,5.35-3.09,8.27C.04,25.29-.15,28.36.12,31.42c0,.1.05.19.13.25.84.74,1.69,1.43,2.54,2.05,5.04,3.69,9.37,4.61,12.11,4.73.24.01.49.02.74.02,3.66,0,7.37-1.21,11.33-3.7,5.36-3.36,9.84-8.24,12.96-14.11,3.12-5.87,4.8-12.56,4.85-19.36,0-.2-.15-.36-.34-.38ZM39.25,20.31c-3.06,5.75-7.45,10.53-12.69,13.82-4.09,2.56-7.89,3.73-11.63,3.56-4.77-.21-8.99-2.61-11.69-4.58-.79-.58-1.59-1.22-2.37-1.9C-.13,19.08,6.31,7.61,16.56,3.28c3.74-1.58,8.13-2.4,13.4-2.5,4.55-.09,9.24.36,14.04.87-.11,6.56-1.75,13-4.76,18.66Z"/>
  <path class="cls-1" d="M30.86,7.13c.09-.19,0-.42-.19-.51-.19-.09-.42,0-.51.19-.91,2.02-1.21,4.26-.83,6.36-2.84,2.1-5.76,4.11-8.73,6.01-.09-2.69.68-5.64,2.2-8.38.1-.18.04-.42-.15-.52-.18-.1-.42-.04-.52.15-1.67,3.01-2.47,6.27-2.27,9.23-2.89,1.82-5.84,3.55-8.83,5.19-.6-2.92.19-6.06,2.13-8.31.14-.16.12-.4-.04-.54-.16-.14-.4-.12-.54.04-2.14,2.49-2.99,5.98-2.25,9.19-1.61.87-3.24,1.7-4.88,2.51-.19.09-.27.32-.17.51.07.14.2.21.34.21.06,0,.11-.01.17-.04,1.39-.69,2.78-1.4,4.15-2.12,2.7,1.63,5.85,2.48,9.07,2.48.64,0,1.28-.03,1.92-.1.21-.02.36-.21.34-.42-.02-.21-.21-.36-.42-.34-3.54.38-7.1-.35-10.11-2.04.07-.04.13-.07.2-.11.02,0,.03-.02.05-.02,2.49-1.35,4.95-2.76,7.37-4.24,2,.82,4.21,1.24,6.46,1.24,1.36,0,2.74-.15,4.1-.46.21-.05.34-.25.29-.46-.05-.21-.25-.34-.46-.29-3.25.74-6.61.55-9.56-.54.43-.27.86-.53,1.28-.8.02,0,.03-.02.04-.03,2.53-1.61,5.02-3.28,7.46-5.03.85.26,1.81.38,2.84.38,1.71,0,3.63-.35,5.62-1.04.2-.07.31-.29.24-.49-.07-.2-.29-.31-.49-.24-2.77.96-5.36,1.23-7.4.8.41-.29.81-.59,1.21-.89.02-.01.04-.02.05-.04,1.57-1.16,3.12-2.36,4.64-3.58l2.79-2.18c.17-.13.2-.37.07-.54-.13-.17-.37-.2-.54-.07l-2.79,2.19c-1.36,1.09-2.75,2.16-4.15,3.21-.25-1.83.04-3.78.83-5.53Z"/>
</svg>