<?xml version="1.0" encoding="UTF-8"?>
<svg id="Vrstva_1" data-name="Vrstva 1" xmlns="http://www.w3.org/2000/svg" viewBox="0 0 35.34 38.64">
  <defs>
    <style>
      .cls-1 {
        fill: #1d1d1b;
      }
    </style>
  </defs>
  <path class="cls-1" d="M34.95,20.22c-1.96,14.45-5.78,12.38-17.29,17.29C6.16,42.41,2.34,29.76.38,20.22-1.58,10.67,5.18-6.88,17.67,2.93c12.49,9.81,19.25,2.83,17.29,17.29Z"/>
  <path class="cls-1" d="M12.89,38.64c-1.36,0-2.62-.3-3.77-.91C3.97,35.04,1.72,26.96.33,20.23c-.63-3.09-.35-7.07.75-10.65C2.29,5.65,4.31,2.65,6.76,1.13c3.18-1.97,6.97-1.36,10.94,1.76,4.73,3.72,8.68,5.03,11.56,6,4.78,1.6,6.97,2.32,5.74,11.33-.78,5.72-1.83,8.89-3.64,10.95-1.76,2.01-4.25,2.88-7.68,4.09-1.74.61-3.71,1.31-6,2.28-1.71.73-3.31,1.09-4.8,1.09ZM10.66.1c-1.36,0-2.65.37-3.85,1.11C4.38,2.72,2.38,5.7,1.18,9.61.08,13.17-.2,17.14.43,20.21c1.38,6.71,3.62,14.76,8.73,17.44,2.4,1.25,5.25,1.19,8.49-.19,2.29-.98,4.26-1.67,6-2.28,3.42-1.21,5.89-2.08,7.64-4.06,1.79-2.04,2.84-5.2,3.61-10.9h.05s-.05,0-.05,0c.59-4.33.41-6.84-.6-8.37-.97-1.49-2.7-2.06-5.08-2.86-2.89-.96-6.85-2.28-11.59-6.01C15.21,1.06,12.85.1,10.66.1Z"/>
</svg>